<svg xmlns="http://www.w3.org/2000/svg" xmlns:xlink="http://www.w3.org/1999/xlink" width="500" zoomAndPan="magnify" viewBox="0 0 375 374.999991" height="500" preserveAspectRatio="xMidYMid meet" version="1.0">
  <path fill="#deb968" d="M 44.125 164.527344 C 39.976562 165.972656 37.890625 168.8125 37.652344 173.335938 C 37.519531 175.875 37.59375 176.273438 38.507812 178.011719 C 40.507812 181.808594 44.105469 183.472656 49.535156 183.109375 C 51.257812 182.996094 53.175781 182.796875 53.796875 182.671875 L 54.925781 182.445312 L 54.925781 179.332031 C 54.925781 176.511719 54.988281 176.203125 55.617188 176.039062 C 57.109375 175.648438 56.164062 175.40625 52.839844 175.324219 C 50.699219 175.273438 49.371094 175.375 49.371094 175.589844 C 49.371094 175.78125 49.90625 175.9375 50.5625 175.9375 C 52.410156 175.9375 52.945312 176.71875 52.765625 179.171875 C 52.554688 182.101562 51.8125 182.664062 48.453125 182.449219 C 43.082031 182.105469 39.960938 178.476562 39.9375 172.539062 C 39.921875 169.367188 40.902344 167.238281 43.085938 165.703125 C 44.449219 164.746094 44.8125 164.660156 47.40625 164.664062 C 50.867188 164.667969 52.113281 165.25 53.554688 167.523438 L 54.578125 169.132812 L 54.578125 167.699219 C 54.578125 165.457031 54.125 164.667969 52.574219 164.203125 C 50.496094 163.582031 46.386719 163.738281 44.125 164.527344 M 61.636719 164.226562 C 61.546875 164.367188 61.949219 164.484375 62.527344 164.484375 C 64.269531 164.484375 64.378906 165.101562 64.199219 173.683594 C 64.109375 177.9375 63.925781 181.585938 63.796875 181.796875 C 63.664062 182.011719 63.097656 182.183594 62.539062 182.183594 C 61.976562 182.183594 61.515625 182.339844 61.515625 182.53125 C 61.515625 182.746094 63.132812 182.859375 65.769531 182.828125 C 68.105469 182.804688 69.628906 182.71875 69.152344 182.640625 C 66.246094 182.164062 65.949219 181.589844 66.109375 176.804688 L 66.203125 174.027344 L 70.703125 174.027344 L 72.617188 176.878906 C 73.667969 178.445312 75.125 180.4375 75.847656 181.300781 L 77.167969 182.878906 L 79.667969 182.863281 L 82.164062 182.851562 L 80.351562 181.972656 C 78.53125 181.09375 76.921875 179.441406 74.21875 175.675781 C 73.007812 173.992188 72.964844 173.855469 73.648438 173.855469 C 75.839844 173.855469 78.175781 171.222656 78.175781 168.753906 C 78.175781 166.925781 76.75 165.144531 74.808594 164.550781 C 73.335938 164.097656 61.886719 163.816406 61.636719 164.226562 M 95.886719 165.265625 C 95.53125 166.078125 93.957031 169.785156 92.382812 173.507812 C 89.097656 181.28125 88.855469 181.710938 87.402344 182.347656 C 86.410156 182.785156 86.605469 182.820312 89.972656 182.820312 C 92.953125 182.824219 93.425781 182.753906 92.574219 182.457031 C 90.394531 181.6875 90.214844 180.992188 91.402344 177.890625 L 92.140625 175.964844 L 96.273438 175.984375 L 100.410156 176.003906 L 101.609375 178.390625 C 103.136719 181.421875 103.148438 182.066406 101.683594 182.488281 C 100.792969 182.746094 101.308594 182.820312 104.164062 182.847656 L 107.773438 182.878906 L 106.648438 182.097656 C 106.027344 181.667969 105.152344 180.613281 104.699219 179.753906 C 103.175781 176.867188 97.257812 164.421875 97.257812 164.105469 C 97.257812 163.273438 96.457031 163.949219 95.886719 165.265625 M 117.8125 164.445312 C 113.984375 165.769531 111.085938 169.390625 111.03125 172.914062 C 110.945312 178.761719 114.71875 182.757812 120.691406 183.148438 C 122.785156 183.285156 127.160156 182.589844 127.71875 182.03125 C 127.953125 181.796875 128.378906 178.019531 128.171875 178.019531 C 128.0625 178.019531 127.660156 178.601562 127.277344 179.308594 C 126.222656 181.261719 124.003906 182.664062 121.957031 182.664062 C 119.601562 182.664062 118.15625 181.992188 116.277344 180.015625 C 112.84375 176.414062 112.34375 170.289062 115.207031 166.886719 C 117.277344 164.425781 121.234375 163.777344 124.609375 165.351562 C 126.101562 166.046875 126.566406 166.476562 127.039062 167.601562 C 127.359375 168.363281 127.730469 168.992188 127.859375 168.992188 C 128.242188 169 127.726562 165.03125 127.3125 164.746094 C 125.695312 163.648438 120.585938 163.488281 117.8125 164.445312 M 220.945312 164.503906 C 218.613281 165.402344 216.648438 167.132812 215.601562 169.210938 C 214.917969 170.566406 214.746094 171.425781 214.753906 173.507812 C 214.761719 177.542969 216.464844 180.464844 219.863281 182.269531 C 221.042969 182.894531 221.878906 183.042969 224.265625 183.039062 C 227.757812 183.03125 229.570312 182.308594 231.953125 179.957031 C 236.632812 175.339844 235.152344 167.238281 229.125 164.511719 C 227.054688 163.574219 223.371094 163.570312 220.945312 164.503906 M 270.660156 171.886719 C 268.789062 176.335938 266.957031 180.429688 266.589844 180.988281 C 266.226562 181.542969 265.414062 182.1875 264.789062 182.414062 C 263.792969 182.773438 264.117188 182.824219 267.472656 182.824219 L 271.289062 182.824219 L 269.8125 182.300781 C 268.5 181.835938 268.339844 181.65625 268.339844 180.6875 C 268.339844 180.085938 268.675781 178.777344 269.089844 177.78125 L 269.839844 175.972656 L 273.960938 175.960938 L 278.085938 175.953125 L 279.304688 178.59375 C 279.976562 180.042969 280.445312 181.4375 280.347656 181.691406 C 280.25 181.945312 279.65625 182.304688 279.027344 182.484375 C 278.121094 182.746094 278.679688 182.820312 281.699219 182.84375 L 285.515625 182.875 L 284.476562 182.238281 C 283.902344 181.886719 283.242188 181.367188 283.007812 181.085938 C 282.773438 180.800781 280.820312 176.84375 278.667969 172.292969 C 276.519531 167.742188 274.601562 163.972656 274.410156 163.910156 C 274.21875 163.851562 272.53125 167.441406 270.660156 171.886719 M 290.324219 164.21875 C 290.234375 164.363281 290.546875 164.484375 291.023438 164.484375 C 292.929688 164.484375 293.003906 164.855469 292.777344 173.449219 C 292.664062 177.777344 292.511719 181.511719 292.4375 181.75 C 292.363281 181.988281 291.832031 182.183594 291.253906 182.183594 C 290.671875 182.183594 290.199219 182.339844 290.199219 182.53125 C 290.199219 182.742188 291.832031 182.867188 294.453125 182.851562 C 297.148438 182.835938 298.449219 182.71875 298.007812 182.53125 C 297.625 182.367188 296.878906 182.222656 296.351562 182.207031 C 295.078125 182.175781 294.613281 180.941406 294.839844 178.199219 C 294.9375 177.050781 295.023438 175.628906 295.035156 175.042969 L 295.058594 173.976562 L 297.054688 174.046875 C 298.152344 174.082031 299.136719 174.132812 299.246094 174.15625 C 299.355469 174.183594 300.320312 175.488281 301.390625 177.066406 C 302.464844 178.640625 303.910156 180.589844 304.605469 181.402344 C 305.867188 182.875 305.871094 182.878906 308.292969 182.878906 C 310.703125 182.878906 311.25 182.453125 309.339844 182.070312 C 308.183594 181.839844 305.894531 179.664062 303.597656 176.605469 C 301.867188 174.304688 301.699219 173.855469 302.558594 173.855469 C 303.519531 173.855469 305.679688 172.445312 306.28125 171.425781 C 307.027344 170.160156 307.015625 167.8125 306.257812 166.527344 C 305.121094 164.605469 303.578125 164.207031 296.679688 164.074219 C 293.273438 164.003906 290.414062 164.070312 290.324219 164.21875 M 315.53125 164.226562 C 315.53125 164.367188 315.882812 164.488281 316.3125 164.492188 C 318.105469 164.503906 318.128906 164.601562 318.214844 172.789062 C 318.257812 176.988281 318.167969 180.769531 318.007812 181.195312 C 317.851562 181.625 317.195312 182.160156 316.542969 182.398438 C 315.507812 182.769531 316.019531 182.828125 320.589844 182.851562 C 328.074219 182.886719 330.570312 182.003906 332.699219 178.558594 C 333.589844 177.121094 333.769531 176.4375 333.875 174.117188 C 334.019531 170.925781 333.414062 168.933594 331.710938 166.992188 C 329.734375 164.742188 328.285156 164.335938 321.519531 164.140625 C 318.226562 164.042969 315.53125 164.082031 315.53125 164.226562 M 135.144531 164.382812 C 135.65625 164.460938 136.246094 164.730469 136.453125 164.984375 C 136.710938 165.292969 136.800781 168.109375 136.738281 173.695312 L 136.644531 181.949219 L 135.429688 182.386719 C 134.386719 182.761719 135.3125 182.828125 142.0625 182.851562 L 149.90625 182.878906 L 149.941406 180.535156 C 149.972656 178.304688 149.796875 178.222656 149.179688 180.1875 C 148.75 181.550781 146.910156 182.179688 143.351562 182.183594 C 138.894531 182.183594 138.902344 182.191406 138.902344 177.300781 C 138.902344 174.519531 139.015625 173.496094 139.335938 173.46875 C 140.375 173.378906 145.027344 173.5625 145.550781 173.714844 C 145.871094 173.808594 146.292969 174.34375 146.488281 174.910156 C 146.6875 175.476562 146.929688 175.9375 147.03125 175.9375 C 147.132812 175.9375 147.195312 174.6875 147.167969 173.160156 C 147.140625 171.632812 146.988281 170.382812 146.828125 170.382812 C 146.667969 170.382812 146.535156 170.679688 146.535156 171.035156 C 146.535156 172.1875 145.667969 172.496094 142.230469 172.574219 L 138.902344 172.648438 L 138.902344 169.410156 C 138.902344 164.769531 138.839844 164.832031 143.378906 164.832031 C 146.65625 164.832031 147.253906 164.925781 148.050781 165.550781 C 148.554688 165.945312 148.96875 166.53125 148.96875 166.851562 C 148.972656 167.171875 149.128906 167.667969 149.3125 167.957031 C 149.550781 168.324219 149.648438 167.835938 149.652344 166.308594 L 149.660156 164.136719 L 141.9375 164.191406 C 137.691406 164.21875 134.636719 164.304688 135.144531 164.382812 M 171.480469 164.484375 C 172.125 164.636719 172.785156 164.972656 172.949219 165.230469 C 173.113281 165.488281 173.246094 169.234375 173.25 173.550781 C 173.257812 182.0625 173.285156 181.921875 171.28125 182.523438 C 170.683594 182.703125 173.535156 182.828125 178.671875 182.847656 L 187.042969 182.878906 L 187.277344 180.578125 C 187.511719 178.296875 187.347656 177.3125 186.941406 178.578125 C 185.957031 181.667969 184.984375 182.179688 180.136719 182.183594 C 178.101562 182.183594 176.1875 182.089844 175.886719 181.972656 C 175.40625 181.789062 175.339844 180.695312 175.339844 173.304688 L 175.339844 164.84375 L 176.292969 164.636719 C 178.117188 164.234375 177.917969 164.191406 174.125 164.203125 C 171.460938 164.207031 170.660156 164.292969 171.480469 164.484375 M 193.6875 164.484375 C 194.332031 164.636719 194.996094 164.972656 195.15625 165.230469 C 195.519531 165.800781 195.558594 181.152344 195.199219 181.71875 C 195.058594 181.9375 194.398438 182.273438 193.730469 182.464844 C 192.824219 182.726562 194.496094 182.824219 200.359375 182.847656 L 208.207031 182.878906 L 208.429688 180.738281 C 208.550781 179.5625 208.582031 178.53125 208.5 178.445312 C 208.414062 178.359375 208.121094 178.828125 207.847656 179.484375 C 206.929688 181.683594 205.875 182.183594 202.164062 182.183594 C 197.453125 182.183594 197.546875 182.277344 197.546875 177.488281 L 197.546875 173.507812 L 199.890625 173.46875 C 204.066406 173.402344 204.964844 173.714844 205.289062 175.367188 C 205.367188 175.773438 205.441406 174.78125 205.453125 173.160156 C 205.46875 170.796875 205.40625 170.402344 205.125 171.167969 C 204.660156 172.441406 203.53125 172.675781 198.675781 172.507812 L 197.546875 172.464844 L 197.546875 169.039062 C 197.546875 166.457031 197.671875 165.507812 198.054688 165.191406 C 198.40625 164.898438 199.75 164.808594 202.410156 164.886719 C 206.042969 165 206.300781 165.054688 206.929688 165.875 C 207.296875 166.351562 207.597656 167.015625 207.601562 167.347656 C 207.605469 167.683594 207.78125 167.957031 207.988281 167.957031 C 208.234375 167.957031 208.300781 167.429688 208.179688 166.480469 C 208.078125 165.667969 207.984375 164.8125 207.976562 164.570312 C 207.960938 164.238281 206.191406 164.144531 200.238281 164.171875 C 195.566406 164.195312 192.980469 164.320312 193.6875 164.484375 M 240.925781 164.765625 L 242.140625 165.359375 L 242.242188 172.296875 C 242.363281 180.710938 242.277344 181.308594 240.820312 182.199219 L 239.710938 182.875 L 242.660156 182.847656 C 245.496094 182.820312 245.566406 182.800781 244.496094 182.335938 C 243.042969 181.695312 242.953125 181.113281 243.078125 173.09375 L 243.179688 166.601562 L 245.976562 169.96875 C 247.515625 171.820312 250.613281 175.558594 252.863281 178.277344 C 255.109375 181 257.089844 183.222656 257.261719 183.222656 C 257.429688 183.222656 257.609375 179.214844 257.660156 174.289062 L 257.753906 165.351562 L 260.183594 164.140625 L 257.234375 164.167969 C 255.613281 164.179688 254.519531 164.277344 254.804688 164.382812 C 256.492188 165.003906 256.539062 165.230469 256.539062 172.546875 L 256.539062 179.460938 L 253.589844 175.878906 C 251.96875 173.90625 249.199219 170.46875 247.433594 168.238281 L 244.222656 164.183594 L 241.964844 164.179688 L 239.710938 164.171875 Z M 220.929688 165.148438 C 216.523438 167.152344 215.6875 174.265625 219.257812 179.433594 C 220.59375 181.371094 222.621094 182.347656 225.308594 182.351562 C 228.144531 182.359375 229.589844 181.570312 231.03125 179.246094 C 232.445312 176.957031 232.6875 172.949219 231.585938 170.015625 C 229.867188 165.441406 225.089844 163.261719 220.929688 165.148438 M 66.769531 165.296875 C 66.429688 165.703125 66.246094 168.601562 66.34375 172.03125 L 66.375 173.160156 L 69.707031 173.160156 C 73.5 173.160156 74.699219 172.691406 75.566406 170.867188 C 76.628906 168.625 75.859375 166.175781 73.824219 165.324219 C 72.273438 164.675781 67.300781 164.65625 66.769531 165.296875 M 295.476562 165.25 C 295.203125 165.519531 295.058594 166.960938 295.058594 169.414062 L 295.058594 173.160156 L 298.269531 173.15625 C 301.898438 173.148438 302.835938 172.816406 303.984375 171.109375 C 305.394531 169.015625 304.714844 166.417969 302.480469 165.359375 C 301.117188 164.710938 296.089844 164.632812 295.476562 165.25 M 320.773438 165.308594 C 320.496094 165.644531 320.40625 168.160156 320.472656 173.726562 L 320.5625 181.664062 L 322.992188 181.773438 C 327.054688 181.957031 329.375 180.8125 330.867188 177.886719 C 331.90625 175.859375 332.117188 172.242188 331.320312 170.15625 C 330.402344 167.757812 328.628906 165.976562 326.535156 165.355469 C 324.304688 164.691406 321.304688 164.667969 320.773438 165.308594 M 94.574219 170.476562 C 93.769531 172.429688 93.007812 174.300781 92.890625 174.636719 C 92.695312 175.1875 93 175.242188 96.355469 175.242188 C 98.378906 175.242188 100.035156 175.183594 100.035156 175.113281 C 100.035156 174.886719 96.25 166.914062 96.144531 166.917969 C 96.089844 166.917969 95.382812 168.519531 94.574219 170.476562 M 272.023438 170.859375 C 271.105469 173.105469 270.425781 175.015625 270.515625 175.105469 C 270.605469 175.195312 272.242188 175.222656 274.152344 175.167969 L 277.628906 175.070312 L 275.664062 170.921875 L 273.695312 166.773438 Z M 272.023438 170.859375 " fill-opacity="1" fill-rule="evenodd"/>
</svg>