<?xml version="1.0" encoding="UTF-8"?>
<svg xmlns="http://www.w3.org/2000/svg" version="1.1" viewBox="0 0 13261.086 788">
  <defs>
    <style>
      .cls-1 {
        opacity: .96;
      }

      .cls-1, .cls-2, .cls-3, .cls-4, .cls-5, .cls-6, .cls-7, .cls-8, .cls-9, .cls-10, .cls-11, .cls-12 {
        fill: #666;
        stroke: #666;
        stroke-miterlimit: 10;
      }

      .cls-1, .cls-2, .cls-3, .cls-6, .cls-7, .cls-9, .cls-10, .cls-11 {
        stroke-width: 17.008px;
      }

      .cls-2 {
        opacity: .91;
      }

      .cls-3 {
        opacity: .94;
      }

      .cls-4 {
        stroke-width: 5.669px;
      }

      .cls-4, .cls-7, .cls-8 {
        opacity: 0;
      }

      .cls-5 {
        stroke-width: 22.677px;
      }

      .cls-5, .cls-6, .cls-13 {
        opacity: .89;
      }

      .cls-8 {
        stroke-width: 11.339px;
      }

      .cls-14, .cls-11, .cls-12 {
        opacity: .93;
      }

      .cls-9 {
        opacity: .95;
      }

      .cls-10 {
        opacity: .92;
      }

      .cls-12 {
        stroke-width: 11.339px;
      }
    </style>
  </defs>
  <!-- Generator: Adobe Illustrator 28.7.4, SVG Export Plug-In . SVG Version: 1.2.0 Build 166)  -->
  <g>
    <g id="Layer_1">
      <path class="cls-10" d="M423.171,260.673c4.625,8.622,6.172,18.03,8.511,27.524,2.346,9.487,4.567,19.878,6.545,29.489,1.972,9.618,4.881,20.173,7.174,29.515,2.287,9.349,4.986,19.734,7.462,28.572,2.483,8.838,6.041,19.216,8.917,27.117,2.87,7.908,11.197,21.568.256,25.06-10.941,3.499-22.04,2.149-33.623,2.411s-24.536.295-36.034,0c-11.498-.295-22.381-1.271-33.414-3.276,10.253-27.707,22.669-53.2,34.927-80.382,12.252-27.189,18.947-58.467,29.279-86.03M422.516,206.949c-4.704-.419-3.649,10.574-3.931,14.414s-.773,12.337-1.454,16.89c-.681,4.553-2.103,10.456-3.145,15.2-1.048,4.743-2.555,9.867-3.702,14.643-1.147,4.776-2.542,9.723-3.938,14.407-1.396,4.691-2.771,9.513-4.187,14.158-1.422,4.639-3.125,9.179-4.586,13.759-1.468,4.58-3.25,9.107-4.684,13.66-1.441,4.547-3.669,8.707-5.143,13.202-1.474,4.488-3.571,8.727-5.241,13.103-1.677,4.37-3.669,8.668-5.346,12.999-1.677,4.331-4.114,8.249-5.798,12.546-1.677,4.304-3.97,8.262-5.89,12.455-1.92,4.187-3.61,8.406-5.903,12.442-2.287,4.042-3.813,8.334-5.897,12.448-2.077,4.121-3.944,8.281-5.897,12.448-1.946,4.173-3.866,8.294-5.897,12.448-2.024,4.16-3.551,8.563-5.641,12.704-2.097,4.134-3.728,8.524-5.595,12.75-1.867,4.226-3.924,8.314-5.759,12.586-1.841,4.265-3.564,8.661-5.379,12.966-1.808,4.304-3.761,8.478-5.536,12.809-1.769,4.331-3.538,8.753-5.248,13.097-1.717,4.337-3.872,8.498-5.458,12.887-1.592,4.383-3.485,8.76-5.241,13.103-1.762,4.337-3.243,9.035-5.019,13.326-1.776,4.291-3.289,9.271-4.842,13.503-1.559,4.232-3.879,9.585-4.586,13.759-.714,4.167-5.32,11.171-1.415,14.61,3.905,3.433,7.174-3.905,8.819-7.207,1.644-3.309,4.298-8.589,5.792-12.553,1.5-3.964,3.603-8.91,5.209-13.136,1.612-4.219,3.047-9.284,4.724-13.621,1.677-4.337,3.649-8.746,5.137-13.208,1.487-4.455,3.433-8.746,5.209-13.136,1.782-4.39,2.922-9.205,4.724-13.621,1.795-4.416,3.499-8.707,5.137-13.208,1.644-4.494,3.315-8.832,4.992-13.352,1.684-4.514,3.341-8.76,4.94-13.405,1.592-4.652,3.839-8.216,5.137-13.208,1.304-4.986,4.023-7.757,4.992-13.352.976-5.589,5.228-8.353,11.341-7.004,6.113,1.35,11.537.662,17.69.655s11.642.917,17.69.655c6.047-.262,11.216.406,17.034.655,5.818.249,12.009.059,17.69.655,5.68.596,12.114.177,17.69.655,5.575.478,11.19,1.5,16.595,1.749,5.405.249,10.09,1.382,11.59,6.755,1.5,5.366,2.66,9.225,4.062,14.283,1.409,5.058,2.791,9.395,3.931,14.414,1.14,5.019,2.778,9.533,3.8,14.545,1.029,5.005,2.365,9.939,3.407,14.938,1.048,4.999,2.686,9.559,3.787,14.558,1.107,4.999,1.939,10.103,3.289,15.056,1.356,4.947,1.992,10.09,3.276,15.069,1.291,4.973,2.11,10.004,3.309,15.036,1.205,5.025,2.051,9.978,3.276,15.069,1.225,5.084,2.201,9.506,3.669,14.676,1.474,5.163,2.031,8.982,3.938,14.407,1.907,5.431,1.343,7.783,4.599,13.745,3.25,5.969,6.768.4,5.438-5.438-1.33-5.838-1.035-10.456-2.627-15.717-1.592-5.268-1.907-9.906-3.413-14.931-1.513-5.025-2.608-9.533-3.833-14.512-1.232-4.973-2.804-9.5-3.898-14.446-1.101-4.94-2.621-9.559-3.924-14.42-1.304-4.861-2.201-9.847-3.708-14.636-1.513-4.783-2.182-9.913-3.636-14.708-1.461-4.796-2.653-9.637-3.833-14.512-1.186-4.874-2.896-9.506-3.931-14.414-1.042-4.907-2.857-9.539-3.898-14.446-1.048-4.901-2.686-9.565-3.924-14.42s-2.273-9.834-3.708-14.636c-1.435-4.796-2.391-9.847-3.636-14.709-1.245-4.855-2.804-9.579-3.833-14.512-1.035-4.927-2.745-9.552-3.898-14.446-1.153-4.888-2.378-9.808-3.702-14.643-1.33-4.835-2.522-9.808-3.636-14.709-1.114-4.901-2.824-9.592-3.8-14.545-.983-4.947-2.634-9.559-3.924-14.42-1.284-4.861-2.162-10.037-3.413-14.931-1.251-4.888-2.771-9.579-3.8-14.545-1.029-4.966-2.758-9.651-3.702-14.643-.95-4.992-2.424-9.886-3.492-14.853-1.068-4.966-1.926-10.181-3.276-15.069-1.35-4.881-1.422-10.902-2.627-15.717-1.206-4.816-1.232-11.839-1.966-16.379-.734-4.54-1.487-12.068-2.758-15.586-1.271-3.518-2.097-11.61-5.752-11.937"/>
      <path class="cls-11" d="M1265.071,284.35c16.97,1.64,26.884,11.793,26.764,29.042-.12,17.249,2.147,37.373.569,54.098-1.577,16.725-1.52,32.157-10.119,45.687-8.599,13.53-14.874,19.572-29.219,26.588-14.339,7.021-28.302-3.166-34.646-16.514-6.344-13.354-12.437-25.597-15.409-40.397-2.967-14.806-4.92-34.873-.587-49.537,4.334-14.658,8.041-25.773,18.655-37.151,10.615-11.378,28.729-13.291,43.99-11.816M1289.518,420.979c-.792,7.551-1.122,15.187-1.668,22.818-.547,7.631-.643,15.734-1.139,23.348-.495,7.614-1.264,15.546-2.09,22.966s-1.321,14.834-2.477,22.009c-1.162,7.169-2.153,14.675-3.417,21.639-1.27,6.964-2.528,13.786-4.015,20.472-1.486,6.68-2.933,14.054-4.641,20.415-1.714,6.355-3.815,12.574-6.15,18.336-2.34,5.757-3.491,12.591-8.388,16.668-4.903,4.077-11.503-2.397-15.66-5.695-4.151-3.303-7.876-8.69-11.674-12.813-3.798-4.129-7.226-9.789-10.535-14.521-3.303-4.738-6.486-9.96-9.396-15.091-2.904-5.136-6.173-10.922-8.73-16.326-2.551-5.41-5.621-11.514-7.369-17.118-1.754-5.598-4.903-14.453-5.119-19.937s-3.667-17.79-7.215-11.213c-3.548,6.577-.985,16.457-.74,23.154.251,6.691,4.339,12.044,6.646,17.841,2.312,5.791,6.002,10.877,8.849,16.207s6.19,10.136,9.379,15.108c3.183,4.971,6.401,9.937,9.897,14.589,3.496,4.647,6.902,10.131,10.632,14.424,3.73,4.288,7.272,9.373,11.674,12.813,4.396,3.445,9.874,9.669,15.762,9.214,5.882-.461,8.866-7.75,12.425-12.061,3.553-4.316,6.002-11.213,8.24-16.816,2.244-5.598,4.453-12.038,6.144-18.342,1.686-6.31,3.274-13.758,4.561-20.495,1.293-6.737,2.631-13.695,3.787-20.7,1.156-7.004,2.175-14.794,3.047-22.009.877-7.209,2.101-14.31,2.836-21.651.735-7.34,1.629-14.766,2.278-22.209s1.703-15.29,2.278-22.778c.575-7.488,1.253-14.851,2.278-22.209s1.145-15.461,2.318-22.738,2.073-13.9,3.383-21.104c1.31-7.204,2.602-14.276,3.422-21.634.82-7.352,1.503-15.278,1.697-22.79s-.438-17.123-.609-24.447c-.177-7.323-1.68-15.039-2.807-21.679s-1.401-14.441-8.542-15.945c-1.053,5.176-.438,17.477-6.788,13.052-6.355-4.419-8.866-5.615-15.381-7.967-6.509-2.358-13.792-2.602-20.54-2.238s-12.915,2.557-18.746,4.601c-5.837,2.039-9.994,4.658-14.806,7.972-4.812,3.314-8.781,6.11-12.716,10.632-3.929,4.527-6.839,8.325-9.669,13.678-2.83,5.353-4.738,10.393-6.144,16.634-1.412,6.236-2.312,13.741-2.836,20.512s.558,15.062,1.139,21.639,1.874,13.792,3.422,19.925c1.549,6.139,3.086,11.913,5.165,17.613,2.073,5.7,4.721,10.689,7.403,15.945,2.676,5.262,5.774,9.333,9.464,13.883,3.69,4.556,7.09,7.756,12.306,10.472,5.21,2.722,13.861,3.81,19.629,2.329,5.763-1.481,10.859-4.009,15.643-7.135,4.789-3.121,8.468-6.868,12.528-10.82,4.06-3.958,7.733-7.107,11.816-10.962"/>
      <g>
        <path class="cls-1" d="M1585.349,236.075c-5.591-.458-4.475,10.121-6.207,14.323-1.738,4.195-2.204,11.982-3.387,17.142-1.191,5.153-1.67,12.236-2.724,17.806-1.054,5.57.048,14.227-.684,19.845s3.189,12.694,8.876,11.613c5.694-1.074,7.35-5.817,9.656-10.189,2.299-4.38,4.12-9.348,6.843-13.686,2.717-4.339,4.188-10.176,5.42-15.11,1.239-4.927,1.04-14.501-.048-19.113-1.088-4.605-3.155-11.305-6.624-13.905s-7.295-8.41-11.12-8.725"/>
        <path class="cls-2" d="M1568.241,385.941c-2.484-.616-2.997,8.814-2.737,11.633s-.746,10.107.048,13.638c.801,3.531.37,9.033.636,13.05.267,4.017.513,8.807.732,12.954.219,4.14.979,8.198,1.321,12.366s.342,8.787.732,12.954c.39,4.161,1.095,8.171,1.321,12.366.226,4.188,1.068,8.164,1.369,12.318s.979,8.198,1.369,12.318.965,8.219,1.369,12.318c.411,4.092,1.239,8.13,1.417,12.27.185,4.133,1.731,7.555,2.005,11.681.274,4.126.938,8.205,1.369,12.318.431,4.113,1.006,8.15,1.369,12.318s.862,8.321,1.143,12.544c.281,4.222.582,8.533.91,12.776.328,4.243.007,8.821.684,13.002s-.37,9.478,0,13.686-.951,8.965-.684,13.002c.267,4.037-.958,9.375-.684,13.002.274,3.627-.082,10.99.151,13.536s1.998,11.592,4.688,4.989c2.696-6.604,3.49-16.369,4.742-23.315s.301-7.363.684-13.002c.383-5.639.636-7.931.684-13.002s-.753-8.308-.684-13.002c.068-4.694-.363-8.609-.684-13.002-.322-4.393-.506-8.561-.835-12.852s-1.04-8.198-1.218-12.468c-.185-4.263-1.026-8.15-1.369-12.318s-.814-8.239-1.369-12.318c-.554-4.079-.91-8.232-1.382-12.304-.472-4.065-1.375-8.034-1.506-12.181-.13-4.147-1.813-7.603-1.902-11.784-.089-4.181-.972-8.212-1.369-12.318s-.89-8.232-1.369-12.318c-.479-4.085-.807-8.26-1.369-12.318s-.671-8.308-1.369-12.318c-.698-4.01-.253-8.65-1.143-12.544-.89-3.894-.26-8.937-.958-12.728-.705-3.784-.739-8.896-1.321-12.366-.582-3.47-.732-9.293-1.827-11.859-1.095-2.566-.417-10.094-2.963-10.723"/>
      </g>
      <path class="cls-3" d="M1966.535,457.882c7.464-1.595,16.999-4.526,24.437-5.34,7.438-.821,15.921-5.532,22.498-6.617,6.571-1.092,17.251-10.911,7.987-13.188-9.264-2.276-16.026,3.289-25.145,3.97-9.118.688-13.81,3.752-23.821,5.294-10.012,1.542-6.908-11.95-4.85-19.408,2.058-7.457,2.72-17.654,4.235-25.542,1.522-7.881,3.077-16.827,4.367-24.748,1.29-7.914,3.315-16.126,5.519-23.596,2.203-7.477,4.096-15.1,7.067-22.048,2.978-6.941,5.816-13.247,9.522-19.593,3.706-6.339,7.398-11.15,12.685-16.43,5.287-5.287,14.604-8.986,21.175-4.963,6.571,4.017,9.522,9.535,13.783,15.332,4.261,5.797,6.663,13.135,9.926,19.189,3.256,6.061,5.578,15.98,7.272,21.843,1.694,5.856-.351,23.471,7.398,19.401,7.742-4.076,4.705-15.881,3.798-22.657-.907-6.782-4.539-15.98-7.325-22.452-2.779-6.478-6.094-13.261-9.926-19.189-3.831-5.929-7.596-11.461-12.354-16.761-4.758-5.294-9.634-10.376-16.695-12.42-7.054-2.051-14.299,3.752-19.699,8.119-5.406,4.361-9.78,9.35-14.213,14.902-4.433,5.552-8.159,11.752-11.553,18.223-3.401,6.465-6.154,13.373-8.596,20.519-2.435,7.146-4.877,14.683-6.835,22.28-1.959,7.596-3.58,15.921-5.3,23.815-1.727,7.888-3.348,16.344-4.625,24.49-1.277,8.152-3.15,16.311-4.625,24.49-1.476,8.179-2.614,16.913-3.97,25.145-7.027,1.853-13.757,4.447-20.725,6.405-6.974,1.952-13.287,4.162-20.288,6.18-7.001,2.025-13.598,4.4-20.738,6.392-7.14,1.992-12.698,4.5-20.255,6.213-7.557,1.72-11.6,5.466-19.851,7.279-8.251,1.82-10.382,11.203-.721,9.866,9.661-1.343,13.902-3.203,22.068-5.062,8.165-1.859,13.38-3.672,20.811-5.658,7.431-1.992,13.525-4.493,20.645-6.485,7.113-1.992,13.175-4.281,20.083-6.385,6.902-2.104,13.492-3.911,20.294-6.174,1.965,7.53-.417,15.325.662,22.498,1.079,7.173.185,15.166.662,22.498s.602,14.392.662,21.836.768,15.007.662,22.498c-.106,7.49.682,15.093.662,22.498-.013,7.404,1.098,13.876,1.323,21.175s.774,14.617,1.323,21.836,1.132,13.995,1.992,21.168c.86,7.173,1.125,11.421,4.129,18.369,3.004,6.948,10.508,5.433,9.76-2.481-.748-7.914.503-14.524-.708-21.79-1.218-7.266-1.879-13.261-2.746-20.414-.873-7.153-1.787-13.856-1.985-21.175-.199-7.312-1.495-13.83-1.178-21.32s-1.059-14.968-.662-22.498c.397-7.53-.49-15.729,0-23.16.49-7.431.827-14.299.662-21.836s1.218-14.902.662-22.498,1.151-14.293.662-21.836"/>
      <path class="cls-1" d="M3245.723,377.847c-1.404-7.114-2.373-13.885-3.626-21.072-1.259-7.181-2.114-14.325-3-21.698-.886-7.373-1.596-15.126-1.94-22.759-.343-7.632-1.578-14.572-1.675-22.421s-2.06-13.62-3.145-21.554c-1.084-7.934-9.078-9.952-10.108-1.337-1.03,8.608-2.078,14.638-1.807,22.891.271,8.253.657,15.096,1.205,22.891.548,7.795.831,15.439,1.819,22.879.994,7.44,1.898,14.446,3.042,21.656,1.151,7.205,2.584,13.367,3.572,20.524-7.265.639-15.066,1.193-22.277,1.819-7.205.633-14.662,1.663-21.698,2.398-7.03.741-13.867,2.03-20.476,3.62-6.608,1.584-13.078,2.41-19.271,4.825-6.187,2.422-12.102,2.825-17.945,6.151-5.843,3.325-9.946,3.349-14.735,9.361-4.783,6.012,3.711,11.644,9.976,8.771,6.265-2.879,11.397-3.494,17.223-6.873,5.831-3.373,11.114-4.657,17.512-6.584,6.403-1.928,13.126-2.91,19.879-4.217,6.759-1.301,14.018-2.295,21.09-3.006,7.066-.711,15-1.765,22.277-1.795,7.271-.024,11.15,4.759,12.464,11.632,1.313,6.867,1.379,14.747,2.006,22.09.626,7.343.072,15.807.735,23.361.663,7.548.066,15.897.47,23.626s.855,15.578.602,23.494c-.253,7.916.217,15.566,0,23.494-.217,7.928.313,16.162,0,24.096-.313,7.934.879,15.656.602,23.494-.277,7.837.313,15.958.602,23.494s.41,16.265.602,23.494c.193,7.223,1.813,15.644,1.819,22.277.012,6.626,3.651,16.753,6.747,9.181,3.102-7.566,2.295-12.548,4.084-20.012,1.795-7.464,1.187-14.548,1.849-22.247.669-7.693.669-15.602.56-23.536-.108-7.934.145-16.168,0-24.096-.145-7.928.277-16.235,0-24.096-.277-7.861-.626-15.62-.602-23.494s-.711-15.668-.602-23.494c.108-7.825-1.169-15.18-1.205-22.891-.036-7.711-.657-15.391-1.205-22.891s-.265-15.632-1.205-22.891c-.94-7.253-.59-13.735-3.012-20.482,7.777-1.789,18.319-1.681,26.463-1.163,8.138.524,16.891,1.602,24.728,2.379,7.831.783,16.283,2.145,23.506,3.602s16.59,1.867,22.849,4.259c6.253,2.398,21.012.97,16.156-5.916-4.855-6.885-12.915-4.97-19.596-8.114-6.681-3.145-14.939-3.018-22.379-4.729-7.434-1.717-15.644-2.614-23.536-3.572s-16.656-1.488-24.698-2.41c-8.036-.922-16.59-1.626-24.698-2.41"/>
      <path class="cls-1" d="M2335.557,377.847c-1.404-7.114-2.373-13.885-3.626-21.072-1.259-7.181-2.114-14.325-3-21.698-.886-7.373-1.596-15.126-1.94-22.759-.343-7.632-1.578-14.572-1.675-22.421s-2.06-13.62-3.145-21.554c-1.084-7.934-9.078-9.952-10.108-1.337-1.03,8.608-2.078,14.638-1.807,22.891.271,8.253.657,15.096,1.205,22.891s.831,15.439,1.819,22.879c.994,7.44,1.898,14.446,3.042,21.656,1.151,7.205,2.584,13.367,3.572,20.524-7.265.639-15.066,1.193-22.277,1.819-7.205.633-14.662,1.663-21.698,2.398-7.03.741-13.867,2.03-20.476,3.62-6.608,1.584-13.078,2.41-19.271,4.825-6.187,2.422-12.102,2.825-17.945,6.151-5.843,3.325-9.946,3.349-14.735,9.361-4.783,6.012,3.711,11.644,9.976,8.771,6.265-2.879,11.397-3.494,17.223-6.873,5.831-3.373,11.114-4.657,17.512-6.584,6.403-1.928,13.126-2.91,19.879-4.217,6.759-1.301,14.018-2.295,21.09-3.006,7.066-.711,15-1.765,22.277-1.795,7.271-.024,11.15,4.759,12.464,11.632,1.313,6.867,1.379,14.747,2.006,22.09.626,7.343.072,15.807.735,23.361.663,7.548.066,15.897.47,23.626.404,7.729.855,15.578.602,23.494s.217,15.566,0,23.494.313,16.162,0,24.096c-.313,7.934.879,15.656.602,23.494-.277,7.837.313,15.958.602,23.494s.41,16.265.602,23.494c.193,7.223,1.813,15.644,1.819,22.277.012,6.626,3.651,16.753,6.747,9.181,3.102-7.566,2.295-12.548,4.084-20.012,1.795-7.464,1.187-14.548,1.849-22.247.669-7.693.669-15.602.56-23.536-.108-7.934.145-16.168,0-24.096s.277-16.235,0-24.096c-.277-7.861-.626-15.62-.602-23.494.024-7.873-.711-15.668-.602-23.494s-1.169-15.18-1.205-22.891c-.036-7.711-.657-15.391-1.205-22.891s-.265-15.632-1.205-22.891c-.94-7.253-.59-13.735-3.012-20.482,7.777-1.789,18.319-1.681,26.463-1.163,8.138.524,16.891,1.602,24.728,2.379,7.831.783,16.283,2.145,23.506,3.602s16.59,1.867,22.849,4.259c6.253,2.398,21.012.97,16.156-5.916-4.855-6.885-12.915-4.97-19.596-8.114-6.681-3.145-14.939-3.018-22.379-4.729-7.434-1.717-15.644-2.614-23.536-3.572s-16.656-1.488-24.698-2.41c-8.036-.922-16.59-1.626-24.698-2.41"/>
      <path class="cls-3" d="M3971.856,550.315c5.735.557,14.538,3.057,19.365,6.499,4.821,3.436,11.073,6.827,13.343,12.51,2.276,5.677-4.218,12.734-6.717,17.9-2.5,5.166-7.608,9.516-11.769,14.09-4.155,4.58-8.821,8.177-13.78,12.079-4.953,3.902-9.573,7.24-15.429,10.43-5.85,3.195-10.889,6.137-17.59,8.844-6.706,2.707-12.251,4.206-20.29,5.568s-7.453-10.522-6.321-17.239c1.132-6.717,2.097-15.027,4.586-21.273,2.482-6.252,4.844-12.102,8.01-17.848,3.172-5.741,6.016-10.608,10.257-15.601,4.241-4.994,8.43-8.66,14.326-11.533,5.89-2.879,14.981-5.103,22.009-4.425ZM4033.342,266.445c-3.919-1.437-3.178,7.338-3.488,10.303-.316,2.965-.977,8.959-1.109,12.682s-.092,8.62-.575,12.642.057,9.504,0,13.791-.195,8.367-.575,12.642-.023,9.39,0,13.791c.023,4.402-.787,8.206-.575,12.642.213,4.436-.494,8.844-.575,13.217s-.316,8.913-.575,13.217c-.259,4.304-.259,8.372-.575,12.642-.316,4.27-.529,8.872-.615,13.176-.092,4.298-.983,7.827-1.109,12.108s-.379,8.959-.575,13.217c-.195,4.258-.896,7.821-1.149,12.067s-.224,8.982-.575,13.217c-.351,4.235-.644,8.476-1.149,12.642s-.092,8.482-.586,12.63c-.5,4.143-.908,8.476-1.138,12.653-.23,4.178-.891,7.93-1.149,12.067-.259,4.137-.724,8.591-1.149,12.642s-.402,8.194-1.149,12.067c-.747,3.873-.356,8.913-1.189,12.602-.839,3.683-.638,8.137-2.666,11.125-2.023,2.994-5.884-1.379-8.068-3.183-2.184-1.799-5.097-4.586-8.143-5.649-3.051-1.057-5.85-3.051-9.229-3.988-3.373-.942-7.487-2.115-11.119-2.672-3.632-.557-8.648-1.023-12.441-.753-3.787.276-7.717,1.563-11.113,2.678-3.396,1.115-6.131,2.948-8.964,4.827-2.827,1.879-4.936,3.528-7.373,5.844-2.436,2.31-4.517,4.666-6.608,7.183-2.086,2.523-4.005,4.689-5.735,7.482-1.724,2.798-3.557,5.706-5.086,8.706-1.523,3.005-2.833,5.712-4.373,8.844-1.546,3.126-2.609,6.614-3.752,10.039-1.144,3.419-2.413,6.809-3.321,10.47-.908,3.66-.983,7.625-1.73,11.487-.741,3.862-.506,9.16-.569,13.222s.218,8.171,1.552,11.671c1.327,3.494,3.885,5.746,7.643,6.143,3.758.396,8.01-.816,11.481-1.735,3.465-.925,6.913-2.425,10.309-3.482,3.402-1.052,6.355-2.936,9.688-4.103,3.327-1.172,5.649-2.81,8.924-4.293,3.27-1.488,5.729-2.873,8.97-4.821,3.247-1.942,4.724-2.39,8.263-4.953,3.54-2.563,3.913-2.086,8.303-5.488,4.39-3.396,10.556-8.499,14.653-12.355,4.097-3.856,3.419-4.166,6.321-7.47s3.373-4.465,5.425-7.792c2.057-3.321,2.264-6.011,4.632-9.16,2.362-3.155,3.902-5.126,8.378-4.068,4.471,1.052,4.528-4.953,5.022-8.39.494-3.436.552-8.648.534-12.682s.655-9.016.575-13.217.822-8.516,1.149-12.642c.328-4.126.126-8.43.701-12.516.575-4.086.902-8.269,1.408-12.383.506-4.114.259-8.298.805-12.412.552-4.109.873-8.487,1.115-12.676.236-4.195.977-7.855,1.144-12.073s.787-8.447,1.149-12.642.305-8.895.701-13.09c.396-4.195.896-7.936,1.023-12.194.126-4.258.833-8.424,1.149-12.642s.115-8.453.575-12.642c.46-4.189.563-8.803.701-13.09.138-4.287.994-7.844,1.023-12.194s.396-8.872.575-13.217c.178-4.344.224-8.918.575-13.217.351-4.298-.161-8.418.575-12.642s-.345-9.47,0-13.791-.149-8.918,0-13.217-.075-9.648,0-13.791c.075-4.143-.351-8.941-.575-12.642-.224-3.701-.339-9.723-1.189-12.602-.85-2.873-.799-8.849-3.408-9.809"/>
      <path class="cls-4" d="M3287.67,568.89c-12.23-1.18-28.05,2.69-38.3,7.7-10.26,5-17.55,11.38-24.93,20.07-7.38,8.69-12.33,17.16-17.85,27.15-5.51,10-9.62,20.18-13.94,31.06-4.33,10.87-6.01,25.33-7.98,37.02-1.97,11.69-2.99,32.37,11,30,13.99-2.37,23.64-4.98,35.31-9.69,11.66-4.71,20.43-9.83,30.61-15.39,10.19-5.55,18.23-11.36,26.85-18.15,8.63-6.79,16.75-13.05,23.98-21.02,7.24-7.96,16.13-15.53,20.48-24.52,4.35-8.99,15.65-21.27,11.69-31.15-3.95-9.89-14.83-15.79-23.22-21.77-8.4-5.99-23.72-10.34-33.7-11.31Z"/>
      <path class="cls-4" d="M3287.67,568.89c-12.23-1.18-28.05,2.69-38.3,7.7-10.26,5-17.55,11.38-24.93,20.07-7.38,8.69-12.33,17.16-17.85,27.15-5.51,10-9.62,20.18-13.94,31.06-4.33,10.87-6.01,25.33-7.98,37.02-1.97,11.69-2.99,32.37,11,30,13.99-2.37,23.64-4.98,35.31-9.69,11.66-4.71,20.43-9.83,30.61-15.39,10.19-5.55,18.23-11.36,26.85-18.15,8.63-6.79,16.75-13.05,23.98-21.02,7.24-7.96,16.13-15.53,20.48-24.52,4.35-8.99,15.65-21.27,11.69-31.15-3.95-9.89-14.83-15.79-23.22-21.77-8.4-5.99-23.72-10.34-33.7-11.31"/>
      <path class="cls-9" d="M4420.166,325.845c-4.253-.238-2.744,8.713-3.576,11.867-.837,3.148-.38,10.816-.582,14.861-.202,4.045-1.212,9.491-1.794,13.649-.588,4.152-2.114,8.369-2.964,12.479-.843,4.116-1.913,8.41-3.005,12.437-1.093,4.021-2.34,7.953-3.534,11.909-1.2,3.95-2.204,7.995-3.593,11.849-1.396,3.849-2.613,7.87-3.653,11.79s-2.744,7.133-3.837,11.012c-1.093,3.879-2.691,7.704-3.884,11.558-1.2,3.849-2.803,7.549-4.069,11.374-1.271,3.819-2.679,7.555-4.128,11.315-1.455,3.754-2.471,7.745-3.962,11.481-1.497,3.73-2.78,7.549-4.158,11.285-1.384,3.736-2.934,7.389-4.354,11.089-1.425,3.694-2.774,7.579-4.187,11.255-1.42,3.671-2.97,7.371-4.526,10.917-1.562,3.54-3.077,6.658-4.752,10.097-1.681,3.433-3.498,6.813-5.346,10.097-1.853,3.279-3.688,6.64-5.666,9.776-1.978,3.136-4.223,6.058-6.444,8.998-2.221,2.934-4.324,5.862-6.931,8.511-2.607,2.643-4.395,5.696-7.424,8.018-3.035,2.316-5.441,4.633-8.624,6.819-3.184,2.186-6.254,3.813-9.824,5.619-3.564,1.812-7.609,2.91-11.653,3.789-4.045.879-9.022,1.467-13.305.748-4.282-.719-9.949-.255-14.017-1.425-4.069-1.176-8.202-1.865-11.873-3.57-3.677-1.705-6.807-3.166-9.996-5.447-3.195-2.281-5.31-4.716-7.721-7.721-2.417-3.005-4.443-5.732-6.136-9.307-1.687-3.582-3.338-6.973-4.514-10.929-1.17-3.962-2.138-8.072-3.166-12.277-1.028-4.205-1.039-9.212-1.782-13.661-.742-4.449-.737-8.975-1.188-13.661-.451-4.686-.748-9.889-.588-14.855.16-4.965-.053-10.477,0-15.443.053-4.965-.154-10.323.398-15.045.552-4.722.428-9.937.921-14.522.493-4.579,1.425-8.891,2.245-13.198.826-4.3,1.627-8.499,3.011-12.431,1.39-3.926,2.53-7.662,4.164-11.279,1.627-3.623,3.368-6.836,5.346-10.097,1.978-3.255,3.867-5.779,6.029-8.82,2.162-3.041,4.383-5.779,6.842-8.6,2.459-2.815,4.769-5.292,7.424-8.018,2.655-2.732,5.256-4.912,8.018-7.424,2.762-2.512,5.322-4.93,8.315-7.127,2.994-2.192,5.684-4.591,8.909-6.533,3.225-1.936,6.046-4.247,9.604-5.839,3.564-1.586,6.824-3.451,10.608-4.835,3.778-1.384,7.751-2.786,11.879-3.564,4.128-.784,8.137-2.18,12.604-2.245s10.584-.107,14.837.606c4.247.719,8.208,2.097,12.075,3.368,3.861,1.277,6.824,3.279,10.091,5.352,3.273,2.067,5.922,3.968,8.583,6.86,2.661,2.893,5.037,5.055,7.098,8.345,2.055,3.296,3.807,6.076,5.94,9.503,2.126,3.433,3.843,5.381,6.563,8.88,2.72,3.492,8.369,3.439,7.472-1.532-.897-4.971-.992-8.084-2.708-12.14-1.717-4.057-3.148-6.801-5.06-10.382-1.907-3.587-4.419-5.399-7.127-8.315s-5.542-4.508-8.612-6.83c-3.077-2.316-6.462-3.653-9.812-5.631-3.35-1.978-6.533-3.635-10.186-5.256-3.659-1.616-7.282-2.887-11.202-4.241-3.92-1.36-8.238-2.489-12.562-2.881-4.324-.392-10.067-.986-14.296.042s-8.464,1.039-12.342,2.506c-3.873,1.473-7.704,2.394-11.285,4.158-3.582,1.77-7.282,2.91-10.673,4.769-3.397,1.853-6.545,3.772-9.8,5.643-3.261,1.865-6.005,4.259-8.939,6.504-2.94,2.245-5.862,4.36-8.583,6.86-2.72,2.495-5.072,5.155-7.721,7.721s-5.167,5.173-7.413,8.03c-2.245,2.857-4.698,5.643-6.813,8.63-2.114,2.994-3.778,5.856-5.94,8.909-2.156,3.059-3.469,6.652-5.571,9.871-2.109,3.219-3.427,6.789-5.114,10.329-1.693,3.534-3.047,7.211-4.478,10.964-1.425,3.754-2.91,7.383-4.063,11.38-1.158,3.991-2.227,7.959-3.326,12.117-1.105,4.158-1.746,8.476-2.584,12.859-.843,4.377-1.247,9.058-1.77,13.673-.523,4.615-.606,10.032-.594,14.849s-.03,9.693.594,14.255c.624,4.562.428,9.741,1.319,14.124.897,4.383,1.699,8.594,2.643,12.8.95,4.205,2.002,8.274,3.207,12.235,1.212,3.956,2.572,7.62,4.158,11.285,1.586,3.659,2.958,7.222,4.847,10.596,1.889,3.374,3.427,6.724,5.654,9.788s4.478,5.548,7.127,8.315c2.655,2.768,5.06,5.066,8.018,7.424,2.952,2.358,5.821,3.754,9.218,5.631,3.397,1.877,6.741,3.694,10.697,4.746,3.956,1.057,7.715,2.833,12.01,3.433,4.288.6,9.165,1.532,13.661,1.782s10.626.024,14.849-.594c4.223-.624,8.119-1.895,11.742-3.7,3.629-1.806,6.646-3.421,9.818-5.625,3.172-2.198,6.183-3.991,9.177-6.266,2.999-2.275,5.256-4.859,8.018-7.424,2.756-2.572,4.633-4.989,7.127-7.721,2.495-2.738,4.538-5.696,6.83-8.612,2.299-2.916,4.229-6.058,6.236-9.206,2.002-3.154,4.098-6.195,5.928-9.515,1.823-3.32,3.677-6.611,5.346-10.097,1.669-3.486,3.504-6.801,5.025-10.418,1.526-3.611,2.881-7.365,4.383-11.059,1.509-3.688,2.411-7.965,3.653-11.79,1.247-3.819,2.643-7.775,3.837-11.606,1.194-3.837,2.506-7.282,3.766-11.083,1.265-3.795,2.37-7.805,3.956-11.487,1.586-3.682,2.316-7.9,3.89-11.552,1.574-3.653,2.798-7.609,4.158-11.285,1.354-3.677,3.035-7.472,4.431-11.012,1.402-3.534,2.726-7.787,4.472-10.97,1.752-3.178,2.827-8.006,4.758-10.685,1.93-2.679,2.869-8.303,5.993-9.438,3.13-1.134,4.912,6.528,5.761,9.289.855,2.756,2.209,8.351,2.958,11.891s1.146,9.355,2.417,13.025c1.277,3.665,2.59,7.864,3.926,11.517,1.336,3.653,2.827,7.478,4.484,10.958,1.657,3.481,3.57,6.783,5.256,10.186,1.681,3.409,3.718,6.551,5.714,9.729,1.996,3.184,3.837,6.438,5.969,9.474,2.126,3.035,4.371,5.975,6.533,8.909s4.769,5.577,7.098,8.345c2.328,2.768,4.466,5.173,7.157,7.692,2.697,2.518,5.031,5.185,7.721,7.721,2.697,2.536,5.69,4.633,8.612,6.83,2.922,2.198,5.957,4.603,9.218,6.225,3.261,1.621,6.688,4.17,10.103,5.34,3.409,1.17,8.155,4.841,11.992,3.415,3.837-1.425,3.19-8.594,1.354-12.01-1.835-3.415-7.3-4.276-10.828-4.615-3.522-.344-7.484-3.201-10.555-4.888-3.077-1.681-5.191-4.716-8.018-6.83-2.833-2.109-5.524-4.74-8.018-7.424s-4.728-5.53-7.127-8.315c-2.4-2.78-4.567-5.708-6.819-8.624-2.251-2.916-4.265-5.957-6.444-8.998-2.18-3.035-3.795-6.337-5.94-9.503-2.144-3.16-3.534-6.593-5.435-10.008-1.901-3.415-3.291-7.026-4.752-10.691-1.461-3.665-3.047-7.418-4.152-11.291-1.111-3.873-2.661-7.24-3.564-11.285-.903-4.045-2.287-8.066-3.237-12.206-.956-4.134-1.758-8.517-2.702-12.74-.944-4.217-1.818-8.476-2.643-12.8-.832-4.324-1.259-9.087-1.99-13.453-.736-4.36-1.384-9.277-1.782-13.661-.404-4.377-1.669-9.105-2.168-13.275-.499-4.17-1.705-9.165-2.572-12.871-.867-3.7-1.366-9.836-2.78-12.663s-1.669-9.723-4.942-9.907Z"/>
      <path class="cls-11" d="M7262.214,293.24c-7.784-.755-17.971.069-25.166,1.144-7.195,1.075-13.904,2.963-20.196,5.542-6.286,2.585-11.205,5.743-16.85,8.888-5.645,3.146-10.244,7.195-15.174,11.136-4.93,3.935-9.031,7.71-13.413,12.326s-8.196,8.751-12.011,13.727c-3.821,4.976-7.722,9.872-11.056,15.254-3.329,5.382-6.429,10.53-9.5,16.238-3.077,5.702-5.594,11.353-8.311,17.428-2.723,6.074-5.079,12.463-7.35,18.961-2.276,6.492-4.192,13.024-5.72,20.019-1.533,6.989-3.609,13.733-4.536,21.203s-2.105,16.175-2.288,24.022-.023,17.96,0,25.738,1.642,16.192,2.288,23.451,2.328,14.665,5.765,20.545c3.432,5.886,6.343,10.112,10.965,14.774,4.621,4.667,7.956,8.717,12.583,13.155,4.633,4.433,9.26,7.996,14.299,12.011s9.792,7.018,15.861,9.884c6.063,2.86,12.114,4.942,19.075,6.658,6.955,1.716,15.643,2.511,23.262,3.049s17.233.949,25.166.572c7.933-.377,16.787-.669,24.594-1.144s16.009-1.401,23.451-2.288c7.441-.887,15.489-2.225,22.301-4.009,6.818-1.785,13.601-3.071,19.407-6.332,5.811-3.254,11.153-5.131,15.317-10.421,4.164-5.291,8.471-10.85,8.179-18.131s-9.323.515-13.012,4.719-8.619,8.579-13.441,12.297c-4.822,3.723-10.278,7.413-16.398,9.912-6.126,2.494-12.961,4.519-20.024,5.714-7.064,1.201-15.197,2.522-22.919,2.82-7.722.297-17.834.749-25.738.572-7.905-.177-16.673-.492-23.982-1.756-7.304-1.27-13.939-3.02-20.591-5.148-6.646-2.128-12.823-4.444-18.783-7.527-5.96-3.083-10.953-5.765-16.29-9.449-5.336-3.689-9.1-7.378-14.013-11.725-4.919-4.347-7.882-9.277-11.725-14.585-3.838-5.314-6.709-10.027-9.134-16.604-2.431-6.572-3.775-14.11-3.878-21.86s.257-17.943.572-25.738,1.316-15.998,2.288-23.451,2.059-15.106,3.558-22.181,3.764-13.424,5.605-20.133c1.847-6.703,4.227-13.264,6.864-19.447,2.642-6.177,4.942-11.943,8.042-17.697,3.094-5.76,5.937-10.947,9.506-16.232,3.569-5.285,6.818-10.587,10.896-15.414,4.078-4.822,7.641-9.037,12.297-13.441,4.656-4.41,8.488-8.322,13.756-11.983,5.274-3.655,10.421-6.944,16.37-9.941,5.954-2.991,11.845-5.216,18.537-7.201,6.692-1.99,15.849-2.557,23.262-2.477s16.616.989,23.325,2.986c6.703,2.002,12.509,4.227,18.383,7.355,5.874,3.129,10.33,6.171,15.346,10.393s8.494,8.843,12.286,14.025,6.337,11.176,8.259,17.479c1.922,6.303,3.026,15.975,1.865,22.65-1.167,6.669-4.038,13.035-8.099,18.211-4.061,5.176-7.876,8.791-13.195,12.543-5.325,3.752-10.799,6.04-16.856,8.883-6.057,2.837-12.818,4.764-19.452,6.858-6.629,2.099-13.43,3.815-20.591,5.148-7.161,1.333-14.448,2.94-22.049,3.689-7.601.749-17.05.955-24.978.761s-15.403-1.693-22.873-3.438c-7.47-1.744-12.32-2.808-19.441-6.297-7.115-3.495-10.536-3.615-18.76-6.978s-8.637,8.419-1.699,11.994c6.944,3.575,10.21,6.097,17.199,8.539,6.989,2.442,12.577,4.21,19.83,5.908,7.253,1.699,15.231,2.871,22.884,3.426,7.647.561,16.924.675,24.554-.04,7.624-.721,15.1-2.133,22.335-3.403,7.23-1.275,14.431-3.174,21.168-5.142,6.743-1.968,13.024-4.004,19.321-6.417s11.542-5.239,17.245-8.494c5.708-3.249,10.913-6.046,15.918-10.393,5.005-4.347,7.985-8.471,11.983-13.756,3.998-5.291,5.737-11.422,7.733-18.005,2.002-6.583,1.819-16.77.446-23.576-1.378-6.801-3.397-13.235-6.686-19.052-3.295-5.811-6.006-10.558-10.33-15.409-4.33-4.845-8.168-9.106-13.252-13.058-5.085-3.952-9.826-7.024-15.443-10.295-5.617-3.266-11.628-5.777-17.96-7.779-6.337-2.002-14.419-4.124-20.98-4.759"/>
      <path class="cls-5" d="M4844.036,308.757c-6.892,2.287-12.906,8.551-18.094,13.931s-9.806,11.029-14.623,16.762c-4.817,5.726-9.473,11.952-14.187,17.838-4.714,5.886-8.877,11.907-13.463,17.921-4.58,6.021-9.076,12.4-13.438,18.587-4.362,6.187-8.435,12.375-12.714,18.671-4.279,6.296-7.52,13.457-12.81,19.215-5.291,5.758-14.104,5.873-20.285,11.1-6.187,5.22-11.439,9.166-18.043,13.982-6.604,4.823-14.962,7.417-23.109,6.994-8.147-.423-16.602-4.291-23.25-8.775-6.655-4.477-11.664-8.115-16.621-14.764-4.958-6.655-8.455-13.162-10.517-21.508-2.069-8.339-4.234-17.031-5.335-26.049-1.102-9.018-1.928-19.779-2.991-29.034-1.063-9.255-.845-20.061-2.146-29.239-1.3-9.172-1.71-19.965-3.203-28.823-1.499-8.852-.986-18.831-7.033-24.352.442,19.459,3.196,40.55,4.49,59.561,1.294,19.017,3.446,40.781,5.124,58.927s7.078,31.615,18.408,45.002c11.331,13.387,23.033,20.97,39.731,24.32,16.698,3.356,34.209-4.881,48.819-12.311-7.891,18.165-19.369,35.452-29.611,52.374-10.242,16.922-21.31,33.486-32.025,49.959-10.716,16.474-23.27,31.321-34.92,47.064-11.657,15.744-23.007,31.878-34.267,47.718-11.26,15.84-28.157,28.035-35.708,45.636,10.639-5.098,18.632-16.096,26.709-25.172,8.077-9.076,15.66-19.093,23.058-28.823,7.398-9.736,14.117-20.541,21.476-30.405,7.359-9.864,14.463-20.054,22.11-29.771,7.641-9.723,14.661-19.362,21.745-29.495,7.084-10.139,14.091-20.624,20.74-31.141,6.648-10.511,13.451-21.425,19.612-32.269,6.155-10.85,13.495-21.489,19.555-32.326,6.059-10.837,15.238-19.401,20.791-30.45,5.56-11.042,11.875-22.469,19.465-32.416,7.59-9.947,14.162-20.272,21.873-30.008,7.712-9.736,14.866-19.51,22.962-28.919,8.096-9.409,17.3-18.152,21.726-29.515Z"/>
      <path class="cls-8" d="M9015.488,613.274c7.256-68.314,12.731-138.796,10.419-208.389-5.958,12.058-6.934,23.425-8.534,36.932-1.591,13.517-2.188,28.549-2.851,42.616-.673,14.057-2.008,29.231-1.875,43.591.133,14.36-1.875,30.197-.947,44.519s-1.459,29.26,3.789,40.731Z"/>
      <g class="cls-14">
        <path class="cls-2" d="M9324.776,563.343c-3.088-6.75-1.683-15.541-2.23-23.969s.635-17.748.557-26.199.708-17.38,1.104-25.652c.39-8.278.741-17.124,1.678-25.078.942-7.949,1.516-14.638,5.022-21.734,1.36,40.953-1.862,82.431-6.132,122.631M9332.022,274.044c-3.344-1.21-2.687,7.14-3.161,9.66-.474,2.519.011,8.696-.184,12.079s.998,7.938.557,11.706c-.44,3.768.401,7.921.557,11.706s.184,7.893.557,11.706.223,7.826.557,11.706.078,7.793.557,11.706c.479,3.913-.507,8.59.373,12.447.881,3.857-.307,8.094.184,12.079.491,3.986-.491,7.848-.557,11.706-.067,3.857-.206,7.954-.557,11.706-.351,3.751-.747,7.469-1.115,11.148-.373,3.673-1.137,7.007-1.672,10.591s-.831,7.107-1.672,10.591c-.847,3.478-.897,7.085-1.683,10.58-.792,3.489-1.41,7.113-2.224,10.596-.814,3.484-1.07,6.934-1.789,10.474-.719,3.54-1.098,7.035-1.555,10.708-.457,3.673-.981,7.341-1.109,11.154-.128,3.813-.992,7.72-.557,11.706.435,3.986-.329,7.899-.557,11.706-.229,3.807-.334,8.311.123,12.141.457,3.824.401,8.384.435,12.386.033,4.002-.452,8.105.373,11.89.825,3.785-.635,8.317.195,12.068.836,3.751.123,7.915.546,11.717.429,3.802.307,7.943.563,11.7.251,3.757.686,7.904.674,11.589-.011,3.685,1.143,7.815.992,11.271-.151,3.456.975,8.345,1.115,11.148.145,2.804.864,9.944,3.757,7.659,2.893-2.28,1.884-6.137,2.932-9.331s.412-7.653,1.115-11.148c.702-3.495.457-7.514,1.115-11.148.658-3.634-.139-8.01.557-11.706.697-3.696.106-7.882.596-11.667.496-3.779.351-7.559.892-11.371s-.323-7.932.557-11.706c.881-3.774-.591-8.712.307-12.514.897-3.802-.039-7.932.44-11.823.474-3.891.686-7.687.552-11.711s.925-7.625.557-11.706c-.368-4.08.195-7.787.557-11.706.362-3.919-.346-8.311,0-12.263.346-3.952.468-7.653.557-11.706.089-4.052-.407-8.841.006-12.815.407-3.974.613-7.648.552-11.711s-.19-8.272,0-12.263.819-7.598.557-11.706c-.262-4.108.184-8.161,0-12.263s.234-8.155,0-12.263c-.234-4.108.541-7.653.557-11.706.017-4.052.017-8.161,0-12.263-.017-4.103.056-8.724,0-12.821-.056-4.097.134-8.239,0-12.263s.312-8.356,0-12.263-.518-7.832-.557-11.706c-.039-3.874.435-8.657-.011-12.252-.446-3.59-.457-8.138-.92-11.343-.463-3.205-.045-8.501-1.421-10.842-1.377-2.341-.886-8.2-3.222-9.041"/>
        <path class="cls-6" d="M9458.555,431.793c-3.266-14.019-8.411-30.474-15.435-43.094-7.029-12.614-15.134-23.155-26.511-32.018-11.382-8.857-30.156-16.371-44.331-12.837-14.175,3.534-24.002,16.466-30.78,27.748,5.663-.056,9.192-4.989,13.239-8.501s7.347-6.382,12.018-9.164c4.666-2.787,11.037-4.353,16.544-4.638,5.513-.279,12.118.758,17.157,2.921,5.039,2.163,8.679,5.084,12.821,8.361,4.142,3.278,7.246,6.55,10.58,10.602,3.333,4.052,6.455,8.066,9.103,12.637,2.648,4.571,5.022,8.913,7.33,13.852,2.302,4.939,4.415,9.654,6.126,15.056,1.717,5.396,3.896,10.368,4.905,16.277,1.015,5.903,2.514,12.007,2.776,18.406.262,6.399.702,13.947.557,20.624s.24,15.156,0,21.739c-.24,6.583.513,15.089,0,21.182-.513,6.093,2.001,16.75,3.907,9.482,1.906-7.274,1.433-12.012,2.224-18.958.792-6.945.552-13.322,1.115-20.067.563-6.745-.217-14.175.557-20.624.775-6.449.758-13.562,2.23-19.51,1.472-5.942,2.079-11.734,4.025-17.157,1.951-5.418,3.935-9.811,6.611-14.571,2.67-4.766,4.744-8.991,7.899-13.283,3.149-4.298,5.953-7.564,9.755-11.427,3.802-3.857,7.168-6.695,11.984-9.197,4.822-2.497,10.909-4.755,16.583-5.156s12.492,1.538,17.453,3.735c4.955,2.191,8.356,5.084,12.23,8.947,3.868,3.868,6.739,7.062,9.381,11.8,2.642,4.738,4.972,9.025,6.767,14.415,1.8,5.39,3.261,10.881,4.348,16.834,1.093,5.948,2.001,12.664,2.776,18.963.775,6.299.63,13.512,1.126,20.056.502,6.538.647,13.891.546,20.636-.1,6.745-.184,14.086-.557,20.624-.373,6.533-1.193,13.25-1.678,19.504-.479,6.26-1.957,12.57-2.787,18.395-.831,5.825-2.742,12.575-3.935,17.804-1.198,5.223-4.889,10.658-6.215,14.967-1.332,4.303-7.425,12.235-3.038,15.546,4.387,3.311,7.865-6.499,9.114-10.585,1.249-4.086,3.657-11.343,4.76-16.421,1.104-5.072,2.999-11.589,3.902-17.28.909-5.686,2.893-11.951,3.779-17.96.886-6.003,1.644-12.386,2.603-18.579.959-6.193,1.237-12.882,1.856-19.326s.479-13.64,0-20.067-.53-13.395-1.672-19.51c-1.143-6.109-1.555-12.486-2.826-18.356-1.271-5.864-2.793-11.789-4.431-17.308-1.644-5.513-3.105-10.797-5.39-15.792-2.291-4.989-4.342-9.498-7.28-13.902-2.938-4.409-5.669-7.865-9.755-11.427-4.086-3.562-8.044-6.031-13.227-7.954-5.178-1.929-13.161-2.609-18.958-2.213-5.797.39-12.174,2.168-17.157,4.582-4.983,2.414-8.116,5.413-11.973,9.209-3.852,3.802-6.661,7.369-9.476,11.706-2.809,4.342-5.797,8.367-8.266,12.915-2.464,4.548-5.022,9.075-7.586,13.595-2.57,4.515-4.61,9.359-7.419,13.763"/>
        <path class="cls-7" d="M9324.776,563.343c4.27-40.201,7.492-81.678,6.132-122.631-3.506,7.096-4.08,13.785-5.022,21.734-.936,7.954-1.288,16.801-1.678,25.078-.396,8.272-1.182,17.202-1.104,25.652s-1.104,17.77-.557,26.199-.858,17.219,2.23,23.969"/>
      </g>
      <g class="cls-13">
        <path class="cls-7" d="M11078.86,436.945c3.07-4.812,5.299-10.105,8.107-15.039,2.802-4.94,5.598-9.886,8.29-14.857,2.698-4.97,5.963-9.368,9.033-14.114,3.076-4.739,6.146-8.637,10.355-12.792,4.215-4.148,7.638-7.425,13.084-10.063,5.446-2.637,12.414-4.581,18.749-5.007,6.335-.432,15.058.311,20.716,2.418,5.665,2.101,9.99,4.8,14.455,8.692,4.465,3.892,7.45,7.669,10.66,12.487,3.21,4.812,5.452,9.74,7.955,15.192,2.497,5.458,4.093,11.232,5.89,17.257,1.791,6.03,3.454,12.505,4.843,18.913,1.389,6.414,1.84,13.383,3.088,20.059,1.249,6.682,1.304,14.296,1.827,21.319s.676,14.887,0,21.929c-.676,7.042-.981,14.351-2.028,21.118-1.048,6.767-1.876,13.742-2.845,20.302-.969,6.566-3.137,13.413-4.13,19.626-.987,6.219-3.058,13.34-4.264,18.883-1.206,5.549-3.838,13.48-5.202,17.945-1.364,4.465-5.165,15.186-9.959,11.567-4.794-3.618,1.864-12.286,3.32-16.989,1.45-4.709,5.482-10.648,6.792-16.355,1.304-5.714,3.393-13.09,4.3-19.456.908-6.365,2.522-13.261,3.046-20.101.53-6.834,1.425-14.174,1.833-21.313.408-7.145.499-15.167.609-22.538s-.049-15.405-.597-22.55c-.542-7.151-.384-15.033-1.23-21.916s-1.84-14.223-3.033-20.723c-1.188-6.506-2.784-12.505-4.751-18.396-1.961-5.89-4.508-10.574-7.395-15.752-2.887-5.178-6.024-8.668-10.252-12.895-4.233-4.221-7.949-7.383-13.364-9.777-5.421-2.4-12.871-4.52-19.072-4.081s-12.853,2.906-18.122,5.634c-5.263,2.735-8.942,5.835-13.096,10.051-4.154,4.221-7.218,7.791-10.66,12.487-3.448,4.69-5.714,9.307-8.631,14.516-2.924,5.202-5.092,10.002-7.224,15.923-2.126,5.927-2.79,12.256-4.398,18.749-1.608,6.499-1.59,14.272-2.437,21.319-.847,7.048.006,15.167-.609,22.538-.615,7.37-.353,14.339-1.218,21.929-.865,7.59-.347,12.767-2.43,20.716-2.083,7.943-4.83-3.704-4.27-10.361.56-6.658-.262-15.953,0-23.147.262-7.194-.158-16.459,0-23.756.158-7.297-.323-15.545-.609-22.538s-1.925-13.663-3.033-20.113c-1.103-6.457-3.484-11.89-5.36-17.787-1.87-5.902-4.179-11.056-6.694-16.453-2.522-5.397-5.117-10.142-8.01-15.137-2.893-4.995-6.304-9.381-9.947-13.809-3.643-4.428-7.035-8.004-11.561-11.586-4.526-3.582-8.503-6.774-14.01-9.137-5.507-2.363-12.725-3.496-18.749-3.192-6.018.311-12.981,2.022-18.079,5.068-5.104,3.04-8.711,6.177-13.133,10.014s-8.278,9.228-14.467,9.289c7.407-12.329,18.146-26.461,33.636-30.322,15.49-3.862,36.006,4.349,48.444,14.028,12.432,9.685,21.289,21.204,28.97,34.988,7.675,13.791,13.297,31.772,16.867,47.092ZM10940.588,264.562c2.552.92,2.016,7.322,3.521,9.88,1.505,2.558,1.048,8.345,1.553,11.848.506,3.502.518,8.473,1.005,12.396.487,3.929-.03,9.155.012,13.389s.268,8.522.609,12.792c.341,4.27-.146,9.003,0,13.401.146,4.398-.061,8.924,0,13.401.061,4.477-.018,9.527,0,14.01.018,4.483.018,8.972,0,13.401-.018,4.428-.865,8.302-.609,12.792.256,4.489-.201,8.918,0,13.401.201,4.483-.286,8.912,0,13.401.286,4.489-.402,8.43-.609,12.792-.207,4.361-.067,8.96,0,13.401s-.158,8.455-.603,12.798c-.451,4.343.091,9.575-.006,14.004-.097,4.428-.231,8.473-.609,12.792s.396,9.119,0,13.401-1.011,8.333-.609,12.792c.402,4.459-.755,8.394-.609,12.792s-.085,8.546-.603,12.798c-.524,4.252.499,8.765-.481,12.92-.981,4.154.627,9.551-.335,13.675s-.018,8.625-.609,12.792-.432,8.296-.975,12.426c-.536,4.136.11,8.711-.652,12.749s.11,8.82-.609,12.792c-.719,3.972-.451,8.363-1.218,12.183-.767,3.819-.073,8.692-1.218,12.183-1.145,3.49-.043,7.705-3.204,10.197-3.161,2.497-3.947-5.306-4.106-8.369-.152-3.064-1.383-8.406-1.218-12.183.164-3.777-1.096-8.29-1.084-12.317.012-4.026-.463-8.558-.737-12.664-.28-4.106-.146-8.631-.615-12.786-.463-4.154.317-8.704-.597-12.804-.908-4.099.688-9.052-.213-13.188-.902-4.136-.372-8.619-.408-12.993s.024-9.356-.475-13.535c-.499-4.185-.384-9.106-.134-13.267.25-4.16,1.084-8.436.609-12.792s.469-8.625.609-12.792c.14-4.166.713-8.175,1.212-12.189.499-4.014.914-7.833,1.699-11.701.786-3.868,1.066-7.638,1.955-11.446.889-3.807,1.565-7.766,2.43-11.58.859-3.819.914-7.76,1.84-11.561.92-3.807,1.243-7.657,1.827-11.573.585-3.917,1.419-7.559,1.827-11.573.402-4.02.835-8.083,1.218-12.183.384-4.099.536-8.577.609-12.792s1.145-8.436.609-12.792c-.536-4.355.761-8.985-.201-13.2-.962-4.215.116-9.326-.408-13.602s-.244-8.552-.609-12.792-.201-8.625-.609-12.792-.439-8.656-.609-12.792c-.171-4.136-1.09-8.674-.609-12.792.481-4.118-.822-9.094-.609-12.792.213-3.697-.317-10.447.201-13.2.518-2.753-.201-11.878,3.454-10.556M10787.088,695.216h572.581V215.223h-572.581v479.993"/>
        <path class="cls-2" d="M10932.669,580.7c-3.375-7.377-1.84-16.982-2.437-26.193s.694-19.395.609-28.629c-.085-9.234.774-18.993,1.206-28.032.426-9.046.81-18.712,1.833-27.405,1.029-8.686,1.657-15.996,5.488-23.75,1.486,44.753-2.034,90.078-6.7,134.008ZM10940.588,264.562c-3.655-1.322-2.936,7.803-3.454,10.556-.518,2.753.012,9.502-.201,13.2-.213,3.697,1.09,8.674.609,12.792-.481,4.118.439,8.656.609,12.792.171,4.136.201,8.625.609,12.792s.244,8.552.609,12.792.085,8.516.609,12.792-.554,9.387.408,13.602c.962,4.215-.335,8.845.201,13.2.536,4.355-.536,8.577-.609,12.792s-.225,8.692-.609,12.792c-.384,4.099-.816,8.162-1.218,12.183-.408,4.014-1.243,7.657-1.827,11.573-.585,3.917-.908,7.766-1.827,11.573-.926,3.801-.981,7.742-1.84,11.561-.865,3.813-1.541,7.772-2.43,11.58-.889,3.807-1.17,7.578-1.955,11.446-.786,3.868-1.2,7.687-1.699,11.701-.499,4.014-1.072,8.022-1.212,12.189-.14,4.166-1.084,8.436-.609,12.792s-.359,8.631-.609,12.792c-.25,4.16-.365,9.082.134,13.267.499,4.179.439,9.161.475,13.535s-.493,8.857.408,12.993c.902,4.136-.694,9.088.213,13.188.914,4.099.134,8.65.597,12.804.469,4.154.335,8.68.615,12.786.274,4.106.749,8.637.737,12.664-.012,4.026,1.249,8.54,1.084,12.317-.164,3.777,1.066,9.119,1.218,12.183.158,3.064.944,10.867,4.106,8.369,3.161-2.491,2.059-6.706,3.204-10.197,1.145-3.49.451-8.363,1.218-12.183.767-3.819.499-8.211,1.218-12.183.719-3.972-.152-8.753.609-12.792s.116-8.613.652-12.749c.542-4.13.384-8.26.975-12.426s-.353-8.668.609-12.792-.646-9.521.335-13.675c.981-4.154-.043-8.668.481-12.92.518-4.252.749-8.4.603-12.798s1.011-8.333.609-12.792c-.402-4.459.213-8.51.609-12.792s-.378-9.082,0-13.401.512-8.363.609-12.792c.097-4.428-.445-9.661.006-14.004.445-4.343.67-8.357.603-12.798s-.207-9.039,0-13.401c.207-4.361.895-8.302.609-12.792-.286-4.489.201-8.918,0-13.401-.201-4.483.256-8.912,0-13.401-.256-4.489.591-8.363.609-12.792.018-4.428.018-8.918,0-13.401-.018-4.483.061-9.533,0-14.01-.061-4.477.146-9.003,0-13.401-.146-4.398.341-9.131,0-13.401-.341-4.27-.566-8.558-.609-12.792s.475-9.46-.012-13.389c-.487-3.923-.499-8.893-1.005-12.396-.506-3.502-.049-9.289-1.553-11.848-1.505-2.558-.969-8.96-3.521-9.88"/>
        <path class="cls-6" d="M11078.86,436.945c-3.569-15.32-9.192-33.301-16.867-47.092-7.681-13.785-16.538-25.303-28.97-34.988-12.438-9.679-32.954-17.89-48.444-14.028-15.49,3.862-26.229,17.994-33.636,30.322,6.189-.061,10.045-5.452,14.467-9.289s8.028-6.975,13.133-10.014c5.098-3.046,12.061-4.757,18.079-5.068,6.024-.305,13.242.828,18.749,3.192,5.507,2.363,9.484,5.555,14.01,9.137,4.526,3.582,7.919,7.157,11.561,11.586,3.643,4.428,7.054,8.814,9.947,13.809,2.893,4.995,5.488,9.74,8.01,15.137,2.516,5.397,4.824,10.55,6.694,16.453,1.876,5.896,4.258,11.33,5.36,17.787,1.109,6.451,2.747,13.121,3.033,20.113s.768,15.24.609,22.538c-.158,7.297.262,16.562,0,23.756-.262,7.194.56,16.489,0,23.147-.56,6.658,2.187,18.304,4.27,10.361,2.083-7.949,1.565-13.127,2.43-20.716.865-7.59.603-14.558,1.218-21.929.615-7.37-.238-15.49.609-22.538.847-7.048.828-14.82,2.437-21.319,1.608-6.493,2.272-12.822,4.398-18.749,2.132-5.921,4.3-10.721,7.224-15.923,2.918-5.208,5.184-9.825,8.631-14.516,3.442-4.696,6.505-8.266,10.66-12.487,4.154-4.215,7.833-7.316,13.096-10.051,5.269-2.729,11.921-5.196,18.122-5.634s13.651,1.681,19.072,4.081c5.415,2.394,9.131,5.555,13.364,9.777,4.227,4.227,7.364,7.718,10.252,12.895,2.887,5.178,5.433,9.862,7.395,15.752,1.968,5.89,3.563,11.89,4.751,18.396,1.194,6.499,2.187,13.839,3.033,20.723s.688,14.765,1.23,21.916c.548,7.145.707,15.179.597,22.55s-.201,15.393-.609,22.538c-.408,7.139-1.304,14.479-1.833,21.313-.524,6.841-2.138,13.736-3.046,20.101-.908,6.365-2.997,13.742-4.3,19.456-1.31,5.708-5.342,11.647-6.792,16.355-1.456,4.702-8.114,13.37-3.32,16.989,4.794,3.618,8.595-7.102,9.959-11.567,1.364-4.465,3.996-12.396,5.202-17.945,1.206-5.543,3.277-12.664,4.264-18.883.993-6.213,3.161-13.06,4.13-19.626.969-6.56,1.797-13.535,2.845-20.302,1.048-6.767,1.352-14.077,2.028-21.118.676-7.042.524-14.905,0-21.929s-.579-14.637-1.827-21.319c-1.249-6.676-1.699-13.644-3.088-20.059-1.389-6.408-3.052-12.883-4.843-18.913-1.797-6.024-3.393-11.799-5.89-17.257-2.504-5.452-4.745-10.38-7.955-15.192-3.21-4.818-6.195-8.595-10.66-12.487-4.465-3.892-8.79-6.591-14.455-8.692-5.659-2.108-14.382-2.851-20.716-2.418-6.335.426-13.303,2.37-18.749,5.007-5.446,2.638-8.869,5.915-13.084,10.063-4.209,4.154-7.279,8.053-10.355,12.792-3.07,4.745-6.335,9.143-9.033,14.114-2.692,4.97-5.488,9.917-8.29,14.857-2.808,4.934-5.037,10.227-8.107,15.039Z"/>
        <path class="cls-7" d="M10932.669,580.7c4.666-43.93,8.187-89.256,6.7-134.008-3.831,7.754-4.459,15.064-5.488,23.75-1.023,8.692-1.407,18.359-1.833,27.405-.432,9.039-1.291,18.798-1.206,28.032.085,9.234-1.206,19.419-.609,28.629s-.938,18.816,2.437,26.193Z"/>
        <path class="cls-7" d="M11078.86,436.945c3.07-4.812,5.299-10.105,8.107-15.039,2.802-4.94,5.598-9.886,8.29-14.857,2.698-4.97,5.963-9.368,9.033-14.114,3.076-4.739,6.146-8.637,10.355-12.792,4.215-4.148,7.638-7.425,13.084-10.063,5.446-2.637,12.414-4.581,18.749-5.007,6.335-.432,15.058.311,20.716,2.418,5.665,2.101,9.99,4.8,14.455,8.692,4.465,3.892,7.45,7.669,10.66,12.487,3.21,4.812,5.452,9.74,7.955,15.192,2.497,5.458,4.093,11.232,5.89,17.257,1.791,6.03,3.454,12.505,4.843,18.913,1.389,6.414,1.84,13.383,3.088,20.059,1.249,6.682,1.304,14.296,1.827,21.319s.676,14.887,0,21.929c-.676,7.042-.981,14.351-2.028,21.118-1.048,6.767-1.876,13.742-2.845,20.302-.969,6.566-3.137,13.413-4.13,19.626-.987,6.219-3.058,13.34-4.264,18.883-1.206,5.549-3.838,13.48-5.202,17.945-1.364,4.465-5.165,15.186-9.959,11.567-4.794-3.618,1.864-12.286,3.32-16.989,1.45-4.709,5.482-10.648,6.792-16.355,1.304-5.714,3.393-13.09,4.3-19.456.908-6.365,2.522-13.261,3.046-20.101.53-6.834,1.425-14.174,1.833-21.313.408-7.145.499-15.167.609-22.538s-.049-15.405-.597-22.55c-.542-7.151-.384-15.033-1.23-21.916s-1.84-14.223-3.033-20.723c-1.188-6.506-2.784-12.505-4.751-18.396-1.961-5.89-4.508-10.574-7.395-15.752-2.887-5.178-6.024-8.668-10.252-12.895-4.233-4.221-7.949-7.383-13.364-9.777-5.421-2.4-12.871-4.52-19.072-4.081s-12.853,2.906-18.122,5.634c-5.263,2.735-8.942,5.835-13.096,10.051-4.154,4.221-7.218,7.791-10.66,12.487-3.448,4.69-5.714,9.307-8.631,14.516-2.924,5.202-5.092,10.002-7.224,15.923-2.126,5.927-2.79,12.256-4.398,18.749-1.608,6.499-1.59,14.272-2.437,21.319-.847,7.048.006,15.167-.609,22.538-.615,7.37-.353,14.339-1.218,21.929-.865,7.59-.347,12.767-2.43,20.716-2.083,7.943-4.83-3.704-4.27-10.361.56-6.658-.262-15.953,0-23.147.262-7.194-.158-16.459,0-23.756.158-7.297-.323-15.545-.609-22.538s-1.925-13.663-3.033-20.113c-1.103-6.457-3.484-11.89-5.36-17.787-1.87-5.902-4.179-11.056-6.694-16.453-2.522-5.397-5.117-10.142-8.01-15.137-2.893-4.995-6.304-9.381-9.947-13.809-3.643-4.428-7.035-8.004-11.561-11.586-4.526-3.582-8.503-6.774-14.01-9.137-5.507-2.363-12.725-3.496-18.749-3.192-6.018.311-12.981,2.022-18.079,5.068-5.104,3.04-8.711,6.177-13.133,10.014s-8.278,9.228-14.467,9.289c7.407-12.329,18.146-26.461,33.636-30.322,15.49-3.862,36.006,4.349,48.444,14.028,12.432,9.685,21.289,21.204,28.97,34.988,7.675,13.791,13.297,31.772,16.867,47.092M10940.588,264.562c2.552.92,2.016,7.322,3.521,9.88,1.505,2.558,1.048,8.345,1.553,11.848.506,3.502.518,8.473,1.005,12.396.487,3.929-.03,9.155.012,13.389s.268,8.522.609,12.792c.341,4.27-.146,9.003,0,13.401.146,4.398-.061,8.924,0,13.401.061,4.477-.018,9.527,0,14.01.018,4.483.018,8.972,0,13.401-.018,4.428-.865,8.302-.609,12.792.256,4.489-.201,8.918,0,13.401.201,4.483-.286,8.912,0,13.401.286,4.489-.402,8.43-.609,12.792-.207,4.361-.067,8.96,0,13.401s-.158,8.455-.603,12.798c-.451,4.343.091,9.575-.006,14.004-.097,4.428-.231,8.473-.609,12.792s.396,9.119,0,13.401-1.011,8.333-.609,12.792c.402,4.459-.755,8.394-.609,12.792s-.085,8.546-.603,12.798c-.524,4.252.499,8.765-.481,12.92-.981,4.154.627,9.551-.335,13.675s-.018,8.625-.609,12.792-.432,8.296-.975,12.426c-.536,4.136.11,8.711-.652,12.749s.11,8.82-.609,12.792c-.719,3.972-.451,8.363-1.218,12.183-.767,3.819-.073,8.692-1.218,12.183-1.145,3.49-.043,7.705-3.204,10.197-3.161,2.497-3.947-5.306-4.106-8.369-.152-3.064-1.383-8.406-1.218-12.183.164-3.777-1.096-8.29-1.084-12.317.012-4.026-.463-8.558-.737-12.664-.28-4.106-.146-8.631-.615-12.786-.463-4.154.317-8.704-.597-12.804-.908-4.099.688-9.052-.213-13.188-.902-4.136-.372-8.619-.408-12.993s.024-9.356-.475-13.535c-.499-4.185-.384-9.106-.134-13.267.25-4.16,1.084-8.436.609-12.792s.469-8.625.609-12.792c.14-4.166.713-8.175,1.212-12.189.499-4.014.914-7.833,1.699-11.701.786-3.868,1.066-7.638,1.955-11.446.889-3.807,1.565-7.766,2.43-11.58.859-3.819.914-7.76,1.84-11.561.92-3.807,1.243-7.657,1.827-11.573.585-3.917,1.419-7.559,1.827-11.573.402-4.02.835-8.083,1.218-12.183.384-4.099.536-8.577.609-12.792s1.145-8.436.609-12.792c-.536-4.355.761-8.985-.201-13.2-.962-4.215.116-9.326-.408-13.602s-.244-8.552-.609-12.792-.201-8.625-.609-12.792-.439-8.656-.609-12.792c-.171-4.136-1.09-8.674-.609-12.792.481-4.118-.822-9.094-.609-12.792.213-3.697-.317-10.447.201-13.2.518-2.753-.201-11.878,3.454-10.556M10787.088,695.216h572.581V215.223h-572.581v479.993"/>
        <path class="cls-2" d="M10932.669,580.7c-3.375-7.377-1.84-16.982-2.437-26.193s.694-19.395.609-28.629c-.085-9.234.774-18.993,1.206-28.032.426-9.046.81-18.712,1.833-27.405,1.029-8.686,1.657-15.996,5.488-23.75,1.486,44.753-2.034,90.078-6.7,134.008M10940.588,264.562c-3.655-1.322-2.936,7.803-3.454,10.556-.518,2.753.012,9.502-.201,13.2-.213,3.697,1.09,8.674.609,12.792-.481,4.118.439,8.656.609,12.792.171,4.136.201,8.625.609,12.792s.244,8.552.609,12.792.085,8.516.609,12.792-.554,9.387.408,13.602c.962,4.215-.335,8.845.201,13.2.536,4.355-.536,8.577-.609,12.792s-.225,8.692-.609,12.792c-.384,4.099-.816,8.162-1.218,12.183-.408,4.014-1.243,7.657-1.827,11.573-.585,3.917-.908,7.766-1.827,11.573-.926,3.801-.981,7.742-1.84,11.561-.865,3.813-1.541,7.772-2.43,11.58-.889,3.807-1.17,7.578-1.955,11.446-.786,3.868-1.2,7.687-1.699,11.701-.499,4.014-1.072,8.022-1.212,12.189-.14,4.166-1.084,8.436-.609,12.792s-.359,8.631-.609,12.792c-.25,4.16-.365,9.082.134,13.267.499,4.179.439,9.161.475,13.535s-.493,8.857.408,12.993c.902,4.136-.694,9.088.213,13.188.914,4.099.134,8.65.597,12.804.469,4.154.335,8.68.615,12.786.274,4.106.749,8.637.737,12.664-.012,4.026,1.249,8.54,1.084,12.317-.164,3.777,1.066,9.119,1.218,12.183.158,3.064.944,10.867,4.106,8.369,3.161-2.491,2.059-6.706,3.204-10.197,1.145-3.49.451-8.363,1.218-12.183.767-3.819.499-8.211,1.218-12.183.719-3.972-.152-8.753.609-12.792s.116-8.613.652-12.749c.542-4.13.384-8.26.975-12.426s-.353-8.668.609-12.792-.646-9.521.335-13.675c.981-4.154-.043-8.668.481-12.92.518-4.252.749-8.4.603-12.798s1.011-8.333.609-12.792c-.402-4.459.213-8.51.609-12.792s-.378-9.082,0-13.401.512-8.363.609-12.792c.097-4.428-.445-9.661.006-14.004.445-4.343.67-8.357.603-12.798s-.207-9.039,0-13.401c.207-4.361.895-8.302.609-12.792-.286-4.489.201-8.918,0-13.401-.201-4.483.256-8.912,0-13.401-.256-4.489.591-8.363.609-12.792.018-4.428.018-8.918,0-13.401-.018-4.483.061-9.533,0-14.01-.061-4.477.146-9.003,0-13.401-.146-4.398.341-9.131,0-13.401-.341-4.27-.566-8.558-.609-12.792s.475-9.46-.012-13.389c-.487-3.923-.499-8.893-1.005-12.396-.506-3.502-.049-9.289-1.553-11.848-1.505-2.558-.969-8.96-3.521-9.88"/>
        <path class="cls-6" d="M11078.86,436.945c-3.569-15.32-9.192-33.301-16.867-47.092-7.681-13.785-16.538-25.303-28.97-34.988-12.438-9.679-32.954-17.89-48.444-14.028-15.49,3.862-26.229,17.994-33.636,30.322,6.189-.061,10.045-5.452,14.467-9.289s8.028-6.975,13.133-10.014c5.098-3.046,12.061-4.757,18.079-5.068,6.024-.305,13.242.828,18.749,3.192,5.507,2.363,9.484,5.555,14.01,9.137,4.526,3.582,7.919,7.157,11.561,11.586,3.643,4.428,7.054,8.814,9.947,13.809,2.893,4.995,5.488,9.74,8.01,15.137,2.516,5.397,4.824,10.55,6.694,16.453,1.876,5.896,4.258,11.33,5.36,17.787,1.109,6.451,2.747,13.121,3.033,20.113s.768,15.24.609,22.538c-.158,7.297.262,16.562,0,23.756-.262,7.194.56,16.489,0,23.147-.56,6.658,2.187,18.304,4.27,10.361,2.083-7.949,1.565-13.127,2.43-20.716.865-7.59.603-14.558,1.218-21.929.615-7.37-.238-15.49.609-22.538.847-7.048.828-14.82,2.437-21.319,1.608-6.493,2.272-12.822,4.398-18.749,2.132-5.921,4.3-10.721,7.224-15.923,2.918-5.208,5.184-9.825,8.631-14.516,3.442-4.696,6.505-8.266,10.66-12.487,4.154-4.215,7.833-7.316,13.096-10.051,5.269-2.729,11.921-5.196,18.122-5.634s13.651,1.681,19.072,4.081c5.415,2.394,9.131,5.555,13.364,9.777,4.227,4.227,7.364,7.718,10.252,12.895,2.887,5.178,5.433,9.862,7.395,15.752,1.968,5.89,3.563,11.89,4.751,18.396,1.194,6.499,2.187,13.839,3.033,20.723s.688,14.765,1.23,21.916c.548,7.145.707,15.179.597,22.55s-.201,15.393-.609,22.538c-.408,7.139-1.304,14.479-1.833,21.313-.524,6.841-2.138,13.736-3.046,20.101-.908,6.365-2.997,13.742-4.3,19.456-1.31,5.708-5.342,11.647-6.792,16.355-1.456,4.702-8.114,13.37-3.32,16.989,4.794,3.618,8.595-7.102,9.959-11.567,1.364-4.465,3.996-12.396,5.202-17.945,1.206-5.543,3.277-12.664,4.264-18.883.993-6.213,3.161-13.06,4.13-19.626.969-6.56,1.797-13.535,2.845-20.302,1.048-6.767,1.352-14.077,2.028-21.118.676-7.042.524-14.905,0-21.929s-.579-14.637-1.827-21.319c-1.249-6.676-1.699-13.644-3.088-20.059-1.389-6.408-3.052-12.883-4.843-18.913-1.797-6.024-3.393-11.799-5.89-17.257-2.504-5.452-4.745-10.38-7.955-15.192-3.21-4.818-6.195-8.595-10.66-12.487-4.465-3.892-8.79-6.591-14.455-8.692-5.659-2.108-14.382-2.851-20.716-2.418-6.335.426-13.303,2.37-18.749,5.007-5.446,2.638-8.869,5.915-13.084,10.063-4.209,4.154-7.279,8.053-10.355,12.792-3.07,4.745-6.335,9.143-9.033,14.114-2.692,4.97-5.488,9.917-8.29,14.857-2.808,4.934-5.037,10.227-8.107,15.039"/>
        <path class="cls-7" d="M10932.669,580.7c4.666-43.93,8.187-89.256,6.7-134.008-3.831,7.754-4.459,15.064-5.488,23.75-1.023,8.692-1.407,18.359-1.833,27.405-.432,9.039-1.291,18.798-1.206,28.032.085,9.234-1.206,19.419-.609,28.629s-.938,18.816,2.437,26.193"/>
      </g>
      <path class="cls-11" d="M6819.299,552.832c-1.269-7.596,2.628-15.649,2.975-23.861.347-8.212,2.162-16.219,2.975-24.524s.754-17.531,1.983-25.85.922-16.809,1.983-25.187c1.061-8.371,1.349-17.412,1.993-25.843.645-8.431,1.854-16.583,2.191-25.048.337-8.457,2.191-16.212,2.757-24.67.565-8.457,1.16-17.445,1.983-25.85s1.884-16.179,2.975-24.524c1.091-8.345.833-17.478,2.053-25.803,1.22-8.325,1.963-16.212,2.905-24.57s1.329-16.749,1.983-25.187c.654-8.438.228-17.757,0-25.85-.228-8.1-1.537-17.743-2.201-25.041-.664-7.297-9.618-17.942-13.882-8.908-4.264,9.034,3.312,15.245,2.201,24.007s.982,17.876,0,26.512c-.982,8.63-1.468,17.273-1.983,25.85s-2.072,16.086-2.975,24.524c-.902,8.438-1.249,17.412-1.993,25.843-.734,8.438-2.469,16.086-2.965,24.531-.496,8.444-1.23,16.743-1.983,25.187-.754,8.444-1.2,17.405-1.983,25.85s-.704,16.842-1.983,25.187c-1.279,8.345-.684,17.558-2.003,25.836-1.329,8.272-1.844,16.318-2.955,24.537-1.121,8.212-2.112,16.272-3.044,24.478-.942,8.206-3.223,16.358-3.897,24.57-.674,8.206-2.975,15.748-3.966,23.861-.992,8.113-2.33,16.577-3.966,24.524-1.646,7.947-1.914,16.086-3.966,23.861-2.053,7.775-1.914,16.895-4.036,24.478-2.122,7.576-2.221,16.146-4.889,23.245s-.912,21.024,6.178,13.409c7.09-7.616,6.991-12.481,10.689-20.03,3.699-7.549,4.214-14.542,6.941-21.873,2.717-7.337,4.77-14.794,8.141-21.734,3.371-6.94,6.683-12.978,10.372-19.579,3.689-6.608,7.784-12.189,11.909-18.552,4.125-6.356,8.607-11.911,13.892-17.889,5.275-5.985,8.567-10.161,16.907-15.211,8.339-5.044,19.653-3.003,26.277,3.314,6.614,6.323,7.844,12.812,8.676,20.713s1.418,17.591.992,25.85c-.426,8.259.585,19.195,0,27.175s-.575,18.055-2.053,25.14c-1.487,7.085-2.776,17.081-7.1,22.429-4.323,5.349-9.182,19.586.476,16.226,9.648-3.367,8.29-12.05,12.861-17.916,4.581-5.859,6.217-14.31,8.924-21.21,2.707-6.893,4.651-14.701,6.396-22.237,1.745-7.536,2.37-17.107,3.302-24.968.932-7.861-.754-17.743-1.993-25.18-1.239-7.443-4.274-14.542-8.002-21.163-3.718-6.628-8.478-11.354-16.55-16.113-8.072-4.759-21.875-4.713-30.739-1.684-8.865,3.029-16.351,6.827-22.737,11.977-6.376,5.15-11.116,10.081-16.242,15.656-5.127,5.574-9.807,11.38-13.803,17.286Z"/>
      <path class="cls-8" d="M7633.168,677.194c8.525-35.511,13.166-70.132,17.05-107.036,3.884-36.904,8.98-77.322,7.578-114.614-16.927,32.499-18.85,66.154-21.796,103.238-2.946,37.093-5.939,81.291-2.832,118.412Z"/>
      <path class="cls-11" d="M7894.875,602.05c-1.974-23.58-.072-51.655,1.799-75.217,1.871-23.556,3.093-44.934,13.845-65.578.891,23.689-2.347,49.363-4.814,72.805-2.467,23.442-5.415,45.434-10.83,67.991M7921.35,398.679c-1.408-7.292-1.173-14.753-1.805-22.263-.626-7.509.644-16.619-.006-24.062-.644-7.449-.8-15.602-1.197-22.87-.403-7.268-1.667-14.398-2.208-21.258-.542-6.859-2.016-15.024-2.738-21.33-.722-6.3-4.41-13.46-5.295-18.773-.891-5.307-8.574-14.778-10.217-7.834s2.082,14.134,2.407,21.059c.331,6.925,2.178,14.453,2.419,21.649.247,7.19,2.028,14.374,2.395,21.673.367,7.299.927,14.525,1.607,21.859.68,7.335.746,15.247,1.402,22.666s.752,15.385,1.203,22.864.578,15.608,0,22.864-1.185,13.869-3.02,20.445c-1.841,6.57-3.442,12.238-5.536,18.532s-4.501,11.252-6.498,17.569c-2.004,6.312-3.688,11.601-5.205,18.261-1.516,6.661-2.623,13.634-3.249,20.819-.632,7.178-1.847,14.669-1.763,22.305s-.223,15.758-.602,23.466.361,15.578,0,23.466.343,15.602.602,23.466.421,15.259.734,23.334,1.727,12.058,2.882,20.584c1.155,8.526,7.702,6.149,9.633-1.185,1.937-7.329,3.779-11.721,5.415-18.652,1.643-6.925,3.045-12.948,4.212-19.856,1.173-6.907,2.521-12.924,3.598-19.868s1.974-14.031,3.008-21.059,1.588-14.489,2.449-21.619c.86-7.124,2.04-14.386,2.407-21.661.367-7.268,2.01-13.797,2.365-21.101s1.041-15.054,1.805-22.263.782-15.235,1.805-22.263.806-14.862,1.817-21.649c1.017-6.781,1.33-14.82,3.045-21.023,1.709-6.209,5.752-10.06,9.128-14.94,3.369-4.886,7.353-8.4,11.432-12.636,4.079-4.242,7.75-7.605,12.034-11.432,4.278-3.827,8.688-7.389,13.237-10.83s8.803-7.335,13.55-10.518c4.747-3.183,9.248-6.258,14.128-9.338,4.886-3.075,9.958-6.173,15.078-8.989,5.114-2.822,10.836-5.62,16.252-7.816,5.415-2.19,13.845-4.97,19.663-4.404s15.283-2.491,13.797-9.585c-1.492-7.088-12.425-3.201-17.599-2.04-5.175,1.155-12.287,4.38-17.449,6.619-5.163,2.238-10.963,4.633-16.005,7.461-5.048,2.822-10.554,5.59-15.542,8.526-4.994,2.936-9.904,6.27-14.771,9.296-4.874,3.026-9.639,6.468-14.212,9.856-4.573,3.394-8.905,6.498-13.135,10.331-4.236,3.827-8.586,7.389-12.636,11.432-4.055,4.043-8.171,7.936-12.335,11.733-4.164,3.803-8.105,7.503-12.485,10.981"/>
      <path class="cls-8" d="M11852.631,357.033c6.896-5.475,13.1-11.3,19.655-17.287,6.555-5.977,13.034-12.106,19.418-18.471,6.375-6.365,13.223-11.973,19.892-17.997,6.659-6.034,13.479-10.922,20.678-16.264,7.199-5.333,14.701-10.751,22.373-15.516,7.663-4.765,15.392-10.012,23.254-14.635,7.852-4.622,16.52-8.98,24.467-13.422,7.938-4.452,17.069-8.222,25.196-11.746,8.127-3.524,19.323-8.601,27.469-10.419,8.146-1.828,25.357-7.947,27.706,3.211,2.34,11.168-12.56,15.98-21.72,15.089s-22.43,3.486-30.955,6.934c-8.525,3.457-17.533,7.862-25.584,12.304-8.061,4.433-16.046,9.311-23.737,14.152-7.682,4.85-14.767,9.69-22.241,14.701-7.474,5.011-14.17,11.139-21.331,16.557-7.161,5.418-14.104,11.026-20.839,17.05-6.744,6.024-12.522,11.319-18.944,17.997-6.422,6.668-12.693,12.2-17.997,19.892-5.314,7.682-11.679,13.744-14.369,23.52-2.7,9.766-3.192,22.421-4.793,33.096-1.591,10.685-1.25,23.018-2.861,34.081-1.61,11.064-1.639,23.699-2.842,35.047s-2.283,23.548-2.842,35.047-3.145,21.777-3.723,33.219c-.578,11.452-2.434,22.885-3.789,34.1-1.355,11.225-2.226,22.97-3.855,34.034-1.629,11.064-3.041,22.222-4.736,33.153s-3.817,20.403-5.664,31.277c-1.838,10.874-4.045,20.356-6.631,31.258-2.576,10.912-5.475,17.827-8.525,29.364-3.041,11.547-13.346,15.288-15.165,1.866-1.819-13.422-4.045-19.693-4.537-32.404-.493-12.712-.748-24.353-1.156-36.733-.407-12.38-1.516-24.524-.947-36.942.568-12.418-.597-24.808,0-36.942.597-12.134,1.08-24.921.947-36.942-.133-12.02,1.781-23.813,2.775-35.114.985-11.31,2.728-22.288,5.115-32.774,2.387-10.486,5.039-18.812,8.193-28.748,3.145-9.946,6.934-17.751,10.23-27.659,3.296-9.908,5.816-18.831,8.714-29.174,2.889-10.353,3.846-20.763,4.755-32.187s.71-24.22,0-35.994-.862-24.315-1.894-35.994-1.137-24.135-2.207-35.682c-1.07-11.547-1.951-22.923-2.529-34.413s-3.382-22.8-3.77-34.119c-.379-11.329-3.287-23.179-3.808-34.081-.512-10.903-6.375-22.222-3.789-33.153,2.586-10.931,14.682,3.978,16.084,12.333,1.392,8.364,7.199,19.636,8.336,29.553,1.137,9.927,3.457,22.781,4.31,33.579.853,10.798,2.842,22.023,3.476,33.465.625,11.442.871,24.277,1.885,36.004,1.023,11.717-.976,26.058.009,37.879.995,11.821.625,23.567,2.842,35.047ZM11495.528,826.855h890.389V80.444h-890.389v746.411"/>
      <path class="cls-11" d="M11742.282,593.444c-1.907-22.784-.07-49.91,1.738-72.677,1.808-22.761,2.988-43.417,13.377-63.363.86,22.888-2.267,47.695-4.651,70.346-2.384,22.65-5.232,43.899-10.465,65.695ZM11767.863,396.942c-1.36-7.046-1.134-14.255-1.744-21.511-.605-7.255.622-16.057-.006-23.249-.622-7.197-.773-15.075-1.157-22.098-.39-7.023-1.61-13.912-2.134-20.54-.523-6.628-1.948-14.517-2.645-20.61-.698-6.087-4.261-13.005-5.116-18.139-.86-5.128-8.284-14.278-9.872-7.569s2.012,13.656,2.325,20.348c.32,6.692,2.105,13.964,2.337,20.918.238,6.947,1.959,13.889,2.314,20.941.355,7.052.895,14.034,1.552,21.121.657,7.087.721,14.732,1.355,21.9.634,7.168.727,14.866,1.163,22.092.436,7.226.558,15.081,0,22.092-.558,7.011-1.145,13.401-2.918,19.755-1.779,6.349-3.325,11.825-5.349,17.906-2.023,6.081-4.349,10.872-6.279,16.976-1.936,6.099-3.564,11.209-5.029,17.645-1.465,6.436-2.535,13.174-3.139,20.115-.61,6.936-1.785,14.174-1.703,21.551.081,7.378-.215,15.226-.581,22.673-.366,7.447.349,15.052,0,22.673-.349,7.622.331,15.075.581,22.673.25,7.598.407,14.743.709,22.545.302,7.802,1.669,11.651,2.785,19.889,1.116,8.238,7.442,5.942,9.308-1.145,1.872-7.081,3.651-11.325,5.232-18.022,1.587-6.692,2.942-12.511,4.07-19.185,1.134-6.674,2.436-12.488,3.477-19.197,1.041-6.709,1.907-13.558,2.907-20.348,1-6.79,1.535-13.999,2.366-20.889.831-6.883,1.971-13.901,2.325-20.929.355-7.023,1.942-13.331,2.285-20.389.343-7.058,1.006-14.546,1.744-21.511.738-6.965.756-14.72,1.744-21.511s.779-14.36,1.756-20.918c.983-6.552,1.285-14.319,2.942-20.313,1.651-6,5.558-9.72,8.819-14.435,3.256-4.721,7.104-8.116,11.046-12.209,3.942-4.099,7.488-7.349,11.627-11.046,4.134-3.697,8.395-7.139,12.79-10.465s8.505-7.087,13.092-10.162c4.587-3.075,8.936-6.046,13.651-9.023,4.721-2.971,9.622-5.965,14.569-8.686,4.942-2.727,10.47-5.43,15.703-7.552,5.232-2.116,13.377-4.802,18.999-4.256s14.767-2.407,13.331-9.261c-1.442-6.849-12.005-3.093-17.005-1.971-5,1.116-11.872,4.232-16.86,6.395-4.988,2.163-10.593,4.477-15.464,7.209-4.878,2.727-10.197,5.401-15.017,8.238-4.825,2.837-9.569,6.058-14.273,8.982-4.709,2.924-9.314,6.25-13.732,9.523-4.418,3.279-8.604,6.279-12.691,9.982-4.093,3.697-8.296,7.139-12.209,11.046-3.918,3.907-7.895,7.668-11.918,11.337-4.023,3.674-7.831,7.25-12.063,10.61"/>
      <path class="cls-11" d="M12106.447,606.026c-1.995-23.833-.073-52.209,1.818-76.024,1.891-23.809,3.126-45.416,13.993-66.281.9,23.943-2.372,49.892-4.865,73.585-2.493,23.693-5.473,45.921-10.947,68.72M12133.205,400.474c-1.423-7.371-1.186-14.912-1.824-22.501-.632-7.59.651-16.797-.006-24.32-.651-7.529-.809-15.769-1.21-23.115-.407-7.346-1.685-14.553-2.232-21.486-.547-6.933-2.037-15.185-2.767-21.559-.73-6.367-4.458-13.604-5.352-18.974-.9-5.364-8.666-14.936-10.326-7.918-1.66,7.018,2.104,14.285,2.433,21.285.334,7,2.201,14.608,2.445,21.881.249,7.267,2.049,14.529,2.42,21.905.371,7.377.937,14.681,1.624,22.094.687,7.413.754,15.41,1.417,22.909.663,7.498.76,15.55,1.216,23.109.456,7.559.584,15.775,0,23.109-.584,7.334-1.198,14.018-3.053,20.665-1.861,6.641-3.479,12.37-5.595,18.731-2.116,6.361-4.549,11.372-6.568,17.758-2.025,6.379-3.728,11.725-5.26,18.457-1.533,6.732-2.651,13.78-3.284,21.042-.639,7.255-1.867,14.826-1.782,22.544.085,7.717-.225,15.927-.608,23.718-.383,7.79.365,15.745,0,23.718-.365,7.973.347,15.769.608,23.718.261,7.948.426,15.422.742,23.584s1.745,12.187,2.913,20.805c1.168,8.617,7.784,6.215,9.736-1.198,1.958-7.407,3.819-11.847,5.473-18.852,1.66-7,3.077-13.087,4.257-20.069,1.186-6.981,2.548-13.063,3.637-20.081s1.995-14.182,3.041-21.285c1.046-7.103,1.606-14.644,2.475-21.851.87-7.2,2.062-14.541,2.433-21.893.371-7.346,2.031-13.945,2.39-21.328s1.052-15.216,1.824-22.501.791-15.398,1.824-22.501c1.034-7.103.815-15.021,1.837-21.881,1.028-6.854,1.344-14.979,3.077-21.248,1.727-6.276,5.814-10.168,9.226-15.1,3.406-4.938,7.431-8.49,11.555-12.771,4.123-4.287,7.833-7.687,12.163-11.555,4.324-3.868,8.782-7.468,13.379-10.947s8.897-7.413,13.695-10.63c4.798-3.217,9.347-6.325,14.279-9.438,4.938-3.108,10.065-6.24,15.24-9.086,5.169-2.852,10.953-5.68,16.426-7.9,5.473-2.214,13.993-5.023,19.874-4.452,5.881.572,15.447-2.518,13.945-9.688-1.508-7.164-12.558-3.235-17.788-2.062-5.23,1.168-12.418,4.427-17.636,6.69-5.218,2.262-11.08,4.683-16.177,7.541-5.102,2.852-10.667,5.65-15.708,8.617-5.048,2.968-10.01,6.337-14.93,9.396-4.926,3.059-9.742,6.538-14.364,9.961-4.622,3.43-9,6.568-13.276,10.442-4.281,3.868-8.678,7.468-12.771,11.555-4.099,4.087-8.259,8.021-12.467,11.859-4.208,3.843-8.192,7.584-12.619,11.099"/>
      <path class="cls-8" d="M7633.168,677.194c8.525-35.511,13.166-70.132,17.05-107.036,3.884-36.904,8.98-77.322,7.578-114.614-16.927,32.499-18.85,66.154-21.796,103.238-2.946,37.093-5.939,81.291-2.832,118.412"/>
      <path class="cls-11" d="M8392.865,200.632c-3.1-2.035-7.177,5.418-8.258,8.138-1.073,2.72-4.069,7.624-5.172,11.224-1.11,3.6-2.698,8.533-3.719,12.677-1.014,4.144-1.573,9.234-2.728,13.668-1.155,4.427-.902,9.927-1.751,14.645-.857,4.71-1.207,9.927-1.483,14.913-.276,4.993-1.118,9.838-1.483,14.913s.238,11.246,0,16.396-1.282,9.562-.745,14.906c.537,5.344-.522,10.471-.745,15.651-.224,5.18-.097,10.568-.745,15.651-.648,5.083.007,10.605-.745,15.651s-.201,10.583-.745,15.651c-.544,5.06-.984,9.86-1.491,14.906-.507,5.046-.328,10.613-.753,15.643-.425,5.038-1.379,9.868-1.483,14.913s-1.14,9.182-1.491,14.16-.581,10.233-1.245,15.152c-.663,4.919-.865,9.987-1.491,14.906-.626,4.919-.872,10.009-1.491,14.906-.619,4.897-.976,9.815-1.736,14.66-.76,4.844-.537,10.136-1.491,14.906-.954,4.762-.894,9.957-1.655,14.742-.76,4.785-1.282,9.599-2.072,14.324s-.797,9.316-1.655,13.996c-.865,4.68-1.438,9.569-2.087,14.309-.656,4.733-1.505,9.502-2.236,14.16-.738,4.651-1.669,9.405-2.385,14.011-.715,4.598-1.923,9.092-2.832,13.564-.909,4.464-2.035,9.07-3.018,13.378-.991,4.3-3.033,8.511-3.674,12.722s-2.087,10.248-2.251,14.145c-.171,3.89-3.138,11.112.261,13.929,3.399,2.817,7.952-3.637,9.219-6.685,1.26-3.056,3.577-7.907,4.747-11.649,1.178-3.734,2.489-8.608,3.689-12.707,1.207-4.092,1.975-9.033,3.018-13.378,1.051-4.338,1.841-9.003,2.936-13.46,1.096-4.457,1.327-9.555,2.281-14.116.961-4.554,1.52-9.398,2.348-14.049.827-4.651,1.632-9.51,2.124-14.272.492-4.762,1.602-8.705,2.184-13.467.589-4.762,1.133-9.89,1.655-14.742s1.558-9.413,2.072-14.324.812-10.009,1.498-14.898c.686-4.897.924-9.957,1.498-14.898.581-4.934,1.237-9.882,1.483-14.913.238-5.038,1.371-9.845,1.483-14.913s.999-9.935,1.491-14.906c.492-4.971.238-9.912.753-14.898.507-4.993.954-9.875,1.483-14.913s.052-10.605.745-15.651.216-10.538.76-15.636c.544-5.09.552-10.099,1.23-15.166.678-5.068-.462-10.695.745-15.651,1.207-4.956-.865-11.135.298-16.098,1.17-4.964.186-10.628.693-15.703s.552-9.8.753-14.898c.201-5.098,1.051-9.882,1.483-14.913s.082-10.702.753-15.643c.663-4.941.946-10.032,1.483-14.913.537-4.874,1.088-10.128,1.505-14.891.425-4.755,1.751-9.666,2.228-14.168.47-4.502,1.915-9.45,2.989-13.408,1.081-3.95,2.974-9.853,3.018-13.378.045-3.518,3.018-12.2-.052-14.213"/>
      <path class="cls-12" d="M10365.344,384.551c-1.644-8.332-2.78-16.263-4.247-24.68-1.475-8.41-2.476-16.778-3.514-25.414s-1.87-17.716-2.272-26.655c-.402-8.939-1.849-17.067-1.961-26.26-.113-9.193-2.413-15.952-3.683-25.244-1.27-9.292-10.633-11.656-11.839-1.566-1.206,10.082-2.434,17.145-2.117,26.811.318,9.666.769,17.681,1.411,26.811.642,9.13.974,18.083,2.131,26.796,1.164,8.713,2.222,16.919,3.563,25.364,1.348,8.438,3.027,15.656,4.184,24.038-8.509.748-17.646,1.397-26.091,2.131-8.438.741-17.173,1.947-25.414,2.808-8.234.868-16.242,2.378-23.981,4.24-7.74,1.856-15.317,2.822-22.57,5.651-7.246,2.836-14.174,3.309-21.018,7.204-6.844,3.895-11.648,3.923-17.258,10.964-5.602,7.041,4.346,13.638,11.684,10.273,7.338-3.372,13.349-4.092,20.171-8.05,6.83-3.951,13.017-5.454,20.51-7.712,7.5-2.258,15.374-3.408,23.283-4.939,7.916-1.524,16.418-2.688,24.701-3.521,8.276-.833,17.568-2.067,26.091-2.103,8.516-.028,13.06,5.574,14.598,13.624,1.538,8.043,1.616,17.272,2.349,25.872s.085,18.513.861,27.361c.776,8.84.078,18.619.55,27.671.473,9.052,1.002,18.245.706,27.516s.254,18.231,0,27.516.367,18.93,0,28.222c-.367,9.292,1.03,18.337.706,27.516-.325,9.179.367,18.69.706,27.516.339,8.826.48,19.05.706,27.516.226,8.459,2.124,18.323,2.131,26.091.014,7.761,4.276,19.621,7.902,10.752,3.634-8.862,2.688-14.696,4.784-23.438,2.103-8.742,1.39-17.039,2.166-26.056.783-9.01.783-18.274.656-27.565-.127-9.292.169-18.937,0-28.222-.169-9.285.325-19.014,0-28.222-.325-9.207-.734-18.295-.706-27.516.028-9.221-.833-18.351-.706-27.516.127-9.165-1.369-17.78-1.411-26.811-.042-9.031-.769-18.027-1.411-26.811-.642-8.784-.31-18.309-1.411-26.811-1.101-8.495-.691-16.086-3.528-23.988,9.109-2.095,21.456-1.968,30.994-1.362,9.532.614,19.783,1.877,28.962,2.787,9.172.917,19.071,2.512,27.53,4.219,8.459,1.707,19.431,2.187,26.761,4.988,7.324,2.808,24.609,1.136,18.923-6.928-5.687-8.064-15.127-5.821-22.951-9.504-7.824-3.683-17.497-3.535-26.211-5.539-8.706-2.011-18.323-3.062-27.565-4.184-9.243-1.122-19.508-1.743-28.927-2.822-9.412-1.079-19.431-1.905-28.927-2.822"/>
      <path class="cls-10" d="M5927.556,454.657c.216,54.899-5.662,109.759-19.022,161.69-2.714-17.856,1.56-37.151,3.126-55.209,1.56-18.059,3.881-36.758,6.373-54.499,2.486-17.748,3.811-35.413,9.524-51.982M5926.288,325.304c-2.796,7.488-.659,15.617-.634,23.461s1.015,15.611,1.268,23.461c.254,7.85.076,17.551,0,25.363-.076,7.812-1.141,15.332-1.915,22.814-.78,7.476-2.448,14.539-3.583,21.781-1.135,7.241-2.486,13.639-4.026,20.703-1.547,7.057-2.479,13.747-3.804,20.925-1.332,7.171-2.213,14.818-3.202,22.161-.996,7.336-1.871,14.59-2.631,22.098-.761,7.501-1.845,15.338-2.397,22.966-.552,7.628-1.446,15.174-1.902,22.827s-1.198,15.77-1.268,23.461c-.07,7.691-1.522,17.126-.634,24.729.888,7.603-1.845,16.841,1.319,23.41,3.158,6.575,8.693-5.409,9.892-10.297,1.198-4.889,4.058-13.423,5.288-19.441,1.236-6.011,3.227-13.626,4.432-20.297,1.205-6.671,2.34-14.768,3.589-21.774,1.249-7,1.782-14.546,2.885-21.844,1.103-7.298,1.712-15.37,2.409-22.954.697-7.577,1.566-15.047,1.89-22.84.323-7.793.926-15.541,1.268-23.461s-.634-17.52,0-25.363.285-16.366.64-24.089c.349-7.723,1.217-16.099,1.94-23.423.729-7.324,2.511-13.886,4.191-20.538,1.674-6.658,3.69-12.567,6.055-18.674,2.365-6.106,5.022-11.965,7.609-17.754,2.587-5.795,5.472-10.716,8.877-15.852,3.405-5.136,6.493-10.063,10.792-14.571s8.896-7.298,14.381-10.348c5.485-3.056,14.565-2.942,20.322-.577,5.751,2.371,11.077,5.428,15.706,9.657,4.629,4.229,7.869,8.186,11.73,12.999,3.855,4.819,7.14,9.689,10.037,15.326,2.891,5.643,5.358,10.868,7.571,17.158,2.219,6.284,3.671,13.417,5.066,20.297,1.395,6.88,2.371,14.203,3.17,21.559.799,7.355,1.649,15.047,1.896,22.833s.793,16.163,1.268,24.095-.273,16.613,0,24.729-.247,17.234,0,25.363-.266,16.245-.634,24.095-.139,16.334-.774,23.956c-.634,7.622-.996,15.985-2.188,23.176-1.192,7.19-1.053,14.102-4.445,20.284-3.392,6.182-1.991,18.28,4.394,12.003,6.379-6.284,3.671-11.413,6.195-18.534,2.53-7.114,1.915-14.115,3.202-21.527,1.294-7.406,1.934-14.901,2.917-22.446.983-7.546,1.078-14.977,2.111-22.618,1.034-7.641.71-16.239,1.281-24.082.577-7.837.678-16.099.621-24.108s-.19-16.347-.634-24.095-1.611-15.598-2.327-23.036c-.717-7.438-1.959-14.381-3.38-21.349s-2.448-14.356-4.483-20.88c-2.042-6.518-3.652-12.745-5.802-18.927-2.156-6.176-4.756-11.509-7.52-17.209-2.765-5.707-5.599-11.23-8.972-16.391-3.373-5.161-6.334-9.581-10.792-13.937-4.451-4.356-8.148-8.509-13.106-12.257-4.952-3.747-9.226-6.924-15.224-9.505-5.992-2.587-13.525,2.384-19.048,4.496-5.529,2.118-10.494,6.119-14.761,10.608-4.267,4.496-7.558,8.681-11.096,13.633-3.532,4.959-6.81,10.209-9.828,15.535-3.012,5.326-6.03,10.735-8.23,16.499-2.2,5.764-5.7,11.325-7.463,17.266-2.72-16.467.938-37.195-9.511-50.726"/>
      <path class="cls-3" d="M12781.432,274.566c-7.751-1.298-8.1,10.941-6.647,16.079,1.459,5.138,3.662,11.512,7.063,16.24,3.395,4.733,5.903,9.648,7.945,15.357,2.042,5.709,3.972,12.206,5.52,18.337,1.553,6.125,2.752,12.716,4.244,19.058,1.492,6.336,2.203,13.227,3.551,19.752,1.354,6.519,2.275,13.771,3.412,20.445,1.137,6.674,2.308,13.316,3.218,20.084.915,6.769,2.291,13.205,3.318,19.985,1.026,6.774,1.775,14.27,2.813,21.044,1.043,6.769,2.28,13.282,3.296,20.007,1.015,6.73,2.236,13.305,3.329,19.973,1.087,6.669,2.264,13.288,3.362,19.94,1.099,6.647,2.78,13.393,3.85,20.007,1.065,6.613,2.619,12.927,3.878,19.424,1.265,6.491,2.425,13.033,3.889,19.413,1.465,6.386,2.824,13.138,4.472,19.385,1.653,6.242,3.124,12.245,4.993,18.309,1.875,6.059,3.329,10.93,7.312,15.99,3.978,5.06,12.217,5.171,16.09.277,3.867-4.899,6.808-8.411,9.709-13.593,2.896-5.188,5.609-9.776,8.295-15.008,2.68-5.237,5.226-10.68,7.978-15.879,2.746-5.204,4.971-10.497,7.551-15.751,2.585-5.249,4.988-10.503,7.512-15.79,2.524-5.287,4.949-10.519,7.473-15.835,2.519-5.31,5.337-10.564,8.073-15.779,2.73-5.221,6.292-8.783,9.338-13.965,3.052-5.176,8.866-8.749,14.337-5.548,5.476,3.201,9.154,6.175,12.944,10.913,3.784,4.738,6.813,8.428,9.892,13.41,3.079,4.977,5.753,9.687,8.405,14.897,2.652,5.21,5.548,10.536,8.023,15.835,2.48,5.293,4.766,10.664,7.423,15.879,2.658,5.21,4.555,10.836,7.301,16.001,2.746,5.171,5.138,10.325,7.767,15.535,2.63,5.21,5.532,10.181,8.877,14.98,3.346,4.799,6.88,9.504,13.188,10.114,6.308.61,11.379-3.579,13.887-9.421,2.502-5.837,4.117-11.901,5.543-18.309,1.431-6.403,2.569-13.166,3.323-19.979.749-6.813,1.892-13.848,2.336-20.967.449-7.118,1.814-14.442,2.097-21.76.283-7.324.727-14.803,1.11-22.193.383-7.39.616-14.742,1.11-22.193.494-7.451.233-15.773.555-23.302.327-7.523.904-14.631,1.11-22.193.205-7.562,0-15.235.555-22.748s-.327-15.258.555-22.748c.882-7.49-.505-16.273,0-23.857.505-7.584.355-15.141.555-22.748.2-7.607-.294-15.585-.372-22.931-.078-7.346-.932-16.095-.749-23.108.178-7.007-4.089-15.995-6.686-7.817-2.597,8.172-1.737,12.678-2.735,20.567s.017,15.529-.555,23.302c-.571,7.773-.666,14.908-.555,22.748s-.144,15.485,0,23.302-.272,15.479,0,23.302-.721,15.552-.555,23.302-.189,15.191-.555,22.748c-.366,7.557-.1,15.258-.555,22.748-.455,7.49-.899,15.274-1.11,22.748-.211,7.473-1.332,14.275-1.664,21.638-.333,7.362-.827,14.581-1.481,21.821-.655,7.24-1.47,14.303-2.402,21.455-.932,7.152-1.565,13.343-2.785,20.517-1.226,7.174-2.696,10.93-4.993,18.303-2.302,7.379-9.049,5.193-11.779-.954-2.724-6.147-5.654-9.487-8.012-15.285-2.364-5.803-4.988-10.475-7.213-16.095-2.23-5.615-4.544-10.98-6.874-16.428-2.33-5.454-5.016-10.908-7.851-16.007-2.83-5.099-5.498-9.898-8.611-14.692-3.113-4.794-6.086-9.299-9.432-13.87-3.34-4.572-6.702-9.099-10.542-13.316-3.839-4.211-7.701-7.651-11.929-11.374-4.233-3.723-11.862-6.846-17.227-4.189-5.371,2.652-8.96,6.519-13.01,10.847-4.045,4.333-6.625,8.727-9.709,13.593-3.079,4.871-5.931,9.543-8.566,14.736-2.641,5.188-5.232,10.353-7.507,15.796-2.275,5.437-4.943,11.329-6.913,16.944-1.97,5.615-4.405,11.562-6.103,17.199-1.698,5.637-4.5,11.174-6.88,16.423-2.375,5.254-6.075,10.087-9.249,14.608-3.168,4.527-9.36,10.769-12.173,4.128-2.818-6.636-3.662-11.413-5.287-18.015-1.626-6.602-3.518-12.406-4.871-18.986-1.354-6.575-2.558-12.866-3.889-19.413-1.332-6.552-2.552-12.85-3.878-19.424-1.326-6.575-2.258-13.771-3.451-20.406-1.193-6.636-2.658-12.872-3.762-19.541-1.11-6.663-2.097-13.321-3.334-19.968-1.237-6.647-2.175-13.277-3.329-19.973-1.148-6.697-2.33-13.798-3.329-20.528-.999-6.73-2.402-13.266-3.323-19.979s-2.158-13.36-3.329-19.973c-1.171-6.608-2.18-13.726-3.701-20.157-1.52-6.43-2.436-12.983-4.078-19.224-1.648-6.236-2.73-12.789-4.466-18.836-1.742-6.042-3.451-12.633-5.52-18.337-2.075-5.698-3.867-11.512-6.691-16.611-2.818-5.099-3.656-12.445-6.181-17.122-2.53-4.672.083-16.306-5.981-17.321Z"/>
      <g>
        <path class="cls-11" d="M3663.068,289.409c6.619,19.272,14.445,34.837,20.844,54.573,6.393,19.742,10.094,42.291,12.415,63.582,2.321,21.291,2.123,50.912-.772,71.547-2.895,20.635-11.22,37.094-22.77,53.227-11.556,16.128-22.37,26.564-38.869,37.128-16.493,10.564-42.222,13.494-60.322,6.08-18.1-7.42-30.579-17.769-42.17-33.827-11.591-16.064-18.999-31.298-24.598-50.819-5.604-19.516-8.951-45.621-9.096-66.901s1.932-46.729,11.469-64.528,16.702-30.428,33.346-42.071c16.638-11.649,31.321-18.326,51.034-24.963,19.719-6.631,48.151-4.972,69.488-3.028ZM3649.145,265.044c-5.703,4.27-12.235,5.801-19.017,7.669-6.782,1.874-14.625,3.742-21.581,5.105-6.95,1.369-14.265,3.753-20.856,5.83-6.584,2.083-12.49,4.716-18.587,7.513-6.103,2.802-12.038,5.575-17.566,9.125-5.534,3.545-10.355,7.211-15.373,11.313-5.024,4.096-9.207,7.739-13.343,12.763-4.142,5.024-8.348,9.282-11.794,14.892-3.446,5.604-6.956,10.732-9.63,17.056-2.669,6.329-5.198,12.589-7.188,19.498-1.996,6.904-3.481,13.964-4.6,21.505-1.12,7.542-1.793,16.876-1.74,24.946s.267,17.752,1.172,25.514c.911,7.756,2.245,15.205,3.51,22.596,1.27,7.385,3.452,14.509,5.192,21.494,1.746,6.979,3.956,13.761,6.497,20.189,2.547,6.428,5.581,12.084,8.708,17.978,3.127,5.894,6.544,10.535,10.135,15.971,3.591,5.442,7.716,9.717,11.91,14.776,4.194,5.059,8.569,8.772,13.645,13.041,5.082,4.264,9.607,7.269,15.664,10.442,6.062,3.173,12.67,5.813,19.869,6.817,7.199,1.004,17.433.441,24.365-1.16,6.933-1.601,14.074-3.353,20.171-6.515,6.097-3.162,11.202-5.732,16.522-9.584,5.326-3.846,10.019-7.455,14.793-11.893,4.774-4.438,8.522-9.085,12.763-13.923,4.241-4.838,7.605-9.561,10.993-15.112,3.388-5.558,6.619-11.051,9.503-17.183,2.877-6.138,5.5-12.322,7.623-19.063,2.123-6.741,4.125-13.749,5.674-21.012,1.555-7.257,2.233-15.431,2.906-23.199.673-7.768.911-18.094.574-26.112-.336-8.017-1.433-16.551-2.448-24.238-1.021-7.681-2.599-14.671-4.061-22.045-1.462-7.373-3.626-14.074-5.488-21.198-1.862-7.124-4.305-13.134-6.579-20.107-2.28-6.967-4.96-12.595-6.764-19.922s-4.792-13.424-4.206-21.819c.592-8.389,11.585-4.136,15.768.394,4.183,4.537,10.152,7.478,14.213,12.473,4.061,4.995,9.154,7.733,13.343,12.763,4.194,5.024,14.497,8.54,10.761.841-3.73-7.698-6.584-9.746-11.051-15.635-4.467-5.883-9.433-7.896-14.515-12.171-5.082-4.276-10.796-6.561-16.331-9.775-5.54-3.208-13.326-4.687-18.477-8.209-5.152-3.521-13.117-5.703-14.184-12.502-1.073-6.793-16.157-8.383-10.895-.128"/>
        <path class="cls-7" d="M3663.068,289.409c-21.337-1.943-49.769-3.603-69.488,3.028-19.713,6.637-34.396,13.314-51.034,24.963-16.644,11.643-23.809,24.273-33.346,42.071s-11.614,43.249-11.469,64.528,3.492,47.385,9.096,66.901c5.598,19.521,13.007,34.756,24.598,50.819,11.591,16.058,24.07,26.408,42.17,33.827,18.1,7.414,43.829,4.484,60.322-6.08,16.499-10.564,27.313-21.001,38.869-37.128,11.55-16.133,19.875-32.592,22.77-53.227,2.895-20.635,3.092-50.257.772-71.547-2.321-21.291-6.022-43.84-12.415-63.582-6.399-19.736-14.225-35.301-20.844-54.573Z"/>
      </g>
      <path class="cls-9" d="M5728.484,334.758c-3.893-.217-2.512,7.975-3.273,10.862-.767,2.881-.348,9.9-.533,13.602s-1.109,8.688-1.642,12.493c-.538,3.8-1.935,7.66-2.713,11.422-.772,3.768-1.751,7.698-2.751,11.384-1,3.681-2.142,7.28-3.235,10.9-1.098,3.615-2.017,7.318-3.289,10.846-1.278,3.523-2.392,7.203-3.343,10.791s-2.512,6.529-3.512,10.079c-1,3.55-2.463,7.051-3.555,10.579-1.098,3.523-2.566,6.91-3.724,10.411-1.163,3.496-2.452,6.915-3.778,10.357-1.332,3.436-2.262,7.089-3.626,10.509-1.37,3.414-2.544,6.91-3.806,10.329-1.267,3.42-2.686,6.763-3.985,10.15-1.305,3.382-2.539,6.937-3.833,10.302-1.299,3.36-2.718,6.747-4.143,9.992-1.43,3.24-2.816,6.094-4.349,9.242-1.539,3.142-3.202,6.236-4.893,9.242-1.696,3.001-3.376,6.078-5.186,8.949-1.81,2.87-3.865,5.545-5.899,8.236-2.033,2.686-3.958,5.366-6.344,7.791-2.387,2.419-4.023,5.214-6.796,7.339-2.778,2.12-4.98,4.24-7.894,6.241-2.914,2.001-5.725,3.49-8.992,5.143-3.262,1.658-6.964,2.664-10.666,3.469-3.702.805-8.258,1.343-12.178.685-3.92-.658-9.106-.234-12.83-1.305-3.724-1.076-7.508-1.707-10.868-3.267-3.365-1.56-6.23-2.898-9.15-4.985-2.925-2.088-4.86-4.317-7.067-7.067-2.213-2.751-4.067-5.246-5.616-8.519-1.544-3.278-3.055-6.382-4.132-10.003-1.071-3.626-1.957-7.388-2.898-11.237-.941-3.849-.951-8.432-1.631-12.504-.68-4.072-.674-8.215-1.087-12.504-.413-4.289-.685-9.052-.538-13.597s-.049-9.59,0-14.135-.141-9.449.364-13.771c.506-4.322.391-9.095.843-13.292.451-4.192,1.305-8.138,2.055-12.08.756-3.936,1.49-7.78,2.756-11.379,1.272-3.594,2.316-7.013,3.811-10.324,1.49-3.316,3.083-6.257,4.893-9.242,1.81-2.979,3.539-5.29,5.518-8.073,1.979-2.784,4.012-5.29,6.263-7.872,2.251-2.577,4.366-4.844,6.796-7.339,2.43-2.501,4.811-4.496,7.339-6.796,2.528-2.3,4.871-4.512,7.611-6.524,2.74-2.006,5.203-4.202,8.155-5.98,2.952-1.772,5.534-3.887,8.791-5.344,3.262-1.452,6.247-3.159,9.71-4.425,3.458-1.267,7.095-2.55,10.873-3.262,3.778-.718,7.448-1.995,11.536-2.055s9.688-.098,13.58.555c3.887.658,7.513,1.919,11.052,3.082,3.534,1.169,6.247,3.001,9.237,4.898,2.996,1.892,5.42,3.632,7.856,6.279s4.61,4.626,6.497,7.638c1.881,3.017,3.485,5.562,5.437,8.698,1.946,3.142,3.517,4.925,6.007,8.128,2.49,3.197,7.66,3.148,6.839-1.403-.821-4.55-.908-7.399-2.479-11.112-1.571-3.713-2.881-6.225-4.632-9.503-1.745-3.284-4.045-4.942-6.524-7.611s-5.072-4.126-7.883-6.252c-2.816-2.12-5.915-3.343-8.981-5.154-3.066-1.81-5.98-3.327-9.324-4.811-3.349-1.479-6.665-2.642-10.253-3.882-3.588-1.245-7.54-2.278-11.498-2.637-3.958-.359-9.215-.902-13.086.038s-7.747.951-11.297,2.294c-3.545,1.348-7.051,2.191-10.329,3.806-3.278,1.62-6.665,2.664-9.769,4.366-3.11,1.696-5.991,3.452-8.97,5.165-2.985,1.707-5.496,3.898-8.182,5.953-2.691,2.055-5.366,3.99-7.856,6.279-2.49,2.283-4.643,4.719-7.067,7.067-2.425,2.349-4.73,4.735-6.785,7.35-2.055,2.615-4.3,5.165-6.236,7.899-1.935,2.74-3.458,5.36-5.437,8.155-1.973,2.8-3.175,6.089-5.099,9.036-1.93,2.947-3.137,6.214-4.681,9.454-1.549,3.235-2.789,6.6-4.099,10.036-1.305,3.436-2.664,6.758-3.719,10.416-1.06,3.653-2.039,7.285-3.044,11.091-1.011,3.806-1.598,7.758-2.365,11.77-.772,4.007-1.142,8.291-1.62,12.515s-.555,9.182-.544,13.591c.011,4.409-.027,8.872.544,13.048s.391,8.916,1.207,12.928c.821,4.012,1.555,7.867,2.419,11.716.87,3.849,1.832,7.573,2.936,11.199,1.109,3.621,2.354,6.975,3.806,10.329,1.452,3.349,2.707,6.611,4.436,9.699,1.729,3.088,3.137,6.154,5.176,8.959,2.039,2.805,4.099,5.078,6.524,7.611,2.43,2.533,4.632,4.637,7.339,6.796,2.702,2.158,5.328,3.436,8.437,5.154,3.11,1.718,6.17,3.382,9.791,4.344,3.621.968,7.062,2.593,10.993,3.142,3.925.549,8.389,1.403,12.504,1.631s9.726.022,13.591-.544c3.865-.571,7.432-1.734,10.748-3.387,3.322-1.653,6.083-3.131,8.987-5.148,2.903-2.012,5.659-3.653,8.399-5.736,2.745-2.082,4.811-4.447,7.339-6.796,2.523-2.354,4.24-4.567,6.524-7.067,2.283-2.506,4.154-5.214,6.252-7.883,2.104-2.669,3.871-5.545,5.708-8.427,1.832-2.887,3.751-5.67,5.426-8.709,1.669-3.039,3.365-6.051,4.893-9.242,1.528-3.191,3.208-6.225,4.599-9.536,1.397-3.305,2.637-6.741,4.012-10.123,1.381-3.376,2.207-7.29,3.343-10.791,1.142-3.496,2.419-7.116,3.512-10.623,1.093-3.512,2.294-6.665,3.447-10.145,1.158-3.474,2.169-7.144,3.621-10.514,1.452-3.371,2.12-7.231,3.561-10.574,1.441-3.343,2.561-6.964,3.806-10.329,1.24-3.365,2.778-6.839,4.056-10.079,1.283-3.235,2.495-7.127,4.094-10.041,1.604-2.909,2.588-7.328,4.355-9.78,1.767-2.452,2.626-7.6,5.485-8.639,2.865-1.038,4.496,5.975,5.273,8.503.783,2.523,2.022,7.644,2.707,10.884s1.049,8.563,2.213,11.922c1.169,3.354,2.37,7.198,3.594,10.541,1.223,3.343,2.588,6.845,4.105,10.03,1.517,3.186,3.267,6.209,4.811,9.324,1.539,3.121,3.403,5.996,5.23,8.905,1.827,2.914,3.512,5.893,5.464,8.671,1.946,2.778,4.001,5.469,5.98,8.155s4.366,5.105,6.497,7.638c2.131,2.533,4.088,4.735,6.551,7.04,2.468,2.305,4.605,4.746,7.067,7.067,2.468,2.321,5.208,4.24,7.883,6.252,2.675,2.012,5.453,4.213,8.437,5.697,2.985,1.484,6.122,3.816,9.248,4.887,3.121,1.071,7.464,4.431,10.976,3.126,3.512-1.305,2.919-7.867,1.24-10.993s-6.681-3.914-9.911-4.224c-3.224-.315-6.85-2.93-9.661-4.474-2.816-1.539-4.752-4.317-7.339-6.252-2.593-1.93-5.056-4.338-7.339-6.796-2.283-2.457-4.327-5.061-6.524-7.611-2.196-2.544-4.181-5.224-6.241-7.894-2.06-2.669-3.903-5.453-5.899-8.236-1.995-2.778-3.474-5.801-5.437-8.698-1.963-2.892-3.235-6.035-4.974-9.161-1.74-3.126-3.012-6.431-4.349-9.786-1.337-3.354-2.789-6.79-3.8-10.335-1.017-3.545-2.436-6.627-3.262-10.329-.826-3.702-2.093-7.383-2.963-11.172-.875-3.784-1.609-7.796-2.474-11.661-.864-3.86-1.664-7.758-2.419-11.716-.761-3.958-1.153-8.318-1.821-12.314-.674-3.99-1.267-8.492-1.631-12.504-.37-4.007-1.528-8.334-1.984-12.151-.457-3.816-1.56-8.389-2.354-11.781-.794-3.387-1.25-9.003-2.544-11.591-1.294-2.588-1.528-8.9-4.523-9.068"/>
      <g class="cls-14">
        <path class="cls-1" d="M7588.136,267.088c-4.945-.405-3.958,8.951-5.489,12.667-1.537,3.71-1.949,10.597-2.996,15.161-1.053,4.557-1.477,10.821-2.409,15.748s.042,12.583-.605,17.551,2.82,11.227,7.85,10.271c5.035-.95,6.5-5.144,8.54-9.012,2.034-3.873,3.643-8.267,6.052-12.104,2.403-3.837,3.704-9,4.793-13.363,1.095-4.358.92-12.825-.042-16.904-.962-4.073-2.79-9.998-5.859-12.298s-6.452-7.438-9.835-7.717"/>
        <path class="cls-2" d="M7573.006,399.632c-2.197-.545-2.651,7.795-2.421,10.289s-.66,8.939.042,12.062c.708,3.123.327,7.989.563,11.542s.454,7.789.648,11.457c.194,3.662.865,7.251,1.168,10.936s.303,7.771.648,11.457c.345,3.68.968,7.226,1.168,10.936.2,3.704.944,7.22,1.21,10.894s.865,7.251,1.21,10.894.853,7.269,1.21,10.894c.363,3.619,1.095,7.19,1.253,10.852.163,3.656,1.531,6.682,1.773,10.331s.829,7.257,1.21,10.894.89,7.208,1.21,10.894.763,7.36,1.011,11.094c.248,3.734.514,7.547.805,11.3s.006,7.801.605,11.499-.327,8.382,0,12.104-.841,7.928-.605,11.499-.847,8.292-.605,11.499-.073,9.72.133,11.971,1.767,10.252,4.146,4.412c2.385-5.84,3.087-14.477,4.194-20.62s.266-6.512.605-11.499c.339-4.987.563-7.015.605-11.499s-.666-7.347-.605-11.499-.321-7.614-.605-11.499-.448-7.571-.738-11.366-.92-7.251-1.077-11.027c-.163-3.771-.908-7.208-1.21-10.894s-.72-7.287-1.21-10.894c-.49-3.607-.805-7.281-1.223-10.882-.418-3.595-1.217-7.105-1.331-10.773s-1.604-6.724-1.683-10.422-.859-7.263-1.21-10.894-.787-7.281-1.21-10.894-.714-7.305-1.21-10.894-.593-7.347-1.21-10.894-.224-7.65-1.011-11.094c-.787-3.444-.23-7.904-.847-11.257-.623-3.347-.654-7.868-1.168-10.936s-.648-8.219-1.616-10.489c-.968-2.27-.369-8.927-2.621-9.484"/>
      </g>
      <g class="cls-14">
        <path class="cls-11" d="M9142.253,300.928c6.753,19.661,14.737,35.54,21.265,55.674,6.522,20.14,10.298,43.145,12.665,64.865,2.367,21.72,2.166,51.94-.787,72.991-2.953,21.052-11.446,37.842-23.23,54.301-11.789,16.453-22.821,27.1-39.653,37.878-16.826,10.777-43.074,13.766-61.539,6.202-18.465-7.57-31.196-18.128-43.021-34.51-11.825-16.388-19.383-31.93-25.094-51.845-5.717-19.909-9.132-46.542-9.28-68.251-.148-21.709,1.971-47.672,11.701-65.83s17.039-31.042,34.019-42.92c16.974-11.884,31.953-18.696,52.064-25.467,20.117-6.765,49.122-5.072,70.89-3.089M9128.049,276.071c-5.818,4.356-12.482,5.918-19.4,7.824-6.919,1.912-14.92,3.817-22.016,5.208-7.09,1.397-14.553,3.829-21.277,5.948-6.717,2.125-12.742,4.812-18.962,7.664-6.226,2.859-12.281,5.688-17.921,9.31-5.646,3.616-10.564,7.357-15.684,11.541-5.125,4.178-9.392,7.895-13.612,13.02-4.226,5.125-8.517,9.469-12.032,15.192-3.516,5.717-7.096,10.949-9.825,17.4-2.722,6.457-5.303,12.843-7.333,19.892-2.036,7.043-3.551,14.246-4.693,21.939-1.142,7.694-1.829,17.217-1.776,25.449.053,8.232.272,18.11,1.196,26.029.929,7.913,2.29,15.512,3.581,23.052,1.296,7.534,3.521,14.802,5.297,21.928,1.781,7.12,4.036,14.038,6.629,20.596,2.598,6.558,5.693,12.328,8.883,18.341,3.19,6.013,6.676,10.748,10.339,16.293,3.663,5.551,7.871,9.913,12.15,15.074,4.279,5.161,8.741,8.949,13.92,13.305,5.185,4.35,9.801,7.416,15.98,10.653,6.185,3.237,12.926,5.93,20.27,6.954s17.785.45,24.857-1.184c7.072-1.633,14.358-3.421,20.578-6.646,6.22-3.226,11.428-5.847,16.856-9.777,5.433-3.924,10.221-7.605,15.092-12.133,4.871-4.528,8.694-9.268,13.02-14.204,4.326-4.936,7.759-9.753,11.215-15.417,3.456-5.67,6.753-11.275,9.694-17.53,2.935-6.262,5.611-12.571,7.777-19.448,2.166-6.877,4.208-14.027,5.788-21.436,1.586-7.404,2.279-15.743,2.965-23.668.687-7.925.929-18.459.586-26.639s-1.462-16.885-2.498-24.727c-1.042-7.836-2.651-14.968-4.143-22.49-1.491-7.522-3.699-14.358-5.599-21.626-1.9-7.268-4.391-13.399-6.711-20.513-2.326-7.108-5.06-12.849-6.901-20.324s-4.889-13.695-4.291-22.259c.604-8.558,11.819-4.22,16.086.402,4.267,4.628,10.357,7.629,14.5,12.725,4.143,5.096,9.339,7.889,13.612,13.02,4.279,5.125,14.79,8.712,10.979.858-3.806-7.854-6.717-9.943-11.274-15.95-4.557-6.001-9.623-8.055-14.808-12.417-5.185-4.362-11.014-6.694-16.66-9.972-5.652-3.273-13.595-4.782-18.85-8.374-5.256-3.592-13.381-5.818-14.47-12.754-1.095-6.93-16.483-8.552-11.115-.13"/>
        <path class="cls-7" d="M9142.253,300.928c-21.768-1.983-50.774-3.675-70.89,3.089-20.111,6.771-35.09,13.583-52.064,25.467-16.98,11.878-24.289,24.762-34.019,42.92s-11.849,44.121-11.701,65.83c.148,21.709,3.563,48.341,9.28,68.251,5.711,19.915,13.269,35.457,25.094,51.845,11.825,16.382,24.555,26.94,43.021,34.51,18.465,7.564,44.713,4.575,61.539-6.202,16.832-10.777,27.864-21.425,39.653-37.878,11.783-16.459,20.276-33.249,23.23-54.301,2.953-21.052,3.155-51.271.787-72.991-2.367-21.72-6.143-44.725-12.665-64.865-6.528-20.134-14.512-36.013-21.265-55.674"/>
      </g>
      <g class="cls-14">
        <path class="cls-11" d="M8769.621,300.928c6.753,19.661,14.737,35.54,21.265,55.674,6.522,20.14,10.298,43.145,12.665,64.865,2.367,21.72,2.166,51.94-.787,72.991-2.953,21.052-11.446,37.842-23.23,54.301-11.789,16.453-22.821,27.1-39.653,37.878-16.826,10.777-43.074,13.766-61.539,6.202-18.465-7.57-31.196-18.128-43.021-34.51-11.825-16.388-19.383-31.93-25.094-51.845-5.717-19.909-9.132-46.542-9.28-68.251-.148-21.709,1.971-47.672,11.701-65.83,9.73-18.158,17.039-31.042,34.019-42.92,16.974-11.884,31.953-18.696,52.064-25.467,20.117-6.765,49.122-5.072,70.89-3.089M8755.417,276.071c-5.818,4.356-12.482,5.918-19.4,7.824-6.919,1.912-14.92,3.817-22.016,5.208-7.09,1.397-14.553,3.829-21.277,5.948-6.717,2.125-12.742,4.812-18.962,7.664-6.226,2.859-12.281,5.688-17.921,9.31-5.646,3.616-10.564,7.357-15.684,11.541-5.125,4.178-9.392,7.895-13.612,13.02-4.226,5.125-8.517,9.469-12.032,15.192-3.516,5.717-7.096,10.949-9.825,17.4-2.722,6.457-5.303,12.843-7.333,19.892-2.036,7.043-3.551,14.246-4.693,21.939s-1.829,17.217-1.776,25.449c.053,8.232.272,18.11,1.196,26.029.929,7.913,2.29,15.512,3.581,23.052,1.296,7.534,3.521,14.802,5.297,21.928,1.781,7.12,4.036,14.038,6.629,20.596,2.598,6.558,5.693,12.328,8.883,18.341,3.19,6.013,6.676,10.748,10.339,16.293,3.663,5.551,7.871,9.913,12.15,15.074,4.279,5.161,8.741,8.949,13.92,13.305,5.185,4.35,9.801,7.416,15.98,10.653,6.185,3.237,12.926,5.93,20.27,6.954,7.345,1.024,17.785.45,24.857-1.184,7.072-1.633,14.358-3.421,20.578-6.646,6.22-3.226,11.428-5.847,16.856-9.777,5.433-3.924,10.221-7.605,15.092-12.133,4.871-4.528,8.694-9.268,13.02-14.204s7.759-9.753,11.215-15.417c3.456-5.67,6.753-11.275,9.694-17.53,2.935-6.262,5.611-12.571,7.777-19.448,2.166-6.877,4.208-14.027,5.788-21.436,1.586-7.404,2.279-15.743,2.965-23.668.687-7.925.929-18.459.586-26.639-.343-8.179-1.462-16.885-2.498-24.727-1.042-7.836-2.651-14.968-4.143-22.49-1.491-7.522-3.699-14.358-5.599-21.626-1.9-7.268-4.391-13.399-6.711-20.513-2.326-7.108-5.06-12.849-6.901-20.324-1.841-7.475-4.889-13.695-4.291-22.259.604-8.558,11.819-4.22,16.086.402,4.267,4.628,10.357,7.629,14.5,12.725s9.339,7.889,13.612,13.02c4.279,5.125,14.79,8.712,10.979.858-3.806-7.854-6.717-9.943-11.274-15.95-4.557-6.001-9.623-8.055-14.808-12.417s-11.014-6.694-16.66-9.972c-5.652-3.273-13.595-4.782-18.85-8.374-5.256-3.592-13.381-5.818-14.47-12.754-1.095-6.93-16.483-8.552-11.115-.13"/>
        <path class="cls-7" d="M8769.621,300.928c-21.768-1.983-50.774-3.675-70.89,3.089-20.111,6.771-35.09,13.583-52.064,25.467-16.98,11.878-24.289,24.762-34.019,42.92-9.73,18.158-11.849,44.121-11.701,65.83.148,21.709,3.563,48.341,9.28,68.251,5.711,19.915,13.269,35.457,25.094,51.845,11.825,16.382,24.555,26.94,43.021,34.51,18.465,7.564,44.713,4.575,61.539-6.202,16.832-10.777,27.864-21.425,39.653-37.878,11.783-16.459,20.276-33.249,23.23-54.301,2.953-21.052,3.155-51.271.787-72.991-2.367-21.72-6.143-44.725-12.665-64.865-6.528-20.134-14.512-36.013-21.265-55.674"/>
      </g>
      <g class="cls-14">
        <path class="cls-11" d="M10767.125,310.049c6.434,18.733,14.041,33.863,20.261,53.047,6.214,19.19,9.812,41.109,12.068,61.804,2.256,20.695,2.064,49.488-.75,69.546-2.814,20.058-10.906,36.056-22.133,51.738-11.233,15.677-21.744,25.821-37.782,36.09-16.032,10.269-41.041,13.116-58.635,5.91-17.594-7.212-29.723-17.272-40.99-32.881-11.267-15.615-18.468-30.423-23.91-49.398-5.447-18.97-8.701-44.346-8.842-65.03s1.878-45.423,11.148-62.723c9.271-17.301,16.235-29.577,32.413-40.894,16.173-11.323,30.445-17.814,49.607-24.265,19.167-6.445,46.804-4.833,67.545-2.944M10753.591,286.365c-5.543,4.15-11.893,5.639-18.485,7.455-6.592,1.821-14.216,3.637-20.977,4.962-6.756,1.331-13.866,3.648-20.272,5.667-6.4,2.024-12.141,4.585-18.068,7.303-5.932,2.724-11.701,5.419-17.075,8.87-5.38,3.445-10.066,7.009-14.943,10.996-4.883,3.981-8.949,7.523-12.97,12.406-4.026,4.883-8.115,9.022-11.464,14.475-3.35,5.447-6.761,10.432-9.361,16.579-2.594,6.152-5.053,12.237-6.987,18.953-1.94,6.71-3.383,13.573-4.472,20.904-1.088,7.331-1.742,16.404-1.692,24.248.051,7.844.259,17.256,1.139,24.801.885,7.539,2.182,14.78,3.412,21.964,1.235,7.179,3.355,14.103,5.047,20.893,1.697,6.784,3.846,13.376,6.316,19.624,2.476,6.248,5.425,11.746,8.464,17.475,3.039,5.729,6.361,10.241,9.851,15.524,3.491,5.289,7.5,9.445,11.577,14.363,4.077,4.917,8.329,8.526,13.263,12.677,4.94,4.145,9.338,7.066,15.225,10.15,5.893,3.085,12.316,5.65,19.314,6.626s16.945.429,23.684-1.128c6.739-1.556,13.68-3.259,19.607-6.333,5.927-3.073,10.889-5.571,16.06-9.316,5.177-3.739,9.739-7.246,14.38-11.56,4.641-4.314,8.284-8.831,12.406-13.534,4.122-4.703,7.393-9.293,10.686-14.69,3.293-5.402,6.434-10.742,9.237-16.703,2.797-5.966,5.346-11.977,7.41-18.53,2.064-6.553,4.009-13.365,5.515-20.425,1.511-7.054,2.171-15,2.825-22.551.654-7.551.885-17.588.558-25.381-.327-7.793-1.393-16.088-2.38-23.56-.992-7.466-2.526-14.261-3.947-21.428-1.421-7.167-3.524-13.68-5.335-20.605-1.81-6.925-4.184-12.767-6.395-19.545-2.216-6.773-4.821-12.242-6.575-19.365-1.754-7.122-4.658-13.049-4.088-21.208.575-8.154,11.261-4.021,15.327.383,4.066,4.41,9.868,7.269,13.816,12.124s8.898,7.517,12.97,12.406c4.077,4.883,14.092,8.301,10.46.818-3.626-7.483-6.4-9.474-10.742-15.197-4.342-5.718-9.169-7.675-14.109-11.831-4.94-4.156-10.494-6.378-15.874-9.502-5.385-3.118-12.953-4.556-17.96-7.979-5.007-3.423-12.75-5.543-13.787-12.152-1.043-6.603-15.705-8.148-10.59-.124"/>
        <path class="cls-7" d="M10767.125,310.049c-20.74-1.889-48.377-3.502-67.545,2.944-19.162,6.451-33.434,12.942-49.607,24.265-16.178,11.318-23.143,23.594-32.413,40.894-9.271,17.301-11.289,42.039-11.148,62.723s3.395,46.06,8.842,65.03c5.442,18.975,12.643,33.784,23.91,49.398,11.267,15.609,23.396,25.669,40.99,32.881,17.594,7.207,42.603,4.359,58.635-5.91,16.037-10.269,26.549-20.413,37.782-36.09,11.227-15.682,19.319-31.68,22.133-51.738,2.814-20.058,3.006-48.851.75-69.546-2.256-20.695-5.853-42.614-12.068-61.804-6.22-19.184-13.827-34.314-20.261-53.047"/>
      </g>
      <g class="cls-14">
        <path class="cls-11" d="M11525.06,312.02c6.328,18.425,13.81,33.306,19.928,52.174,6.112,18.874,9.651,40.433,11.869,60.788,2.219,20.355,2.03,48.674-.738,68.403s-10.727,35.463-21.769,50.887c-11.048,15.419-21.387,25.397-37.16,35.496-15.768,10.1-40.366,12.901-57.671,5.813-17.304-7.094-29.235-16.988-40.316-32.341-11.082-15.358-18.164-29.922-23.516-48.586-5.358-18.658-8.558-43.616-8.697-63.96-.139-20.344,1.847-44.676,10.965-61.692,9.118-17.016,15.968-29.09,31.88-40.222,15.907-11.137,29.945-17.521,48.791-23.866,18.852-6.339,46.034-4.753,66.434-2.895M11511.749,288.725c-5.452,4.082-11.697,5.546-18.181,7.332-6.484,1.791-13.982,3.577-20.632,4.881-6.644,1.309-13.638,3.588-19.939,5.574-6.295,1.991-11.941,4.509-17.77,7.182-5.835,2.679-11.509,5.33-16.794,8.724-5.291,3.389-9.9,6.894-14.698,10.815-4.803,3.916-8.802,7.399-12.757,12.202-3.96,4.803-7.981,8.874-11.276,14.237-3.295,5.358-6.65,10.261-9.207,16.306-2.551,6.051-4.97,12.036-6.872,18.641-1.908,6.6-3.328,13.35-4.398,20.56s-1.714,16.134-1.664,23.849c.05,7.715.255,16.972,1.12,24.393.871,7.415,2.146,14.537,3.356,21.603,1.215,7.06,3.3,13.871,4.964,20.549,1.669,6.672,3.783,13.156,6.212,19.301,2.435,6.145,5.336,11.553,8.325,17.188,2.989,5.635,6.256,10.072,9.689,15.269,3.433,5.202,7.377,9.29,11.387,14.126,4.01,4.836,8.192,8.386,13.045,12.468,4.859,4.077,9.185,6.95,14.975,9.983,5.796,3.034,12.113,5.557,18.996,6.517,6.883.96,16.667.422,23.295-1.109,6.628-1.531,13.455-3.206,19.285-6.229,5.829-3.023,10.71-5.48,15.796-9.163,5.092-3.677,9.578-7.127,14.143-11.37,4.565-4.243,8.148-8.686,12.202-13.311,4.054-4.626,7.271-9.14,10.51-14.448,3.239-5.313,6.328-10.566,9.085-16.428,2.751-5.868,5.258-11.78,7.288-18.225,2.03-6.445,3.943-13.145,5.424-20.089,1.486-6.938,2.135-14.753,2.779-22.18.643-7.427.871-17.299.549-24.964-.322-7.665-1.37-15.824-2.341-23.173-.976-7.343-2.485-14.027-3.882-21.076-1.398-7.049-3.466-13.455-5.247-20.266-1.78-6.811-4.115-12.557-6.29-19.224-2.18-6.661-4.742-12.041-6.467-19.046-1.725-7.005-4.581-12.834-4.021-20.86.566-8.02,11.076-3.955,15.075.377,3.999,4.337,9.706,7.149,13.588,11.925s8.752,7.393,12.757,12.202c4.01,4.803,13.86,8.164,10.288.804-3.566-7.36-6.295-9.318-10.566-14.947-4.271-5.624-9.018-7.549-13.877-11.636-4.859-4.088-10.322-6.273-15.613-9.346-5.297-3.067-12.74-4.481-17.665-7.848s-12.54-5.452-13.561-11.952c-1.026-6.495-15.447-8.014-10.416-.122"/>
        <path class="cls-7" d="M11525.06,312.02c-20.399-1.858-47.582-3.444-66.434,2.895-18.846,6.345-32.884,12.729-48.791,23.866-15.912,11.131-22.762,23.206-31.88,40.222-9.118,17.016-11.104,41.348-10.965,61.692.139,20.344,3.339,45.302,8.697,63.96,5.352,18.663,12.435,33.228,23.516,48.586,11.082,15.352,23.012,25.247,40.316,32.341,17.305,7.088,41.902,4.287,57.671-5.813,15.774-10.1,26.112-20.078,37.16-35.496,11.043-15.424,19.002-31.159,21.769-50.887s2.956-48.048.738-68.403c-2.219-20.355-5.757-41.914-11.869-60.788-6.118-18.869-13.6-33.749-19.928-52.174"/>
      </g>
      <g>
        <path class="cls-11" d="M12630.152,299.2c6.634,19.314,14.477,34.912,20.889,54.691,6.407,19.785,10.116,42.383,12.442,63.72,2.326,21.337,2.128,51.022-.773,71.702-2.901,20.68-11.244,37.174-22.819,53.342-11.581,16.163-22.418,26.622-38.953,37.209-16.529,10.587-42.313,13.523-60.452,6.093-18.139-7.436-30.645-17.808-42.261-33.901-11.616-16.099-19.04-31.366-24.651-50.929-5.616-19.558-8.971-45.72-9.116-67.045-.145-21.325,1.936-46.831,11.494-64.668,9.558-17.837,16.738-30.494,33.418-42.162,16.674-11.674,31.389-18.366,51.145-25.017,19.761-6.645,48.255-4.982,69.638-3.035M12616.199,274.781c-5.715,4.279-12.261,5.814-19.058,7.686-6.796,1.878-14.657,3.75-21.628,5.116-6.965,1.372-14.296,3.762-20.901,5.843-6.599,2.087-12.517,4.727-18.628,7.529-6.116,2.808-12.064,5.587-17.604,9.145-5.546,3.552-10.378,7.227-15.407,11.337-5.035,4.105-9.227,7.756-13.372,12.79-4.151,5.035-8.366,9.302-11.82,14.924-3.453,5.616-6.971,10.756-9.651,17.093-2.674,6.343-5.209,12.616-7.203,19.54-2,6.918-3.488,13.994-4.61,21.552-1.122,7.558-1.796,16.913-1.744,25,.052,8.087.267,17.79,1.174,25.569.913,7.773,2.25,15.238,3.517,22.645,1.273,7.401,3.459,14.54,5.203,21.54,1.75,6.994,3.965,13.79,6.512,20.232,2.552,6.442,5.593,12.11,8.727,18.017,3.134,5.907,6.558,10.558,10.157,16.006,3.599,5.453,7.732,9.738,11.936,14.808,4.203,5.07,8.587,8.791,13.674,13.07,5.093,4.273,9.628,7.285,15.697,10.465,6.075,3.18,12.697,5.825,19.912,6.831,7.215,1.006,17.471.442,24.418-1.163,6.948-1.605,14.104-3.36,20.215-6.529,6.11-3.169,11.227-5.744,16.558-9.604,5.337-3.855,10.041-7.471,14.825-11.918,4.785-4.448,8.541-9.105,12.79-13.953,4.25-4.849,7.622-9.581,11.017-15.145,3.395-5.57,6.634-11.075,9.523-17.221,2.884-6.151,5.512-12.349,7.639-19.104,2.128-6.756,4.134-13.779,5.686-21.058,1.558-7.273,2.238-15.465,2.913-23.25.674-7.785.913-18.133.576-26.168-.337-8.035-1.436-16.587-2.453-24.29-1.023-7.698-2.605-14.703-4.07-22.093-1.465-7.389-3.634-14.104-5.5-21.244-1.866-7.139-4.314-13.163-6.593-20.151-2.285-6.982-4.971-12.622-6.779-19.965-1.808-7.343-4.802-13.453-4.215-21.866.593-8.407,11.61-4.145,15.802.395,4.192,4.546,10.174,7.494,14.244,12.5s9.174,7.75,13.372,12.79c4.203,5.035,14.529,8.558,10.785.843-3.738-7.715-6.599-9.767-11.075-15.668-4.477-5.895-9.453-7.913-14.546-12.197s-10.82-6.575-16.366-9.796c-5.552-3.215-13.354-4.698-18.517-8.227-5.163-3.529-13.145-5.715-14.215-12.529-1.076-6.808-16.192-8.401-10.918-.128"/>
        <path class="cls-7" d="M12630.152,299.2c-21.383-1.948-49.877-3.61-69.638,3.035-19.755,6.651-34.47,13.343-51.145,25.017-16.68,11.668-23.86,24.325-33.418,42.162-9.558,17.837-11.639,43.342-11.494,64.668.145,21.325,3.5,47.488,9.116,67.045,5.61,19.564,13.035,34.831,24.651,50.929,11.616,16.093,24.122,26.465,42.261,33.901,18.139,7.43,43.924,4.494,60.452-6.093,16.535-10.587,27.372-21.046,38.953-37.209,11.575-16.168,19.918-32.662,22.819-53.342,2.901-20.68,3.099-50.365.773-71.702-2.326-21.337-6.035-43.935-12.442-63.72-6.413-19.779-14.256-35.377-20.889-54.691"/>
      </g>
    </g>
  </g>
</svg>