<?xml version="1.0" encoding="UTF-8"?>
<!DOCTYPE svg PUBLIC "-//W3C//DTD SVG 1.1//EN" "http://www.w3.org/Graphics/SVG/1.1/DTD/svg11.dtd">
<svg xmlns="http://www.w3.org/2000/svg" version="1.1" width="500px" height="500px" style="shape-rendering:geometricPrecision; text-rendering:geometricPrecision; image-rendering:optimizeQuality; fill-rule:evenodd; clip-rule:evenodd" xmlns:xlink="http://www.w3.org/1999/xlink">
<g><path style="opacity:0.619" fill="#fefffe" d="M 59.5,217.5 C 63.1817,217.335 66.8484,217.501 70.5,218C 72.4439,220.153 72.9439,222.653 72,225.5C 69.0812,219.975 64.5812,218.142 58.5,220C 52.8577,225.432 52.0244,231.599 56,238.5C 60.0093,242.417 64.3426,243.084 69,240.5C 70.544,236.188 69.044,234.022 64.5,234C 68.1012,232.068 71.7678,232.068 75.5,234C 73.6556,236.804 72.9889,239.97 73.5,243.5C 66.9703,245.304 60.637,244.804 54.5,242C 49.7409,237.509 48.2409,232.009 50,225.5C 52.1608,221.495 55.3275,218.829 59.5,217.5 Z"/></g>
<g><path style="opacity:0.648" fill="#fefffe" d="M 81.5,217.5 C 87.8979,217.243 94.2312,217.743 100.5,219C 104.53,221.287 105.364,224.454 103,228.5C 101.649,230.019 100.149,231.352 98.5,232.5C 101.027,237.194 104.694,240.694 109.5,243C 106.833,243.667 104.167,243.667 101.5,243C 98.8333,239.667 96.1667,236.333 93.5,233C 91.8659,232.506 90.1992,232.34 88.5,232.5C 88.3354,235.518 88.502,238.518 89,241.5C 90.0674,242.191 91.2341,242.691 92.5,243C 88.8333,243.667 85.1667,243.667 81.5,243C 82.0253,242.308 82.6919,241.808 83.5,241.5C 84.4973,234.197 84.8306,226.863 84.5,219.5C 82.8212,219.715 81.8212,219.048 81.5,217.5 Z M 89.5,219.5 C 92.6074,219.351 95.6074,219.851 98.5,221C 101.353,224.096 101.02,226.763 97.5,229C 94.5184,229.498 91.5184,229.665 88.5,229.5C 88.2529,226.061 88.5863,222.728 89.5,219.5 Z"/></g>
<g><path style="opacity:0.63" fill="#fefffe" d="M 127.5,217.5 C 128.496,217.414 129.329,217.748 130,218.5C 133.344,227.358 137.844,235.525 143.5,243C 140.5,243.667 137.5,243.667 134.5,243C 136.09,237.358 133.923,234.525 128,234.5C 126.167,234.833 124.333,235.167 122.5,235.5C 119.838,238.559 120.171,241.059 123.5,243C 120.5,243.667 117.5,243.667 114.5,243C 115.5,242.167 116.5,241.333 117.5,240.5C 121.121,232.929 124.454,225.262 127.5,217.5 Z M 127.5,224.5 C 129.059,226.608 130.392,228.941 131.5,231.5C 129.257,232.474 126.924,232.808 124.5,232.5C 124.94,229.62 125.94,226.954 127.5,224.5 Z"/></g>
<g><path style="opacity:0.586" fill="#fefffe" d="M 157.5,217.5 C 161.637,217.146 165.637,217.646 169.5,219C 170.591,221.064 170.758,223.231 170,225.5C 166.608,219.533 161.774,218.033 155.5,221C 151.204,225.515 150.37,230.681 153,236.5C 158.802,244.408 164.469,244.408 170,236.5C 170.758,238.769 170.591,240.936 169.5,243C 153.776,247.258 146.609,241.425 148,225.5C 150.161,221.495 153.328,218.829 157.5,217.5 Z"/></g>
<g><path style="opacity:0.643" fill="#fefffe" d="M 185.5,217.5 C 190.167,217.5 194.833,217.5 199.5,217.5C 199.663,219.857 199.497,222.19 199,224.5C 196.103,219.845 191.937,218.345 186.5,220C 185.549,223.057 185.216,226.223 185.5,229.5C 189.244,230.027 192.411,229.027 195,226.5C 196.713,229.015 196.88,231.682 195.5,234.5C 194.713,233.758 194.047,232.925 193.5,232C 190.854,231.503 188.187,231.336 185.5,231.5C 185.5,234.833 185.5,238.167 185.5,241.5C 189.182,241.665 192.848,241.499 196.5,241C 197.701,240.097 198.535,238.931 199,237.5C 199.495,239.473 199.662,241.473 199.5,243.5C 192.825,243.666 186.158,243.5 179.5,243C 180,242.5 180.5,242 181,241.5C 181.667,234.5 181.667,227.5 181,220.5C 180.5,220 180,219.5 179.5,219C 181.708,218.809 183.708,218.309 185.5,217.5 Z"/></g>
<g><path style="opacity:0.657" fill="#fefffe" d="M 230.5,217.5 C 232.564,217.687 234.564,218.187 236.5,219C 235.552,219.483 234.552,219.649 233.5,219.5C 233.334,226.508 233.5,233.508 234,240.5C 237.744,241.626 241.577,241.793 245.5,241C 249.084,235.065 250.418,235.898 249.5,243.5C 242.159,243.666 234.826,243.5 227.5,243C 228,242.5 228.5,242 229,241.5C 229.167,237.833 229.333,234.167 229.5,230.5C 229.458,226.405 228.792,222.571 227.5,219C 228.737,218.768 229.737,218.268 230.5,217.5 Z"/></g>
<g><path style="opacity:0.644" fill="#fefffe" d="M 262.5,217.5 C 267.537,217.413 272.537,217.746 277.5,218.5C 277.785,220.288 277.452,221.955 276.5,223.5C 273.367,219.76 269.367,218.593 264.5,220C 263.549,223.057 263.216,226.223 263.5,229.5C 267.164,229.797 270.33,228.797 273,226.5C 273.667,228.833 273.667,231.167 273,233.5C 270.174,231.66 267.007,230.994 263.5,231.5C 263.5,234.833 263.5,238.167 263.5,241.5C 267.182,241.665 270.848,241.499 274.5,241C 275.46,239.581 276.293,238.081 277,236.5C 277.692,237.025 278.192,237.692 278.5,238.5C 277.691,240.071 277.357,241.738 277.5,243.5C 270.825,243.666 264.158,243.5 257.5,243C 258,242.5 258.5,242 259,241.5C 259.667,234.5 259.667,227.5 259,220.5C 258.5,220 258,219.5 257.5,219C 259.382,218.802 261.048,218.302 262.5,217.5 Z"/></g>
<g><path style="opacity:0.648" fill="#fefffe" d="M 295.5,217.5 C 308.819,216.319 314.319,222.319 312,235.5C 309.285,241.029 304.785,244.029 298.5,244.5C 286.526,242.129 282.693,235.129 287,223.5C 289.322,220.605 292.155,218.605 295.5,217.5 Z M 295.5,219.5 C 307.32,220.69 311.154,227.024 307,238.5C 302.973,243.061 298.473,243.561 293.5,240C 287.573,232.277 288.24,225.444 295.5,219.5 Z"/></g>
<g><path style="opacity:0.595" fill="#fefffe" d="M 318.5,217.5 C 320.857,217.337 323.19,217.503 325.5,218C 330.667,224.5 335.833,231 341,237.5C 341.667,233.167 341.667,228.833 341,224.5C 340.879,222.273 340.046,220.44 338.5,219C 341.015,217.287 343.682,217.12 346.5,218.5C 345.758,219.287 344.925,219.953 344,220.5C 343.832,228.521 343.332,236.521 342.5,244.5C 336.441,238.061 330.608,231.395 325,224.5C 324.333,230.167 324.333,235.833 325,241.5C 325.5,242 326,242.5 326.5,243C 323.833,243.667 321.167,243.667 318.5,243C 319.416,242.626 320.25,242.126 321,241.5C 322.457,234.539 322.457,227.539 321,220.5C 319.583,219.922 318.75,218.922 318.5,217.5 Z"/></g>
<g><path style="opacity:0.621" fill="#fefffe" d="M 364.5,217.5 C 365.376,217.369 366.043,217.702 366.5,218.5C 370.297,227.272 374.964,235.439 380.5,243C 377.167,243.667 373.833,243.667 370.5,243C 371.357,242.311 372.023,241.478 372.5,240.5C 371.253,238.677 370.586,236.677 370.5,234.5C 366.774,234.177 363.107,234.511 359.5,235.5C 356.332,239.211 356.999,241.711 361.5,243C 358.167,243.667 354.833,243.667 351.5,243C 352.667,241.833 353.833,240.667 355,239.5C 358.454,232.262 361.621,224.928 364.5,217.5 Z M 363.5,224.5 C 365.858,226.168 367.524,228.501 368.5,231.5C 366.257,232.474 363.924,232.808 361.5,232.5C 361.963,229.779 362.629,227.112 363.5,224.5 Z"/></g>
<g><path style="opacity:0.662" fill="#fefffe" d="M 386.5,217.5 C 393.222,217.29 399.888,217.79 406.5,219C 410.842,224.51 409.842,229.01 403.5,232.5C 405.841,236.841 409.174,240.174 413.5,242.5C 411.235,243.647 408.902,243.814 406.5,243C 403.593,239.849 400.926,236.516 398.5,233C 396.899,232.727 395.399,232.227 394,231.5C 393.176,234.882 393.343,238.216 394.5,241.5C 395.5,242 396.5,242.5 397.5,243C 393.5,243.667 389.5,243.667 385.5,243C 387,242.167 388.167,241 389,239.5C 389.667,233.167 389.667,226.833 389,220.5C 387.583,219.922 386.75,218.922 386.5,217.5 Z M 394.5,219.5 C 399.465,218.696 403.131,220.362 405.5,224.5C 404.872,226.258 403.872,227.758 402.5,229C 399.518,229.498 396.518,229.665 393.5,229.5C 393.253,226.061 393.586,222.728 394.5,219.5 Z"/></g>
<g><path style="opacity:0.678" fill="#fefffe" d="M 419.5,217.5 C 425.871,217.488 432.204,217.988 438.5,219C 445.155,223.64 446.989,229.806 444,237.5C 442.52,240.663 440.02,242.496 436.5,243C 431.167,243.667 425.833,243.667 420.5,243C 421.333,242.167 422.167,241.333 423,240.5C 423.667,234.167 423.667,227.833 423,221.5C 421.612,220.264 420.446,218.931 419.5,217.5 Z M 428.5,219.5 C 436.225,219.229 440.558,222.895 441.5,230.5C 440.703,238.915 436.036,242.581 427.5,241.5C 427.203,234.08 427.536,226.746 428.5,219.5 Z"/></g>
</svg>
