<svg xmlns="http://www.w3.org/2000/svg" xmlns:xlink="http://www.w3.org/1999/xlink" width="940" zoomAndPan="magnify" viewBox="0 0 705 591.000005" height="788" preserveAspectRatio="xMidYMid meet" version="1.0"><path stroke-width="25"   stroke="#deb968"  fill="#deb968" d="M 412.195312 162.46875 C 412.195312 190.585938 390.097656 263.226562 348.289062 372.527344 C 321.835938 441.691406 283.808594 481.207031 244.703125 480.179688 C 182.957031 478.566406 162.847656 446.859375 162.875 351.191406 C 162.894531 273.886719 174.476562 244.453125 221.648438 201.839844 C 275.140625 153.507812 340.46875 154.183594 368.460938 203.355469 C 382.652344 228.3125 394.214844 231.757812 387.226562 208.960938 C 380.195312 186.019531 370.75 176.238281 340.953125 161.039062 C 308.949219 144.707031 288.738281 144.039062 254.863281 158.199219 C 165.921875 195.363281 116.855469 315.347656 148.910156 417.277344 C 164.019531 465.304688 189.433594 488.996094 232.832031 495.507812 C 258.179688 499.308594 268.847656 497.269531 289.085938 484.761719 C 320.789062 465.171875 350.535156 421.730469 366.128906 372.261719 C 389.699219 297.464844 413.503906 238.789062 418.925781 242.140625 C 421.929688 244 426.335938 257.445312 428.695312 272.019531 C 436.949219 322.863281 483.101562 389.027344 525.980469 411.488281 C 549.8125 423.976562 552.671875 423.90625 552.671875 410.890625 C 552.671875 405.097656 546.988281 400.355469 540.046875 400.355469 C 520.71875 400.355469 478.105469 352.1875 458.875 308.621094 C 448.691406 285.53125 438.132812 241.71875 433.078125 201.507812 C 424.375 132.378906 412.195312 109.617188 412.195312 162.46875 " fill-opacity="1" fill-rule="evenodd"/></svg>