<svg xmlns="http://www.w3.org/2000/svg" xmlns:xlink="http://www.w3.org/1999/xlink" width="940" zoomAndPan="magnify" viewBox="0 0 705 591.000005" height="788" preserveAspectRatio="xMidYMid meet" version="1.0"><path stroke-width="25"   stroke="#deb968"  fill="#deb968" d="M 317.816406 56.484375 C 310.878906 74.730469 319.546875 96.351562 332.800781 93.835938 C 343.855469 91.742188 347.679688 68.285156 339.464844 52.9375 C 331.582031 38.203125 324.3125 39.394531 317.816406 56.484375 M 332.359375 144.339844 C 330.359375 149.5625 331.78125 151.289062 336.570312 149.457031 C 340.652344 147.886719 347.664062 152.554688 352.628906 160.132812 C 364.867188 178.804688 381.730469 312.230469 382.996094 400.359375 C 383.925781 465.441406 382.96875 473.605469 371.667969 496.636719 C 356.039062 528.492188 330.035156 548.910156 305.097656 548.910156 C 267.421875 548.910156 244.789062 518.347656 242.871094 464.898438 C 241.683594 431.984375 233.960938 427.386719 234.003906 459.621094 C 234.078125 515.914062 262.949219 558.394531 301.148438 558.394531 C 328.460938 558.394531 353.15625 541.402344 373.40625 508.691406 C 388.257812 484.691406 389.496094 478.8125 391.105469 424.503906 C 393.292969 350.78125 375.125 185.867188 361.816406 158.660156 C 351.898438 138.367188 337.359375 131.300781 332.359375 144.339844 " fill-opacity="1" fill-rule="evenodd"/></svg>