<svg xmlns="http://www.w3.org/2000/svg" xmlns:xlink="http://www.w3.org/1999/xlink" width="940" zoomAndPan="magnify" viewBox="0 0 705 591.000005" height="788" preserveAspectRatio="xMidYMid meet" version="1.0"><path stroke-width="25"   stroke="#deb968"  fill="#deb968" d="M 234.710938 84.46875 C 232.992188 94.871094 231.511719 169.183594 231.429688 249.617188 C 231.34375 330.046875 229.234375 410.605469 226.742188 428.632812 C 219.683594 479.683594 218.246094 534.117188 223.910156 535.667969 C 229.148438 537.105469 233.007812 497.671875 239.324219 378.207031 C 241.304688 340.761719 245.359375 307.054688 248.339844 303.296875 C 251.320312 299.539062 266.808594 287.601562 282.753906 276.773438 L 311.742188 257.085938 L 316.226562 276.046875 C 318.695312 286.46875 323.386719 306.347656 326.660156 320.214844 C 341.414062 382.800781 367.332031 458.886719 373.898438 458.886719 C 380.148438 458.886719 378.234375 441.320312 370.242188 425.300781 C 357.550781 399.847656 333.007812 314.589844 328.332031 279.679688 L 323.886719 246.484375 L 372.539062 207.347656 C 426.730469 163.757812 470.25 134.003906 487.390625 128.824219 C 499.773438 125.078125 502.921875 115.984375 491.839844 115.984375 C 481.285156 115.984375 410.984375 164.324219 352.257812 211.96875 C 305.609375 249.8125 268.140625 277.589844 247.4375 289.675781 C 241.886719 292.914062 241.003906 273.589844 242.394531 179.574219 C 243.996094 71.261719 241.664062 42.398438 234.710938 84.46875 " fill-opacity="1" fill-rule="evenodd"/></svg>