<svg xmlns="http://www.w3.org/2000/svg" xmlns:xlink="http://www.w3.org/1999/xlink" width="940" zoomAndPan="magnify" viewBox="0 0 705 591.000005" height="788" preserveAspectRatio="xMidYMid meet" version="1.0"><path stroke-width="25"   stroke="#deb968"  fill="#deb968" d="M 186.929688 137.761719 C 191.363281 218.636719 190.160156 237.566406 176.042969 308.914062 C 169.105469 343.992188 168 372.25 170.835938 442.0625 C 174.292969 527.085938 176.671875 545.054688 182.257812 528.179688 C 192.351562 497.644531 201.960938 109.367188 193.453125 75.488281 C 185.335938 43.132812 182.972656 65.636719 186.929688 137.761719 M 221.863281 168.296875 C 211.054688 177.203125 202.214844 187.304688 202.214844 190.742188 C 202.214844 194.183594 210.476562 188.992188 220.574219 179.207031 C 262.714844 138.363281 316.480469 169.238281 344.660156 250.472656 C 353.003906 274.519531 355.09375 294.8125 354.394531 345.09375 C 353.855469 384.21875 355.265625 403.695312 358.015625 395.1875 C 360.492188 387.535156 362.824219 358.730469 363.195312 331.179688 C 363.902344 278.792969 372.765625 249.488281 397.394531 218.078125 C 432.125 173.789062 482.644531 183.6875 504.824219 239.117188 C 524.394531 288.019531 521.394531 420.765625 499.742188 464.167969 C 490.480469 482.730469 489.578125 489.8125 496.480469 489.8125 C 503.6875 489.8125 518.988281 430.40625 525.367188 377.644531 C 529.753906 341.367188 529.1875 320.984375 522.796875 284.671875 C 509.78125 210.730469 481.65625 178.605469 436.289062 185.839844 C 412.875 189.574219 397.039062 204.859375 375.363281 244.628906 L 358.832031 274.957031 L 354.871094 258.542969 C 341.828125 204.519531 305.027344 161.738281 266.585938 155.90625 C 244.207031 152.511719 239.402344 153.839844 221.863281 168.296875 M 182.941406 296.390625 C 176.710938 316.511719 173.070312 460.445312 179.035156 450.847656 C 183.246094 444.074219 191.789062 283.867188 187.9375 283.867188 C 187.320312 283.867188 185.074219 289.507812 182.941406 296.390625 " fill-opacity="1" fill-rule="evenodd"/></svg>