<svg xmlns="http://www.w3.org/2000/svg" xmlns:xlink="http://www.w3.org/1999/xlink" width="940" zoomAndPan="magnify" viewBox="0 0 705 591.000005" height="788" preserveAspectRatio="xMidYMid meet" version="1.0"><path stroke-width="25"   stroke="#deb968"  fill="#deb968" d="M 335.085938 99.34375 C 319.15625 105.78125 297.207031 134.273438 283.015625 166.941406 L 273.460938 188.933594 L 272.738281 165.734375 C 272.34375 152.972656 269.253906 136.566406 265.878906 129.273438 C 261.847656 120.5625 261.039062 134.210938 263.53125 169.046875 C 266.410156 209.367188 263.9375 237.972656 253.203125 288.371094 C 237.605469 361.636719 227.648438 518.488281 239.335938 506.886719 C 254.074219 492.25 272.738281 375.304688 272.839844 296.910156 C 272.925781 234.710938 275.683594 211.9375 286.722656 182.453125 C 314.675781 107.722656 349.910156 87.710938 385.832031 126.164062 C 419.632812 162.347656 428.730469 203.070312 428.730469 318.203125 C 428.730469 381.617188 425.6875 429.199219 420.789062 442.496094 C 416.417969 454.34375 415.351562 464.042969 418.421875 464.042969 C 427.792969 464.042969 432.210938 444.796875 439.59375 371.746094 C 449.824219 270.492188 436.425781 185.476562 402.039062 133.511719 C 388.761719 113.457031 359.367188 90.472656 350.527344 93.230469 C 349.785156 93.464844 342.835938 96.214844 335.085938 99.34375 M 253.941406 333.117188 C 242.785156 418.898438 238.210938 470.671875 241.78125 470.671875 C 246.734375 470.671875 258.832031 394.867188 263.746094 333.117188 C 266.132812 303.035156 266.503906 278.429688 264.574219 278.429688 C 262.636719 278.429688 257.859375 303.035156 253.941406 333.117188 " fill-opacity="1" fill-rule="evenodd"/></svg>