<svg xmlns="http://www.w3.org/2000/svg" xmlns:xlink="http://www.w3.org/1999/xlink" width="940" zoomAndPan="magnify" viewBox="0 0 705 591.000005" height="788" preserveAspectRatio="xMidYMid meet" version="1.0"><path stroke-width="25"   stroke="#deb968"  fill="#deb968" d="M 404.105469 64.945312 C 407.375 68.21875 387.121094 75.574219 359.097656 81.289062 C 221.789062 109.296875 166.914062 215.109375 211.019531 366.800781 C 227.148438 422.320312 272.191406 475.285156 311.695312 485.195312 C 374.292969 500.90625 448.589844 442.101562 473.226562 357.347656 C 490.175781 299.054688 484.640625 233.011719 456.25 154.8125 C 433.628906 92.464844 443.542969 83.421875 486.929688 126.8125 C 516.953125 156.84375 526.6875 155.375 502.390625 124.484375 C 493.132812 112.726562 470.328125 97.007812 451.699219 89.550781 C 433.074219 82.089844 417.828125 72.179688 417.828125 67.5 C 417.828125 62.832031 413.402344 59.003906 407.992188 59.003906 C 402.589844 59.003906 400.835938 61.675781 404.105469 64.945312 M 308.410156 110.023438 C 260.332031 132.085938 243.164062 147.839844 221.992188 189.324219 C 199.605469 233.179688 204.765625 334.84375 232.25 391.625 C 273.886719 477.628906 346.496094 498.320312 408.882812 441.957031 C 427.164062 425.4375 448.515625 395.191406 456.328125 374.734375 C 476.269531 322.535156 469.6875 215.488281 442.363281 147.503906 L 422.03125 96.933594 L 384.113281 94.808594 C 359.796875 93.445312 332.625 98.90625 308.410156 110.023438 " fill-opacity="1" fill-rule="evenodd"/></svg>