<svg xmlns="http://www.w3.org/2000/svg" xmlns:xlink="http://www.w3.org/1999/xlink" width="940" zoomAndPan="magnify" viewBox="0 0 705 591.000005" height="788" preserveAspectRatio="xMidYMid meet" version="1.0"><path stroke-width="25"   stroke="#deb968"  fill="#deb968" d="M 243.898438 78.007812 C 219.515625 87.808594 227.386719 90.773438 266.824219 86.65625 C 330.414062 80.003906 395.832031 117.9375 419.769531 175.335938 C 434.304688 210.191406 439.628906 273.164062 429.183594 286.742188 C 417.789062 301.550781 338.679688 317.691406 277.515625 317.691406 C 251.003906 317.691406 229.3125 316.960938 229.3125 316.058594 C 229.3125 315.15625 234.847656 285.257812 241.609375 249.605469 C 257.390625 166.464844 261.371094 97.230469 250.382812 97.277344 C 247.703125 97.289062 244.941406 115.519531 244.230469 137.796875 C 242.789062 183.121094 219.085938 302.910156 189.585938 413.945312 C 178.835938 454.402344 171.957031 489.414062 174.300781 491.746094 C 179.332031 496.757812 203.421875 468.691406 203.28125 457.988281 C 203.222656 453.871094 200.101562 454.910156 196.234375 460.328125 C 188.441406 471.238281 188.367188 471.601562 210.523438 385.03125 L 223.980469 332.417969 L 296.34375 328.84375 C 379.539062 324.734375 433.066406 310.8125 443.964844 290.457031 C 454.902344 270.015625 445.96875 203.492188 427.09375 164.867188 C 394.015625 97.171875 303.265625 54.140625 243.898438 78.007812 " fill-opacity="1" fill-rule="evenodd"/></svg>