<svg xmlns="http://www.w3.org/2000/svg" xmlns:xlink="http://www.w3.org/1999/xlink" width="940" zoomAndPan="magnify" viewBox="0 0 705 591.000005" height="788" preserveAspectRatio="xMidYMid meet" version="1.0"><path stroke-width="25"   stroke="#deb968"  fill="#deb968" d="M 274.210938 63.453125 C 249.117188 72.394531 212.136719 108.414062 203.875 131.964844 C 200.234375 142.359375 197.503906 175.289062 197.449219 209.425781 C 197.359375 275.53125 201.261719 285.648438 235.984375 309.398438 C 257.140625 323.875 279.507812 321.792969 304.050781 303.074219 C 324.253906 287.660156 347.070312 250.179688 351.007812 225.929688 C 352.585938 216.191406 354.640625 208.976562 355.566406 209.910156 C 356.492188 210.835938 360.957031 242.375 365.488281 279.996094 C 375.371094 362.023438 375.21875 452.097656 365.121094 500.519531 C 361.0625 519.984375 358.546875 536.710938 359.527344 537.691406 C 363.953125 542.113281 455.28125 491.167969 476.648438 472.367188 C 507.65625 445.070312 502.859375 440.347656 471.046875 466.859375 C 457.597656 478.0625 430.03125 495.488281 409.792969 505.578125 L 372.996094 523.929688 L 376.734375 492.117188 C 382.699219 441.34375 381.078125 338.472656 373.226562 269.570312 C 365.308594 200.117188 365.234375 195.699219 370.542969 115.710938 C 373.164062 76.289062 372.574219 61.035156 368.421875 61.035156 C 365.257812 61.035156 362.671875 66.707031 362.671875 73.640625 L 362.671875 86.242188 L 338.785156 71.097656 C 312.230469 54.257812 303.0625 53.167969 274.210938 63.453125 M 280.304688 72.171875 C 251.785156 79.757812 217.832031 118.683594 210.691406 151.972656 C 202.472656 190.316406 203.484375 252.144531 212.652344 271.34375 C 221.894531 290.699219 249.140625 310.257812 266.867188 310.257812 C 310.78125 310.257812 348.011719 243.191406 357.21875 147.5 C 361.464844 103.390625 359.019531 96.351562 333.390625 78.933594 C 313.042969 65.109375 308.859375 64.578125 280.304688 72.171875 " fill-opacity="1" fill-rule="evenodd"/></svg>