<svg xmlns="http://www.w3.org/2000/svg" xmlns:xlink="http://www.w3.org/1999/xlink" width="940" zoomAndPan="magnify" viewBox="0 0 705 591.000005" height="788" preserveAspectRatio="xMidYMid meet" version="1.0"><path stroke-width="25"   stroke="#deb968"  fill="#deb968" d="M 256.335938 68.605469 C 259.128906 85.585938 263.589844 133.394531 266.25 174.859375 C 270.765625 245.054688 269.894531 253.550781 253.652344 298.347656 C 238.328125 340.609375 236.1875 357.453125 236.035156 437.003906 C 235.832031 548.453125 245.359375 567.230469 262.503906 489.1875 C 268.945312 459.871094 277.453125 395.691406 281.410156 346.578125 C 285.363281 297.457031 289.84375 250.621094 291.359375 242.496094 C 297.945312 207.1875 411.738281 122.253906 447.859375 125.691406 C 454.96875 126.363281 462.152344 123.0625 463.816406 118.34375 C 474.203125 88.882812 368.882812 138.398438 319.117188 186.371094 C 300.195312 204.605469 283.75 219.535156 282.585938 219.535156 C 281.417969 219.535156 280.238281 198.695312 279.964844 173.226562 C 279.277344 109.824219 270.949219 56.242188 260.210938 46.144531 C 252.898438 39.269531 252.191406 43.367188 256.335938 68.605469 M 259.589844 320.082031 C 255.109375 334.585938 250.394531 378.871094 249.125 418.488281 C 247.238281 477.148438 248.027344 484.789062 253.359375 459.652344 C 260.679688 425.125 273.398438 299.742188 269.960938 296.070312 C 268.738281 294.773438 264.074219 305.578125 259.589844 320.082031 " fill-opacity="1" fill-rule="evenodd"/></svg>