<svg xmlns="http://www.w3.org/2000/svg" xmlns:xlink="http://www.w3.org/1999/xlink" width="940" zoomAndPan="magnify" viewBox="0 0 705 591.000005" height="788" preserveAspectRatio="xMidYMid meet" version="1.0"><path stroke-width="25"   stroke="#deb968"  fill="#deb968" d="M 380.929688 52.398438 C 334.035156 64.378906 293.234375 86.152344 268.085938 112.621094 C 251.679688 129.902344 248.621094 137.992188 252.566406 153.722656 C 260.273438 184.410156 292.574219 219.757812 362.191406 273.675781 C 409.582031 310.375 430.503906 331.828125 441.925781 355.421875 C 463.109375 399.160156 462.5625 439.164062 440.539062 457.121094 C 425.492188 469.390625 416.195312 470.46875 358.097656 466.710938 C 300.753906 462.992188 282.90625 458.457031 231.65625 434.609375 C 227.746094 432.789062 229.34375 437.117188 235.207031 444.21875 C 253.148438 465.964844 291.726562 477.402344 359.148438 480.984375 C 414.835938 483.941406 426.59375 482.492188 445.777344 470.320312 C 472.925781 453.113281 479.1875 422.84375 465.304688 375.949219 C 452.859375 333.917969 436.4375 313.496094 382.230469 272.632812 C 315.875 222.609375 271.867188 177.636719 266.828125 154.695312 C 260.882812 127.640625 276.53125 110.339844 329.949219 84.890625 C 381.113281 60.523438 429.777344 53.210938 469.535156 63.914062 C 501.898438 72.625 514.765625 69.53125 493.496094 58.152344 C 470.386719 45.78125 417.445312 43.082031 380.929688 52.398438 " fill-opacity="1" fill-rule="evenodd"/></svg>