<svg xmlns="http://www.w3.org/2000/svg" xmlns:xlink="http://www.w3.org/1999/xlink" width="940" zoomAndPan="magnify" viewBox="0 0 705 591.000005" height="788" preserveAspectRatio="xMidYMid meet" version="1.0"><path stroke-width="25"   stroke="#deb968"  fill="#deb968" d="M 278.761719 62.660156 C 286.347656 112.386719 287.464844 139.371094 287.988281 284.882812 C 288.410156 403.679688 286.933594 444.421875 281.90625 452.472656 C 268.503906 473.933594 291.777344 513.570312 328.898438 532.507812 C 370.769531 553.867188 430.605469 549.640625 447.382812 524.128906 C 453.898438 514.21875 452.796875 509.539062 436.652344 478.570312 C 414.519531 436.105469 385.929688 400.582031 361.976562 385.773438 C 345.988281 375.898438 342.339844 375.40625 330.769531 381.597656 C 323.5625 385.457031 314.28125 395.15625 310.144531 403.15625 C 306.011719 411.15625 302.101562 417.6875 301.453125 417.679688 C 300.8125 417.671875 299.59375 351.292969 298.75 270.183594 C 297.191406 120.65625 292.59375 60.59375 281.890625 50.15625 C 277.503906 45.875 276.695312 49.109375 278.761719 62.660156 M 320.613281 404.910156 C 312.835938 415.101562 302.507812 435.617188 297.65625 450.484375 C 289.335938 476.015625 289.351562 478.367188 297.953125 492.515625 C 317.230469 524.210938 372.570312 543.3125 413.363281 532.351562 C 425.828125 529 437.539062 523.835938 439.390625 520.871094 C 451.367188 501.636719 368.023438 386.371094 342.136719 386.371094 C 338.074219 386.371094 328.386719 394.714844 320.613281 404.910156 " fill-opacity="1" fill-rule="evenodd"/></svg>