<svg xmlns="http://www.w3.org/2000/svg" xmlns:xlink="http://www.w3.org/1999/xlink" width="940" zoomAndPan="magnify" viewBox="0 0 705 591.000005" height="788" preserveAspectRatio="xMidYMid meet" version="1.0"><path stroke-width="25"   stroke="#deb968"  fill="#deb968" d="M 323.074219 90.867188 C 323.3125 112.773438 326.078125 146.230469 329.214844 165.214844 L 334.902344 199.734375 L 289.554688 204 C 241.25 208.53125 188.195312 226.90625 188.195312 239.085938 C 188.195312 249.382812 200.355469 248.277344 224.515625 235.785156 C 235.867188 229.914062 265.457031 222.8125 290.265625 220.003906 C 333.335938 215.132812 335.597656 215.703125 340.101562 232.542969 C 342.699219 242.25 344.875 314.882812 344.925781 393.957031 C 345.03125 533.824219 353.074219 579.140625 363.285156 497.386719 C 368.378906 456.660156 361.851562 233.140625 355.261719 222.484375 C 351.183594 215.886719 433.84375 222.476562 470.066406 231.632812 C 483.382812 235 495.980469 235 498.066406 231.632812 C 503.832031 222.296875 463.425781 210.644531 405.53125 204.941406 L 353.5 199.816406 L 348.480469 170.109375 C 345.726562 153.765625 342.632812 121.570312 341.609375 98.566406 C 339.160156 43.199219 322.460938 36.257812 323.074219 90.867188 " fill-opacity="1" fill-rule="evenodd"/></svg>