<svg xmlns="http://www.w3.org/2000/svg" xmlns:xlink="http://www.w3.org/1999/xlink" width="940" zoomAndPan="magnify" viewBox="0 0 705 591.000005" height="788" preserveAspectRatio="xMidYMid meet" version="1.0"><path stroke-width="25"   stroke="#deb968"  fill="#deb968" d="M 433.347656 103.28125 C 425.804688 247.917969 377.847656 412.496094 328.03125 464.714844 C 304.03125 489.867188 263.820312 498.75 247.554688 482.484375 C 237.773438 472.707031 235.890625 447.371094 235.410156 319.046875 C 234.875 178.953125 236.050781 164.359375 250.578125 130.667969 C 260.644531 107.332031 270.53125 94.515625 277.964844 95.164062 C 290.675781 96.269531 292.945312 85.160156 283.175781 69.742188 C 275.453125 57.558594 253.171875 86.722656 233.511719 134.742188 C 222.101562 162.589844 220.335938 187.546875 220.992188 311.019531 C 221.824219 466.148438 227.484375 496.457031 257.019531 503.871094 C 287.109375 511.421875 337.074219 482.777344 358.96875 445.417969 C 391.753906 389.476562 434.195312 260.40625 436.058594 211.007812 L 436.605469 196.398438 L 442.390625 211.007812 C 454.945312 242.734375 466.851562 413.816406 461.914062 491.769531 C 458.875 539.847656 459.625 572.925781 463.820312 575.515625 C 479.574219 585.253906 481.945312 412.285156 467.785156 287.691406 C 460.246094 221.414062 453.90625 140.894531 453.703125 108.757812 C 453.207031 32.726562 451.601562 17.464844 444.054688 17.464844 C 440.628906 17.464844 435.808594 56.078125 433.347656 103.28125 " fill-opacity="1" fill-rule="evenodd"/></svg>