<svg xmlns="http://www.w3.org/2000/svg" xmlns:xlink="http://www.w3.org/1999/xlink" width="940" zoomAndPan="magnify" viewBox="0 0 705 591.000005" height="788" preserveAspectRatio="xMidYMid meet" version="1.0"><path stroke-width="25"   stroke="#deb968"  fill="#deb968" d="M 420.652344 145.523438 C 404.445312 235.15625 401.871094 245.539062 367.96875 357.867188 C 357.132812 393.773438 343.339844 441.652344 337.324219 464.257812 L 326.378906 505.363281 L 322.53125 483.601562 C 311.53125 421.375 289.675781 207.425781 289.554688 160.730469 C 289.488281 136.078125 283.648438 114.8125 278.660156 121.046875 C 270.949219 130.671875 309.710938 503.058594 321.660156 534.199219 C 325.84375 545.097656 333.152344 543.261719 333.152344 531.324219 C 333.152344 517.777344 356.28125 430.378906 388.585938 321.84375 C 402.875 273.832031 419.175781 208.4375 424.8125 176.519531 C 430.445312 144.601562 437.152344 107.984375 439.714844 95.152344 C 445.414062 66.625 445.578125 58.039062 440.421875 58.039062 C 438.246094 58.039062 429.347656 97.40625 420.652344 145.523438 " fill-opacity="1" fill-rule="evenodd"/></svg>