<svg xmlns="http://www.w3.org/2000/svg" xmlns:xlink="http://www.w3.org/1999/xlink" width="940" zoomAndPan="magnify" viewBox="0 0 705 591.000005" height="788" preserveAspectRatio="xMidYMid meet" version="1.0"><path stroke-width="25"   stroke="#deb968"  fill="#deb968" d="M 143.265625 75.902344 C 143.265625 83.492188 148.386719 97.015625 154.644531 105.953125 C 169.449219 127.089844 178.316406 166.480469 198.050781 298.882812 C 217.503906 429.433594 240 534.578125 250.785156 545.363281 C 269.058594 563.636719 278.785156 550.074219 337.148438 425.035156 C 350.703125 395.992188 366.578125 372.632812 372.765625 372.632812 C 391.179688 372.632812 412.070312 399.152344 437.90625 455.324219 C 474.441406 534.75 482.570312 547.304688 497.433594 547.304688 C 522.136719 547.304688 531.800781 482.914062 536.777344 285.296875 C 540.203125 149.371094 539.085938 100.921875 532.539062 100.921875 C 526.199219 100.921875 523.660156 141.484375 523.660156 242.800781 C 523.660156 379.253906 513.847656 503.535156 501.300781 525.945312 C 493.140625 540.535156 485.472656 529.542969 458.6875 464.898438 C 436.570312 411.535156 394.007812 357.105469 374.375 357.105469 C 353.421875 357.105469 320.410156 409.25 298.480469 477 C 293.03125 493.839844 282.339844 514.292969 274.734375 522.460938 C 261.25 536.941406 260.691406 536.558594 252.59375 507.378906 C 242.035156 469.332031 225.59375 380.472656 205.601562 253.492188 C 196.96875 198.636719 182.359375 137.503906 173.144531 117.636719 C 163.929688 97.769531 157.082031 77.152344 157.929688 71.808594 C 158.773438 66.46875 155.824219 62.105469 151.367188 62.105469 C 146.914062 62.105469 143.265625 68.316406 143.265625 75.902344 " fill-opacity="1" fill-rule="evenodd"/></svg>