<svg xmlns="http://www.w3.org/2000/svg" xmlns:xlink="http://www.w3.org/1999/xlink" width="940" zoomAndPan="magnify" viewBox="0 0 705 591.000005" height="788" preserveAspectRatio="xMidYMid meet" version="1.0"><path stroke-width="25"   stroke="#deb968"  fill="#deb968" d="M 315.21875 71.394531 C 315.21875 73.097656 319.742188 80.234375 325.265625 87.253906 C 330.789062 94.277344 344.128906 122.308594 354.910156 149.550781 L 374.511719 199.070312 L 363.15625 213.308594 C 356.910156 221.140625 330.652344 258.089844 304.808594 295.421875 C 277.800781 334.417969 250.675781 373.335938 223.4375 412.171875 C 204.527344 439.050781 192.085938 460.03125 195.785156 458.800781 C 203.335938 456.285156 247.324219 396.433594 311.410156 301.507812 C 334.988281 266.574219 359.347656 232.402344 365.535156 225.574219 C 376.253906 213.746094 377.027344 213.621094 381.800781 222.964844 C 387.300781 233.75 407.671875 314.28125 440.390625 454.664062 C 452.101562 504.917969 463.84375 549.492188 466.484375 553.714844 C 473.347656 564.695312 478.96875 556.71875 472.667969 544.945312 C 469.773438 539.539062 456.507812 485.886719 443.1875 425.714844 C 429.863281 365.542969 412.066406 292.175781 403.640625 262.679688 C 395.210938 233.1875 388.335938 206.167969 388.363281 202.636719 C 388.386719 199.109375 408.546875 171.9375 433.164062 142.253906 C 457.78125 112.574219 476.5 86.875 474.777344 85.144531 C 471.351562 81.726562 455.730469 98.945312 413.261719 152.941406 C 398.105469 172.214844 384.21875 188.070312 382.394531 188.183594 C 380.574219 188.292969 372.792969 171.351562 365.101562 150.535156 C 349.355469 107.910156 327.738281 68.304688 320.222656 68.304688 C 317.46875 68.304688 315.21875 69.695312 315.21875 71.394531 " fill-opacity="1" fill-rule="evenodd"/></svg>