<svg xmlns="http://www.w3.org/2000/svg" xmlns:xlink="http://www.w3.org/1999/xlink" width="940" zoomAndPan="magnify" viewBox="0 0 705 591.000005" height="788" preserveAspectRatio="xMidYMid meet" version="1.0"><defs><clipPath id="c9f8941b7c"><path stroke-width="25"   stroke="#deb968"  d="M 361.113281 253.574219 L 372.5 253.574219 L 372.5 260.976562 L 361.113281 260.976562 Z M 361.113281 253.574219 " clip-rule="nonzero"/></clipPath><clipPath id="dfa5e3ef82"><path stroke-width="25"   stroke="#deb968"  d="M 363.355469 256.292969 C 368.449219 255.46875 368.296875 254.34375 368.824219 254.046875 C 369.347656 253.671875 370.394531 253.445312 370.992188 253.746094 C 371.667969 254.046875 372.566406 255.316406 372.492188 256.066406 C 372.417969 256.816406 371.367188 257.9375 370.621094 258.164062 C 370.019531 258.3125 368.972656 258.011719 368.523438 257.5625 C 368.074219 256.964844 367.773438 255.394531 368.148438 254.792969 C 368.523438 254.121094 370.019531 253.519531 370.695312 253.671875 C 371.367188 253.746094 372.117188 254.496094 372.339844 255.09375 C 372.566406 255.691406 372.417969 256.515625 372.042969 257.265625 C 371.667969 258.164062 370.695312 259.359375 369.644531 259.960938 C 368.523438 260.558594 366.652344 260.707031 365.453125 260.859375 C 364.480469 260.933594 363.582031 261.007812 362.832031 260.785156 C 362.160156 260.484375 361.484375 259.960938 361.261719 259.359375 C 361.035156 258.761719 361.183594 257.789062 361.484375 257.265625 C 361.859375 256.742188 363.355469 256.292969 363.355469 256.292969 " clip-rule="nonzero"/></clipPath><clipPath id="baf1d0eea0"><path stroke-width="25"   stroke="#deb968"  d="M 360.632812 249.074219 L 374.691406 249.074219 L 374.691406 271 L 360.632812 271 Z M 360.632812 249.074219 " clip-rule="nonzero"/></clipPath><clipPath id="fe5c562307"><path stroke-width="25"   stroke="#deb968"  d="M 368.296875 256.664062 C 367.773438 253.148438 365.152344 255.917969 364.554688 257.191406 C 364.179688 258.164062 364.179688 259.210938 364.40625 260.109375 C 364.628906 260.933594 365.902344 261.605469 365.902344 262.28125 C 365.902344 262.878906 365.304688 263.554688 364.855469 263.777344 C 364.40625 264.078125 363.507812 264.078125 362.980469 263.777344 C 362.53125 263.554688 362.007812 263.03125 362.007812 262.28125 C 361.859375 260.558594 365.226562 254.121094 366.574219 253.296875 C 367.027344 252.996094 367.476562 253.070312 367.925781 253.222656 C 368.375 253.445312 368.898438 253.894531 369.121094 254.496094 C 369.570312 255.617188 368.746094 258.3125 368.972656 259.585938 C 369.195312 260.484375 370.019531 261.15625 369.945312 261.832031 C 369.871094 262.429688 369.273438 263.328125 368.671875 263.554688 C 368.148438 263.703125 367.027344 263.328125 366.652344 262.957031 C 366.351562 262.65625 366.050781 262.207031 366.203125 261.683594 C 366.5 260.632812 369.570312 257.9375 370.917969 257.5625 C 371.667969 257.339844 372.566406 257.5625 373.015625 257.9375 C 373.390625 258.386719 373.464844 259.585938 373.390625 260.109375 C 373.238281 260.410156 373.089844 260.632812 372.789062 260.785156 C 371.96875 261.082031 367.773438 259.808594 367.699219 259.511719 C 367.699219 259.359375 368.597656 259.136719 369.046875 259.136719 C 369.496094 259.210938 370.320312 259.585938 370.46875 260.109375 C 370.769531 260.632812 370.46875 262.355469 370.019531 262.503906 C 369.347656 262.804688 366.652344 261.15625 366.203125 259.808594 C 365.675781 258.164062 367.25 254.195312 368.375 253.070312 C 369.121094 252.324219 370.320312 251.949219 370.992188 252.097656 C 371.519531 252.324219 372.042969 253.070312 372.191406 253.597656 C 372.339844 254.046875 372.339844 254.71875 371.96875 255.09375 C 371.59375 255.46875 370.171875 255.09375 369.496094 255.542969 C 368.746094 256.140625 368.746094 258.089844 368 258.6875 C 367.398438 259.136719 366.203125 259.359375 365.601562 259.0625 C 365.003906 258.835938 364.480469 258.011719 364.40625 257.488281 C 364.253906 257.039062 364.328125 256.441406 364.628906 255.992188 C 365.304688 255.167969 367.925781 254.71875 369.046875 253.597656 C 370.09375 252.546875 370.46875 250.226562 371.292969 249.554688 C 371.742188 249.179688 372.191406 249.105469 372.714844 249.105469 C 373.238281 249.179688 373.988281 249.554688 374.363281 250.152344 C 374.886719 251.125 374.585938 253.222656 374.0625 255.316406 C 373.238281 258.835938 369.570312 266.398438 367.847656 268.871094 C 367.027344 269.992188 366.5 270.816406 365.753906 270.964844 C 364.929688 271.117188 363.65625 270.515625 363.132812 269.769531 C 362.53125 268.945312 362.382812 267.449219 362.609375 265.800781 C 362.980469 263.03125 365.527344 256.664062 367.101562 255.019531 C 367.773438 254.269531 368.597656 253.894531 369.195312 253.96875 C 369.722656 253.96875 370.46875 254.570312 370.695312 255.09375 C 370.84375 255.691406 370.542969 256.964844 370.09375 257.414062 C 369.722656 257.789062 368.824219 257.9375 368.296875 257.789062 C 367.773438 257.640625 367.101562 257.039062 366.949219 256.515625 C 366.800781 255.84375 367.25 254.570312 367.773438 254.195312 C 368.296875 253.894531 369.644531 254.046875 370.171875 254.417969 C 370.621094 254.71875 370.84375 255.316406 370.84375 256.140625 C 370.769531 258.011719 367.175781 263.40625 366.574219 265.726562 C 366.277344 267 366.949219 268.496094 366.5 268.71875 C 366.050781 268.945312 364.480469 268.269531 364.179688 267.296875 C 363.507812 265.125 369.796875 255.617188 370.46875 252.773438 C 370.769531 251.648438 370.246094 250.976562 370.621094 250.375 C 371.070312 249.777344 372.492188 249.027344 373.164062 249.253906 C 373.839844 249.402344 374.585938 250.300781 374.664062 251.125 C 374.738281 252.546875 372.417969 255.765625 371.070312 257.113281 C 370.019531 258.089844 368.671875 258.835938 367.625 258.988281 C 366.652344 259.136719 365.226562 258.988281 364.777344 258.460938 C 364.328125 257.9375 364.328125 256.816406 364.628906 255.992188 C 365.226562 254.71875 368.074219 252.324219 369.496094 252.097656 C 370.46875 251.949219 371.667969 252.621094 372.042969 253.148438 C 372.339844 253.519531 372.265625 254.046875 372.191406 254.570312 C 371.96875 255.542969 371.144531 257.414062 370.246094 258.238281 C 369.570312 258.988281 367.699219 259.511719 367.699219 259.511719 C 367.773438 259.585938 368.597656 259.136719 369.046875 259.136719 C 369.496094 259.210938 370.320312 259.585938 370.46875 260.109375 C 370.769531 260.632812 370.019531 262.503906 370.019531 262.503906 C 369.945312 262.503906 369.796875 258.460938 370.46875 257.789062 C 370.992188 257.339844 372.117188 257.339844 372.640625 257.640625 C 373.164062 258.011719 373.6875 258.910156 373.464844 259.660156 C 373.238281 260.785156 370.019531 263.253906 368.671875 263.554688 C 367.925781 263.703125 367.175781 263.480469 366.652344 262.957031 C 365.976562 262.355469 365.601562 260.933594 365.378906 259.660156 C 365.152344 258.089844 365.003906 255.316406 365.601562 254.269531 C 365.902344 253.597656 366.5 253.222656 367.027344 253.148438 C 367.550781 253.070312 368.375 253.296875 368.671875 253.746094 C 369.046875 254.121094 369.195312 254.945312 369.046875 255.84375 C 368.824219 257.5625 366.574219 261.980469 365.527344 263.179688 C 365.152344 263.703125 364.929688 263.929688 364.40625 264.003906 C 363.65625 264.003906 361.859375 263.03125 361.261719 262.28125 C 360.734375 261.53125 360.734375 260.632812 360.660156 259.660156 C 360.660156 258.386719 360.8125 256.742188 361.410156 255.316406 C 362.082031 253.671875 363.582031 251.273438 365.003906 250.453125 C 366.125 249.851562 367.625 249.554688 368.746094 250.078125 C 370.171875 250.824219 372.417969 254.71875 372.191406 256.066406 C 372.042969 256.964844 370.917969 257.863281 370.246094 257.863281 C 369.570312 257.9375 368.296875 256.664062 368.296875 256.664062 " clip-rule="nonzero"/></clipPath></defs><path stroke-width="25"   stroke="#deb968"  fill="#deb968" d="M 256.070312 88.765625 C 257.511719 101.6875 260.738281 139.601562 263.242188 173.027344 C 267.144531 225.171875 269.679688 236.570312 281.09375 253.371094 C 306.226562 290.359375 341.640625 302.070312 375.28125 284.527344 C 383.511719 280.234375 390.972656 276.726562 391.871094 276.726562 C 397.207031 276.726562 323.152344 396.230469 299.273438 426.15625 C 283.507812 445.914062 262.859375 473.828125 253.382812 488.183594 C 243.90625 502.542969 226.644531 524.226562 215.027344 536.371094 C 203.40625 548.515625 195.292969 559.839844 196.996094 561.542969 C 200.335938 564.882812 246.417969 511.425781 266.535156 480.859375 C 273.332031 470.53125 293.277344 443.453125 310.847656 420.695312 C 328.421875 397.929688 355.890625 356.816406 371.894531 329.324219 C 387.898438 301.835938 407.105469 271.113281 414.582031 261.0625 C 422.054688 251.011719 428.179688 241.25 428.1875 239.367188 C 428.21875 232.890625 482.023438 158.882812 506.480469 131.6875 C 534.378906 100.65625 531.457031 94.1875 503.011719 124.007812 C 482.824219 145.171875 433.5625 211.394531 417.53125 238.925781 C 412.082031 248.28125 405.203125 255.105469 402.25 254.085938 C 399.292969 253.070312 387.644531 260.097656 376.359375 269.703125 C 352.953125 289.621094 336.328125 291.597656 312.789062 277.242188 C 282.105469 258.53125 274.617188 238.472656 268.476562 158.515625 C 265.417969 118.71875 260.792969 81.453125 258.1875 75.710938 C 254.855469 68.359375 254.230469 72.226562 256.070312 88.765625 M 365.550781 255.84375 C 363.773438 258.714844 364.8125 261.0625 367.851562 261.0625 C 370.890625 261.0625 373.382812 258.714844 373.382812 255.84375 C 373.382812 252.96875 372.347656 250.621094 371.078125 250.621094 C 369.8125 250.621094 367.324219 252.96875 365.550781 255.84375 " fill-opacity="1" fill-rule="evenodd"/><g clip-path="url(#c9f8941b7c)"><g clip-path="url(#dfa5e3ef82)"><path stroke-width="25"   stroke="#deb968"  fill="#ffffff" d="M 358.265625 250.675781 L 375.554688 250.675781 L 375.554688 263.929688 L 358.265625 263.929688 Z M 358.265625 250.675781 " fill-opacity="1" fill-rule="nonzero"/></g></g><g clip-path="url(#baf1d0eea0)"><g clip-path="url(#fe5c562307)"><path stroke-width="25"   stroke="#deb968"  fill="#ffffff" d="M 357.667969 246.109375 L 377.65625 246.109375 L 377.65625 273.988281 L 357.667969 273.988281 Z M 357.667969 246.109375 " fill-opacity="1" fill-rule="nonzero"/></g></g></svg>