<svg xmlns="http://www.w3.org/2000/svg" xmlns:xlink="http://www.w3.org/1999/xlink" width="940" zoomAndPan="magnify" viewBox="0 0 705 591.000005" height="788" preserveAspectRatio="xMidYMid meet" version="1.0"><path stroke-width="25"   stroke="#deb968"  fill="#deb968" d="M 470.722656 73.40625 C 447.160156 92.84375 426.339844 112.769531 424.449219 117.691406 C 416.460938 138.507812 311.867188 146.875 235.675781 132.792969 C 215.503906 129.0625 197.402344 127.609375 195.449219 129.5625 C 193.496094 131.515625 195.011719 139.5625 198.8125 147.441406 C 204.4375 159.117188 205.804688 159.675781 206.152344 150.460938 C 206.53125 140.421875 210.371094 139.699219 239.890625 144.117188 C 258.203125 146.851562 301.027344 148.847656 335.050781 148.554688 C 369.070312 148.265625 396.902344 148.84375 396.902344 149.835938 C 396.902344 150.832031 384.460938 169.632812 369.261719 191.605469 C 354.0625 213.582031 329.339844 254.398438 314.328125 282.3125 C 287.84375 331.566406 243.691406 405.957031 200.378906 474.289062 C 188.746094 492.640625 180.980469 509.410156 183.117188 511.546875 C 185.253906 513.683594 214.429688 510.796875 247.960938 505.132812 C 322.40625 492.558594 375.269531 492.363281 425.449219 504.480469 C 446.386719 509.535156 468.953125 513.714844 475.601562 513.765625 C 487.332031 513.867188 487.34375 513.492188 476.070312 501.027344 C 469.675781 493.96875 462.8125 490.8125 460.8125 494.023438 C 458.65625 497.476562 437.746094 496.175781 409.589844 490.832031 C 362.828125 481.96875 328.546875 483.460938 220.027344 499.074219 L 192.234375 503.078125 L 223.699219 456.132812 C 241.011719 430.316406 275.878906 372.082031 301.191406 326.722656 C 326.503906 281.359375 361.96875 221.988281 379.988281 194.785156 C 411.835938 146.714844 414.394531 144.546875 470.488281 117.925781 C 527.089844 91.066406 549.160156 71.824219 549.160156 49.34375 C 549.160156 25.953125 515.871094 36.167969 470.722656 73.40625 M 478.855469 80.3125 C 458.15625 100.0625 442.375 117.375 443.792969 118.796875 C 445.210938 120.210938 463.585938 112.679688 484.621094 102.0625 C 521.90625 83.238281 545.617188 60.425781 539.003906 49.722656 C 531.546875 37.664062 514.464844 46.355469 478.855469 80.3125 " fill-opacity="1" fill-rule="evenodd"/></svg>