<svg xmlns="http://www.w3.org/2000/svg" xmlns:xlink="http://www.w3.org/1999/xlink" width="940" zoomAndPan="magnify" viewBox="0 0 705 591.000005" height="788" preserveAspectRatio="xMidYMid meet" version="1.0"><path stroke-width="25"   stroke="#deb968"  fill="#deb968" d="M 333.417969 108.945312 C 244.960938 141.558594 167.445312 251.25 167.835938 343.253906 C 168.121094 410.960938 207.609375 466.804688 277.859375 498.863281 C 306.074219 511.742188 326.175781 515.113281 375.386719 515.226562 C 429.582031 515.347656 439.304688 513.429688 452.792969 499.957031 C 461.855469 490.902344 466.433594 479.917969 463.886719 473.300781 C 457.632812 457 445.5625 459.453125 449.925781 476.136719 C 455.484375 497.398438 423.269531 506.789062 359.089844 502.617188 C 301 498.828125 248.601562 477.820312 219.558594 446.660156 C 145.421875 367.128906 186.539062 216.738281 302.816406 142.121094 C 368.457031 100.003906 459.125 106.308594 459.125 152.996094 C 459.125 162.675781 462.324219 170.605469 466.234375 170.605469 C 474.445312 170.605469 475.636719 142.234375 467.902344 131.09375 C 446.890625 100.835938 383.660156 90.421875 333.417969 108.945312 " fill-opacity="1" fill-rule="evenodd"/></svg>