<svg xmlns="http://www.w3.org/2000/svg" xmlns:xlink="http://www.w3.org/1999/xlink" width="940" zoomAndPan="magnify" viewBox="0 0 705 591.000005" height="788" preserveAspectRatio="xMidYMid meet" version="1.0"><path stroke-width="25"   stroke="#deb968"  fill="#deb968" d="M 410.238281 129.683594 C 409.453125 202.160156 395.046875 408.371094 389.535156 426.097656 C 387.648438 432.15625 385.363281 431.875 377.316406 424.59375 C 363.84375 412.398438 335.933594 405.023438 317.335938 408.742188 C 281.96875 415.820312 247.664062 472.222656 247.664062 523.3125 C 247.664062 552.675781 256.464844 555.085938 298.503906 537.21875 C 338.390625 520.265625 372.460938 492.898438 381.828125 470.292969 C 386.03125 460.132812 391.199219 455.371094 396.003906 457.214844 C 401.765625 459.421875 403.644531 454.535156 403.875 436.695312 C 404.046875 423.8125 405.195312 402.382812 406.4375 389.078125 C 425.863281 180.378906 429.066406 50.386719 414.789062 50.386719 C 412.761719 50.386719 410.710938 86.066406 410.238281 129.683594 M 292.75 437.183594 C 274.175781 456.863281 259.113281 493.023438 258.714844 518.882812 C 258.421875 538.253906 258.613281 538.429688 275.886719 534.515625 C 313.609375 525.972656 359.308594 492.753906 374.953125 462.503906 C 383.148438 446.648438 382.960938 445.742188 369 433.738281 C 347.085938 414.886719 312.308594 416.457031 292.75 437.183594 " fill-opacity="1" fill-rule="evenodd"/></svg>