<svg xmlns="http://www.w3.org/2000/svg" xmlns:xlink="http://www.w3.org/1999/xlink" width="940" zoomAndPan="magnify" viewBox="0 0 705 591.000005" height="788" preserveAspectRatio="xMidYMid meet" version="1.0"><path stroke-width="25"   stroke="#deb968"  fill="#deb968" d="M 299.234375 97.097656 C 217.355469 135.964844 159.207031 250.71875 165.453125 361.113281 C 168.433594 413.953125 170.746094 419.808594 200.65625 450.441406 C 243.25 494.058594 273.511719 502.902344 362.816406 497.804688 C 440.144531 493.394531 476.257812 477.835938 482.453125 446.253906 C 484.667969 434.96875 479.210938 437.445312 460.410156 456.242188 C 432.707031 483.949219 405.777344 491.667969 336.824219 491.667969 C 278.976562 491.667969 225.089844 466.199219 198.140625 426.113281 C 181.121094 400.800781 179.253906 390.1875 182.269531 335.808594 C 189.40625 207.015625 265.882812 103.859375 353.316406 105.0625 C 411.726562 105.863281 459.027344 146.035156 459.027344 194.832031 C 459.027344 227.625 434.15625 250.5625 382.269531 265.648438 C 326.308594 281.914062 278.476562 282.144531 240.613281 266.320312 C 206.171875 251.929688 205 251.765625 205 261.289062 C 205 275.292969 261.140625 295 301.039062 295 C 357.660156 295 424.804688 273.121094 452.183594 245.742188 C 528.949219 168.980469 403.878906 47.414062 299.234375 97.097656 " fill-opacity="1" fill-rule="evenodd"/></svg>