<svg xmlns="http://www.w3.org/2000/svg" xmlns:xlink="http://www.w3.org/1999/xlink" width="940" zoomAndPan="magnify" viewBox="0 0 705 591.000005" height="788" preserveAspectRatio="xMidYMid meet" version="1.0"><path stroke-width="25"   stroke="#deb968"  fill="#deb968" d="M 386.101562 94.59375 C 362.546875 119.183594 349.417969 153.730469 337.015625 223.707031 L 326.359375 283.875 L 266.121094 302.355469 C 203.503906 321.570312 197.085938 324.5 203.503906 330.921875 C 205.628906 333.035156 234.601562 326.285156 267.898438 315.914062 L 328.441406 297.066406 L 331.269531 400.296875 C 332.824219 457.078125 337.113281 508.925781 340.808594 515.523438 C 352.03125 535.585938 355.53125 517.382812 348.785156 474 C 345.269531 451.382812 343.222656 401.148438 344.238281 362.371094 L 346.085938 291.859375 L 377.699219 285.164062 C 395.085938 281.480469 410.582031 274.671875 412.125 270.027344 C 414.914062 261.667969 407.765625 262.167969 356.992188 273.902344 C 344.230469 276.851562 342.671875 275.261719 345.4375 262.109375 C 347.195312 253.746094 351.824219 226.957031 355.734375 202.589844 C 366.964844 132.636719 397.113281 84.039062 421.265625 96.960938 C 435.878906 104.785156 457.964844 150.195312 458.171875 172.832031 C 458.28125 184.640625 460.140625 186.71875 465.65625 181.203125 C 483.257812 163.597656 438.703125 76.957031 412.050781 76.957031 C 407.066406 76.957031 395.394531 84.898438 386.101562 94.59375 " fill-opacity="1" fill-rule="evenodd"/></svg>