<svg xmlns="http://www.w3.org/2000/svg" xmlns:xlink="http://www.w3.org/1999/xlink" width="940" zoomAndPan="magnify" viewBox="0 0 705 591.000005" height="788" preserveAspectRatio="xMidYMid meet" version="1.0"><path stroke-width="25"   stroke="#deb968"  fill="#deb968" d="M 425.484375 66.042969 C 425.484375 79.011719 424.734375 79.246094 411.960938 70.300781 C 378.175781 46.628906 319.636719 66.511719 296.851562 109.390625 C 273.746094 152.875 287.480469 239.753906 323.554688 278.273438 C 342.457031 298.46875 368.734375 296.199219 394.050781 272.191406 L 414.898438 252.425781 L 411.359375 313.246094 C 406.203125 401.890625 382 504.84375 366.324219 504.84375 C 343.515625 504.84375 287.390625 419.085938 280.011719 372.96875 C 276.609375 351.695312 274.042969 346.589844 270.664062 354.351562 C 268.101562 360.226562 267.785156 374.539062 269.964844 386.144531 C 274.796875 411.898438 329.667969 495.476562 350.851562 509.359375 C 365.558594 518.996094 366.726562 518.824219 377.554688 505.449219 C 399.53125 478.316406 413.316406 412.726562 425.007812 279.796875 C 428.097656 244.667969 433.863281 200.875 437.816406 182.476562 C 445.542969 146.574219 441.496094 68.328125 431.394531 58.226562 C 427.570312 54.402344 425.484375 57.15625 425.484375 66.042969 M 336.566406 80.0625 C 313.894531 91.046875 295.769531 131.78125 296.140625 170.921875 C 296.519531 211.160156 319.429688 268.609375 339.355469 279.273438 C 362.054688 291.425781 398.824219 266.402344 412.910156 229.21875 C 416.480469 219.804688 419.402344 185.328125 419.402344 152.613281 C 419.402344 102.707031 417.605469 91.503906 408.277344 83.0625 C 395.851562 71.816406 356.953125 70.183594 336.566406 80.0625 " fill-opacity="1" fill-rule="evenodd"/></svg>