<svg xmlns="http://www.w3.org/2000/svg" xmlns:xlink="http://www.w3.org/1999/xlink" width="940" zoomAndPan="magnify" viewBox="0 0 705 591.000005" height="788" preserveAspectRatio="xMidYMid meet" version="1.0"><path stroke-width="25"   stroke="#deb968"  fill="#deb968" d="M 309.210938 46.835938 C 310.992188 58.726562 310.117188 99.007812 307.265625 136.34375 C 304.40625 173.683594 300.757812 234.867188 299.160156 272.308594 C 296.679688 330.289062 284.757812 452.726562 273.628906 534.527344 C 268.324219 573.492188 282.019531 550.546875 289.386719 508.117188 C 296.316406 468.234375 323.921875 405.484375 338.535156 396.402344 C 345.261719 392.226562 349.316406 393.03125 356.183594 399.910156 C 363.65625 407.382812 365.105469 418.027344 365.105469 465.378906 C 365.105469 502.214844 362.667969 527.6875 358.121094 538.46875 C 354.28125 547.570312 352.410156 556.296875 353.96875 557.847656 C 359.484375 563.371094 371.546875 531.480469 377.558594 495.480469 C 394.675781 392.902344 348.882812 346.546875 306.535156 423.589844 L 296.835938 441.238281 L 299.308594 421.066406 C 300.667969 409.972656 304.148438 356.648438 307.039062 302.566406 C 309.933594 248.480469 314.652344 174.734375 317.53125 138.679688 C 322.890625 71.589844 320.265625 25.21875 311.113281 25.21875 C 307.910156 25.21875 307.195312 33.386719 309.210938 46.835938 " fill-opacity="1" fill-rule="evenodd"/></svg>