<svg xmlns="http://www.w3.org/2000/svg" xmlns:xlink="http://www.w3.org/1999/xlink" width="940" zoomAndPan="magnify" viewBox="0 0 705 591.000005" height="788" preserveAspectRatio="xMidYMid meet" version="1.0"><path stroke-width="25"   stroke="#deb968"  fill="#deb968" d="M 321.675781 110.234375 C 318.363281 130.300781 317.125 150.550781 318.921875 155.234375 C 322.667969 164.996094 331.664062 163.59375 336.816406 152.453125 C 338.746094 148.28125 343.066406 139.566406 346.414062 133.085938 C 355.433594 115.628906 353.800781 92.367188 342.863281 82.46875 C 337.566406 77.675781 331.988281 73.75 330.46875 73.75 C 328.953125 73.75 324.992188 90.171875 321.675781 110.234375 M 312.285156 288.433594 C 314.15625 318.136719 319.460938 369.105469 324.078125 401.691406 C 328.996094 436.371094 331.339844 476.777344 329.726562 499.132812 C 326.355469 545.878906 334.09375 550.183594 339.003906 504.296875 C 341.328125 482.605469 338.933594 442.390625 332.035156 387.089844 C 326.253906 340.785156 320.496094 289.167969 319.234375 272.386719 C 317.96875 255.601562 315.125 240.199219 312.910156 238.144531 C 310.699219 236.089844 310.421875 258.726562 312.285156 288.433594 " fill-opacity="1" fill-rule="evenodd"/></svg>