<svg xmlns="http://www.w3.org/2000/svg" xmlns:xlink="http://www.w3.org/1999/xlink" width="940" zoomAndPan="magnify" viewBox="0 0 705 591.000005" height="788" preserveAspectRatio="xMidYMid meet" version="1.0"><path stroke-width="25"   stroke="#deb968"  fill="#deb968" d="M 477.789062 482.605469 C 474.476562 469.90625 461.546875 420.550781 449.050781 372.925781 C 389.960938 147.757812 381.222656 111.574219 377.746094 77.648438 C 374.273438 43.707031 364.042969 31.140625 364.042969 60.8125 C 364.042969 96.820312 333.246094 192.402344 300.675781 257.476562 C 260.605469 337.535156 202.121094 480.347656 206.503906 487.4375 C 211.019531 494.75 216.734375 485.785156 229.835938 450.855469 C 236.382812 433.394531 251.355469 393.570312 263.117188 362.359375 L 284.484375 305.601562 L 352.664062 307.519531 C 390.15625 308.570312 422.679688 311.277344 424.933594 313.539062 C 429.289062 317.914062 443.277344 372.914062 462.789062 462.402344 C 469.363281 492.5625 477.109375 519.707031 480 522.726562 C 486.675781 529.679688 485.769531 513.21875 477.789062 482.605469 M 416.191406 274.792969 C 406.875 252.367188 392.808594 200.800781 382.960938 152.941406 C 377.476562 126.300781 371.160156 104.503906 368.925781 104.503906 C 366.699219 104.503906 361.734375 119.441406 357.902344 137.695312 C 354.066406 155.949219 338.296875 197.847656 322.855469 230.800781 C 307.410156 263.75 294.773438 292.710938 294.773438 295.164062 C 294.773438 297.613281 323.347656 299.617188 358.269531 299.617188 C 424.140625 299.617188 426.144531 298.753906 416.191406 274.792969 " fill-opacity="1" fill-rule="evenodd"/></svg>