<svg xmlns="http://www.w3.org/2000/svg" xmlns:xlink="http://www.w3.org/1999/xlink" width="940" zoomAndPan="magnify" viewBox="0 0 705 591.000005" height="788" preserveAspectRatio="xMidYMid meet" version="1.0"><path stroke-width="25"   stroke="#deb968"  fill="#deb968" d="M 495.601562 70.171875 C 475.253906 70.175781 450.605469 74.265625 412.832031 83.902344 C 387.925781 90.257812 387.773438 90.234375 379.679688 78.382812 C 368.824219 62.488281 352.320312 44.5625 350.351562 46.527344 C 348.132812 48.746094 356.667969 65.890625 365.65625 77.28125 C 375.066406 89.203125 370.074219 91.722656 336.917969 91.785156 C 317.203125 91.816406 304.648438 93.769531 287.410156 99.484375 C 263.535156 107.398438 240.691406 109.34375 228.054688 104.539062 C 224.054688 103.019531 214.570312 101.28125 206.964844 100.671875 C 196.449219 99.828125 193.144531 100.640625 193.144531 104.046875 C 193.144531 107.113281 199.519531 109.75 213.257812 112.367188 C 244.570312 118.335938 266.136719 117.441406 291.671875 109.105469 C 308.605469 103.574219 322.925781 101.402344 346.574219 100.765625 L 378.570312 99.910156 L 387.6875 118.300781 C 398.144531 139.398438 426.949219 223.171875 433.949219 252.84375 C 441.695312 285.675781 442.339844 304.28125 437.769531 362.847656 C 433.722656 414.675781 429.34375 437.285156 417.140625 469.320312 C 414.496094 476.265625 394.597656 498.785156 382.316406 508.738281 C 379.714844 510.84375 369.503906 516.328125 359.625 520.921875 C 345.085938 527.679688 335.949219 529.523438 311.660156 530.59375 C 284.546875 531.785156 280.558594 531.234375 270.269531 524.875 C 258.03125 517.308594 248.667969 500.261719 242.867188 475 C 239.261719 459.289062 233.949219 454.417969 232.386719 465.394531 C 231.105469 474.425781 243.503906 510.921875 251.164062 520.660156 C 265.726562 539.175781 298.144531 545.320312 337.644531 537.054688 C 371.648438 529.941406 409.878906 502.523438 423.777344 475.28125 C 442.246094 439.085938 455.714844 333.882812 448.566406 281.679688 C 444.871094 254.703125 417.753906 165.820312 400.738281 124.929688 L 390.1875 99.566406 L 398.414062 97.34375 C 430.1875 88.761719 463.359375 81.917969 487.867188 78.894531 C 503.605469 76.957031 516.488281 74.199219 516.488281 72.769531 C 516.488281 71.339844 507.089844 70.171875 495.601562 70.171875 " fill-opacity="1" fill-rule="evenodd"/></svg>