<svg xmlns="http://www.w3.org/2000/svg" xmlns:xlink="http://www.w3.org/1999/xlink" width="940" zoomAndPan="magnify" viewBox="0 0 705 591.000005" height="788" preserveAspectRatio="xMidYMid meet" version="1.0"><path stroke-width="25"   stroke="#deb968"  fill="#deb968" d="M 480.886719 86.269531 C 478.574219 86.269531 473.632812 91.664062 469.90625 98.253906 C 460.289062 115.261719 421.296875 150.800781 385.773438 174.945312 C 371.230469 184.828125 371.085938 184.851562 365.652344 178.503906 C 362.640625 174.984375 358.449219 172.683594 356.335938 173.386719 C 351.855469 174.878906 350.472656 187.875 354.523438 190.378906 C 356.046875 191.320312 357.289062 190.324219 357.289062 188.167969 C 357.289062 186.015625 358.238281 185.203125 359.398438 186.363281 C 362.109375 189.078125 351.144531 201.292969 346 201.292969 C 343.851562 201.292969 340.285156 203.476562 338.070312 206.144531 C 335.855469 208.816406 329.378906 213.207031 323.683594 215.914062 C 310.683594 222.082031 253.082031 275.847656 247.371094 287.144531 C 242.769531 296.238281 237.757812 319.511719 240.398438 319.511719 C 241.289062 319.511719 243.546875 313.839844 245.410156 306.90625 C 248.988281 293.640625 259.351562 281.820312 293.550781 252.046875 C 313.085938 235.03125 362.140625 201.292969 367.34375 201.292969 C 369.835938 201.292969 375.820312 213.542969 382.953125 233.246094 C 385.179688 239.394531 388.835938 248.742188 391.074219 254.011719 C 395.667969 264.824219 420.667969 352.148438 433.378906 401.785156 C 438.53125 421.894531 443.34375 434.535156 445.855469 434.535156 C 451.425781 434.535156 451.242188 433.097656 440.707031 393.859375 C 412.109375 287.320312 398.726562 244.324219 381.664062 204.171875 C 376.789062 192.703125 376.800781 192.65625 387.003906 185.285156 C 405.765625 171.71875 454.675781 131.464844 459.53125 125.59375 C 484.707031 95.152344 489.53125 86.269531 480.886719 86.269531 M 225.929688 100.425781 C 224.125 99.3125 223.054688 91.820312 223.550781 83.777344 C 224.125 74.457031 223.046875 68.683594 220.578125 67.859375 C 217.730469 66.910156 216.75 74.042969 216.875 94.792969 C 217.425781 187.957031 212.699219 506.628906 210.503906 524 C 209.0625 535.421875 208.953125 545.9375 210.265625 547.375 C 211.578125 548.808594 216.441406 543.519531 221.070312 535.621094 C 230.9375 518.785156 231.265625 517.125 224.167969 519.847656 C 220.542969 521.242188 219.601562 520.675781 221.210938 518.070312 C 222.507812 515.972656 224.265625 423.351562 225.121094 312.242188 C 225.976562 201.136719 227.246094 108.484375 227.9375 106.34375 C 228.632812 104.203125 227.730469 101.539062 225.929688 100.425781 " fill-opacity="1" fill-rule="evenodd"/></svg>