<svg xmlns="http://www.w3.org/2000/svg" xmlns:xlink="http://www.w3.org/1999/xlink" width="940" zoomAndPan="magnify" viewBox="0 0 705 591.000005" height="788" preserveAspectRatio="xMidYMid meet" version="1.0"><path stroke-width="25"   stroke="#deb968"  fill="#deb968" d="M 458.851562 483.625 C 457.738281 482.519531 453.828125 483.578125 450.15625 485.984375 C 445.003906 489.355469 428.089844 490.679688 376.164062 491.78125 C 307.332031 493.234375 301.894531 494.023438 247.386719 510.496094 C 241.25 512.355469 240.429688 511.867188 242.148438 507.382812 C 243.269531 504.460938 245.488281 480.472656 247.082031 454.082031 C 248.671875 427.6875 250.605469 405.070312 251.382812 403.8125 C 253.886719 399.757812 268.023438 199.703125 272.738281 101.542969 C 274.394531 67.058594 272.507812 51.640625 264.261719 32.359375 C 260.753906 24.148438 256.175781 21.222656 256.175781 27.1875 C 256.175781 28.898438 258.207031 35.160156 260.691406 41.101562 C 266.886719 55.941406 266.464844 97.472656 259.074219 198.671875 C 255.753906 244.203125 251.652344 302.449219 249.96875 328.109375 C 248.285156 353.773438 246.316406 378.832031 245.597656 383.800781 C 244.878906 388.765625 242.800781 411.792969 240.984375 434.972656 C 239.167969 458.152344 236.613281 487.953125 235.304688 501.195312 C 232.777344 526.761719 233.90625 533.601562 239.402344 526.082031 C 243.035156 521.117188 258.519531 515.238281 289.457031 507.085938 C 303.679688 503.339844 327.796875 501.46875 379.902344 500.0625 C 433.289062 498.628906 452.183594 497.132812 455.910156 494.039062 C 461.246094 489.605469 462.039062 486.8125 458.847656 483.625 " fill-opacity="1" fill-rule="evenodd"/></svg>