<svg xmlns="http://www.w3.org/2000/svg" xmlns:xlink="http://www.w3.org/1999/xlink" width="940" zoomAndPan="magnify" viewBox="0 0 705 591.000005" height="788" preserveAspectRatio="xMidYMid meet" version="1.0"><path stroke-width="25"   stroke="#deb968"  fill="#deb968" d="M 509.941406 501.457031 C 498.140625 397.027344 486.785156 316.707031 476.445312 264.535156 C 472.753906 245.917969 467.210938 216.980469 464.125 200.226562 C 461.039062 183.472656 454.199219 151.945312 448.929688 130.167969 C 443.660156 108.390625 440.007812 87.828125 440.8125 84.476562 C 441.621094 81.125 440.738281 76.097656 438.851562 73.304688 C 435.804688 68.792969 435.054688 68.792969 432.089844 73.304688 C 430.257812 76.097656 428.714844 82.949219 428.664062 88.535156 C 428.613281 94.117188 426.269531 107.066406 423.457031 117.304688 C 415.792969 145.199219 404.917969 197.378906 401.585938 222.226562 C 399.964844 234.328125 396.378906 255.648438 393.617188 269.613281 C 384.488281 315.71875 381.007812 341.878906 378.179688 385.65625 C 376.640625 409.460938 374.535156 429.785156 373.496094 430.820312 C 372.457031 431.859375 370.09375 427.617188 368.238281 421.390625 C 363.164062 404.339844 348.015625 364.441406 340.808594 349.152344 C 331.683594 329.785156 311.855469 280.445312 306.808594 264.535156 C 304.445312 257.089844 297.558594 238.8125 291.503906 223.917969 C 285.453125 209.027344 276.402344 184.820312 271.394531 170.128906 C 262.035156 142.6875 248.226562 117.304688 242.65625 117.304688 C 240.929688 117.304688 238.574219 118.828125 237.421875 120.6875 C 236.269531 122.550781 237 124.074219 239.035156 124.074219 C 244.171875 124.074219 255.613281 151.726562 295.054688 259.457031 C 299.484375 271.558594 310.875 300.496094 320.367188 323.765625 C 329.867188 347.035156 343.703125 382.066406 351.121094 401.613281 C 363.796875 435.007812 375.378906 456.058594 379.027344 452.332031 C 380.589844 450.734375 382.203125 433.785156 386.421875 374.535156 C 388.511719 345.136719 394.460938 306.746094 403.464844 264.535156 C 406.246094 251.503906 409.285156 233.988281 410.222656 225.613281 C 413.539062 195.894531 432.109375 110.53125 435.253906 110.539062 C 437.484375 110.542969 445.285156 147.117188 458.71875 220.535156 C 464.171875 250.320312 471.003906 286.167969 473.90625 300.203125 C 478.683594 323.296875 483.519531 359.007812 493.128906 442.226562 C 500.554688 506.46875 504.9375 531.414062 509.039062 532.773438 C 513.550781 534.269531 513.570312 533.566406 509.941406 501.457031 M 236.390625 143.097656 C 234.628906 142.007812 231.566406 147.566406 229.582031 155.441406 C 211.632812 226.730469 198.738281 284.898438 197.144531 301.765625 C 187.222656 406.65625 180.59375 465.046875 176.078125 487.398438 C 172.574219 504.742188 171.863281 515.101562 174.03125 517.269531 C 176.199219 519.4375 178.714844 516.683594 181.289062 509.332031 C 184.96875 498.816406 197.675781 397.847656 205.496094 316.996094 C 207.386719 297.449219 214.832031 257.089844 222.042969 227.304688 C 237.816406 162.144531 240.617188 145.710938 236.390625 143.097656 " fill-opacity="1" fill-rule="evenodd"/></svg>