<svg xmlns="http://www.w3.org/2000/svg" xmlns:xlink="http://www.w3.org/1999/xlink" width="940" zoomAndPan="magnify" viewBox="0 0 705 591.000005" height="788" preserveAspectRatio="xMidYMid meet" version="1.0"><path stroke-width="25"   stroke="#deb968"  fill="#deb968" d="M 491.308594 178.296875 C 489.027344 176.015625 477.308594 89.347656 475.28125 59.789062 C 474.125 42.84375 472.210938 36.359375 468.378906 36.359375 C 461.421875 36.359375 461.414062 58.121094 468.355469 97.914062 C 481.308594 172.210938 482.710938 201.515625 480.414062 349.347656 C 479.160156 429.75 477.074219 502.015625 475.777344 509.945312 C 473.472656 524.003906 472.316406 522.144531 428.925781 434.558594 C 378.199219 332.164062 359.5 289.175781 326.871094 199.972656 C 314.164062 165.230469 302.082031 136.949219 300.019531 137.128906 C 297.960938 137.300781 295.761719 145.480469 295.140625 155.304688 C 293.742188 177.457031 277.863281 241.652344 255.496094 315.613281 C 246.140625 346.535156 235.75 383.644531 232.410156 398.074219 C 224.097656 433.9375 215.722656 513.015625 219.507812 519.84375 C 223.367188 526.808594 224.203125 522.785156 232.414062 457.726562 C 238.875 406.535156 243.21875 387.589844 266.300781 309.988281 C 285.261719 246.25 301.660156 182.652344 302.066406 171.300781 C 302.375 162.703125 302.667969 162.542969 305.609375 169.425781 C 307.375 173.550781 313.882812 192.980469 320.074219 212.609375 C 326.261719 232.238281 336.257812 259.226562 342.285156 272.585938 C 348.3125 285.945312 355.429688 302.773438 358.105469 309.988281 C 360.777344 317.203125 386.140625 370.335938 414.460938 428.0625 C 442.78125 485.785156 467.105469 536.808594 468.511719 541.449219 C 469.921875 546.089844 473.492188 549.882812 476.445312 549.882812 C 481.507812 549.882812 484.15625 533.101562 482.652344 510.527344 C 482.378906 506.402344 483.675781 496.28125 485.53125 488.035156 C 488.984375 472.722656 494.414062 181.402344 491.308594 178.296875 " fill-opacity="1" fill-rule="evenodd"/></svg>