<svg xmlns="http://www.w3.org/2000/svg" xmlns:xlink="http://www.w3.org/1999/xlink" width="940" zoomAndPan="magnify" viewBox="0 0 705 591.000005" height="788" preserveAspectRatio="xMidYMid meet" version="1.0"><path stroke-width="25"   stroke="#deb968"  fill="#deb968" d="M 516.707031 388 C 515.878906 387.078125 514.148438 369.320312 512.859375 348.535156 C 510.460938 309.84375 497.820312 265.277344 474.523438 213.386719 C 463.546875 188.933594 443.664062 170.066406 428.871094 170.066406 C 417.882812 170.066406 420.644531 175.710938 435.125 182.839844 C 472.257812 201.132812 512.34375 334.65625 503.519531 410.675781 C 499.242188 447.539062 495.238281 458.519531 478.742188 478.660156 C 444.179688 520.832031 381.996094 539.144531 325.3125 523.84375 C 302.398438 517.65625 294.414062 512.804688 274.441406 492.925781 C 232.367188 451.054688 194.585938 345.445312 195.179688 271.347656 C 195.808594 192.246094 232.125 138.03125 303.917969 109.019531 C 371.753906 81.605469 418.015625 95.800781 445.679688 152.507812 C 456.152344 173.972656 457.460938 175.226562 458.707031 165.03125 C 460.828125 147.675781 432.546875 107.949219 409.183594 95.472656 C 392.46875 86.542969 386.097656 85.570312 353.917969 87.007812 C 322.339844 88.417969 313.460938 90.65625 286.4375 104.011719 C 244.707031 124.636719 221.128906 146.347656 204.003906 179.914062 C 174.113281 238.488281 177.777344 321.882812 214.367188 415.722656 C 250.976562 509.621094 301.335938 548.410156 377.691406 541.519531 C 447.894531 535.179688 505.917969 487.503906 512.023438 431.144531 C 513.445312 418.042969 515.417969 403.351562 516.40625 398.496094 C 517.398438 393.648438 517.535156 388.921875 516.707031 388 " fill-opacity="1" fill-rule="evenodd"/></svg>