<svg xmlns="http://www.w3.org/2000/svg" xmlns:xlink="http://www.w3.org/1999/xlink" width="940" zoomAndPan="magnify" viewBox="0 0 705 591.000005" height="788" preserveAspectRatio="xMidYMid meet" version="1.0"><path stroke-width="25"   stroke="#deb968"  fill="#deb968" d="M 490.660156 169.789062 C 486.066406 151.59375 464.207031 114.191406 448.84375 98.234375 C 437.296875 86.234375 410.136719 68.113281 398.175781 64.421875 C 360.21875 52.703125 337.835938 56.613281 307.214844 80.3125 C 287.292969 95.734375 278.398438 100.277344 283.132812 92.621094 C 284.507812 90.394531 283.625 89.542969 280.886719 90.449219 C 277.308594 91.636719 275.601562 110.101562 272.648438 179.378906 C 265.1875 354.558594 252.0625 465.703125 234.25 504.617188 C 224.847656 525.152344 224.878906 525.03125 229.449219 525.03125 C 236.289062 525.03125 251.71875 484.375 256.570312 453.574219 C 269.292969 372.875 275.976562 294.902344 279.667969 184.152344 C 280.765625 151.191406 282.667969 122.691406 283.890625 120.8125 C 285.117188 118.941406 286.121094 115.09375 286.121094 112.269531 C 286.121094 105.875 313.167969 82.125 330.539062 73.261719 C 370.523438 52.863281 426.03125 75.667969 460.710938 126.730469 C 479.742188 154.757812 485.871094 173.09375 485.871094 201.992188 C 485.871094 244.519531 470.113281 267.089844 427.609375 285.441406 C 403.898438 295.679688 401.53125 296.046875 359.199219 296.046875 C 323.816406 296.046875 313.21875 294.945312 304.296875 290.359375 C 290.96875 283.507812 290.992188 283.511719 290.992188 289.289062 C 290.992188 297.832031 322.40625 305.296875 359.199219 305.5 C 389.179688 305.664062 396.433594 304.527344 419.175781 296.136719 C 480.4375 273.523438 505.613281 229.019531 490.660156 169.789062 " fill-opacity="1" fill-rule="evenodd"/></svg>