<svg xmlns="http://www.w3.org/2000/svg" xmlns:xlink="http://www.w3.org/1999/xlink" width="940" zoomAndPan="magnify" viewBox="0 0 705 591.000005" height="788" preserveAspectRatio="xMidYMid meet" version="1.0"><path stroke-width="25"   stroke="#deb968"  fill="#deb968" d="M 482.347656 192.933594 C 461.3125 144.960938 425.5625 96.230469 405.226562 87.816406 C 399.925781 85.625 392.433594 80.082031 388.574219 75.503906 C 370.730469 54.320312 328.78125 51.734375 296.449219 69.820312 C 261.417969 89.417969 245.082031 106.648438 223.898438 146.347656 C 207.574219 176.9375 201.65625 201.550781 189.742188 288.351562 C 178.914062 367.285156 207.339844 422.203125 272.890625 448.972656 C 317.578125 467.222656 351.671875 467.421875 389.191406 449.660156 L 407.230469 441.117188 L 413.144531 448.417969 C 416.398438 452.4375 419.871094 459.800781 420.871094 464.785156 C 421.867188 469.769531 425.039062 474.46875 427.921875 475.21875 C 430.835938 475.984375 438.214844 487.394531 444.570312 500.972656 C 451.066406 514.84375 457.894531 525.355469 460.414062 525.355469 C 462.851562 525.355469 464.8125 524.316406 464.78125 523.046875 C 464.671875 518.882812 438.941406 471.410156 426.777344 452.933594 C 419.082031 441.238281 415.816406 433.523438 417.542969 431.105469 C 432.171875 410.601562 442.890625 393.195312 444.792969 386.847656 C 446.0625 382.613281 449.070312 376.910156 451.472656 374.164062 C 458.59375 366.035156 477.082031 319.679688 485.085938 289.890625 C 496.054688 249.0625 495.304688 222.484375 482.347656 192.933594 M 482.972656 223.714844 C 479.867188 204.230469 456.84375 155.453125 440.117188 132.914062 C 426.964844 115.191406 409.464844 96.460938 407.707031 98.222656 C 407.046875 98.882812 409.316406 106.816406 412.746094 115.847656 C 419.320312 133.140625 419.671875 153.148438 413.445312 155.195312 C 410.839844 156.050781 410.277344 153.210938 411.527344 145.507812 C 413.5625 132.96875 403.371094 104.414062 393.753906 95.710938 C 388.710938 91.144531 385.734375 90.820312 373.933594 93.519531 C 366.292969 95.265625 359.386719 95.628906 358.582031 94.328125 C 356.875 91.566406 373.539062 85.253906 382.964844 85.09375 C 394.582031 84.894531 372.941406 70.351562 355.082031 66.359375 C 315.875 57.582031 266.558594 87.078125 238.648438 135.992188 C 217.652344 172.785156 206.507812 215.339844 196.621094 296.457031 C 189.652344 353.617188 203.585938 388.304688 248.882812 426.585938 C 252.839844 429.929688 266.691406 437.136719 279.660156 442.601562 C 300.074219 451.203125 306.976562 452.570312 330.949219 452.78125 C 359.082031 453.027344 370.160156 450.328125 390.453125 438.289062 L 400.707031 432.203125 L 386.605469 417.882812 C 374.203125 405.289062 368.972656 396.082031 374.222656 396.082031 C 375.167969 396.082031 382.222656 401.964844 389.898438 409.164062 C 397.574219 416.359375 406.050781 422.246094 408.738281 422.246094 C 414.4375 422.246094 429.191406 398.457031 433.761719 381.902344 C 435.5 375.601562 440.9375 365.453125 445.839844 359.34375 C 455.910156 346.816406 467.382812 325.429688 471.5 311.523438 C 474.054688 302.886719 486.804688 240.644531 486.019531 240.644531 C 485.824219 240.644531 484.453125 233.023438 482.972656 223.714844 " fill-opacity="1" fill-rule="evenodd"/></svg>