<svg xmlns="http://www.w3.org/2000/svg" xmlns:xlink="http://www.w3.org/1999/xlink" width="940" zoomAndPan="magnify" viewBox="0 0 705 591.000005" height="788" preserveAspectRatio="xMidYMid meet" version="1.0"><path stroke-width="25"   stroke="#deb968"  fill="#deb968" d="M 449.769531 146.292969 C 445.660156 128.84375 433.734375 107.488281 419.488281 92.042969 C 387.210938 57.0625 289.648438 21.179688 269.1875 36.765625 C 265.300781 39.730469 264.796875 42.722656 266.808594 51.019531 L 269.351562 61.523438 L 269.660156 52.121094 C 269.886719 45.242188 271.65625 42.277344 276.257812 41.074219 C 294.496094 36.304688 355.402344 55.5 386.011719 75.664062 C 411.316406 92.335938 427.394531 109.765625 437.167969 131.117188 C 443.597656 145.15625 444.480469 150.808594 443.574219 172.039062 C 442.578125 195.492188 441.828125 197.789062 428.011719 219.953125 C 418.371094 235.417969 407.289062 248.265625 395 258.21875 C 372.289062 276.617188 325.636719 299.753906 302.308594 304.1875 C 292.769531 306 284.972656 308.488281 284.972656 309.71875 C 284.972656 310.949219 289.066406 314.074219 294.070312 316.664062 C 299.074219 319.25 307.796875 327.726562 313.453125 335.496094 C 319.113281 343.269531 331.632812 357.269531 341.28125 366.621094 C 365.355469 389.945312 382.320312 415.820312 409.167969 470.144531 C 418.265625 488.5625 427.039062 504.453125 428.660156 505.457031 C 436.453125 510.273438 433.089844 499.429688 416.589844 466.546875 C 390.132812 413.816406 367.398438 379.539062 342.015625 354.109375 C 310.652344 322.683594 304.628906 314.816406 309.546875 311.695312 C 311.710938 310.324219 315.414062 309.183594 317.777344 309.15625 C 320.140625 309.132812 336.347656 302.113281 353.789062 293.5625 C 380.035156 280.699219 389.429688 274.097656 408.257812 255.296875 C 446.324219 217.289062 458.792969 184.558594 449.769531 146.292969 M 280.574219 57.023438 C 273.101562 57.023438 261.4375 119.433594 254.828125 194.765625 C 251.761719 229.738281 253.167969 461.375 256.46875 464.671875 C 260.246094 468.449219 261.035156 446.042969 261.898438 310.609375 C 262.757812 175.910156 263.390625 160.164062 269.453125 123.101562 C 273.09375 100.847656 277.390625 77.890625 279.003906 72.082031 C 282.28125 60.285156 282.621094 57.023438 280.574219 57.023438 " fill-opacity="1" fill-rule="evenodd"/></svg>