<svg xmlns="http://www.w3.org/2000/svg" xmlns:xlink="http://www.w3.org/1999/xlink" width="940" zoomAndPan="magnify" viewBox="0 0 705 591.000005" height="788" preserveAspectRatio="xMidYMid meet" version="1.0"><path stroke-width="25"   stroke="#deb968"  fill="#deb968" d="M 474.238281 392.144531 C 462.125 358.59375 455.113281 348.851562 403.933594 294.507812 C 280.847656 163.816406 246.191406 103.238281 277.675781 73.824219 C 283.820312 68.085938 294.207031 62.320312 300.757812 61.007812 C 322.15625 56.726562 362.777344 58.503906 380.332031 64.484375 C 401.097656 71.558594 428.550781 94.140625 428.550781 104.144531 C 428.550781 108.125 431.09375 111.386719 434.203125 111.386719 C 445.277344 111.386719 439.902344 95.195312 423.839844 80.164062 C 396.996094 55.039062 380.070312 49.199219 334.328125 49.265625 C 299.507812 49.316406 293.03125 50.386719 280.53125 58.109375 C 257.050781 72.621094 249.882812 94.890625 259.625 123.074219 C 267.679688 146.363281 301.757812 197.316406 332.292969 231.707031 C 367.058594 270.878906 384.378906 289.648438 411.59375 317.632812 C 445.101562 352.089844 462.621094 381.835938 470.0625 416.902344 C 479.445312 461.125 461.164062 501.757812 422.898438 521.742188 C 406.441406 530.335938 399.527344 531.582031 368.253906 531.582031 C 334.011719 531.582031 331.039062 530.902344 299.882812 515.929688 C 281.964844 507.320312 256.617188 493.332031 243.546875 484.839844 C 204.226562 459.289062 204.398438 468.972656 243.742188 495.660156 C 296.4375 531.402344 342.878906 547.253906 382.894531 543.152344 C 428.070312 538.527344 460.191406 516.414062 475.710938 479.273438 C 483.480469 460.679688 482.722656 415.640625 474.238281 392.144531 " fill-opacity="1" fill-rule="evenodd"/></svg>