<svg xmlns="http://www.w3.org/2000/svg" xmlns:xlink="http://www.w3.org/1999/xlink" width="940" zoomAndPan="magnify" viewBox="0 0 705 591.000005" height="788" preserveAspectRatio="xMidYMid meet" version="1.0"><path stroke-width="25"   stroke="#deb968"  fill="#deb968" d="M 446.574219 137.894531 C 425.980469 106.222656 412.386719 93.378906 383.425781 78.238281 C 367.027344 69.664062 360.234375 67.496094 324.019531 59.273438 C 304.355469 54.804688 271.316406 55.207031 263.757812 60.003906 C 261.589844 61.382812 259.109375 62.628906 258.253906 62.78125 C 252.277344 63.816406 240.175781 71.835938 237.0625 76.828125 C 231.972656 84.972656 236.804688 84.734375 254.9375 75.945312 C 265.457031 70.847656 276.410156 68.753906 297.148438 67.871094 C 322.121094 66.816406 328.351562 67.753906 354.710938 76.542969 C 387.003906 87.316406 409.15625 101.792969 427.171875 123.90625 C 443.050781 143.402344 457.386719 169.0625 457.386719 177.996094 C 457.386719 187.476562 437.140625 214.953125 420.023438 228.710938 C 406.972656 239.199219 372.925781 255.859375 358.441406 258.839844 C 356.21875 259.296875 352.351562 261.375 349.847656 263.449219 C 344.058594 268.257812 348.128906 273.582031 361.8125 279.109375 C 392.90625 291.667969 421.105469 317.835938 436.738281 348.625 C 446.597656 368.046875 448.894531 376.179688 450.183594 396.230469 C 451.488281 416.554688 450.824219 421.578125 446.007812 427.695312 C 432.1875 445.246094 427.417969 452.027344 423.621094 459.550781 C 415.832031 474.972656 390.542969 496.640625 369.445312 505.976562 C 347.3125 515.765625 273.636719 514.851562 234.535156 504.308594 C 229.1875 502.867188 226.753906 483.902344 230.363281 471.734375 C 250.863281 402.511719 252.164062 325.121094 234.832031 205.125 C 230.585938 175.703125 226.203125 134.839844 225.101562 114.324219 C 223.039062 75.980469 221.125 67.964844 214.9375 71.789062 C 212.519531 73.285156 211.921875 81.191406 213.085938 96.300781 C 214.035156 108.574219 215.425781 127.710938 216.179688 138.835938 C 216.9375 149.957031 219.75 173.058594 222.429688 190.171875 C 233.835938 262.953125 239.601562 354.050781 235.238281 392.414062 C 233.394531 408.609375 224.265625 455.65625 214.554688 499.023438 C 212.921875 506.320312 211.585938 522.175781 211.585938 534.257812 C 211.585938 553.492188 212.257812 556.089844 217.03125 555.1875 C 221.273438 554.378906 222.816406 550.039062 224.03125 535.511719 L 225.585938 516.871094 L 239.585938 517.792969 C 247.289062 518.300781 261.289062 520.230469 270.699219 522.078125 C 281.183594 524.136719 301.46875 524.628906 323.058594 523.347656 C 381.546875 519.871094 402.289062 507.886719 437.707031 457.085938 C 455.820312 431.105469 458.6875 425.074219 459.90625 410.394531 C 461.652344 389.316406 453.730469 358.792969 441.515625 339.523438 C 436.550781 331.699219 432.492188 324.285156 432.492188 323.046875 C 432.492188 316.449219 392.5625 283.203125 375.070312 275.230469 C 365.542969 270.890625 369.054688 264.734375 382.773438 261.722656 C 395.394531 258.949219 427.648438 237.476562 439.574219 223.90625 C 473.734375 185.046875 474.125 180.269531 446.574219 137.894531 " fill-opacity="1" fill-rule="evenodd"/></svg>