<svg xmlns="http://www.w3.org/2000/svg" xmlns:xlink="http://www.w3.org/1999/xlink" width="940" zoomAndPan="magnify" viewBox="0 0 705 591.000005" height="788" preserveAspectRatio="xMidYMid meet" version="1.0"><path stroke-width="25"   stroke="#deb968"  fill="#deb968" d="M 523.347656 92.421875 C 498.203125 93.796875 483.378906 92.167969 441.203125 83.394531 C 412.898438 77.503906 373.449219 67.957031 353.535156 62.175781 C 308.394531 49.070312 235.890625 38.949219 158.214844 34.914062 C 125.195312 33.199219 118.59375 33.675781 119.917969 37.679688 C 120.96875 40.875 127.980469 42.773438 140.527344 43.253906 C 164.367188 44.164062 228.339844 50.371094 262.980469 55.128906 C 317.042969 62.554688 333.085938 65.601562 354.730469 72.539062 C 395.363281 85.5625 472.203125 100.042969 508.984375 101.601562 C 547.21875 103.226562 554.03125 102.253906 554.03125 95.1875 C 554.03125 91.808594 546.664062 91.144531 523.347656 92.421875 M 358.792969 181.910156 C 357.6875 97.023438 355.53125 75.578125 349.652344 90.902344 C 348.691406 93.402344 348.535156 162.4375 349.308594 244.316406 C 350.871094 410.773438 345.90625 492.890625 332.792969 517.347656 C 324.933594 532.015625 324.046875 545.722656 330.960938 545.722656 C 353.421875 545.722656 362.066406 432.710938 358.792969 181.910156 " fill-opacity="1" fill-rule="evenodd"/></svg>