<svg xmlns="http://www.w3.org/2000/svg" xmlns:xlink="http://www.w3.org/1999/xlink" width="940" zoomAndPan="magnify" viewBox="0 0 705 591.000005" height="788" preserveAspectRatio="xMidYMid meet" version="1.0"><path stroke-width="25"   stroke="#deb968"  fill="#deb968" d="M 529.082031 65.152344 C 520.984375 20.734375 517.304688 47.9375 519.800781 133.796875 C 523.242188 252.210938 515.421875 299.867188 480.136719 375.578125 C 447.785156 444.988281 400.363281 501.589844 363.589844 514.691406 C 321.628906 529.644531 249.347656 514.804688 187.273438 478.492188 C 117.640625 437.769531 106.164062 392.003906 132.386719 259.609375 C 144.75 197.195312 157.773438 152.914062 169.132812 134.671875 C 172.054688 129.96875 177.769531 117.464844 181.820312 106.882812 C 185.875 96.300781 193.71875 81.507812 199.25 74.011719 C 204.785156 66.515625 207.507812 59.265625 205.296875 57.902344 C 198.386719 53.628906 180.890625 81.621094 161.308594 128.257812 C 137.941406 183.910156 135.132812 193.441406 120.933594 265.070312 C 106.460938 338.089844 104.519531 363.039062 110.949219 393.351562 C 122.867188 449.511719 154.015625 480.597656 226.289062 508.472656 C 309.296875 540.480469 367.53125 538.214844 404.90625 501.523438 C 429.441406 477.4375 459.90625 433.007812 481.992188 389.105469 L 504.597656 344.164062 L 502.3125 376.226562 C 501.054688 393.863281 499.109375 430.707031 497.992188 458.101562 C 496.875 485.496094 494.660156 516.050781 493.066406 526.003906 C 490.753906 540.476562 491.371094 543.707031 496.15625 542.109375 C 503.101562 539.800781 511.769531 454.136719 512.503906 380.503906 C 512.746094 355.8125 515.738281 323.78125 519.152344 309.320312 C 532.289062 253.613281 537.972656 113.894531 529.082031 65.152344 " fill-opacity="1" fill-rule="evenodd"/></svg>