<svg xmlns="http://www.w3.org/2000/svg" xmlns:xlink="http://www.w3.org/1999/xlink" width="940" zoomAndPan="magnify" viewBox="0 0 705 591.000005" height="788" preserveAspectRatio="xMidYMid meet" version="1.0"><path stroke-width="25"   stroke="#deb968"  fill="#deb968" d="M 457.648438 43.292969 C 452.980469 41.5 450.207031 53.246094 452.234375 66.230469 C 454.664062 81.777344 449.480469 154.601562 444.367188 176.722656 C 439.382812 198.300781 415.816406 269.707031 412.203125 274.195312 C 410.453125 276.367188 384.621094 351.6875 383.113281 359.003906 C 380.160156 373.335938 371.007812 411.46875 365.074219 434.144531 C 360.875 450.214844 353.277344 480.839844 348.199219 502.195312 C 339.90625 537.058594 338.683594 540.1875 336.25 532.808594 C 334.757812 528.289062 330.5 519.757812 326.789062 513.847656 C 315.257812 495.496094 305.871094 451.957031 298.203125 381.269531 C 296.625 366.726562 292.324219 335.417969 288.640625 311.695312 C 284.960938 287.96875 280.527344 258.539062 278.785156 246.296875 C 277.042969 234.050781 272.414062 207.75 268.503906 187.851562 C 258.128906 135.082031 256.09375 121.929688 257.679688 117.800781 C 259.71875 112.480469 251.683594 113.234375 248.65625 118.648438 C 247.199219 121.25 247.128906 126.292969 248.488281 130.472656 C 253.78125 146.710938 271.992188 252.226562 278.808594 306.128906 C 280.066406 316.078125 282.433594 331.105469 284.0625 339.523438 C 285.695312 347.941406 289.460938 376.121094 292.425781 402.140625 C 298.871094 458.636719 309.679688 506.644531 319.203125 521.054688 C 322.976562 526.757812 326.0625 532.636719 326.0625 534.113281 C 326.0625 538.449219 337.515625 556.59375 340.253906 556.59375 C 341.628906 556.59375 342.757812 554.699219 342.757812 552.382812 C 342.757812 550.066406 343.921875 545.996094 345.34375 543.335938 C 350.339844 533.984375 361.121094 493.464844 359.867188 488.75 C 359.511719 487.402344 361.757812 478.007812 364.867188 467.878906 C 373.003906 441.339844 381.628906 405.921875 381.679688 398.824219 C 381.742188 389.992188 418.785156 274.75 423.550781 268.558594 C 427.976562 262.8125 453.84375 175.945312 456.699219 157.242188 C 461.304688 127.09375 461.988281 44.960938 457.648438 43.292969 " fill-opacity="1" fill-rule="evenodd"/></svg>