<svg xmlns="http://www.w3.org/2000/svg" xmlns:xlink="http://www.w3.org/1999/xlink" width="940" zoomAndPan="magnify" viewBox="0 0 705 591.000005" height="788" preserveAspectRatio="xMidYMid meet" version="1.0"><path stroke-width="25"   stroke="#deb968"  fill="#deb968" d="M 487.628906 281.46875 C 486.527344 261.175781 484.828125 237.199219 483.851562 228.179688 C 478.375 177.496094 473.515625 137.308594 469.648438 110.675781 C 466.773438 90.871094 465.746094 70.59375 466.632812 51.238281 C 467.671875 28.589844 467.183594 21.863281 464.503906 21.863281 C 462.59375 21.863281 460.371094 24.628906 459.5625 28.011719 C 457.023438 38.621094 457.605469 87.804688 460.554688 112.042969 C 462.328125 126.613281 464.085938 141.1875 465.828125 155.765625 C 467.171875 167.035156 470.308594 192.246094 472.796875 211.785156 C 475.285156 231.324219 478.152344 274.363281 479.164062 307.429688 C 480.984375 366.660156 479.5 398.0625 473.898438 418.855469 C 470.324219 432.125 467.339844 430.117188 453.097656 404.863281 C 440.371094 382.289062 405.785156 312.492188 405.785156 309.378906 C 405.785156 308.117188 402.710938 300.710938 398.953125 292.921875 C 395.195312 285.136719 392.121094 277.585938 392.121094 276.152344 C 392.121094 274.714844 390.460938 272.558594 388.429688 271.355469 C 386.398438 270.15625 381.695312 263.023438 377.984375 255.507812 C 372.238281 243.875 370.070312 241.84375 363.429688 241.84375 C 357.089844 241.84375 355.1875 243.386719 353.3125 250.042969 C 351.292969 257.195312 345.484375 287.796875 341.378906 312.894531 C 340.640625 317.402344 339.316406 325.394531 338.441406 330.65625 C 333.816406 358.375 314.523438 425.554688 306.703125 441.15625 L 301.3125 451.90625 L 297.601562 441.15625 C 293.71875 429.90625 292.09375 422.160156 289.339844 401.707031 C 287.179688 385.644531 275.199219 323.902344 271.769531 311.136719 C 270.300781 305.660156 263.445312 274.300781 256.535156 241.453125 C 251.113281 215.613281 245.648438 189.785156 240.140625 163.960938 C 232.457031 128.359375 230.121094 115.953125 229.347656 106.574219 C 229.03125 102.703125 228.699219 98.832031 228.355469 94.960938 C 228.25 93.832031 225.539062 92.914062 222.335938 92.914062 C 215.582031 92.914062 215.5625 92.695312 226.675781 140.683594 C 230.5 157.191406 233.625 172.894531 233.625 175.585938 C 233.625 178.273438 236.082031 189.363281 239.082031 200.226562 C 242.082031 211.09375 248.921875 241.503906 254.269531 267.804688 C 259.621094 294.105469 265.675781 323.003906 267.722656 332.023438 C 271.589844 349.0625 277.097656 378.324219 283.921875 418.101562 C 288.589844 445.285156 293.898438 462.378906 298.105469 463.75 C 310.191406 467.707031 336.980469 386.691406 351.152344 303.328125 C 353.585938 288.980469 356.035156 274.632812 358.5 260.289062 C 361.625 242.3125 370.96875 252.746094 390.207031 295.679688 C 413.1875 346.976562 429.953125 381.570312 442.25 403.070312 C 453.070312 421.992188 467.5625 439.964844 472.003906 439.964844 C 476.984375 439.964844 484.464844 415.214844 487.3125 389.335938 C 490.597656 359.449219 490.664062 337.253906 487.628906 281.46875 " fill-opacity="1" fill-rule="evenodd"/></svg>