<svg xmlns="http://www.w3.org/2000/svg" xmlns:xlink="http://www.w3.org/1999/xlink" width="940" zoomAndPan="magnify" viewBox="0 0 705 591.000005" height="788" preserveAspectRatio="xMidYMid meet" version="1.0"><path stroke-width="25"   stroke="#deb968"  fill="#deb968" d="M 485.492188 32.339844 C 482.101562 32.484375 472.921875 45.59375 462.355469 65.382812 C 457.410156 74.640625 444.691406 97.445312 434.082031 116.066406 C 423.476562 134.683594 409.308594 160.4375 402.597656 173.292969 C 395.882812 186.144531 389.28125 196.667969 387.921875 196.667969 C 386.566406 196.667969 380.039062 181.796875 373.421875 163.621094 C 358.367188 122.289062 331.941406 67.300781 323.433594 59.601562 C 312.1875 49.421875 312.613281 57.167969 324.269531 74.824219 C 339.480469 97.863281 347.269531 113.71875 362.460938 152.527344 C 382.734375 204.339844 382.671875 206.566406 359.820312 244.023438 C 337.503906 280.59375 329.175781 295.574219 299.214844 353.03125 C 287.195312 376.082031 274.179688 400.019531 270.289062 406.226562 C 244.53125 447.332031 220.335938 493.648438 220.265625 501.988281 C 220.242188 505.175781 218.429688 510.851562 216.238281 514.601562 C 201.410156 539.980469 197.496094 549.121094 200.265625 551.890625 C 205.046875 556.671875 227.117188 523.277344 231.425781 504.738281 C 235.109375 488.886719 247.207031 464.15625 274.089844 417.511719 C 281.242188 405.097656 295.472656 378.984375 305.714844 359.480469 C 329.117188 314.898438 333.824219 306.792969 377.761719 235.359375 C 383.398438 226.191406 381.148438 219.691406 405.113281 314.34375 C 415.152344 353.996094 445.175781 493.582031 450.632812 526 C 451.722656 532.46875 454.753906 539.539062 457.363281 541.707031 C 464.4375 547.578125 464.425781 545.976562 457.105469 513.027344 C 454.496094 501.277344 445.273438 457.570312 436.613281 415.898438 C 427.953125 374.230469 416.347656 323.144531 410.824219 302.382812 C 405.296875 281.621094 398.554688 252.929688 395.84375 238.632812 C 391.496094 215.726562 391.476562 211.59375 395.640625 203.847656 C 398.242188 199.011719 406.246094 183.058594 413.421875 168.398438 C 420.601562 153.734375 433.777344 129.371094 442.707031 114.253906 C 451.636719 99.140625 463.164062 78.402344 468.324219 68.179688 C 473.488281 57.957031 480.007812 47.683594 482.808594 45.355469 C 488.023438 41.03125 489.851562 32.160156 485.492188 32.339844 " fill-opacity="1" fill-rule="evenodd"/></svg>