<svg xmlns="http://www.w3.org/2000/svg" xmlns:xlink="http://www.w3.org/1999/xlink" width="940" zoomAndPan="magnify" viewBox="0 0 705 591.000005" height="788" preserveAspectRatio="xMidYMid meet" version="1.0"><path stroke-width="25"   stroke="#deb968"  fill="#deb968" d="M 472.421875 45.582031 C 470.078125 44.136719 467.789062 50.714844 467.367188 60.097656 C 466.789062 72.914062 462.417969 101.332031 456.84375 128.460938 C 454.351562 140.613281 446.265625 161.246094 437.191406 178.628906 C 427.859375 196.496094 418.207031 212.078125 416.46875 212.078125 C 415.84375 212.078125 413.625 215.054688 411.539062 218.695312 C 409.457031 222.335938 404.570312 228.816406 400.679688 233.09375 C 396.792969 237.371094 390.53125 244.71875 386.765625 249.421875 C 371.097656 269.007812 339.96875 283.324219 317.570312 281.242188 C 306.332031 280.199219 301.992188 278.332031 295.503906 271.753906 C 286.226562 262.351562 282.785156 249.691406 282.859375 225.203125 C 282.929688 201.773438 289.066406 151.738281 292.703125 144.941406 C 293.445312 143.558594 295.527344 136.609375 297.328125 129.503906 C 301.296875 113.859375 307.078125 100.816406 314.082031 91.703125 C 316.953125 87.964844 320.410156 82.320312 321.769531 79.15625 C 323.125 75.996094 327.144531 69.996094 330.699219 65.828125 C 334.257812 61.660156 337.171875 57.839844 337.171875 57.339844 C 337.171875 56.839844 339.367188 55.246094 342.054688 53.800781 C 347.683594 50.769531 347.710938 48.527344 342.128906 47.871094 C 338.894531 47.492188 336.878906 48.882812 330.046875 56.234375 C 325.535156 61.082031 319.316406 69.882812 316.226562 75.789062 C 313.140625 81.695312 309.179688 88.28125 307.425781 90.425781 C 300.128906 99.335938 294.453125 111.835938 291.113281 126.371094 C 290.230469 130.203125 288.6875 135.21875 287.6875 137.519531 C 279.652344 155.921875 274.277344 230.601562 279.410156 252.492188 C 286.710938 283.621094 311.585938 295.066406 346.515625 283.363281 C 366.90625 276.53125 380.101562 266.964844 395.734375 247.683594 C 400.410156 241.917969 405.53125 236.289062 407.117188 235.179688 C 408.703125 234.070312 412.109375 230.144531 414.695312 226.453125 C 417.277344 222.761719 420.351562 218.488281 421.53125 216.953125 C 422.707031 215.421875 425.542969 211.710938 427.835938 208.710938 C 430.125 205.707031 432.367188 201.789062 432.816406 200 C 433.265625 198.210938 434.261719 196.746094 435.03125 196.746094 C 436.578125 196.746094 436.015625 200.773438 431.921875 219.042969 C 430.460938 225.558594 428.675781 235.28125 427.957031 240.644531 C 427.238281 246.011719 425.691406 255.730469 424.519531 262.246094 C 423.347656 268.761719 421.800781 277.855469 421.085938 282.453125 C 419.125 295.035156 407.359375 339.445312 404 346.949219 C 402.378906 350.566406 398.222656 361.367188 394.757812 370.949219 C 391.296875 380.53125 387.375 390.269531 386.042969 392.589844 C 384.707031 394.914062 383.160156 398.675781 382.605469 400.953125 C 382.050781 403.230469 380.089844 407.394531 378.253906 410.203125 C 376.414062 413.015625 371.691406 422.066406 367.765625 430.316406 C 363.835938 438.5625 359.097656 447.308594 357.238281 449.746094 C 355.375 452.1875 352.835938 457.246094 351.589844 460.992188 C 350.347656 464.738281 348.480469 468.785156 347.445312 469.988281 C 346.410156 471.1875 345.136719 474.3125 344.613281 476.929688 C 344.089844 479.546875 340.945312 485.738281 337.628906 490.683594 C 334.3125 495.632812 331.59375 500.289062 331.59375 501.035156 C 331.59375 502.613281 320.453125 517.75 318.785156 518.4375 C 318.167969 518.695312 317.660156 519.636719 317.664062 520.527344 C 317.664062 521.421875 312.929688 526.667969 307.144531 532.183594 C 295.757812 543.035156 290.3125 545.152344 278.996094 543.136719 C 271.085938 541.726562 257.769531 534.914062 250.625 528.625 C 242.195312 521.203125 238.210938 508.730469 238.21875 489.769531 C 238.222656 477.675781 242.097656 457.792969 245.214844 453.867188 C 245.824219 453.101562 246.765625 449.503906 247.308594 445.871094 C 248.375 438.710938 246.375 436.261719 241.632812 438.914062 C 239.382812 440.175781 232.695312 458.378906 229.746094 471.289062 C 227.085938 482.933594 228.917969 514.359375 232.832031 524.136719 C 235.058594 529.699219 243.261719 539.339844 247.28125 541.121094 C 248.816406 541.800781 251.011719 542.890625 252.160156 543.546875 C 256.433594 545.988281 264.226562 549.1875 271.507812 551.488281 C 279.296875 553.949219 297.511719 553.789062 299.351562 551.238281 C 299.839844 550.5625 302.746094 548.144531 305.8125 545.863281 C 308.878906 543.585938 312.851562 540.136719 314.636719 538.207031 C 316.421875 536.277344 320.949219 531.421875 324.703125 527.414062 C 328.449219 523.40625 333.210938 517.449219 335.28125 514.175781 C 342.714844 502.398438 355.285156 479.933594 355.285156 478.417969 C 355.285156 476.738281 364.191406 456.566406 366.429688 453.171875 C 367.191406 452.023438 374.054688 438.398438 381.6875 422.894531 C 393.726562 398.4375 410.527344 355.550781 416.503906 334.019531 C 417.734375 329.59375 422.058594 313.125 425.660156 299.175781 C 426.847656 294.578125 428.757812 283.917969 429.910156 275.484375 C 431.058594 267.054688 433.160156 256.078125 434.582031 251.097656 C 436 246.117188 437.914062 236.394531 438.839844 229.496094 C 439.761719 222.597656 441.8125 211.9375 443.398438 205.804688 C 444.980469 199.671875 447.203125 190.894531 448.335938 186.292969 C 449.46875 181.695312 452.496094 171.035156 455.066406 162.601562 C 457.632812 154.171875 460.035156 145.707031 460.398438 143.789062 C 460.761719 141.875 462.929688 131.839844 465.210938 121.492188 C 471.917969 91.058594 476.027344 47.8125 472.421875 45.582031 " fill-opacity="1" fill-rule="evenodd"/></svg>