<svg xmlns="http://www.w3.org/2000/svg" xmlns:xlink="http://www.w3.org/1999/xlink" width="940" zoomAndPan="magnify" viewBox="0 0 705 591.000005" height="788" preserveAspectRatio="xMidYMid meet" version="1.0"><path stroke-width="25"   stroke="#deb968"  fill="#deb968" d="M 570.890625 48.015625 C 570.085938 47.523438 564.550781 46.515625 558.585938 45.773438 C 547.019531 44.335938 530.222656 47.488281 510.039062 54.890625 C 496.785156 59.75 451.398438 70.488281 425.335938 74.933594 C 392.492188 80.535156 356.398438 79.289062 275.675781 69.765625 C 239.820312 65.53125 212.5 65.746094 207.015625 70.292969 C 203.710938 73.039062 203.5 82.117188 206.667969 85.285156 C 207.953125 86.570312 210.675781 87.625 212.71875 87.625 C 215.664062 87.625 216.191406 86.65625 215.269531 82.976562 C 214.394531 79.492188 215.007812 78.097656 217.722656 77.386719 C 222.347656 76.175781 263.714844 79.058594 280.269531 81.742188 C 287.234375 82.871094 300.8125 84.226562 310.453125 84.753906 C 320.089844 85.28125 337.976562 86.703125 350.199219 87.910156 C 374.378906 90.296875 403.855469 89.132812 430.203125 84.753906 C 439.308594 83.238281 449.382812 81.597656 452.597656 81.109375 C 455.808594 80.617188 466.203125 77.941406 475.695312 75.15625 C 485.183594 72.375 494.136719 70.097656 495.585938 70.097656 C 497.039062 70.097656 501.101562 68.851562 504.617188 67.328125 C 512.859375 63.757812 536.183594 56.925781 545.574219 55.328125 C 555.628906 53.621094 555.257812 57.824219 544.601562 66.273438 C 540.050781 69.882812 534.136719 74.78125 531.457031 77.160156 C 528.78125 79.535156 518.914062 88.101562 509.527344 96.195312 C 500.144531 104.292969 488.402344 115.53125 483.441406 121.175781 C 478.476562 126.820312 472.035156 133.625 469.125 136.304688 C 466.21875 138.980469 458.242188 147.683594 451.402344 155.640625 C 444.5625 163.597656 434.707031 174.550781 429.5 179.980469 C 416.363281 193.679688 394.535156 221.242188 378.507812 244.371094 C 371.085938 255.082031 362.277344 266.910156 358.933594 270.660156 C 355.585938 274.40625 351.433594 280.238281 349.707031 283.617188 C 347.980469 287 345.390625 290.941406 343.953125 292.378906 C 342.511719 293.820312 335.863281 303.605469 329.167969 314.125 C 315.195312 336.089844 309.855469 343.65625 290.980469 368.261719 C 283.484375 378.03125 275.488281 388.582031 273.210938 391.703125 C 270.9375 394.824219 266.539062 400.191406 263.4375 403.628906 C 260.335938 407.070312 251.859375 416.894531 244.601562 425.460938 C 237.339844 434.027344 229.285156 443.230469 226.699219 445.90625 C 224.113281 448.582031 219.117188 454.785156 215.597656 459.683594 C 205.726562 473.429688 174.191406 508.800781 154 528.773438 C 139.164062 543.449219 136.039062 547.535156 137.09375 550.863281 C 138.859375 556.425781 143.367188 555.945312 153.441406 549.117188 C 158.117188 545.949219 165.125 542.882812 169.019531 542.300781 C 172.910156 541.722656 180.476562 540.214844 185.832031 538.953125 C 197.976562 536.097656 215.402344 536.421875 259.949219 540.34375 C 279.15625 542.035156 309.769531 543.859375 327.976562 544.40625 C 346.183594 544.949219 365.898438 546.101562 371.789062 546.972656 C 377.679688 547.84375 403.964844 548.710938 430.203125 548.902344 C 472.59375 549.207031 478.671875 548.859375 484.71875 545.769531 C 493.558594 541.253906 494.425781 536.203125 487.351562 530.417969 C 479.511719 524.003906 472.734375 524.652344 479.273438 531.191406 C 485.035156 536.953125 477.648438 537.917969 429.980469 537.628906 C 403.996094 537.472656 376.984375 536.527344 369.960938 535.527344 C 362.933594 534.527344 342.726562 533.234375 325.054688 532.65625 C 307.386719 532.078125 279.347656 530.289062 262.746094 528.675781 C 226.652344 525.179688 193.003906 524.894531 182.640625 528 C 168.96875 532.097656 169.472656 531.140625 197.515625 499.84375 C 206.082031 490.28125 216.191406 478.234375 219.976562 473.070312 C 223.761719 467.902344 229.03125 461.652344 231.6875 459.175781 C 234.347656 456.695312 238.667969 451.601562 241.300781 447.851562 C 243.929688 444.105469 252.675781 433.277344 260.742188 423.796875 C 297.15625 380.972656 319.28125 350.683594 352.683594 297.917969 C 354.382812 295.242188 358.09375 290.421875 360.933594 287.210938 C 363.773438 283.996094 367.980469 278.300781 370.28125 274.554688 C 372.582031 270.804688 378.085938 262.917969 382.511719 257.027344 C 386.933594 251.140625 397.003906 237.558594 404.890625 226.847656 C 412.773438 216.136719 422.789062 203.515625 427.148438 198.792969 C 431.507812 194.074219 440 184.875 446.019531 178.347656 C 491.3125 129.257812 508.394531 111.53125 516.855469 104.84375 C 525.667969 97.875 549.773438 75.769531 566.003906 59.769531 C 572.191406 53.671875 573.800781 49.800781 570.890625 48.015625 " fill-opacity="1" fill-rule="evenodd"/></svg>