<svg xmlns="http://www.w3.org/2000/svg" xmlns:xlink="http://www.w3.org/1999/xlink" width="940" zoomAndPan="magnify" viewBox="0 0 705 591.000005" height="788" preserveAspectRatio="xMidYMid meet" version="1.0"><path stroke-width="25"   stroke="#deb968"  fill="#deb968" d="M 508.070312 93.917969 C 501.570312 88.445312 482.613281 77.007812 465.945312 68.5 C 437.480469 53.972656 433.710938 53.03125 403.816406 53.011719 C 365.554688 52.988281 342.539062 60.390625 315.816406 81.324219 C 287.34375 103.628906 251.21875 150.941406 218.480469 208.824219 C 212.3125 219.726562 202.492188 236.976562 196.652344 247.160156 C 174.894531 285.097656 169.261719 373.738281 186.179688 411.984375 C 190.554688 421.867188 199.8125 436.246094 206.757812 443.929688 C 213.703125 451.613281 220.863281 460.367188 222.667969 463.367188 C 227.324219 471.125 264.121094 499.398438 279.984375 507.417969 C 313.59375 524.417969 409.707031 532.535156 456.238281 522.308594 C 465.507812 520.269531 480.253906 517.597656 489.003906 516.371094 C 498.894531 514.976562 504.917969 512.1875 504.917969 509 C 504.917969 502.160156 485.703125 502.394531 462.195312 509.527344 C 436.875 517.207031 352.726562 517.042969 319.105469 509.242188 C 289.851562 502.460938 285.34375 500.238281 255.566406 477.929688 C 229.140625 458.132812 213.03125 438.714844 197.867188 408.382812 C 188.023438 388.6875 186.636719 381.992188 186.660156 354.085938 C 186.691406 317.464844 192.101562 279.617188 199.71875 262.769531 C 212.222656 235.105469 254.28125 168.128906 279.582031 135.597656 C 322.417969 80.511719 350.933594 64.328125 405.6875 64.042969 C 431.230469 63.90625 438.953125 65.480469 458.109375 74.703125 C 470.46875 80.652344 485.632812 89.234375 491.8125 93.777344 C 518.53125 113.417969 531.378906 113.53125 508.070312 93.917969 " fill-opacity="1" fill-rule="evenodd"/></svg>