<svg xmlns="http://www.w3.org/2000/svg" xmlns:xlink="http://www.w3.org/1999/xlink" width="940" zoomAndPan="magnify" viewBox="0 0 705 591.000005" height="788" preserveAspectRatio="xMidYMid meet" version="1.0"><path stroke-width="25"   stroke="#deb968"  fill="#deb968" d="M 512.5625 301.492188 C 509.753906 270.355469 504.796875 245.8125 497.457031 226.644531 C 492.867188 214.667969 488.078125 204.460938 486.808594 203.964844 C 485.539062 203.464844 484.5 201.828125 484.5 200.324219 C 484.5 187.945312 414.371094 108.796875 394.457031 98.699219 C 389.34375 96.105469 383.285156 92.351562 380.996094 90.351562 C 373.132812 83.492188 328.097656 61.855469 311 56.730469 L 293.882812 51.59375 L 275.714844 58.613281 C 263.117188 63.484375 257.222656 64.65625 256.484375 62.445312 C 254.359375 56.074219 250.566406 59.511719 247.226562 70.824219 C 243.8125 82.386719 243.070312 133.972656 244.628906 251.140625 C 245.464844 314.324219 240.117188 381.40625 229.757812 437.578125 C 226.03125 457.804688 216.957031 500.632812 214.804688 508.183594 C 214.191406 510.339844 215.621094 512.53125 217.988281 513.054688 C 223.230469 514.21875 225.664062 506.367188 235.070312 457.992188 C 246.074219 401.414062 256.160156 296.324219 254.539062 255.222656 C 249.671875 132.140625 249.824219 68.628906 254.96875 73.777344 C 255.722656 74.53125 265.0625 71.433594 275.722656 66.898438 L 295.105469 58.648438 L 312.914062 64.84375 C 354.011719 79.140625 405.839844 111.78125 431.039062 139.238281 C 452.621094 162.75 483.125 209.242188 492.382812 232.734375 C 505.207031 265.265625 508.097656 316.398438 499.1875 353.164062 C 492.664062 380.09375 477.132812 423.324219 470.5 433.023438 C 453.636719 457.683594 441.636719 466.351562 403.433594 481.484375 C 360.324219 498.558594 354.929688 500.28125 342.574219 500.902344 C 335.621094 501.253906 330.390625 502.300781 330.953125 503.234375 C 332.320312 505.503906 314.863281 508.253906 298.058594 508.414062 C 290.574219 508.484375 268.773438 510.730469 249.605469 513.40625 C 230.4375 516.085938 211.789062 518.140625 208.160156 517.984375 C 200.960938 517.667969 196.582031 524.027344 202.449219 526.277344 C 206.121094 527.683594 244.542969 523.871094 272.203125 519.355469 C 280.4375 518.007812 294.523438 516.804688 303.503906 516.675781 C 325.785156 516.359375 365.269531 506.042969 402.847656 490.722656 C 445.136719 473.476562 468.878906 454.648438 482.898438 427.246094 C 489.566406 414.222656 508.332031 351.433594 510.316406 335.515625 C 511.25 328.027344 512.332031 319.457031 512.71875 316.460938 C 513.105469 313.46875 513.039062 306.730469 512.5625 301.492188 " fill-opacity="1" fill-rule="evenodd"/></svg>