<svg xmlns="http://www.w3.org/2000/svg" xmlns:xlink="http://www.w3.org/1999/xlink" width="940" zoomAndPan="magnify" viewBox="0 0 705 591.000005" height="788" preserveAspectRatio="xMidYMid meet" version="1.0"><path stroke-width="25"   stroke="#deb968"  fill="#deb968" d="M 506.292969 55.675781 C 500.851562 56.523438 489.113281 58.085938 480.210938 59.164062 C 471.308594 60.238281 453.5 62.714844 440.636719 64.671875 C 404.335938 70.1875 296.214844 69.1875 269.617188 63.089844 C 265.585938 62.164062 258.222656 63.511719 253.253906 66.09375 C 244.585938 70.585938 244.1875 70.324219 243.476562 59.675781 C 241.839844 35.199219 234.378906 14.390625 227.234375 14.390625 C 225.578125 14.390625 225.175781 18.84375 226.34375 24.285156 C 227.511719 29.726562 229.273438 43.875 230.253906 55.71875 C 231.238281 67.566406 232.898438 79.960938 233.945312 83.257812 C 235.683594 88.726562 234.421875 98.019531 224.511719 152.894531 C 216.898438 195.054688 208.933594 270.785156 204.839844 339.964844 C 203.902344 355.792969 200.726562 401.121094 197.78125 440.695312 C 191.617188 523.484375 191.5625 525.523438 195.355469 531.492188 C 199.691406 538.316406 229.449219 540.488281 323.71875 540.855469 C 421.199219 541.234375 465.820312 538.019531 465.820312 530.625 C 465.820312 523.613281 458.683594 522.347656 442.4375 526.488281 C 426.070312 530.65625 228.535156 531.558594 212.761719 527.539062 L 202.53125 524.929688 L 204.9375 486.410156 C 206.261719 465.222656 207.964844 440.605469 208.71875 431.699219 C 209.476562 422.796875 211.046875 396.085938 212.210938 372.34375 C 213.371094 348.597656 215.039062 324.316406 215.914062 318.378906 C 216.792969 312.445312 218.328125 297.066406 219.328125 284.203125 C 224.023438 223.890625 230.363281 178.878906 241.1875 128.996094 C 244.039062 115.851562 246.375 98.992188 246.375 91.523438 C 246.375 84.058594 247.4375 79.015625 248.742188 80.316406 C 250.042969 81.617188 253.1875 80.957031 255.726562 78.847656 C 258.597656 76.46875 270.976562 75.746094 288.4375 76.945312 C 381.921875 83.378906 395.980469 83.410156 433.441406 77.289062 C 454.21875 73.894531 481.332031 70.308594 493.699219 69.320312 C 512.570312 67.808594 516.183594 66.441406 516.183594 60.832031 C 516.183594 55.5625 514.085938 54.46875 506.292969 55.675781 M 378.582031 293.925781 C 340.492188 294.882812 291.800781 296.773438 270.375 298.125 C 248.945312 299.476562 230.640625 299.328125 229.6875 297.792969 C 228.738281 296.253906 226.1875 294.996094 224.019531 294.996094 C 221.851562 294.996094 222.8125 298.019531 226.160156 301.714844 C 231.808594 307.960938 237.539062 308.335938 306.761719 307.023438 C 413.421875 305 447.832031 302.519531 447.832031 296.851562 C 447.832031 293.132812 433.816406 292.539062 378.582031 293.925781 " fill-opacity="1" fill-rule="evenodd"/></svg>