<svg xmlns="http://www.w3.org/2000/svg" xmlns:xlink="http://www.w3.org/1999/xlink" width="940" zoomAndPan="magnify" viewBox="0 0 705 591.000005" height="788" preserveAspectRatio="xMidYMid meet" version="1.0"><path stroke-width="25"   stroke="#deb968"  fill="#deb968" d="M 482.566406 106.921875 C 480.460938 105.613281 473.890625 106.394531 467.964844 108.644531 C 460.875 111.339844 440.382812 111.222656 407.984375 108.296875 C 321.882812 100.53125 252.566406 98.992188 245.6875 104.699219 C 240.816406 108.746094 238.1875 108.710938 233.160156 104.539062 C 227.53125 99.871094 227.121094 102.730469 229.609375 129.472656 C 231.152344 146.089844 230.265625 177.890625 227.636719 200.144531 C 225.007812 222.398438 218.976562 299.917969 214.230469 372.414062 C 209.488281 444.90625 204.546875 510.34375 203.257812 517.820312 C 199.949219 537 208.90625 535.25 213.9375 515.726562 C 218.320312 498.730469 227.113281 395.90625 227.09375 361.953125 C 227.078125 332.195312 230.621094 320.734375 237.960938 326.828125 C 241.382812 329.667969 261.265625 331.839844 286.617188 332.144531 C 320.695312 332.554688 339.351562 330.246094 377.605469 320.882812 C 404.074219 314.398438 435.636719 308.632812 447.746094 308.070312 C 470.015625 307.027344 481.167969 301.363281 476.335938 293.546875 C 473.242188 288.542969 455.949219 290.625 406.898438 301.90625 C 320.484375 321.78125 272.878906 326.605469 243.707031 318.4375 C 231.671875 315.070312 231.804688 317.875 237.542969 189.003906 L 240.769531 116.480469 L 251.652344 112.285156 C 263.785156 107.601562 331.359375 109.632812 408.988281 117.015625 C 436.605469 119.640625 465.320312 120.664062 472.800781 119.289062 C 486.113281 116.835938 490.214844 111.644531 482.566406 106.921875 " fill-opacity="1" fill-rule="evenodd"/></svg>