<svg xmlns="http://www.w3.org/2000/svg" xmlns:xlink="http://www.w3.org/1999/xlink" width="940" zoomAndPan="magnify" viewBox="0 0 705 591.000005" height="788" preserveAspectRatio="xMidYMid meet" version="1.0"><path stroke-width="25"   stroke="#deb968"  fill="#deb968" d="M 469.660156 398.738281 C 466.769531 392.09375 465.101562 391.714844 451.601562 394.652344 C 443.417969 396.433594 424.089844 398.953125 408.648438 400.257812 C 379.335938 402.726562 371.574219 405.804688 380.097656 411.582031 C 385.5625 415.28125 427.113281 413.003906 444.367188 408.050781 C 462.234375 402.929688 463.738281 406.417969 461.5 447.828125 C 460.394531 468.347656 457.457031 492.871094 454.976562 502.324219 L 450.464844 519.515625 L 421.25 519.597656 C 405.179688 519.640625 375.789062 518.398438 355.933594 516.84375 C 295.695312 512.113281 263.613281 492.4375 234.148438 442.160156 C 211.980469 404.332031 204.503906 377.597656 202.421875 328.707031 C 200.199219 276.632812 207.53125 239.863281 229.003906 195.425781 C 244.34375 163.667969 276.867188 127.132812 312.957031 101.105469 C 341.648438 80.414062 349.1875 77.734375 378.660156 77.734375 C 408.453125 77.734375 435.929688 87.988281 448.3125 103.730469 C 457.328125 115.195312 457.429688 121.652344 448.757812 132.742188 C 441.253906 142.335938 440.207031 146.492188 445.300781 146.492188 C 447.175781 146.492188 453.320312 140.136719 458.945312 132.371094 C 468.667969 118.953125 468.921875 117.75 464.039062 108.304688 C 461.210938 102.835938 459.765625 98.363281 460.824219 98.363281 C 461.882812 98.363281 457.464844 93.71875 451.003906 88.046875 C 444.542969 82.375 437.910156 77.722656 436.273438 77.710938 C 434.632812 77.699219 428.648438 75.039062 422.972656 71.792969 C 410.167969 64.472656 356.460938 64.179688 340.164062 71.347656 C 321.449219 79.578125 275.757812 116.222656 255.257812 139.441406 C 231.761719 166.058594 211.546875 205.632812 200.734375 246.195312 C 194.457031 269.722656 192.980469 284.121094 193.132812 320.109375 C 193.304688 361.007812 194.277344 367.726562 204.558594 399.183594 C 210.742188 418.09375 216.953125 434.339844 218.363281 435.285156 C 219.777344 436.230469 224.339844 443.730469 228.511719 451.953125 C 247.738281 489.878906 286.566406 516.871094 335.304688 526.203125 C 344.9375 528.046875 394.347656 530.910156 440.164062 532.28125 C 456.589844 532.773438 458.148438 531.441406 464.050781 511.777344 C 470.816406 489.261719 474.726562 410.398438 469.660156 398.738281 " fill-opacity="1" fill-rule="evenodd"/></svg>