<svg xmlns="http://www.w3.org/2000/svg" xmlns:xlink="http://www.w3.org/1999/xlink" width="940" zoomAndPan="magnify" viewBox="0 0 705 591.000005" height="788" preserveAspectRatio="xMidYMid meet" version="1.0"><path stroke-width="25"   stroke="#deb968"  fill="#deb968" d="M 552.128906 47.3125 C 550.15625 41.699219 546.597656 37.105469 544.21875 37.109375 C 541.085938 37.109375 539.824219 56.289062 539.652344 106.6875 C 539.449219 165.90625 534.660156 226.328125 528.375 249.046875 C 527.011719 253.972656 523.910156 254.53125 511.039062 252.171875 C 487.175781 247.800781 425.089844 247.976562 391.964844 252.511719 C 365.988281 256.066406 203.582031 267.136719 201.378906 265.5 C 200.917969 265.160156 203.023438 244.105469 206.054688 218.710938 C 209.34375 191.027344 212.480469 163.328125 215.457031 135.605469 C 217.59375 115.292969 221.972656 85.234375 225.179688 68.816406 C 233 28.78125 233.453125 9.277344 226.5625 9.277344 C 220.957031 9.277344 211.824219 59.804688 204.09375 133.585938 C 202.066406 152.972656 198.816406 182.195312 196.882812 198.523438 C 194.945312 214.847656 190.007812 258.265625 185.914062 295 C 170.714844 431.375 158.039062 509.285156 146.609375 536.644531 C 143.519531 544.039062 140.992188 552.648438 140.992188 555.777344 C 140.992188 560.632812 142.027344 560.527344 148.078125 555.046875 C 158.6875 545.449219 174.859375 481.960938 179.816406 430.441406 C 181.09375 417.175781 185.398438 383.777344 189.375 356.226562 C 193.351562 328.675781 196.621094 300.652344 196.632812 293.957031 C 196.644531 287.257812 198.738281 281.074219 201.289062 280.210938 C 209.082031 277.570312 376.941406 266.386719 434.136719 264.699219 C 463.726562 263.824219 495.453125 264.476562 504.636719 266.148438 C 520.398438 269.019531 521.398438 269.925781 522.445312 282.316406 C 524.609375 307.902344 500.679688 471.015625 489.335938 508.015625 C 480.996094 535.203125 485.304688 548.558594 494.957031 525.457031 C 506.488281 497.851562 515.421875 450.210938 532.25 326.539062 C 535.445312 303.070312 539.917969 272.179688 542.195312 257.894531 C 553.253906 188.464844 558.992188 66.890625 552.128906 47.3125 " fill-opacity="1" fill-rule="evenodd"/></svg>