<svg xmlns="http://www.w3.org/2000/svg" xmlns:xlink="http://www.w3.org/1999/xlink" width="940" zoomAndPan="magnify" viewBox="0 0 705 591.000005" height="788" preserveAspectRatio="xMidYMid meet" version="1.0"><path stroke-width="25"   stroke="#deb968"  fill="#deb968" d="M 459.132812 509.359375 C 456.28125 507.597656 324.988281 517.382812 304.945312 520.851562 C 294.695312 522.605469 284.433594 524.292969 274.164062 525.917969 C 264.992188 527.359375 255.179688 529.332031 252.359375 530.300781 C 249.539062 531.269531 244.921875 532.390625 242.097656 532.796875 L 226.066406 535.097656 C 219.199219 536.082031 215.164062 537.984375 215.164062 540.238281 C 215.164062 545.28125 228.023438 544.816406 252.515625 538.890625 C 281.945312 531.769531 320.109375 526.503906 374.203125 522.09375 C 400.304688 519.96875 430.019531 517.539062 440.238281 516.695312 C 457.792969 515.25 464.46875 512.660156 459.132812 509.359375 M 441.636719 58.398438 C 434.480469 51.9375 415.152344 48.210938 394.828125 49.371094 C 381.609375 50.128906 375.28125 49.453125 372.851562 47.023438 C 368.308594 42.484375 363.945312 42.695312 363.945312 47.457031 C 363.945312 50.339844 360.878906 51.308594 351.761719 51.308594 C 338.609375 51.3125 303.328125 57.070312 290.835938 61.246094 C 286.605469 62.664062 276.792969 64.472656 269.035156 65.265625 C 261.273438 66.054688 252.617188 67.132812 249.792969 67.65625 C 246.972656 68.179688 243.796875 68.753906 242.742188 68.933594 C 241.683594 69.113281 240.816406 70.996094 240.816406 73.109375 C 240.816406 79.210938 250.117188 78.207031 321.472656 64.425781 C 336.910156 61.441406 352.492188 59.003906 356.101562 59.003906 L 362.660156 59.007812 L 362.660156 104.535156 C 362.660156 129.578125 364.101562 165.648438 365.867188 184.695312 C 375.222656 285.792969 375.40625 305.101562 367.777344 384.777344 C 363.066406 433.96875 361.972656 471.699219 365.226562 472.582031 C 366.636719 472.960938 368.640625 465.773438 369.679688 456.601562 C 383.105469 338.027344 384.964844 272.519531 376.890625 202.652344 C 373.449219 172.875 371.695312 141.238281 371.671875 108.683594 L 371.640625 59.601562 L 378.695312 58.207031 C 386.585938 56.648438 418.296875 57.816406 427.886719 60.019531 C 431.308594 60.804688 434.921875 62.761719 435.914062 64.371094 C 437.105469 66.296875 439.175781 66.480469 441.972656 64.914062 C 445.890625 62.722656 445.863281 62.214844 441.636719 58.398438 " fill-opacity="1" fill-rule="evenodd"/></svg>