<svg xmlns="http://www.w3.org/2000/svg" xmlns:xlink="http://www.w3.org/1999/xlink" width="503" zoomAndPan="magnify" viewBox="0 0 377.25 347.249998" height="463" preserveAspectRatio="xMidYMid meet" version="1.0"><path fill="#acd9f9" d="M 142.226562 84.566406 C 144.050781 84.847656 144.050781 84.847656 145.96875 86.0625 C 146.996094 87.316406 147.882812 88.613281 148.769531 89.96875 C 149.757812 91.480469 149.757812 91.480469 151.671875 93.035156 C 153.53125 95.136719 153.808594 96.050781 154.433594 98.691406 C 155.023438 100.929688 155.542969 102.339844 157.003906 104.152344 C 159.34375 106.300781 161.140625 107.605469 164.207031 108.515625 C 166.160156 108.664062 166.160156 108.664062 167.671875 107.765625 C 169.4375 108.46875 171.183594 109.214844 172.910156 110.011719 C 172.296875 108.363281 171.597656 107.191406 170.3125 105.988281 C 169.195312 105.066406 168.066406 104.164062 166.921875 103.277344 L 165.660156 104.167969 L 163.929688 104.773438 C 161.964844 103.886719 161.964844 103.886719 160.1875 102.527344 C 158.691406 100.285156 158.691406 100.285156 158.457031 98.039062 L 158.691406 95.792969 C 159.828125 94.53125 159.828125 94.53125 160.933594 93.546875 C 166.214844 96.351562 170 99.304688 173.65625 104.023438 L 175.214844 105.707031 C 177.003906 108.273438 177.53125 110.722656 178.007812 113.753906 L 178.289062 115.457031 C 179.492188 123.519531 178.125 131.253906 176.652344 139.199219 C 175.152344 137.703125 175.152344 137.703125 174.652344 135.882812 C 173.734375 130.5625 173.628906 125.832031 174.40625 120.488281 L 171.414062 121.988281 C 171.027344 132.070312 172.117188 141.277344 175.945312 150.605469 C 176.941406 153.121094 177.410156 154.808594 177.15625 157.527344 L 176.652344 159.40625 L 178.148438 159.40625 L 178.148438 145.933594 C 180.394531 145.933594 180.394531 145.933594 182.636719 147.152344 C 184.882812 148.929688 184.882812 148.929688 186.191406 150.753906 C 187.605469 154.785156 188.09375 158.921875 188.625 163.148438 C 190.589844 162.519531 192.121094 161.972656 193.863281 160.902344 C 195.09375 159.445312 196.132812 157.921875 197.203125 156.34375 C 198.417969 154.835938 199.335938 154.238281 201.066406 153.417969 C 203.582031 152.203125 203.582031 152.203125 204.429688 150.492188 L 205.136719 148.882812 C 205.824219 147.3125 205.824219 147.3125 206.585938 145.933594 C 208.738281 144.4375 208.738281 144.4375 211.078125 143.691406 C 213.507812 143.503906 213.507812 143.503906 215.566406 143.691406 L 217.0625 144.4375 L 216.316406 147.429688 L 208.832031 148.929688 L 209.578125 151.921875 C 212.527344 151.691406 214.4375 151.429688 216.921875 149.769531 C 218.671875 148.183594 218.671875 148.183594 220.058594 145.933594 L 220.011719 143.082031 C 220.179688 141.484375 220.179688 141.484375 220.804688 139.949219 C 223.304688 137.933594 226.105469 136.730469 229.039062 135.457031 L 231.316406 134.429688 C 233.53125 133.464844 235.761719 132.578125 238.019531 131.714844 L 239.722656 130.984375 C 246.203125 128.546875 253.660156 128.847656 260.46875 129.46875 C 263.6875 130.097656 266.480469 131.089844 269.449219 132.464844 L 271.671875 133.453125 C 277.570312 136.234375 284.375 139.515625 288.75 144.453125 C 290.09375 146.648438 290.265625 148.628906 290.40625 151.171875 L 288.910156 153.417969 C 285.882812 152.074219 283.816406 150.097656 281.425781 147.851562 C 280.015625 146.585938 280.015625 146.585938 278.292969 146.289062 L 276.933594 145.933594 L 276.1875 143.691406 L 273.941406 142.941406 L 273.941406 144.4375 L 272.398438 144.0625 C 268.570312 143.414062 264.988281 143.523438 261.21875 144.4375 C 259.722656 139.386719 259.722656 139.386719 259.722656 137.703125 L 257.851562 138.078125 C 254.863281 138.503906 252.261719 138.652344 249.242188 138.449219 L 247.746094 136.207031 L 249.992188 132.464844 L 246.25 133.210938 L 246.574219 135.8125 C 247.503906 144.714844 247.503906 144.714844 246.179688 147.921875 C 245.035156 149.300781 244.042969 150.25 242.507812 151.171875 C 240.355469 151.875 240.355469 151.875 238.765625 151.921875 C 238.996094 150.917969 239.242188 149.921875 239.515625 148.929688 L 240.261719 148.179688 C 240.4375 147.046875 240.570312 145.90625 240.683594 144.765625 L 240.875 142.890625 L 241.011719 141.445312 L 243.257812 142.191406 L 242.507812 138.449219 C 241.257812 138.691406 240.011719 138.945312 238.765625 139.199219 L 237.308594 139.320312 C 235.359375 139.566406 233.851562 139.929688 232.03125 140.695312 C 229.695312 142.554688 227.628906 144.492188 225.507812 146.59375 L 223.800781 148.179688 L 222.300781 148.179688 L 222.300781 149.675781 L 220.617188 151.265625 C 218.203125 153.792969 217 156.261719 215.566406 159.40625 C 215.042969 160.515625 214.511719 161.621094 213.976562 162.726562 L 213.269531 164.222656 L 212.574219 165.394531 L 211.078125 166.140625 C 210.0625 166.058594 209.046875 165.964844 208.035156 165.859375 C 206.210938 165.765625 206.210938 165.765625 204.339844 166.140625 C 201.554688 167.796875 199.148438 169.839844 196.855469 172.128906 C 196.480469 173.871094 196.480469 173.871094 196.855469 175.871094 C 198.648438 177.976562 198.648438 177.976562 200.597656 179.613281 L 190.871094 180.359375 L 190.949219 182.605469 C 190.96875 183.601562 190.992188 184.601562 191.011719 185.597656 L 191.089844 188.546875 C 191.035156 190.78125 190.625 192.449219 189.769531 194.507812 C 188.375 197.882812 188.214844 201.0625 188.109375 204.683594 L 188.03125 206.546875 C 187.972656 208.046875 187.921875 209.546875 187.875 211.042969 L 189.625 209.953125 C 191.625 208.796875 193.101562 208.40625 195.359375 208.050781 L 197.605469 207.300781 C 197.1875 209.804688 196.59375 211.816406 195.359375 214.039062 L 199.101562 213.289062 C 198.109375 215.539062 197.089844 216.933594 195.214844 218.519531 L 193.785156 219.738281 L 192.273438 221.007812 L 190.738281 222.316406 C 188.628906 224.117188 186.511719 225.902344 184.386719 227.679688 C 180.628906 230.824219 180.628906 230.824219 178.148438 234.992188 L 178.054688 236.582031 L 178.894531 237.984375 C 181.507812 239.328125 181.507812 239.328125 184.132812 240.230469 L 184.132812 241.726562 C 182.796875 242.480469 181.453125 243.226562 180.113281 243.972656 L 177.851562 245.234375 C 175.902344 246.21875 175.902344 246.21875 174.40625 246.21875 L 173.65625 238.734375 L 172.160156 239.484375 C 172.03125 240.914062 171.953125 242.347656 171.925781 243.785156 C 171.644531 248.027344 171.644531 248.027344 170.640625 249.914062 C 169.683594 250.941406 169.683594 250.941406 167.671875 252.207031 C 166.859375 252.226562 166.859375 252.226562 166.035156 252.253906 C 164.675781 251.457031 164.675781 251.457031 163.742188 249.914062 L 163.179688 248.464844 L 166.921875 244.722656 L 165.425781 243.226562 C 162.652344 244.953125 160.414062 246.398438 158.691406 249.210938 L 157.941406 251.457031 L 159.203125 251.550781 C 160.933594 252.207031 160.933594 252.207031 162.945312 254.308594 C 165.15625 257.355469 165.15625 257.355469 165.425781 259.6875 C 164.128906 260.199219 164.128906 260.199219 162.429688 260.4375 C 160.214844 259.179688 158.425781 257.566406 156.445312 255.945312 L 156.445312 266.425781 L 160.933594 266.425781 C 163.390625 267.6875 165.421875 269.28125 167.671875 270.914062 L 163.929688 278.398438 C 167.222656 280.046875 167.222656 280.046875 169.089844 279.757812 C 175.757812 277.167969 181.585938 273.96875 186.917969 269.191406 C 188.894531 267.71875 190.753906 267.09375 193.117188 266.425781 C 192.589844 268.78125 191.796875 270.933594 190.871094 273.160156 C 192.953125 272.292969 194.941406 271.363281 196.855469 270.167969 C 198.152344 268.460938 198.152344 268.460938 198.355469 266.425781 C 198.121094 263.519531 197.742188 262.136719 196.109375 259.6875 C 193.585938 259.984375 192.34375 260.453125 190.261719 261.980469 C 187.875 263.429688 187.875 263.429688 186.261719 263.628906 C 184.800781 263.621094 183.34375 263.53125 181.890625 263.429688 C 180.890625 261.933594 180.410156 260.707031 180.292969 258.90625 C 180.296875 257.421875 180.34375 255.933594 180.394531 254.449219 L 177.398438 254.449219 L 178.195312 255.761719 L 178.894531 257.445312 C 178.476562 259.691406 177.710938 261.832031 176.980469 263.992188 L 176.367188 265.804688 L 175.902344 267.171875 L 170.664062 267.171875 L 170.664062 264.179688 L 173.65625 264.179688 L 173.28125 262.683594 C 172.816406 259.882812 172.417969 257.269531 172.910156 254.449219 C 174.40625 252.347656 174.40625 252.347656 176.652344 250.707031 C 178.160156 250.023438 179.664062 249.453125 181.238281 248.929688 C 182.785156 248.414062 184.199219 247.742188 185.632812 246.964844 L 184.132812 245.46875 L 187.875 238.734375 L 193.117188 239.484375 L 192.367188 237.984375 C 192.023438 235.984375 192.023438 235.984375 192.367188 233.496094 C 193.714844 231.464844 195.375 229.792969 197.089844 228.070312 L 198.441406 226.65625 C 200.34375 224.683594 202.046875 223.050781 204.339844 221.523438 C 207.101562 221.800781 207.101562 221.800781 209.578125 222.269531 L 208.832031 220.773438 C 208.65625 215.882812 208.65625 215.882812 209.578125 214.039062 C 211.617188 213.726562 211.617188 213.726562 214.117188 213.570312 L 216.621094 213.398438 L 218.558594 213.289062 L 218.699219 211.378906 L 218.886719 208.894531 L 219.070312 206.417969 C 219.308594 204.308594 219.308594 204.308594 220.058594 202.8125 C 221.460938 202.953125 221.460938 202.953125 223.050781 203.558594 C 223.984375 205.476562 223.984375 205.476562 224.546875 207.300781 L 226.792969 206.554688 L 227.539062 205.292969 L 227.539062 203.558594 L 225.625 201.410156 L 223.800781 199.070312 C 224.21875 196.730469 224.21875 196.730469 225.296875 194.578125 L 226.136719 192.800781 L 226.792969 191.585938 L 224.921875 191.773438 C 221.542969 191.53125 219.21875 190.246094 216.316406 188.59375 L 216.316406 187.097656 C 225.035156 182.285156 225.035156 182.285156 228.289062 182.277344 C 230.085938 182.539062 231.796875 182.800781 233.527344 183.355469 L 231.75 181.765625 C 229.722656 179.542969 229.023438 177.996094 228.289062 175.121094 L 229.691406 174.328125 C 231.527344 172.890625 231.527344 172.890625 232.21875 170.117188 L 232.78125 167.636719 L 233.996094 168.433594 C 235.777344 169.285156 235.777344 169.285156 237.855469 168.996094 C 240.703125 168.277344 242.324219 167.117188 244.660156 165.347656 C 248.832031 162.292969 253.136719 159.921875 257.808594 157.714844 C 260.875 156.257812 263.722656 154.714844 266.457031 152.671875 C 267.230469 151.1875 267.980469 149.6875 268.703125 148.179688 C 270.339844 147.152344 270.339844 147.152344 271.695312 146.683594 L 273.191406 148.179688 C 272.785156 152.734375 272.785156 152.734375 271.695312 154.914062 C 271.664062 156.660156 271.664062 158.40625 271.695312 160.152344 L 273.191406 160.902344 L 273.191406 159.40625 L 276.1875 159.40625 C 275.902344 161.714844 275.441406 163.144531 274.1875 165.128906 L 272.632812 167.171875 L 271.003906 169.332031 L 269.449219 171.378906 C 268.695312 172.421875 267.949219 173.464844 267.207031 174.515625 L 265.707031 176.617188 C 267.1875 178.339844 267.1875 178.339844 269.824219 178.863281 C 272.445312 179.613281 272.445312 179.613281 273.941406 181.109375 C 273.660156 183.074219 273.660156 183.074219 273.191406 184.851562 L 269.449219 184.101562 L 269.449219 182.605469 L 261.964844 181.855469 L 263.464844 183.214844 L 264.960938 184.851562 L 264.960938 187.097656 C 263.539062 188.296875 263.539062 188.296875 261.6875 189.480469 L 259.84375 190.683594 C 258.226562 191.585938 258.226562 191.585938 256.726562 191.585938 L 254.484375 206.554688 L 252.238281 205.804688 C 251.347656 203.515625 251.347656 203.515625 250.742188 201.316406 C 249.058594 201.675781 247.722656 202.078125 246.203125 202.90625 L 244.753906 203.558594 L 242.507812 202.8125 L 242.425781 204.207031 L 242.273438 206.039062 L 242.144531 207.855469 C 241.761719 209.546875 241.761719 209.546875 240.8125 210.875 C 239.515625 211.792969 239.515625 211.792969 237.929688 212.0625 L 236.195312 212.027344 L 234.46875 212.019531 C 232.78125 211.792969 232.78125 211.792969 231.222656 211.011719 L 229.785156 210.296875 C 227.402344 210.527344 227.402344 210.527344 225.296875 211.042969 L 228.289062 213.289062 C 227.203125 216.125 225.929688 218.816406 224.546875 221.523438 L 229.039062 220.773438 L 229.039062 223.765625 C 227.9375 224.640625 227.9375 224.640625 226.417969 225.402344 C 223.023438 227.320312 220.921875 229.785156 218.527344 232.828125 C 217.0625 234.242188 217.0625 234.242188 215.136719 234.84375 C 213.320312 234.992188 213.320312 234.992188 211.355469 234.570312 L 209.578125 234.242188 L 207.335938 235.742188 L 209.160156 236.441406 C 211.078125 237.238281 211.078125 237.238281 211.824219 237.984375 C 211.816406 239.140625 211.785156 240.292969 211.730469 241.445312 C 211.6875 245.148438 212.28125 247.476562 214.070312 250.707031 L 215.566406 251.457031 L 214.820312 249.960938 C 214.410156 247.65625 214.410156 247.65625 214.820312 244.722656 C 216.484375 242.273438 218.519531 240.253906 220.617188 238.171875 C 221.164062 237.609375 221.710938 237.042969 222.273438 236.464844 C 227.074219 231.546875 227.074219 231.546875 229.785156 229.753906 C 231.84375 229.613281 231.84375 229.613281 233.527344 229.753906 C 235.773438 234.058594 235.773438 234.058594 235.773438 235.742188 L 237.269531 235.742188 L 237.269531 230.503906 L 241.011719 229.753906 L 241.011719 227.835938 C 241.761719 225.261719 241.761719 225.261719 242.90625 223.929688 C 245.964844 221.164062 249.148438 219.085938 252.855469 217.28125 C 254.980469 215.976562 256.5 214.339844 258.226562 212.539062 L 260.234375 210.585938 C 263.832031 207.058594 267.242188 203.585938 270.109375 199.414062 C 270.945312 198.320312 270.945312 198.320312 272.445312 197.574219 C 273.941406 197.542969 275.4375 197.542969 276.933594 197.574219 L 276.699219 195.1875 L 276.933594 192.335938 C 278.523438 190.601562 278.523438 190.601562 280.675781 188.59375 C 281.449219 187.773438 282.222656 186.953125 282.984375 186.125 L 285.445312 183.542969 L 286.667969 182.207031 C 289.675781 179.089844 289.675781 179.089844 291.882812 178.40625 C 293.335938 178.195312 293.335938 178.195312 295.644531 178.117188 L 294.507812 176.910156 L 293.398438 175.121094 C 293.34375 172.863281 293.34375 172.863281 293.632812 170.445312 L 293.90625 168 L 294.148438 166.140625 L 287.410156 167.636719 C 287.644531 165.113281 287.644531 165.113281 288.160156 162.398438 L 290.40625 160.902344 L 290.734375 158.28125 L 291.152344 155.664062 C 292.699219 154.589844 292.699219 154.589844 294.148438 154.167969 C 298.757812 157.003906 298.757812 157.003906 300.375 159.332031 C 301.933594 162.34375 302.582031 165.039062 303.128906 168.386719 L 304.238281 169.378906 L 305.371094 170.632812 C 306.839844 177.777344 306.625 185.929688 305.371094 193.082031 C 305.613281 194.082031 305.863281 195.082031 306.121094 196.078125 C 306.550781 200.414062 305.9375 204.113281 304.585938 208.238281 L 303.875 209.546875 L 301.632812 210.296875 C 300.398438 207.597656 299.964844 205.566406 300.039062 202.609375 C 300.050781 201.867188 300.0625 201.125 300.074219 200.363281 L 300.191406 195.738281 C 300.257812 191.558594 300.214844 188.007812 298.636719 184.101562 C 296.753906 183.019531 295.558594 182.605469 293.398438 182.605469 L 293.503906 184.582031 C 293.695312 190.878906 293.160156 196.320312 290.40625 202.0625 L 288.910156 202.8125 C 288.488281 201.410156 288.488281 201.410156 288.160156 199.820312 L 288.910156 198.320312 L 287.410156 197.574219 L 286.664062 202.0625 L 288.160156 202.0625 L 288.160156 203.558594 C 286.929688 204.558594 286.929688 204.558594 285.308594 205.664062 C 283.429688 207.035156 282.097656 208.144531 280.628906 209.96875 C 280.398438 210.570312 280.164062 211.171875 279.929688 211.792969 L 280.675781 215.535156 L 293.398438 215.535156 L 294.148438 217.78125 L 296.390625 217.78125 L 297.890625 212.539062 L 299.386719 212.539062 C 300.132812 214.039062 300.132812 214.039062 300.367188 216.328125 C 300 220.941406 297.902344 224.511719 295.832031 228.585938 C 294.785156 230.371094 294.785156 230.371094 294.894531 232 L 298.636719 232.746094 L 297.890625 236.488281 C 296.671875 236.867188 295.457031 237.238281 294.242188 237.613281 L 292.1875 238.242188 C 290.40625 238.734375 290.40625 238.734375 288.910156 238.734375 L 288.429688 239.988281 C 287.0625 242.328125 285.140625 243.867188 283.109375 245.609375 C 279.769531 248.558594 277.109375 251.425781 274.828125 255.292969 C 273.910156 256.742188 273.011719 257.839844 271.695312 258.941406 C 270.199219 258.753906 270.199219 258.753906 268.703125 258.191406 L 266.457031 257.445312 L 266.457031 261.933594 C 265.054688 262.730469 265.054688 262.730469 263.464844 263.429688 L 261.964844 262.683594 L 262.714844 255.945312 L 260.46875 255.199219 C 260.664062 253.695312 260.921875 252.195312 261.21875 250.707031 L 262.714844 249.210938 C 264.585938 249.351562 264.585938 249.351562 266.457031 249.960938 L 267.953125 252.207031 L 269.449219 252.207031 C 270.691406 250.160156 270.691406 250.160156 271.695312 247.714844 C 271.542969 245.628906 271.542969 245.628906 270.945312 243.972656 L 277.683594 241.726562 L 277.683594 238.734375 L 276.394531 239.199219 C 269.339844 241.660156 269.339844 241.660156 265.707031 241.726562 C 263.765625 240.910156 262.234375 239.921875 260.46875 238.734375 L 261.59375 240.464844 C 262.714844 242.476562 262.714844 242.476562 262.714844 244.722656 C 261.457031 246.007812 261.457031 246.007812 259.816406 247.339844 C 257.863281 248.933594 256.648438 250.078125 255.230469 252.207031 C 255.105469 254.167969 255.105469 254.167969 255.230469 255.945312 L 256.679688 256.273438 C 258.226562 256.695312 258.226562 256.695312 258.972656 257.445312 C 259.003906 258.691406 259.003906 259.9375 258.972656 261.1875 C 256.234375 259.605469 254.675781 258.53125 253.078125 255.761719 L 252.238281 253.703125 L 251.007812 254.382812 L 249.382812 255.246094 L 247.78125 256.113281 L 246.25 256.695312 L 244.003906 255.945312 C 243.492188 254.402344 243.492188 254.402344 243.257812 252.953125 L 241.011719 254.449219 C 240.574219 256.4375 240.574219 256.4375 240.496094 258.660156 L 240.347656 260.933594 L 240.261719 262.683594 L 241.691406 262.191406 C 245.886719 260.824219 249.328125 260.191406 253.734375 260.4375 L 254.484375 263.429688 C 251.425781 264.578125 248.648438 263.902344 245.503906 263.429688 L 246.25 265.675781 C 250.523438 266.230469 254.664062 266.503906 258.972656 266.425781 C 257.945312 268.15625 257.945312 268.15625 255.980469 270.167969 C 251.003906 272.464844 245.109375 273.203125 239.765625 274.324219 C 236.789062 274.957031 234.105469 275.746094 231.28125 276.902344 L 229.039062 276.902344 L 229.039062 279.148438 L 226.746094 279.382812 C 223.226562 279.996094 220.03125 280.929688 217.234375 283.234375 C 215.046875 284.746094 212.921875 285.320312 210.375 286.070312 C 209.308594 286.390625 208.246094 286.710938 207.183594 287.035156 L 205.449219 287.558594 C 202.023438 288.609375 198.621094 289.722656 195.21875 290.839844 L 193.1875 291.496094 C 189.890625 292.585938 187.09375 293.765625 184.132812 295.613281 C 182.40625 295.378906 182.40625 295.378906 181.140625 294.863281 C 181.421875 292.683594 181.769531 291.296875 183.03125 289.472656 L 184.414062 287.941406 L 185.789062 286.386719 C 187.128906 285.132812 187.128906 285.132812 189.375 284.386719 L 190.121094 282.140625 L 184.132812 282.140625 L 184.882812 276.902344 L 181.890625 276.902344 L 181.882812 278.433594 C 181.792969 280.496094 181.617188 282.375 181.140625 284.386719 C 179.226562 286.300781 177.792969 287.023438 175.234375 287.820312 C 173.023438 288.277344 171.304688 288.324219 169.136719 287.65625 C 165.851562 286.140625 163.300781 284.054688 160.640625 281.632812 C 159.121094 280.382812 157.558594 279.75 155.695312 279.148438 L 154.949219 278.398438 C 154.683594 276.796875 154.457031 275.191406 154.246094 273.582031 C 153.644531 269.15625 152.898438 264.800781 151.953125 260.4375 L 149.710938 261.933594 C 147.839844 261.792969 147.839844 261.792969 145.96875 261.1875 L 144.890625 260.0625 L 143.722656 258.941406 C 141.394531 258.398438 141.394531 258.398438 139.230469 258.191406 L 139.140625 256.65625 C 138.761719 253.289062 138.300781 250.746094 136.292969 247.957031 C 134.566406 246.089844 132.792969 244.28125 131 242.476562 C 128.601562 239.695312 126.753906 237.464844 125.855469 233.871094 L 125.761719 232 L 128.007812 231.25 L 131 234.992188 L 131.746094 232.746094 C 130.84375 230.910156 129.863281 229.117188 128.800781 227.367188 L 127.925781 225.882812 C 127.210938 224.675781 126.488281 223.472656 125.761719 222.269531 L 122.765625 222.269531 C 119.765625 221.871094 117.660156 220.335938 115.285156 218.527344 C 114.207031 217.03125 114.207031 217.03125 113.785156 215.535156 C 114.0625 213.246094 114.710938 212.277344 116.03125 210.296875 L 119.023438 210.296875 L 119.023438 213.289062 L 126.507812 215.535156 L 126.507812 212.539062 L 128.007812 212.539062 C 129.820312 216.257812 131.285156 220.109375 132.402344 224.09375 C 133.605469 228.1875 135.257812 231.5 137.605469 235.046875 L 138.484375 236.488281 L 138.484375 237.984375 C 141.703125 238.132812 142.980469 237.984375 145.96875 236.488281 L 143.722656 229.753906 C 145.789062 230.316406 147.242188 231.039062 148.800781 232.515625 C 149.703125 233.464844 150.59375 234.425781 151.46875 235.394531 L 152.703125 236.488281 L 154.949219 236.488281 L 156.445312 231.25 L 153.449219 230.503906 L 152.703125 226.761719 L 150.679688 226.511719 L 148.023438 226.152344 L 145.394531 225.808594 C 142.972656 225.261719 142.972656 225.261719 141.164062 224.285156 L 139.980469 223.019531 C 139.765625 221.484375 139.765625 221.484375 139.933594 219.792969 C 140.066406 217.140625 139.9375 216.179688 138.859375 213.617188 L 137.734375 211.792969 L 136.988281 217.03125 L 135.488281 217.03125 C 134.074219 215.070312 132.761719 213.070312 131.46875 211.023438 C 129.429688 207.925781 127.472656 206.183594 124.265625 204.308594 C 124.492188 203.304688 124.742188 202.308594 125.011719 201.316406 L 125.761719 200.566406 L 125.761719 199.070312 L 122.765625 200.566406 L 122.019531 198.320312 C 120.511719 197.773438 120.511719 197.773438 119.023438 197.574219 L 118.277344 192.335938 L 116.875 192.800781 L 115.285156 193.082031 L 113.785156 191.585938 L 113.785156 188.59375 C 114.984375 188.40625 116.1875 188.238281 117.386719 188.078125 L 119.414062 187.789062 L 121.269531 187.84375 C 122.636719 188.953125 122.636719 188.953125 123.515625 190.089844 L 124.265625 187.84375 C 127.3125 187.660156 129.25 187.734375 132.074219 188.96875 L 133.992188 190.089844 C 132.589844 194.394531 132.589844 194.394531 131.746094 196.078125 L 134.742188 196.824219 L 136.238281 203.558594 L 139.230469 204.308594 C 140.210938 205.757812 140.210938 205.757812 141.054688 207.628906 L 142.003906 209.65625 L 142.972656 211.792969 C 143.636719 213.183594 144.308594 214.570312 144.984375 215.957031 L 145.882812 217.828125 C 146.292969 218.546875 146.292969 218.546875 146.714844 219.277344 C 148.742188 220.289062 150.464844 220.074219 152.703125 220.023438 L 151.207031 217.78125 L 148.210938 218.527344 L 148.210938 215.535156 L 146.714844 214.039062 C 146.484375 211.605469 146.429688 209.191406 146.371094 206.75 C 146.15625 204.25 146.15625 204.25 144.527344 202.449219 L 142.972656 200.566406 C 142.164062 198.066406 142.164062 198.066406 141.617188 195.375 L 141.042969 192.6875 C 140.726562 190.078125 140.953125 188.15625 141.476562 185.597656 L 141.476562 182.605469 L 139.230469 181.109375 L 139.230469 178.863281 L 141.476562 178.117188 L 139.980469 177.132812 L 138.484375 175.871094 L 138.484375 173.625 L 140.726562 173.625 L 140.726562 171.378906 L 138.484375 171.378906 L 138.484375 172.875 L 136.988281 172.875 L 135.488281 166.140625 L 138.484375 164.644531 C 140.914062 165.300781 140.914062 165.300781 142.972656 166.140625 C 144.175781 165.253906 144.175781 165.253906 145.21875 163.894531 C 145.40625 161.929688 145.40625 161.929688 145.21875 160.152344 L 148.210938 160.152344 L 146.714844 169.132812 L 143.722656 169.132812 C 143.519531 172.613281 143.519531 172.613281 144.46875 175.871094 L 143.722656 176.617188 C 146.277344 176.742188 146.277344 176.742188 148.960938 176.617188 L 150.457031 175.121094 L 152.703125 175.121094 L 151.953125 181.109375 L 154.433594 182.371094 C 156.480469 183.527344 157.238281 184.167969 158.644531 186.160156 L 159.4375 187.84375 L 159.4375 181.855469 L 157.941406 181.109375 C 157.640625 179.371094 157.390625 177.625 157.191406 175.871094 C 156.949219 174.371094 156.699219 172.875 156.445312 171.378906 C 154.324219 171.191406 154.324219 171.191406 151.953125 171.378906 C 150.289062 172.441406 150.289062 172.441406 148.960938 173.625 L 147.464844 173.625 C 147.511719 172.082031 147.511719 172.082031 148.210938 169.882812 C 149.488281 168.449219 150.835938 167.164062 152.257812 165.878906 C 153.636719 164.632812 153.636719 164.632812 154.199219 162.398438 C 152.179688 160.066406 150.476562 158.480469 147.605469 157.300781 C 144.492188 156.246094 141.75 156.238281 138.484375 156.414062 L 136.238281 163.148438 L 131.746094 163.148438 L 131 161.652344 C 131.882812 159.835938 131.882812 159.835938 133.152344 157.675781 C 134.730469 154.980469 135.796875 152.78125 136.238281 149.675781 L 138.148438 150.003906 L 140.636719 150.425781 L 143.109375 150.847656 C 145.109375 151.210938 145.109375 151.210938 146.714844 151.171875 L 145.96875 148.554688 C 145.152344 145.359375 145.160156 142.484375 145.21875 139.199219 L 144.46875 138.449219 C 144.285156 136.066406 144.285156 136.066406 144.46875 133.210938 L 145.6875 130.875 L 146.714844 128.722656 C 146.171875 126.710938 146.171875 126.710938 145.21875 124.980469 L 145.21875 122.734375 L 139.230469 123.484375 C 138.71875 121.753906 138.71875 121.753906 138.484375 119.742188 C 139.214844 118.976562 139.964844 118.230469 140.726562 117.496094 C 140.566406 115.816406 140.101562 114.707031 139.242188 113.261719 C 138.195312 110.839844 137.992188 108.511719 137.6875 105.894531 C 137.339844 102.964844 136.980469 100.144531 136.238281 97.289062 C 136.066406 95.136719 135.941406 93.40625 136.238281 91.304688 C 137.492188 88.925781 138.820312 87.234375 140.683594 85.316406 Z M 142.972656 86.8125 L 142.226562 87.5625 C 142.195312 89.308594 142.195312 91.054688 142.226562 92.800781 L 145.96875 93.546875 L 145.21875 87.5625 Z M 139.980469 94.296875 C 140.117188 96.496094 140.117188 96.496094 140.726562 98.785156 C 142.1875 99.859375 142.1875 99.859375 143.722656 100.285156 L 143.722656 101.78125 L 145.21875 101.78125 L 145.96875 103.277344 L 147.464844 103.277344 L 147.464844 101.03125 L 148.960938 100.285156 L 149.710938 102.527344 L 151.207031 102.527344 L 150.457031 99.535156 L 148.960938 99.535156 L 148.632812 97.710938 L 148.210938 95.792969 L 147.464844 95.042969 C 146.203125 94.875 144.941406 94.734375 143.675781 94.625 L 141.589844 94.433594 Z M 140.726562 106.269531 L 140.726562 108.515625 L 143.722656 108.515625 L 143.722656 106.269531 Z M 151.953125 107.765625 L 153.449219 110.011719 L 154.949219 110.011719 L 154.949219 108.515625 Z M 144.46875 110.761719 L 144.46875 113.753906 L 145.96875 115.25 C 147.785156 115.761719 147.785156 115.761719 149.800781 116.09375 L 151.867188 116.472656 L 153.449219 116.746094 L 153.777344 118.199219 C 154.058594 119.722656 154.058594 119.722656 154.949219 120.488281 L 149.710938 121.988281 L 150.457031 123.484375 L 155.695312 123.484375 C 157.667969 118.34375 157.667969 118.34375 158.691406 113.007812 C 157.691406 111.632812 157.691406 111.632812 156.445312 110.761719 L 155.695312 111.507812 C 155.664062 112.757812 155.664062 114.003906 155.695312 115.25 L 153.449219 113.753906 L 150.457031 113.753906 L 149.710938 110.761719 Z M 160.933594 115.25 L 161.683594 117.496094 Z M 145.21875 117.496094 L 146.714844 119.742188 L 147.464844 117.496094 Z M 162.757812 121.753906 L 160.511719 122.882812 L 158.691406 124.230469 C 158 126.179688 158 126.179688 157.941406 127.972656 L 161.683594 127.226562 L 162.429688 129.46875 L 160.1875 130.21875 L 161.636719 131.621094 C 163.179688 133.210938 163.179688 133.210938 163.929688 134.710938 C 164.097656 136.109375 164.234375 137.511719 164.351562 138.917969 L 164.539062 141.195312 L 164.675781 142.941406 L 168.417969 142.941406 C 169.277344 141.496094 169.277344 141.496094 169.183594 139.929688 C 169.023438 138.144531 168.835938 136.453125 168.417969 134.710938 L 166.921875 133.210938 L 165.425781 131.714844 C 164.941406 129.480469 164.773438 127.261719 164.675781 124.980469 L 166.921875 124.230469 C 167.839844 121.980469 167.839844 121.980469 168.417969 119.742188 C 166.199219 119.742188 164.71875 120.738281 162.757812 121.753906 M 148.960938 124.980469 L 150.457031 127.972656 L 153.449219 127.972656 L 153.449219 125.726562 Z M 155.695312 132.464844 L 155.695312 136.953125 L 157.941406 136.953125 L 157.941406 132.464844 Z M 259.722656 134.710938 L 259.722656 136.953125 L 261.964844 136.207031 L 261.964844 134.710938 Z M 150.457031 135.457031 L 149.710938 137.703125 L 151.207031 137.703125 Z M 252.984375 135.457031 L 252.984375 137.703125 L 254.484375 137.703125 L 253.734375 135.457031 Z M 160.933594 139.199219 L 160.933594 141.445312 L 163.179688 141.445312 L 163.179688 139.199219 Z M 274.6875 139.199219 L 275.4375 140.695312 Z M 152.703125 140.695312 L 152.703125 144.4375 L 155.695312 145.1875 L 155.695312 142.941406 L 153.449219 142.941406 Z M 148.960938 149.675781 L 148.960938 153.417969 L 151.207031 154.167969 L 151.207031 149.675781 Z M 154.199219 153.417969 L 154.199219 155.664062 L 156.445312 155.664062 L 155.695312 153.417969 Z M 174.40625 154.167969 L 172.910156 158.65625 L 170.664062 158.65625 L 170.664062 166.890625 L 172.910156 166.890625 L 172.910156 160.902344 L 175.152344 160.152344 L 175.152344 154.167969 Z M 184.132812 156.414062 L 181.890625 158.65625 L 182.5625 159.792969 C 183.660156 162.265625 184.113281 164.804688 184.601562 167.449219 L 184.90625 169.03125 C 185.152344 170.3125 185.394531 171.59375 185.632812 172.875 L 187.875 173.625 C 188.066406 167.992188 187.339844 162.707031 186.378906 157.160156 Z M 204.339844 156.414062 L 204.339844 157.910156 L 199.851562 158.65625 L 199.851562 160.152344 L 204.339844 160.902344 L 204.339844 162.398438 C 206.105469 163.65625 206.105469 163.65625 208.082031 164.644531 L 209.578125 164.644531 L 209.578125 162.398438 L 208.082031 161.652344 C 207.777344 159.914062 207.527344 158.167969 207.335938 156.414062 Z M 261.964844 157.910156 L 259.722656 159.40625 L 259.722656 162.398438 L 263.464844 160.902344 L 262.714844 164.644531 L 258.972656 165.394531 L 257.476562 169.882812 C 259.125 170.261719 259.125 170.261719 261.21875 169.882812 C 263.183594 168.605469 264.941406 167.1875 266.457031 165.394531 L 266.457031 163.148438 L 269.449219 163.148438 C 268.699219 161.328125 268 160.199219 266.550781 158.84375 L 264.960938 157.910156 Z M 155.695312 158.65625 L 156.445312 160.902344 Z M 209.578125 160.152344 L 209.578125 161.652344 L 211.078125 160.902344 Z M 294.894531 160.152344 L 294.148438 162.398438 L 296.390625 162.398438 L 295.644531 160.152344 Z M 256.726562 160.152344 L 254.484375 162.398438 L 257.476562 161.652344 Z M 196.855469 162.398438 L 196.855469 164.644531 L 193.863281 164.644531 L 193.863281 166.140625 L 190.871094 166.890625 L 190.121094 170.632812 L 192.367188 171.378906 L 193.117188 169.882812 C 195.082031 169.003906 197.058594 168.320312 199.101562 167.636719 L 199.101562 163.148438 Z M 175.152344 163.148438 L 174.734375 166 L 174.496094 167.605469 C 174.300781 169.285156 174.300781 169.285156 175.152344 171.378906 L 178.148438 170.632812 C 178.417969 169.527344 178.683594 168.417969 178.941406 167.3125 L 179.390625 165.441406 L 179.644531 163.894531 L 178.894531 163.148438 C 177.648438 163.117188 176.402344 163.117188 175.152344 163.148438 M 161.683594 164.644531 L 160.933594 165.394531 C 160.902344 166.640625 160.902344 167.886719 160.933594 169.132812 L 164.675781 169.132812 L 164.675781 165.394531 C 163.21875 164.953125 163.21875 164.953125 161.683594 164.644531 M 180.394531 168.386719 C 180.625 169.851562 180.859375 171.316406 181.09375 172.78125 L 181.488281 175.257812 C 181.78125 177.320312 181.78125 177.320312 182.636719 178.863281 L 184.132812 178.863281 C 184.394531 174.632812 183.710938 172.105469 181.890625 168.386719 Z M 264.210938 169.132812 L 264.210938 171.378906 L 265.707031 171.378906 L 265.707031 169.132812 Z M 167.671875 171.378906 L 168.417969 173.625 Z M 298.636719 171.378906 L 298.636719 175.871094 L 300.882812 175.121094 L 300.882812 171.378906 Z M 249.992188 172.875 L 249.992188 174.375 L 248.496094 174.375 L 248.496094 175.871094 L 250.742188 175.871094 Z M 175.152344 173.625 L 175.152344 177.367188 L 178.894531 178.117188 L 179.644531 181.855469 L 181.890625 181.855469 L 181.890625 178.117188 L 179.644531 178.117188 L 179.644531 175.871094 L 177.398438 175.871094 L 177.398438 173.625 Z M 167.671875 175.871094 C 166.472656 176.730469 166.472656 176.730469 165.425781 178.117188 C 165.046875 181.105469 165.277344 184.089844 165.425781 187.097656 C 165.449219 187.765625 165.472656 188.4375 165.496094 189.128906 C 165.585938 191.128906 165.585938 191.128906 166.171875 193.832031 L 167.613281 194.480469 L 169.167969 195.328125 C 170.828125 199.195312 171.4375 203.390625 172.25 207.503906 L 172.910156 209.546875 L 175.152344 210.296875 L 175.152344 196.078125 L 178.894531 194.578125 L 178.894531 193.082031 L 173.65625 190.835938 L 172.910156 194.578125 L 171.414062 194.578125 L 171.300781 191.980469 L 171.132812 188.546875 C 171.109375 187.984375 171.085938 187.421875 171.0625 186.839844 C 170.875 183.21875 170.402344 180.039062 169.167969 176.617188 Z M 186.378906 175.871094 L 185.773438 178.023438 C 185.296875 179.703125 184.800781 181.375 184.285156 183.042969 L 183.667969 185.039062 C 183.472656 185.660156 183.277344 186.28125 183.074219 186.921875 C 182.542969 188.667969 182.542969 188.667969 182.636719 190.835938 L 187.128906 190.835938 C 187.804688 188.8125 187.964844 187.667969 187.949219 185.589844 L 187.941406 183.871094 L 187.921875 182.089844 L 187.914062 180.28125 C 187.902344 178.8125 187.890625 177.339844 187.875 175.871094 Z M 191.617188 175.871094 L 190.871094 177.367188 L 192.367188 177.367188 Z M 242.507812 173.625 L 241.011719 177.367188 L 238.765625 176.617188 C 237.769531 176.363281 236.773438 176.113281 235.773438 175.871094 L 235.023438 179.613281 C 237.820312 180.269531 240.386719 180.488281 243.257812 180.359375 L 244.753906 179.613281 L 244.753906 174.375 Z M 251.488281 175.871094 L 249.992188 177.367188 C 250.230469 179.316406 250.230469 179.316406 250.742188 181.109375 L 246.25 181.109375 L 246.25 182.605469 L 247.78125 182.636719 C 249.828125 182.746094 251.734375 182.910156 253.734375 183.355469 C 255.699219 185.273438 255.699219 185.273438 256.726562 187.097656 L 255.980469 188.59375 L 261.21875 188.59375 L 261.964844 185.597656 L 258.226562 184.851562 L 257.476562 178.117188 C 256.234375 177.828125 254.988281 177.582031 253.734375 177.367188 L 252.984375 178.117188 Z M 258.226562 175.871094 L 258.972656 178.117188 L 261.964844 177.367188 L 261.964844 175.871094 Z M 232.03125 178.117188 L 233.527344 179.613281 L 233.527344 178.117188 Z M 300.882812 178.117188 L 300.882812 186.347656 L 303.128906 185.597656 L 303.128906 178.863281 Z M 174.40625 179.613281 L 174.40625 181.855469 L 172.910156 182.605469 L 172.910156 188.59375 L 174.3125 188.125 L 175.902344 187.84375 L 177.398438 189.339844 C 178.976562 189.101562 178.976562 189.101562 180.394531 188.59375 C 180.101562 186.109375 179.507812 184.613281 178.242188 182.417969 L 176.652344 180.359375 Z M 240.261719 181.855469 L 240.261719 184.101562 L 242.507812 184.101562 L 241.761719 181.855469 Z M 236.523438 182.605469 L 236.523438 184.101562 L 238.019531 183.355469 Z M 148.960938 185.597656 C 148.667969 186.839844 148.417969 188.085938 148.210938 189.339844 L 148.960938 190.835938 L 151.207031 190.835938 L 151.207031 188.59375 L 152.703125 187.84375 L 151.207031 187.84375 L 150.457031 185.597656 Z M 235.773438 187.097656 L 235.773438 191.585938 L 238.019531 190.089844 L 238.019531 188.59375 L 243.257812 188.59375 L 242.507812 185.597656 C 239.667969 185.597656 238.296875 185.976562 235.773438 187.097656 M 145.21875 186.347656 L 144.46875 188.59375 L 145.21875 190.835938 L 147.464844 190.835938 L 146.714844 186.347656 Z M 153.449219 186.347656 L 153.449219 193.082031 L 155.695312 193.082031 L 155.695312 186.347656 Z M 226.042969 187.097656 L 226.042969 188.59375 L 230.535156 188.59375 L 230.535156 186.347656 C 228.25 186.230469 228.25 186.230469 226.042969 187.097656 M 285.167969 186.347656 C 284.429688 189.378906 284.355469 192.214844 284.417969 195.328125 L 287.410156 196.078125 L 287.410156 194.578125 L 289.65625 194.578125 L 289.65625 186.347656 Z M 247.746094 187.097656 L 247.746094 198.320312 L 250.742188 197.574219 C 251.847656 195.359375 251.535156 193.277344 251.488281 190.835938 L 249.992188 190.835938 L 249.992188 188.59375 L 251.488281 188.59375 L 250.742188 186.347656 C 249.714844 186.308594 249.714844 186.308594 247.746094 187.097656 M 232.78125 188.59375 L 232.78125 191.585938 L 234.277344 190.835938 Z M 244.003906 188.59375 L 244.003906 190.835938 L 246.25 190.835938 L 246.25 188.59375 Z M 124.265625 190.835938 L 125.011719 192.335938 Z M 128.753906 190.835938 L 128.753906 193.082031 L 131.746094 193.082031 L 131.746094 190.835938 Z M 148.960938 191.585938 L 146.714844 193.832031 L 149.710938 193.832031 Z M 156.445312 193.082031 C 155.800781 194.421875 155.160156 195.761719 154.527344 197.105469 L 153.449219 199.367188 L 152.703125 201.316406 L 153.449219 202.8125 L 155.695312 202.8125 L 156.445312 204.308594 C 158.210938 204.15625 158.210938 204.15625 160.1875 203.558594 C 161.902344 202.09375 161.902344 202.09375 163.179688 200.566406 L 162.429688 198.320312 L 161.683594 200.566406 L 160.1875 199.820312 L 160.84375 195.214844 L 160.933594 193.832031 L 160.1875 193.082031 C 158.9375 193.050781 157.691406 193.050781 156.445312 193.082031 M 238.765625 193.082031 L 239.515625 195.328125 L 241.011719 195.328125 L 241.011719 196.824219 L 239.515625 196.824219 L 239.515625 199.070312 L 242.507812 199.070312 L 242.507812 197.574219 L 246.25 196.824219 L 246.25 193.082031 L 244.753906 193.082031 L 243.257812 194.578125 L 241.761719 193.082031 Z M 179.175781 194.8125 L 177.398438 196.078125 L 177.398438 198.320312 L 178.894531 198.320312 L 178.816406 199.878906 L 178.753906 201.921875 L 178.675781 203.949219 L 178.894531 205.804688 C 179.832031 207.179688 179.832031 207.179688 181.140625 208.050781 C 183.089844 208.589844 183.089844 208.589844 184.882812 208.800781 C 185.070312 206.648438 185.070312 206.648438 184.882812 204.308594 C 183.945312 202.871094 183.945312 202.871094 182.636719 202.0625 L 181.140625 202.0625 L 182.636719 193.832031 C 181 193.71875 181 193.71875 179.175781 194.8125 M 279.179688 195.328125 L 279.179688 196.824219 L 282.171875 196.824219 L 282.171875 202.8125 L 284.417969 202.8125 C 283.984375 198.839844 283.984375 198.839844 282.171875 195.328125 Z M 228.289062 197.574219 L 228.289062 199.070312 L 231.28125 198.320312 Z M 148.210938 198.320312 L 148.210938 200.566406 Z M 270.199219 201.316406 C 269.90625 202.554688 269.65625 203.800781 269.449219 205.058594 L 270.199219 206.554688 C 271.445312 206.585938 272.695312 206.582031 273.941406 206.554688 L 274.6875 205.804688 C 274.71875 204.308594 274.722656 202.8125 274.6875 201.316406 Z M 231.28125 202.8125 L 231.28125 204.308594 C 232.726562 204.042969 232.726562 204.042969 234.277344 203.558594 L 235.773438 202.0625 C 232.945312 201.839844 232.945312 201.839844 231.28125 202.8125 M 131.746094 203.558594 L 132.496094 209.546875 L 136.238281 210.296875 L 135.488281 204.308594 Z M 166.921875 203.558594 C 165.96875 206.289062 165.179688 208.945312 164.675781 211.792969 L 160.933594 212.539062 C 160.902344 213.789062 160.902344 215.035156 160.933594 216.28125 L 161.683594 217.03125 C 163.523438 217.21875 163.523438 217.21875 165.425781 217.03125 L 166.921875 215.535156 L 166.921875 212.539062 L 169.914062 211.792969 L 169.167969 204.308594 Z M 153.449219 205.804688 L 153.449219 208.050781 L 154.949219 208.050781 L 154.949219 205.804688 Z M 177.398438 209.546875 L 178.242188 211.980469 L 178.894531 214.785156 C 178.242188 216.46875 178.242188 216.46875 177.398438 217.78125 L 177.398438 220.023438 C 179.484375 220.402344 179.484375 220.402344 181.890625 220.023438 C 184.121094 218.046875 184.121094 218.046875 185.632812 215.535156 L 185.632812 212.539062 L 181.890625 212.539062 L 181.890625 210.296875 Z M 148.960938 210.296875 L 149.710938 212.539062 L 151.207031 212.539062 L 151.953125 214.785156 L 155.695312 214.785156 L 155.695312 212.539062 C 154.902344 211.1875 154.902344 211.1875 153.449219 210.296875 C 151.113281 210.109375 151.113281 210.109375 148.960938 210.296875 M 155.695312 210.296875 L 155.695312 212.539062 L 157.941406 212.539062 L 157.941406 210.296875 Z M 264.210938 211.042969 C 264.695312 213.652344 265.785156 215.554688 267.207031 217.78125 L 269.449219 217.03125 L 268.703125 211.042969 Z M 270.945312 212.539062 L 270.945312 214.039062 L 274.6875 214.785156 L 274.6875 213.289062 Z M 172.910156 214.785156 L 172.910156 220.773438 L 175.152344 220.773438 L 175.152344 214.785156 Z M 187.875 214.785156 L 187.875 218.527344 L 190.121094 219.277344 L 190.121094 214.785156 Z M 212.574219 215.535156 C 211.308594 216.609375 211.308594 216.609375 210.328125 217.78125 C 213.152344 218.003906 213.152344 218.003906 214.820312 217.03125 L 214.820312 215.535156 Z M 257.476562 217.03125 L 256.726562 220.773438 L 259.722656 220.773438 L 259.722656 217.03125 Z M 276.933594 217.03125 L 276.933594 219.277344 L 279.929688 219.277344 L 279.929688 217.03125 Z M 218.558594 217.78125 L 214.070312 218.527344 L 214.070312 220.773438 L 219.308594 220.023438 Z M 266.457031 218.527344 C 266.253906 222.007812 266.253906 222.007812 267.207031 225.261719 L 270.199219 225.261719 L 270.199219 221.523438 L 267.953125 220.773438 L 267.207031 218.527344 Z M 281.425781 218.527344 L 280.675781 220.773438 L 281.425781 223.019531 L 286.664062 223.019531 L 287.410156 219.277344 C 285.382812 218.261719 283.664062 218.480469 281.425781 218.527344 M 184.132812 219.277344 C 183.3125 220.09375 182.519531 220.933594 181.75 221.800781 C 180.339844 223.269531 179.246094 224.355469 177.386719 225.195312 C 175.949219 225.589844 175.949219 225.589844 173.65625 226.011719 L 172.910156 223.765625 C 171.4375 223.789062 171.4375 223.789062 169.914062 224.515625 C 169.398438 226.003906 168.898438 227.503906 168.417969 229.003906 C 167.4375 229.773438 166.4375 230.523438 165.425781 231.25 L 164.722656 233.167969 L 163.929688 234.992188 C 161.964844 235.976562 161.964844 235.976562 160.1875 236.488281 L 160.933594 238.734375 C 165.492188 237.453125 165.492188 237.453125 169.542969 235.085938 C 170.808594 233.289062 171.171875 231.925781 171.414062 229.753906 L 174.125 229.988281 C 175.78125 230.035156 175.78125 230.035156 177.398438 229.753906 C 179.824219 228.078125 179.824219 228.078125 181.890625 226.011719 L 184.042969 224.9375 L 185.632812 223.765625 C 185.945312 221.425781 185.945312 221.425781 185.632812 219.277344 Z M 291.902344 223.019531 L 291.902344 227.507812 L 294.148438 227.507812 L 294.148438 223.019531 Z M 285.167969 225.261719 L 285.167969 227.507812 C 286.941406 227.757812 286.941406 227.757812 288.910156 227.507812 C 290.289062 226.085938 290.289062 226.085938 291.152344 224.515625 C 288.824219 224.515625 287.332031 224.644531 285.167969 225.261719 M 201.347656 225.261719 L 200.738281 227.089844 L 199.851562 229.003906 L 197.605469 229.753906 L 198.355469 232 L 204.339844 232 L 203.59375 225.261719 Z M 276.933594 225.261719 L 276.328125 227.039062 L 275.4375 229.003906 L 273.191406 230.503906 L 273.191406 232 L 269.449219 232 L 270.199219 234.242188 L 273.941406 234.242188 L 274.6875 232 L 278.429688 234.242188 L 279.179688 233.496094 C 279.210938 232.25 279.210938 231 279.179688 229.753906 C 284.324219 231.15625 284.324219 231.15625 285.167969 232 C 286.414062 232.027344 287.660156 232.03125 288.910156 232 L 289.65625 229.753906 L 287.316406 229.144531 C 284.675781 228.398438 282.371094 227.261719 279.929688 226.011719 C 278.253906 225.5 278.253906 225.5 276.933594 225.261719 M 131 226.011719 L 131.746094 227.507812 Z M 254.484375 224.515625 L 253.734375 226.761719 L 249.992188 226.011719 L 249.242188 227.507812 L 251.488281 227.507812 L 252.238281 229.753906 L 254.484375 229.003906 L 255.230469 224.515625 Z M 206.585938 227.507812 L 208.082031 230.503906 L 209.578125 227.507812 Z M 258.972656 227.507812 L 258.226562 234.242188 L 255.230469 234.242188 L 255.230469 235.742188 C 256.984375 235.546875 258.730469 235.292969 260.46875 234.992188 L 261.964844 233.496094 C 262.089844 230.8125 262.089844 230.8125 261.964844 228.257812 Z M 252.984375 231.25 L 253.734375 232.746094 Z M 265.707031 231.25 L 265.707031 232.746094 L 267.207031 232.746094 L 267.207031 231.25 Z M 229.785156 232.746094 C 228.117188 233.53125 228.117188 233.53125 226.792969 234.992188 C 225.890625 236.902344 225.890625 236.902344 225.296875 238.734375 L 224.546875 239.484375 C 224.515625 241.230469 224.515625 242.976562 224.546875 244.722656 L 218.558594 246.21875 L 218.558594 247.714844 L 223.050781 247.714844 L 223.050781 249.210938 L 226.792969 249.210938 L 225.296875 246.21875 L 226.441406 245.445312 C 227.992188 244.289062 229.292969 243.214844 230.535156 241.726562 C 230.894531 239.65625 230.671875 237.863281 230.535156 235.742188 C 231.65625 234.242188 231.65625 234.242188 232.78125 233.496094 C 231.4375 232.910156 231.4375 232.910156 229.785156 232.746094 M 232.78125 234.242188 L 233.527344 235.742188 Z M 263.464844 234.242188 L 264.210938 236.488281 L 267.207031 236.488281 L 267.953125 238.734375 L 271.695312 237.984375 L 271.695312 236.488281 L 270.246094 236.207031 L 268.703125 235.742188 L 267.953125 234.242188 Z M 290.40625 234.992188 L 291.902344 236.488281 L 292.648438 234.992188 Z M 199.851562 235.742188 L 199.851562 237.238281 L 201.347656 237.238281 L 201.347656 235.742188 Z M 240.261719 235.742188 L 240.261719 237.984375 L 238.019531 238.734375 L 238.019531 240.230469 L 232.03125 240.230469 L 232.03125 243.226562 L 232.78125 241.726562 L 238.019531 242.476562 L 238.019531 240.980469 L 240.261719 240.230469 L 240.261719 238.734375 L 243.257812 238.734375 L 241.761719 235.742188 Z M 281.425781 236.488281 L 281.425781 240.230469 L 285.167969 240.230469 L 285.167969 236.488281 Z M 146.714844 237.984375 L 145.96875 240.230469 L 143.722656 240.980469 L 144.46875 244.722656 L 149.710938 244.722656 L 149.710938 238.734375 Z M 135.488281 238.734375 L 136.238281 244.722656 L 138.484375 244.722656 L 138.484375 238.734375 Z M 208.832031 238.734375 L 208.082031 240.230469 L 209.578125 240.230469 Z M 154.199219 240.230469 L 152.703125 241.726562 L 155.695312 242.476562 L 155.695312 240.230469 Z M 191.617188 242.476562 L 192.367188 243.972656 Z M 197.605469 242.476562 L 197.332031 243.84375 L 196.949219 245.65625 L 196.582031 247.445312 C 196.109375 249.210938 196.109375 249.210938 195.253906 250.785156 L 194.613281 252.207031 C 195.371094 254.601562 195.371094 254.601562 196.855469 256.695312 C 198.390625 257.746094 198.390625 257.746094 199.851562 258.191406 L 202.097656 256.695312 L 202.421875 254.824219 L 202.84375 252.953125 C 204.339844 252.113281 204.339844 252.113281 205.835938 251.457031 L 206.585938 249.210938 L 207.800781 248.136719 L 208.832031 246.964844 C 208.660156 245.347656 208.660156 245.347656 208.082031 243.972656 L 206.023438 244.347656 C 203.59375 244.722656 203.59375 244.722656 200.597656 244.722656 L 199.101562 242.476562 Z M 243.257812 242.476562 L 244.003906 244.722656 L 244.003906 242.476562 Z M 139.230469 243.226562 L 139.980469 247.714844 L 140.726562 247.714844 L 140.726562 243.972656 Z M 274.6875 243.972656 L 274.6875 249.210938 L 276.933594 249.210938 L 277.683594 245.46875 Z M 151.207031 245.46875 L 152.703125 249.210938 L 155.695312 249.210938 L 155.695312 244.722656 C 153.410156 244.601562 153.410156 244.601562 151.207031 245.46875 M 193.863281 244.722656 C 192.84375 245.441406 191.84375 246.1875 190.871094 246.964844 L 191.617188 248.464844 C 193.515625 247.449219 193.515625 247.449219 195.359375 246.21875 L 195.359375 244.722656 Z M 238.019531 244.722656 L 238.765625 249.210938 L 241.011719 249.210938 L 240.261719 244.722656 Z M 249.992188 244.722656 L 248.496094 250.707031 L 250.742188 251.457031 L 250.742188 249.210938 L 255.230469 249.210938 L 255.230469 244.722656 L 249.992188 244.722656 M 144.46875 246.21875 L 143.722656 251.457031 L 146.714844 250.707031 L 146.714844 248.464844 L 148.210938 248.464844 L 148.210938 246.964844 Z M 187.875 249.210938 L 187.875 251.457031 L 189.375 251.457031 L 189.375 249.210938 Z M 230.535156 249.210938 L 230.535156 251.457031 L 233.527344 249.960938 Z M 190.121094 251.457031 L 190.121094 255.199219 L 192.367188 255.945312 L 192.367188 251.457031 Z M 154.949219 252.207031 L 155.695312 253.703125 Z M 186.378906 252.207031 L 184.882812 253.703125 L 187.128906 254.449219 L 188.625 252.953125 Z M 205.835938 252.207031 L 205.089844 254.449219 L 206.585938 254.449219 Z M 208.832031 252.207031 L 209.578125 255.199219 Z M 221.554688 252.953125 L 223.050781 258.191406 L 225.296875 257.445312 L 225.296875 255.945312 L 226.792969 255.945312 L 226.042969 252.953125 Z M 235.023438 253.703125 L 234.277344 255.945312 L 236.523438 255.199219 L 236.523438 253.703125 Z M 147.464844 254.449219 L 148.210938 257.445312 L 148.960938 255.199219 Z M 211.824219 255.945312 L 212.574219 258.191406 L 214.820312 258.191406 L 215.566406 255.945312 Z M 230.535156 255.945312 C 229.984375 257.457031 229.984375 257.457031 229.785156 258.941406 L 233.527344 257.445312 L 233.527344 255.199219 C 232.503906 255.160156 232.503906 255.160156 230.535156 255.945312 M 208.082031 257.445312 L 207.335938 258.191406 C 207.304688 259.441406 207.304688 260.6875 207.335938 261.933594 L 208.785156 262.214844 L 210.328125 262.683594 L 211.078125 264.179688 L 214.820312 264.179688 L 214.820312 262.683594 L 213.089844 262.167969 L 211.078125 261.1875 C 209.765625 259.222656 209.765625 259.222656 208.832031 257.445312 Z M 226.042969 258.191406 L 226.042969 259.6875 L 228.289062 259.6875 L 228.289062 258.191406 Z M 201.347656 259.6875 L 202.097656 264.179688 L 206.585938 264.179688 L 206.585938 261.933594 L 203.59375 261.933594 L 202.84375 259.6875 Z M 231.28125 259.6875 L 231.28125 261.933594 L 235.773438 261.933594 L 235.773438 259.6875 Z M 225.296875 261.933594 L 224.546875 264.179688 L 229.039062 264.179688 L 229.039062 261.933594 Z M 217.8125 263.429688 C 216.636719 264.148438 215.484375 264.894531 214.351562 265.675781 L 212.496094 266.9375 L 211.078125 267.921875 L 211.824219 269.417969 L 214.070312 269.417969 L 214.820312 267.921875 L 216.6875 267.265625 L 218.558594 266.425781 C 219.222656 264.898438 219.222656 264.898438 219.308594 263.429688 Z M 234.277344 263.429688 L 234.277344 264.929688 L 236.523438 264.929688 L 235.773438 268.667969 L 239.515625 268.667969 L 240.261719 266.425781 L 242.507812 265.675781 L 241.761719 264.179688 C 239.996094 263.828125 239.996094 263.828125 237.972656 263.710938 L 235.886719 263.542969 Z M 207.335938 264.179688 L 207.335938 266.425781 L 209.578125 266.425781 L 209.578125 264.179688 Z M 221.554688 266.425781 L 220.804688 270.914062 L 224.546875 270.914062 L 225.296875 268.667969 L 224.546875 266.425781 Z M 228.289062 266.425781 L 226.042969 267.171875 L 226.042969 268.667969 L 229.039062 268.667969 Z M 201.347656 268.667969 L 202.84375 270.167969 L 203.59375 268.667969 Z M 233.527344 268.667969 L 233.527344 270.914062 L 235.773438 270.914062 L 235.773438 268.667969 Z M 160.1875 270.167969 L 160.933594 271.664062 Z M 205.835938 273.910156 L 204.339844 275.40625 C 204.582031 277.351562 204.582031 277.351562 205.089844 279.148438 C 206.242188 278.117188 206.242188 278.117188 207.335938 276.902344 L 207.335938 275.40625 L 216.316406 275.40625 L 217.0625 277.648438 L 218.558594 276.152344 C 217.113281 274.144531 217.113281 274.144531 214.820312 272.410156 C 211.300781 271.777344 208.828125 271.914062 205.835938 273.910156 M 158.691406 273.160156 L 159.4375 275.40625 L 162.429688 274.65625 L 162.429688 273.160156 Z M 197.605469 272.410156 L 197.605469 273.910156 L 191.617188 273.910156 L 191.617188 275.40625 C 193.910156 276.683594 195.621094 277.617188 198.261719 277.789062 L 199.851562 277.648438 L 199.851562 274.65625 C 198.789062 273.347656 198.789062 273.347656 197.605469 272.410156 M 173.65625 279.148438 L 172.910156 281.390625 L 170.710938 281.671875 L 168.417969 282.140625 L 167.671875 283.636719 C 170.195312 283.824219 170.195312 283.824219 172.910156 283.636719 C 174.410156 282.761719 174.410156 282.761719 175.152344 281.390625 L 175.152344 279.148438 Z M 207.335938 279.894531 L 207.335938 281.390625 C 203.953125 281.449219 200.90625 281.46875 197.605469 280.644531 L 197.605469 283.636719 C 203.230469 283.964844 207.964844 283.101562 213.320312 281.390625 L 213.320312 279.894531 Z M 176.652344 281.390625 L 175.902344 283.636719 L 179.644531 283.636719 L 179.644531 281.390625 Z M 194.613281 285.132812 L 194.613281 287.378906 L 196.855469 287.378906 L 196.855469 285.132812 Z M 187.875 285.882812 L 187.875 288.128906 L 190.121094 288.128906 L 190.121094 285.882812 Z M 187.875 285.882812 " fill-opacity="1" fill-rule="nonzero"/><path fill="#acd9f9" d="M 120.523438 71.097656 C 122.347656 70.910156 122.347656 70.910156 124.265625 71.097656 L 126.507812 72.59375 C 127.960938 72.386719 127.960938 72.386719 129.503906 71.84375 C 130.75 71.589844 131.996094 71.339844 133.246094 71.097656 C 134.273438 72.320312 135.269531 73.566406 136.238281 74.839844 L 136.238281 76.335938 C 138.671875 75.519531 138.671875 75.519531 140.726562 74.089844 C 142.785156 73.902344 142.785156 73.902344 145.21875 74.089844 L 147.042969 75.210938 C 148.972656 76.554688 148.972656 76.554688 151.628906 76.382812 L 154.199219 76.335938 C 155.761719 76.875 155.761719 76.875 157.191406 77.832031 C 158.035156 79.347656 158.035156 79.347656 158.691406 81.105469 C 159.59375 83.351562 160.132812 84.511719 161.871094 86.25 L 163.179688 87.5625 C 163.367188 89.617188 163.367188 89.617188 163.179688 91.304688 C 161.402344 91.023438 161.402344 91.023438 159.4375 90.554688 L 157.941406 89.058594 L 155.976562 88.402344 C 154.117188 87.792969 152.324219 87.027344 150.597656 86.109375 C 147.417969 84.476562 144.152344 83.332031 140.726562 82.320312 L 139.183594 81.820312 L 137.734375 81.574219 C 135.238281 82.550781 135.238281 82.550781 133.246094 84.566406 C 132.773438 86.714844 132.570312 88.398438 132.496094 90.554688 C 132.363281 91.800781 132.226562 93.050781 132.074219 94.296875 L 131.746094 97.289062 L 129.503906 98.039062 C 128.007812 96.820312 128.007812 96.820312 126.507812 95.042969 C 126.203125 92.589844 126.296875 91.058594 127.257812 88.777344 L 128.007812 87.5625 L 125.761719 86.8125 C 124.238281 83.015625 124.09375 78.875 124.265625 74.839844 L 122.019531 76.335938 C 121.101562 78.136719 121.101562 78.136719 120.382812 80.171875 L 119.601562 82.234375 L 119.023438 83.820312 C 117.65625 83.613281 117.65625 83.613281 116.03125 83.070312 C 114.921875 81.851562 114.921875 81.851562 113.972656 80.40625 L 113.003906 78.953125 L 112.289062 77.832031 L 110.042969 78.582031 L 110.042969 80.824219 L 112.289062 81.574219 L 111.542969 85.316406 L 107.800781 84.566406 L 107.050781 90.554688 L 104.339844 89.992188 C 101.953125 89.726562 101.074219 89.800781 98.773438 90.742188 C 94.707031 93.929688 92.304688 99.15625 89.980469 103.652344 C 88.777344 107.1875 87.949219 110.78125 87.59375 114.503906 L 88.339844 116.746094 C 86.773438 119.671875 84.566406 122.113281 82.074219 124.277344 C 80.089844 124.988281 79.039062 125.054688 76.976562 124.886719 L 74.121094 124.230469 L 72.625 121.988281 C 72.835938 120.019531 72.835938 120.019531 73.375 117.496094 C 73.539062 116.429688 73.703125 115.363281 73.863281 114.296875 C 74.074219 113.132812 74.285156 111.96875 74.496094 110.808594 L 74.746094 109.054688 C 75.105469 107.199219 75.511719 105.714844 76.367188 104.023438 C 77.945312 102.5625 79.613281 101.378906 81.375 100.148438 C 84.257812 97.878906 85.921875 94.90625 87.828125 91.816406 C 91.761719 85.792969 95.570312 80.839844 101.8125 77.082031 C 105.390625 75.578125 108.78125 74.976562 112.617188 74.558594 C 114.535156 74.839844 114.535156 74.839844 116.3125 75.960938 L 117.527344 77.082031 L 118.183594 74.933594 C 119.023438 72.59375 119.023438 72.59375 120.523438 71.097656 M 129.503906 76.335938 L 131 78.582031 L 131 77.082031 L 132.496094 76.335938 Z M 142.226562 76.335938 C 142.195312 78.082031 142.195312 79.828125 142.226562 81.574219 L 142.972656 82.320312 C 144.21875 82.351562 145.46875 82.355469 146.714844 82.320312 L 147.464844 78.582031 L 145.21875 78.582031 L 145.21875 76.335938 Z M 104.058594 78.582031 L 104.058594 82.320312 L 106.304688 82.320312 L 106.304688 78.582031 Z M 131.746094 78.582031 L 132.496094 80.824219 L 133.992188 80.824219 L 133.992188 78.582031 Z M 148.960938 80.824219 L 148.960938 82.320312 L 152.703125 83.070312 L 152.703125 84.566406 L 155.695312 84.566406 L 155.695312 80.824219 C 153.167969 80.191406 151.449219 79.996094 148.960938 80.824219 M 101.0625 82.320312 L 100.316406 84.566406 L 104.058594 84.566406 L 104.058594 82.320312 Z M 95.078125 86.8125 L 95.078125 89.058594 L 97.320312 89.058594 L 97.320312 86.8125 Z M 94.328125 89.058594 L 95.078125 91.304688 Z M 128.753906 89.804688 L 128.007812 93.546875 L 130.25 90.554688 Z M 84.601562 101.78125 L 83.992188 103.558594 L 83.101562 105.523438 L 80.859375 107.019531 L 80.859375 108.515625 L 82.308594 108.796875 L 83.851562 109.265625 L 84.601562 110.761719 L 86.84375 110.011719 L 86.84375 102.527344 Z M 77.117188 115.25 L 77.863281 119.742188 L 81.605469 118.992188 L 82.355469 115.25 Z M 82.355469 119.742188 L 83.101562 121.238281 Z M 70.378906 126.476562 C 72.472656 126.34375 74.304688 126.242188 76.367188 126.476562 C 77.816406 127.460938 77.816406 127.460938 78.613281 128.722656 C 79.503906 131.398438 79.554688 133.390625 79.359375 136.207031 C 78.636719 137.46875 77.886719 138.714844 77.117188 139.949219 C 76.578125 142.714844 76.578125 142.714844 76.367188 145.1875 L 80.859375 145.933594 L 80.15625 147.523438 C 79.269531 149.925781 78.660156 151.589844 78.613281 154.167969 C 79.984375 157.421875 81.886719 160.277344 83.992188 163.101562 C 85.589844 165.800781 85.914062 168.121094 86.417969 171.179688 C 86.75 173.046875 86.75 173.046875 88.433594 174.703125 L 89.839844 175.871094 L 89.839844 178.117188 L 91.429688 177.179688 L 93.582031 176.617188 C 95.917969 177.695312 95.917969 177.695312 98.070312 179.613281 C 99.101562 181.347656 99.667969 182.910156 100.316406 184.851562 L 100.316406 186.347656 L 101.953125 186.863281 C 104.457031 188.03125 105.941406 189.566406 107.800781 191.585938 L 107.050781 193.832031 L 105.554688 193.832031 L 104.804688 196.824219 L 107.238281 196.636719 L 110.042969 196.824219 C 111.871094 198.320312 111.871094 198.320312 113.039062 199.820312 C 112.070312 201.976562 111.046875 203.464844 109.296875 205.058594 L 107.050781 204.308594 C 106.089844 203.078125 105.171875 201.8125 104.292969 200.519531 C 100.832031 195.640625 96.695312 191.554688 92.390625 187.421875 L 90.871094 185.949219 L 89.503906 184.648438 C 88.257812 183.261719 87.519531 182.097656 86.84375 180.359375 L 86.84375 177.367188 L 84.507812 177.320312 C 81.605469 176.617188 81.605469 176.617188 80.335938 175.746094 C 78.292969 173.667969 77.253906 171.824219 76.390625 169.027344 C 76.011719 167.367188 75.664062 165.703125 75.351562 164.035156 C 74.867188 161.640625 74.269531 159.433594 73.375 157.160156 L 71.878906 156.414062 L 74.121094 155.664062 L 71.925781 154.960938 C 69.632812 154.167969 69.632812 154.167969 68.882812 153.417969 C 68.765625 152.390625 68.675781 151.363281 68.601562 150.332031 C 68.25 146.921875 67.496094 144.476562 65.890625 141.445312 L 64.207031 139.808594 L 62.898438 138.449219 C 63.082031 136.765625 63.082031 136.765625 63.644531 135.457031 C 68.789062 134.710938 68.789062 134.710938 69.632812 134.710938 L 69.605469 133.097656 L 69.585938 131.011719 L 69.558594 128.933594 L 69.632812 127.226562 Z M 69.632812 140.695312 L 68.882812 142.941406 C 69.867188 144.109375 69.867188 144.109375 71.128906 145.1875 L 73.375 145.1875 L 72.625 141.445312 Z M 80.109375 162.398438 L 80.109375 169.132812 L 82.355469 169.132812 L 82.355469 163.148438 Z M 80.109375 162.398438 " fill-opacity="1" fill-rule="nonzero"/><path fill="#acd9f9" d="M 125.761719 103.277344 C 128.007812 103.371094 128.007812 103.371094 130.25 104.023438 C 133.273438 106.53125 134.886719 110.136719 136.238281 113.753906 C 136.238281 116.949219 135.332031 119.445312 134.273438 122.40625 C 133.523438 124.558594 133.238281 125.660156 133.433594 127.972656 L 133.992188 130.21875 C 134.597656 134.453125 134.835938 138.621094 134.882812 142.894531 L 134.914062 145.816406 L 134.742188 148.179688 L 133.246094 149.675781 C 131.46875 150.003906 131.46875 150.003906 129.503906 149.675781 C 127.886719 148.011719 126.761719 146.53125 125.855469 144.390625 C 125.023438 142.691406 125.023438 142.691406 122.671875 141.539062 L 120.523438 139.949219 C 120.242188 137.515625 120.242188 137.515625 120.523438 135.457031 L 123.515625 133.960938 L 126.507812 139.199219 L 129.503906 138.449219 C 129.613281 133.847656 129.125 129.960938 127.257812 125.726562 L 129.503906 124.230469 C 129.550781 122.730469 129.59375 121.226562 129.53125 119.722656 C 129.5 118.121094 129.742188 116.773438 130.25 115.25 L 125.761719 116.746094 L 125.011719 116 C 124.65625 114.292969 124.351562 112.574219 124.078125 110.855469 L 123.597656 108.007812 L 123.515625 105.523438 C 124.464844 104.058594 124.464844 104.058594 125.761719 103.277344 M 128.753906 142.191406 L 129.503906 145.1875 L 131 144.4375 Z M 128.753906 142.191406 " fill-opacity="1" fill-rule="nonzero"/><path fill="#acd9f9" d="M 113.039062 108.515625 L 117.527344 108.515625 C 117.527344 110.761719 117.527344 110.761719 116.78125 113.007812 L 119.773438 113.753906 L 122.019531 122.734375 L 123.515625 121.988281 L 125.761719 123.484375 L 125.761719 124.980469 C 124.5 125.777344 124.5 125.777344 122.765625 126.476562 C 120.710938 126.324219 119.21875 125.816406 117.339844 124.980469 C 116.03125 123.484375 116.03125 123.484375 115.679688 121.835938 C 115.488281 120.144531 115.355469 118.449219 115.285156 116.746094 L 113.832031 116.515625 L 112.289062 116 L 111.542969 113.753906 L 113.039062 113.007812 L 113.785156 110.761719 L 111.542969 111.507812 Z M 108.546875 91.304688 L 110.042969 91.304688 C 110.578125 92.726562 111.109375 94.148438 111.636719 95.574219 C 112.058594 96.6875 112.503906 97.792969 112.964844 98.890625 C 113.925781 101.210938 114.554688 102.84375 114.441406 105.382812 C 113.785156 107.019531 113.785156 107.019531 112.804688 108.421875 L 111.542969 109.265625 C 109.90625 109.03125 109.90625 109.03125 108.546875 108.515625 L 108.546875 104.773438 L 104.804688 104.773438 L 104.058594 101.03125 L 107.050781 101.03125 L 107.800781 99.535156 L 107.800781 101.03125 L 109.296875 101.03125 L 109.296875 98.785156 L 107.800781 98.785156 Z M 210.328125 193.082031 L 211.824219 195.328125 C 211.917969 197.714844 211.917969 197.714844 211.824219 199.820312 L 208.832031 200.566406 L 208.082031 203.558594 L 211.824219 202.0625 C 211.3125 203.46875 211.3125 203.46875 210.328125 205.058594 L 208.503906 205.710938 L 206.585938 206.554688 C 205.8125 208.039062 205.0625 209.535156 204.339844 211.042969 C 202.703125 212.074219 202.703125 212.074219 201.347656 212.539062 C 201.253906 210.8125 201.253906 210.8125 201.347656 208.800781 L 202.84375 206.554688 L 199.101562 205.804688 L 199.851562 203.558594 C 201.316406 202.707031 201.316406 202.707031 203.125 201.875 C 205.683594 200.550781 205.683594 200.550781 207.53125 198.414062 C 208.214844 196.832031 208.214844 196.832031 208.832031 194.578125 L 210.328125 194.578125 Z M 118.277344 175.871094 L 119.023438 175.871094 L 119.023438 181.855469 L 123.515625 181.855469 L 123.515625 179.613281 L 122.019531 178.863281 L 125.011719 178.863281 C 125.808594 180.128906 125.808594 180.128906 126.507812 181.855469 C 126.226562 183.914062 126.226562 183.914062 125.761719 185.597656 C 123.605469 186.316406 122.242188 186.425781 120.007812 186.394531 L 118.175781 186.375 L 116.78125 186.347656 L 116.78125 182.605469 L 114.535156 182.605469 L 113.785156 187.84375 L 110.792969 187.84375 C 111.15625 185.507812 111.539062 183.355469 112.289062 181.109375 C 114.957031 180.21875 114.957031 180.21875 117.527344 179.613281 Z M 103.964844 150.847656 L 106.304688 151.171875 C 108.175781 153.296875 109.136719 154.902344 109.71875 157.675781 L 109.296875 159.40625 C 107.425781 160.761719 107.425781 160.761719 105.554688 161.652344 L 105.554688 157.910156 L 103.308594 157.160156 L 101.0625 154.914062 L 99.566406 154.914062 C 99.847656 153.464844 99.847656 153.464844 100.316406 151.921875 C 101.8125 151.171875 101.8125 151.171875 103.964844 150.847656 M 284.417969 170.632812 C 286.167969 170.847656 287.914062 171.09375 289.65625 171.378906 L 288.910156 174.375 L 282.921875 173.625 L 281.425781 177.367188 L 276.933594 176.617188 L 277.683594 171.378906 L 280.628906 171.425781 C 281.644531 171.445312 282.65625 171.429688 283.667969 171.378906 Z M 214.820312 190.835938 L 216.316406 190.835938 L 216.316406 193.082031 L 218.558594 193.082031 L 218.558594 195.328125 L 220.058594 196.078125 C 218.792969 197.855469 218.792969 197.855469 217.0625 199.820312 L 213.320312 201.316406 L 211.824219 193.082031 Z M 90.585938 126.476562 C 92.257812 126.765625 93.457031 127.148438 94.890625 128.066406 L 95.824219 129.46875 C 95.964844 132.230469 95.964844 132.230469 95.824219 134.710938 L 92.082031 135.457031 L 91.523438 133.679688 L 90.585938 131.714844 C 89.078125 130.710938 89.078125 130.710938 87.59375 130.21875 L 89.089844 127.226562 L 90.585938 127.972656 Z M 112.289062 166.890625 L 116.78125 166.890625 L 116.78125 169.132812 L 119.023438 169.132812 C 119.492188 170.914062 119.492188 170.914062 119.773438 172.875 L 118.277344 174.375 L 116.03125 174.375 L 115.097656 173.390625 C 113.171875 171.535156 111.027344 170.867188 108.546875 169.882812 L 110 169.226562 L 111.542969 168.386719 Z M 179.644531 128.722656 L 181.140625 130.21875 C 181.449219 132.085938 181.449219 132.085938 181.609375 134.289062 L 181.777344 136.484375 C 181.855469 137.886719 181.890625 139.292969 181.890625 140.695312 L 184.132812 142.191406 L 183.386719 145.933594 L 182.636719 143.691406 L 179.644531 143.691406 C 178.617188 138.5625 178.617188 133.847656 179.644531 128.722656 M 163.179688 290.371094 L 167.671875 291.871094 L 168.417969 295.613281 L 171.414062 295.613281 L 171.414062 300.101562 L 168.417969 300.851562 L 167.671875 295.613281 L 164.675781 295.613281 Z M 136.988281 127.226562 L 145.96875 127.972656 L 145.21875 131.714844 C 143.597656 133.074219 141.898438 133.765625 139.980469 134.710938 L 139.980469 132.464844 L 141.476562 132.464844 L 141.476562 129.46875 L 136.238281 129.46875 Z M 100.316406 139.949219 L 101.8125 139.949219 C 103.769531 142.609375 104.425781 144.921875 104.804688 148.179688 L 101.8125 148.929688 L 101.0625 146.683594 L 98.820312 145.933594 C 98.726562 143.785156 98.726562 143.785156 98.820312 141.445312 Z M 100.316406 139.949219 " fill-opacity="1" fill-rule="nonzero"/><path fill="#bce2f9" d="M 142.226562 81.574219 L 147.464844 81.574219 L 147.464844 83.070312 L 148.820312 82.648438 C 150.457031 82.320312 150.457031 82.320312 152.703125 83.070312 L 152.703125 84.566406 L 155.695312 84.566406 L 154.949219 88.308594 L 153.496094 87.542969 C 149.777344 85.625 146.296875 84.042969 142.226562 83.070312 Z M 142.226562 81.574219 " fill-opacity="1" fill-rule="nonzero"/><path fill="#acd9f9" d="M 220.058594 185.597656 L 222.300781 186.347656 L 222.300781 189.339844 L 223.800781 190.089844 C 222.582031 190.605469 222.582031 190.605469 220.804688 190.835938 C 218.375 189.761719 218.375 189.761719 216.316406 188.59375 L 216.316406 187.097656 C 218.046875 186.300781 218.046875 186.300781 220.058594 185.597656 M 98.070312 168.386719 C 100.175781 168.152344 100.175781 168.152344 102.5625 168.386719 C 103.964844 170.164062 103.964844 170.164062 104.804688 172.128906 L 104.804688 173.625 L 101.8125 173.625 L 101.8125 171.378906 L 98.070312 170.632812 Z M 98.070312 168.386719 " fill-opacity="1" fill-rule="nonzero"/><path fill="#bce2f9" d="M 112.289062 202.8125 L 115.285156 203.558594 L 115.285156 205.804688 L 117.527344 205.804688 L 117.527344 208.050781 L 112.289062 208.050781 Z M 112.289062 202.8125 " fill-opacity="1" fill-rule="nonzero"/><path fill="#acd9f9" d="M 82.355469 147.429688 C 84.226562 149.117188 84.226562 149.117188 86.097656 151.171875 L 86.097656 154.167969 L 82.355469 154.167969 Z M 131.746094 100.285156 L 133.992188 100.285156 L 133.992188 102.527344 L 135.488281 102.527344 L 133.992188 106.269531 C 132.714844 105.3125 131.46875 104.3125 130.25 103.277344 L 130.25 101.78125 L 131.746094 101.78125 Z M 221.554688 175.871094 L 223.800781 178.863281 L 222.300781 178.863281 L 220.804688 181.855469 L 219.308594 181.109375 L 220.058594 185.597656 L 219.308594 184.101562 L 217.8125 184.101562 C 218.09375 182.277344 218.09375 182.277344 218.558594 180.359375 L 220.058594 179.613281 C 220.597656 178.382812 221.097656 177.132812 221.554688 175.871094 M 202.097656 223.019531 L 203.59375 223.019531 L 202.84375 225.261719 L 201.347656 226.011719 C 200.804688 227.242188 200.304688 228.488281 199.851562 229.753906 L 196.109375 229.753906 C 196.824219 228.910156 197.542969 228.070312 198.261719 227.226562 L 199.46875 225.808594 C 200.3125 224.847656 201.191406 223.917969 202.097656 223.019531 M 265.707031 205.058594 L 266.457031 207.300781 L 258.972656 214.039062 L 258.972656 211.792969 C 260.445312 210.101562 260.445312 210.101562 262.339844 208.285156 L 264.234375 206.453125 Z M 81.605469 116 L 82.355469 116 L 82.636719 118.152344 L 83.101562 120.488281 L 84.601562 121.988281 L 80.859375 124.230469 L 80.578125 122.40625 L 80.109375 120.488281 L 78.613281 119.742188 L 80.859375 118.992188 C 81.40625 117.484375 81.40625 117.484375 81.605469 116 M 101.8125 91.304688 L 104.058594 91.304688 L 104.058594 97.289062 L 101.8125 98.039062 Z M 101.8125 91.304688 " fill-opacity="1" fill-rule="nonzero"/><path fill="#bce2f9" d="M 179.644531 128.722656 L 181.140625 130.21875 C 181.175781 131.757812 181.175781 131.757812 180.953125 133.539062 L 180.753906 135.3125 C 180.394531 136.953125 180.394531 136.953125 178.894531 139.199219 C 178.832031 135.582031 178.929688 132.285156 179.644531 128.722656 " fill-opacity="1" fill-rule="nonzero"/><path fill="#acd9f9" d="M 205.089844 181.855469 L 206.585938 183.355469 L 204.339844 184.101562 L 203.59375 186.347656 L 200.597656 186.347656 C 200.738281 184.945312 200.738281 184.945312 201.347656 183.355469 C 203.265625 182.417969 203.265625 182.417969 205.089844 181.855469 M 232.78125 214.785156 L 235.023438 214.785156 L 234.277344 218.527344 L 232.03125 219.277344 L 230.535156 218.527344 C 231.28125 216.28125 231.28125 216.28125 232.78125 214.785156 M 108.546875 205.804688 L 110.042969 205.804688 L 110.042969 208.050781 L 112.289062 208.050781 L 112.289062 212.539062 L 111.542969 210.296875 L 109.296875 210.296875 Z M 210.328125 193.082031 L 211.078125 195.328125 L 210 196.125 C 208.59375 197.632812 208.59375 197.632812 208.316406 200.332031 L 208.082031 202.8125 L 207.335938 201.316406 L 205.835938 200.566406 L 208.832031 194.578125 L 210.328125 194.578125 Z M 178.894531 193.832031 L 178.894531 196.078125 L 177.398438 196.078125 L 177.398438 198.320312 L 174.40625 199.070312 C 174.546875 197.292969 174.546875 197.292969 175.152344 195.328125 C 177.070312 194.347656 177.070312 194.347656 178.894531 193.832031 M 261.964844 183.355469 L 264.960938 184.851562 L 264.960938 187.097656 L 261.21875 188.59375 Z M 128.007812 88.308594 C 128.722656 90.464844 128.832031 91.824219 128.800781 94.0625 L 128.78125 95.894531 L 128.753906 97.289062 C 127.648438 96.308594 127.648438 96.308594 126.507812 95.042969 C 126.277344 92.800781 126.277344 92.800781 126.507812 90.554688 Z M 242.507812 212.539062 L 246.25 212.539062 L 246.25 215.535156 L 242.507812 215.535156 Z M 242.507812 212.539062 " fill-opacity="1" fill-rule="nonzero"/><path fill="#a8d4ef" d="M 119.023438 127.972656 L 122.765625 128.722656 L 122.019531 132.464844 L 119.773438 131.714844 Z M 119.023438 127.972656 " fill-opacity="1" fill-rule="nonzero"/><path fill="#acd9f9" d="M 108.546875 91.304688 L 110.042969 91.304688 L 110.792969 95.792969 L 109.296875 96.542969 L 107.800781 98.785156 Z M 108.546875 91.304688 " fill-opacity="1" fill-rule="nonzero"/><path fill="#a8d4ef" d="M 232.03125 261.933594 L 235.023438 262.683594 L 232.78125 265.675781 L 229.785156 264.929688 L 230.535156 263.429688 L 232.03125 263.429688 Z M 170.664062 185.597656 L 172.910156 186.347656 C 173.050781 188.03125 173.050781 188.03125 172.910156 190.089844 L 170.664062 193.082031 Z M 170.664062 185.597656 " fill-opacity="1" fill-rule="nonzero"/><path fill="#acd9f9" d="M 70.378906 126.476562 L 76.367188 126.476562 L 76.367188 127.226562 L 74.261719 127.878906 C 71.804688 128.636719 71.804688 128.636719 69.632812 130.21875 Z M 70.378906 126.476562 " fill-opacity="1" fill-rule="nonzero"/><path fill="#a8d4ef" d="M 249.757812 260.765625 L 251.488281 261.1875 L 250.742188 263.429688 C 248.523438 262.972656 247.464844 262.492188 245.503906 261.1875 C 247.746094 260.4375 247.746094 260.4375 249.757812 260.765625 " fill-opacity="1" fill-rule="nonzero"/><path fill="#acd9f9" d="M 255.230469 245.46875 L 255.980469 245.46875 L 256.726562 249.960938 L 254.484375 251.457031 L 254.484375 249.960938 L 250.742188 250.707031 L 250.742188 249.210938 L 255.230469 249.210938 Z M 213.320312 207.300781 C 214.773438 207.535156 214.773438 207.535156 216.316406 208.050781 L 217.0625 210.296875 L 213.320312 210.296875 Z M 208.832031 173.625 L 211.824219 174.375 L 211.824219 177.367188 L 208.082031 175.871094 Z M 208.832031 173.625 " fill-opacity="1" fill-rule="nonzero"/><path fill="#a8d4ef" d="M 211.824219 264.179688 L 214.070312 264.929688 L 212.574219 265.675781 L 211.824219 267.921875 L 208.832031 267.921875 L 209.578125 265.675781 Z M 211.824219 264.179688 " fill-opacity="1" fill-rule="nonzero"/><path fill="#acd9f9" d="M 241.011719 227.507812 L 241.761719 230.503906 L 239.515625 230.503906 L 238.765625 232.746094 L 237.269531 232.746094 L 238.019531 229.753906 L 241.011719 229.753906 Z M 241.011719 227.507812 " fill-opacity="1" fill-rule="nonzero"/><path fill="#a8d4ef" d="M 166.921875 244.722656 L 167.671875 246.964844 L 166.171875 249.210938 L 163.179688 248.464844 Z M 166.921875 244.722656 " fill-opacity="1" fill-rule="nonzero"/><path fill="#acd9f9" d="M 240.261719 238.734375 C 241.902344 238.96875 241.902344 238.96875 243.257812 239.484375 L 241.761719 239.484375 L 241.011719 241.726562 C 239.46875 242.242188 239.46875 242.242188 238.019531 242.476562 L 238.019531 240.980469 C 238.953125 239.71875 238.953125 239.71875 240.261719 238.734375 " fill-opacity="1" fill-rule="nonzero"/><path fill="#a8d4ef" d="M 142.972656 237.984375 L 143.722656 239.484375 L 141.476562 240.980469 C 140.710938 241.710938 139.964844 242.460938 139.230469 243.226562 C 139.417969 241.445312 139.417969 241.445312 139.980469 239.484375 C 141.523438 238.5 141.523438 238.5 142.972656 237.984375 " fill-opacity="1" fill-rule="nonzero"/><path fill="#bce2f9" d="M 124.265625 223.765625 L 125.761719 226.011719 C 125.480469 228.023438 125.480469 228.023438 125.011719 229.753906 L 123.515625 228.257812 C 123.796875 225.917969 123.796875 225.917969 124.265625 223.765625 " fill-opacity="1" fill-rule="nonzero"/><path fill="#acd9f9" d="M 256.726562 214.785156 L 257.476562 216.28125 L 259.722656 217.03125 L 253.734375 217.78125 Z M 256.726562 214.785156 " fill-opacity="1" fill-rule="nonzero"/><path fill="#a8d4ef" d="M 113.785156 205.804688 L 117.527344 205.804688 L 117.527344 208.050781 L 113.785156 208.050781 Z M 113.785156 205.804688 " fill-opacity="1" fill-rule="nonzero"/><path fill="#acd9f9" d="M 192.367188 195.328125 C 193.128906 196.316406 193.878906 197.3125 194.613281 198.320312 L 194.613281 199.070312 L 190.121094 199.070312 L 190.121094 197.574219 L 192.367188 197.574219 Z M 192.367188 195.328125 " fill-opacity="1" fill-rule="nonzero"/><path fill="#bce2f9" d="M 220.804688 166.890625 C 220.804688 169.132812 220.804688 169.132812 220.058594 170.632812 L 217.8125 169.882812 L 217.8125 167.636719 Z M 220.804688 166.890625 " fill-opacity="1" fill-rule="nonzero"/><path fill="#a8d4ef" d="M 175.902344 151.921875 C 176.699219 153.230469 176.699219 153.230469 177.398438 154.914062 C 177.117188 156.597656 177.117188 156.597656 176.652344 157.910156 L 175.152344 157.160156 Z M 175.902344 151.921875 " fill-opacity="1" fill-rule="nonzero"/><path fill="#acd9f9" d="M 175.152344 279.894531 L 176.652344 282.140625 L 173.65625 284.386719 L 172.160156 283.636719 L 173.65625 281.390625 L 175.152344 281.390625 Z M 267.207031 217.78125 L 270.199219 218.527344 L 269.449219 221.523438 C 268.328125 220.492188 268.328125 220.492188 267.207031 219.277344 Z M 267.207031 217.78125 " fill-opacity="1" fill-rule="nonzero"/><path fill="#a8d4ef" d="M 178.148438 145.933594 L 178.894531 147.429688 L 180.394531 147.429688 C 180.113281 148.882812 180.113281 148.882812 179.644531 150.425781 L 178.148438 151.171875 Z M 178.148438 145.933594 " fill-opacity="1" fill-rule="nonzero"/><path fill="#acd9f9" d="M 65.140625 134.710938 C 66.730469 135.035156 66.730469 135.035156 68.136719 135.457031 L 65.890625 136.953125 L 64.394531 136.207031 L 64.394531 138.449219 L 62.898438 137.703125 L 63.644531 135.457031 Z M 65.140625 134.710938 " fill-opacity="1" fill-rule="nonzero"/><path fill="#bce2f9" d="M 129.503906 124.230469 L 131 126.476562 L 130.25 127.972656 L 127.257812 126.476562 Z M 97.320312 87.5625 L 98.820312 89.058594 C 98.539062 90.648438 98.539062 90.648438 98.070312 92.050781 L 97.320312 89.804688 L 95.824219 89.804688 L 95.078125 91.304688 L 95.078125 89.058594 L 97.320312 89.058594 Z M 97.320312 87.5625 " fill-opacity="1" fill-rule="nonzero"/><path fill="#acd9f9" d="M 229.785156 259.6875 L 231.28125 259.6875 L 232.03125 263.429688 L 229.785156 264.179688 Z M 126.507812 212.539062 L 128.007812 212.539062 L 128.753906 214.785156 L 126.507812 217.03125 L 125.761719 215.535156 C 126.089844 213.945312 126.089844 213.945312 126.507812 212.539062 M 196.109375 167.636719 L 199.101562 167.636719 C 198.820312 169.089844 198.820312 169.089844 198.355469 170.632812 L 196.855469 171.378906 Z M 233.527344 156.414062 L 236.523438 156.414062 L 236.523438 159.40625 L 234.277344 159.40625 Z M 136.988281 97.289062 L 139.230469 98.039062 L 138.484375 103.277344 C 137.164062 100.964844 136.988281 100.109375 136.988281 97.289062 " fill-opacity="1" fill-rule="nonzero"/><path fill="#bce2f9" d="M 196.855469 242.476562 L 197.605469 242.476562 L 197.605469 246.21875 L 195.359375 246.21875 L 194.613281 243.972656 L 196.855469 243.972656 Z M 196.855469 242.476562 " fill-opacity="1" fill-rule="nonzero"/><path fill="#acd9f9" d="M 252.984375 229.003906 L 254.484375 229.003906 L 254.484375 233.496094 L 252.984375 232.746094 L 253.734375 231.25 L 252.238281 231.25 Z M 252.984375 229.003906 " fill-opacity="1" fill-rule="nonzero"/><path fill="#a8d4ef" d="M 203.59375 227.507812 L 207.335938 229.003906 L 206.585938 231.25 C 205.089844 230.222656 205.089844 230.222656 203.59375 229.003906 Z M 203.59375 227.507812 " fill-opacity="1" fill-rule="nonzero"/><path fill="#bce2f9" d="M 81.605469 160.902344 L 83.851562 162.398438 L 83.101562 165.394531 L 81.605469 164.644531 Z M 81.605469 160.902344 " fill-opacity="1" fill-rule="nonzero"/><path fill="#acd9f9" d="M 222.300781 160.152344 L 224.546875 160.902344 L 223.800781 163.148438 L 220.804688 161.652344 Z M 292.648438 154.167969 C 293.914062 154.621094 295.164062 155.121094 296.390625 155.664062 L 297.140625 157.160156 L 291.902344 155.664062 Z M 136.988281 127.226562 L 140.726562 127.226562 C 139.746094 128.347656 139.746094 128.347656 138.484375 129.46875 L 136.238281 129.46875 Z M 208.832031 236.488281 L 211.078125 237.238281 L 210.328125 240.980469 L 208.832031 240.230469 Z M 203.59375 174.375 L 205.089844 174.375 L 205.835938 177.367188 L 203.59375 177.367188 Z M 145.21875 160.152344 L 148.210938 160.152344 L 147.464844 162.398438 L 145.21875 162.398438 Z M 182.636719 141.445312 L 184.132812 142.191406 L 183.386719 145.933594 C 182.589844 144.53125 182.589844 144.53125 181.890625 142.941406 Z M 182.636719 141.445312 " fill-opacity="1" fill-rule="nonzero"/><path fill="#a8d4ef" d="M 168.417969 283.636719 L 172.160156 283.636719 L 169.914062 285.882812 L 168.417969 285.132812 Z M 168.417969 283.636719 " fill-opacity="1" fill-rule="nonzero"/><path fill="#acd9f9" d="M 268.703125 211.042969 L 270.199219 211.042969 L 270.945312 214.039062 L 268.703125 214.039062 Z M 128.753906 151.921875 L 131.746094 152.671875 L 131.746094 154.167969 L 128.007812 153.417969 Z M 128.753906 151.921875 " fill-opacity="1" fill-rule="nonzero"/><path fill="#bce2f9" d="M 141.476562 130.96875 L 142.226562 133.960938 L 139.980469 134.710938 L 139.980469 132.464844 L 141.476562 132.464844 Z M 108.546875 91.304688 L 110.042969 91.304688 L 110.792969 94.296875 L 108.546875 94.296875 Z M 157.941406 261.933594 L 160.1875 261.933594 L 160.1875 264.179688 L 157.941406 264.179688 Z M 276.933594 227.507812 L 279.179688 227.507812 L 279.179688 229.753906 L 276.933594 229.753906 Z M 276.933594 227.507812 " fill-opacity="1" fill-rule="nonzero"/><path fill="#acd9f9" d="M 135.488281 202.0625 L 136.988281 204.308594 L 135.488281 207.300781 C 135.199219 206.0625 134.949219 204.816406 134.742188 203.558594 Z M 135.488281 202.0625 " fill-opacity="1" fill-rule="nonzero"/><path fill="#bce2f9" d="M 226.042969 154.167969 L 227.539062 157.160156 L 225.296875 157.160156 Z M 226.042969 154.167969 " fill-opacity="1" fill-rule="nonzero"/><path fill="#acd9f9" d="M 119.773438 129.46875 L 122.019531 130.21875 L 121.269531 132.464844 L 119.773438 131.714844 Z M 119.773438 129.46875 " fill-opacity="1" fill-rule="nonzero"/><path fill="#a8d4ef" d="M 226.792969 264.179688 L 229.039062 264.929688 L 229.039062 266.425781 L 226.792969 266.425781 Z M 226.792969 264.179688 " fill-opacity="1" fill-rule="nonzero"/><path fill="#bce2f9" d="M 199.101562 244.722656 C 200.597656 247.527344 200.597656 247.527344 200.597656 249.210938 L 199.101562 249.210938 Z M 199.101562 244.722656 " fill-opacity="1" fill-rule="nonzero"/><path fill="#acd9f9" d="M 185.632812 223.019531 L 187.128906 223.765625 L 187.128906 225.261719 L 184.132812 224.515625 Z M 185.632812 223.019531 " fill-opacity="1" fill-rule="nonzero"/><path fill="#bce2f9" d="M 146.714844 186.347656 L 148.960938 186.347656 L 147.464844 189.339844 Z M 146.714844 186.347656 " fill-opacity="1" fill-rule="nonzero"/><path fill="#acd9f9" d="M 233.527344 133.210938 L 235.773438 133.960938 L 233.527344 135.457031 L 232.03125 133.960938 Z M 233.527344 133.210938 " fill-opacity="1" fill-rule="nonzero"/><path fill="#cdedfb" d="M 133.992188 108.515625 L 136.238281 108.515625 L 136.238281 110.761719 L 133.992188 110.011719 Z M 133.992188 108.515625 " fill-opacity="1" fill-rule="nonzero"/><path fill="#bce2f9" d="M 263.464844 192.335938 L 264.960938 193.832031 L 261.964844 194.578125 L 261.964844 193.082031 Z M 263.464844 192.335938 " fill-opacity="1" fill-rule="nonzero"/><path fill="#b4d7e6" d="M 196.855469 190.835938 L 196.109375 193.082031 L 193.863281 191.585938 C 195.359375 190.835938 195.359375 190.835938 196.855469 190.835938 " fill-opacity="1" fill-rule="nonzero"/><path fill="#bce2f9" d="M 111.542969 173.625 L 113.039062 174.375 L 113.039062 175.871094 L 110.792969 175.871094 Z M 111.542969 173.625 " fill-opacity="1" fill-rule="nonzero"/><path fill="#acd9f9" d="M 112.289062 162.398438 L 114.535156 162.398438 L 114.535156 164.644531 L 112.289062 163.894531 Z M 112.289062 162.398438 " fill-opacity="1" fill-rule="nonzero"/><path fill="#b4d7e6" d="M 297.140625 206.554688 L 298.636719 207.300781 L 297.890625 209.546875 Z M 297.140625 206.554688 " fill-opacity="1" fill-rule="nonzero"/><path fill="#acd9f9" d="M 199.851562 172.875 L 202.84375 173.625 L 200.597656 174.375 Z M 199.851562 172.875 " fill-opacity="1" fill-rule="nonzero"/><path fill="#bce2f9" d="M 108.546875 163.148438 L 111.542969 164.644531 L 108.546875 164.644531 Z M 233.527344 141.445312 L 235.773438 141.445312 L 235.773438 142.941406 L 233.527344 142.941406 Z M 236.523438 219.277344 L 238.765625 219.277344 L 238.765625 220.773438 L 236.523438 220.023438 Z M 128.753906 180.359375 L 131 181.855469 L 128.007812 181.109375 Z M 83.101562 120.488281 L 84.601562 121.988281 L 82.355469 121.988281 Z M 138.484375 193.832031 L 139.980469 193.832031 L 139.980469 195.328125 L 138.484375 195.328125 Z M 207.335938 181.109375 L 208.832031 181.855469 L 208.082031 183.355469 Z M 276.1875 177.367188 L 277.683594 179.613281 L 276.1875 179.613281 Z M 276.1875 177.367188 " fill-opacity="1" fill-rule="nonzero"/><path fill="#cdedfb" d="M 196.855469 184.851562 L 198.355469 186.347656 L 196.855469 186.347656 Z M 257.476562 146.683594 L 259.722656 147.429688 Z M 257.476562 146.683594 " fill-opacity="1" fill-rule="nonzero"/><path fill="#bce2f9" d="M 223.050781 174.375 L 224.546875 175.121094 Z M 223.050781 174.375 " fill-opacity="1" fill-rule="nonzero"/><path fill="#bbf6ef" d="M 251.488281 142.191406 L 252.984375 142.941406 Z M 251.488281 142.191406 " fill-opacity="1" fill-rule="nonzero"/></svg>