<svg xmlns="http://www.w3.org/2000/svg" xmlns:xlink="http://www.w3.org/1999/xlink" width="503" zoomAndPan="magnify" viewBox="0 0 377.25 347.249998" height="463" preserveAspectRatio="xMidYMid meet" version="1.0"><path fill="#efbfd5" d="M 184.695312 161.019531 C 187.292969 162.238281 189.457031 163.890625 191.183594 166.183594 C 193.640625 169.980469 194.015625 173.585938 194.269531 177.992188 L 194.3125 178.964844 C 194.347656 179.753906 194.40625 180.542969 194.464844 181.328125 L 194.914062 181.777344 C 196.417969 181.753906 196.417969 181.753906 198.058594 181.328125 C 199.328125 180.417969 199.328125 180.417969 200.445312 179.226562 C 203.085938 176.695312 205.6875 174.832031 209.121094 173.53125 C 211.242188 173.140625 213.105469 172.859375 215.164062 173.574219 C 217.554688 174.699219 219.601562 176.078125 221.207031 178.195312 C 224.859375 183.804688 227.144531 192.085938 227.667969 198.773438 L 227.707031 199.730469 L 227.761719 200.914062 C 227.855469 204.921875 227.394531 208.230469 225.488281 211.792969 C 224.835938 212.9375 224.226562 213.964844 223.355469 214.953125 C 222.65625 215.902344 222.65625 215.902344 222.664062 217.277344 L 222.738281 218.808594 C 222.855469 221.441406 222.855469 221.441406 222.4375 222.761719 C 221.867188 223.519531 221.867188 223.519531 220.988281 223.953125 C 219.910156 224.203125 218.933594 224.398438 217.824219 224.417969 C 216.910156 223.839844 216.011719 223.242188 215.128906 222.621094 C 212.519531 222.621094 210.429688 223.449219 208.011719 224.371094 C 205.523438 225.238281 202.964844 225.828125 200.402344 226.425781 C 199.347656 226.675781 198.292969 226.933594 197.242188 227.1875 L 195.082031 227.699219 L 194.066406 227.949219 C 192.105469 228.398438 190.621094 228.496094 188.625 228.007812 L 188.46875 228.746094 C 187.921875 231.253906 187.292969 233.726562 186.601562 236.199219 L 186.3125 237.253906 L 186.027344 238.28125 L 185.773438 239.195312 C 185.480469 240.125 185.480469 240.125 185.035156 241.207031 C 184.5625 242.421875 184.238281 243.609375 183.933594 244.875 L 183.585938 246.308594 L 183.234375 247.757812 C 183.011719 248.632812 182.785156 249.511719 182.558594 250.386719 C 181.410156 254.886719 180.347656 259.359375 179.542969 263.933594 C 178.890625 267.414062 177.890625 270.828125 176.945312 274.238281 L 176.691406 275.167969 C 176.097656 277.328125 176.097656 277.328125 175.597656 277.828125 C 175.480469 278.859375 175.402344 279.875 175.34375 280.914062 L 175.285156 281.945312 C 175.15625 284.554688 175.136719 287.15625 175.152344 289.765625 L 175.15625 290.800781 C 175.164062 292.535156 175.179688 294.269531 175.203125 296.003906 C 175.238281 299.617188 175.046875 303.011719 174.25 306.550781 C 173.789062 309.296875 173.363281 312.023438 173.152344 314.800781 C 172.972656 316.785156 172.492188 318.257812 171.554688 320.015625 C 170.304688 320.640625 169.34375 320.550781 167.960938 320.464844 C 166.976562 320.214844 166.976562 320.214844 166.164062 319.570312 C 165.488281 318.433594 165.101562 317.683594 164.816406 316.425781 C 164.835938 315.4375 164.964844 314.5 165.113281 313.523438 C 166.308594 304.632812 163.839844 295.546875 161.621094 287.007812 C 160.246094 281.734375 159.121094 276.523438 158.527344 271.09375 L 157.628906 271.09375 L 157.496094 272.347656 C 157.019531 276.347656 156.46875 280.355469 154.933594 284.109375 C 154.070312 285.15625 154.070312 285.15625 153.136719 285.90625 C 151.589844 286.355469 151.589844 286.355469 149.992188 286.355469 C 148.699219 285.542969 148.699219 285.542969 147.746094 284.558594 C 147.296875 283.664062 147.296875 283.664062 147.183594 282.539062 C 147.28125 281.15625 147.507812 280.210938 147.9375 278.910156 C 148.648438 276.597656 149 274.335938 149.289062 271.9375 C 149.667969 269.03125 150.128906 266.210938 150.890625 263.382812 C 151.667969 260.476562 152.21875 257.589844 152.667969 254.617188 C 152.910156 253.058594 153.1875 251.539062 153.59375 250.015625 C 154.367188 247.023438 154.527344 244.082031 154.453125 241.007812 C 154.296875 234.445312 154.914062 227.179688 158.078125 221.273438 C 159.273438 220.429688 159.273438 220.429688 160.324219 219.929688 L 159.117188 219.285156 C 157.785156 218.410156 157.167969 217.480469 156.421875 216.085938 L 155.910156 215.046875 C 155.382812 214.097656 154.835938 213.46875 154.035156 212.746094 L 154.25 213.78125 C 154.5625 216.003906 154.601562 218.191406 154.625 220.433594 L 154.664062 221.777344 C 154.671875 222.984375 154.65625 224.121094 154.484375 225.316406 C 153.675781 226.492188 153.675781 226.492188 152.6875 227.109375 C 151.113281 227.53125 151.113281 227.53125 149.542969 227.558594 C 148.59375 227.132812 148.59375 227.132812 147.746094 226.210938 C 147.3125 224.925781 147.136719 223.625 146.957031 222.285156 L 146.792969 221.128906 C 146.023438 215.347656 145.890625 209.21875 147.628906 203.589844 C 148.519531 201.542969 149.867188 200.039062 151.601562 198.652344 C 156.320312 195.542969 162.027344 194.9375 167.492188 194.078125 C 168.433594 193.933594 168.433594 193.933594 169.308594 193.449219 C 169.5 190.816406 169.144531 189.128906 168 186.757812 C 167.589844 185.972656 167.175781 185.191406 166.753906 184.414062 C 165.609375 181.914062 165.472656 179.109375 165.714844 176.394531 C 166.75 169.746094 166.75 169.746094 168.410156 166.96875 C 170.984375 164.136719 174.136719 161.609375 177.8125 160.398438 C 180.070312 160 182.527344 160.300781 184.695312 161.019531 M 181.886719 169.210938 C 182.195312 172.160156 182.785156 174.992188 183.457031 177.878906 L 183.765625 179.222656 C 184.320312 181.644531 184.320312 181.644531 185.03125 184.023438 L 186.378906 183.574219 C 187.054688 180.363281 187.226562 176.867188 186.335938 173.683594 C 185.527344 171.933594 184.21875 170.484375 182.785156 169.210938 Z M 174.25 174.148438 C 173.464844 175.714844 173.574219 177.328125 173.578125 179.054688 C 173.835938 182.355469 175.34375 185.488281 176.605469 188.515625 C 177.453125 190.75 177.582031 192.871094 177.394531 195.242188 C 177.117188 196 176.816406 196.75 176.496094 197.488281 L 176.945312 198.835938 L 177.84375 197.039062 L 179.640625 197.039062 C 178.316406 189.367188 176.878906 181.738281 175.148438 174.148438 Z M 206.816406 183.433594 L 205.949219 184.023438 C 203.785156 185.519531 201.578125 187.046875 199.910156 189.101562 C 199.230469 190.730469 199.222656 192.171875 199.40625 193.898438 C 199.636719 195.261719 199.90625 196.609375 200.304688 197.9375 L 200.753906 198.386719 C 203.363281 198.222656 205.695312 197.503906 207.941406 196.140625 C 208.820312 195.003906 208.820312 195.003906 209.289062 193.898438 C 210.421875 193.332031 211.226562 193.402344 212.488281 193.421875 L 213.726562 193.433594 L 214.679688 193.449219 L 215.015625 194.542969 C 215.441406 195.75 215.894531 196.816406 216.449219 197.964844 C 217.625 200.539062 218.160156 203.253906 218.722656 206.015625 L 219.621094 205.566406 C 219.921875 198.601562 219.164062 191 215.910156 184.722656 C 214.996094 183.1875 214.398438 182.339844 212.882812 181.328125 C 210.277344 180.929688 208.847656 181.988281 206.816406 183.433594 M 187.277344 192.550781 L 187.277344 195.242188 C 188.589844 195.34375 188.589844 195.34375 189.523438 194.792969 C 189.535156 195.75 189.542969 196.703125 189.550781 197.65625 L 189.566406 199.265625 C 189.523438 200.628906 189.523438 200.628906 189.074219 201.527344 C 189.082031 202.609375 189.082031 202.609375 189.214844 203.800781 L 189.320312 205.019531 L 189.523438 206.015625 L 190.421875 206.464844 L 190.421875 193.449219 C 188.757812 192.449219 188.757812 192.449219 187.277344 192.550781 M 173.097656 200.855469 L 171.972656 201.484375 L 171.105469 201.976562 L 171.105469 202.875 L 171.957031 203.152344 L 173.070312 203.519531 L 174.175781 203.882812 C 175.148438 204.21875 175.148438 204.21875 176.046875 204.667969 L 175.597656 199.730469 C 174.699219 199.730469 173.855469 200.425781 173.097656 200.855469 M 172.003906 211.402344 C 170.746094 211.503906 169.488281 211.570312 168.226562 211.636719 C 167.070312 211.765625 167.070312 211.765625 166.296875 212.386719 C 165.546875 213.429688 165.136719 214.457031 164.703125 215.664062 L 164.21875 216.96875 L 163.917969 218.132812 L 164.367188 219.480469 L 165.265625 219.480469 C 165.707031 221.691406 165.78125 223.800781 165.769531 226.042969 L 165.773438 227.0625 C 165.773438 228.660156 165.664062 230.0625 165.265625 231.597656 C 165.207031 232.484375 165.164062 233.375 165.125 234.261719 C 164.9375 236.972656 164.3125 239.320312 163.464844 241.890625 C 163.058594 243.128906 162.714844 244.382812 162.429688 245.652344 C 162.355469 245.976562 162.285156 246.296875 162.210938 246.628906 C 162.082031 248.234375 162.335938 249.765625 162.570312 251.347656 C 162.652344 251.972656 162.730469 252.59375 162.8125 253.21875 C 163.730469 259.851562 165.152344 266.359375 166.613281 272.890625 L 167.511719 272.890625 C 167.976562 267.746094 168.414062 262.609375 168.488281 257.441406 C 168.597656 250.078125 169.121094 243.273438 170.808594 236.066406 C 171.320312 233.769531 171.699219 231.449219 172.085938 229.128906 C 172.464844 226.875 172.839844 224.636719 173.371094 222.414062 C 173.898438 220.097656 174.105469 217.773438 174.304688 215.414062 L 174.421875 214.105469 C 174.515625 213.054688 174.609375 212.003906 174.699219 210.953125 C 173.328125 210.882812 173.328125 210.882812 172.003906 211.402344 M 184.132812 217.234375 L 184.582031 218.582031 Z M 195.8125 217.683594 L 195.8125 219.03125 L 197.160156 218.582031 L 197.160156 217.683594 Z M 184.582031 218.582031 C 184.621094 219.226562 184.667969 219.875 184.722656 220.519531 L 184.800781 221.605469 C 184.957031 222.664062 184.957031 222.664062 185.722656 223.425781 L 186.378906 223.96875 C 186.25 223.324219 186.121094 222.675781 185.984375 222.03125 L 185.765625 220.945312 C 185.503906 219.816406 185.503906 219.816406 184.582031 218.582031 M 186.378906 223.96875 L 186.828125 224.867188 Z M 186.828125 224.867188 L 187.277344 226.210938 Z M 187.277344 226.210938 L 187.726562 227.109375 Z M 145.5 52.320312 C 148.125 53.4375 150.164062 55.089844 151.941406 57.308594 C 152.6875 58.378906 153.171875 59.355469 153.585938 60.59375 C 153.910156 64.644531 153.382812 68.230469 151.789062 71.964844 C 150.527344 74.453125 148.789062 76.355469 146.886719 78.378906 C 145.71875 79.703125 144.9375 81.015625 144.152344 82.585938 L 145.042969 82.390625 C 151.488281 81.082031 158.59375 81.429688 165 82.953125 C 168.683594 84.195312 171.703125 86.15625 174.332031 89.011719 C 176.46875 91.535156 178.617188 94.21875 179.640625 97.398438 C 180.003906 101.082031 179.871094 104.570312 178.40625 108.007812 C 176.882812 110.878906 174.722656 112.746094 172.035156 114.535156 C 161.222656 120.945312 149.554688 122.5 137.1875 122.898438 C 136.667969 122.917969 136.667969 122.917969 136.140625 122.933594 C 130.316406 123.132812 124.714844 123.09375 119.445312 120.289062 L 119.273438 121.199219 C 118.226562 126.078125 116.003906 130.339844 113.765625 134.757812 C 113.253906 135.800781 112.78125 136.859375 112.339844 137.933594 C 111.691406 139.417969 110.941406 140.703125 110.007812 142.03125 C 109.105469 143.339844 108.425781 144.546875 107.875 146.039062 C 107.011719 148.375 105.855469 150.503906 104.675781 152.6875 C 101.730469 158.203125 99.691406 163.546875 98.25 169.621094 C 97.582031 172.367188 96.859375 174.96875 95.183594 177.289062 C 94.328125 178.175781 93.507812 178.824219 92.488281 179.535156 C 91.039062 179.09375 90.289062 178.683594 89.234375 177.570312 C 88.132812 175.925781 88.132812 175.925781 87.996094 174.597656 C 88.449219 173.28125 88.449219 173.28125 89.148438 171.707031 C 90.386719 168.808594 91.34375 165.875 92.210938 162.84375 L 92.566406 161.609375 C 93.058594 159.851562 93.386719 158.488281 93.386719 156.644531 L 92.628906 157.5 C 90.417969 159.984375 88.125 162.390625 85.75 164.722656 L 84.804688 165.695312 C 83.953125 166.519531 83.953125 166.519531 83.054688 166.96875 C 81.597656 167.046875 80.277344 167.042969 78.84375 166.742188 L 78.113281 166.070312 C 77.621094 164.347656 77.492188 163.1875 77.917969 161.449219 C 78.964844 158.601562 80.566406 156.082031 82.203125 153.539062 C 83.023438 152.210938 83.707031 150.859375 84.402344 149.464844 C 84.839844 148.78125 85.289062 148.109375 85.75 147.441406 C 86.789062 145.917969 87.632812 144.390625 88.445312 142.730469 C 89.613281 140.710938 90.839844 138.730469 92.070312 136.75 L 92.546875 135.976562 C 93.003906 135.246094 93.457031 134.519531 93.914062 133.789062 C 95.324219 131.421875 96.230469 129.21875 96.980469 126.574219 L 97.878906 125.226562 C 98.117188 124.511719 98.328125 123.792969 98.527344 123.066406 C 99.042969 121.269531 99.691406 119.699219 100.574219 118.046875 C 101.414062 116.1875 102.125 114.332031 102.792969 112.40625 C 103.496094 110.488281 104.132812 108.8125 105.515625 107.273438 C 107.203125 106.65625 107.203125 106.65625 108.660156 106.375 L 108.660156 105.476562 L 107.933594 105.925781 C 106.863281 106.375 106.863281 106.375 105.574219 106.570312 C 104.167969 106.375 104.167969 106.375 102.84375 105.429688 C 101.417969 104.183594 100.59375 102.804688 99.707031 101.128906 C 98.636719 99.148438 97.535156 97.316406 96.167969 95.519531 C 94.574219 93.292969 93.769531 91.128906 93.386719 88.421875 C 93.292969 86.582031 93.53125 85.089844 94.261719 83.398438 C 95.140625 81.820312 96.058594 80.660156 97.601562 79.699219 C 99.296875 78.964844 100.523438 78.582031 102.371094 78.546875 C 104.519531 79.25 106.058594 80.230469 107.761719 81.691406 L 108.660156 82.136719 L 108.695312 81.261719 C 109.019531 76.105469 110.464844 71.617188 113.199219 67.226562 C 117.359375 61.144531 123.46875 57.796875 129.777344 54.3125 L 131.007812 53.605469 L 132.078125 52.992188 L 132.980469 52.476562 C 136.5 50.761719 141.851562 51.125 145.5 52.320312 M 128.429688 63.289062 C 123.925781 66.503906 119.828125 70.503906 117.195312 75.40625 C 116.816406 76.9375 116.695312 78.355469 116.703125 79.929688 L 116.707031 81.199219 L 116.71875 82.503906 L 116.726562 83.835938 C 116.730469 84.914062 116.738281 85.996094 116.746094 87.074219 L 117.59375 87.140625 L 118.695312 87.242188 L 119.792969 87.335938 C 120.792969 87.523438 120.792969 87.523438 121.941406 88.449219 L 122.589844 89.320312 C 122.679688 87.015625 122.640625 84.871094 122.140625 82.617188 C 121.660156 80.210938 121.558594 77.851562 121.519531 75.40625 L 121.484375 74.265625 C 121.484375 73.269531 121.503906 72.347656 121.691406 71.367188 C 122.496094 70.433594 122.496094 70.433594 123.488281 70.019531 C 124.976562 70.125 126.1875 70.246094 127.53125 70.917969 C 128.785156 70.996094 129.886719 71.050781 131.125 70.917969 C 132 70.488281 132 70.488281 132.472656 69.570312 L 133.144531 67.972656 L 133.820312 66.429688 C 135.167969 65.53125 135.167969 65.53125 136.085938 65.445312 L 137.046875 65.476562 L 138.761719 65.53125 C 139.863281 67.832031 140.332031 69.722656 140.558594 72.265625 L 141.90625 72.265625 C 143.789062 70.375 145.109375 68.046875 145.949219 65.53125 C 146.246094 64.167969 146.246094 64.167969 145.949219 62.839844 C 145.039062 61.332031 145.039062 61.332031 143.703125 60.144531 C 138.535156 57.730469 132.886719 60.484375 128.429688 63.289062 M 101.472656 87.972656 C 101.59375 89.730469 102.003906 90.929688 102.96875 92.375 C 103.402344 92.988281 103.839844 93.59375 104.28125 94.199219 C 108.941406 100.714844 108.941406 100.714844 109.476562 103.007812 L 109.558594 104.132812 L 110.007812 104.132812 L 110.007812 98.296875 L 111.355469 97.847656 L 110.597656 97.511719 C 109.089844 96.695312 107.761719 95.871094 106.832031 94.386719 C 106.21875 93.191406 105.644531 91.984375 105.085938 90.765625 C 104.609375 89.757812 104.609375 89.757812 103.71875 88.421875 C 102.542969 87.941406 102.542969 87.941406 101.472656 87.972656 M 132.960938 93.457031 C 130.375 94.433594 127.640625 95.4375 124.835938 95.15625 C 124.066406 94.585938 124.066406 94.585938 123.488281 93.808594 C 123.148438 92.773438 122.851562 91.722656 122.589844 90.667969 C 121.761719 91.902344 121.21875 92.84375 120.792969 94.257812 C 120.914062 95.554688 120.914062 95.554688 121.242188 96.949219 C 121.460938 98.160156 121.589844 99.308594 121.691406 100.539062 C 121.269531 101.550781 121.269531 101.550781 120.792969 102.335938 L 120.792969 104.132812 L 121.691406 104.582031 C 122.246094 107.003906 122.207031 109.328125 121.691406 111.761719 C 121.222656 112.78125 121.222656 112.78125 120.792969 113.558594 C 124.867188 114.351562 128.75 115.101562 132.921875 114.902344 L 133.371094 113.558594 C 133.097656 112.378906 133.097656 112.378906 132.628906 111.082031 L 132.132812 109.601562 C 131.78125 108.582031 131.429688 107.558594 131.074219 106.535156 C 129.464844 101.722656 129.464844 101.722656 129.777344 99.195312 C 130.476562 98.128906 130.476562 98.128906 131.574219 97.398438 C 133.144531 96.949219 133.144531 96.949219 134.71875 96.949219 C 135.652344 97.644531 135.652344 97.644531 136.515625 98.746094 C 137.082031 100.296875 137.082031 100.296875 137.523438 102 L 137.980469 103.71875 L 138.3125 105.027344 C 139.195312 104.765625 139.195312 104.765625 140.109375 104.132812 C 140.765625 102.882812 140.765625 102.882812 141.257812 101.4375 C 141.792969 99.980469 141.792969 99.980469 142.355469 98.746094 C 143.703125 97.847656 143.703125 97.847656 145.414062 97.734375 C 146.714844 97.757812 147.425781 97.898438 148.671875 98.382812 C 150.035156 98.855469 150.035156 98.855469 151.648438 98.492188 C 152.488281 98.144531 152.488281 98.144531 153.136719 97.398438 C 154.070312 94.910156 154.484375 92.421875 154.484375 89.769531 C 146.867188 89.433594 140.066406 90.726562 132.960938 93.457031 M 159.875 90.21875 C 160.15625 91.710938 160.71875 92.695312 161.558594 93.949219 C 163.101562 96.421875 163.859375 98.917969 164.648438 101.699219 C 165.339844 103.421875 166.109375 104.277344 167.511719 105.476562 L 168.859375 106.375 L 170.65625 106.375 C 170.972656 105.613281 171.28125 104.84375 171.582031 104.074219 L 172.101562 102.78125 C 172.523438 101.449219 172.523438 101.449219 172.382812 100.066406 C 171.59375 97.324219 169.433594 95.3125 167.480469 93.300781 C 166.128906 92.035156 164.917969 91.023438 163.128906 90.46875 C 161.621094 90.167969 161.621094 90.167969 159.875 90.21875 M 109.109375 104.132812 L 109.558594 105.027344 Z M 151.789062 111.3125 C 151.046875 112.417969 151.046875 112.417969 150.441406 113.558594 C 151.25 113.871094 151.25 113.871094 152.238281 114.003906 C 153.234375 113.621094 153.234375 113.621094 154.035156 113.109375 C 153.421875 112.191406 153.421875 112.191406 152.6875 111.3125 Z M 143.703125 112.660156 L 142.804688 114.453125 L 146.398438 114.453125 L 145.949219 113.109375 Z M 143.703125 112.660156 " fill-opacity="1" fill-rule="nonzero"/><path fill="#dbf3b4" d="M 289.25 41.746094 L 289.699219 43.988281 L 290.878906 43.539062 C 296.113281 42.117188 301.1875 43.40625 306.285156 44.710938 C 307.046875 44.917969 307.808594 45.125 308.566406 45.335938 L 309.75 45.644531 C 313.691406 46.734375 316.9375 48.730469 319.824219 51.65625 C 321.308594 53.523438 322.5 55.539062 322.941406 57.902344 C 323.441406 62.695312 322.9375 66.652344 321.007812 71.074219 C 320.753906 71.621094 320.503906 72.167969 320.246094 72.714844 L 319.640625 74.070312 C 317.914062 77.585938 315.355469 80.300781 312.609375 83.035156 L 311.515625 84.148438 C 307.09375 88.382812 302.324219 90.761719 296.457031 92.214844 L 295.464844 92.457031 C 293.847656 92.800781 293.847656 92.800781 292.933594 93.386719 C 290.816406 94.292969 288.257812 93.839844 285.984375 93.757812 C 285.015625 93.726562 284.046875 93.699219 283.082031 93.679688 C 282.460938 93.660156 281.84375 93.640625 281.222656 93.621094 L 279.523438 93.566406 C 277.933594 93.347656 277.050781 92.96875 275.773438 92.011719 C 275.328125 91.070312 275.273438 90.355469 275.203125 89.320312 C 275.324219 88.421875 275.324219 88.421875 276.335938 87.105469 C 277.570312 86.179688 277.570312 86.179688 278.917969 85.730469 C 279.917969 85.628906 280.921875 85.546875 281.921875 85.476562 L 283.527344 85.363281 L 284.757812 85.28125 L 284.308594 83.738281 C 283.835938 81.609375 283.757812 79.542969 283.746094 77.371094 L 283.734375 76.394531 C 283.746094 74.285156 284.039062 72.476562 284.757812 70.46875 L 285.65625 69.570312 C 285.925781 66.550781 285.257812 63.566406 284.757812 60.59375 L 284.640625 61.402344 C 283.992188 65.234375 282.429688 68.441406 280.660156 71.871094 C 279.851562 73.453125 279.300781 75.0625 278.789062 76.761719 C 278.46875 77.652344 278.46875 77.652344 277.570312 78.996094 C 277.347656 79.589844 277.140625 80.1875 276.953125 80.792969 C 276.472656 82.292969 275.953125 83.777344 275.394531 85.246094 C 274.300781 88.238281 273.433594 91.277344 272.574219 94.339844 L 272.101562 96 C 270.53125 101.433594 270.53125 101.433594 269.542969 106.992188 C 269.261719 109.097656 268.878906 111.183594 268.386719 113.253906 C 267.660156 116.320312 267.097656 119.316406 266.820312 122.460938 C 266.414062 126.617188 265.8125 130.730469 265.144531 134.851562 C 264.960938 135.992188 264.78125 137.132812 264.597656 138.273438 L 264.082031 141.492188 C 263.691406 143.894531 263.691406 143.894531 263.390625 145.042969 C 263.128906 146.152344 263.105469 147.21875 263.070312 148.355469 L 263.019531 149.792969 L 262.925781 152.785156 L 262.871094 154.21875 L 262.832031 155.53125 C 262.746094 156.644531 262.746094 156.644531 262.296875 157.992188 C 261.8125 161.59375 261.792969 165.246094 261.765625 168.875 L 261.746094 170.128906 C 261.742188 172.457031 261.980469 174.515625 262.542969 176.769531 C 262.875 178.355469 262.878906 179.914062 262.859375 181.527344 L 262.871094 182.484375 C 262.867188 183.296875 262.808594 184.109375 262.746094 184.921875 L 261.847656 185.816406 C 260.777344 186.003906 260.777344 186.003906 259.546875 186.097656 L 258.308594 186.199219 L 257.355469 186.265625 C 256.058594 184.203125 255.199219 182.476562 254.886719 180.039062 C 254.703125 179.078125 254.703125 179.078125 254.210938 178.1875 C 253.226562 177.382812 253.226562 177.382812 252.050781 176.671875 C 250.785156 175.867188 249.859375 175.238281 248.972656 174.027344 C 248.386719 172.886719 247.910156 171.761719 247.472656 170.558594 L 247.042969 169.457031 C 245.738281 165.566406 245.988281 161.585938 246.125 157.542969 C 246.132812 157.226562 246.136719 156.914062 246.144531 156.589844 C 246.324219 148.820312 247.851562 141.226562 250.121094 133.804688 C 250.8125 131.457031 251.21875 129.160156 251.488281 126.730469 C 251.875 123.265625 252.597656 119.949219 253.46875 116.574219 C 253.707031 115.652344 253.9375 114.730469 254.167969 113.808594 C 255.039062 110.355469 256.078125 107.011719 257.355469 103.683594 C 257.984375 101.882812 258.578125 100.082031 259.105469 98.253906 L 259.546875 96.753906 L 259.933594 95.382812 C 260.40625 94.066406 260.933594 92.917969 261.566406 91.683594 C 262.765625 89.347656 263.699219 86.957031 264.601562 84.496094 C 266.75 78.664062 266.75 78.664062 267.6875 77.203125 L 269.023438 76.574219 L 270.382812 75.855469 C 271.035156 74.675781 271.503906 73.65625 271.957031 72.40625 L 272.351562 71.382812 C 272.753906 70.332031 273.144531 69.28125 273.527344 68.226562 C 273.984375 66.980469 274.445312 65.738281 274.902344 64.496094 L 275.234375 63.59375 C 276.4375 60.378906 277.957031 57.34375 279.65625 54.367188 C 281.402344 51.183594 281.988281 48.566406 282.234375 45 C 282.511719 43.539062 282.511719 43.539062 283.382812 42.46875 C 284.308594 41.746094 284.308594 41.746094 285.125 41.378906 C 286.539062 41.257812 287.855469 41.503906 289.25 41.746094 M 288.800781 44.4375 L 289.25 45.335938 Z M 289.699219 50.273438 L 287.902344 54.761719 L 289.25 55.210938 L 290.148438 54.761719 L 290.148438 50.273438 Z M 310.363281 54.761719 C 311.089844 56.300781 311.972656 57.707031 312.890625 59.136719 L 313.75 60.476562 L 314.40625 61.492188 L 315.304688 60.59375 C 314.644531 59.039062 313.957031 57.542969 313.058594 56.105469 C 311.675781 55.128906 311.675781 55.128906 310.363281 54.761719 M 302.277344 65.53125 L 302.894531 67.804688 L 303.269531 69.179688 C 303.535156 70.140625 303.828125 71.09375 304.132812 72.039062 C 304.667969 74.191406 304.820312 76.339844 304.972656 78.546875 C 306.046875 78.4375 306.046875 78.4375 307.21875 78.097656 C 308.039062 77.417969 308.039062 77.417969 308.679688 76.558594 L 309.359375 75.714844 C 310.117188 74.683594 310.359375 74.09375 310.523438 72.800781 L 310.363281 71.367188 C 309.476562 70.121094 309.476562 70.121094 308.257812 69.039062 L 307.074219 67.898438 C 305.960938 66.953125 304.925781 66.195312 303.625 65.53125 Z M 298.234375 80.34375 L 299.132812 82.585938 C 300.753906 82.292969 300.753906 82.292969 302.277344 81.691406 L 302.277344 80.792969 Z M 177.84375 196.589844 L 179.640625 197.039062 L 179.808594 197.949219 C 180.789062 203.117188 181.765625 208.242188 183.351562 213.265625 C 183.992188 215.316406 184.429688 217.335938 184.804688 219.453125 C 185.328125 222.25 186.125 224.734375 187.726562 227.109375 L 188.625 227.558594 C 188.363281 229.671875 187.933594 231.746094 187.332031 233.785156 L 186.84375 235.453125 C 186.484375 236.636719 186.105469 237.808594 185.703125 238.976562 C 184.722656 241.859375 183.992188 244.808594 183.234375 247.757812 L 182.910156 249 C 181.628906 253.957031 180.429688 258.890625 179.542969 263.933594 C 178.890625 267.414062 177.890625 270.828125 176.945312 274.238281 L 176.691406 275.167969 C 176.097656 277.328125 176.097656 277.328125 175.597656 277.828125 C 175.480469 278.859375 175.402344 279.875 175.34375 280.914062 L 175.285156 281.945312 C 175.15625 284.554688 175.136719 287.15625 175.152344 289.765625 L 175.15625 290.800781 C 175.164062 292.535156 175.179688 294.269531 175.203125 296.003906 C 175.238281 299.617188 175.046875 303.011719 174.25 306.550781 C 173.789062 309.296875 173.363281 312.023438 173.152344 314.800781 C 172.972656 316.785156 172.492188 318.257812 171.554688 320.015625 C 170.304688 320.640625 169.34375 320.550781 167.960938 320.464844 C 166.976562 320.214844 166.976562 320.214844 166.164062 319.570312 C 165.488281 318.433594 165.101562 317.683594 164.816406 316.425781 C 164.835938 315.4375 164.964844 314.5 165.113281 313.523438 C 166.308594 304.632812 163.839844 295.546875 161.621094 287.007812 C 160.246094 281.734375 159.121094 276.523438 158.527344 271.09375 L 157.628906 271.09375 L 157.496094 272.347656 C 157.019531 276.347656 156.46875 280.355469 154.933594 284.109375 C 154.070312 285.15625 154.070312 285.15625 153.136719 285.90625 C 151.589844 286.355469 151.589844 286.355469 149.992188 286.355469 C 148.699219 285.542969 148.699219 285.542969 147.746094 284.558594 C 147.296875 283.664062 147.296875 283.664062 147.183594 282.539062 C 147.28125 281.15625 147.507812 280.210938 147.9375 278.910156 C 148.648438 276.597656 149 274.335938 149.289062 271.9375 C 149.667969 269.03125 150.128906 266.210938 150.890625 263.382812 C 151.667969 260.476562 152.21875 257.589844 152.667969 254.617188 C 152.910156 253.058594 153.1875 251.539062 153.59375 250.015625 C 154.367188 247.023438 154.527344 244.082031 154.453125 241.007812 C 154.292969 234.410156 154.929688 227.214844 158.078125 221.273438 C 159.828125 220.03125 161.363281 219.886719 163.441406 219.621094 C 164.046875 219.566406 164.65625 219.519531 165.265625 219.480469 C 166.171875 221.738281 166.285156 223.652344 166.246094 226.042969 L 166.246094 227.0625 C 166.234375 228.65625 166.113281 230.066406 165.714844 231.597656 C 165.65625 232.484375 165.613281 233.375 165.574219 234.261719 C 165.386719 236.972656 164.761719 239.320312 163.914062 241.890625 C 163.507812 243.128906 163.164062 244.382812 162.878906 245.652344 C 162.804688 245.976562 162.734375 246.296875 162.660156 246.628906 C 162.53125 248.234375 162.78125 249.765625 163.019531 251.347656 L 163.277344 253.28125 C 163.957031 258.085938 164.839844 262.820312 165.882812 267.5625 C 165.976562 267.996094 166.070312 268.429688 166.167969 268.878906 L 166.425781 270.046875 C 166.613281 271.09375 166.613281 271.09375 166.613281 272.890625 L 167.511719 272.890625 C 167.558594 271.765625 167.601562 270.640625 167.648438 269.515625 C 167.6875 268.492188 167.730469 267.46875 167.773438 266.441406 C 167.894531 263.441406 167.976562 260.445312 168.011719 257.441406 C 168.109375 250.085938 168.675781 243.261719 170.359375 236.066406 C 170.871094 233.769531 171.25 231.449219 171.636719 229.128906 C 172.015625 226.867188 172.394531 224.621094 172.929688 222.386719 C 173.515625 219.847656 173.625 217.269531 173.738281 214.671875 C 173.820312 213.527344 173.9375 212.507812 174.25 211.402344 C 174.886719 210.464844 175.558594 209.707031 176.371094 208.917969 L 176.945312 208.257812 C 176.972656 206.867188 176.652344 205.957031 176.140625 204.679688 C 175.148438 202.195312 175.148438 202.195312 175.148438 200.824219 C 175.800781 199.234375 176.789062 197.941406 177.84375 196.589844 " fill-opacity="1" fill-rule="nonzero"/><path fill="#efbfd5" d="M 308.566406 45.335938 L 309.75 45.644531 C 313.691406 46.734375 316.9375 48.730469 319.824219 51.65625 C 321.308594 53.523438 322.5 55.539062 322.941406 57.902344 C 323.441406 62.695312 322.9375 66.652344 321.007812 71.074219 C 320.753906 71.621094 320.503906 72.167969 320.246094 72.714844 L 319.640625 74.070312 C 317.914062 77.585938 315.355469 80.300781 312.609375 83.035156 L 311.515625 84.148438 C 307.09375 88.382812 302.324219 90.761719 296.457031 92.214844 L 295.464844 92.457031 C 293.847656 92.800781 293.847656 92.800781 292.933594 93.386719 C 290.816406 94.292969 288.257812 93.839844 285.984375 93.757812 C 285.015625 93.726562 284.046875 93.699219 283.082031 93.679688 C 282.460938 93.660156 281.84375 93.640625 281.222656 93.621094 L 279.523438 93.566406 C 277.933594 93.347656 277.050781 92.96875 275.773438 92.011719 C 275.328125 91.070312 275.273438 90.355469 275.203125 89.320312 C 275.324219 88.421875 275.324219 88.421875 276.335938 87.105469 C 277.570312 86.179688 277.570312 86.179688 278.917969 85.730469 C 279.917969 85.628906 280.921875 85.546875 281.921875 85.476562 L 283.527344 85.363281 L 284.757812 85.28125 L 284.308594 83.738281 C 283.835938 81.609375 283.757812 79.542969 283.746094 77.371094 L 283.734375 76.394531 C 283.746094 74.285156 284.039062 72.476562 284.757812 70.46875 L 285.65625 69.570312 C 285.867188 66.816406 285.28125 64.292969 284.628906 61.632812 C 284.425781 60.65625 284.289062 59.796875 284.308594 58.800781 C 284.898438 57.203125 285.796875 55.964844 287.003906 54.761719 C 288.632812 54.703125 288.632812 54.703125 290.148438 54.761719 C 290.097656 54.03125 290.039062 53.300781 289.980469 52.570312 L 289.886719 51.339844 L 289.699219 50.273438 L 288.800781 49.375 C 288.617188 48.402344 288.617188 48.402344 288.519531 47.296875 L 288.417969 46.1875 L 288.351562 45.335938 L 289.25 45.335938 L 289.699219 43.988281 C 295.640625 41.367188 302.667969 43.710938 308.566406 45.335938 M 310.363281 54.761719 C 311.089844 56.300781 311.972656 57.707031 312.890625 59.136719 L 313.75 60.476562 L 314.40625 61.492188 L 315.304688 60.59375 C 314.644531 59.039062 313.957031 57.542969 313.058594 56.105469 C 311.675781 55.128906 311.675781 55.128906 310.363281 54.761719 M 302.277344 65.53125 L 302.894531 67.804688 L 303.269531 69.179688 C 303.535156 70.140625 303.828125 71.09375 304.132812 72.039062 C 304.667969 74.191406 304.820312 76.339844 304.972656 78.546875 C 306.046875 78.4375 306.046875 78.4375 307.21875 78.097656 C 308.039062 77.417969 308.039062 77.417969 308.679688 76.558594 L 309.359375 75.714844 C 310.117188 74.683594 310.359375 74.09375 310.523438 72.800781 L 310.363281 71.367188 C 309.476562 70.121094 309.476562 70.121094 308.257812 69.039062 L 307.074219 67.898438 C 305.960938 66.953125 304.925781 66.195312 303.625 65.53125 Z M 298.234375 80.34375 L 299.132812 82.585938 C 300.753906 82.292969 300.753906 82.292969 302.277344 81.691406 L 302.277344 80.792969 Z M 298.234375 80.34375 " fill-opacity="1" fill-rule="nonzero"/><path fill="#dbf3b4" d="M 119.164062 86.683594 C 120.792969 87.074219 120.792969 87.074219 121.941406 87.972656 L 122.589844 89.320312 C 122.472656 90.722656 122.09375 92.015625 121.691406 93.359375 C 121.328125 94.769531 121.328125 94.769531 121.242188 96.050781 L 121.691406 97.148438 C 122.140625 98.296875 122.140625 98.296875 122.027344 99.839844 C 121.71875 101.300781 121.308594 102.730469 120.792969 104.132812 L 122.140625 104.582031 C 122.605469 107.007812 122.8125 109.351562 122.140625 111.761719 C 121.042969 113.078125 121.042969 113.078125 119.894531 114.003906 L 118.996094 114.902344 C 118.898438 116.527344 118.972656 117.9375 119.304688 119.53125 C 119.582031 122.839844 118.144531 125.636719 116.78125 128.582031 C 115.800781 130.65625 114.800781 132.714844 113.765625 134.761719 C 113.253906 135.804688 112.777344 136.859375 112.339844 137.933594 C 111.691406 139.417969 110.941406 140.703125 110.007812 142.03125 C 109.105469 143.339844 108.425781 144.546875 107.875 146.039062 C 107.011719 148.375 105.855469 150.503906 104.675781 152.6875 C 101.730469 158.203125 99.691406 163.546875 98.25 169.621094 C 97.582031 172.367188 96.859375 174.96875 95.183594 177.289062 C 94.328125 178.175781 93.507812 178.824219 92.488281 179.535156 C 91.039062 179.09375 90.289062 178.683594 89.234375 177.570312 C 88.132812 175.925781 88.132812 175.925781 87.996094 174.597656 C 88.449219 173.28125 88.449219 173.28125 89.148438 171.707031 C 90.386719 168.808594 91.34375 165.875 92.210938 162.84375 L 92.566406 161.609375 C 93.058594 159.851562 93.386719 158.488281 93.386719 156.644531 L 92.628906 157.5 C 90.417969 159.984375 88.125 162.390625 85.75 164.722656 L 84.804688 165.695312 C 83.953125 166.519531 83.953125 166.519531 83.054688 166.96875 C 81.597656 167.046875 80.277344 167.042969 78.84375 166.742188 L 78.113281 166.070312 C 77.621094 164.347656 77.492188 163.1875 77.917969 161.449219 C 78.964844 158.601562 80.566406 156.082031 82.203125 153.539062 C 83.023438 152.210938 83.707031 150.859375 84.402344 149.464844 C 84.839844 148.78125 85.289062 148.109375 85.75 147.441406 C 86.789062 145.917969 87.632812 144.390625 88.445312 142.730469 C 89.613281 140.710938 90.839844 138.730469 92.070312 136.75 L 92.546875 135.976562 C 93.003906 135.246094 93.457031 134.519531 93.914062 133.789062 C 95.324219 131.421875 96.230469 129.21875 96.980469 126.574219 L 97.878906 125.226562 C 98.117188 124.511719 98.328125 123.792969 98.527344 123.066406 C 99.042969 121.269531 99.691406 119.699219 100.574219 118.046875 C 101.414062 116.1875 102.125 114.332031 102.792969 112.40625 C 103.496094 110.488281 104.132812 108.8125 105.515625 107.273438 C 106.5625 106.964844 107.613281 106.667969 108.660156 106.375 C 109.605469 104.660156 109.722656 103.003906 109.839844 101.074219 L 109.941406 99.492188 L 110.007812 98.296875 L 110.945312 98.09375 C 112.300781 97.699219 113.332031 97.300781 114.5 96.5 C 115.335938 94.765625 115.582031 93.011719 115.847656 91.117188 C 116.113281 89.753906 116.417969 88.421875 116.746094 87.074219 C 117.644531 86.628906 117.644531 86.628906 119.164062 86.683594 M 188.625 194.792969 L 189.523438 194.792969 C 189.890625 196.09375 190.058594 197.289062 190.085938 198.636719 L 190.121094 199.675781 L 189.972656 200.628906 C 189.289062 201.425781 189.289062 201.425781 188.625 201.976562 C 188.449219 200.949219 188.28125 199.917969 188.117188 198.890625 L 187.835938 197.15625 L 187.726562 195.691406 Z M 188.625 194.792969 " fill-opacity="1" fill-rule="nonzero"/><path fill="#f5f3e9" d="M 176.046875 205.117188 L 176.945312 205.566406 C 177.367188 206.773438 177.367188 206.773438 177.394531 208.257812 C 176.75 209.316406 176.019531 210.058594 175.148438 210.953125 L 173.800781 210.503906 L 174.671875 209.832031 C 175.640625 208.824219 175.640625 208.824219 175.816406 207.789062 C 175.921875 206.902344 175.988281 206.007812 176.046875 205.117188 M 115.398438 92.011719 C 115.710938 92.714844 115.710938 92.714844 115.847656 93.808594 C 115.34375 95.464844 115.34375 95.464844 114.5 96.949219 C 113.292969 97.371094 113.292969 97.371094 112.253906 97.398438 L 113.324219 96.222656 C 114.425781 94.90625 114.960938 93.683594 115.398438 92.011719 " fill-opacity="1" fill-rule="nonzero"/></svg>