<svg xmlns="http://www.w3.org/2000/svg" xmlns:xlink="http://www.w3.org/1999/xlink" width="503" zoomAndPan="magnify" viewBox="0 0 377.25 347.249998" height="463" preserveAspectRatio="xMidYMid meet" version="1.0"><path fill="#fdeb5f" d="M 108.515625 71.257812 L 109.273438 71.761719 C 111.164062 73 112.992188 74.09375 115.105469 74.902344 C 115.75 75.238281 115.75 75.238281 116.472656 76.324219 L 117.691406 76.84375 C 118.96875 77.394531 119.535156 77.84375 120.449219 78.855469 L 121.261719 79.441406 L 121.894531 79.941406 L 121.894531 80.664062 L 123.046875 80.914062 C 124.101562 81.210938 124.421875 81.378906 125.21875 82.199219 C 126.519531 83.476562 127.9375 84.089844 129.582031 84.847656 C 130.480469 85.316406 130.980469 85.726562 131.660156 86.449219 L 132.496094 86.722656 C 133.503906 87.191406 133.757812 87.472656 134.417969 88.328125 C 135.625 89.839844 137.101562 90.71875 138.75 91.703125 C 139.613281 92.238281 139.613281 92.238281 140.335938 92.960938 C 140.792969 93.136719 141.253906 93.292969 141.714844 93.4375 C 143.1875 93.960938 143.972656 94.703125 145.039062 95.855469 C 145.753906 96.351562 146.476562 96.835938 147.207031 97.300781 C 149.375 98.746094 151.351562 100.273438 153.269531 102.03125 C 154.324219 102.9375 155.453125 103.683594 156.628906 104.417969 C 157.332031 104.898438 157.332031 104.898438 157.902344 105.46875 C 158.445312 106.066406 158.445312 106.066406 159.457031 106.480469 C 160.710938 107.132812 161.394531 107.875 162.394531 108.878906 C 163 109.332031 163.609375 109.773438 164.226562 110.210938 C 165.695312 111.261719 167.121094 112.367188 168.496094 113.535156 C 171.96875 116.457031 175.570312 119.171875 179.304688 121.75 C 180.496094 122.570312 181.648438 123.394531 182.738281 124.34375 C 183.769531 125.222656 184.707031 125.964844 185.898438 126.601562 C 187.9375 126.929688 189.863281 126.824219 191.882812 126.417969 C 193.574219 126.175781 195.246094 126.167969 196.957031 126.152344 L 198.082031 126.144531 C 205.832031 126.085938 213.371094 126.03125 220.976562 127.6875 L 222.140625 127.921875 C 233.695312 130.265625 233.695312 130.265625 237.605469 133.699219 L 238.332031 134.558594 L 238.332031 135.28125 C 236.894531 134.742188 235.574219 134.0625 234.21875 133.339844 C 230.625 131.488281 226.824219 130.503906 222.785156 130.21875 L 223.667969 130.539062 C 226.738281 131.714844 229.707031 133.0625 232.660156 134.515625 L 233.757812 135.042969 C 238.199219 137.253906 242.210938 140.511719 245.015625 144.636719 C 248.027344 149.261719 250.402344 154.46875 251.589844 159.875 C 251.796875 160.804688 251.988281 161.574219 252.4375 162.410156 C 253.234375 163.003906 254.03125 163.414062 254.929688 163.832031 C 255.691406 164.21875 255.691406 164.21875 256.480469 165.101562 C 256.777344 166.027344 256.777344 166.027344 256.617188 167.136719 L 256.050781 168.199219 L 254.949219 168.703125 L 253.882812 169.644531 C 253.5625 171.167969 253.617188 172.683594 253.632812 174.234375 C 253.621094 175.160156 253.605469 176.085938 253.585938 177.011719 L 253.5625 178.421875 C 253.398438 183.878906 252.4375 189.210938 251.214844 194.515625 L 250.910156 195.855469 C 249.582031 201.371094 247.542969 206.042969 244.160156 210.574219 C 243.644531 211.273438 243.136719 211.976562 242.644531 212.691406 C 241.351562 214.546875 240.3125 215.878906 238.332031 217.03125 C 236.804688 218.28125 235.390625 219.613281 233.996094 221.011719 L 239.417969 221.011719 L 240.140625 222.457031 C 239.554688 223.316406 239.554688 223.316406 238.695312 224.265625 C 236.636719 225.222656 234.414062 225.160156 232.1875 225.28125 C 227.210938 225.621094 223.558594 226.890625 219.136719 229.199219 C 217.519531 229.957031 215.84375 230.386719 214.105469 230.777344 C 213.863281 235.359375 215.25 239.765625 216.414062 244.152344 C 217.777344 249.300781 219.011719 254.484375 220.253906 259.660156 C 220.546875 260.886719 220.847656 262.109375 221.148438 263.332031 C 222.191406 267.636719 222.914062 271.976562 223.621094 276.34375 C 224.625 282.53125 225.800781 288.671875 227.40625 294.734375 L 227.722656 295.933594 C 227.917969 296.675781 228.125 297.417969 228.335938 298.15625 C 228.980469 300.566406 228.980469 300.566406 228.824219 301.75 C 228.625 302.457031 228.625 302.457031 228.207031 303.480469 L 227.484375 303.121094 C 227.222656 302.222656 226.988281 301.316406 226.792969 300.402344 L 226.597656 299.542969 C 226.382812 298.605469 226.179688 297.664062 225.972656 296.722656 L 225.753906 295.746094 C 224.386719 289.601562 223.21875 283.429688 222.117188 277.238281 C 221.476562 273.648438 220.789062 270.066406 220.085938 266.488281 C 219.960938 265.855469 219.839844 265.226562 219.714844 264.59375 C 219.023438 261.023438 218.164062 257.523438 217.203125 254.015625 C 215.515625 247.875 214.199219 241.691406 213.113281 235.417969 L 212.949219 234.464844 L 212.804688 233.628906 C 212.683594 232.917969 212.683594 232.917969 212.296875 232.222656 C 210.03125 232.445312 207.835938 232.796875 205.609375 233.261719 C 203.253906 233.746094 200.898438 234.214844 198.535156 234.644531 L 197.144531 234.894531 C 194.503906 235.3125 191.878906 235.488281 189.210938 235.53125 C 187.972656 235.550781 186.738281 235.582031 185.5 235.617188 C 184.859375 235.628906 184.222656 235.636719 183.582031 235.640625 C 180.546875 235.632812 180.546875 235.632812 177.582031 236.203125 C 176.632812 236.972656 176.222656 237.652344 175.664062 238.734375 C 174.902344 240.089844 173.949219 241.058594 172.851562 242.140625 L 172.242188 242.746094 C 171.832031 243.15625 171.417969 243.5625 171.003906 243.972656 C 170.375 244.589844 169.746094 245.210938 169.121094 245.835938 C 167.0625 247.882812 164.980469 249.882812 162.757812 251.757812 L 161.480469 252.851562 L 160.25 253.902344 C 156.769531 256.859375 156.769531 256.859375 153.445312 259.984375 C 152.632812 260.800781 152.632812 260.800781 151.707031 261.523438 C 150.800781 262.210938 150.800781 262.210938 150.167969 263.105469 C 149.46875 263.945312 148.921875 264.410156 148.042969 265.027344 C 146.511719 266.132812 145.339844 267.441406 144.125 268.878906 C 143.402344 269.65625 142.691406 270.328125 141.890625 271.015625 C 140.171875 272.492188 138.585938 274.085938 136.992188 275.699219 L 136.128906 276.566406 C 135.601562 277.097656 135.070312 277.628906 134.542969 278.164062 C 134.054688 278.65625 133.5625 279.148438 133.070312 279.632812 C 132.324219 280.371094 132.324219 280.371094 131.5 281.394531 C 130.574219 282.503906 130.574219 282.503906 129.738281 283.316406 C 128.550781 284.53125 127.542969 285.851562 126.511719 287.199219 L 125.875 287.929688 L 125.148438 287.929688 L 124.882812 288.515625 C 124.308594 289.59375 123.609375 290.558594 122.890625 291.546875 C 122.566406 291.996094 122.242188 292.445312 121.917969 292.898438 L 121.382812 293.640625 C 116.484375 300.105469 116.484375 300.105469 112.5625 307.152344 C 111.570312 309.429688 110.289062 311.535156 109.03125 313.675781 C 107.992188 315.460938 107.078125 317.21875 106.332031 319.144531 L 105.984375 319.757812 L 104.898438 320.121094 L 104.175781 319.398438 C 104.246094 318.515625 104.246094 318.515625 104.539062 317.589844 L 105.066406 317.113281 C 105.695312 316.511719 105.695312 316.511719 105.914062 315.554688 C 106.066406 314.84375 106.21875 314.136719 106.367188 313.429688 L 106.707031 312.523438 C 107.457031 312.109375 107.457031 312.109375 108.15625 311.800781 C 108.238281 311.214844 108.320312 310.628906 108.371094 310.039062 C 108.671875 308.449219 109.558594 307.058594 110.324219 305.652344 L 110.675781 304.945312 C 111.460938 303.429688 112.457031 302.40625 113.675781 301.246094 C 114.496094 300.382812 115.074219 299.445312 115.660156 298.414062 C 116.109375 297.695312 116.109375 297.695312 116.785156 296.871094 C 117.527344 295.921875 118.132812 294.960938 118.746094 293.925781 C 121.652344 289.054688 125.40625 285.070312 129.332031 281.003906 C 130.636719 279.644531 131.710938 278.300781 132.742188 276.714844 C 134.519531 274.757812 136.460938 272.96875 138.464844 271.25 C 140.011719 269.90625 141.511719 268.5 143.019531 267.109375 C 143.585938 266.59375 144.152344 266.074219 144.722656 265.5625 C 146.398438 264.035156 148.054688 262.503906 149.648438 260.890625 C 151.683594 258.835938 153.761719 257.027344 156.136719 255.375 C 157.570312 254.355469 158.492188 253.453125 159.414062 251.972656 C 160.132812 251.046875 161.085938 250.566406 162.085938 249.988281 C 162.925781 249.484375 163.535156 248.851562 164.203125 248.140625 L 165.039062 247.507812 C 165.882812 246.800781 166.527344 246.121094 167.230469 245.289062 C 168.230469 244.117188 169.273438 243.113281 170.46875 242.140625 C 171.753906 241.050781 172.839844 239.835938 173.875 238.507812 L 174.550781 237.65625 L 175.050781 236.925781 L 175.050781 236.203125 C 173.960938 236.136719 172.886719 236.109375 171.796875 236.203125 C 170.847656 236.707031 170.847656 236.707031 169.988281 237.289062 C 169.148438 237.414062 168.304688 237.535156 167.457031 237.648438 C 166.957031 237.828125 166.460938 238.015625 165.964844 238.214844 C 164.851562 238.660156 163.976562 238.847656 162.757812 238.734375 L 162.757812 238.011719 L 160.949219 238.734375 C 160.949219 237.898438 160.949219 237.898438 161.3125 236.925781 C 162.585938 236.195312 163.824219 235.839844 165.289062 235.839844 L 165.289062 234.753906 L 162.035156 234.394531 L 161.660156 233.210938 C 161.375 232.496094 161.375 232.496094 160.949219 231.863281 C 160.019531 231.3125 159.230469 230.929688 158.238281 230.550781 C 155.699219 229.46875 153.449219 228.171875 151.1875 226.59375 L 150.347656 226.011719 C 148.660156 224.820312 147.039062 223.566406 145.449219 222.242188 C 144.574219 221.667969 143.902344 221.492188 142.867188 221.371094 C 139.242188 222.140625 135.609375 224.679688 132.382812 226.4375 L 131.273438 227.039062 C 123.402344 231.34375 116.214844 236.113281 109.253906 241.769531 C 108.515625 242.351562 108.515625 242.351562 107.316406 243.144531 C 106.320312 243.773438 106.320312 243.773438 105.5 244.648438 C 104.59375 245.550781 103.664062 246.347656 102.664062 247.144531 C 101.363281 248.191406 100.109375 249.261719 98.886719 250.398438 C 97.308594 251.84375 95.644531 253.136719 93.9375 254.425781 C 90.527344 257.003906 87.269531 259.703125 84.128906 262.609375 C 82.09375 264.476562 79.949219 266.171875 77.757812 267.855469 C 77.015625 268.425781 76.273438 269 75.53125 269.578125 C 73.128906 271.4375 70.714844 273.277344 68.242188 275.042969 L 67.125 275.839844 L 66.207031 276.351562 L 65.121094 275.992188 C 65.027344 275.171875 65.027344 275.171875 65.121094 274.183594 C 65.761719 273.488281 65.761719 273.488281 66.660156 272.828125 L 67.660156 272.074219 L 68.738281 271.289062 C 69.460938 270.746094 70.1875 270.203125 70.910156 269.660156 L 72.011719 268.839844 C 73.308594 267.859375 74.574219 266.847656 75.839844 265.828125 C 76.667969 265.164062 77.5 264.515625 78.34375 263.875 C 79.425781 263.039062 80.453125 262.167969 81.464844 261.25 C 83.847656 259.101562 86.40625 257.167969 88.949219 255.210938 C 91.894531 252.992188 91.894531 252.992188 94.59375 250.488281 C 96.292969 248.703125 98.308594 247.261719 100.253906 245.761719 C 101.089844 245.113281 101.921875 244.460938 102.753906 243.804688 C 103.378906 243.3125 104.003906 242.820312 104.632812 242.328125 C 105.589844 241.578125 106.542969 240.824219 107.496094 240.066406 C 110.351562 237.8125 113.246094 235.628906 116.222656 233.535156 L 117.070312 232.9375 C 120.917969 230.261719 124.941406 227.90625 129.042969 225.652344 C 129.71875 225.28125 130.390625 224.90625 131.066406 224.53125 C 133.382812 223.25 135.703125 222.058594 138.160156 221.058594 L 138.890625 220.648438 C 139.421875 219.527344 139.421875 219.527344 139.253906 218.476562 L 138.890625 218.117188 C 138.875 217.273438 138.875 216.429688 138.890625 215.585938 L 138.085938 215.738281 C 136.996094 215.902344 136.015625 216.015625 134.914062 215.945312 C 133.996094 215.3125 133.683594 214.757812 133.105469 213.777344 C 133.398438 213.097656 133.398438 213.097656 133.828125 212.328125 L 134.914062 211.605469 C 134.746094 210.230469 134.273438 209.257812 133.574219 208.078125 C 131.402344 204.320312 129.910156 200.585938 128.765625 196.414062 L 128.425781 195.242188 C 127.527344 191.835938 127.335938 188.351562 127.320312 184.839844 L 127.679688 184.476562 C 127.742188 183.886719 127.789062 183.296875 127.828125 182.703125 C 128 180.621094 128.410156 178.6875 128.96875 176.675781 L 129.253906 175.640625 C 130.148438 172.527344 131.363281 169.613281 132.777344 166.703125 C 133.066406 166.101562 133.351562 165.503906 133.628906 164.898438 C 134.476562 163.101562 135.425781 161.742188 136.722656 160.242188 C 137.09375 159.523438 137.457031 158.800781 137.804688 158.070312 C 137.996094 157.859375 138.183594 157.644531 138.375 157.421875 C 138.976562 156.628906 138.976562 156.628906 138.996094 155.535156 L 138.957031 154.363281 L 138.929688 153.183594 L 138.890625 152.285156 L 139.550781 152.238281 C 140.507812 152.113281 141.265625 151.960938 142.144531 151.558594 C 142.65625 150.761719 142.933594 149.988281 143.246094 149.09375 C 143.59375 148.304688 143.59375 148.304688 144.699219 147.492188 L 145.761719 146.859375 L 146.214844 145.953125 L 146.847656 145.050781 C 147.742188 144.636719 148.652344 144.3125 149.578125 143.976562 C 150.773438 143.472656 151.480469 142.8125 152.269531 141.792969 C 152.582031 141.007812 152.582031 141.007812 152.632812 140.347656 L 151.886719 140.066406 C 150.648438 139.550781 149.46875 138.953125 148.277344 138.335938 L 147.535156 137.949219 C 147.011719 137.679688 146.488281 137.410156 145.964844 137.140625 C 145.195312 136.742188 144.421875 136.339844 143.648438 135.941406 C 141.496094 134.832031 139.347656 133.71875 137.210938 132.578125 C 133.234375 130.460938 129.199219 128.460938 125.105469 126.578125 L 124.175781 126.152344 C 119.566406 124.03125 114.945312 122.121094 110.128906 120.515625 C 108.640625 120.011719 107.164062 119.484375 105.683594 118.953125 C 99.550781 116.765625 93.410156 114.683594 87.167969 112.816406 C 85.339844 112.261719 83.511719 111.695312 81.6875 111.117188 L 80.710938 110.808594 C 78.960938 110.253906 77.285156 109.632812 75.609375 108.878906 L 75.609375 108.152344 C 80.609375 108.625 85.609375 110.398438 90.300781 112.15625 C 91.730469 112.691406 93.167969 113.128906 94.640625 113.535156 C 97.390625 114.300781 100.058594 115.257812 102.746094 116.222656 C 104.757812 116.9375 106.777344 117.644531 108.835938 118.203125 C 111.832031 119.03125 114.523438 120.273438 117.308594 121.644531 C 119.121094 122.539062 120.96875 123.351562 122.851562 124.085938 C 124.121094 124.601562 125.335938 125.207031 126.550781 125.832031 L 128.050781 126.59375 L 128.785156 126.96875 C 130.128906 127.648438 131.484375 128.3125 132.835938 128.980469 C 133.558594 129.355469 134.273438 129.75 134.976562 130.160156 C 136.367188 130.957031 137.785156 131.691406 139.210938 132.417969 L 140.015625 132.832031 C 140.863281 133.265625 141.707031 133.699219 142.550781 134.128906 C 143.386719 134.554688 144.222656 134.984375 145.054688 135.410156 C 145.601562 135.691406 146.148438 135.96875 146.691406 136.246094 C 147.945312 136.886719 149.179688 137.539062 150.390625 138.25 L 151.636719 138.972656 L 152.703125 139.617188 L 153.71875 139.984375 C 155.054688 139.695312 156.109375 139.203125 157.226562 138.421875 L 157.949219 137.929688 L 158.710938 137.40625 C 166.125 132.492188 174.738281 129.65625 183.367188 127.6875 L 184.09375 127.6875 C 183.347656 126.105469 182.355469 125.28125 180.972656 124.285156 C 180.039062 123.65625 179.085938 123.058594 178.125 122.464844 C 176.636719 121.527344 175.339844 120.53125 174.042969 119.347656 C 171.320312 116.957031 168.316406 114.855469 165.414062 112.691406 C 164.496094 111.996094 163.589844 111.292969 162.6875 110.582031 C 159.398438 107.992188 156.058594 105.535156 152.589844 103.191406 C 150.863281 102.015625 149.171875 100.78125 147.476562 99.5625 C 146.824219 99.097656 146.171875 98.632812 145.519531 98.167969 C 145.082031 97.859375 144.640625 97.546875 144.203125 97.234375 L 143.554688 96.777344 C 142.382812 95.9375 141.234375 95.066406 140.113281 94.160156 C 138.566406 92.929688 136.894531 91.984375 135.167969 91.035156 C 134.203125 90.4375 133.519531 89.800781 132.742188 88.984375 C 132.144531 88.613281 131.542969 88.25 130.9375 87.898438 C 130.472656 87.59375 130.011719 87.285156 129.558594 86.972656 L 128.894531 86.515625 L 128.40625 86.089844 L 128.40625 85.367188 L 127.625 85.273438 C 126.371094 84.945312 125.617188 84.386719 124.585938 83.601562 L 123.566406 82.835938 L 122.617188 82.109375 L 121.773438 81.519531 L 121.171875 81.023438 L 121.171875 80.300781 L 120.269531 80.074219 C 118.960938 79.5625 118.144531 78.957031 117.054688 78.097656 C 115.5625 77.007812 113.976562 76.070312 112.394531 75.125 C 110.898438 74.214844 109.667969 73.308594 108.515625 71.980469 Z M 186.984375 129.496094 L 185.96875 129.695312 C 181.742188 130.542969 177.652344 131.617188 173.605469 133.113281 L 172.855469 133.378906 C 169.601562 134.546875 166.480469 135.882812 163.414062 137.476562 L 162.5625 137.914062 C 160.722656 138.894531 159.234375 140.027344 157.695312 141.433594 C 158.273438 141.878906 158.273438 141.878906 159.140625 142.15625 C 160.078125 142.027344 160.925781 141.863281 161.835938 141.632812 L 162.636719 141.441406 C 163.484375 141.238281 164.328125 141.03125 165.175781 140.820312 C 166.277344 140.554688 167.378906 140.289062 168.480469 140.027344 L 169.320312 139.824219 C 171.125 139.398438 172.925781 139.054688 174.753906 138.753906 C 178.703125 138.097656 182.550781 137.058594 186.421875 136.050781 L 188.628906 135.484375 C 191.917969 134.636719 195.199219 133.769531 198.46875 132.84375 C 200.824219 132.183594 203.171875 131.613281 205.585938 131.191406 L 206.546875 131.007812 C 208.839844 130.59375 211.054688 130.511719 213.382812 130.582031 L 214.207031 130.585938 C 214.964844 130.625 214.964844 130.625 216.277344 130.941406 C 216.703125 131.464844 217.132812 131.988281 217.519531 132.546875 C 218.703125 133.734375 220.484375 134.089844 222.0625 134.558594 C 222.460938 136.519531 222.460938 136.519531 222.265625 137.589844 L 222.0625 138.175781 C 223.074219 138.964844 223.074219 138.964844 224.164062 139.042969 L 225.390625 139.117188 L 226.734375 139.203125 L 228.140625 139.285156 C 229.054688 139.339844 229.96875 139.398438 230.882812 139.457031 L 232.113281 139.527344 C 233.238281 139.621094 234.332031 139.78125 235.441406 139.984375 L 235.800781 142.15625 C 232.695312 142.511719 229.59375 142.632812 226.46875 142.734375 C 224.257812 142.816406 222.085938 142.964844 219.890625 143.242188 L 219.890625 143.601562 L 220.550781 143.644531 C 225.164062 143.960938 229.699219 144.433594 234.253906 145.261719 C 236.285156 145.632812 238.332031 145.894531 240.394531 146.042969 C 241.226562 146.132812 241.226562 146.132812 242.3125 146.496094 C 242.035156 147.203125 242.035156 147.203125 241.589844 147.941406 C 238.914062 148.507812 236.289062 148.222656 233.585938 147.988281 L 230.964844 147.777344 L 228.570312 147.582031 C 223.203125 147.144531 217.894531 147.054688 212.523438 147.503906 C 211.496094 147.5625 210.507812 147.578125 209.480469 147.5625 C 207.566406 147.550781 205.734375 147.789062 203.84375 148.078125 C 201.179688 148.464844 198.527344 148.789062 195.84375 149.027344 C 193.378906 149.253906 191.027344 149.648438 188.613281 150.214844 C 187.140625 150.515625 185.675781 150.695312 184.183594 150.859375 C 180.746094 151.234375 177.582031 151.828125 174.328125 153.007812 C 174.546875 152.320312 174.546875 152.320312 175.050781 151.558594 C 176.113281 151.207031 176.113281 151.207031 177.378906 150.972656 C 179.210938 150.628906 179.210938 150.628906 180.835938 149.75 L 180.835938 149.027344 C 178.304688 148.917969 176.007812 149.429688 173.554688 150.027344 C 171.351562 150.5625 169.253906 150.925781 166.996094 151.085938 C 165.949219 151.207031 164.992188 151.441406 163.976562 151.71875 C 162.246094 152.183594 160.539062 152.441406 158.757812 152.621094 C 156.183594 152.886719 153.695312 153.351562 151.175781 153.929688 C 149.816406 154.234375 148.507812 154.492188 147.117188 154.582031 C 145.753906 154.675781 144.542969 154.792969 143.230469 155.175781 C 141.957031 156.21875 141.171875 157.390625 140.335938 158.792969 L 139.75 159.613281 C 139.273438 160.292969 138.859375 160.925781 138.53125 161.6875 C 138.539062 162.734375 138.539062 162.734375 138.890625 163.496094 C 141.140625 163.089844 143.027344 162.441406 145.085938 161.441406 C 146.132812 160.960938 147.1875 160.550781 148.269531 160.15625 C 148.980469 159.890625 149.691406 159.625 150.398438 159.351562 C 153.058594 158.332031 155.714844 157.394531 158.445312 156.582031 C 159.894531 156.144531 161.324219 155.664062 162.757812 155.175781 L 162.757812 155.902344 C 161.882812 156.527344 161.164062 156.945312 160.101562 157.152344 C 159.078125 157.359375 158.171875 157.691406 157.199219 158.070312 C 156.027344 158.511719 154.964844 158.875 153.71875 159 L 152.632812 159.15625 C 152.261719 159.511719 151.902344 159.871094 151.546875 160.242188 L 150.441406 160.421875 L 149.378906 160.601562 L 148.65625 161.6875 C 147.523438 162.117188 147.523438 162.117188 146.484375 162.410156 L 147.207031 162.773438 C 148.25 162.664062 149.269531 162.527344 150.304688 162.367188 L 151.265625 162.21875 C 156.449219 161.394531 161.589844 160.359375 166.691406 159.109375 C 169.046875 158.53125 171.410156 158.125 173.8125 157.769531 C 175.847656 157.464844 177.859375 157.082031 179.875 156.660156 C 183.589844 155.898438 187.320312 155.335938 191.074219 154.816406 L 193.066406 154.535156 C 197.503906 153.914062 201.949219 153.324219 206.394531 152.765625 C 208.949219 152.445312 211.496094 152.078125 214.039062 151.671875 C 221.203125 150.546875 229.105469 150.078125 236.160156 151.953125 L 236.886719 152.285156 L 237.25 153.367188 C 237 154.296875 237 154.296875 236.527344 155.175781 C 235.757812 155.652344 235.757812 155.652344 235.078125 155.902344 L 235.078125 156.625 L 236.371094 156.835938 L 238.0625 157.121094 L 238.914062 157.261719 C 241.816406 157.757812 241.816406 157.757812 242.671875 158.433594 C 243.410156 159.835938 243.914062 161.289062 244.480469 162.773438 L 249.542969 162.773438 C 250.09375 161.675781 249.957031 160.738281 249.90625 159.519531 C 249.226562 155.34375 247.898438 151.671875 245.925781 147.941406 L 245.382812 146.890625 C 244.1875 144.730469 242.777344 143.324219 240.863281 141.792969 L 239.554688 140.550781 C 235.015625 136.59375 229.03125 134.570312 223.421875 132.664062 C 220.898438 131.792969 218.449219 130.789062 216.011719 129.703125 L 215.203125 129.351562 L 214.507812 129.039062 C 212.421875 128.308594 210.277344 128.347656 208.09375 128.335938 L 207.078125 128.328125 C 205.992188 128.324219 204.90625 128.320312 203.824219 128.320312 L 202.703125 128.320312 C 197.382812 128.324219 192.214844 128.433594 186.984375 129.496094 M 210.488281 131.664062 L 210.128906 132.75 L 215.914062 132.75 L 215.550781 132.027344 C 214.367188 131.855469 214.367188 131.855469 213 131.800781 L 211.585938 131.71875 Z M 203.257812 133.835938 L 203.257812 134.558594 L 204.34375 134.199219 Z M 206.152344 133.835938 L 205.789062 135.28125 L 204.863281 135.429688 L 203.664062 135.621094 L 202.46875 135.8125 C 201.472656 135.953125 201.472656 135.953125 200.726562 136.367188 L 200.726562 137.089844 C 201.476562 137.535156 201.476562 137.535156 202.539062 137.449219 C 204.925781 137.296875 206.929688 137.164062 209.042969 136.007812 L 209.042969 135.28125 L 207.234375 135.644531 L 206.875 133.835938 Z M 215.550781 136.007812 L 215.191406 136.730469 C 216.128906 137.199219 216.984375 137.183594 218.019531 137.175781 C 219.269531 137.042969 220.21875 136.566406 221.339844 136.007812 L 221.339844 135.28125 C 219.351562 135.199219 217.445312 135.347656 215.550781 136.007812 M 195.300781 136.730469 L 194.21875 137.453125 L 194.21875 138.175781 L 196.75 137.816406 L 196.75 136.730469 Z M 198.195312 136.730469 L 198.195312 137.816406 L 200.003906 137.453125 L 200.003906 136.730469 Z M 191.6875 137.453125 L 191.6875 138.175781 L 192.769531 138.175781 L 192.769531 137.453125 Z M 188.792969 138.175781 L 190.238281 138.539062 Z M 225.675781 139.625 L 226.039062 140.347656 L 226.761719 140.347656 L 226.761719 139.625 Z M 188.792969 147.582031 L 188.792969 148.304688 L 190.238281 147.582031 Z M 181.921875 148.304688 L 181.921875 149.390625 L 184.09375 149.390625 L 184.09375 148.304688 Z M 154.675781 148.78125 C 153.617188 149.019531 152.558594 149.257812 151.503906 149.503906 L 150.375 149.75 L 149.308594 149.996094 L 148.324219 150.222656 L 147.570312 150.476562 L 147.207031 151.199219 C 149.171875 151.320312 150.996094 151.089844 152.925781 150.722656 L 154.335938 150.457031 C 155.511719 150.203125 155.511719 150.203125 156.230469 149.53125 L 156.609375 149.027344 C 155.578125 148.597656 155.578125 148.597656 154.675781 148.78125 M 226.46875 153.265625 C 224.425781 153.53125 222.335938 153.503906 220.277344 153.554688 C 218.183594 153.625 216.238281 153.84375 214.195312 154.296875 C 213.058594 154.515625 211.960938 154.523438 210.804688 154.5 L 209.582031 154.480469 L 208.683594 154.453125 L 208.320312 155.902344 C 212.179688 155.96875 215.96875 155.8125 219.8125 155.457031 C 220.648438 155.378906 221.484375 155.304688 222.324219 155.234375 L 224.695312 155.023438 C 226.238281 154.878906 227.761719 154.683594 229.292969 154.453125 L 229.292969 153.367188 C 228.171875 152.996094 227.605469 153.078125 226.46875 153.265625 M 206.875 154.453125 L 207.234375 155.902344 L 207.234375 154.453125 Z M 205.789062 154.453125 L 204.703125 155.175781 C 203.957031 155.261719 203.203125 155.308594 202.453125 155.335938 C 199.605469 155.503906 196.890625 156.007812 194.105469 156.601562 L 192.667969 156.890625 C 190.898438 157.25 190.898438 157.25 189.15625 157.710938 L 188.792969 158.433594 C 191.203125 158.589844 193.414062 158.296875 195.777344 157.808594 C 197.257812 157.507812 198.730469 157.269531 200.230469 157.085938 L 201.273438 156.953125 C 201.957031 156.871094 202.636719 156.792969 203.320312 156.71875 L 204.261719 156.601562 C 204.539062 156.570312 204.816406 156.542969 205.101562 156.507812 L 205.789062 156.261719 C 206.257812 155.546875 206.257812 155.546875 206.511719 154.816406 Z M 184.25 158.207031 L 183.367188 158.28125 L 182.644531 158.433594 L 182.285156 159.15625 L 182.644531 159.878906 L 186.625 159.15625 L 186.625 158.070312 C 185.824219 158.070312 185.046875 158.132812 184.25 158.207031 M 179.4375 159.332031 L 178.667969 159.632812 C 176.761719 160.257812 174.914062 160.421875 172.925781 160.582031 C 170.457031 160.789062 168.335938 161.171875 166.007812 162.054688 C 164.757812 162.46875 163.511719 162.683594 162.214844 162.886719 C 158.882812 163.410156 155.644531 164.257812 152.386719 165.121094 C 149.472656 165.878906 146.582031 166.386719 143.59375 166.753906 L 142.699219 166.886719 C 141.941406 166.957031 141.941406 166.957031 140.699219 166.753906 C 140.109375 166.144531 139.703125 165.546875 139.289062 164.808594 L 138.890625 164.21875 L 137.804688 163.859375 C 136.265625 165.25 135.320312 166.675781 134.371094 168.515625 L 133.945312 169.339844 C 130.460938 176.226562 129.476562 183.449219 129.789062 191.09375 C 130.195312 197.609375 132.300781 203.695312 135.8125 209.191406 C 136.628906 210.410156 136.628906 210.410156 137.804688 211.242188 C 140.066406 211.402344 141.871094 211.054688 143.953125 210.160156 L 145.039062 209.433594 C 145.953125 209.246094 146.855469 209.082031 147.773438 208.9375 C 149.84375 208.582031 151.703125 208.105469 153.636719 207.253906 C 155.261719 206.542969 156.960938 206.011719 158.675781 205.5625 L 159.660156 205.296875 L 160.5625 205.074219 L 161.3125 204.734375 C 161.789062 204.007812 161.789062 204.007812 162.035156 203.285156 L 159.503906 203.285156 L 159.042969 201.097656 L 158.78125 200.390625 C 157.753906 199.585938 157.753906 199.585938 156.5625 199.558594 C 152.914062 199.550781 149.375 199.867188 145.761719 200.367188 C 139.761719 201.175781 139.761719 201.175781 137.734375 200.480469 C 137.082031 200.03125 137.082031 200.03125 136.703125 199.328125 L 136.449219 198.539062 L 136.183594 197.746094 L 136 197.136719 C 136.316406 197.140625 136.632812 197.144531 136.957031 197.148438 C 138.167969 197.160156 139.375 197.171875 140.585938 197.175781 C 141.101562 197.179688 141.617188 197.183594 142.136719 197.191406 C 148.746094 197.269531 154.738281 196.398438 161.085938 194.558594 C 161.71875 194.378906 162.351562 194.199219 162.988281 194.023438 C 164.550781 193.582031 166.117188 193.132812 167.675781 192.683594 C 168.964844 192.3125 170.253906 191.945312 171.542969 191.578125 C 173.222656 191.101562 174.902344 190.617188 176.582031 190.136719 C 178.699219 189.527344 180.828125 188.960938 182.960938 188.402344 C 184.070312 188.097656 185.164062 187.765625 186.261719 187.414062 C 188.457031 186.722656 190.675781 186.152344 192.90625 185.585938 C 195.21875 184.992188 197.5 184.378906 199.753906 183.59375 C 203.355469 182.34375 207.054688 181.429688 210.738281 180.453125 C 212.914062 179.875 215.085938 179.273438 217.253906 178.671875 C 218.976562 178.195312 220.714844 177.773438 222.464844 177.402344 C 223.335938 177.199219 224.128906 176.855469 224.953125 176.519531 C 225.675781 176.378906 226.398438 176.261719 227.125 176.15625 L 227.125 175.433594 C 225.171875 175.078125 223.800781 175.109375 221.894531 175.601562 C 220.832031 175.828125 219.800781 175.90625 218.714844 175.976562 C 215.933594 176.160156 213.082031 176.375 210.425781 177.265625 C 209.195312 177.671875 208.167969 177.605469 206.875 177.605469 C 205.652344 177.777344 204.441406 177.976562 203.257812 178.328125 L 202.535156 179.050781 C 201.828125 179.070312 201.828125 179.070312 200.996094 179.003906 C 200.0625 178.976562 199.4375 178.976562 198.582031 179.371094 C 197.925781 179.804688 197.925781 179.804688 197.109375 180.496094 L 197.109375 179.773438 C 195.714844 179.917969 194.523438 180.125 193.222656 180.65625 C 192.089844 181.109375 191.015625 181.363281 189.808594 181.558594 C 187.882812 181.878906 186.078125 182.429688 184.21875 183.027344 C 182.613281 183.507812 180.988281 183.851562 179.347656 184.183594 C 178.292969 184.429688 178.292969 184.429688 177.414062 185.019531 C 176.324219 185.664062 175.390625 185.851562 174.148438 186.082031 C 172.027344 186.503906 170.007812 187.0625 167.949219 187.714844 C 164.875 188.671875 161.757812 189.53125 158.578125 190.050781 C 157.621094 190.257812 157.621094 190.257812 156.464844 190.757812 C 154.285156 191.597656 151.996094 192.007812 149.71875 192.480469 L 148.355469 192.769531 C 142.152344 194.078125 142.152344 194.078125 139.253906 193.882812 L 138.53125 192.796875 C 138.484375 191.644531 138.484375 191.644531 138.53125 190.625 C 140.730469 190.210938 142.929688 189.789062 145.128906 189.371094 C 145.746094 189.25 146.367188 189.132812 146.984375 189.015625 C 147.722656 188.875 148.460938 188.734375 149.195312 188.589844 L 150.453125 188.351562 C 151.527344 188.128906 151.527344 188.128906 152.410156 187.738281 C 153.6875 187.242188 155 187.015625 156.339844 186.761719 C 159.242188 186.175781 162.097656 185.453125 164.949219 184.65625 L 166.082031 184.34375 C 169.582031 183.402344 169.582031 183.402344 172.882812 181.945312 L 173.242188 180.859375 C 171.929688 180.53125 170.953125 180.496094 169.628906 180.769531 L 168.722656 180.945312 C 167.792969 181.183594 167.792969 181.183594 166.976562 181.757812 C 165.769531 182.445312 164.582031 182.636719 163.230469 182.847656 C 161.597656 183.125 160.03125 183.410156 158.464844 183.957031 C 156.867188 184.476562 155.289062 184.625 153.625 184.769531 C 150.628906 185.039062 147.839844 185.734375 144.960938 186.601562 C 142.429688 187.355469 139.726562 188.070312 137.082031 187.527344 L 136 187.007812 C 135.480469 185.878906 135.480469 185.878906 135.273438 184.839844 C 135.863281 184.71875 136.449219 184.597656 137.039062 184.476562 L 138.03125 184.273438 C 138.890625 184.113281 138.890625 184.113281 139.613281 184.113281 L 139.976562 183.03125 C 142.636719 181.335938 145.652344 180.316406 148.65625 179.414062 L 148.65625 180.136719 L 147.253906 180.40625 C 146.460938 180.582031 146.460938 180.582031 145.761719 180.859375 C 145.191406 181.570312 145.191406 181.570312 145.039062 182.304688 L 146.125 182.667969 L 146.871094 182.148438 C 147.929688 181.582031 147.929688 181.582031 148.648438 181.558594 C 148.925781 181.574219 149.203125 181.589844 149.492188 181.605469 C 151.660156 181.667969 153.605469 181.125 155.683594 180.566406 C 157.128906 180.179688 158.582031 179.851562 160.046875 179.535156 C 163.59375 178.761719 167.082031 177.84375 170.578125 176.859375 C 173.78125 175.953125 176.957031 175.136719 180.234375 174.542969 C 182.652344 174.089844 185.011719 173.472656 187.386719 172.832031 C 192.773438 171.40625 198.207031 170.261719 203.664062 169.144531 C 205.660156 168.734375 207.652344 168.320312 209.640625 167.910156 C 210.328125 167.765625 211.011719 167.625 211.695312 167.484375 C 213.839844 167.046875 215.964844 166.582031 218.082031 166.027344 L 217 165.304688 C 214.414062 165.164062 211.917969 165.484375 209.359375 165.824219 L 208.214844 165.972656 C 206.742188 166.164062 205.273438 166.363281 203.808594 166.570312 C 203.035156 166.679688 202.261719 166.785156 201.484375 166.882812 C 197.601562 167.386719 193.785156 168.191406 189.953125 168.996094 C 188.796875 169.238281 187.640625 169.476562 186.480469 169.714844 C 182.960938 170.449219 179.492188 171.222656 176.042969 172.257812 C 174.808594 172.609375 173.636719 172.789062 172.363281 172.925781 C 170.980469 173.09375 169.816406 173.253906 168.566406 173.875 L 167.457031 174.347656 L 166.191406 174.121094 L 164.925781 173.988281 C 164.332031 174.429688 163.734375 174.875 163.140625 175.324219 C 161.808594 176.167969 160.324219 176.460938 158.800781 176.8125 L 157.84375 177.050781 C 157.070312 177.238281 156.300781 177.425781 155.523438 177.605469 L 155.523438 178.328125 L 154.863281 178.367188 C 153.015625 178.507812 153.015625 178.507812 151.34375 179.253906 L 150.824219 179.773438 C 151.070312 179.109375 151.070312 179.109375 151.546875 178.328125 C 153.511719 177.148438 155.804688 176.238281 158.054688 175.796875 L 159.1875 176.019531 L 160.226562 176.15625 C 161.195312 175.519531 161.195312 175.519531 162.035156 174.710938 C 162.507812 174.453125 162.988281 174.207031 163.480469 173.988281 L 163.480469 173.261719 C 162.355469 172.699219 161.269531 172.808594 160.027344 172.824219 C 156.488281 173.046875 153.039062 173.859375 149.625 174.777344 C 147.269531 175.40625 144.945312 175.78125 142.507812 175.433594 L 141.421875 174.710938 C 141.355469 173.761719 141.355469 173.761719 141.421875 172.902344 C 143.300781 171.8125 145.105469 171.472656 147.207031 171.09375 C 148.183594 170.902344 149.148438 170.660156 150.101562 170.371094 L 150.824219 169.285156 C 151.527344 168.941406 151.527344 168.941406 152.316406 168.675781 L 153.109375 168.398438 L 153.71875 168.199219 L 154.078125 169.285156 C 156.496094 169.367188 158.554688 169.089844 160.894531 168.503906 C 163.960938 167.773438 167.042969 167.105469 170.136719 166.503906 L 171.398438 166.257812 C 173.101562 165.921875 174.808594 165.589844 176.515625 165.261719 C 185.910156 163.59375 185.910156 163.59375 194.941406 160.601562 L 194.941406 159.519531 L 193.808594 159.835938 C 192.484375 160.167969 191.167969 160.378906 189.808594 160.558594 C 187.226562 160.90625 184.675781 161.390625 182.121094 161.902344 C 180.359375 162.25 178.617188 162.515625 176.832031 162.695312 C 176.050781 162.785156 175.296875 162.925781 174.53125 163.113281 C 172.785156 163.523438 171.027344 163.875 169.265625 164.21875 L 169.265625 163.496094 C 172.5625 162.375 175.769531 161.3125 179.230469 160.828125 C 180.222656 160.574219 180.789062 160.179688 181.5625 159.519531 C 180.761719 159.253906 180.261719 159.117188 179.4375 159.332031 M 196.386719 160.242188 L 197.472656 160.964844 L 198.558594 160.601562 L 198.558594 159.519531 C 197.664062 159.519531 197.164062 159.828125 196.386719 160.242188 M 234.71875 160.601562 C 234.078125 160.625 233.4375 160.632812 232.796875 160.625 L 231.828125 160.617188 L 231.101562 160.601562 L 230.738281 161.6875 C 232.140625 161.710938 233.542969 161.722656 234.945312 161.734375 L 236.144531 161.75 C 238.933594 161.769531 238.933594 161.769531 241.589844 160.964844 L 241.226562 160.242188 C 240.480469 160.230469 239.734375 160.222656 238.988281 160.21875 L 237.730469 160.207031 C 236.664062 160.238281 235.753906 160.386719 234.71875 160.601562 M 238.332031 168.921875 L 238.332031 170.007812 L 242.671875 170.730469 L 243.035156 171.816406 C 244.390625 171.914062 245.164062 171.832031 246.425781 171.273438 L 247.375 170.730469 L 247.375 169.644531 C 246.277344 169.335938 245.261719 169.21875 244.125 169.171875 L 243.101562 169.125 L 242.039062 169.082031 L 240.960938 169.035156 C 240.085938 168.996094 239.210938 168.957031 238.332031 168.921875 M 226.402344 169.644531 C 225.457031 169.707031 224.519531 169.761719 223.574219 169.804688 C 221.816406 169.898438 220.1875 170.054688 218.5 170.566406 C 217.394531 170.800781 216.300781 170.816406 215.167969 170.867188 C 212.71875 171 210.550781 171.5 208.1875 172.1875 C 206.550781 172.625 204.917969 172.855469 203.242188 173.085938 C 202.28125 173.246094 201.421875 173.472656 200.5 173.785156 C 198.835938 174.324219 197.1875 174.5625 195.460938 174.800781 C 192.179688 175.265625 189.058594 176.117188 185.882812 177.039062 C 183.476562 177.742188 181.042969 178.335938 178.585938 178.824219 C 177.21875 179.132812 175.980469 179.59375 174.691406 180.136719 L 174.691406 181.582031 C 176.5 181.507812 178.109375 181.429688 179.707031 180.519531 C 181.257812 179.648438 182.796875 179.453125 184.542969 179.207031 C 185.578125 179.074219 185.578125 179.074219 186.691406 178.667969 C 187.875 178.273438 188.980469 178.175781 190.222656 178.089844 C 191.074219 178 191.074219 178 192.046875 177.242188 C 192.742188 177.144531 192.742188 177.144531 193.5625 177.105469 C 196.597656 176.863281 199.652344 176.035156 202.535156 175.070312 C 203.046875 175.066406 203.558594 175.074219 204.070312 175.09375 C 205.617188 175.113281 206.828125 174.789062 208.320312 174.347656 C 209.558594 174.152344 210.800781 173.988281 212.046875 173.828125 C 212.980469 173.6875 213.910156 173.507812 214.832031 173.285156 C 217.457031 172.683594 220.140625 172.417969 222.8125 172.085938 C 225.972656 171.722656 225.972656 171.722656 229.078125 171.0625 C 230.550781 170.6875 231.9375 170.574219 233.453125 170.503906 L 234.25 170.460938 C 234.886719 170.429688 235.527344 170.398438 236.164062 170.371094 L 236.527344 169.285156 C 235.175781 169.273438 233.828125 169.265625 232.480469 169.261719 L 231.324219 169.253906 L 230.203125 169.25 L 229.175781 169.242188 C 228.214844 169.285156 227.34375 169.445312 226.402344 169.644531 M 248.820312 169.285156 C 248.558594 169.800781 248.304688 170.320312 248.050781 170.84375 L 247.621094 171.722656 L 247.375 172.539062 L 248.097656 173.625 L 247.375 173.625 L 247.734375 175.796875 L 246.609375 176.074219 L 245.089844 176.449219 L 244.285156 176.652344 C 242.835938 177.011719 241.398438 177.394531 239.960938 177.808594 C 238.484375 178.21875 237.023438 178.488281 235.507812 178.734375 C 231.984375 179.324219 228.589844 180.457031 225.1875 181.535156 C 222.789062 182.28125 220.585938 182.8125 218.082031 183.03125 C 217.59375 183.378906 217.109375 183.742188 216.636719 184.113281 L 214.46875 184.113281 L 213.746094 185.199219 L 214.105469 185.5625 C 214.960938 185.554688 215.800781 185.523438 216.652344 185.46875 L 217.4375 185.417969 C 220.011719 185.226562 222.523438 184.804688 225.054688 184.304688 C 225.796875 184.160156 226.539062 184.019531 227.28125 183.878906 C 229.753906 183.40625 232.183594 182.875 234.59375 182.140625 C 235.519531 181.925781 236.300781 181.859375 237.25 181.945312 L 237.835938 182.644531 L 238.695312 183.390625 C 240.015625 183.628906 241.332031 183.707031 242.671875 183.753906 C 242.8125 184.59375 242.933594 185.4375 243.035156 186.285156 L 242.671875 187.007812 C 241.34375 187.453125 240.078125 187.472656 238.691406 187.527344 C 238.09375 187.550781 237.496094 187.578125 236.902344 187.605469 L 235.953125 187.644531 C 226.757812 188.050781 217.226562 188.589844 208.535156 191.9375 C 207.46875 192.34375 206.542969 192.613281 205.425781 192.796875 C 204.054688 193.050781 202.839844 193.417969 201.546875 193.929688 C 196.613281 195.808594 196.613281 195.808594 194.578125 195.710938 C 193.46875 195.605469 193.46875 195.605469 192.5 196.1875 L 191.6875 196.773438 L 190.601562 197.5 L 190.601562 198.222656 C 193.757812 198.113281 196.660156 197.605469 199.707031 196.824219 C 201.191406 196.457031 202.6875 196.175781 204.191406 195.898438 C 206.128906 195.546875 208.058594 195.152344 209.976562 194.71875 C 215.460938 193.476562 220.875 192.511719 226.46875 191.921875 C 229.871094 191.5625 233.140625 191.066406 236.453125 190.199219 C 239.445312 189.433594 242.421875 189.519531 245.484375 189.597656 L 246.652344 189.539062 L 247.734375 188.816406 L 248.84375 188.523438 L 249.90625 188.09375 C 251.871094 184.351562 251.492188 178.835938 251.351562 174.710938 C 251.277344 173.019531 251.195312 171.328125 250.988281 169.644531 L 250.628906 169.285156 C 250.027344 169.269531 249.421875 169.269531 248.820312 169.285156 M 244.121094 172.179688 L 243.394531 172.539062 L 243.394531 173.261719 L 244.84375 172.539062 Z M 143.953125 181.582031 L 143.59375 183.03125 L 144.316406 183.03125 Z M 141.785156 182.304688 L 141.421875 183.390625 L 142.867188 183.03125 L 142.507812 182.304688 Z M 244.480469 192.796875 C 243.605469 192.832031 242.734375 192.863281 241.859375 192.886719 C 238.789062 193.035156 236.035156 193.8125 233.109375 194.695312 C 231.367188 195.207031 229.605469 195.660156 227.847656 196.121094 L 226.8125 196.394531 C 225.207031 196.8125 223.605469 197.195312 221.972656 197.503906 C 220.453125 197.796875 219.109375 198.230469 217.675781 198.808594 L 216.453125 199.296875 L 215.550781 199.667969 L 215.550781 200.390625 C 216.886719 200.714844 218.023438 200.765625 219.386719 200.65625 L 220.554688 200.5625 L 221.769531 200.460938 L 222.957031 200.367188 C 225.09375 200.191406 227.148438 199.910156 229.242188 199.460938 C 230.214844 199.269531 231.148438 199.210938 232.140625 199.214844 L 233.109375 199.210938 C 234.050781 199.3125 234.613281 199.59375 235.441406 200.03125 L 236.527344 200.03125 L 236.886719 199.308594 L 239.058594 200.03125 L 239.488281 199.464844 L 240.140625 198.945312 C 241 199.082031 241 199.082031 241.949219 199.308594 C 242.933594 199.171875 242.933594 199.171875 243.757812 198.945312 L 243.394531 202.199219 C 240.679688 202.878906 238.164062 202.964844 235.378906 202.878906 C 234.191406 202.917969 233.367188 203.105469 232.253906 203.460938 C 230.308594 203.917969 228.253906 203.917969 226.265625 204.03125 C 225.34375 204.085938 224.421875 204.144531 223.5 204.203125 L 222.269531 204.273438 L 221.339844 204.371094 L 220.976562 204.734375 C 219.78125 204.820312 218.585938 204.875 217.386719 204.921875 C 215.882812 204.992188 214.757812 205.242188 213.382812 205.816406 C 212.378906 206.003906 211.382812 206.167969 210.375 206.316406 C 208.097656 206.671875 205.855469 207.105469 203.621094 207.671875 L 202.878906 207.859375 C 202 208.085938 201.179688 208.304688 200.363281 208.710938 C 199.53125 208.796875 198.703125 208.847656 197.867188 208.902344 L 197.109375 209.074219 L 196.386719 210.160156 C 195.535156 210.265625 195.535156 210.265625 194.511719 210.273438 C 193.03125 210.351562 193.03125 210.351562 191.722656 210.972656 C 191.332031 211.351562 190.945312 211.738281 190.5625 212.125 C 189.445312 213.046875 188.148438 213.394531 186.789062 213.828125 C 185.824219 214.121094 185.824219 214.121094 184.816406 214.859375 L 183.753906 215.175781 C 182.558594 215.617188 182.039062 216.101562 181.199219 217.03125 L 180.476562 217.394531 L 180.835938 218.476562 L 185.539062 218.476562 L 185.539062 219.5625 L 184.453125 219.5625 L 184.453125 220.285156 L 183.367188 220.285156 L 183.367188 221.011719 C 184.214844 220.917969 185.058594 220.792969 185.898438 220.648438 L 186.625 219.925781 C 186.769531 219.085938 186.890625 218.242188 186.984375 217.394531 L 188.792969 218.117188 L 189.0625 217.425781 L 189.515625 216.667969 C 190.195312 216.355469 190.195312 216.355469 191.015625 216.171875 L 191.933594 215.953125 L 192.90625 215.742188 L 193.890625 215.511719 C 194.542969 215.363281 195.195312 215.214844 195.84375 215.066406 C 197.023438 214.796875 198.195312 214.503906 199.371094 214.207031 L 201.089844 213.777344 L 201.089844 215.585938 L 202.171875 215.585938 L 201.8125 213.777344 C 204.007812 212.808594 205.925781 212.171875 208.320312 211.96875 C 209.378906 211.753906 210.253906 211.394531 211.222656 210.917969 C 213.167969 210.035156 215.132812 209.644531 217.226562 209.253906 C 219.757812 208.757812 222.265625 208.238281 224.75 207.535156 C 226.347656 207.089844 227.828125 206.792969 229.476562 206.664062 C 231 206.457031 232.472656 206.03125 233.953125 205.644531 C 236.117188 205.085938 238.289062 204.6875 240.503906 204.371094 L 240.140625 207.625 C 238.015625 208.453125 235.96875 208.878906 233.722656 209.210938 C 230.3125 209.722656 227.3125 210.746094 224.230469 212.328125 L 223.144531 211.605469 L 222.421875 212.328125 L 221.496094 212.691406 L 220.613281 213.050781 L 220.253906 213.777344 L 217.359375 213.414062 L 217 214.136719 C 215.988281 214.347656 214.96875 214.527344 213.949219 214.679688 C 212.90625 214.835938 211.886719 215.015625 210.851562 215.222656 L 210.128906 215.945312 C 209.445312 216.125 209.445312 216.125 208.589844 216.261719 C 205.984375 216.738281 203.109375 217.285156 200.726562 218.476562 L 199.347656 218.433594 C 198.570312 218.40625 198.570312 218.40625 197.832031 218.476562 C 197.226562 218.832031 196.625 219.195312 196.023438 219.5625 L 194.714844 219.539062 L 193.492188 219.5625 L 192.996094 220.242188 L 192.410156 221.011719 C 191.667969 221.203125 190.925781 221.390625 190.171875 221.527344 C 187.75 222.015625 185.351562 222.761719 183.007812 223.542969 L 183.007812 222.457031 L 180.476562 222.09375 L 180.113281 223.179688 L 182.285156 223.542969 L 182.285156 224.265625 L 181.699219 224.027344 C 179.8125 223.324219 178.246094 223.082031 176.230469 223.175781 C 175.410156 223.179688 174.75 223.050781 173.96875 222.820312 L 173.96875 223.902344 C 172.128906 224.363281 170.449219 224.714844 168.542969 224.628906 L 167.097656 224.628906 L 166.734375 224.988281 C 165.984375 225.066406 165.230469 225.121094 164.476562 225.167969 C 163.316406 225.242188 162.207031 225.3125 161.070312 225.554688 C 160.199219 225.71875 159.578125 225.679688 158.710938 225.53125 L 157.332031 225.351562 L 156.609375 225.710938 L 156.25 223.902344 L 157.347656 223.769531 C 158.910156 223.582031 160.472656 223.382812 162.035156 223.179688 L 163.363281 223.007812 C 165.59375 222.695312 167.585938 222.339844 169.628906 221.371094 L 170.574219 220.542969 C 172.003906 219.320312 173.636719 218.566406 175.324219 217.753906 L 176.246094 217.300781 C 177.511719 216.683594 178.777344 216.070312 180.042969 215.457031 L 181.023438 214.972656 L 181.914062 214.539062 C 182.695312 214.152344 182.695312 214.152344 183.367188 213.414062 C 183.253906 212.292969 183.253906 212.292969 183.007812 211.242188 L 181.921875 211.242188 L 181.921875 210.160156 C 180.851562 210.378906 180.339844 210.613281 179.390625 211.242188 C 178.328125 211.488281 177.277344 211.703125 176.203125 211.898438 C 175.542969 212.027344 174.878906 212.15625 174.21875 212.285156 L 173.183594 212.488281 C 167.894531 213.539062 162.707031 214.886719 157.519531 216.347656 C 154.734375 217.128906 151.953125 217.839844 149.117188 218.410156 C 147.351562 218.761719 147.351562 218.761719 145.761719 219.5625 L 145.398438 220.648438 C 150.21875 225.359375 156.207031 229.613281 162.757812 231.5 C 163.335938 231.589844 163.914062 231.65625 164.496094 231.703125 C 165.003906 231.746094 165.507812 231.792969 166.011719 231.863281 L 166.375 232.222656 C 167.304688 232.328125 168.222656 232.410156 169.152344 232.472656 L 169.929688 232.539062 C 171.597656 232.648438 172.742188 232.445312 174.328125 231.863281 C 174.886719 231.742188 175.449219 231.628906 176.007812 231.523438 C 178.085938 231.128906 180.113281 230.578125 182.148438 230.007812 L 183.25 229.703125 C 184.132812 229.460938 185.015625 229.214844 185.898438 228.96875 L 186.261719 227.519531 L 188.070312 227.160156 L 188.070312 227.882812 L 189.515625 227.882812 L 189.515625 226.4375 L 190.238281 226.796875 C 190.78125 226.839844 191.324219 226.859375 191.867188 226.867188 L 192.738281 226.882812 L 193.492188 226.796875 L 194.21875 226.074219 L 194.941406 227.160156 L 196.023438 227.160156 L 196.386719 226.4375 C 197.019531 226.1875 197.019531 226.1875 197.832031 226.074219 C 198.828125 226.234375 198.828125 226.234375 199.640625 226.4375 L 200.003906 224.988281 L 202.171875 224.628906 L 202.535156 223.542969 L 204.34375 224.988281 L 205.789062 224.265625 L 205.789062 223.542969 L 206.601562 223.226562 C 207.433594 222.886719 208.246094 222.507812 209.042969 222.09375 C 208.1875 223.007812 207.71875 223.5 206.511719 223.902344 L 206.511719 225.351562 C 209.308594 225.191406 212.023438 224.808594 214.777344 224.320312 C 216.816406 223.96875 218.847656 223.75 220.910156 223.566406 C 224.378906 223.230469 227.65625 222.632812 230.648438 220.738281 C 232.351562 219.503906 233.90625 218.105469 235.441406 216.667969 L 236.046875 216.121094 C 236.601562 215.617188 236.601562 215.617188 237.25 214.859375 L 237.25 213.777344 L 236.558594 213.855469 C 234.605469 214.066406 232.703125 214.175781 230.738281 214.136719 L 230.738281 212.691406 L 231.894531 212.941406 C 233.785156 213.195312 235.449219 212.683594 237.265625 212.183594 C 238.332031 211.96875 238.332031 211.96875 239.199219 212.113281 L 239.78125 212.328125 C 243.585938 207.996094 246.535156 203.476562 248.570312 198.039062 C 248.917969 196.285156 248.878906 194.578125 248.820312 192.796875 C 247.222656 192.453125 246.074219 192.527344 244.480469 192.796875 M 199.28125 193.519531 L 199.28125 194.242188 L 200.003906 193.882812 Z M 200.363281 198.945312 L 199.878906 199.480469 L 199.28125 200.03125 C 198.179688 200.191406 198.179688 200.191406 196.882812 200.234375 C 193.316406 200.375 193.316406 200.375 190.058594 201.679688 C 188.9375 202.324219 188.039062 202.347656 186.765625 202.449219 C 185.585938 202.601562 184.535156 202.972656 183.417969 203.375 C 182.71875 203.621094 182.003906 203.828125 181.289062 204.03125 C 180.152344 204.335938 180.152344 204.335938 179.234375 204.734375 C 178.234375 205.121094 177.230469 205.367188 176.191406 205.613281 C 175.414062 205.816406 174.675781 206.070312 173.921875 206.339844 C 172.535156 206.8125 171.152344 207.128906 169.71875 207.421875 C 167.585938 207.859375 165.539062 208.441406 163.464844 209.109375 C 162.554688 209.386719 161.632812 209.613281 160.699219 209.796875 C 158.917969 210.171875 157.109375 210.6875 155.523438 211.605469 C 155.113281 212.339844 155.113281 212.339844 154.800781 213.050781 C 157.222656 212.851562 159.378906 212.363281 161.695312 211.652344 C 164.5 210.8125 167.261719 210.15625 170.15625 209.703125 C 171.375 209.449219 172.429688 209.074219 173.582031 208.621094 C 174.835938 208.164062 176.125 207.898438 177.425781 207.625 L 178.28125 207.441406 C 179.132812 207.261719 179.984375 207.082031 180.835938 206.902344 L 181.589844 206.746094 C 184.402344 206.152344 187.207031 205.652344 190.054688 205.285156 L 190.960938 205.09375 L 191.6875 204.371094 C 192.722656 204.246094 192.722656 204.246094 193.96875 204.191406 C 195.703125 204.109375 195.703125 204.109375 197.351562 203.613281 L 198.195312 203.285156 L 198.859375 203.457031 C 200.375 203.828125 201.9375 203.429688 203.460938 203.21875 L 204.511719 203.09375 L 205.519531 202.953125 L 206.4375 202.832031 L 207.234375 202.5625 C 207.609375 202.089844 207.96875 201.605469 208.320312 201.117188 C 209.652344 200.664062 209.652344 200.664062 210.851562 200.390625 L 211.214844 198.945312 L 210.5625 199.078125 C 208.253906 199.542969 205.9375 199.980469 203.621094 200.390625 L 203.257812 198.945312 L 201.878906 198.878906 L 201.101562 198.839844 Z M 212.296875 199.667969 L 212.296875 201.117188 L 214.105469 200.390625 L 213.746094 199.667969 Z M 231.824219 199.667969 L 231.824219 200.753906 L 232.546875 201.117188 L 232.546875 199.667969 Z M 224.59375 200.753906 L 224.59375 201.476562 L 225.316406 201.476562 L 225.316406 200.753906 Z M 194.578125 206.179688 L 194.578125 206.902344 L 196.023438 206.902344 L 196.023438 206.179688 Z M 186.984375 207.988281 L 186.625 209.433594 L 187.707031 209.074219 L 187.707031 207.988281 Z M 185.175781 209.074219 L 185.175781 209.796875 L 185.898438 209.796875 L 185.898438 209.074219 Z M 184.816406 210.519531 L 184.09375 211.96875 L 186.984375 211.605469 L 186.984375 210.519531 Z M 151.570312 212.601562 L 150.792969 212.957031 C 149.9375 213.4375 149.9375 213.4375 149.378906 214.859375 L 153.355469 213.414062 L 153.355469 211.96875 C 152.703125 211.96875 152.152344 212.328125 151.570312 212.601562 M 205.066406 213.050781 L 205.425781 214.136719 L 205.425781 213.050781 Z M 142.523438 213.710938 C 141.902344 214.074219 141.296875 214.464844 140.699219 214.859375 L 141.0625 215.945312 C 141.582031 215.902344 142.101562 215.859375 142.621094 215.808594 C 142.910156 215.785156 143.199219 215.761719 143.496094 215.734375 C 144.414062 215.621094 144.414062 215.621094 145.398438 214.859375 L 145.398438 213.777344 C 144.34375 213.464844 143.5625 213.273438 142.523438 213.710938 M 197.109375 215.945312 L 197.109375 216.667969 L 197.832031 216.667969 L 197.832031 215.945312 Z M 193.132812 216.667969 L 193.132812 217.753906 L 195.300781 217.394531 L 195.300781 216.308594 C 194.199219 216.25 194.199219 216.25 193.132812 216.667969 M 190.601562 217.394531 C 189.402344 218.171875 189.402344 218.171875 188.429688 219.203125 L 188.429688 220.285156 L 189.515625 220.285156 L 189.515625 219.5625 L 190.375 219.609375 L 191.324219 219.5625 L 192.046875 218.839844 L 192.046875 217.753906 C 191.441406 217.40625 191.441406 217.40625 190.601562 217.394531 M 177.945312 221.371094 L 178.304688 222.09375 Z M 200.363281 225.351562 L 200.726562 226.4375 L 201.089844 225.351562 Z M 214.46875 226.4375 C 213.738281 227.066406 213.738281 227.066406 213.382812 227.882812 L 213.382812 228.96875 C 215.292969 228.78125 216.480469 228.152344 218.082031 227.160156 L 217.722656 226.074219 C 216.589844 226.074219 215.574219 226.203125 214.46875 226.4375 M 206.601562 228.222656 C 204.316406 228.667969 202.0625 229.050781 199.742188 229.242188 C 198.242188 229.402344 196.785156 229.761719 195.320312 230.109375 L 194.300781 230.347656 C 193.605469 230.511719 192.90625 230.675781 192.210938 230.84375 C 190.222656 231.304688 188.300781 231.625 186.257812 231.742188 L 185.539062 231.863281 L 184.816406 232.585938 L 183.527344 232.765625 L 182.285156 232.945312 L 181.921875 233.671875 C 187.71875 235.601562 196.300781 233.367188 202.082031 232.210938 C 203.199219 231.980469 204.3125 231.742188 205.425781 231.5 L 206.378906 231.292969 C 209.332031 230.703125 209.332031 230.703125 212.085938 229.558594 L 212.660156 228.96875 L 212.660156 227.519531 C 210.574219 227.414062 208.636719 227.824219 206.601562 228.222656 M 183.730469 230.054688 L 183.367188 230.777344 L 184.453125 230.777344 L 184.453125 230.054688 Z M 166.734375 234.03125 L 166.734375 235.117188 L 168.179688 234.394531 Z M 109.238281 309.269531 L 109.238281 310.355469 Z M 328.734375 86.089844 L 329.097656 86.089844 C 329.160156 86.882812 329.160156 86.882812 329.097656 87.898438 C 328.660156 88.789062 328.660156 88.789062 328.082031 89.683594 C 327.421875 90.71875 326.84375 91.691406 326.316406 92.804688 L 325.84375 93.683594 L 324.757812 94.046875 L 324.417969 94.769531 L 324.035156 95.492188 C 323.265625 95.765625 323.265625 95.765625 322.589844 95.855469 L 322.539062 96.792969 C 322.183594 98.199219 321.703125 98.773438 320.722656 99.800781 L 320.125 100.398438 C 319.738281 100.800781 319.351562 101.199219 318.964844 101.597656 L 318.40625 102.171875 C 317.929688 102.683594 317.496094 103.230469 317.070312 103.777344 L 316.441406 104.535156 L 315.71875 104.535156 L 315.515625 105.3125 C 314.789062 106.75 313.738281 107.472656 312.464844 108.425781 L 311.761719 108.964844 C 310.078125 110.25 310.078125 110.25 309.210938 110.6875 C 309.113281 111.003906 309.019531 111.324219 308.921875 111.652344 C 308.398438 113.09375 307.585938 114.011719 306.542969 115.09375 L 305.960938 115.707031 C 303.324219 118.46875 300.472656 121 297.570312 123.480469 C 296.714844 124.246094 295.914062 125.058594 295.105469 125.878906 C 294.226562 126.769531 293.34375 127.65625 292.460938 128.546875 L 291.777344 129.242188 L 291.085938 129.933594 L 290.480469 130.546875 C 289.78125 131.210938 289.066406 131.839844 288.335938 132.46875 C 286.742188 133.859375 285.25 135.335938 283.761719 136.84375 L 282.917969 137.691406 C 282.039062 138.574219 281.160156 139.460938 280.28125 140.347656 C 279.121094 141.515625 277.960938 142.683594 276.800781 143.851562 L 276.007812 144.652344 C 274.5625 146.105469 273.082031 147.492188 271.523438 148.824219 C 270.472656 149.746094 269.503906 150.742188 268.527344 151.742188 C 267.0625 153.226562 265.582031 154.664062 263.992188 156.019531 C 263.136719 156.75 262.292969 157.5 261.453125 158.25 L 260.535156 159.074219 C 259.535156 160.003906 258.609375 160.984375 257.703125 162.007812 L 257.136719 162.410156 C 256.34375 162.296875 256.34375 162.296875 255.691406 162.050781 C 255.53125 161.125 255.53125 161.125 255.691406 159.878906 C 256.238281 159.179688 256.84375 158.617188 257.5 158.019531 C 258.230469 157.339844 258.867188 156.621094 259.511719 155.855469 C 260.5625 154.632812 261.667969 153.65625 262.921875 152.644531 C 263.53125 152.046875 264.132812 151.445312 264.730469 150.835938 C 265.429688 150.128906 266.132812 149.417969 266.832031 148.710938 L 267.363281 148.171875 C 268.363281 147.164062 269.390625 146.210938 270.472656 145.289062 C 272.070312 143.902344 273.496094 142.378906 274.925781 140.820312 C 278.0625 137.402344 278.0625 137.402344 279.558594 136.367188 L 280.28125 136.367188 L 280.570312 135.71875 C 281.699219 133.640625 283.835938 132.105469 285.601562 130.578125 C 287.152344 129.222656 288.660156 127.816406 290.175781 126.421875 C 290.78125 125.863281 291.390625 125.3125 292 124.757812 C 294.53125 122.472656 294.53125 122.472656 296.824219 119.953125 C 297.640625 118.976562 298.398438 118.347656 299.492188 117.695312 C 302.738281 115.671875 305.222656 112.320312 307.640625 109.394531 C 308.304688 108.6875 309.097656 108.285156 309.933594 107.792969 C 310.597656 107.027344 310.597656 107.027344 311.230469 106.234375 C 311.742188 105.621094 311.742188 105.621094 312.578125 104.789062 C 313.617188 103.742188 314.554688 102.644531 315.492188 101.507812 C 316.9375 99.777344 318.421875 98.132812 320.058594 96.578125 C 322.605469 94.09375 324.691406 91.535156 326.605469 88.523438 C 327.246094 87.597656 327.898438 86.84375 328.734375 86.089844 M 251.714844 212.328125 C 254.359375 213.085938 256.261719 214.621094 258.3125 216.398438 C 259.722656 217.609375 261.144531 218.800781 262.605469 219.949219 C 264.277344 221.269531 265.84375 222.6875 267.414062 224.132812 C 268.195312 224.847656 268.988281 225.546875 269.792969 226.230469 C 272.816406 228.871094 275.5 231.738281 277.992188 234.878906 C 278.976562 236.113281 279.980469 237.332031 280.980469 238.554688 L 281.644531 239.359375 C 282.871094 240.847656 284.121094 242.292969 285.433594 243.707031 C 287.042969 245.449219 288.480469 247.285156 289.90625 249.171875 C 292.535156 252.644531 295.277344 255.941406 298.378906 258.996094 C 299.03125 259.660156 299.636719 260.339844 300.238281 261.046875 C 301.605469 262.644531 303.097656 264.101562 304.59375 265.578125 C 305.671875 266.644531 306.699219 267.722656 307.671875 268.894531 C 308.726562 270.136719 309.90625 271.046875 311.207031 272.015625 C 313.261719 273.667969 315.210938 275.605469 316.832031 277.675781 C 317.484375 278.472656 318.058594 278.96875 318.90625 279.539062 C 320.269531 280.523438 321.320312 281.632812 322.390625 282.925781 C 322.9375 283.597656 322.9375 283.597656 323.570312 284.167969 L 324.035156 284.671875 C 323.921875 285.464844 323.921875 285.464844 323.671875 286.121094 C 322.445312 285.59375 321.691406 284.917969 320.78125 283.949219 L 320.082031 283.269531 C 319.335938 282.503906 319.335938 282.503906 318.476562 281.417969 C 317.597656 280.316406 317.597656 280.316406 316.542969 279.675781 C 315.195312 278.777344 314 277.773438 312.78125 276.714844 L 312.113281 276.144531 C 310.984375 275.171875 309.894531 274.15625 308.847656 273.097656 C 308.4375 272.746094 308.023438 272.398438 307.605469 272.058594 C 306.628906 271.234375 305.867188 270.371094 305.074219 269.367188 C 304.320312 268.554688 303.476562 267.90625 302.609375 267.21875 C 300.601562 265.613281 298.941406 263.839844 297.277344 261.882812 C 296.847656 261.394531 296.417969 260.90625 295.988281 260.414062 L 295.378906 259.71875 C 293.226562 257.214844 293.226562 257.214844 290.925781 254.851562 C 290.089844 253.972656 289.457031 253.097656 288.777344 252.09375 C 287.867188 250.753906 287 249.84375 285.703125 248.863281 L 284.257812 246.691406 C 283.65625 246.207031 283.054688 245.726562 282.449219 245.246094 C 282.078125 244.648438 281.714844 244.046875 281.363281 243.4375 L 280.640625 242.714844 C 279.917969 241.988281 279.917969 241.988281 279.417969 241.140625 C 278.222656 239.175781 276.609375 237.472656 274.832031 236.019531 C 273.925781 235.25 273.328125 234.585938 272.617188 233.648438 C 269.886719 230.035156 266.859375 227.042969 263.285156 224.265625 C 260.660156 222.191406 258.191406 220.011719 255.769531 217.707031 C 254.8125 216.804688 253.882812 215.945312 252.835938 215.144531 L 252.074219 214.5 C 251.78125 213.324219 251.78125 213.324219 251.714844 212.328125 M 338.703125 169.535156 L 339.585938 169.644531 C 339.832031 170.277344 339.832031 170.277344 339.945312 171.09375 C 339.546875 171.832031 339.546875 171.832031 338.859375 172.539062 C 337.875 172.878906 337.875 172.878906 336.667969 173.105469 L 335.289062 173.363281 L 333.796875 173.625 L 332.285156 173.90625 C 329.484375 174.414062 326.664062 174.792969 323.828125 175.035156 C 320.996094 175.289062 318.179688 175.609375 315.359375 175.980469 L 314.253906 176.121094 C 312.761719 176.320312 311.265625 176.515625 309.773438 176.714844 C 305.722656 177.261719 301.785156 177.734375 297.695312 177.570312 C 296.527344 177.605469 295.796875 177.851562 294.746094 178.328125 C 293.941406 178.292969 293.941406 178.292969 293.117188 178.148438 C 291.605469 177.949219 290.363281 178.050781 288.867188 178.328125 C 286.058594 178.820312 283.035156 178.929688 280.3125 177.949219 L 279.558594 177.605469 L 279.195312 177.964844 C 278.511719 178.101562 277.828125 178.21875 277.140625 178.328125 L 276.003906 178.507812 L 274.855469 178.6875 L 273.671875 178.9375 L 272.6875 179.050781 L 271.964844 178.328125 C 277.773438 176.421875 283.191406 175.808594 289.28125 175.601562 C 291.851562 175.496094 294.257812 175.105469 296.773438 174.574219 C 298.09375 174.332031 299.285156 174.304688 300.621094 174.359375 C 301.800781 174.347656 302.917969 174.191406 304.082031 174.023438 C 306.960938 173.621094 309.84375 173.328125 312.734375 173.058594 L 313.492188 172.988281 C 316.78125 172.679688 320.066406 172.4375 323.367188 172.304688 C 325.042969 172.226562 326.585938 171.992188 328.210938 171.597656 C 329.371094 171.410156 330.476562 171.476562 331.652344 171.523438 C 332.964844 171.550781 333.914062 171.554688 335.128906 171.054688 C 335.667969 170.730469 336.199219 170.394531 336.722656 170.046875 C 337.414062 169.644531 337.414062 169.644531 338.703125 169.535156 " fill-opacity="1" fill-rule="nonzero"/><path fill="#fdeb5f" d="M 183.007812 238.371094 L 183.730469 238.371094 C 183.59375 241.808594 183.109375 245.027344 182.320312 248.371094 C 182.023438 249.640625 181.738281 250.914062 181.453125 252.1875 L 181.285156 252.941406 C 180.691406 255.625 180.273438 258.320312 179.882812 261.042969 C 179.6875 262.320312 179.449219 263.589844 179.21875 264.859375 C 178.355469 269.632812 177.738281 274.421875 177.222656 279.246094 L 177.117188 280.199219 C 176.546875 285.5 176.285156 290.824219 176.027344 296.148438 C 175.90625 298.683594 175.773438 301.210938 175.492188 303.734375 C 175.335938 305.394531 175.292969 307.0625 175.234375 308.726562 C 175.160156 310.703125 175.089844 312.671875 174.867188 314.640625 C 174.667969 316.5 174.625 318.351562 174.585938 320.222656 C 174.484375 324.742188 174.183594 329.082031 173.242188 333.503906 L 172.160156 333.867188 C 172.070312 331.671875 172.191406 329.488281 172.511719 327.316406 C 172.949219 324.078125 173.007812 320.855469 173.050781 317.59375 C 173.132812 311.179688 173.390625 304.808594 173.96875 298.417969 L 174.054688 297.449219 C 174.191406 295.921875 174.335938 294.398438 174.488281 292.878906 C 174.644531 291.324219 174.785156 289.769531 174.925781 288.210938 C 175.78125 278.738281 176.636719 269.25 178.488281 259.910156 C 178.738281 258.632812 178.964844 257.351562 179.191406 256.070312 C 179.777344 252.777344 180.410156 249.496094 181.0625 246.21875 L 181.289062 245.085938 C 181.496094 244.054688 181.707031 243.019531 181.921875 241.988281 L 182.125 241.015625 C 182.289062 240.253906 182.464844 239.492188 182.644531 238.734375 Z M 89.710938 198.945312 C 90.527344 199.472656 90.527344 199.472656 91.160156 200.03125 C 87.542969 201.476562 87.542969 201.476562 86.554688 201.84375 C 85.695312 202.148438 85.695312 202.148438 85.125 202.878906 C 84.289062 203.644531 83.789062 203.886719 82.75 204.28125 C 78.226562 205.992188 74.003906 208.453125 69.773438 210.777344 C 67.761719 211.882812 65.738281 212.949219 63.671875 213.957031 C 62.25 214.667969 60.851562 215.421875 59.449219 216.171875 C 57.632812 217.144531 55.820312 218.054688 53.921875 218.855469 C 53.050781 219.269531 52.25 219.757812 51.425781 220.265625 C 48.808594 221.871094 46.171875 223.335938 43.066406 223.542969 C 43.203125 222.554688 43.378906 221.8125 43.878906 220.941406 C 44.632812 220.160156 45.3125 219.941406 46.320312 219.5625 L 46.773438 219.058594 C 47.660156 218.242188 48.605469 217.960938 49.730469 217.550781 C 51.339844 216.976562 51.339844 216.976562 52.886719 216.253906 C 53.550781 215.945312 53.550781 215.945312 54.996094 215.945312 L 55.359375 214.859375 C 56.066406 214.46875 56.796875 214.117188 57.527344 213.777344 C 58.15625 213.433594 58.78125 213.085938 59.40625 212.734375 C 61.386719 211.648438 63.417969 210.710938 65.484375 209.796875 C 66.519531 209.332031 67.550781 208.867188 68.582031 208.398438 C 69.28125 208.070312 69.972656 207.730469 70.660156 207.378906 C 71.632812 206.902344 71.632812 206.902344 72.738281 206.542969 C 73.820312 206.171875 74.640625 205.695312 75.609375 205.09375 C 76.367188 204.722656 77.132812 204.355469 77.898438 203.996094 L 78.503906 203.648438 L 78.863281 202.925781 C 79.746094 202.722656 79.746094 202.722656 80.832031 202.5625 C 81.503906 202.464844 82.175781 202.34375 82.839844 202.199219 L 83.566406 201.476562 L 84.628906 201.136719 C 85.71875 200.859375 85.71875 200.859375 86.230469 200.210938 C 87.054688 199.449219 87.914062 199.265625 88.976562 198.960938 Z M 51.019531 162.410156 C 51.925781 162.476562 52.816406 162.601562 53.714844 162.71875 C 54.621094 162.773438 55.222656 162.65625 56.082031 162.410156 C 58.34375 162.332031 58.34375 162.332031 59.242188 162.597656 C 60.445312 162.855469 61.640625 162.761719 62.863281 162.726562 C 65.339844 162.683594 67.59375 162.972656 70.007812 163.496094 C 71.894531 163.890625 73.367188 163.816406 75.246094 163.496094 L 76.332031 163.859375 C 76.824219 163.882812 77.320312 163.890625 77.8125 163.882812 L 78.742188 163.871094 L 79.769531 163.859375 C 83.5625 163.835938 87.34375 163.910156 91.136719 164.015625 L 91.933594 164.039062 C 95.265625 164.128906 98.578125 164.289062 101.902344 164.546875 C 102.9375 164.578125 103.5625 164.480469 104.539062 164.21875 C 105.359375 164.195312 106.183594 164.1875 107.003906 164.199219 L 107.726562 164.203125 C 108.738281 164.207031 109.753906 164.21875 110.765625 164.226562 C 113.433594 164.25 116.058594 164.269531 118.703125 163.867188 L 119.363281 163.859375 L 120.085938 164.582031 C 119.167969 165.042969 118.433594 165.050781 117.40625 165.125 L 116.160156 165.214844 L 114.800781 165.304688 L 113.375 165.402344 C 97.839844 166.40625 81.570312 166.996094 66.074219 165.183594 C 64.203125 164.96875 62.375 164.914062 60.488281 164.945312 C 58.480469 164.972656 56.519531 164.90625 54.523438 164.671875 L 53.214844 164.519531 C 52.105469 164.21875 52.105469 164.21875 51.230469 163.46875 L 50.660156 162.773438 Z M 108.515625 71.257812 L 109.273438 71.761719 C 111.164062 73 112.992188 74.09375 115.105469 74.902344 C 115.75 75.238281 115.75 75.238281 116.472656 76.324219 L 117.691406 76.84375 C 118.96875 77.394531 119.535156 77.84375 120.449219 78.855469 L 121.261719 79.441406 L 121.894531 79.941406 L 121.894531 80.664062 L 123.046875 80.914062 C 124.101562 81.210938 124.421875 81.378906 125.21875 82.199219 C 126.519531 83.476562 127.9375 84.089844 129.582031 84.847656 C 130.480469 85.316406 130.980469 85.726562 131.660156 86.449219 L 132.496094 86.722656 C 133.503906 87.191406 133.757812 87.472656 134.417969 88.328125 C 135.625 89.839844 137.101562 90.71875 138.75 91.703125 C 139.613281 92.238281 139.613281 92.238281 140.335938 92.960938 C 140.792969 93.136719 141.253906 93.292969 141.714844 93.4375 C 143.1875 93.960938 143.972656 94.703125 145.039062 95.855469 C 145.753906 96.351562 146.476562 96.835938 147.207031 97.300781 C 149.375 98.746094 151.351562 100.273438 153.269531 102.03125 C 154.324219 102.9375 155.453125 103.683594 156.628906 104.417969 C 157.332031 104.898438 157.332031 104.898438 157.902344 105.46875 C 158.445312 106.066406 158.445312 106.066406 159.457031 106.480469 C 160.710938 107.132812 161.394531 107.875 162.394531 108.878906 C 163 109.332031 163.609375 109.773438 164.226562 110.210938 C 165.695312 111.261719 167.121094 112.367188 168.496094 113.535156 C 172.265625 116.707031 176.203125 119.597656 180.242188 122.417969 C 181.175781 123.074219 182.101562 123.738281 183.007812 124.429688 L 182.644531 125.515625 C 178.917969 123.085938 175.382812 120.453125 171.921875 117.664062 C 170.578125 116.578125 169.222656 115.515625 167.832031 114.492188 C 166.886719 113.785156 165.953125 113.058594 165.015625 112.335938 C 158.527344 107.308594 158.527344 107.308594 151.78125 102.636719 C 150.457031 101.761719 149.179688 100.824219 147.902344 99.882812 C 146.484375 98.84375 145.046875 97.832031 143.613281 96.8125 C 142.417969 95.964844 141.25 95.078125 140.113281 94.160156 C 138.566406 92.929688 136.894531 91.984375 135.167969 91.035156 C 134.203125 90.4375 133.519531 89.800781 132.742188 88.984375 C 132.144531 88.613281 131.542969 88.25 130.9375 87.898438 C 130.472656 87.59375 130.011719 87.285156 129.558594 86.972656 L 128.894531 86.515625 L 128.40625 86.089844 L 128.40625 85.367188 L 127.625 85.273438 C 126.371094 84.945312 125.617188 84.386719 124.585938 83.601562 L 123.566406 82.835938 L 122.617188 82.109375 L 121.773438 81.519531 L 121.171875 81.023438 L 121.171875 80.300781 L 120.269531 80.074219 C 118.960938 79.5625 118.144531 78.957031 117.054688 78.097656 C 115.5625 77.007812 113.976562 76.070312 112.394531 75.125 C 110.898438 74.214844 109.667969 73.308594 108.515625 71.980469 Z M 185.539062 60.769531 C 186.214844 60.851562 186.214844 60.851562 186.984375 61.128906 C 187.398438 61.808594 187.398438 61.808594 187.722656 62.683594 L 188.085938 63.644531 L 188.453125 64.65625 C 189.175781 66.597656 189.859375 68.414062 190.960938 70.171875 C 191.195312 70.777344 191.414062 71.390625 191.617188 72.003906 C 192.28125 73.886719 193.121094 75.617188 194.035156 77.390625 C 194.738281 78.8125 195.320312 80.273438 195.890625 81.753906 C 196.289062 82.621094 196.695312 83.328125 197.21875 84.117188 C 198.484375 86.097656 199.34375 88.246094 200.25 90.40625 L 200.820312 91.757812 C 201.207031 92.675781 201.59375 93.597656 201.976562 94.519531 C 202.492188 95.757812 203.019531 96.992188 203.542969 98.226562 C 205.105469 101.941406 206.460938 105.644531 207.460938 109.554688 L 207.734375 110.601562 C 208.292969 112.949219 208.417969 115.152344 208.320312 117.558594 C 207.75 116.480469 207.335938 115.40625 206.957031 114.25 L 206.597656 113.15625 L 206.21875 111.996094 C 203.976562 105.203125 201.363281 98.558594 198.375 92.058594 C 196.808594 88.644531 195.269531 85.230469 193.855469 81.75 L 193.320312 80.4375 C 193.042969 79.753906 192.765625 79.066406 192.484375 78.382812 C 192.074219 77.40625 192.074219 77.40625 191.507812 76.558594 C 190.679688 75.101562 190.296875 73.542969 189.839844 71.9375 C 189.40625 70.476562 188.890625 69.300781 188.070312 68.003906 C 187.878906 67.488281 187.707031 66.96875 187.550781 66.445312 C 187.105469 65.03125 186.527344 63.773438 185.816406 62.480469 C 185.539062 61.855469 185.539062 61.855469 185.539062 60.769531 M 75.609375 108.152344 C 80.609375 108.625 85.609375 110.398438 90.300781 112.15625 C 91.730469 112.691406 93.167969 113.128906 94.640625 113.535156 C 97.390625 114.300781 100.058594 115.257812 102.746094 116.222656 C 104.757812 116.9375 106.777344 117.644531 108.835938 118.203125 C 111.832031 119.03125 114.523438 120.269531 117.308594 121.644531 C 119.121094 122.539062 120.96875 123.351562 122.851562 124.085938 C 124.121094 124.601562 125.335938 125.207031 126.550781 125.832031 L 128.050781 126.59375 L 128.785156 126.96875 C 130.128906 127.648438 131.484375 128.3125 132.835938 128.980469 C 133.558594 129.355469 134.269531 129.75 134.976562 130.15625 C 136.382812 130.964844 137.816406 131.707031 139.261719 132.445312 L 140.078125 132.863281 C 140.933594 133.300781 141.789062 133.738281 142.644531 134.175781 C 149.417969 137.636719 149.417969 137.636719 152.269531 139.261719 L 151.546875 139.984375 C 149.304688 138.835938 147.058594 137.683594 144.816406 136.527344 L 142.332031 135.253906 L 141.476562 134.8125 C 140.039062 134.074219 138.605469 133.324219 137.179688 132.566406 C 133.210938 130.453125 129.1875 128.457031 125.105469 126.578125 L 124.175781 126.152344 C 119.566406 124.03125 114.945312 122.121094 110.128906 120.515625 C 108.640625 120.011719 107.164062 119.484375 105.683594 118.953125 C 99.550781 116.765625 93.410156 114.683594 87.167969 112.816406 C 85.339844 112.261719 83.511719 111.695312 81.6875 111.117188 L 80.710938 110.808594 C 78.960938 110.253906 77.285156 109.632812 75.609375 108.878906 Z M 280.640625 49.917969 L 281.363281 49.917969 C 281.226562 51.851562 280.894531 53.199219 279.976562 54.894531 C 278.878906 57.007812 278.050781 59.261719 277.191406 61.480469 L 276.902344 62.214844 C 276.71875 62.6875 276.535156 63.160156 276.355469 63.636719 C 275.867188 64.882812 275.3125 65.867188 274.496094 66.917969 C 274.25 67.761719 274.007812 68.605469 273.769531 69.449219 C 273.425781 70.0625 273.0625 70.664062 272.6875 71.257812 C 272.457031 71.707031 272.230469 72.160156 272.007812 72.613281 C 271.066406 74.527344 270.050781 76.402344 268.933594 78.21875 C 267.996094 79.8125 267.167969 81.464844 266.324219 83.109375 C 265.546875 84.597656 264.730469 85.878906 263.644531 87.175781 C 263.34375 87.65625 263.058594 88.144531 262.789062 88.644531 L 262.324219 89.492188 C 261.792969 90.519531 261.296875 91.558594 260.796875 92.601562 C 259.945312 94.332031 258.960938 95.757812 257.738281 97.246094 C 256.769531 98.5 256.0625 99.878906 255.328125 101.28125 C 254.519531 102.796875 253.734375 104.101562 252.4375 105.261719 L 252.074219 104.175781 C 252.546875 102.789062 253.300781 101.550781 254.222656 100.421875 C 255.121094 99.277344 255.679688 98.074219 256.289062 96.761719 C 256.777344 95.855469 256.777344 95.855469 257.46875 94.996094 C 258.339844 93.898438 258.964844 92.730469 259.601562 91.492188 C 261.210938 88.410156 262.953125 85.421875 264.753906 82.449219 C 265.671875 80.921875 266.535156 79.367188 267.378906 77.792969 C 267.933594 76.777344 268.511719 75.769531 269.09375 74.765625 C 273.011719 67.949219 276.074219 60.707031 279.125 53.472656 C 279.625 52.285156 280.132812 51.101562 280.640625 49.917969 M 227.125 212.691406 L 228.207031 212.691406 L 228.207031 215.945312 L 227.484375 216.308594 L 227.125 217.394531 C 225.042969 217.4375 225.042969 217.4375 224.230469 217.03125 L 224.230469 218.476562 C 223.445312 218.296875 222.785156 218.117188 222.0625 217.753906 L 221.699219 219.203125 L 219.167969 218.839844 L 218.921875 219.535156 L 218.445312 220.285156 C 217.582031 220.585938 217.582031 220.585938 216.59375 220.738281 C 216.261719 220.792969 215.933594 220.847656 215.59375 220.902344 L 214.828125 221.011719 L 214.46875 222.09375 L 213.316406 221.871094 C 211.972656 221.644531 211.972656 221.644531 210.875 222.074219 C 210.628906 222.199219 210.382812 222.324219 210.128906 222.457031 L 210.488281 220.648438 L 211.574219 220.285156 C 211.839844 219.558594 211.839844 219.558594 211.9375 218.839844 L 212.695312 218.652344 C 213.890625 218.355469 215.082031 218.058594 216.277344 217.753906 L 216.996094 217.574219 C 217.726562 217.386719 218.460938 217.199219 219.191406 217.007812 L 220.558594 216.65625 C 221.742188 216.355469 221.742188 216.355469 222.785156 215.585938 C 223.523438 215.367188 224.269531 215.171875 225.023438 214.996094 C 225.414062 214.902344 225.808594 214.808594 226.210938 214.710938 C 226.511719 214.640625 226.8125 214.570312 227.125 214.5 Z M 215.191406 219.203125 L 215.914062 219.925781 L 215.914062 219.203125 Z M 213.746094 219.5625 L 213.382812 220.285156 L 214.105469 220.285156 Z M 228.570312 304.929688 L 229.65625 304.929688 C 230.09375 306.460938 230.425781 307.765625 230.355469 309.359375 L 230.378906 310.714844 C 230.898438 311.5 230.898438 311.5 231.464844 312.164062 L 231.464844 313.972656 C 231.824219 314.574219 232.183594 315.179688 232.546875 315.78125 C 233.171875 317.574219 233.421875 319.300781 233.269531 321.207031 L 232.546875 321.929688 C 231.429688 319.507812 230.773438 317.074219 230.199219 314.480469 C 229.839844 312.867188 229.398438 311.328125 228.839844 309.765625 C 228.285156 308.183594 228.023438 306.960938 228.207031 305.289062 Z M 57.890625 103.089844 C 59.878906 103.300781 61.585938 103.8125 63.449219 104.515625 C 65.5625 105.289062 67.613281 105.910156 69.824219 106.34375 L 70.183594 106.707031 C 70.984375 106.898438 71.792969 107.054688 72.597656 107.214844 C 73.441406 107.429688 74.125 107.738281 74.886719 108.152344 L 74.886719 108.878906 C 72.234375 108.8125 70.136719 108.121094 67.695312 107.117188 C 66.453125 106.664062 65.367188 106.515625 64.058594 106.429688 C 62.757812 106.28125 61.609375 105.785156 60.421875 105.261719 L 59.179688 104.71875 L 58.253906 104.175781 Z M 37.640625 161.328125 C 38.191406 161.339844 38.742188 161.339844 39.289062 161.328125 C 40.355469 161.296875 40.949219 161.34375 41.980469 161.6875 C 42.53125 161.730469 43.085938 161.753906 43.644531 161.765625 C 43.960938 161.773438 44.28125 161.785156 44.609375 161.796875 C 45.285156 161.816406 45.957031 161.832031 46.628906 161.84375 L 47.597656 161.878906 L 48.484375 161.898438 L 49.210938 162.050781 L 49.933594 163.136719 L 49.574219 163.496094 C 48.460938 163.585938 47.34375 163.5625 46.230469 163.566406 L 45.285156 163.578125 C 43.628906 163.582031 42.421875 163.476562 40.894531 162.773438 C 40.136719 162.699219 40.136719 162.699219 39.382812 162.75 C 37.574219 162.796875 35.816406 162.621094 34.023438 162.410156 L 34.023438 161.328125 C 35.398438 161.046875 36.300781 160.988281 37.640625 161.328125 " fill-opacity="1" fill-rule="nonzero"/><path fill="#fdeb5f" d="M 119.003906 163.859375 L 120.085938 164.582031 C 118.480469 165.386719 116.363281 165.207031 114.597656 165.328125 L 113.179688 165.425781 C 108.96875 165.695312 104.777344 165.75 100.5625 165.667969 L 100.5625 165.304688 L 101.734375 165.167969 C 103.015625 165.035156 103.015625 165.035156 103.746094 164.570312 C 104.859375 164.078125 105.800781 164.144531 107.015625 164.164062 L 107.742188 164.167969 C 108.503906 164.175781 109.265625 164.1875 110.03125 164.199219 C 113.855469 164.289062 113.855469 164.289062 117.664062 163.996094 Z M 161.3125 174.710938 L 162.035156 175.070312 L 161.671875 175.433594 L 162.394531 176.15625 C 161.589844 176.402344 160.785156 176.640625 159.976562 176.878906 L 158.617188 177.289062 C 157.511719 177.558594 156.648438 177.671875 155.523438 177.605469 L 155.523438 178.328125 L 154.875 178.449219 C 153.207031 178.78125 151.878906 179.132812 150.460938 180.136719 C 150.570312 179.46875 150.570312 179.46875 150.824219 178.6875 C 152.503906 177.105469 154.863281 176.394531 156.996094 175.652344 C 158.1875 175.40625 159.042969 175.574219 160.226562 175.796875 C 160.914062 175.320312 160.914062 175.320312 161.3125 174.710938 M 162.757812 154.816406 L 163.117188 155.902344 C 161.757812 156.882812 160.769531 157.398438 159.140625 157.710938 C 158.480469 157.949219 157.828125 158.199219 157.175781 158.457031 C 155.722656 159 154.566406 159.328125 152.992188 159.15625 L 152.632812 158.070312 L 153.210938 157.890625 L 155.863281 157.054688 L 156.773438 156.769531 C 158.773438 156.136719 160.769531 155.484375 162.757812 154.816406 M 166.011719 164.21875 L 165.648438 165.304688 L 164.566406 165.304688 L 164.566406 166.027344 L 163.84375 166.027344 L 163.84375 167.113281 L 158.78125 167.476562 L 158.78125 166.027344 L 159.546875 165.988281 L 160.542969 165.914062 L 161.535156 165.851562 L 162.394531 165.667969 L 163.117188 164.582031 C 164.179688 164.230469 164.910156 164.191406 166.011719 164.21875 M 150.460938 224.988281 C 151.972656 225.820312 153.480469 226.65625 154.972656 227.523438 L 155.632812 227.90625 C 156.269531 228.277344 156.90625 228.644531 157.539062 229.015625 C 158.777344 229.691406 160.007812 230.242188 161.3125 230.777344 L 160.949219 231.5 C 159.183594 230.960938 157.578125 230.242188 155.933594 229.421875 L 155.160156 229.035156 C 153.316406 228.09375 151.695312 227.042969 150.101562 225.710938 Z M 95.5 196.050781 C 96.105469 196.152344 96.707031 196.273438 97.304688 196.414062 L 96.945312 197.5 C 96 198.089844 96 198.089844 94.820312 198.675781 L 93.648438 199.265625 L 92.605469 199.667969 L 91.519531 199.308594 C 92.046875 198.832031 92.574219 198.355469 93.101562 197.882812 L 93.992188 197.082031 C 94.773438 196.414062 94.773438 196.414062 95.5 196.050781 M 284.257812 40.875 L 284.621094 40.875 C 284.480469 43.019531 284.171875 44.746094 283.171875 46.660156 L 282.449219 47.023438 C 282.183594 47.859375 281.945312 48.703125 281.726562 49.554688 L 281.363281 49.554688 C 281.121094 47.308594 281.996094 45.449219 282.8125 43.40625 L 283.175781 42.425781 C 283.535156 41.597656 283.535156 41.597656 284.257812 40.875 M 281.726562 176.519531 L 281.070312 176.835938 C 280.210938 177.257812 280.210938 177.257812 279.195312 177.964844 C 278.5 178.121094 277.796875 178.246094 277.09375 178.351562 L 275.980469 178.519531 L 274.855469 178.6875 L 273.675781 178.9375 L 272.6875 179.050781 L 271.964844 178.328125 C 278.355469 176.25 278.355469 176.25 281.726562 176.519531 M 169.628906 16.277344 C 170.046875 16.605469 170.460938 16.9375 170.871094 17.273438 L 171.570312 17.832031 C 172.160156 18.449219 172.160156 18.449219 172.421875 19.246094 L 172.519531 19.894531 C 169.628906 19.5625 169.628906 19.5625 168.542969 18.808594 L 168.179688 17.722656 L 169.265625 17.722656 Z M 232.1875 130.941406 C 236.523438 132.566406 236.523438 132.566406 237.699219 133.722656 L 238.332031 134.558594 L 238.332031 135.28125 C 236.800781 134.703125 235.34375 133.988281 233.882812 133.25 L 233.175781 132.890625 C 232.605469 132.605469 232.035156 132.316406 231.464844 132.027344 L 232.1875 131.664062 Z M 96.222656 61.855469 C 96.875 61.898438 96.875 61.898438 97.667969 62.214844 C 98.277344 63.277344 98.277344 63.277344 98.753906 64.386719 L 99.113281 65.109375 L 98.753906 66.195312 C 98.121094 65.96875 98.121094 65.96875 97.304688 65.472656 C 96.46875 64.429688 96.46875 64.429688 95.859375 63.300781 C 95.949219 62.441406 95.949219 62.441406 96.222656 61.855469 M 173.242188 151.921875 L 172.882812 153.367188 C 171.707031 153.570312 170.539062 153.75 169.355469 153.890625 L 168.179688 154.09375 L 167.457031 154.816406 L 166.375 154.816406 L 166.734375 153.730469 C 167.496094 153.320312 167.496094 153.320312 168.453125 152.960938 L 169.398438 152.597656 C 170.703125 152.167969 171.867188 151.921875 173.242188 151.921875 M 37.277344 223.542969 L 38.363281 223.902344 L 37.527344 224.3125 C 36.472656 224.945312 36.472656 224.945312 35.902344 226.140625 L 35.472656 227.160156 L 33.664062 226.074219 L 34.023438 224.988281 C 34.734375 224.554688 34.734375 224.554688 35.605469 224.175781 L 36.472656 223.785156 Z M 148.65625 179.414062 L 148.65625 180.136719 L 148.035156 180.347656 L 147.230469 180.632812 L 146.429688 180.914062 L 145.761719 181.222656 L 145.398438 181.945312 L 144.675781 181.945312 L 144.316406 182.667969 L 143.59375 181.945312 L 143.59375 180.859375 C 144.230469 180.617188 144.871094 180.375 145.511719 180.136719 L 146.59375 179.730469 C 147.570312 179.414062 147.570312 179.414062 148.65625 179.414062 " fill-opacity="1" fill-rule="nonzero"/><path fill="#fdeb5f" d="M 120.085938 164.582031 C 119.070312 165.089844 118.214844 164.992188 117.082031 164.988281 L 115.84375 164.992188 C 114.832031 164.953125 113.835938 164.816406 112.855469 164.582031 L 112.855469 164.21875 C 113.855469 164.140625 114.859375 164.066406 115.863281 163.996094 L 116.722656 163.921875 L 117.550781 163.867188 L 118.316406 163.808594 C 119.003906 163.859375 119.003906 163.859375 120.085938 164.582031 M 158.78125 166.027344 C 159.308594 166 159.835938 165.976562 160.363281 165.960938 L 161.25 165.921875 L 162.035156 166.027344 L 162.757812 167.113281 L 158.78125 167.476562 Z M 70.910156 107.429688 C 73.222656 107.339844 73.222656 107.339844 74.320312 107.792969 L 74.886719 108.152344 L 74.886719 108.878906 L 71.269531 108.515625 Z M 27.878906 160.964844 L 29.683594 160.964844 L 30.410156 162.773438 L 28.238281 162.773438 Z M 175.050781 151.199219 C 175.933594 151.109375 175.933594 151.109375 176.859375 151.199219 L 177.582031 152.285156 C 176.363281 152.824219 175.703125 153.007812 174.328125 153.007812 C 174.4375 152.523438 174.558594 152.039062 174.691406 151.558594 Z M 207.957031 222.09375 L 209.042969 222.09375 C 208.792969 222.796875 208.792969 222.796875 208.320312 223.542969 C 207.371094 223.8125 207.371094 223.8125 206.511719 223.902344 L 206.152344 225.351562 L 205.789062 223.542969 C 206.5 223.039062 207.222656 222.558594 207.957031 222.09375 M 171.4375 162.410156 L 172.160156 162.773438 L 171.796875 163.136719 L 172.882812 163.859375 L 169.265625 164.21875 L 169.265625 163.496094 C 169.976562 163.109375 170.699219 162.75 171.4375 162.410156 M 250.988281 106.34375 L 251.714844 106.707031 C 251.441406 107.542969 251.441406 107.542969 250.988281 108.515625 C 250.222656 109.171875 250.222656 109.171875 249.542969 109.601562 C 249.691406 108.53125 249.859375 107.859375 250.46875 106.957031 Z M 167.097656 163.859375 L 168.90625 164.21875 L 168.179688 165.667969 L 166.734375 165.667969 Z M 176.5 224.628906 L 178.304688 224.988281 L 177.222656 225.710938 L 176.136719 225.710938 L 175.773438 227.160156 L 174.691406 226.796875 Z M 155.523438 167.476562 C 156.132812 167.578125 156.734375 167.699219 157.332031 167.835938 L 156.609375 168.921875 L 155.523438 168.921875 L 155.164062 167.835938 Z M 102.730469 67.28125 C 103.410156 67.347656 103.410156 67.347656 104.175781 67.640625 C 104.628906 68.570312 104.628906 68.570312 104.898438 69.449219 C 104.164062 68.988281 103.441406 68.507812 102.730469 68.003906 Z M 181.921875 50.640625 C 182.464844 51.070312 182.464844 51.070312 183.007812 51.726562 C 183.074219 52.699219 183.074219 52.699219 183.007812 53.535156 L 182.285156 53.171875 C 182.136719 52.332031 182.015625 51.488281 181.921875 50.640625 M 285.34375 34.726562 L 286.066406 34.726562 L 286.066406 37.617188 L 285.34375 36.894531 C 285.296875 35.765625 285.296875 35.765625 285.34375 34.726562 M 172.519531 331.695312 L 173.242188 332.058594 L 172.882812 333.867188 L 172.160156 333.867188 Z M 40.535156 222.820312 L 41.980469 223.179688 L 41.617188 224.265625 L 40.535156 223.902344 Z M 40.535156 222.820312 " fill-opacity="1" fill-rule="nonzero"/><path fill="#fdeb5f" d="M 119.003906 163.859375 L 120.085938 164.582031 L 117.917969 164.945312 L 117.554688 164.21875 C 118.210938 163.996094 118.210938 163.996094 119.003906 163.859375 M 161.3125 236.925781 L 162.035156 237.289062 L 162.394531 238.011719 L 160.949219 238.734375 Z M 184.453125 57.511719 L 185.539062 57.511719 L 185.539062 59.320312 C 184.996094 58.824219 184.996094 58.824219 184.453125 58.238281 Z M 98.753906 194.964844 L 100.921875 194.964844 L 100.921875 195.691406 L 98.753906 195.328125 Z M 164.203125 164.21875 L 166.011719 164.21875 L 165.648438 165.304688 L 164.925781 165.304688 L 164.925781 164.582031 Z M 121.535156 163.496094 C 122.28125 163.65625 122.28125 163.65625 122.980469 163.859375 L 122.617188 164.582031 L 121.171875 163.859375 Z M 32.941406 160.964844 L 32.941406 161.6875 L 31.132812 162.050781 L 31.132812 161.328125 C 31.855469 160.964844 31.855469 160.964844 32.941406 160.964844 M 218.445312 197.5 L 220.253906 197.859375 L 219.167969 198.582031 L 218.445312 198.582031 Z M 247.375 172.539062 L 248.097656 172.902344 L 248.097656 173.625 L 247.011719 173.988281 Z M 247.734375 112.496094 L 247.734375 113.578125 L 246.652344 113.941406 L 246.652344 113.21875 Z M 183.367188 54.621094 L 184.09375 54.621094 L 184.09375 56.429688 L 183.367188 55.703125 Z M 207.234375 222.820312 L 208.320312 223.542969 L 207.234375 223.902344 L 206.511719 223.179688 Z M 106.347656 70.171875 L 107.070312 70.171875 L 106.707031 71.257812 Z M 284.257812 39.066406 L 284.980469 39.066406 L 284.621094 40.152344 Z M 172.519531 19.894531 L 173.242188 21.339844 L 172.519531 20.980469 Z M 182.285156 212.328125 L 182.644531 213.050781 L 181.921875 212.691406 Z M 205.789062 221.011719 L 206.511719 221.371094 Z M 209.042969 220.285156 L 209.765625 220.648438 Z M 165.289062 154.09375 L 166.011719 154.453125 Z M 165.289062 154.09375 " fill-opacity="1" fill-rule="nonzero"/></svg>