<svg xmlns="http://www.w3.org/2000/svg" xmlns:xlink="http://www.w3.org/1999/xlink" width="503" zoomAndPan="magnify" viewBox="0 0 377.25 347.249998" height="463" preserveAspectRatio="xMidYMid meet" version="1.0"><path fill="#efc1d6" d="M 188.25 98.429688 C 189.496094 98.804688 189.496094 98.804688 190.617188 99.613281 C 191.703125 101.277344 192.414062 103.046875 192.984375 104.945312 C 192.835938 106.761719 192.835938 106.761719 192.394531 107.90625 L 190.617188 107.90625 L 190.027344 104.945312 L 188.804688 105.796875 C 186.820312 106.855469 185.148438 107.097656 182.925781 107.316406 L 184.109375 110.277344 L 182.925781 111.054688 L 181.738281 112.054688 L 181.738281 113.828125 L 182.925781 114.421875 C 183.578125 115.800781 183.578125 115.800781 184.21875 117.53125 L 184.871094 119.242188 C 185.320312 121.058594 185.207031 122.121094 184.699219 123.898438 C 183.554688 123.417969 183.554688 123.417969 182.332031 122.714844 L 181.738281 120.9375 C 179.644531 119.859375 177.550781 119.484375 175.230469 119.160156 L 174.636719 121.53125 L 175.820312 122.121094 C 174.636719 124.492188 174.636719 124.492188 174.019531 125.5625 C 172.902344 128.128906 173.183594 130.988281 173.15625 133.746094 L 173.082031 135.617188 C 173.058594 138.269531 173.109375 140.359375 174.269531 142.777344 C 174.894531 143.789062 175.554688 144.78125 176.246094 145.75 L 177.003906 147 C 176.929688 149.144531 176.929688 149.144531 176.414062 150.550781 L 172.269531 151.738281 L 172.011719 154.070312 C 171.925781 154.875 171.8125 155.675781 171.679688 156.476562 L 171.085938 157.066406 C 170.902344 159.800781 170.886719 161.339844 171.972656 163.878906 L 172.863281 165.359375 L 174.636719 165.359375 L 174.445312 166.460938 L 174.230469 167.914062 L 174 169.351562 L 174.046875 170.691406 C 174.921875 171.90625 175.675781 172.398438 177.03125 173.027344 C 177.449219 173.171875 177.867188 173.316406 178.300781 173.464844 C 178.722656 173.613281 179.148438 173.761719 179.582031 173.917969 L 180.554688 174.242188 L 179.964844 177.796875 C 181.402344 177.796875 182.703125 177.5 184.109375 177.203125 L 184.738281 178.117188 C 186.78125 180.96875 188.910156 183.472656 191.800781 185.496094 L 193.578125 186.089844 L 193.386719 184.738281 C 192.703125 178.671875 193.421875 172.929688 195.351562 167.136719 L 194.167969 165.359375 C 193.816406 164.082031 193.816406 164.082031 193.539062 162.695312 C 193.230469 161.152344 192.890625 159.746094 192.394531 158.25 C 193.429688 157.328125 193.429688 157.328125 194.761719 156.476562 C 196.054688 156.621094 196.054688 156.621094 197.128906 157.066406 L 197.722656 157.660156 C 198.605469 162.769531 198.617188 168.027344 197.980469 173.171875 L 197.722656 175.429688 L 198.3125 176.613281 C 198.609375 181 198.296875 185.308594 197.828125 189.667969 C 197.1875 195.617188 196.632812 201.574219 198.3125 207.410156 C 199.53125 208.882812 200.703125 209.796875 202.269531 210.890625 C 203.640625 212.148438 203.640625 212.148438 204.195312 213.890625 C 204.230469 215.703125 204.230469 215.703125 203.648438 217.0625 C 202.945312 218.945312 202.929688 220.402344 202.972656 222.402344 L 203.007812 224.320312 L 203.046875 225.773438 L 207.191406 227.550781 L 206.597656 228.734375 C 205.246094 229.238281 205.246094 229.238281 203.601562 229.695312 C 203.058594 229.851562 202.515625 230.003906 201.953125 230.164062 L 200.679688 230.511719 L 200.089844 233.472656 L 201.320312 233.28125 L 202.9375 233.066406 L 204.539062 232.835938 L 206.007812 232.878906 C 207.148438 233.769531 207.730469 234.574219 208.484375 235.804688 C 208.964844 237.027344 208.964844 237.027344 208.964844 239.394531 C 205.589844 239.027344 202.152344 238.648438 198.90625 237.617188 L 197.722656 236.433594 L 196.945312 237.878906 L 195.945312 239.394531 L 194.167969 239.988281 L 192.394531 238.804688 L 191.800781 241.765625 L 190.027344 241.171875 C 189.429688 240.1875 188.835938 239.199219 188.25 238.210938 C 187.390625 237.402344 186.503906 236.625 185.585938 235.878906 C 184.011719 234.507812 182.863281 233.386719 181.667969 231.660156 C 181.015625 229.476562 181.242188 227.976562 181.738281 225.773438 L 182.332031 223.996094 L 180.039062 224.292969 C 173.429688 224.980469 173.429688 224.980469 171.085938 224.585938 C 169.828125 223.179688 169.828125 223.179688 168.71875 221.625 C 167.175781 221.011719 165.613281 220.734375 163.984375 220.441406 L 162.78125 220.117188 C 161.484375 219.773438 161.484375 219.773438 159.582031 219.847656 C 157.472656 219.847656 157.472656 219.847656 155.917969 219.480469 L 154.515625 219.257812 L 153.035156 219.847656 C 151.554688 220.441406 151.554688 220.441406 149.925781 220.257812 C 148.59375 219.847656 148.59375 219.847656 148.003906 219.257812 C 146.511719 219.132812 145.019531 219.03125 143.527344 218.960938 C 134.574219 218.460938 134.574219 218.460938 132.613281 217.480469 C 131.640625 214.625 131.207031 211.605469 131.429688 208.597656 L 132.023438 208.003906 C 132.898438 207.949219 133.773438 207.925781 134.648438 207.929688 L 136.089844 207.925781 C 137.347656 208.003906 137.347656 208.003906 138.53125 208.597656 L 138.53125 211.558594 C 136.964844 212.421875 136.226562 212.742188 134.390625 212.742188 L 134.980469 213.925781 C 137.761719 215.082031 140.523438 215.449219 143.488281 215.777344 L 144.808594 215.933594 C 145.875 216.054688 146.9375 216.175781 148.003906 216.296875 L 146.820312 212.742188 L 141.492188 212.148438 L 142.085938 210.964844 L 143.488281 210.484375 L 145.042969 209.78125 C 146.125 208.292969 146.125 208.292969 146.820312 206.820312 L 148.59375 208.003906 C 149.003906 209.261719 149.003906 209.261719 149.1875 210.371094 L 151.074219 210.816406 C 153.230469 211.417969 154.566406 212.492188 156.289062 213.925781 L 158.066406 213.925781 L 158.65625 212.742188 C 160.722656 213.007812 162.351562 213.660156 164.207031 214.554688 C 166.015625 215.382812 167.175781 215.730469 169.199219 215.964844 C 171.074219 215.820312 171.074219 215.820312 172.492188 214.925781 C 173.597656 213.921875 173.597656 213.921875 174.046875 212.148438 C 173.683594 212.207031 173.316406 212.261719 172.941406 212.320312 C 172.464844 212.386719 171.984375 212.453125 171.492188 212.519531 L 170.058594 212.726562 L 168.71875 212.742188 L 166.941406 211.558594 C 167.546875 209.65625 168.167969 207.925781 169.089844 206.152344 C 170.421875 203.183594 170.042969 199.929688 169.902344 196.75 L 168.875 196.238281 L 162.800781 193.195312 L 163.023438 191.566406 L 162.800781 189.644531 C 161.0625 188.214844 159.601562 187.390625 157.472656 186.679688 L 155.699219 186.679688 L 154.292969 185.238281 C 152.898438 183.671875 152.898438 183.671875 151.332031 183.203125 C 149.375 183.109375 147.5625 183.378906 145.636719 183.71875 L 145.636719 179.574219 L 143.269531 178.980469 L 143.269531 177.203125 L 142.316406 177.679688 C 138.53125 179.574219 138.53125 179.574219 137.230469 180.132812 L 136.164062 180.757812 L 135.574219 182.535156 L 132.613281 183.128906 C 132.613281 181.015625 132.632812 180.328125 133.539062 178.574219 C 134.179688 177.492188 134.179688 177.492188 134.980469 176.613281 C 137.203125 176.058594 137.203125 176.058594 139.125 176.019531 L 137.941406 173.652344 C 136.839844 173.777344 136.839844 173.777344 135.574219 174.242188 C 134.253906 175.414062 134.253906 175.414062 133.207031 176.613281 L 131.429688 175.429688 L 131.429688 174.242188 L 130.246094 174.242188 L 129.65625 176.613281 L 128.472656 176.019531 L 129.0625 171.875 L 131.429688 171.28125 L 131.429688 170.097656 L 125.511719 167.726562 L 125.511719 168.914062 L 127.289062 169.503906 L 126.695312 171.875 L 123.144531 172.464844 L 122.960938 170.542969 C 122.550781 168.300781 122.183594 167.632812 120.777344 165.953125 L 119.964844 164.101562 L 119 162.398438 C 117.488281 161.554688 117.488281 161.554688 116.042969 161.214844 C 114.898438 162.554688 114.292969 163.480469 113.859375 165.210938 L 113.675781 166.542969 L 111.308594 166.542969 C 111.660156 164.363281 112.046875 162.191406 112.492188 160.027344 L 110.566406 160.621094 C 108.347656 161.214844 108.347656 161.214844 105.980469 161.214844 L 105.980469 158.84375 L 104.722656 158.695312 C 102.621094 158.148438 101.257812 157.101562 99.46875 155.882812 L 97.359375 154.992188 C 95.363281 154.121094 93.96875 153.199219 92.367188 151.738281 C 91.625 150.253906 91.695312 149.203125 91.699219 147.554688 L 91.695312 145.941406 L 91.773438 144.628906 L 92.367188 144.035156 C 94.5 144.144531 96.617188 144.347656 98.746094 144.535156 C 100.589844 144.78125 100.589844 144.78125 101.835938 144.035156 C 103.871094 143.816406 103.871094 143.816406 105.980469 144.035156 L 106.792969 145.515625 L 107.753906 147 C 109.105469 147.179688 110.363281 147.105469 111.722656 147.023438 C 113.527344 146.988281 114.976562 147.503906 116.632812 148.183594 C 114.558594 145.78125 112.117188 144.511719 109.347656 143.074219 L 108.03125 142.367188 C 105.039062 140.792969 102.101562 139.429688 98.679688 139.207031 C 95.546875 139.539062 93.328125 140.476562 90.675781 142.167969 C 89.230469 142.949219 88.082031 143.296875 86.449219 143.445312 L 84.671875 142.261719 C 84.265625 140.113281 84.265625 140.113281 84.082031 138.113281 L 85.53125 137.699219 C 87.453125 137.113281 89.324219 136.519531 91.183594 135.746094 L 92.699219 134.042969 L 94.140625 132.785156 C 96.394531 132.835938 98.480469 133.398438 100.652344 133.96875 C 101.589844 134.15625 102.527344 134.339844 103.464844 134.523438 C 105.148438 134.898438 106.382812 135.339844 107.976562 136.078125 C 110.464844 137.066406 112.644531 137.246094 115.296875 137.398438 L 116.632812 137.523438 L 117.226562 138.113281 C 119.347656 138.195312 121.183594 138.15625 123.253906 137.667969 L 124.917969 137.523438 C 126.25 138.519531 126.25 138.519531 127.289062 139.890625 L 127.730469 141.148438 L 128.472656 142.261719 C 129.648438 142.550781 130.832031 142.835938 132.019531 143.078125 C 133.859375 143.644531 134.835938 145.042969 136.164062 146.40625 C 137.585938 147.183594 139.039062 147.859375 140.503906 148.550781 C 142.117188 149.382812 143.507812 150.332031 144.96875 151.402344 C 147.644531 153.339844 150.417969 154.796875 153.386719 156.230469 C 159.214844 159.066406 159.214844 159.066406 161.617188 160.964844 C 162.824219 161.824219 163.722656 162.140625 165.167969 162.398438 C 165.273438 157.53125 165.273438 157.53125 164.796875 152.699219 C 164.574219 150.550781 164.574219 150.550781 165.167969 148.8125 C 165.875 146.640625 165.710938 145.0625 165.453125 142.824219 L 165.167969 141.667969 L 163.984375 140.484375 C 164.09375 139.003906 164.09375 139.003906 164.574219 137.523438 L 166.351562 136.335938 C 167.011719 134.511719 167.011719 134.511719 167.5 132.339844 L 168.113281 129.902344 C 168.488281 128.386719 168.863281 126.871094 169.230469 125.355469 C 170.703125 119.714844 173.050781 114.773438 175.820312 109.683594 L 176.445312 108.515625 C 178.011719 105.652344 178.011719 105.652344 179.667969 104.574219 L 181.148438 103.761719 L 182.222656 102.316406 C 183.695312 100.589844 185.085938 99.777344 187.066406 98.726562 Z M 178.1875 115.015625 L 178.1875 117.976562 L 181.148438 119.160156 C 180.761719 117.023438 180.761719 117.023438 179.964844 115.015625 Z M 111.898438 141.074219 L 111.898438 142.851562 C 113.226562 143.980469 113.226562 143.980469 114.933594 145 L 116.636719 146.097656 C 118.457031 147.023438 119.941406 147.367188 121.960938 147.589844 L 122.550781 145.222656 C 120.675781 143.636719 118.890625 142.898438 116.558594 142.148438 L 114.667969 141.53125 C 113.167969 141.019531 113.167969 141.019531 111.898438 141.074219 M 172.269531 144.628906 L 171.679688 145.8125 C 172.207031 147.359375 172.207031 147.359375 172.863281 148.773438 L 174.636719 147 L 174.046875 145.222656 Z M 123.734375 147 L 124.328125 149.367188 L 125.511719 149.367188 L 125.511719 147 Z M 127.992188 148.996094 L 127.289062 149.960938 L 127.289062 151.144531 L 129.46875 151.550781 C 130.800781 151.882812 130.800781 151.882812 132.023438 152.328125 L 134.980469 155.289062 C 136.800781 156.222656 138.644531 157.066406 140.519531 157.882812 L 142.085938 158.84375 C 142.890625 160.4375 142.890625 160.4375 143.269531 161.804688 L 145.007812 161.621094 C 147.0625 161.613281 148.394531 162.183594 150.1875 163.175781 C 151.523438 163.96875 152.734375 164.761719 153.933594 165.753906 L 155.105469 166.542969 L 157.472656 166.542969 C 157.390625 165.460938 157.390625 165.460938 156.882812 164.175781 C 155.230469 162.300781 153.777344 161.101562 151.554688 160.027344 L 150.371094 158.25 C 149.390625 157.640625 149.390625 157.640625 148.242188 157.167969 L 146.957031 156.589844 L 145.597656 155.992188 C 141.808594 154.273438 138.355469 152.421875 134.980469 149.960938 C 133.355469 148.847656 132.410156 148.238281 130.46875 147.960938 C 129.03125 148.074219 129.03125 148.074219 127.992188 148.996094 M 120.183594 149.367188 L 119.59375 151.738281 L 123.734375 152.328125 C 123.3125 151.132812 123.3125 151.132812 122.550781 149.960938 C 121.339844 149.484375 121.339844 149.484375 120.183594 149.367188 M 110.714844 149.960938 L 108.9375 152.328125 L 109.53125 153.511719 L 110.714844 152.921875 C 111.699219 152.710938 112.683594 152.511719 113.675781 152.328125 L 114.265625 150.550781 Z M 95.917969 150.550781 L 95.917969 152.328125 L 97.695312 152.328125 L 97.695312 150.550781 Z M 101.246094 150.550781 L 101.835938 152.921875 L 103.613281 152.921875 L 103.019531 150.550781 Z M 114.265625 152.921875 L 113.082031 154.105469 C 112.984375 155.636719 112.984375 155.636719 113.082031 157.066406 C 114.367188 156.765625 115.449219 156.476562 116.632812 155.882812 L 117.226562 157.660156 L 121.367188 157.066406 L 120.777344 155.289062 C 119.738281 154.558594 119.738281 154.558594 118.484375 153.996094 L 117.230469 153.378906 C 115.976562 152.816406 115.976562 152.816406 114.265625 152.921875 M 124.808594 156.734375 L 122.550781 157.066406 C 123.507812 158.585938 123.507812 158.585938 124.917969 160.027344 C 126.75 160.605469 126.75 160.605469 128.472656 160.621094 L 129.0625 160.027344 C 129.085938 159.042969 129.089844 158.054688 129.0625 157.066406 C 127.289062 156.476562 126.59375 156.46875 124.808594 156.734375 M 124.328125 161.214844 L 124.917969 164.765625 L 126.105469 164.175781 L 125.511719 161.214844 Z M 130.246094 161.214844 L 130.246094 162.988281 L 132.613281 163.582031 C 132.949219 164.953125 132.949219 164.953125 133.207031 166.542969 L 132.613281 168.320312 L 134.390625 168.320312 C 135.792969 167.058594 135.792969 167.058594 136.757812 165.359375 C 136.910156 163.757812 136.910156 163.757812 136.164062 162.398438 C 134.558594 161.457031 133.398438 161.222656 131.542969 161.140625 Z M 137.941406 165.953125 L 137.941406 167.726562 L 139.125 167.726562 L 138.53125 165.953125 Z M 142.675781 165.953125 C 141.664062 166.667969 141.664062 166.667969 140.902344 167.726562 C 141.035156 169.007812 141.035156 169.007812 141.492188 170.097656 L 143.269531 170.097656 L 143.269531 165.953125 Z M 168.71875 165.953125 L 169.3125 167.726562 Z M 160.433594 167.136719 L 160.433594 168.914062 C 161.53125 169.878906 161.53125 169.878906 162.949219 170.726562 L 164.363281 171.636719 C 165.605469 172.375 166.800781 173.078125 168.128906 173.652344 L 169.902344 173.652344 C 169.039062 171.558594 167.933594 170.453125 166.167969 169.0625 L 164.804688 167.960938 C 163.425781 167.015625 163.425781 167.015625 161.738281 167.015625 Z M 157.472656 171.28125 L 157.472656 172.464844 C 158.394531 173.277344 159.347656 174.054688 160.320312 174.800781 C 162.367188 176.378906 164.242188 177.925781 165.945312 179.871094 C 167.359375 181.128906 168.738281 181.832031 170.496094 182.535156 C 172.144531 182.414062 172.144531 182.414062 173.453125 181.941406 C 173.332031 180.8125 173.332031 180.8125 172.863281 179.574219 C 171.46875 178.179688 169.878906 177.515625 168.089844 176.761719 C 165.179688 175.523438 162.632812 173.863281 160.007812 172.105469 L 158.65625 171.28125 Z M 134.390625 171.875 L 134.390625 174.242188 L 135.574219 171.875 Z M 153.328125 177.203125 C 152.800781 178.714844 152.800781 178.714844 152.738281 180.167969 L 153.921875 180.757812 L 154.515625 178.390625 L 155.359375 179.039062 L 156.476562 179.871094 L 157.578125 180.703125 L 158.65625 181.351562 L 160.433594 181.351562 L 160.433594 178.980469 L 158.988281 178.5 L 157.472656 177.796875 L 156.882812 176.019531 C 155.511719 176.019531 154.515625 176.582031 153.328125 177.203125 M 176.414062 181.351562 C 175.753906 183.039062 175.753906 183.039062 175.230469 184.90625 L 175.820312 186.679688 L 177.226562 186.792969 L 178.78125 187.273438 C 179.519531 188.753906 179.519531 188.753906 179.964844 190.234375 L 180.554688 190.828125 C 181.765625 190.835938 181.765625 190.835938 183.144531 190.679688 L 184.566406 190.558594 C 185.9375 190.328125 185.9375 190.328125 186.941406 189.320312 L 187.660156 188.457031 C 186.253906 186.902344 184.71875 185.964844 182.925781 184.90625 L 181.738281 183.71875 L 180.554688 184.3125 L 180.148438 183.164062 L 179.371094 181.941406 C 177.859375 181.460938 177.859375 181.460938 176.414062 181.351562 M 188.84375 189.050781 L 188.066406 189.902344 L 187.066406 190.828125 C 185.179688 191.234375 185.179688 191.234375 183.515625 191.417969 L 182.925781 193.789062 C 183.898438 194.402344 184.882812 194.996094 185.882812 195.566406 L 187.066406 195.566406 L 187.585938 197.304688 L 188.25 199.121094 L 189.433594 199.710938 C 190.632812 198.972656 190.632812 198.972656 191.800781 197.933594 C 192.6875 195.871094 192.550781 193.628906 192.394531 191.417969 C 191.710938 189.960938 191.710938 189.960938 190.617188 189.050781 Z M 171.085938 199.710938 C 171.296875 200.855469 171.296875 200.855469 171.679688 202.082031 L 172.863281 203.265625 L 172.269531 205.042969 L 173.453125 205.042969 L 173.453125 206.226562 L 175.230469 206.226562 C 175.371094 204.183594 175.3125 202.863281 174.488281 200.96875 L 173.453125 199.710938 Z M 175.820312 207.410156 L 175.820312 208.597656 L 177.003906 208.597656 L 177.003906 207.410156 Z M 185.882812 207.410156 L 186.476562 208.597656 Z M 181.738281 208.597656 L 182.332031 210.964844 L 182.925781 209.1875 Z M 185.292969 209.78125 L 185.882812 210.964844 Z M 152.144531 213.335938 L 151.554688 216.296875 C 152.46875 215.480469 152.46875 215.480469 153.328125 214.519531 L 153.328125 213.335938 Z M 189.433594 213.335938 L 189.433594 214.519531 L 190.617188 214.519531 L 190.617188 213.335938 Z M 174.046875 215.703125 L 174.636719 217.480469 L 175.230469 215.703125 Z M 194.167969 216.296875 C 193.746094 217.613281 193.746094 217.613281 193.578125 219.257812 C 194.085938 221.175781 194.085938 221.175781 194.761719 222.8125 C 197.207031 222.476562 197.207031 222.476562 199.496094 221.625 L 199.496094 216.296875 Z M 187.660156 222.8125 L 187.660156 225.179688 L 190.027344 225.179688 L 190.027344 222.8125 Z M 194.761719 226.363281 L 194.761719 229.917969 C 195.914062 230.269531 195.914062 230.269531 197.128906 230.511719 L 197.722656 229.917969 C 197.746094 228.734375 197.746094 227.550781 197.722656 226.363281 Z M 187.660156 229.917969 C 186.5625 230.921875 186.5625 230.921875 185.882812 232.289062 C 186.011719 233.59375 186.011719 233.59375 186.476562 234.65625 L 190.617188 234.65625 C 190.28125 232.210938 190.28125 232.210938 189.433594 229.917969 Z M 200.089844 234.0625 L 199.496094 235.839844 L 201.273438 235.839844 L 201.273438 234.0625 Z M 200.089844 234.0625 " fill-opacity="1" fill-rule="nonzero"/><path fill="#efc1d6" d="M 204.230469 92.507812 L 205.144531 92.984375 C 208.140625 94.523438 210.921875 95.929688 214.332031 96.210938 C 216.0625 96.148438 216.0625 96.148438 217.546875 95.46875 C 219.304688 94.765625 220.707031 94.789062 222.578125 94.875 L 222.800781 96.023438 L 223.171875 97.246094 C 224.71875 98.019531 225.917969 97.859375 227.648438 97.875 C 229.804688 98.035156 231.136719 98.222656 232.964844 99.398438 C 234.296875 100.605469 235.539062 101.871094 236.785156 103.167969 C 237.554688 103.808594 238.332031 104.4375 239.117188 105.058594 C 240.464844 106.1875 240.886719 106.617188 241.519531 108.316406 L 242.113281 109.683594 L 244.109375 110.5 C 246.253906 111.460938 246.253906 111.460938 246.96875 112.40625 C 247.53125 113.46875 248.082031 114.535156 248.621094 115.605469 L 249.761719 116.695312 C 251.222656 118.21875 251.910156 119.675781 252.765625 121.605469 L 253.683594 123.667969 C 254.605469 125.820312 255.492188 127.984375 256.34375 130.167969 C 256.789062 131.300781 257.285156 132.410156 257.800781 133.511719 C 258.851562 135.953125 259.273438 138.421875 259.683594 141.039062 L 259.914062 142.4375 C 260.101562 143.5625 260.28125 144.6875 260.460938 145.8125 L 262.234375 146.40625 L 261.941406 147.515625 C 261.304688 151.488281 261.480469 154.992188 262.53125 158.882812 C 263.34375 161.914062 263.847656 164.597656 263.417969 167.726562 C 263.007812 169.261719 262.53125 170.761719 262.03125 172.269531 C 261.546875 173.738281 261.546875 173.738281 261.679688 175.6875 C 261.625 178.847656 260.671875 181.492188 259.277344 184.3125 C 258.300781 185.644531 257.277344 186.828125 256.128906 188.011719 C 254.230469 189.988281 253.152344 191.832031 252.171875 194.382812 L 250.988281 196.15625 C 250.777344 196.941406 250.59375 197.730469 250.433594 198.527344 C 250.253906 199.324219 250.042969 200.113281 249.804688 200.894531 C 249.226562 201.5 248.632812 202.09375 248.03125 202.671875 L 247.476562 204.746094 L 246.847656 206.820312 C 245.625 207.855469 245.625 207.855469 244.480469 208.597656 L 243.886719 210.371094 L 247.4375 209.78125 C 246.808594 211.730469 246.1875 212.8125 244.773438 214.335938 C 243.796875 215.449219 243.324219 216.183594 242.945312 217.628906 C 242.78125 218.628906 242.621094 219.628906 242.46875 220.632812 C 241.855469 223.355469 240.503906 225.71875 239.152344 228.140625 L 237.96875 228.140625 L 237.96875 224.585938 L 236.785156 225.179688 L 236.695312 227.429688 L 236.5625 230.363281 C 236.546875 230.851562 236.527344 231.339844 236.507812 231.84375 L 236.4375 233.277344 L 236.382812 234.59375 C 236.171875 235.988281 235.699219 236.988281 235.007812 238.210938 L 233.234375 237.617188 C 231.675781 234.1875 232.113281 231 232.46875 227.3125 L 232.640625 225.773438 L 231.820312 226.527344 L 230.71875 227.511719 L 229.636719 228.492188 C 228.449219 229.363281 227.570312 229.667969 226.132812 229.917969 L 226.132812 231.695312 L 227.316406 232.289062 C 226.90625 234.261719 226.175781 235.925781 225.28125 237.730469 L 224.503906 239.308594 L 223.761719 240.578125 C 221.492188 241.71875 218.40625 241.386719 215.890625 241.480469 C 213.667969 241.769531 212.566406 242.300781 210.742188 243.542969 L 209.558594 243.542969 C 208.960938 241.746094 208.949219 240.863281 209.152344 239.023438 L 209.292969 237.59375 L 209.558594 236.433594 L 210.742188 235.839844 L 211.925781 237.359375 L 213.703125 238.804688 C 215.390625 238.984375 216.824219 238.726562 218.4375 238.210938 C 219.609375 237.582031 219.609375 237.582031 220.210938 236.433594 C 221.890625 232.492188 221.8125 228.230469 222.0625 224.011719 C 222.320312 220.300781 222.675781 216.710938 224.355469 213.335938 C 224.945312 212.738281 225.535156 212.144531 226.132812 211.558594 L 226.722656 209.78125 L 223.761719 208.597656 L 223.171875 202.671875 L 227.316406 201.488281 L 227.421875 200.40625 L 227.574219 198.972656 L 227.71875 197.554688 C 227.890625 196.261719 228.15625 195.046875 228.5 193.789062 L 227.316406 193.195312 L 226.835938 194.527344 C 226.160156 196.09375 225.484375 197.257812 224.355469 198.527344 L 223.171875 198.527344 C 222.800781 196.566406 222.800781 196.566406 222.578125 194.382812 L 223.761719 192.605469 C 223.886719 190.671875 223.886719 190.671875 223.800781 188.53125 C 223.738281 186.027344 223.757812 183.789062 224.355469 181.351562 C 225.429688 181.460938 225.429688 181.460938 226.722656 181.941406 C 227.796875 183.128906 227.796875 183.128906 228.5 184.90625 C 228.46875 186.714844 228.226562 188.457031 227.90625 190.234375 L 229.089844 190.234375 C 229.289062 189.125 229.488281 188.015625 229.683594 186.902344 L 230.015625 185.03125 C 230.269531 183.167969 230.402344 181.449219 230.273438 179.574219 C 229.125 178.5625 229.125 178.5625 227.90625 177.796875 L 227.90625 176.019531 L 230.867188 175.429688 C 231.0625 173.726562 231.0625 173.726562 230.867188 171.875 C 229.71875 170.863281 229.71875 170.863281 228.5 170.097656 L 228.5 168.320312 L 230.867188 167.726562 L 230.273438 166.542969 C 229.082031 165.871094 229.082031 165.871094 227.90625 165.359375 L 228.238281 163.210938 C 228.464844 161.507812 228.464844 160.457031 228.128906 158.734375 L 227.90625 157.066406 L 228.765625 155.824219 C 230.054688 153.402344 229.945312 151.332031 229.902344 148.625 L 229.894531 147 C 229.800781 141.945312 229.226562 136.96875 228.539062 131.964844 C 228.058594 128.453125 227.785156 125.074219 227.90625 121.53125 L 227.953125 119.644531 L 228.054688 118.050781 L 228.136719 116.425781 L 228.5 115.015625 C 229.59375 113.9375 229.59375 113.9375 230.867188 113.238281 C 232.714844 113.238281 232.714844 113.238281 234.417969 113.828125 C 235.121094 115.3125 235.121094 115.3125 235.601562 116.792969 L 237.375 117.382812 C 237.015625 119.835938 236.320312 121.789062 235.007812 123.898438 L 233.492188 124.492188 L 232.050781 125.082031 C 231.238281 126.878906 231.238281 126.878906 230.867188 128.636719 L 233.234375 126.859375 C 234.378906 127.285156 234.378906 127.285156 235.601562 128.042969 C 236.050781 129.410156 236.191406 130.710938 236.378906 132.136719 L 236.785156 133.375 C 237.953125 134.050781 237.953125 134.050781 239.152344 134.558594 C 239.632812 136.078125 239.632812 136.078125 239.746094 137.523438 L 239.152344 138.113281 C 237.582031 138.382812 236.003906 138.53125 234.417969 138.707031 C 233.746094 140.675781 233.148438 142.609375 232.640625 144.628906 L 238.558594 145.222656 L 237.375 141.667969 C 238.859375 140.777344 240.34375 139.886719 241.851562 139.039062 C 243.351562 138.078125 244.425781 137.019531 245.664062 135.746094 L 247.214844 134.707031 C 248.632812 133.539062 248.632812 133.539062 249.074219 132.316406 C 249.40625 131.09375 249.628906 129.894531 249.804688 128.636719 L 250.101562 126.675781 C 249.644531 123.304688 248.128906 120.777344 246.253906 117.976562 C 244.59375 115.875 242.816406 113.949219 240.929688 112.054688 L 239.660156 110.71875 C 238.542969 109.628906 237.542969 108.691406 236.191406 107.90625 C 234.257812 108.140625 234.257812 108.140625 232.640625 109.089844 L 230.273438 109.089844 L 229.683594 104.945312 L 226.132812 105.539062 L 223.761719 101.984375 L 220.210938 102.578125 L 219.621094 106.128906 L 217.253906 105.539062 C 217.585938 103.195312 218.324219 101.589844 219.621094 99.613281 L 217.621094 99.761719 C 215.421875 99.785156 213.949219 99.285156 211.964844 98.355469 C 210.355469 97.65625 209.265625 97.238281 207.511719 97.289062 C 204.960938 97.820312 202.792969 98.652344 200.679688 100.207031 L 199.792969 101.167969 C 198.90625 101.984375 198.90625 101.984375 197.574219 102.503906 C 195.265625 102.605469 193.867188 101.8125 191.800781 100.800781 L 191.800781 98.429688 C 192.835938 98.058594 192.835938 98.058594 194.167969 97.839844 C 195.5 98.394531 195.5 98.394531 196.535156 99.023438 L 197.792969 97.246094 C 198.601562 96.261719 198.601562 96.261719 199.496094 95.46875 C 201.457031 95.246094 201.457031 95.246094 203.046875 95.46875 Z M 226.132812 100.207031 L 225.539062 102.578125 L 227.90625 103.761719 L 227.316406 100.207031 Z M 231.457031 118.566406 L 232.050781 120.34375 L 232.050781 118.566406 Z M 252.171875 133.375 C 252.054688 137.140625 252.394531 140.394531 253.355469 144.035156 L 255.726562 144.035156 C 255.75 143.050781 255.75 142.0625 255.726562 141.074219 L 255.132812 140.484375 C 255.011719 139.511719 254.914062 138.535156 254.835938 137.558594 C 254.6875 135.386719 254.6875 135.386719 253.949219 133.375 Z M 243.886719 141.667969 L 242.703125 145.8125 L 245.664062 145.222656 L 245.664062 142.261719 Z M 232.640625 148.183594 C 232.761719 149.3125 232.761719 149.3125 233.234375 150.550781 C 234.304688 151.625 234.304688 151.625 235.601562 152.328125 L 237.375 152.328125 C 236.761719 150.84375 236.230469 149.992188 235.007812 148.921875 L 233.824219 148.183594 Z M 252.765625 148.183594 L 252.699219 149.230469 C 252.308594 154.105469 251.472656 158.902344 249.398438 163.359375 C 248.492188 165.691406 248.554688 167.433594 248.632812 169.894531 C 248.617188 171.722656 248.078125 173.132812 247.4375 174.835938 C 246.433594 178.773438 246.078125 182.640625 245.925781 186.691406 C 245.628906 188.679688 244.941406 189.730469 243.886719 191.417969 C 243.511719 192.65625 243.179688 193.902344 242.890625 195.160156 L 242.4375 197.078125 L 242.113281 198.527344 C 243.265625 198.046875 243.265625 198.046875 244.480469 197.34375 C 245.625 195.621094 245.925781 194.679688 246.367188 192.714844 C 247.644531 187.832031 249.761719 182.871094 253.074219 179.027344 L 254.542969 177.796875 C 256.503906 177.910156 256.503906 177.910156 258.09375 178.390625 L 259.277344 176.613281 C 259.402344 174.410156 259.273438 172.457031 258.90625 170.28125 L 258.683594 168.320312 C 259.070312 167.527344 259.464844 166.734375 259.867188 165.953125 C 260.015625 163.632812 259.988281 161.769531 259.5 159.511719 L 258.683594 158.25 C 256.890625 157.4375 256.890625 157.4375 255.132812 157.066406 C 255.355469 155.917969 255.355469 155.917969 255.726562 154.699219 L 256.910156 154.105469 L 256.910156 155.882812 L 259.867188 155.289062 C 259.785156 154.207031 259.785156 154.207031 259.277344 152.921875 C 257.957031 151.253906 257.957031 151.253906 256.316406 149.960938 L 253.949219 149.960938 L 253.355469 148.183594 Z M 245.070312 149.367188 C 244.785156 150.304688 244.503906 151.242188 244.21875 152.179688 L 243.742188 153.761719 C 243.363281 155.054688 243.019531 156.351562 242.703125 157.660156 L 244.480469 157.660156 C 245.882812 156.847656 245.882812 156.847656 246.847656 155.289062 C 247.046875 153.496094 246.984375 151.757812 246.847656 149.960938 Z M 237.375 152.921875 L 236.894531 154.070312 L 236.191406 155.289062 L 234.417969 155.882812 C 233.796875 156.851562 233.203125 157.839844 232.640625 158.84375 L 231.457031 160.027344 C 231.421875 161.304688 231.421875 161.304688 231.644531 162.695312 L 231.820312 164.117188 C 231.996094 165.386719 231.996094 165.386719 232.640625 166.542969 L 233.824219 166.542969 C 235.128906 164.289062 235.128906 164.289062 235.601562 161.804688 L 236.785156 161.804688 L 237.375 165.953125 L 238.558594 165.953125 C 238.683594 162.453125 238.683594 162.453125 238.117188 159.027344 L 237.96875 157.660156 C 239.117188 155.699219 239.117188 155.699219 240.335938 154.105469 L 238.558594 152.921875 Z M 230.273438 156.476562 L 230.273438 158.84375 L 231.457031 158.84375 L 231.457031 156.476562 Z M 243.296875 158.84375 L 242.113281 162.398438 L 244.480469 160.027344 Z M 230.867188 162.988281 L 231.457031 164.175781 Z M 240.335938 164.175781 C 239.535156 165.777344 239.707031 167.140625 239.746094 168.914062 L 241.519531 168.320312 L 242.113281 164.765625 Z M 237.375 168.914062 L 237.96875 170.097656 Z M 238.558594 171.875 L 238.558594 174.835938 L 240.929688 173.652344 C 240.347656 173.046875 239.757812 172.453125 239.152344 171.875 Z M 240.929688 174.835938 L 240.335938 177.203125 L 243.296875 178.980469 C 242.960938 177.582031 242.566406 176.199219 242.113281 174.835938 Z M 232.640625 177.796875 L 232.640625 179.574219 L 236.191406 179.574219 L 237.375 181.941406 L 237.96875 181.351562 C 237.992188 180.167969 237.992188 178.980469 237.96875 177.796875 C 235.96875 177.296875 234.609375 177.140625 232.640625 177.796875 M 240.929688 180.167969 L 240.335938 180.757812 C 240.160156 181.65625 240 182.558594 239.855469 183.460938 C 239.457031 185.613281 238.917969 187.320312 237.859375 189.234375 C 237.21875 190.347656 237.21875 190.347656 236.785156 191.417969 C 237.011719 193.007812 237.011719 193.007812 237.375 194.382812 C 236.5625 195.601562 236.5625 195.601562 235.601562 196.75 C 235.398438 197.539062 235.199219 198.328125 235.007812 199.121094 L 233.824219 199.710938 L 233.824219 202.082031 L 235.007812 202.082031 C 234.527344 204.101562 233.996094 206.070312 233.234375 208.003906 C 232.273438 209.015625 231.285156 210.003906 230.273438 210.964844 L 230.238281 212.261719 C 230.808594 213.433594 230.808594 213.433594 232.085938 214.074219 L 233.234375 214.519531 C 234.539062 213.03125 235.042969 212.023438 235.5625 210.078125 L 236.191406 208.003906 L 237.375 206.929688 C 238.644531 205.738281 238.644531 205.738281 238.957031 204.238281 C 239.15625 203.195312 239.339844 202.148438 239.511719 201.097656 C 239.746094 199.710938 239.746094 199.710938 240.335938 197.933594 L 240.003906 196.453125 L 239.746094 194.972656 L 240.929688 193.195312 C 241.335938 192.015625 241.730469 190.832031 242.113281 189.644531 L 242.703125 188.457031 C 242.679688 187.160156 242.617188 185.867188 242.519531 184.570312 C 242.472656 183.875 242.425781 183.175781 242.378906 182.460938 L 242.113281 180.757812 Z M 255.132812 181.351562 L 255.132812 183.128906 L 256.316406 183.128906 L 256.316406 181.351562 Z M 235.007812 183.128906 L 235.007812 186.089844 L 236.785156 186.089844 L 236.785156 183.128906 Z M 235.601562 186.679688 L 235.007812 189.644531 L 237.375 187.273438 Z M 231.457031 189.644531 L 232.050781 192.011719 L 233.234375 192.011719 L 233.824219 190.234375 Z M 233.824219 192.605469 C 232.574219 193.132812 232.574219 193.132812 231.457031 193.789062 L 232.050781 196.15625 L 233.824219 196.15625 L 235.007812 193.195312 Z M 231.457031 197.933594 L 232.050781 199.710938 L 232.050781 197.933594 Z M 227.316406 202.671875 L 226.132812 205.632812 L 227.90625 205.632812 L 227.90625 202.671875 Z M 230.273438 214.519531 L 230.050781 216.445312 C 229.742188 218.296875 229.445312 219.457031 228.5 221.035156 L 232.640625 221.035156 L 233.824219 218.664062 L 235.007812 218.664062 L 235.007812 215.703125 C 232.695312 214.832031 232.695312 214.832031 230.273438 214.519531 M 235.601562 218.664062 L 235.007812 221.035156 C 236.292969 220.734375 237.375 220.441406 238.558594 219.847656 L 238.558594 218.664062 Z M 235.601562 218.664062 " fill-opacity="1" fill-rule="nonzero"/><path fill="#efc1d6" d="M 199.496094 104.351562 L 201.273438 104.945312 C 201.941406 106.367188 201.941406 106.367188 202.53125 108.128906 L 203.125 109.882812 L 203.640625 111.460938 L 204.230469 113.238281 L 203.640625 114.421875 C 203.597656 116.027344 203.585938 117.628906 203.601562 119.234375 L 203.609375 120.589844 C 203.617188 121.691406 203.628906 122.796875 203.640625 123.898438 L 206.007812 123.898438 C 206.058594 123.117188 206.058594 123.117188 206.117188 122.320312 L 206.265625 120.234375 L 206.410156 118.171875 C 206.597656 116.199219 206.597656 116.199219 206.988281 114.539062 L 207.191406 113.238281 L 206.007812 112.054688 C 206.15625 110.574219 206.15625 110.574219 206.597656 109.089844 L 207.78125 107.90625 L 210.148438 107.90625 L 210.128906 108.925781 C 210.097656 111.820312 210.257812 114.53125 210.742188 117.382812 L 209.558594 117.382812 L 210.207031 118.773438 C 211.839844 122.441406 212.90625 125.203125 212.519531 129.230469 L 214.515625 129.15625 L 216.660156 129.230469 L 217.84375 130.414062 L 217.84375 132.191406 L 216.660156 132.191406 L 216.660156 131.007812 L 215.328125 132.375 C 213.703125 133.96875 213.703125 133.96875 212.445312 134.78125 C 211.160156 135.777344 211.160156 135.777344 210.261719 137.78125 C 209.484375 139.738281 209.484375 139.738281 209.558594 141.261719 L 210.148438 142.261719 L 211.554688 142.816406 C 212.070312 143.023438 212.582031 143.230469 213.109375 143.445312 C 214.09375 144.738281 214.09375 144.738281 214.886719 146.40625 C 214.996094 148.1875 214.996094 148.1875 214.886719 150.035156 C 214.738281 151.851562 214.738281 151.851562 214.886719 153.511719 C 216.027344 155.019531 217.316406 155.707031 219.027344 156.476562 L 218.140625 157.769531 C 217.144531 159.367188 217.144531 159.367188 217.140625 161.101562 L 217.253906 162.398438 C 215.800781 162.789062 214.589844 163 213.074219 163.0625 L 211.335938 163.582031 C 210.460938 164.933594 210.066406 166.179688 209.558594 167.726562 L 210.925781 167.320312 L 212.519531 167.136719 C 213.554688 167.765625 213.554688 167.765625 214.292969 168.914062 C 214.699219 170.800781 214.699219 170.800781 214.886719 172.464844 L 219.027344 170.097656 L 219.621094 171.875 C 218.878906 173.792969 217.828125 175.515625 216.660156 177.203125 L 214.996094 178.5 L 213.703125 179.574219 C 213.679688 180.757812 213.675781 181.941406 213.703125 183.128906 C 212.703125 184.238281 212.703125 184.238281 211.335938 184.90625 C 209.707031 185.015625 209.707031 185.015625 208.375 184.90625 L 208.964844 186.679688 C 210.617188 186.878906 210.617188 186.878906 212.519531 186.679688 C 214.242188 185.90625 214.242188 185.90625 215.476562 184.3125 C 215.882812 182.914062 216.140625 181.5625 216.332031 180.121094 L 216.660156 178.980469 L 218.4375 178.390625 C 218.8125 180.855469 218.933594 183.042969 218.4375 185.496094 C 217.035156 187.214844 215.574219 188.457031 213.8125 189.796875 L 212.519531 190.828125 L 212.519531 192.011719 L 216.660156 192.605469 L 217.253906 189.050781 L 219.027344 189.050781 C 219.472656 190.496094 219.472656 190.496094 219.621094 192.605469 C 219.023438 194.484375 218.261719 196.242188 217.253906 197.933594 L 216.070312 198.527344 L 215.476562 195.566406 L 214.914062 196.667969 L 214.144531 198.121094 L 213.394531 199.554688 C 212.46875 200.972656 211.554688 201.746094 210.148438 202.671875 L 210.683594 203.535156 C 211.617188 205.699219 211.917969 207.90625 212.296875 210.226562 L 212.535156 211.648438 C 212.730469 212.800781 212.921875 213.957031 213.109375 215.109375 L 215.476562 215.703125 L 214.609375 211.65625 C 214.339844 210.355469 214.339844 210.355469 213.703125 209.1875 C 213.679688 207.804688 213.675781 206.425781 213.703125 205.042969 L 216.070312 203.859375 C 218.226562 206.808594 219.5 209.476562 220.085938 213.101562 C 220.261719 215.078125 220.121094 216.746094 219.621094 218.664062 C 218.695312 220.109375 218.695312 220.109375 217.84375 221.035156 C 215.78125 220.652344 214.277344 219.789062 212.519531 218.664062 C 211.957031 220.292969 211.957031 220.292969 211.925781 222.21875 C 213.296875 223.933594 213.296875 223.933594 214.886719 225.179688 L 213.109375 228.140625 C 212.074219 228.105469 212.074219 228.105469 210.742188 227.550781 C 208.761719 224.71875 208.246094 222.691406 207.78125 219.257812 L 206.847656 218.398438 L 206.007812 217.480469 C 206.113281 216.347656 206.113281 216.347656 206.523438 215.074219 C 207.421875 211.703125 207.203125 208.476562 206.300781 205.113281 C 206.003906 203.847656 205.894531 202.691406 205.839844 201.398438 L 205.773438 200.003906 L 205.710938 198.5625 C 205.589844 195.097656 205.589844 195.097656 205.097656 191.671875 C 204.636719 189.253906 204.820312 186.796875 204.898438 184.347656 C 204.933594 182.246094 204.8125 180.472656 204.191406 178.457031 L 203.640625 176.613281 L 204.230469 175.429688 L 205.414062 175.429688 L 206.007812 178.390625 L 210.742188 178.980469 L 211.925781 174.242188 L 210.148438 174.242188 L 209.632812 175.390625 L 208.964844 176.613281 L 207.78125 177.203125 L 207.191406 173.652344 L 208.375 172.835938 L 209.558594 171.875 L 209.558594 170.691406 L 208.449219 170.320312 L 207.191406 169.503906 C 206.449219 167.652344 206.449219 167.652344 206.007812 165.953125 L 203.046875 165.359375 C 202.199219 162.90625 201.835938 161.507812 202.085938 158.882812 L 202.457031 157.066406 L 204.230469 157.660156 C 205.230469 158.882812 205.230469 158.882812 206.007812 160.027344 L 206.597656 155.289062 L 208.964844 155.289062 L 209.449219 157.328125 L 210.148438 159.4375 L 211.925781 160.027344 C 211.851562 158.222656 211.707031 156.46875 211.335938 154.699219 C 210.433594 153.457031 210.433594 153.457031 208.964844 152.921875 C 207.597656 152.484375 206.214844 152.089844 204.824219 151.738281 L 205.082031 149.960938 C 205.421875 147.59375 205.714844 145.222656 206.007812 142.851562 L 203.046875 142.851562 C 202.042969 146.007812 201.554688 149.03125 201.273438 152.328125 L 200.464844 151.464844 C 199.542969 150.464844 199.542969 150.464844 198.203125 150.144531 L 197.128906 149.960938 L 196.648438 151.402344 L 195.945312 152.921875 L 194.167969 153.511719 C 194.496094 151.125 194.855469 148.761719 195.351562 146.40625 L 192.394531 145.222656 L 192.640625 143.285156 C 192.894531 141.238281 193.136719 139.191406 193.371094 137.144531 L 193.800781 133.5625 L 194.003906 131.730469 C 194.300781 129.316406 194.597656 127.242188 195.5625 124.996094 C 196.535156 123.898438 196.535156 123.898438 197.832031 123.417969 L 198.90625 123.304688 C 198.847656 122.8125 198.792969 122.320312 198.734375 121.8125 C 198.667969 121.171875 198.601562 120.527344 198.535156 119.863281 L 198.328125 117.925781 L 198.3125 116.199219 L 199.496094 114.421875 C 199.320312 113.234375 199.121094 112.050781 198.90625 110.867188 C 198.820312 108.894531 198.777344 106.917969 198.90625 104.945312 Z M 208.375 122.121094 L 207.78125 122.714844 C 207.757812 123.703125 207.757812 124.6875 207.78125 125.675781 L 208.964844 126.269531 L 209.558594 122.121094 Z M 198.3125 126.269531 L 198.3125 128.636719 C 199.152344 129.675781 199.152344 129.675781 200.089844 130.414062 L 199.496094 131.597656 L 204.824219 133.96875 L 204.824219 138.707031 C 206.265625 138.546875 206.265625 138.546875 207.78125 138.113281 L 208.964844 136.335938 C 208.949219 135.171875 208.949219 135.171875 208.375 133.96875 C 207.296875 132.496094 206.113281 131.113281 204.824219 129.820312 L 206.597656 129.230469 L 206.007812 127.453125 L 203.046875 126.859375 L 203.046875 129.230469 L 201.863281 129.230469 L 201.421875 128.082031 L 200.679688 126.859375 C 199.46875 126.382812 199.46875 126.382812 198.3125 126.269531 M 198.90625 132.785156 L 198.90625 134.558594 L 200.089844 134.558594 L 199.496094 132.785156 Z M 198.90625 137.523438 C 197.953125 138.929688 197.953125 138.929688 197.128906 140.484375 L 197.128906 141.667969 L 198.90625 141.667969 L 199.496094 137.523438 Z M 209.558594 148.773438 L 207.78125 149.960938 L 207.78125 151.144531 C 208.957031 150.984375 208.957031 150.984375 210.148438 150.550781 L 210.742188 148.773438 Z M 213.703125 156.476562 L 213.703125 158.25 L 214.886719 158.25 L 214.886719 156.476562 Z M 213.703125 175.429688 L 213.703125 177.203125 L 214.886719 177.203125 L 214.886719 175.429688 Z M 210.148438 193.195312 L 210.148438 197.933594 L 211.925781 197.933594 C 212.667969 196.214844 213.109375 195.09375 213.109375 193.195312 Z M 216.070312 210.964844 L 216.660156 212.742188 Z M 78.753906 141.667969 C 81.546875 142.582031 84.328125 143.492188 87.039062 144.628906 L 86.78125 145.628906 L 86.449219 147 L 85.929688 148.441406 L 85.855469 149.960938 C 87.136719 151.636719 87.136719 151.636719 88.816406 152.921875 L 90.589844 153.511719 L 90.589844 156.476562 L 86.449219 157.066406 L 86.449219 155.289062 L 83.488281 154.699219 L 82.898438 150.550781 L 81.710938 151.144531 C 80.804688 151.277344 79.890625 151.386719 78.976562 151.476562 L 77.507812 151.628906 L 76.386719 151.738281 C 76.746094 153.84375 77.320312 155.695312 78.160156 157.660156 L 76.976562 158.25 C 75.382812 158.152344 73.828125 157.890625 72.242188 157.660156 L 75.203125 162.398438 L 72.835938 162.398438 C 72.734375 163.804688 72.734375 163.804688 72.835938 165.359375 L 74.019531 167.136719 C 73.796875 168.433594 73.796875 168.433594 73.425781 169.503906 L 71.058594 169.503906 C 71.027344 171.21875 71.003906 172.933594 70.984375 174.652344 L 70.957031 176.117188 C 70.933594 178.726562 71.015625 180.75 72.242188 183.128906 L 71.058594 183.128906 C 71.597656 183.980469 72.140625 184.832031 72.6875 185.683594 L 73.601562 187.117188 C 74.546875 188.507812 74.546875 188.507812 75.90625 189.421875 L 76.976562 190.234375 C 77.125 191.828125 77.125 191.828125 76.976562 193.195312 L 79.9375 193.195312 C 79.9375 195.449219 79.695312 197.488281 79.34375 199.710938 L 79.199219 201.304688 C 78.753906 202.671875 78.753906 202.671875 77.238281 204.042969 L 75.792969 205.042969 C 74.6875 204.617188 74.6875 204.617188 73.425781 203.859375 C 72.71875 202.617188 72.71875 202.617188 72.167969 201.191406 C 71.515625 199.53125 71.152344 198.621094 69.875 197.34375 L 69.652344 196.15625 L 69.285156 194.972656 C 68.101562 194.296875 68.101562 194.296875 66.914062 193.789062 C 67.488281 186.285156 67.488281 186.285156 68.101562 183.128906 L 66.324219 181.941406 C 66.296875 180.757812 66.300781 179.574219 66.324219 178.390625 L 65.140625 176.613281 C 64.921875 174.839844 65.058594 173.066406 65.140625 171.28125 L 65.195312 169.671875 C 65.410156 165.882812 66.125 162.707031 68.101562 159.4375 L 69.46875 158.101562 L 70.46875 157.066406 L 70.136719 155.691406 L 69.875 154.105469 C 71.019531 151.425781 72.761719 149.289062 75.054688 147.515625 C 77.761719 146.785156 80.15625 147.140625 82.898438 147.589844 L 81.710938 145.8125 C 79.609375 145.089844 79.609375 145.089844 77.570312 144.628906 C 77.75 143.835938 77.945312 143.046875 78.160156 142.261719 Z M 72.835938 193.789062 L 71.652344 196.15625 L 72.835938 196.75 L 74.019531 196.15625 L 74.019531 193.789062 Z M 120.445312 222.921875 L 122.550781 223.402344 C 123.699219 224.515625 123.699219 224.515625 124.328125 225.773438 L 124.328125 227.550781 L 125.257812 226.792969 L 126.511719 225.808594 L 127.738281 224.832031 C 129.277344 223.859375 130.203125 223.507812 132.023438 223.402344 C 133.449219 223.835938 134.855469 224.332031 136.238281 224.882812 C 139.140625 225.957031 141.390625 226.566406 144.527344 226.179688 L 146.011719 225.890625 C 147.75 225.742188 148.773438 226.292969 150.371094 226.957031 C 151.554688 226.804688 152.742188 226.65625 153.921875 226.460938 C 155.691406 226.316406 157.054688 226.84375 158.65625 227.550781 L 159.25 228.140625 L 159.988281 226.660156 L 161.023438 225.179688 L 163.390625 225.179688 L 164.574219 226.957031 C 165.867188 227.367188 165.867188 227.367188 167.351562 227.550781 C 170.039062 228.019531 172.222656 228.632812 174.636719 229.917969 L 175.230469 231.695312 L 177.191406 231.289062 L 179.371094 231.101562 C 180.519531 231.878906 180.519531 231.878906 181.148438 232.878906 L 181.148438 234.0625 L 183.515625 235.25 L 183.515625 237.027344 C 181.296875 236.976562 179.078125 236.910156 176.855469 236.839844 L 174.949219 236.800781 L 173.113281 236.738281 L 171.421875 236.691406 C 169.902344 236.433594 169.902344 236.433594 168.601562 235.550781 L 167.535156 234.65625 C 166.1875 234.242188 166.1875 234.242188 164.796875 234.027344 C 163.40625 233.785156 163.40625 233.785156 162.207031 233.472656 L 161.023438 232.289062 C 159.445312 232.144531 159.445312 232.144531 157.695312 232.214844 L 155.894531 232.246094 L 154.515625 232.289062 L 153.921875 229.324219 L 152.515625 230.867188 C 151.527344 231.6875 151.527344 231.6875 150.371094 232.289062 C 148.320312 232.335938 146.460938 231.839844 144.488281 231.324219 C 143.460938 231.082031 142.429688 230.839844 141.402344 230.597656 L 140.035156 230.25 C 136.820312 229.539062 133.644531 229.246094 130.359375 229.140625 L 128.132812 229.0625 L 125.84375 228.992188 L 123.507812 228.914062 C 121.609375 228.851562 119.714844 228.792969 117.816406 228.734375 C 117.1875 227.066406 117.1875 227.066406 116.632812 225.179688 L 117.226562 223.402344 C 118.410156 222.8125 118.410156 222.8125 120.445312 222.921875 M 80.527344 205.632812 L 82.304688 206.226562 L 82.304688 208.003906 L 83.699219 208.410156 L 85.265625 209.1875 C 86.035156 210.578125 86.035156 210.578125 86.632812 212.1875 C 87.300781 213.789062 87.300781 213.789062 88.222656 215.109375 C 89.949219 215.835938 91.046875 215.769531 92.957031 215.703125 L 93.21875 217.074219 L 94.140625 218.664062 C 97.410156 220.4375 101.285156 220.792969 104.917969 221.257812 C 106.761719 221.667969 107.992188 222.3125 109.53125 223.402344 C 110.308594 224.699219 110.308594 224.699219 110.714844 225.773438 L 111.714844 225.144531 C 113.082031 224.585938 113.082031 224.585938 114.710938 224.808594 L 116.042969 225.179688 L 116.632812 227.550781 C 115.117188 228.734375 115.117188 228.734375 113.082031 229.917969 C 111.175781 230.140625 109.632812 230.199219 107.828125 229.46875 C 106.699219 228.871094 105.621094 228.226562 104.539062 227.550781 L 103.394531 226.863281 C 102.476562 226.308594 101.5625 225.75 100.652344 225.179688 L 100.652344 223.996094 C 99.882812 224.011719 99.882812 224.011719 99.097656 224.03125 C 97.101562 223.996094 97.101562 223.996094 95.289062 223.664062 C 93.519531 223.398438 92.304688 223.542969 90.589844 223.996094 L 91.183594 219.847656 L 88.222656 219.257812 L 87.039062 221.035156 L 85.855469 220.554688 C 83.695312 219.699219 81.523438 218.882812 79.34375 218.074219 C 79.417969 216.738281 79.417969 216.738281 79.9375 215.109375 C 81.75 213.742188 81.75 213.742188 83.488281 212.742188 L 82.898438 212.148438 L 81.566406 212.261719 L 79.9375 212.148438 C 78.273438 210.964844 78.273438 210.964844 76.976562 209.78125 C 77.089844 208.375 77.089844 208.375 77.570312 206.820312 C 78.976562 206.003906 78.976562 206.003906 80.527344 205.632812 M 104.796875 222.8125 L 105.386719 224.585938 L 105.980469 222.8125 Z M 155.699219 192.011719 C 157.335938 191.847656 157.335938 191.847656 159.25 192.011719 C 161.816406 194.402344 163.429688 197.675781 164.539062 200.96875 C 164.761719 201.730469 164.96875 202.496094 165.167969 203.265625 L 168.128906 203.265625 C 168.199219 204.636719 168.199219 204.636719 168.128906 206.226562 L 166.941406 208.003906 L 165.882812 207.851562 C 163.273438 207.515625 161.246094 207.453125 158.65625 208.003906 L 157.472656 206.820312 C 157.660156 205.226562 157.660156 205.226562 158.066406 203.265625 C 158.515625 200.972656 158.722656 199.410156 158.214844 197.121094 L 157.472656 195.566406 L 155.699219 194.972656 Z M 161.617188 200.304688 L 162.207031 201.488281 Z M 159.839844 203.265625 L 160.433594 205.632812 L 162.207031 205.632812 L 161.617188 203.265625 Z M 97.765625 162.433594 C 103.515625 163.828125 103.515625 163.828125 105.980469 165.359375 C 107.332031 167.003906 108.265625 168.667969 108.9375 170.691406 L 108.9375 173.058594 L 110.121094 174.835938 C 111.484375 175.472656 112.867188 176.066406 114.265625 176.613281 C 113.195312 177.5 113.195312 177.5 111.898438 178.390625 L 110.121094 178.390625 L 109.308594 177.539062 C 108.367188 176.476562 108.367188 176.476562 106.757812 176.207031 L 105.386719 176.019531 L 107.164062 174.835938 L 107.753906 173.058594 L 106.644531 172.726562 L 105.386719 171.875 L 104.832031 169.800781 L 104.203125 167.726562 C 102.726562 166.828125 102.726562 166.828125 101.246094 166.542969 L 101.246094 165.359375 L 98.878906 165.359375 L 100.0625 167.136719 L 100.0625 169.503906 C 98.804688 169.652344 98.804688 169.652344 97.101562 169.503906 C 95.140625 168.507812 95.140625 168.507812 93.550781 167.136719 C 93.179688 165.617188 93.179688 165.617188 93.550781 164.175781 C 94.910156 162.542969 95.644531 162.390625 97.765625 162.433594 M 96.507812 165.953125 L 95.917969 167.726562 L 97.695312 167.726562 L 97.695312 165.953125 Z M 96.507812 165.953125 " fill-opacity="1" fill-rule="nonzero"/><path fill="#efc1d6" d="M 150.960938 189.644531 C 152.515625 190.199219 152.515625 190.199219 153.921875 190.828125 L 153.949219 192.167969 C 154.03125 193.9375 154.160156 195.605469 154.515625 197.34375 C 155.894531 198.957031 155.894531 198.957031 157.472656 199.710938 C 157.398438 200.75 157.398438 200.75 156.882812 202.082031 C 155.144531 203.414062 155.144531 203.414062 153.328125 204.449219 L 152.144531 204.449219 L 152.21875 202.523438 C 152.277344 200.386719 152.277344 200.386719 151.554688 198.859375 L 150.960938 197.933594 C 149.519531 198.214844 148.113281 198.492188 146.707031 198.933594 L 145.636719 199.121094 L 144.453125 197.933594 C 144.335938 196.652344 144.335938 196.652344 144.378906 195.195312 L 144.410156 193.726562 L 144.453125 192.605469 C 145.851562 192.941406 147.230469 193.335938 148.59375 193.789062 L 149.113281 192.050781 L 149.777344 190.234375 Z M 150.371094 192.011719 L 149.777344 195.566406 C 150.394531 194.792969 150.984375 194.003906 151.554688 193.195312 L 151.554688 192.011719 Z M 82.304688 169.503906 C 84.550781 170.097656 86.277344 170.578125 88.222656 171.875 C 88 173.316406 88 173.316406 87.632812 174.835938 L 86.449219 175.429688 C 85.191406 175.167969 85.191406 175.167969 84.082031 174.835938 L 84.082031 176.019531 L 81.710938 176.613281 Z M 139.125 190.234375 C 140.753906 190.902344 140.753906 190.902344 142.085938 192.011719 L 143.269531 193.789062 L 143.269531 196.15625 L 139.71875 196.15625 L 139.125 193.789062 L 136.164062 194.382812 L 135.574219 192.011719 C 137.164062 191.011719 137.164062 191.011719 139.125 190.234375 M 108.9375 203.265625 C 111.851562 203.167969 113.972656 203.117188 116.632812 204.449219 L 116.632812 205.632812 L 115.449219 205.632812 L 116.042969 208.003906 L 114.859375 207.484375 C 112.710938 206.679688 110.578125 206.164062 108.347656 205.632812 Z M 99.46875 175.429688 C 101.53125 176.085938 103.480469 176.769531 105.386719 177.796875 L 105.386719 179.574219 L 101.863281 179.515625 C 100.53125 179.523438 100.53125 179.523438 98.878906 180.167969 C 98.261719 179.394531 97.667969 178.605469 97.101562 177.796875 L 97.101562 176.613281 L 99.46875 176.613281 Z M 126.105469 205.042969 C 128.285156 205.265625 128.285156 205.265625 130.246094 205.632812 L 129.65625 208.003906 L 123.734375 209.1875 L 124.328125 206.226562 Z M 114.859375 177.203125 C 116.003906 177.722656 116.003906 177.722656 117.226562 178.390625 L 117.816406 179.574219 L 119.296875 180.167969 L 120.777344 180.757812 L 121.367188 181.941406 L 116.042969 183.71875 L 116.632812 180.167969 L 114.859375 180.167969 Z M 224.355469 171.28125 C 225.722656 171.46875 225.722656 171.46875 227.316406 171.875 C 228.386719 172.800781 228.386719 172.800781 229.089844 173.652344 L 227.722656 173.984375 L 226.132812 174.835938 C 225.332031 176.1875 224.878906 177.488281 224.355469 178.980469 L 223.761719 178.980469 C 223.761719 172.464844 223.761719 172.464844 224.355469 171.28125 M 120.777344 182.535156 C 122.058594 182.835938 123.144531 183.128906 124.328125 183.71875 C 123.847656 184.832031 123.847656 184.832031 123.144531 186.089844 L 121.367188 187.273438 L 119.59375 187.273438 L 120.183594 184.90625 L 117.816406 186.089844 L 118.410156 184.3125 L 120.777344 184.3125 Z M 261.644531 135.746094 L 264.011719 135.746094 C 264.15625 140.117188 264.15625 140.117188 263.417969 141.964844 L 262.828125 142.851562 L 262.234375 142.851562 L 262.234375 139.890625 L 261.050781 139.890625 Z M 220.804688 109.683594 L 221.988281 110.277344 L 220.210938 116.199219 L 217.84375 115.605469 L 217.84375 112.644531 L 219.621094 112.054688 C 220.335938 110.867188 220.335938 110.867188 220.804688 109.683594 M 108.9375 181.941406 C 110.011719 182.054688 110.011719 182.054688 111.308594 182.535156 C 112.378906 183.941406 112.378906 183.941406 113.082031 185.496094 L 112.492188 187.273438 L 108.9375 186.089844 Z M 217.253906 122.714844 L 216.660156 126.859375 L 214.292969 127.453125 L 214.292969 123.898438 C 216.585938 122.714844 216.585938 122.714844 217.253906 122.714844 M 89.40625 196.75 C 90.777344 196.640625 90.777344 196.640625 92.367188 196.75 C 93.441406 197.527344 93.441406 197.527344 94.140625 198.527344 L 94.140625 200.304688 L 90 199.121094 Z M 95.324219 173.652344 L 96.507812 174.242188 L 95.917969 177.203125 L 92.957031 177.796875 L 92.957031 174.835938 L 94.734375 174.835938 Z M 252.765625 163.582031 L 254.542969 164.175781 C 255.246094 165.988281 255.246094 165.988281 255.726562 167.726562 C 254.613281 168.097656 254.613281 168.097656 253.355469 168.320312 L 252.171875 167.136719 C 252.394531 165.285156 252.394531 165.285156 252.765625 163.582031 M 219.621094 122.121094 L 221.394531 122.714844 L 221.394531 126.269531 L 219.027344 126.859375 C 219.003906 125.476562 219.003906 124.097656 219.027344 122.714844 Z M 129.65625 185.496094 L 129.839844 186.644531 L 130.246094 187.867188 L 132.023438 188.457031 L 130.839844 190.234375 L 128.472656 189.644531 C 128.472656 187.804688 128.789062 187.066406 129.65625 185.496094 M 95.917969 213.335938 L 100.652344 215.109375 L 99.46875 216.886719 C 98.0625 216.40625 98.0625 216.40625 96.507812 215.703125 L 95.324219 213.925781 Z M 104.796875 199.121094 L 104.796875 202.082031 L 101.246094 201.488281 L 101.246094 199.710938 C 102.429688 199.121094 102.429688 199.121094 104.796875 199.121094 M 146.226562 186.679688 L 147.410156 187.867188 C 147.484375 189.421875 147.484375 189.421875 147.410156 190.828125 L 144.453125 189.644531 C 144.671875 188.496094 144.671875 188.496094 145.042969 187.273438 Z M 203.046875 205.042969 L 204.824219 205.042969 C 204.46875 206.433594 204.074219 207.816406 203.640625 209.1875 L 202.457031 209.78125 Z M 91.773438 155.882812 L 93.550781 155.882812 C 93.105469 157.03125 93.105469 157.03125 92.367188 158.25 C 91.109375 158.695312 91.109375 158.695312 90 158.84375 L 90 157.066406 Z M 217.253906 141.667969 L 219.027344 141.667969 L 219.027344 144.628906 L 216.660156 144.628906 Z M 117.226562 167.726562 C 118.21875 167.898438 119.203125 168.09375 120.183594 168.320312 L 119 170.691406 L 116.632812 168.320312 Z M 187.066406 189.050781 L 188.84375 189.644531 C 188.175781 190.53125 188.175781 190.53125 187.066406 191.417969 C 185.179688 191.53125 185.179688 191.53125 183.515625 191.417969 L 184.109375 190.234375 C 185.511719 189.53125 185.511719 189.53125 187.066406 189.050781 M 130.246094 182.535156 L 130.246094 184.3125 L 126.695312 184.3125 L 126.695312 183.128906 C 127.878906 182.535156 127.878906 182.535156 130.246094 182.535156 M 74.609375 171.28125 L 77.570312 171.28125 L 77.570312 173.652344 C 76.421875 173.464844 76.421875 173.464844 75.203125 173.058594 Z M 97.695312 158.25 L 98.285156 160.621094 L 95.324219 160.621094 L 95.324219 158.84375 Z M 236.785156 124.492188 L 240.335938 126.269531 L 239.746094 128.042969 C 238.597656 127.601562 238.597656 127.601562 237.375 126.859375 C 236.933594 125.601562 236.933594 125.601562 236.785156 124.492188 M 227.316406 110.277344 L 229.683594 110.277344 L 229.089844 113.238281 L 227.90625 113.238281 Z M 188.84375 147 L 190.027344 147 L 190.027344 151.144531 L 188.84375 150.550781 C 188.4375 149.070312 188.4375 149.070312 188.25 147.589844 Z M 214.292969 135.746094 C 214.886719 137.523438 214.886719 137.523438 214.886719 139.890625 L 212.519531 139.296875 Z M 203.640625 169.503906 L 204.824219 170.691406 L 203.640625 173.058594 L 202.457031 171.875 L 202.457031 170.097656 Z M 221.988281 146.40625 L 223.761719 147.589844 L 223.171875 149.367188 L 221.394531 148.773438 Z M 213.109375 229.917969 L 214.292969 229.917969 L 214.292969 233.472656 L 213.109375 233.472656 C 212.882812 232.492188 212.6875 231.503906 212.519531 230.511719 Z M 139.71875 186.679688 L 140.902344 186.679688 L 141.492188 190.234375 L 139.71875 189.050781 Z M 223.171875 245.316406 C 224.910156 245.539062 224.910156 245.539062 226.722656 245.910156 L 227.316406 247.09375 C 225.578125 246.871094 225.578125 246.871094 223.761719 246.503906 Z M 223.171875 245.316406 " fill-opacity="1" fill-rule="nonzero"/><path fill="#efc1d6" d="M 114.859375 205.042969 L 116.632812 205.632812 L 115.449219 205.632812 L 116.042969 208.003906 L 114.265625 207.410156 Z M 253.355469 173.058594 L 256.316406 173.058594 L 255.726562 174.835938 L 253.355469 174.835938 Z M 189.433594 138.707031 C 190.878906 138.929688 190.878906 138.929688 192.394531 139.296875 L 192.984375 140.484375 C 191.542969 140.261719 191.542969 140.261719 190.027344 139.890625 Z M 107.164062 180.757812 L 106.570312 183.128906 L 104.796875 182.535156 L 104.796875 181.351562 C 105.980469 180.757812 105.980469 180.757812 107.164062 180.757812 M 221.988281 155.289062 L 223.171875 155.882812 L 222.578125 158.25 L 221.394531 155.882812 Z M 116.632812 214.519531 L 118.410156 214.519531 L 117.816406 216.296875 L 116.042969 215.703125 Z M 132.023438 189.644531 L 132.613281 189.644531 L 132.613281 192.605469 L 131.429688 192.605469 Z M 116.632812 164.175781 L 118.410156 164.765625 L 118.410156 165.953125 L 116.632812 165.953125 Z M 217.253906 165.359375 L 219.027344 165.953125 L 217.253906 167.726562 Z M 120.183594 214.519531 L 121.960938 214.519531 L 121.960938 215.703125 L 120.183594 215.703125 Z M 130.839844 193.789062 L 132.023438 193.789062 L 132.023438 195.566406 L 130.839844 195.566406 Z M 250.398438 173.058594 L 252.171875 173.058594 L 251.582031 174.835938 Z M 177.597656 162.398438 L 179.371094 162.398438 L 179.371094 163.582031 L 177.597656 163.582031 Z M 171.085938 158.25 L 172.863281 158.25 L 172.269531 160.027344 Z M 201.863281 154.105469 L 203.046875 155.289062 L 202.457031 156.476562 L 201.273438 155.882812 Z M 179.964844 139.296875 L 181.148438 139.296875 L 181.148438 141.074219 L 179.964844 141.074219 Z M 183.515625 126.269531 L 184.699219 126.269531 L 184.109375 128.042969 L 182.925781 126.859375 Z M 191.210938 111.460938 L 192.394531 111.460938 L 192.394531 113.238281 L 191.210938 113.238281 Z M 158.65625 222.8125 L 159.839844 223.402344 L 159.839844 224.585938 L 158.65625 224.585938 Z M 178.1875 158.25 L 179.964844 158.84375 L 178.78125 160.027344 Z M 180.554688 154.699219 L 181.148438 154.699219 L 181.148438 157.660156 L 180.554688 157.660156 Z M 222.578125 107.90625 L 223.761719 107.90625 L 223.761719 109.089844 L 221.988281 108.5 Z M 230.273438 246.503906 L 231.457031 246.503906 L 231.457031 247.6875 L 230.273438 247.6875 Z M 149.1875 187.867188 L 150.371094 187.867188 L 150.371094 189.050781 L 149.1875 189.050781 Z M 137.347656 183.71875 L 138.53125 183.71875 L 138.53125 184.90625 L 137.347656 184.90625 Z M 91.773438 171.875 L 92.957031 171.875 L 92.957031 173.058594 L 91.773438 173.058594 Z M 253.949219 169.503906 L 255.726562 170.097656 L 253.949219 170.097656 Z M 181.738281 164.175781 L 182.925781 165.953125 L 181.738281 165.953125 Z M 255.132812 163.582031 L 256.316406 163.582031 L 255.726562 165.359375 Z M 175.820312 155.289062 L 177.003906 155.289062 L 177.003906 156.476562 L 175.820312 156.476562 Z M 191.210938 154.699219 L 192.394531 154.699219 L 192.394531 155.882812 L 191.210938 155.882812 Z M 190.027344 143.445312 L 191.800781 143.445312 L 191.210938 144.628906 Z M 179.371094 133.96875 L 180.554688 133.96875 L 180.554688 135.152344 L 179.371094 135.152344 Z M 129.0625 213.335938 L 130.246094 214.519531 L 129.0625 214.519531 Z M 105.980469 201.488281 L 107.164062 202.082031 L 105.980469 202.671875 Z M 124.328125 189.050781 L 124.917969 190.234375 L 123.734375 189.644531 Z M 216.660156 149.367188 L 217.253906 150.550781 L 216.070312 149.960938 Z M 216.070312 134.558594 L 216.660156 135.746094 L 215.476562 135.152344 Z M 242.113281 133.375 L 243.296875 133.375 L 242.703125 134.558594 Z M 236.785156 129.820312 L 238.558594 130.414062 Z M 211.925781 233.472656 L 213.109375 234.0625 Z M 140.902344 205.042969 L 142.085938 205.632812 Z M 217.84375 201.488281 L 219.027344 202.082031 Z M 224.945312 199.710938 L 226.132812 200.304688 Z M 77.570312 167.726562 L 78.753906 168.320312 Z M 175.820312 164.175781 L 177.003906 164.765625 Z M 215.476562 139.890625 L 216.660156 140.484375 Z M 215.476562 139.890625 " fill-opacity="1" fill-rule="nonzero"/></svg>