<svg xmlns="http://www.w3.org/2000/svg" xmlns:xlink="http://www.w3.org/1999/xlink" width="503" zoomAndPan="magnify" viewBox="0 0 377.25 347.249998" height="463" preserveAspectRatio="xMidYMid meet" version="1.0"><path fill="#aed9f5" d="M 144.628906 201.003906 C 145.773438 200.765625 145.773438 200.765625 146.785156 200.464844 C 150.910156 185.417969 152.941406 170 153.890625 154.457031 L 153.960938 153.3125 C 154.226562 148.910156 154.398438 144.523438 154.328125 140.109375 L 152.710938 140.109375 L 152.53125 142.160156 C 152.117188 147.742188 152.117188 147.742188 150.757812 153.144531 C 149.710938 156.113281 149.945312 159.089844 150.066406 162.1875 C 150.082031 163.722656 149.898438 165.046875 149.53125 166.53125 C 148.5625 170.492188 148.378906 174.601562 148.035156 178.652344 C 147.941406 179.738281 147.84375 180.820312 147.742188 181.90625 L 147.578125 183.847656 L 147.324219 185.375 L 146.246094 186.453125 C 145.238281 184.441406 145.582031 182.03125 145.570312 179.816406 L 145.539062 178.265625 C 145.53125 176.84375 145.542969 175.472656 145.707031 174.058594 C 146.226562 173.148438 146.761719 172.25 147.324219 171.363281 C 147.1875 169.644531 147.1875 169.644531 146.785156 167.828125 C 146.34375 166.046875 146.34375 166.046875 146.246094 164.359375 C 147.011719 163.21875 147.011719 163.21875 147.863281 162.203125 C 147.863281 161.023438 147.863281 161.023438 147.625 159.746094 C 147.203125 156.605469 147.730469 153.957031 148.402344 150.886719 L 148.621094 149.542969 C 149.152344 146.332031 150.234375 143.578125 151.539062 140.605469 C 152.394531 138.488281 152.839844 136.425781 153.25 134.183594 L 157.5625 134.183594 C 156.160156 132.554688 154.753906 131.488281 152.742188 130.699219 C 149.902344 129.957031 147.105469 130.1875 144.292969 130.914062 L 142.472656 131.488281 C 141.035156 131.71875 139.609375 131.875 138.160156 132.027344 L 138.160156 130.949219 C 141.144531 129.820312 144.191406 129.316406 147.324219 128.792969 L 147.324219 126.636719 L 147.863281 125.558594 C 149.359375 125.378906 149.359375 125.378906 151.09375 125.558594 C 152.589844 126.476562 152.589844 126.476562 153.925781 127.714844 C 154.765625 128.449219 155.617188 129.167969 156.484375 129.871094 L 157.5625 129.871094 L 157.5625 127.714844 L 162.414062 128.792969 C 160.480469 126.613281 158.542969 125.359375 155.9375 124.054688 C 154.707031 123.410156 154.707031 123.410156 153.789062 121.789062 L 154.867188 121.789062 C 154.714844 120.519531 154.714844 120.519531 154.328125 119.09375 C 151.238281 116.214844 145.980469 114.992188 142.082031 113.507812 C 137.171875 111.652344 137.171875 111.652344 132.769531 108.855469 C 136.113281 109.363281 139.265625 109.914062 142.472656 111.011719 C 143.921875 111.144531 143.921875 111.144531 145.167969 111.011719 L 146.785156 109.933594 C 148.351562 109.867188 149.117188 109.925781 150.554688 110.472656 C 152.101562 111.515625 153.554688 112.628906 155.003906 113.804688 C 156.625 114.875 157.804688 115.140625 159.71875 115.320312 L 160.257812 112.625 L 162.414062 113.164062 L 161.875 111.011719 L 160.796875 111.011719 L 160.796875 109.394531 L 162.414062 109.394531 L 162.953125 107.777344 C 161.484375 105.136719 159.273438 102.769531 157.023438 100.769531 L 155.945312 100.769531 L 155.574219 99.625 C 153.914062 95.984375 151.113281 93.917969 147.972656 91.574219 C 146.804688 90.550781 146.273438 89.804688 145.707031 88.375 C 147.148438 89.625 148.582031 90.886719 150.015625 92.148438 L 151.511719 93.449219 C 154.144531 95.78125 156.484375 98.039062 158.507812 100.921875 C 159.488281 102.277344 160.679688 103.375 161.875 104.542969 C 162.6875 105.4375 163.496094 106.335938 164.300781 107.238281 C 165.957031 109.09375 167.632812 110.898438 169.417969 112.625 L 170.496094 111.546875 C 170.496094 110.371094 170.496094 110.371094 169.957031 108.855469 C 168.980469 107.507812 167.855469 106.304688 166.726562 105.082031 C 164.238281 102.308594 161.90625 99.476562 159.71875 96.460938 C 162.257812 97.574219 164.390625 99.324219 166.605469 100.96875 C 168.367188 102.253906 169.984375 103.414062 172.113281 104.003906 C 173.554688 103.992188 173.554688 103.992188 174.976562 103.800781 L 176.417969 103.621094 L 177.503906 103.464844 C 177.902344 102.539062 177.902344 102.539062 178.042969 101.308594 C 176.425781 99 174.261719 97.082031 171.824219 95.667969 C 168.824219 94.304688 168.824219 94.304688 167.265625 94.304688 C 167.136719 94 167.011719 93.691406 166.882812 93.375 C 164.894531 89.867188 160.917969 87.167969 157.5 85.128906 C 156.496094 84.609375 155.492188 84.21875 154.429688 83.832031 L 152.710938 82.988281 L 152.054688 81.453125 C 151.09375 79.753906 151.09375 79.753906 150.238281 79.140625 C 149.167969 78.582031 148.089844 78.082031 146.984375 77.597656 C 146.207031 77.234375 145.429688 76.871094 144.652344 76.503906 L 143.515625 75.964844 C 141.730469 75.074219 140.109375 73.972656 138.484375 72.816406 C 137.621094 72.210938 137.621094 72.210938 136.542969 71.671875 L 136.410156 70.390625 L 136.003906 68.976562 L 134.542969 68.285156 C 132.496094 67.21875 131.28125 65.867188 129.875 64.09375 L 129.140625 63.207031 C 128.527344 62.457031 127.953125 61.675781 127.382812 60.894531 L 127.382812 59.816406 C 129.527344 60.136719 131.117188 60.8125 133.007812 61.871094 L 134.585938 62.753906 C 135.628906 63.371094 136.652344 64.019531 137.65625 64.699219 C 139.042969 65.617188 140.363281 66.289062 141.867188 66.988281 C 144.210938 68.132812 145.957031 69.488281 147.855469 71.261719 C 149.335938 72.558594 150.949219 73.574219 152.617188 74.605469 C 153.867188 75.445312 153.867188 75.445312 155.035156 76.746094 C 156.703125 78.347656 158.414062 79.320312 160.425781 80.429688 C 163.9375 82.457031 166.421875 84.578125 168.878906 87.839844 C 169.863281 89.121094 170.851562 90.398438 171.84375 91.675781 L 172.609375 92.667969 C 174.296875 94.832031 176.058594 96.683594 178.226562 98.382812 C 179.242188 99.257812 179.96875 100.21875 180.738281 101.308594 C 183.4375 101.039062 185.355469 100.414062 187.742188 99.15625 L 187.6875 97.597656 L 187.644531 95.550781 L 187.585938 93.523438 C 187.757812 91.460938 188.289062 90.632812 189.359375 88.914062 C 189.519531 87.355469 189.519531 87.355469 189.460938 85.785156 L 189.417969 84.191406 L 189.359375 82.988281 L 190.4375 82.988281 L 190.976562 85.683594 L 192.59375 85.683594 C 192.621094 83.417969 192.640625 81.15625 192.652344 78.894531 C 192.660156 78.125 192.667969 77.355469 192.675781 76.585938 C 192.6875 75.476562 192.695312 74.371094 192.699219 73.261719 L 192.714844 71.246094 C 192.597656 69.566406 192.316406 68.789062 191.515625 67.359375 C 191.28125 66.265625 191.28125 66.265625 191.195312 65.105469 L 191.066406 63.75 L 190.945312 62.273438 L 190.808594 60.726562 C 190.390625 55.59375 190.21875 50.453125 190.082031 45.308594 C 190.007812 42.476562 189.921875 39.644531 189.714844 36.820312 L 189.628906 35.566406 C 189.359375 34.488281 189.359375 34.488281 188.628906 33.566406 C 187.742188 32.871094 187.742188 32.871094 186.125 32.332031 C 185.660156 30.8125 185.269531 29.277344 184.949219 27.71875 L 184.660156 26.402344 C 184.425781 25.328125 184.195312 24.25 183.972656 23.171875 L 183.433594 23.171875 L 183.371094 24.890625 C 183.148438 30.105469 182.871094 35.414062 181.277344 40.417969 C 180.570312 41.324219 179.851562 42.222656 179.121094 43.109375 C 178.359375 44.890625 178.359375 44.890625 177.707031 46.816406 L 177.042969 48.730469 C 176.082031 51.726562 175.261719 54.402344 175.179688 57.558594 C 174.980469 60.683594 174.363281 63.546875 173.527344 66.550781 L 173.1875 67.800781 C 172.671875 69.585938 172.183594 71.023438 171.199219 72.613281 L 170.496094 73.828125 C 170.53125 75.074219 170.53125 75.074219 170.800781 76.285156 C 171.023438 77.523438 171.023438 77.523438 171.035156 78.675781 C 170.105469 80.015625 170.105469 80.015625 168.878906 80.832031 L 168.339844 81.910156 L 166.9375 80.746094 C 162.792969 77.367188 158.699219 74.414062 153.789062 72.210938 L 152.710938 72.210938 L 152.308594 71.234375 C 151.507812 69.832031 150.851562 69.289062 149.476562 68.4375 L 147.726562 67.730469 C 146.1875 67.105469 145.015625 66.34375 143.71875 65.304688 C 141.457031 63.523438 139.011719 62.355469 136.398438 61.160156 C 134.894531 60.445312 134.894531 60.445312 133.941406 59.246094 C 132.722656 58.15625 132.191406 57.953125 130.652344 57.59375 C 129.84375 57.429688 129.035156 57.269531 128.222656 57.121094 C 124.933594 56.519531 124.933594 56.519531 122.039062 54.898438 L 120.914062 53.886719 L 119.835938 53.886719 C 120.183594 56.589844 121.121094 59.109375 122.53125 61.433594 C 123.734375 62.597656 124.832031 63.28125 126.304688 64.128906 L 127.382812 64.128906 L 126.84375 66.28125 L 123.070312 66.820312 C 124.839844 68.894531 127.269531 69.734375 129.691406 70.863281 C 131.28125 71.597656 131.28125 71.597656 132.230469 73.289062 L 131.378906 72.859375 C 130.070312 72.210938 128.761719 71.570312 127.449219 70.929688 L 126.105469 70.257812 C 122.984375 68.746094 120.03125 67.875 116.601562 67.359375 C 115.859375 68.894531 115.515625 70.136719 115.339844 71.839844 C 115.523438 73.828125 115.523438 73.828125 116.585938 75.492188 L 117.949219 77.027344 L 119.316406 78.589844 L 120.375 79.753906 L 123.070312 79.214844 L 122.53125 77.597656 C 124.878906 79.378906 127.214844 81.175781 129.539062 82.988281 L 130.925781 84.070312 C 132.660156 85.496094 133.703125 86.433594 134.625 88.511719 L 134.925781 89.992188 C 135.464844 91.609375 135.464844 91.609375 136.710938 92.789062 C 138.417969 94.574219 139.324219 96.382812 140.316406 98.617188 C 137.789062 97.011719 135.546875 95.214844 133.308594 93.226562 C 133.378906 94.339844 133.378906 94.339844 133.847656 95.921875 C 134.375 96.601562 134.921875 97.265625 135.496094 97.90625 L 136.390625 98.925781 L 137.082031 99.695312 C 127.621094 98.910156 127.621094 98.910156 118.1875 97.867188 C 114.75 97.457031 111.367188 97.230469 107.980469 98.078125 L 107.980469 98.617188 L 109.417969 98.894531 L 111.3125 99.289062 L 113.191406 99.667969 C 115.121094 100.273438 116.238281 100.984375 117.679688 102.386719 L 117.679688 103.464844 C 113.882812 103.542969 110.148438 103.328125 106.363281 102.992188 C 104.746094 102.925781 104.746094 102.925781 103.128906 103.464844 L 103.667969 106.699219 L 104.808594 107.015625 L 106.296875 107.441406 L 107.773438 107.855469 C 109.136719 108.238281 109.136719 108.238281 110.136719 109.394531 C 111.152344 109.761719 111.152344 109.761719 112.417969 110.105469 C 116.046875 111.144531 119.605469 112.371094 123.171875 113.601562 L 124.214844 113.960938 C 128.835938 115.554688 133.410156 117.214844 137.914062 119.113281 C 139.238281 119.632812 139.238281 119.632812 140.316406 119.632812 L 140.316406 120.710938 L 139.324219 120.375 C 136.230469 119.425781 133.449219 119.007812 130.210938 118.925781 C 126.574219 118.816406 123.800781 117.925781 120.5 116.449219 C 118.054688 115.382812 116.199219 115.082031 113.566406 115.277344 C 111.289062 115.355469 109.105469 114.769531 106.902344 114.242188 C 108.285156 115.628906 109.820312 116.15625 111.617188 116.835938 L 112.746094 117.265625 C 116.527344 118.636719 120.40625 119.492188 124.347656 120.265625 C 127.371094 120.882812 129.636719 121.71875 132.230469 123.402344 C 132.25 124.699219 132.25 124.699219 131.691406 126.097656 C 130.523438 126.820312 129.296875 127.4375 128.023438 127.949219 L 125.789062 128.933594 C 125.0625 129.246094 124.335938 129.558594 123.609375 129.871094 C 115.214844 133.5625 109.085938 139.390625 102.65625 145.734375 L 101.773438 146.597656 C 97.863281 150.429688 94.660156 154.261719 91.8125 158.96875 L 90.910156 160.40625 C 90.054688 161.910156 89.808594 163.191406 89.554688 164.898438 L 89.296875 166.546875 C 88.96875 169.433594 88.96875 169.433594 89.117188 170.824219 C 90.734375 171.902344 90.734375 171.902344 92.0625 172.085938 C 104.164062 172.242188 115.964844 167.617188 126.574219 162.136719 L 127.792969 161.511719 C 130.691406 159.941406 133.066406 157.988281 135.464844 155.738281 L 133.847656 155.738281 C 133.097656 156.25 132.371094 156.789062 131.660156 157.355469 C 126.570312 161.039062 120.355469 163.378906 114.445312 165.4375 L 112.828125 165.4375 L 113.636719 164.550781 L 114.683594 163.382812 L 115.726562 162.226562 C 116.601562 161.125 116.601562 161.125 117.140625 159.507812 C 117.855469 159.140625 118.574219 158.78125 119.296875 158.429688 C 120.164062 157.535156 120.164062 157.535156 121.015625 156.476562 C 126.53125 150.019531 134.5625 144.410156 142.472656 141.1875 C 143.707031 141.300781 143.707031 141.300781 144.628906 141.726562 C 144.003906 144.734375 143.328125 146.8125 141.394531 149.269531 C 140.171875 150.5625 138.914062 151.820312 137.621094 153.042969 L 138.160156 154.121094 L 139.777344 153.042969 L 141.394531 153.042969 L 142.472656 154.121094 L 143.011719 150.347656 L 144.628906 150.347656 L 144.410156 151.675781 C 143.777344 155.773438 143.371094 159.894531 143.195312 164.035156 C 143.117188 165.703125 143.003906 167.078125 142.472656 168.671875 C 142.472656 169.628906 142.480469 170.589844 142.507812 171.550781 C 142.65625 176.96875 142.117188 182.234375 141.429688 187.605469 L 141.210938 189.339844 L 141.003906 190.882812 C 140.847656 192.46875 140.832031 194.019531 140.855469 195.613281 L 142.472656 196.152344 C 142.863281 197.148438 142.863281 197.148438 143.046875 198.308594 C 143.265625 199.488281 143.265625 199.488281 143.550781 200.464844 Z M 121.453125 143.34375 C 125.101562 139.207031 129.914062 137.15625 134.925781 135.089844 L 136.28125 134.519531 C 139.421875 133.265625 142.332031 132.730469 145.707031 132.566406 L 145.707031 133.644531 C 142.011719 137.164062 137.457031 138.828125 132.636719 140.183594 C 130.289062 140.917969 128.027344 141.871094 125.753906 142.808594 C 124.199219 143.324219 123.074219 143.453125 121.453125 143.34375 M 139.304688 104.339844 L 138.171875 103.980469 C 136.007812 103.285156 133.847656 102.574219 131.691406 101.847656 L 131.691406 101.308594 C 136.148438 101.195312 140.296875 101.269531 144.628906 102.386719 L 145.707031 105.621094 C 143.363281 105.621094 141.5 105.058594 139.304688 104.339844 M 146.785156 102.386719 C 144.679688 100.875 143.570312 98.207031 142.472656 95.921875 L 144.089844 95.921875 C 145.367188 97.242188 145.367188 97.242188 146.617188 98.886719 L 147.933594 100.550781 L 148.9375 101.847656 C 147.90625 102.175781 147.90625 102.175781 146.785156 102.386719 " fill-opacity="1" fill-rule="nonzero"/><path fill="#aed9f5" d="M 268.449219 157.824219 C 269.777344 157.308594 270.738281 156.660156 271.820312 155.738281 L 271.28125 154.121094 C 270.167969 153.480469 270.167969 153.480469 269.125 153.042969 C 272.34375 152.503906 274.59375 152.550781 277.746094 153.582031 C 279.332031 153.648438 279.332031 153.648438 280.441406 153.582031 C 279.507812 152.398438 278.636719 151.570312 277.234375 150.988281 C 275.539062 150.445312 273.832031 149.953125 272.117188 149.472656 C 270.898438 149.105469 269.742188 148.734375 268.585938 148.191406 C 267.335938 146.855469 267.335938 146.855469 266.429688 145.5 C 265.441406 144.976562 265.441406 144.976562 264.375 144.691406 C 262.441406 144.132812 260.527344 143.523438 258.625 142.863281 C 255.550781 141.804688 252.523438 140.917969 249.320312 140.359375 C 248.074219 140.101562 246.941406 139.730469 245.746094 139.300781 C 243.363281 138.464844 240.988281 138.082031 238.496094 137.699219 C 236.164062 137.3125 233.875 136.773438 231.578125 136.226562 C 229.09375 135.636719 226.605469 135.085938 224.113281 134.53125 L 222.773438 134.183594 L 222.238281 133.644531 C 223.492188 133.621094 224.75 133.621094 226.007812 133.644531 L 226.546875 134.183594 C 227.535156 134.269531 228.523438 134.332031 229.511719 134.382812 C 232.066406 134.578125 234.164062 135.011719 236.546875 135.898438 C 238.765625 136.636719 241.050781 137.046875 243.335938 137.515625 C 245.496094 137.972656 247.640625 138.480469 249.789062 138.996094 C 253.722656 139.945312 257.675781 140.746094 261.652344 141.464844 C 263.695312 141.851562 265.542969 142.289062 267.441406 143.148438 C 269.125 143.882812 269.125 143.882812 270.910156 143.746094 C 272.359375 143.34375 272.359375 143.34375 273.4375 142.804688 L 273.4375 141.1875 L 271.835938 141.085938 C 266.113281 140.605469 261.769531 139.015625 256.730469 136.335938 C 252.5 134.183594 252.5 134.183594 251.339844 134.183594 L 251.339844 133.105469 L 252.644531 133.539062 C 257.738281 135.175781 262.671875 136.433594 268.046875 136.335938 L 268.046875 135.257812 C 265.09375 132.347656 261.320312 130.796875 257.539062 129.265625 L 255.8125 128.550781 C 251.90625 126.976562 248.082031 125.875 243.976562 124.980469 C 241.703125 124.351562 240.011719 123.292969 238.058594 122 C 235.414062 120.4375 232.457031 119.734375 229.40625 119.539062 C 228.273438 119.53125 227.140625 119.578125 226.007812 119.632812 C 227.152344 118.40625 228.289062 117.542969 229.734375 116.695312 L 230.972656 115.957031 L 232.273438 115.1875 C 235.351562 113.339844 238.246094 111.460938 241.027344 109.1875 C 244.109375 106.847656 247.566406 104.949219 251.136719 103.464844 C 253.546875 102.457031 255.535156 101.015625 257.640625 99.488281 C 259.085938 98.476562 260.511719 97.71875 262.117188 97 L 261.882812 95.617188 C 261.964844 93.828125 261.964844 93.828125 262.789062 92.804688 C 265.140625 90.335938 267.742188 88.851562 270.742188 87.300781 C 272.261719 86.464844 273.777344 85.621094 275.289062 84.773438 L 276.449219 84.132812 C 279.242188 82.574219 279.242188 82.574219 280.441406 81.371094 C 280.746094 80.144531 280.746094 80.144531 280.980469 78.710938 C 281.292969 76.832031 281.515625 75.988281 282.597656 74.367188 C 282.703125 72.675781 282.703125 72.675781 282.664062 70.761719 L 282.636719 68.835938 L 282.597656 67.359375 L 281.519531 67.359375 L 281.164062 68.878906 C 280.128906 73.242188 280.128906 73.242188 277.882812 77.058594 C 276.40625 78.546875 274.75 79.789062 273.019531 80.96875 C 271.929688 81.824219 271.089844 82.695312 270.152344 83.707031 C 267.871094 86.023438 265.253906 87.308594 262.355469 88.714844 C 256.804688 91.4375 256.804688 91.4375 254.988281 93.023438 C 253.355469 94.425781 251.773438 95.246094 249.824219 96.15625 C 246.734375 97.636719 243.878906 99.304688 241.097656 101.308594 L 242.175781 100.265625 C 243.058594 99.40625 243.886719 98.496094 244.667969 97.546875 C 247.609375 93.980469 251.015625 91.542969 254.800781 88.964844 C 255.871094 88.226562 256.90625 87.449219 257.941406 86.660156 C 259.519531 85.453125 261.148438 84.339844 262.792969 83.222656 C 265.136719 81.589844 266.730469 80 268.183594 77.53125 C 268.585938 76.519531 268.585938 76.519531 268.585938 74.90625 C 267.675781 74.972656 267.675781 74.972656 266.429688 75.445312 C 265.804688 76.257812 265.175781 77.074219 264.617188 77.9375 L 263.734375 78.675781 L 261.957031 78.890625 C 259.960938 79.214844 259.960938 79.214844 258.332031 80.335938 L 256.761719 81.742188 C 256.199219 82.238281 255.632812 82.734375 255.066406 83.226562 L 253.496094 84.605469 C 252.761719 85.164062 252.019531 85.714844 251.273438 86.253906 C 249.101562 87.847656 247.132812 89.636719 245.148438 91.453125 C 243.875 92.617188 242.574219 93.746094 241.269531 94.878906 C 239.339844 96.585938 237.636719 98.402344 235.976562 100.367188 C 235.136719 101.378906 235.136719 101.378906 233.957031 102.488281 C 233.015625 103.464844 233.015625 103.464844 232.332031 104.671875 C 231.226562 106.433594 229.890625 107.890625 228.46875 109.394531 C 227.046875 110.902344 225.644531 112.398438 224.375 114.039062 C 223.207031 115.449219 222.148438 116.46875 220.621094 117.476562 C 218.824219 117.960938 218.824219 117.960938 216.949219 118.148438 C 216.320312 118.230469 215.695312 118.3125 215.050781 118.394531 L 213.613281 118.554688 L 213.882812 119.53125 C 214.210938 120.769531 214.210938 120.769531 214.152344 122.328125 L 210.917969 122.867188 L 212.535156 125.558594 L 209.839844 126.097656 L 209.839844 127.175781 L 218.871094 129.261719 L 220.789062 129.703125 L 223.851562 130.410156 L 223.851562 131.488281 L 222.746094 131.25 C 218.785156 130.460938 214.777344 129.691406 210.851562 130.949219 L 209.839844 131.488281 L 210.378906 133.105469 C 211.625 133.566406 212.894531 133.960938 214.1875 134.28125 L 215.269531 134.574219 C 216.152344 134.808594 217.039062 135.035156 217.925781 135.257812 L 215.992188 135.023438 C 205.25 133.746094 205.25 133.746094 201.148438 134.484375 C 199.691406 135.214844 198.859375 135.882812 197.679688 136.976562 C 194.589844 139.753906 191.214844 142.109375 187.121094 143.078125 C 183.476562 143.714844 180.089844 143.890625 176.582031 142.617188 C 174.355469 141.390625 172.640625 140.328125 171.175781 138.21875 C 169.757812 135.410156 169.125 132.316406 169.222656 129.175781 C 169.957031 123.75 172.21875 118.566406 174.4375 113.601562 L 174.996094 112.292969 C 175.804688 110.574219 176.515625 109.230469 177.988281 108 C 179.066406 107.304688 180.117188 106.707031 181.277344 106.160156 L 182.550781 105.539062 C 185.382812 104.628906 188.40625 105.355469 191.3125 105.6875 L 193.308594 105.882812 C 197.371094 106.324219 201.332031 106.9375 204.988281 108.855469 C 206.167969 109.917969 207.082031 110.917969 207.988281 112.222656 L 208.761719 113.164062 L 210.378906 113.164062 C 210.75 111.988281 210.75 111.988281 210.917969 110.472656 C 210.203125 108.679688 209.15625 107.53125 207.683594 106.328125 C 205.652344 104.96875 203.710938 104.605469 201.316406 104.253906 C 199.304688 103.960938 197.316406 103.566406 195.324219 103.164062 C 194.652344 103.027344 193.980469 102.894531 193.285156 102.757812 C 192.300781 102.550781 191.3125 102.335938 190.335938 102.082031 C 187.84375 101.488281 185.445312 101.613281 182.972656 102.238281 C 180.65625 103.011719 178.902344 103.730469 177.03125 105.316406 L 175.886719 106.699219 L 174.507812 107.945312 C 173.152344 109.4375 172.429688 110.765625 171.59375 112.574219 C 171.03125 113.714844 170.375 114.710938 169.65625 115.757812 C 167.207031 119.585938 166.382812 124.375 166.117188 128.851562 C 166.019531 132.492188 166.363281 135.621094 168.011719 138.90625 C 169.519531 141.300781 171.050781 143.140625 173.523438 144.539062 C 176.691406 146.132812 179.839844 147.515625 183.433594 147.652344 C 184.777344 147.171875 185.9375 146.664062 187.203125 146.039062 C 188.039062 145.691406 188.878906 145.347656 189.71875 145.011719 L 191.042969 144.46875 C 191.945312 144.097656 192.847656 143.730469 193.75 143.367188 C 196.175781 142.367188 198.210938 141.398438 200.140625 139.570312 L 201.21875 137.953125 L 201.964844 138.714844 C 203.894531 140.460938 205.558594 141.574219 208.074219 142.324219 C 210.375 142.816406 212.699219 143.167969 215.027344 143.511719 C 216.226562 143.703125 217.421875 143.898438 218.621094 144.09375 C 219.703125 144.269531 220.785156 144.4375 221.871094 144.601562 C 223.851562 144.960938 225.699219 145.449219 227.625 146.039062 C 225.917969 146.890625 224.046875 146.933594 222.167969 147.148438 L 220.96875 147.296875 C 218.320312 147.605469 215.742188 147.699219 213.074219 147.652344 C 213.523438 148.269531 213.988281 148.871094 214.457031 149.472656 L 215.230469 150.496094 C 216.398438 151.503906 217.433594 151.96875 218.929688 152.335938 C 221.335938 152.6875 223.753906 152.535156 226.175781 152.46875 C 238.710938 152.316406 253.179688 152.582031 264.984375 157.15625 C 266.96875 157.894531 266.96875 157.894531 268.449219 157.824219 M 231.464844 143.613281 C 226.601562 142.664062 221.757812 141.847656 216.847656 141.1875 C 215.148438 140.953125 213.453125 140.707031 211.761719 140.445312 L 210.542969 140.28125 C 207.730469 139.839844 205.769531 138.949219 203.375 137.414062 L 203.914062 136.335938 C 207.804688 135.339844 211.53125 136.027344 215.378906 136.867188 L 217.085938 137.222656 C 218.871094 137.59375 220.65625 137.976562 222.4375 138.359375 C 223.632812 138.605469 224.824219 138.855469 226.015625 139.101562 C 230.964844 140.136719 235.890625 141.207031 240.785156 142.460938 C 242.429688 142.867188 244.074219 143.160156 245.746094 143.410156 C 247.808594 143.691406 247.808594 143.691406 249.722656 144.421875 L 249.722656 145.5 C 248.460938 146.128906 247.464844 146.144531 246.070312 146.121094 C 241.167969 145.773438 236.277344 144.5625 231.464844 143.613281 M 250.800781 137.414062 C 249.65625 137.179688 249.65625 137.179688 248.4375 136.71875 L 247.039062 136.226562 L 245.578125 135.695312 L 244.152344 135.199219 C 238.972656 133.394531 238.972656 133.394531 234.464844 130.375 C 232.242188 128.773438 229.726562 128.324219 227.085938 127.714844 L 227.085938 126.097656 L 228.902344 126.632812 L 230.070312 126.972656 C 230.917969 127.222656 231.761719 127.472656 232.605469 127.722656 C 234.34375 128.238281 236.082031 128.746094 237.828125 129.21875 C 242.605469 130.519531 248.117188 132.761719 251.777344 136.167969 L 252.417969 136.875 Z M 245.546875 129.433594 C 243.136719 128.53125 240.792969 127.933594 238.269531 127.445312 C 236.171875 127.027344 234.394531 126.667969 232.578125 125.527344 C 230.710938 124.390625 229.226562 124.054688 227.09375 123.722656 C 225.949219 123.46875 225.949219 123.46875 225.058594 122.5625 L 224.390625 121.789062 C 225.859375 121.246094 226.738281 121.273438 228.3125 121.492188 L 230.285156 121.921875 L 232.253906 122.335938 C 234.070312 122.773438 234.070312 122.773438 235.414062 123.667969 C 237.1875 124.71875 239.007812 125.070312 241 125.492188 C 244.375 126.261719 246.914062 127.226562 249.722656 129.332031 L 249.183594 130.410156 C 247.792969 130.410156 246.84375 129.945312 245.546875 129.433594 M 220.792969 128.375 L 219.371094 127.75 L 217.929688 127.128906 L 216.847656 126.636719 L 216.847656 125.558594 C 219.789062 125.5 222.566406 125.605469 225.46875 126.097656 L 224.929688 128.253906 C 223.332031 128.710938 222.410156 128.84375 220.792969 128.375 " fill-opacity="1" fill-rule="nonzero"/><path fill="#aed9f5" d="M 198.449219 217.519531 L 199.601562 217.167969 C 200.039062 213.679688 200.238281 210.257812 200.269531 206.742188 L 200.28125 205.148438 C 200.289062 204.035156 200.292969 202.925781 200.296875 201.8125 C 200.304688 200.703125 200.316406 199.59375 200.332031 198.480469 C 200.441406 190.75 199.746094 183.5625 198.222656 175.984375 C 197.902344 174.125 197.753906 172.265625 197.628906 170.382812 C 197.3125 168.386719 196.25 166.996094 195.019531 165.4375 L 193.6875 163.652344 L 192.59375 162.203125 L 192.054688 161.125 C 194.957031 162.960938 197.601562 164.898438 200.152344 167.199219 C 201.558594 168.429688 203.046875 169.535156 204.554688 170.644531 C 205.363281 171.246094 206.160156 171.871094 206.945312 172.511719 C 208.222656 173.519531 208.222656 173.519531 209.90625 174.5625 C 211.523438 175.5625 211.523438 175.5625 212.300781 177.125 L 213.074219 178.371094 C 214.523438 178.808594 214.523438 178.808594 215.769531 178.910156 L 215.230469 176.214844 L 216.308594 176.214844 C 216.144531 175.238281 216.144531 175.238281 215.769531 174.058594 C 214.234375 172.332031 212.453125 171.046875 210.378906 170.050781 C 208.839844 169.25 208.105469 168.597656 206.945312 167.355469 C 205.320312 165.632812 203.785156 164.703125 201.59375 163.832031 C 200.578125 163.324219 200.578125 163.324219 200.015625 162.144531 L 199.601562 161.125 C 202.265625 161.921875 204.011719 162.65625 205.96875 164.664062 L 206.851562 165.640625 C 207.683594 166.515625 207.683594 166.515625 209.300781 167.59375 C 210.71875 167.679688 210.71875 167.679688 212.300781 167.625 C 214.382812 167.503906 214.382812 167.503906 216.308594 168.132812 L 216.105469 169.308594 L 216.308594 170.824219 C 217.417969 172.082031 218.101562 172.75 219.542969 173.519531 C 220.730469 173.816406 220.730469 173.816406 222.035156 174.023438 C 227.949219 174.992188 232.660156 178.601562 237.328125 182.140625 C 238.378906 182.898438 239.457031 183.617188 240.5625 184.296875 L 241.636719 184.296875 L 242.042969 185.8125 C 242.714844 187.53125 242.714844 187.53125 243.625 188.542969 C 245.34375 189.378906 246.753906 189.25 248.644531 189.148438 L 250.261719 189.148438 L 251.171875 190.257812 L 252.417969 191.304688 C 254.308594 191.378906 256.101562 191.078125 257.808594 190.226562 C 256.9375 185.78125 255.746094 181.992188 252.957031 178.371094 C 251.753906 177.164062 250.546875 176.171875 249.183594 175.136719 L 248.644531 176.753906 L 249.890625 177.898438 C 252.203125 180.371094 253.277344 183.371094 254.574219 186.453125 C 252.980469 185.714844 251.574219 184.933594 250.261719 183.757812 C 249.804688 182.507812 249.628906 181.339844 249.433594 180.023438 L 249.183594 178.910156 C 248.039062 177.765625 248.039062 177.765625 246.488281 176.753906 C 245.773438 176.132812 245.066406 175.503906 244.367188 174.867188 C 241.824219 172.640625 239.277344 170.976562 236.214844 169.546875 C 234.464844 168.699219 233.304688 168.035156 232.171875 166.449219 C 230.859375 164.898438 230.859375 164.898438 229.679688 164.351562 C 228.460938 163.953125 227.246094 163.605469 226.007812 163.28125 L 224.390625 162.742188 L 223.851562 161.125 C 222.972656 160.574219 222.972656 160.574219 221.867188 160.082031 C 219.574219 159.003906 217.328125 157.863281 215.542969 156.027344 C 214.609375 155.117188 213.652344 154.492188 212.535156 153.816406 C 211.257812 153.042969 210.007812 152.253906 208.761719 151.425781 C 207.519531 151.085938 207.519531 151.085938 206.136719 150.820312 L 204.757812 150.546875 C 203.359375 150.347656 202.089844 150.238281 200.679688 150.347656 L 199.601562 151.425781 C 198.5625 151.40625 198.5625 151.40625 197.445312 150.886719 C 196.539062 150.175781 195.640625 149.457031 194.75 148.730469 L 193.671875 148.730469 L 194.75 153.042969 L 192.390625 152 L 191.066406 151.410156 C 190.3125 151.070312 189.5625 150.71875 188.820312 150.347656 C 187.742188 150.328125 186.664062 150.324219 185.589844 150.347656 L 184.511719 152.503906 L 183.433594 152.503906 L 183.296875 150.683594 L 182.894531 148.730469 C 181.984375 147.957031 181.984375 147.957031 180.738281 147.652344 C 178.984375 147.585938 178.984375 147.585938 177.503906 147.652344 C 177.738281 148.972656 177.992188 149.746094 178.828125 150.808594 C 179.71875 152.046875 180.027344 152.949219 180.367188 154.421875 L 180.703125 155.851562 C 180.816406 156.347656 180.925781 156.84375 181.039062 157.355469 L 181.398438 158.898438 C 182.105469 162.015625 182.707031 165.128906 183.179688 168.292969 C 183.558594 170.476562 184.132812 172.605469 184.691406 174.75 C 185.117188 176.496094 185.386719 178.203125 185.589844 179.988281 L 183.972656 180.527344 L 185.050781 180.527344 L 184.875 181.554688 C 184.53125 184.003906 184.351562 185.984375 185.21875 188.339844 C 186.125 190.226562 186.125 190.226562 187.203125 191.304688 C 187.257812 193.238281 187.167969 195.144531 187.085938 197.078125 L 187.203125 198.847656 C 188.015625 199.894531 188.015625 199.894531 188.820312 200.464844 L 189.898438 199.386719 C 191.191406 204.273438 191.835938 208.894531 192.054688 213.9375 L 190.976562 213.9375 L 190.976562 215.015625 C 191.90625 215.480469 192.835938 215.941406 193.773438 216.394531 L 195.34375 217.171875 C 196.90625 217.707031 196.90625 217.707031 198.449219 217.519531 M 196.90625 216.09375 L 195.828125 215.015625 C 195.542969 213.890625 195.296875 212.757812 195.089844 211.613281 L 194.691406 209.5 L 194.277344 207.234375 C 193.992188 205.707031 193.707031 204.179688 193.417969 202.65625 L 193.203125 201.515625 C 192.554688 198.0625 191.839844 194.625 191.089844 191.195312 C 190.335938 187.71875 189.824219 184.390625 189.867188 180.828125 L 189.878906 179.113281 L 189.898438 177.832031 C 191.734375 178.699219 193.1875 179.765625 194.75 181.066406 C 194.171875 179.492188 193.792969 178.488281 192.59375 177.292969 C 192.765625 175.890625 192.765625 175.890625 193.132812 174.597656 L 191.851562 174.292969 L 190.4375 173.519531 C 189.585938 171.722656 189.585938 171.722656 189.359375 169.75 C 189.753906 168.460938 189.753906 168.460938 190.4375 167.59375 C 192.257812 167.414062 192.257812 167.414062 194.210938 167.59375 C 195.226562 168.535156 195.722656 169.4375 196.164062 170.746094 C 196.488281 171.957031 196.78125 173.171875 197.039062 174.394531 L 197.328125 175.714844 C 197.980469 178.910156 198.023438 181.621094 197.445312 184.835938 C 197.386719 186.582031 197.347656 188.144531 197.707031 189.851562 C 198.019531 191.484375 198.089844 193.039062 198.136719 194.699219 L 198.195312 196.6875 L 198.253906 198.78125 C 198.402344 203.761719 198.585938 208.722656 199.015625 213.691406 C 199.167969 215.015625 199.167969 215.015625 198.523438 216.09375 Z M 205.527344 103.464844 C 206.464844 103.34375 206.464844 103.34375 207.683594 102.925781 C 208.785156 101.902344 208.785156 101.902344 209.941406 100.570312 L 211.230469 99.089844 C 212.46875 97.609375 213.691406 96.117188 214.894531 94.605469 C 216.664062 92.4375 218.484375 90.335938 220.417969 88.308594 L 221.820312 86.824219 C 223.261719 85.539062 223.261719 85.539062 225.214844 85.367188 L 227.085938 85.144531 C 230.5 83.152344 233.082031 80.339844 235.296875 77.101562 C 236.246094 75.878906 236.246094 75.878906 237.816406 74.941406 C 239.570312 73.769531 240.691406 72.546875 242.042969 70.929688 C 244.207031 68.472656 246.265625 66.898438 249.125 65.34375 C 250.597656 64.464844 251.394531 63.335938 252.417969 61.972656 C 253.796875 60.8125 255.265625 59.785156 256.730469 58.738281 L 258.214844 57.632812 L 259.761719 56.480469 L 261.195312 55.414062 C 262.652344 54.382812 262.652344 54.382812 264.324219 53.597656 C 265.746094 52.882812 266.796875 52.171875 267.980469 51.125 L 268.953125 50.28125 L 269.664062 49.578125 L 269.664062 49.039062 C 264.382812 48.773438 259.878906 49.800781 255.171875 52.203125 C 254.433594 52.585938 253.699219 52.96875 252.960938 53.355469 C 249.660156 55.066406 246.292969 56.117188 242.714844 57.121094 C 239.964844 58.058594 237.292969 59.1875 234.632812 60.355469 L 233.46875 60.765625 C 230.339844 61.949219 228.644531 63.554688 226.53125 66.121094 C 225.515625 67.304688 224.472656 68.28125 223.28125 69.28125 C 219.863281 72.183594 217.207031 75.65625 214.488281 79.199219 C 213.394531 80.566406 212.171875 81.765625 210.917969 82.988281 C 210.453125 83.570312 209.992188 84.152344 209.539062 84.738281 L 208.222656 86.222656 C 207.101562 86.597656 207.101562 86.597656 206.066406 86.761719 L 206.078125 84.800781 C 206.085938 82.386719 206.09375 79.972656 206.097656 77.558594 C 206.101562 76.515625 206.105469 75.472656 206.109375 74.429688 C 206.117188 72.925781 206.117188 71.425781 206.121094 69.921875 L 206.128906 68.523438 C 206.128906 65.753906 206.035156 63.082031 205.527344 60.355469 C 204.148438 59.277344 204.148438 59.277344 202.835938 58.738281 L 202.984375 59.847656 C 203.207031 61.53125 203.425781 63.21875 203.644531 64.902344 L 203.875 66.648438 C 204.480469 71.34375 204.699219 75.640625 203.914062 80.328125 L 203.609375 82.164062 L 203.375 83.527344 L 202.835938 83.527344 L 202.851562 81.699219 C 202.859375 80.902344 202.863281 80.109375 202.867188 79.316406 L 202.882812 78.113281 C 202.890625 76.359375 202.851562 74.960938 202.296875 73.289062 C 202.183594 72.15625 202.097656 71.023438 202.027344 69.886719 L 201.890625 67.863281 L 201.757812 65.742188 C 201.667969 64.363281 201.578125 62.980469 201.488281 61.601562 L 201.367188 59.742188 C 201.21875 58.199219 201.21875 58.199219 200.679688 56.582031 L 199.0625 57.121094 L 198.523438 60.894531 L 197.445312 60.894531 L 197.421875 59.824219 C 197.21875 51.59375 196.789062 43.371094 196.128906 35.164062 C 196.003906 33.480469 195.871094 31.800781 195.730469 30.117188 L 195.644531 29.007812 C 195.417969 26.421875 194.871094 24.054688 194.210938 21.554688 C 194.085938 20.683594 193.984375 19.808594 193.90625 18.929688 C 193.796875 17.617188 193.726562 16.8125 193.132812 15.628906 L 192.054688 15.628906 C 191.863281 19.605469 192.371094 23.25 193.054688 27.148438 C 194.632812 35.152344 194.632812 35.152344 193.671875 43.109375 L 192.59375 43.648438 C 192.632812 46.351562 192.679688 49.058594 192.734375 51.761719 C 192.753906 52.679688 192.769531 53.597656 192.78125 54.515625 C 192.800781 55.839844 192.828125 57.164062 192.855469 58.488281 L 192.867188 59.726562 C 192.9375 62.3125 193.453125 63.988281 194.75 66.28125 C 195.167969 68.199219 195.355469 69.679688 195.015625 71.617188 C 194.542969 74.703125 194.792969 77.824219 194.917969 80.933594 L 194.976562 82.851562 L 195.046875 84.695312 C 195.066406 85.246094 195.085938 85.796875 195.109375 86.367188 C 195.289062 87.84375 195.671875 88.703125 196.367188 89.992188 C 196.597656 91.449219 196.789062 92.875 196.941406 94.339844 C 197.382812 98.429688 197.382812 98.429688 197.984375 100.230469 L 199.0625 100.230469 L 199.710938 98.835938 L 200.578125 97.03125 L 201.429688 95.234375 L 202.296875 93.765625 L 203.914062 93.226562 L 203.105469 94.875 C 202.234375 96.878906 202.160156 98.582031 202.296875 100.769531 L 203.914062 100.769531 L 204.332031 99.621094 C 205.902344 95.566406 207.898438 92.082031 210.304688 88.492188 C 211.21875 87.113281 212.085938 85.703125 212.90625 84.269531 C 214.09375 82.335938 215.417969 81.390625 217.386719 80.292969 C 216.15625 82.90625 214.6875 85.25 213.074219 87.636719 L 212.359375 88.703125 C 211.425781 90.09375 210.507812 91.453125 209.449219 92.75 C 208.316406 94.425781 208.078125 96.3125 207.652344 98.261719 C 207.066406 99.914062 206.300781 100.707031 204.988281 101.847656 Z M 238.945312 65.742188 C 239.078125 64.710938 239.078125 64.710938 239.484375 63.589844 C 240.28125 62.785156 240.28125 62.785156 241.308594 62.136719 L 242.4375 61.371094 L 243.625 60.589844 L 244.78125 59.804688 C 248.144531 57.546875 251.007812 55.914062 255.113281 55.503906 L 255.652344 57.121094 C 254.492188 58.375 253.335938 59.457031 251.878906 60.355469 C 250.582031 60.5 249.410156 60.425781 248.113281 60.332031 L 247.027344 60.355469 C 245.746094 61.332031 245.746094 61.332031 244.871094 62.511719 C 243.472656 64.097656 241.949219 64.882812 240.023438 65.742188 Z M 270.910156 143.746094 C 272.359375 143.34375 272.359375 143.34375 273.4375 142.804688 L 273.4375 141.1875 L 271.835938 141.085938 C 266.113281 140.605469 261.769531 139.015625 256.730469 136.335938 C 252.5 134.183594 252.5 134.183594 251.339844 134.183594 L 251.339844 133.105469 L 252.644531 133.539062 C 257.738281 135.175781 262.671875 136.433594 268.046875 136.335938 L 268.046875 135.257812 C 265.09375 132.347656 261.320312 130.796875 257.539062 129.265625 L 255.8125 128.550781 C 251.90625 126.976562 248.082031 125.875 243.976562 124.980469 C 241.703125 124.351562 240.011719 123.292969 238.058594 122 C 235.414062 120.4375 232.457031 119.734375 229.40625 119.539062 C 228.273438 119.53125 227.140625 119.578125 226.007812 119.632812 C 227.152344 118.40625 228.289062 117.542969 229.734375 116.695312 L 230.972656 115.957031 L 232.273438 115.1875 C 235.351562 113.339844 238.246094 111.460938 241.027344 109.1875 C 244.109375 106.847656 247.566406 104.949219 251.136719 103.464844 C 253.546875 102.457031 255.535156 101.015625 257.640625 99.488281 C 259.085938 98.476562 260.511719 97.71875 262.117188 97 L 261.882812 95.617188 C 261.964844 93.828125 261.964844 93.828125 262.789062 92.804688 C 265.140625 90.335938 267.742188 88.851562 270.742188 87.300781 C 272.261719 86.464844 273.777344 85.621094 275.289062 84.773438 L 276.449219 84.132812 C 279.242188 82.574219 279.242188 82.574219 280.441406 81.371094 C 280.746094 80.144531 280.746094 80.144531 280.980469 78.710938 C 281.292969 76.832031 281.515625 75.988281 282.597656 74.367188 C 282.703125 72.675781 282.703125 72.675781 282.664062 70.761719 L 282.636719 68.835938 L 282.597656 67.359375 L 281.519531 67.359375 L 281.164062 68.878906 C 280.128906 73.242188 280.128906 73.242188 277.882812 77.058594 C 276.40625 78.546875 274.75 79.789062 273.019531 80.96875 C 271.929688 81.824219 271.089844 82.695312 270.152344 83.707031 C 267.871094 86.023438 265.253906 87.308594 262.355469 88.714844 C 256.804688 91.4375 256.804688 91.4375 254.988281 93.023438 C 253.355469 94.425781 251.773438 95.246094 249.824219 96.15625 C 246.734375 97.636719 243.878906 99.304688 241.097656 101.308594 L 242.175781 100.265625 C 243.058594 99.40625 243.886719 98.496094 244.667969 97.546875 C 247.609375 93.980469 251.015625 91.542969 254.800781 88.964844 C 255.871094 88.226562 256.90625 87.449219 257.941406 86.660156 C 259.519531 85.453125 261.148438 84.339844 262.792969 83.222656 C 265.136719 81.589844 266.730469 80 268.183594 77.53125 C 268.585938 76.519531 268.585938 76.519531 268.585938 74.90625 C 267.675781 74.972656 267.675781 74.972656 266.429688 75.445312 C 265.804688 76.257812 265.175781 77.074219 264.617188 77.9375 L 263.734375 78.675781 L 261.957031 78.890625 C 259.960938 79.214844 259.960938 79.214844 258.332031 80.335938 L 256.761719 81.742188 C 256.199219 82.238281 255.632812 82.734375 255.066406 83.226562 L 253.496094 84.605469 C 252.761719 85.164062 252.019531 85.714844 251.273438 86.253906 C 249.101562 87.847656 247.132812 89.636719 245.148438 91.453125 C 243.875 92.617188 242.574219 93.746094 241.269531 94.878906 C 239.339844 96.585938 237.636719 98.402344 235.976562 100.367188 C 235.136719 101.378906 235.136719 101.378906 233.957031 102.488281 C 233.015625 103.464844 233.015625 103.464844 232.332031 104.671875 C 231.226562 106.433594 229.890625 107.890625 228.46875 109.394531 C 227.046875 110.902344 225.644531 112.398438 224.375 114.039062 C 223.207031 115.449219 222.148438 116.46875 220.621094 117.476562 C 218.824219 117.960938 218.824219 117.960938 216.949219 118.148438 C 216.320312 118.230469 215.695312 118.3125 215.050781 118.394531 L 213.613281 118.554688 L 213.882812 119.53125 C 214.210938 120.769531 214.210938 120.769531 214.152344 122.328125 L 210.917969 122.867188 L 212.535156 125.558594 L 209.839844 126.097656 L 209.839844 127.175781 L 218.871094 129.261719 L 220.789062 129.703125 L 223.851562 130.410156 L 223.851562 131.488281 L 222.238281 131.488281 L 222.238281 133.105469 L 224.089844 133.339844 L 226.007812 133.644531 L 226.546875 134.183594 C 227.535156 134.269531 228.523438 134.332031 229.511719 134.382812 C 232.066406 134.578125 234.164062 135.011719 236.546875 135.898438 C 238.765625 136.636719 241.050781 137.046875 243.335938 137.515625 C 245.496094 137.972656 247.640625 138.480469 249.789062 138.996094 C 253.722656 139.945312 257.675781 140.746094 261.652344 141.464844 C 263.695312 141.851562 265.542969 142.289062 267.441406 143.148438 C 269.125 143.882812 269.125 143.882812 270.910156 143.746094 M 250.800781 137.414062 C 249.65625 137.179688 249.65625 137.179688 248.4375 136.71875 L 247.039062 136.226562 L 245.578125 135.695312 L 244.152344 135.199219 C 238.972656 133.394531 238.972656 133.394531 234.464844 130.375 C 232.242188 128.773438 229.726562 128.324219 227.085938 127.714844 L 227.085938 126.097656 L 228.902344 126.632812 L 230.070312 126.972656 C 230.917969 127.222656 231.761719 127.472656 232.605469 127.722656 C 234.34375 128.238281 236.082031 128.746094 237.828125 129.21875 C 242.605469 130.519531 248.117188 132.761719 251.777344 136.167969 L 252.417969 136.875 Z M 245.546875 129.433594 C 243.136719 128.53125 240.792969 127.933594 238.269531 127.445312 C 236.171875 127.027344 234.394531 126.667969 232.578125 125.527344 C 230.710938 124.390625 229.226562 124.054688 227.09375 123.722656 C 225.949219 123.46875 225.949219 123.46875 225.058594 122.5625 L 224.390625 121.789062 C 225.859375 121.246094 226.738281 121.273438 228.3125 121.492188 L 230.285156 121.921875 L 232.253906 122.335938 C 234.070312 122.773438 234.070312 122.773438 235.414062 123.667969 C 237.1875 124.71875 239.007812 125.070312 241 125.492188 C 244.375 126.261719 246.914062 127.226562 249.722656 129.332031 L 249.183594 130.410156 C 247.792969 130.410156 246.84375 129.945312 245.546875 129.433594 M 220.792969 128.375 L 219.371094 127.75 L 217.929688 127.128906 L 216.847656 126.636719 L 216.847656 125.558594 C 219.789062 125.5 222.566406 125.605469 225.46875 126.097656 L 224.929688 128.253906 C 223.332031 128.710938 222.410156 128.84375 220.792969 128.375 " fill-opacity="1" fill-rule="nonzero"/><path fill="#ddf4b7" d="M 176.964844 298.003906 C 178.289062 297.367188 179.484375 296.617188 180.738281 295.847656 C 182.230469 295.429688 182.230469 295.429688 183.433594 295.308594 C 182.394531 291.484375 180.679688 288.433594 178.546875 285.128906 C 177.46875 283.480469 177.46875 283.480469 176.722656 281.695312 L 175.886719 280.21875 C 174.664062 279.507812 174.664062 279.507812 173.292969 279.074219 C 171.570312 278.476562 170.101562 277.902344 168.609375 276.851562 L 167.265625 275.90625 L 166.1875 275.90625 C 167.03125 277.980469 168.3125 279.261719 169.957031 280.757812 C 171.03125 281.480469 172.109375 282.199219 173.191406 282.914062 C 174.484375 283.800781 174.484375 283.800781 175.347656 285.070312 C 175.679688 286.523438 175.785156 287.878906 175.886719 289.378906 C 174.835938 289.273438 174.835938 289.273438 173.730469 288.839844 L 173.277344 287.871094 C 172.480469 286.355469 171.457031 285.605469 170.125 284.53125 C 167.503906 282.246094 165.910156 279.878906 164.285156 276.824219 C 163.492188 275.367188 163.492188 275.367188 162.578125 274.414062 C 161.808594 273.289062 161.808594 273.289062 161.761719 272.148438 C 161.757812 270.824219 161.820312 269.515625 161.90625 268.195312 L 161.953125 266.839844 C 162.078125 264.621094 162.285156 262.960938 163.488281 261.066406 C 165.710938 257.230469 165.265625 251.988281 165.476562 247.632812 L 165.675781 243.664062 C 165.78125 241.613281 165.882812 239.5625 165.980469 237.511719 C 166.332031 230.414062 166.707031 223.320312 167.246094 216.234375 L 167.363281 214.605469 C 167.625 211.292969 168.152344 208.136719 168.949219 204.910156 C 169.871094 201.148438 170.65625 197.339844 169.957031 193.457031 L 168.339844 192.382812 C 165.578125 194.914062 163.417969 197.671875 161.253906 200.726562 C 160.144531 202.234375 158.941406 203.507812 157.5625 204.777344 C 154.390625 207.777344 151.554688 211.175781 149.5 215.046875 C 149.054688 215.871094 148.585938 216.675781 148.089844 217.472656 C 146.683594 219.835938 145.492188 221.851562 145.402344 224.648438 C 145.515625 226.253906 145.78125 227.027344 146.515625 228.519531 L 147.324219 229.5625 C 152.351562 228.734375 156.765625 226.0625 160.730469 222.960938 L 161.875 222.019531 L 162.414062 224.714844 C 163.554688 222.808594 163.777344 220.972656 164.03125 218.785156 L 165.109375 218.785156 C 164.953125 219.683594 164.796875 220.582031 164.636719 221.480469 L 164.371094 222.996094 C 164.050781 224.757812 164.050781 224.757812 163.46875 226.609375 C 162.488281 230.4375 162.738281 234.5 162.695312 238.421875 L 162.652344 240.332031 L 162.628906 242.0625 C 162.527344 243.601562 162.527344 243.601562 161.601562 244.722656 L 160.796875 245.730469 C 160.679688 247.257812 160.644531 248.65625 160.695312 250.175781 L 160.71875 251.394531 C 160.738281 252.378906 160.765625 253.367188 160.796875 254.351562 L 159.71875 254.890625 L 158.640625 250.042969 L 158.101562 250.042969 C 158.027344 256.019531 158.117188 261.972656 158.394531 267.945312 L 158.476562 269.789062 C 158.59375 272.304688 158.710938 274.824219 158.839844 277.339844 C 158.933594 279.203125 159.019531 281.066406 159.101562 282.933594 L 159.199219 284.660156 L 159.265625 286.257812 L 159.332031 287.65625 L 159.179688 288.839844 C 158.417969 289.8125 158.417969 289.8125 157.5625 290.457031 C 157.898438 291.402344 157.898438 291.402344 158.640625 292.613281 C 160.15625 293.824219 160.15625 293.824219 161.875 294.769531 L 164.570312 294.769531 C 165.65625 295.46875 166.734375 296.191406 167.800781 296.925781 C 170.882812 298.542969 173.582031 298.921875 176.964844 298.003906 M 170.496094 295.308594 L 170.496094 293.152344 L 166.1875 292.613281 L 166.1875 292.074219 C 169.609375 292.371094 173.019531 292.703125 176.425781 293.152344 L 176.425781 295.308594 L 175.886719 295.847656 C 174.007812 295.949219 172.328125 295.726562 170.496094 295.308594 M 171.035156 289.378906 L 169.957031 286.6875 L 171.574219 287.222656 C 171.96875 288.308594 171.96875 288.308594 172.113281 289.378906 Z M 166.726562 286.148438 C 165.8125 285.070312 165.8125 285.070312 165.007812 283.722656 L 164.140625 282.359375 L 163.492188 281.296875 L 164.03125 280.21875 C 166.011719 282.042969 167.253906 283.679688 168.339844 286.148438 Z M 159.71875 218.246094 L 159.71875 217.167969 L 160.796875 217.167969 L 161.234375 215.855469 L 161.875 214.476562 L 163.492188 213.9375 C 163.386719 215.230469 163.386719 215.230469 162.953125 216.628906 C 161.957031 217.636719 161.957031 217.636719 160.796875 218.246094 Z M 162.414062 212.320312 L 162.414062 210.703125 L 164.570312 210.164062 L 164.03125 212.320312 Z M 164.570312 204.777344 L 165.109375 202.082031 L 162.414062 203.699219 L 162.414062 202.082031 C 163.34375 200.816406 163.34375 200.816406 164.535156 199.554688 L 165.730469 198.234375 L 166.726562 197.230469 L 167.265625 197.230469 C 167.199219 198.085938 167.132812 198.9375 167.0625 199.789062 C 167.023438 200.265625 166.984375 200.742188 166.949219 201.230469 C 166.726562 202.613281 166.339844 203.566406 165.648438 204.777344 Z M 164.570312 204.777344 " fill-opacity="1" fill-rule="nonzero"/><path fill="#aed9f5" d="M 153.789062 204.238281 L 154.867188 204.238281 L 155.398438 202.71875 L 156.113281 200.699219 L 156.816406 198.710938 C 157.296875 197.410156 157.816406 196.125 158.371094 194.851562 C 159.289062 192.65625 159.964844 190.460938 160.59375 188.171875 L 160.953125 186.882812 C 161.765625 183.859375 162.261719 180.964844 162.414062 177.832031 L 163.492188 178.371094 L 163.257812 179.277344 C 162.992188 180.65625 162.855469 181.816406 162.953125 183.21875 C 163.824219 184.855469 164.917969 186.183594 166.1875 187.53125 L 165.648438 188.472656 C 165.109375 189.6875 165.109375 189.6875 165.109375 191.84375 C 166.128906 191.703125 166.128906 191.703125 167.265625 191.304688 C 167.808594 190.363281 167.808594 190.363281 168.171875 189.214844 L 168.550781 188.074219 L 168.878906 186.992188 L 169.417969 185.375 L 168.878906 184.835938 C 168.675781 183.367188 168.5 181.902344 168.339844 180.425781 C 168.050781 177.75 167.730469 175.09375 167.265625 172.441406 L 167.027344 170.824219 C 166.726562 169.210938 166.726562 169.210938 166.203125 167.773438 C 165.550781 165.671875 165.28125 163.644531 165.039062 161.460938 L 164.898438 160.261719 C 164.785156 159.292969 164.675781 158.324219 164.570312 157.355469 L 165.648438 157.355469 L 165.847656 158.566406 C 166.1875 160.046875 166.1875 160.046875 166.757812 161.058594 C 167.382812 162.246094 167.382812 162.246094 167.195312 163.855469 C 167.257812 165.828125 167.472656 166.648438 168.207031 168.402344 C 169.695312 172.15625 170.210938 176.078125 170.824219 180.046875 L 171.074219 181.636719 L 171.289062 183.070312 C 171.574219 184.296875 171.574219 184.296875 172.652344 185.914062 L 174.269531 185.375 C 174.101562 184.253906 173.933594 183.128906 173.765625 182.007812 L 173.480469 180.113281 C 173.191406 178.371094 173.191406 178.371094 172.902344 177.28125 C 172.421875 175.222656 172.433594 173.085938 172.320312 170.980469 C 172.109375 169.183594 171.617188 167.683594 171.035156 165.976562 L 171.035156 163.820312 C 172.066406 165.976562 172.753906 167.894531 173.160156 170.253906 C 173.480469 172.042969 173.890625 173.449219 174.777344 175.035156 C 176.136719 177.484375 176.53125 180.074219 177.015625 182.8125 L 177.503906 184.296875 C 178.632812 185.042969 178.632812 185.042969 179.660156 185.375 L 180.199219 184.835938 C 179.980469 182.238281 179.347656 179.964844 178.488281 177.511719 C 177.863281 175.691406 177.347656 173.84375 176.828125 171.992188 C 176.425781 170.824219 176.425781 170.824219 175.347656 169.210938 L 175.375 167.683594 C 175.34375 165.664062 174.808594 164.636719 173.832031 162.878906 C 171.625 158.667969 170.492188 154.550781 169.703125 149.878906 C 169.417969 148.730469 169.417969 148.730469 168.339844 147.113281 L 166.726562 147.113281 L 166.726562 153.042969 L 164.570312 154.121094 L 164.371094 152.605469 L 164.097656 150.652344 L 163.832031 148.699219 L 163.492188 147.113281 L 162.414062 146.574219 L 160.796875 147.113281 L 160.257812 142.265625 L 158.640625 142.265625 C 158.609375 143.984375 158.589844 145.699219 158.574219 147.417969 L 158.546875 148.878906 C 158.53125 151.03125 158.570312 152.804688 159.175781 154.882812 C 159.953125 157.644531 159.851562 160.296875 159.820312 163.148438 L 159.820312 164.8125 C 159.875 171.144531 159.875 171.144531 158.640625 177.292969 C 158.554688 178.605469 158.492188 179.917969 158.4375 181.234375 C 158.171875 186.394531 157.363281 191.339844 155.40625 196.152344 C 155.195312 196.945312 155.003906 197.742188 154.835938 198.542969 L 154.566406 199.804688 C 154.277344 201.277344 154.015625 202.753906 153.789062 204.238281 M 169.957031 161.125 L 169.417969 158.96875 L 170.496094 158.96875 Z M 169.957031 161.125 " fill-opacity="1" fill-rule="nonzero"/><path fill="#fd8c64" d="M 185.589844 147.113281 C 186.921875 146.519531 188.203125 145.855469 189.492188 145.171875 C 191.589844 144.109375 193.765625 143.277344 195.957031 142.429688 C 198.011719 141.457031 199.574219 140.152344 201.148438 138.527344 L 201.757812 137.414062 C 201.589844 135.933594 201.589844 135.933594 201.21875 134.722656 C 198.808594 135.476562 197.550781 136.679688 195.828125 138.492188 C 192.804688 140.878906 189.851562 142.609375 186 143.230469 C 182.683594 143.621094 179.75 143.761719 176.574219 142.621094 C 174.355469 141.386719 172.636719 140.324219 171.175781 138.21875 C 169.757812 135.410156 169.125 132.316406 169.222656 129.175781 C 169.957031 123.75 172.21875 118.566406 174.4375 113.601562 L 174.996094 112.292969 C 175.804688 110.574219 176.515625 109.230469 177.988281 108 C 179.066406 107.304688 180.117188 106.707031 181.277344 106.160156 L 182.550781 105.539062 C 185.382812 104.628906 188.40625 105.355469 191.3125 105.6875 L 193.308594 105.882812 C 197.371094 106.324219 201.332031 106.9375 204.988281 108.855469 C 206.167969 109.917969 207.082031 110.917969 207.988281 112.222656 L 208.761719 113.164062 L 210.378906 113.164062 C 210.75 111.988281 210.75 111.988281 210.917969 110.472656 C 210.203125 108.679688 209.15625 107.53125 207.683594 106.328125 C 205.652344 104.96875 203.710938 104.605469 201.316406 104.253906 C 199.304688 103.960938 197.316406 103.566406 195.324219 103.164062 C 194.652344 103.027344 193.980469 102.894531 193.285156 102.757812 C 192.300781 102.550781 191.3125 102.335938 190.335938 102.082031 C 187.84375 101.488281 185.445312 101.613281 182.972656 102.238281 C 180.65625 103.011719 178.902344 103.730469 177.03125 105.316406 L 175.886719 106.699219 L 174.507812 107.945312 C 173.152344 109.4375 172.429688 110.765625 171.59375 112.574219 C 171.03125 113.714844 170.375 114.710938 169.65625 115.757812 C 167.207031 119.585938 166.382812 124.375 166.117188 128.851562 C 166.019531 132.492188 166.363281 135.621094 168.011719 138.90625 C 169.535156 141.328125 171.0625 143.15625 173.582031 144.539062 C 177.605469 146.523438 181.074219 148.132812 185.589844 147.113281 " fill-opacity="1" fill-rule="nonzero"/><path fill="#aed9f5" d="M 219.542969 116.398438 L 221.160156 115.859375 C 221.683594 115.101562 222.203125 114.335938 222.695312 113.554688 C 223.332031 112.597656 224.03125 111.769531 224.796875 110.910156 C 226.195312 109.328125 227.375 107.664062 228.570312 105.925781 C 230.363281 103.421875 232.226562 101.75 234.683594 99.925781 C 236.746094 98.199219 238.511719 96.253906 240.324219 94.269531 C 242.847656 91.507812 245.308594 88.984375 248.40625 86.847656 L 249.183594 86.222656 L 249.183594 85.144531 L 250.386719 84.730469 C 251.980469 84.019531 252.9375 83.238281 254.203125 82.046875 C 256.082031 80.304688 258.089844 78.71875 260.214844 77.289062 C 261.039062 76.519531 261.039062 76.519531 261.429688 75.351562 L 261.578125 74.367188 C 260.359375 74.507812 260.359375 74.507812 258.886719 74.90625 C 257.832031 75.824219 257.832031 75.824219 256.832031 76.960938 C 255.085938 78.804688 253.539062 79.878906 251.238281 80.910156 C 248.683594 82.117188 246.839844 84.253906 244.871094 86.222656 L 243.523438 87.300781 C 242.058594 88.472656 240.796875 89.730469 239.484375 91.070312 C 238.664062 91.890625 237.84375 92.710938 237.023438 93.53125 C 234.632812 95.921875 234.632812 95.921875 233.472656 97.117188 C 232.546875 98.121094 232.546875 98.121094 231.398438 98.546875 C 229.796875 99.449219 229.167969 100.855469 228.164062 102.386719 C 227.289062 103.550781 226.402344 104.707031 225.503906 105.855469 C 224.03125 107.753906 222.566406 109.648438 221.191406 111.617188 C 220.328125 112.820312 219.519531 113.765625 218.464844 114.78125 Z M 167.265625 79.753906 L 168.878906 79.214844 C 167.324219 76.191406 165.042969 73.785156 162.222656 71.902344 L 160.929688 71.097656 C 159.691406 70.339844 159.691406 70.339844 158.640625 69.515625 C 158.09375 68.441406 157.554688 67.363281 157.023438 66.28125 C 155.6875 65.222656 154.25 64.324219 152.710938 63.589844 L 151.632812 63.589844 L 151.632812 62.511719 L 149.855469 61.582031 C 141.96875 57.464844 141.96875 57.464844 134.386719 52.8125 C 132.671875 52.742188 132.671875 52.742188 131.152344 52.8125 L 131.152344 54.425781 L 131.984375 54.789062 C 133.246094 55.339844 134.507812 55.894531 135.769531 56.449219 L 137.074219 57.015625 C 141.996094 59.144531 141.996094 59.144531 146.277344 62.308594 C 147.878906 63.601562 149.121094 64.148438 151.09375 64.664062 L 151.09375 65.742188 C 152.523438 66.53125 153.195312 66.820312 154.867188 66.820312 L 154.933594 67.730469 C 155.40625 68.976562 155.40625 68.976562 156.6875 70.15625 C 157.335938 70.664062 157.988281 71.167969 158.640625 71.671875 C 163.324219 75.339844 163.324219 75.339844 167.265625 79.753906 " fill-opacity="1" fill-rule="nonzero"/><path fill="#fd8c64" d="M 202.296875 133.105469 C 203.503906 133.078125 203.503906 133.078125 204.988281 132.566406 C 205.882812 131.246094 206.546875 130.085938 207.214844 128.660156 L 207.777344 127.488281 C 209.339844 124.113281 210.546875 120.65625 210.917969 116.9375 C 210.679688 115.394531 210.679688 115.394531 210.378906 114.242188 C 209.382812 114.285156 209.382812 114.285156 208.222656 114.78125 C 207.539062 116.355469 207.539062 116.355469 206.945312 118.417969 C 205.894531 121.917969 204.574219 125.050781 202.90625 128.308594 C 202.238281 130.019531 202.179688 131.28125 202.296875 133.105469 " fill-opacity="1" fill-rule="nonzero"/><path fill="#aed9f5" d="M 199.0625 55.503906 L 200.140625 54.964844 C 200.15625 52.710938 200.164062 50.453125 200.171875 48.195312 L 200.1875 46.265625 C 200.195312 43.171875 200.101562 40.242188 199.601562 37.183594 C 199.464844 35.203125 199.390625 33.21875 199.320312 31.238281 C 199.269531 30.164062 199.167969 29.089844 199.0625 28.023438 L 197.984375 26.40625 L 196.90625 26.40625 C 196.792969 29.8125 196.886719 33.070312 197.410156 36.441406 C 198.097656 41.0625 198.210938 45.683594 198.339844 50.347656 L 198.390625 52.132812 L 198.429688 53.746094 L 198.523438 54.964844 Z M 249.183594 69.515625 C 251.0625 69.332031 252.292969 69.050781 253.917969 68.058594 L 255.382812 66.921875 L 256.953125 65.738281 L 258.347656 64.664062 C 260.390625 63.109375 262.316406 62.207031 264.710938 61.332031 C 268.941406 59.773438 272.832031 57.660156 276.773438 55.492188 C 277.808594 54.9375 278.851562 54.40625 279.902344 53.886719 C 279.082031 53.515625 279.082031 53.515625 277.746094 53.347656 C 276.351562 53.84375 274.980469 54.40625 273.636719 55.035156 L 272.472656 55.5625 C 269.523438 56.910156 266.605469 58.308594 263.734375 59.816406 L 262.5 60.449219 C 260.308594 61.605469 258.386719 62.867188 256.460938 64.429688 C 254.199219 66.253906 251.886719 67.410156 249.183594 68.4375 Z M 278.824219 65.742188 L 279.902344 65.203125 C 280.515625 63.691406 281.007812 62.15625 281.519531 60.609375 L 282.058594 59.277344 L 283.136719 58.738281 L 283.675781 60.355469 L 283.640625 59.425781 C 283.574219 56.621094 283.851562 54.386719 284.753906 51.734375 L 287.449219 51.195312 L 287.449219 50.117188 L 286.203125 49.644531 C 284.671875 49.058594 284.671875 49.058594 283.136719 47.960938 C 282.058594 49.441406 282.058594 49.441406 280.980469 51.195312 L 280.980469 53.347656 L 282.058594 53.347656 C 281.722656 54.550781 281.386719 55.753906 281.050781 56.953125 L 280.480469 58.980469 C 279.957031 60.839844 279.957031 60.839844 279.292969 62.351562 C 278.824219 63.589844 278.824219 63.589844 278.824219 65.742188 M 205.527344 85.683594 L 206.066406 85.683594 C 206.082031 82.769531 206.089844 79.855469 206.097656 76.941406 C 206.101562 75.949219 206.105469 74.960938 206.109375 73.972656 C 206.117188 72.542969 206.117188 71.113281 206.121094 69.683594 L 206.128906 68.359375 C 206.128906 65.644531 206.023438 63.03125 205.527344 60.355469 C 204.148438 59.277344 204.148438 59.277344 202.835938 58.738281 C 202.878906 59.054688 202.921875 59.375 202.964844 59.703125 C 204.128906 68.347656 204.9375 76.980469 205.527344 85.683594 " fill-opacity="1" fill-rule="nonzero"/><path fill="#fd8c64" d="M 186.664062 128.253906 C 188.113281 128.050781 188.113281 128.050781 189.359375 127.714844 C 190.144531 125.269531 190.566406 123.308594 190.4375 120.710938 C 188.929688 120.808594 187.582031 120.898438 186.125 121.25 L 185.320312 122.125 C 184.949219 123.875 184.882812 125.394531 185.050781 127.175781 Z M 186.664062 128.253906 " fill-opacity="1" fill-rule="nonzero"/><path fill="#aed9f5" d="M 271.652344 47.523438 L 273.59375 47.34375 C 275.160156 47.199219 276.722656 47.046875 278.285156 46.882812 C 274.082031 44.671875 268.867188 45.207031 264.207031 45.164062 L 262.832031 45.144531 C 261.695312 45.140625 260.558594 45.199219 259.421875 45.265625 L 258.347656 46.34375 C 262.949219 47.980469 266.828125 48.027344 271.652344 47.523438 M 124.6875 53.886719 L 126.304688 53.347656 C 125.699219 52.609375 125.699219 52.609375 124.6875 51.734375 C 123.039062 51.117188 121.371094 50.640625 119.683594 50.148438 L 118.21875 49.578125 L 117.140625 47.960938 C 115.457031 47.320312 115.457031 47.320312 113.90625 46.882812 L 112.828125 47.960938 L 113.367188 50.117188 L 117.679688 51.195312 L 117.679688 52.8125 C 120.117188 53.417969 120.117188 53.417969 121.488281 53.046875 L 122.53125 52.8125 C 123.253906 53.160156 123.972656 53.519531 124.6875 53.886719 " fill-opacity="1" fill-rule="nonzero"/><path fill="#fd8c64" d="M 181.277344 136.335938 C 183.195312 136.574219 183.195312 136.574219 185.050781 136.335938 C 186.125 135.664062 186.125 135.664062 186.664062 134.722656 C 186.429688 133.582031 186.429688 133.582031 186.125 132.566406 C 185.261719 132.523438 184.398438 132.488281 183.535156 132.464844 L 182.074219 132.40625 L 180.738281 132.566406 C 179.753906 133.378906 179.753906 133.378906 179.121094 134.183594 C 179.964844 135.257812 179.964844 135.257812 181.277344 136.335938 M 193.671875 121.25 C 194.929688 121.269531 196.1875 121.269531 197.445312 121.25 C 198.242188 119.65625 198.015625 118.15625 197.984375 116.398438 L 194.210938 115.859375 C 194.015625 116.65625 193.824219 117.453125 193.640625 118.25 L 193.316406 119.597656 L 193.132812 120.710938 Z M 193.671875 121.25 " fill-opacity="1" fill-rule="nonzero"/><path fill="#aed9f5" d="M 105.285156 114.242188 L 106.902344 113.703125 C 105.277344 112.824219 103.648438 111.949219 102.015625 111.078125 L 100.632812 110.324219 C 98.078125 108.964844 95.710938 107.902344 92.890625 107.238281 L 93.429688 108.855469 C 94.550781 109.539062 94.550781 109.539062 96.015625 110.210938 L 97.609375 110.9375 L 99.289062 111.683594 L 100.953125 112.453125 C 104.019531 113.835938 104.019531 113.835938 105.285156 114.242188 " fill-opacity="1" fill-rule="nonzero"/><path fill="#fd8c64" d="M 180.199219 118.015625 L 183.972656 118.015625 L 183.972656 113.703125 L 180.199219 113.703125 Z M 193.671875 136.335938 L 197.445312 136.335938 L 197.984375 132.566406 C 196.433594 132.464844 196.433594 132.464844 194.75 132.566406 L 193.671875 134.183594 Z M 193.671875 136.335938 " fill-opacity="1" fill-rule="nonzero"/><path fill="#aed9f5" d="M 180.199219 192.921875 L 182.355469 192.921875 C 182.054688 190.785156 181.566406 188.980469 180.738281 186.992188 L 180.738281 185.914062 L 178.582031 186.453125 C 178.75 187.226562 178.917969 188.003906 179.085938 188.777344 L 179.371094 190.085938 C 179.660156 191.304688 179.660156 191.304688 180.199219 192.921875 M 86.960938 103.464844 L 87.914062 103.03125 C 91.496094 101.488281 94.953125 100.738281 98.816406 100.230469 L 98.816406 99.695312 C 94.671875 99.5 90.800781 99.554688 86.960938 101.308594 L 86.421875 102.386719 Z M 86.960938 103.464844 " fill-opacity="1" fill-rule="nonzero"/><path fill="#fd8c64" d="M 190.4375 113.703125 C 191.335938 113.726562 192.234375 113.726562 193.132812 113.703125 L 193.671875 113.164062 C 193.738281 111.546875 193.738281 111.546875 193.671875 109.933594 L 193.132812 109.394531 C 192.234375 109.371094 191.335938 109.371094 190.4375 109.394531 Z M 190.4375 113.703125 " fill-opacity="1" fill-rule="nonzero"/><path fill="#aed9f5" d="M 242.714844 75.445312 C 243.929688 75.308594 243.929688 75.308594 245.410156 74.90625 C 246.691406 73.929688 246.691406 73.929688 247.566406 72.75 L 247.027344 70.59375 L 242.175781 73.828125 Z M 137.082031 99.695312 L 138.160156 97.539062 L 133.847656 93.226562 L 133.308594 95.382812 C 134.082031 96.535156 134.082031 96.535156 135.164062 97.671875 L 136.238281 98.824219 Z M 218.464844 184.835938 L 220.621094 184.296875 C 220.722656 183.019531 220.722656 183.019531 220.621094 181.601562 L 219.003906 180.527344 L 216.847656 180.527344 L 216.847656 181.601562 L 218.464844 181.601562 Z M 218.464844 184.835938 " fill-opacity="1" fill-rule="nonzero"/><path fill="#e7f6cd" d="M 167.800781 285.609375 L 168.878906 283.453125 C 168.367188 282.753906 167.847656 282.058594 167.332031 281.363281 L 166.460938 280.1875 C 165.648438 279.140625 165.648438 279.140625 164.570312 278.0625 C 164.132812 279.242188 164.132812 279.242188 164.03125 280.757812 C 165.277344 282.136719 165.277344 282.136719 166.726562 283.453125 C 167.421875 284.621094 167.421875 284.621094 167.800781 285.609375 " fill-opacity="1" fill-rule="nonzero"/><path fill="#aed9f5" d="M 269.664062 78.136719 C 270.574219 78.035156 270.574219 78.035156 271.820312 77.597656 C 273.300781 76.21875 273.300781 76.21875 274.515625 74.90625 C 270.875 75.375 270.875 75.375 269.664062 75.984375 Z M 198.355469 217.472656 L 199.601562 217.167969 L 199.601562 212.859375 C 198.523438 214.878906 198.523438 214.878906 198.523438 216.09375 L 196.367188 215.554688 L 196.367188 216.628906 L 195.289062 217.167969 C 196.90625 217.707031 196.90625 217.707031 198.355469 217.472656 M 204.449219 47.421875 L 205.527344 46.882812 L 205.527344 42.03125 L 204.449219 41.492188 C 204.347656 42.28125 204.246094 43.066406 204.148438 43.851562 L 203.976562 45.175781 C 203.914062 46.34375 203.914062 46.34375 204.449219 47.421875 " fill-opacity="1" fill-rule="nonzero"/><path fill="#fd8c64" d="M 170.496094 140.109375 L 171.035156 138.492188 L 169.957031 136.875 C 169.621094 137.886719 169.621094 137.886719 169.417969 139.03125 Z M 168.339844 138.492188 L 169.417969 137.953125 C 168.550781 136.492188 167.667969 135.058594 166.726562 133.644531 C 166.863281 134.90625 167.046875 136.164062 167.265625 137.414062 Z M 168.339844 138.492188 " fill-opacity="1" fill-rule="nonzero"/><path fill="#cae5f6" d="M 149.476562 204.777344 L 150.554688 204.238281 L 150.554688 198.847656 L 149.476562 198.308594 Z M 149.476562 204.777344 " fill-opacity="1" fill-rule="nonzero"/><path fill="#aed9f5" d="M 98.277344 107.777344 C 99.363281 107.636719 100.441406 107.453125 101.511719 107.238281 L 102.589844 106.160156 C 100.714844 105.535156 99.648438 105.777344 97.738281 106.160156 Z M 98.277344 107.777344 " fill-opacity="1" fill-rule="nonzero"/><path fill="#cae5f6" d="M 140.855469 162.203125 L 141.933594 161.664062 C 141.960938 160.878906 141.984375 160.09375 142 159.308594 L 142.039062 157.980469 L 141.933594 156.816406 L 140.855469 155.738281 Z M 140.855469 162.203125 " fill-opacity="1" fill-rule="nonzero"/><path fill="#aed9f5" d="M 112.828125 98.617188 C 113.558594 98.273438 114.277344 97.914062 114.984375 97.539062 C 112.550781 97.496094 110.355469 97.484375 107.980469 98.078125 L 107.980469 98.617188 C 109.804688 99.070312 111.042969 99.25 112.828125 98.617188 M 202.296875 36.644531 L 203.375 36.105469 C 203.835938 34.886719 203.933594 34.089844 203.730469 32.796875 L 202.835938 29.636719 L 202.296875 29.636719 Z M 202.296875 36.644531 " fill-opacity="1" fill-rule="nonzero"/><path fill="#fd8c64" d="M 186.664062 128.253906 C 187.84375 128.050781 187.84375 128.050781 188.820312 127.714844 L 187.507812 127.074219 L 186.125 126.097656 C 185.648438 124.703125 185.648438 124.703125 185.589844 123.402344 L 185.050781 123.402344 C 184.949219 125.222656 184.949219 125.222656 185.050781 127.175781 Z M 186.664062 128.253906 " fill-opacity="1" fill-rule="nonzero"/><path fill="#aed9f5" d="M 167.800781 187.53125 L 169.417969 185.914062 C 169.339844 184.695312 169.339844 184.695312 168.980469 183.386719 L 168.632812 182.070312 L 168.339844 181.066406 L 167.800781 181.066406 Z M 216.847656 112.625 C 217.890625 112.1875 217.890625 112.1875 219.003906 111.546875 L 219.542969 109.933594 C 218.53125 110.101562 218.53125 110.101562 217.386719 110.472656 L 216.308594 112.085938 Z M 253.496094 186.992188 L 255.113281 186.992188 L 255.113281 184.835938 L 256.191406 184.835938 L 255.113281 182.679688 L 254.035156 183.21875 L 254.574219 186.453125 Z M 253.496094 186.992188 " fill-opacity="1" fill-rule="nonzero"/><path fill="#cae5f6" d="M 136.003906 188.609375 L 137.082031 188.609375 L 137.082031 183.757812 L 136.003906 184.296875 Z M 136.003906 188.609375 " fill-opacity="1" fill-rule="nonzero"/><path fill="#aed9f5" d="M 172.652344 189.6875 L 174.808594 189.6875 L 174.808594 187.53125 L 172.652344 187.53125 Z M 172.652344 189.6875 " fill-opacity="1" fill-rule="nonzero"/><path fill="#ddf4b7" d="M 168.339844 279.140625 L 169.417969 278.601562 C 169.015625 277.558594 169.015625 277.558594 168.339844 276.445312 C 167.195312 276.042969 167.195312 276.042969 166.1875 275.90625 C 166.808594 277.238281 167.289062 278.089844 168.339844 279.140625 " fill-opacity="1" fill-rule="nonzero"/><path fill="#aed9f5" d="M 208.761719 105.621094 L 210.917969 105.082031 L 211.457031 102.925781 L 209.839844 102.925781 Z M 219.542969 109.933594 C 220.28125 109.234375 221 108.515625 221.699219 107.777344 L 221.699219 106.699219 L 219.542969 107.238281 Z M 209.300781 136.335938 C 210.414062 136.167969 210.414062 136.167969 211.457031 135.796875 L 211.996094 134.722656 L 208.761719 134.722656 L 208.222656 135.796875 Z M 209.300781 136.335938 " fill-opacity="1" fill-rule="nonzero"/><path fill="#e7f6cd" d="M 171.574219 288.300781 L 172.652344 286.6875 L 169.957031 285.070312 L 169.417969 287.222656 L 171.035156 287.222656 Z M 171.574219 288.300781 " fill-opacity="1" fill-rule="nonzero"/><path fill="#aed9f5" d="M 204.988281 58.199219 L 206.066406 56.582031 L 206.066406 54.964844 L 204.449219 54.964844 C 204.429688 55.863281 204.429688 56.761719 204.449219 57.660156 Z M 204.988281 58.199219 " fill-opacity="1" fill-rule="nonzero"/><path fill="#e7f6cd" d="M 159.179688 246.269531 L 159.71875 246.269531 L 159.71875 242.496094 L 158.640625 242.496094 C 158.617188 243.574219 158.617188 244.652344 158.640625 245.730469 Z M 159.179688 246.269531 " fill-opacity="1" fill-rule="nonzero"/><path fill="#ddf4b7" d="M 165.109375 281.296875 L 166.1875 281.296875 L 165.109375 278.0625 L 164.03125 280.21875 Z M 165.109375 281.296875 " fill-opacity="1" fill-rule="nonzero"/><path fill="#aed9f5" d="M 221.160156 91.070312 L 222.238281 91.070312 L 223.3125 89.453125 L 222.773438 87.839844 C 222.214844 88.539062 221.675781 89.257812 221.160156 89.992188 Z M 211.457031 102.386719 L 213.613281 101.308594 L 213.613281 99.695312 L 212.535156 99.695312 Z M 211.457031 102.386719 " fill-opacity="1" fill-rule="nonzero"/><path fill="#cae5f6" d="M 204.449219 53.347656 L 205.527344 52.8125 L 204.988281 50.117188 L 204.449219 50.117188 Z M 204.449219 53.347656 " fill-opacity="1" fill-rule="nonzero"/><path fill="#aed9f5" d="M 244.332031 81.371094 L 245.410156 81.371094 L 245.410156 79.214844 L 243.253906 79.753906 L 244.332031 79.753906 Z M 126.84375 89.453125 L 127.921875 89.453125 L 127.921875 87.839844 L 125.765625 87.300781 Z M 159.71875 113.164062 L 162.414062 113.164062 L 161.335938 111.011719 L 161.335938 112.085938 L 159.71875 112.085938 Z M 159.71875 113.164062 " fill-opacity="1" fill-rule="nonzero"/><path fill="#cae5f6" d="M 196.367188 24.789062 L 197.445312 24.789062 L 197.445312 22.09375 L 196.367188 22.632812 Z M 196.367188 24.789062 " fill-opacity="1" fill-rule="nonzero"/><path fill="#aed9f5" d="M 202.296875 53.347656 L 202.835938 53.347656 L 202.835938 48.5 L 202.296875 48.5 Z M 235.710938 80.292969 L 237.328125 79.753906 L 237.328125 78.675781 L 235.171875 79.214844 Z M 235.710938 80.292969 " fill-opacity="1" fill-rule="nonzero"/><path fill="#cae5f6" d="M 137.621094 176.753906 L 138.699219 176.214844 L 138.699219 174.058594 L 137.621094 174.058594 Z M 139.238281 201.003906 L 140.316406 200.464844 C 140.652344 199.082031 140.652344 199.082031 140.855469 197.769531 C 140.046875 198.476562 140.046875 198.476562 139.238281 199.386719 Z M 139.238281 201.003906 " fill-opacity="1" fill-rule="nonzero"/><path fill="#ddf4b7" d="M 150.554688 208.546875 L 151.632812 208.546875 L 152.171875 206.390625 L 151.09375 205.851562 Z M 150.554688 208.546875 " fill-opacity="1" fill-rule="nonzero"/><path fill="#cae5f6" d="M 136.003906 215.554688 L 137.082031 215.554688 L 136.542969 212.859375 L 136.003906 212.859375 Z M 136.003906 215.554688 " fill-opacity="1" fill-rule="nonzero"/><path fill="#aed9f5" d="M 119.835938 55.503906 L 121.453125 55.503906 L 120.914062 53.886719 L 119.835938 53.886719 Z M 119.835938 55.503906 " fill-opacity="1" fill-rule="nonzero"/><path fill="#cae5f6" d="M 192.59375 68.976562 L 193.671875 68.4375 L 193.132812 66.28125 L 192.59375 66.28125 Z M 192.59375 68.976562 " fill-opacity="1" fill-rule="nonzero"/><path fill="#aed9f5" d="M 100.433594 100.230469 L 103.128906 100.230469 L 102.589844 99.15625 L 100.433594 99.695312 Z M 100.433594 100.230469 " fill-opacity="1" fill-rule="nonzero"/><path fill="#cae5f6" d="M 216.308594 184.296875 L 217.925781 183.757812 L 215.230469 182.679688 Z M 216.308594 184.296875 " fill-opacity="1" fill-rule="nonzero"/><path fill="#aed9f5" d="M 137.082031 218.785156 L 138.160156 218.785156 L 138.160156 216.628906 L 137.082031 216.628906 Z M 194.210938 150.886719 L 195.289062 149.269531 L 193.671875 148.730469 Z M 229.242188 154.660156 L 230.859375 153.582031 L 228.164062 153.042969 Z M 229.242188 154.660156 " fill-opacity="1" fill-rule="nonzero"/><path fill="#cae5f6" d="M 135.464844 194.535156 L 136.542969 194.535156 L 136.003906 192.382812 Z M 135.464844 210.703125 L 136.542969 210.164062 L 136.542969 208.546875 L 135.464844 208.546875 Z M 135.464844 210.703125 " fill-opacity="1" fill-rule="nonzero"/><path fill="#e7f6cd" d="M 161.335938 230.640625 L 162.414062 229.023438 L 161.335938 227.410156 Z M 159.71875 240.878906 L 160.796875 240.339844 L 159.71875 238.1875 Z M 159.71875 240.878906 " fill-opacity="1" fill-rule="nonzero"/><path fill="#aed9f5" d="M 113.367188 52.8125 L 113.367188 51.195312 L 112.289062 50.65625 Z M 113.367188 52.8125 " fill-opacity="1" fill-rule="nonzero"/><path fill="#cae5f6" d="M 282.058594 65.203125 L 283.136719 64.664062 L 282.597656 63.050781 Z M 217.386719 94.84375 L 219.003906 94.84375 L 219.003906 93.765625 L 217.386719 93.765625 Z M 226.007812 100.230469 L 227.625 99.695312 L 227.625 98.617188 L 226.546875 98.617188 Z M 226.007812 100.230469 " fill-opacity="1" fill-rule="nonzero"/><path fill="#aed9f5" d="M 185.589844 107.777344 L 186.664062 107.777344 L 186.125 106.160156 L 185.050781 107.238281 Z M 107.441406 109.933594 L 108.519531 109.933594 L 108.519531 108.316406 L 107.441406 108.316406 Z M 107.441406 109.933594 " fill-opacity="1" fill-rule="nonzero"/><path fill="#cae5f6" d="M 145.707031 204.777344 L 146.785156 204.238281 L 146.246094 202.621094 Z M 172.113281 63.589844 L 173.191406 63.050781 L 173.191406 61.972656 L 172.113281 61.972656 Z M 214.691406 98.078125 L 216.308594 98.078125 L 216.308594 97 L 214.691406 97.539062 Z M 102.050781 109.933594 L 103.128906 109.933594 L 102.589844 108.316406 Z M 137.082031 180.527344 L 138.160156 179.449219 L 137.082031 178.371094 Z M 137.082031 180.527344 " fill-opacity="1" fill-rule="nonzero"/><path fill="#e7f6cd" d="M 160.257812 235.492188 L 161.335938 234.953125 L 161.335938 233.875 L 160.257812 233.875 Z M 160.257812 235.492188 " fill-opacity="1" fill-rule="nonzero"/><path fill="#cae5f6" d="M 201.21875 28.5625 L 202.296875 28.5625 L 202.296875 27.484375 L 201.21875 27.484375 Z M 113.90625 71.671875 L 114.984375 71.671875 L 114.984375 70.59375 L 113.90625 70.59375 Z M 239.484375 77.058594 L 241.097656 76.519531 L 239.484375 76.519531 Z M 223.3125 104.003906 L 224.390625 104.003906 L 224.390625 102.925781 L 223.3125 102.925781 Z M 222.238281 105.082031 L 223.3125 105.082031 L 223.3125 104.003906 L 222.238281 104.003906 Z M 222.238281 105.082031 " fill-opacity="1" fill-rule="nonzero"/><path fill="#aed9f5" d="M 140.316406 165.976562 L 140.855469 163.820312 Z M 140.316406 165.976562 " fill-opacity="1" fill-rule="nonzero"/><path fill="#cae5f6" d="M 168.878906 188.609375 L 169.957031 188.609375 L 169.957031 187.53125 L 168.878906 187.53125 Z M 134.925781 203.160156 L 134.925781 201.542969 Z M 170.496094 55.503906 L 171.574219 55.503906 L 171.035156 54.425781 Z M 169.417969 70.054688 L 170.496094 69.515625 L 169.417969 68.976562 Z M 243.253906 84.066406 L 244.332031 84.066406 L 243.792969 82.988281 Z M 224.390625 86.761719 L 225.46875 86.761719 L 224.929688 85.683594 Z M 229.78125 95.921875 L 230.859375 95.382812 L 229.78125 94.84375 Z M 100.972656 104.542969 L 101.511719 103.464844 L 100.433594 104.003906 Z M 90.195312 106.699219 L 91.273438 106.699219 L 90.734375 105.621094 Z M 231.398438 155.199219 L 233.015625 154.660156 Z M 199.601562 172.980469 L 200.679688 171.902344 L 199.601562 171.902344 Z M 199.601562 172.980469 " fill-opacity="1" fill-rule="nonzero"/><path fill="#aed9f5" d="M 237.328125 184.835938 L 238.945312 184.296875 Z M 237.328125 184.835938 " fill-opacity="1" fill-rule="nonzero"/><path fill="#cae5f6" d="M 169.957031 190.226562 L 171.035156 189.148438 L 169.957031 189.148438 Z M 170.496094 191.84375 L 171.574219 190.765625 L 170.496094 190.765625 Z M 254.035156 196.691406 L 255.652344 196.152344 Z M 237.867188 77.597656 L 238.945312 77.058594 Z M 213.613281 98.617188 L 214.691406 98.078125 Z M 240.023438 156.816406 L 241.097656 156.277344 Z M 240.023438 156.816406 " fill-opacity="1" fill-rule="nonzero"/><path fill="#aed9f5" d="M 279.363281 158.429688 L 280.441406 157.894531 Z M 279.363281 158.429688 " fill-opacity="1" fill-rule="nonzero"/><path fill="#cae5f6" d="M 139.238281 168.671875 L 140.316406 168.132812 Z M 247.566406 195.074219 L 248.644531 194.535156 Z M 250.261719 196.152344 L 251.339844 195.613281 Z M 250.261719 196.152344 " fill-opacity="1" fill-rule="nonzero"/></svg>