<svg xmlns="http://www.w3.org/2000/svg" xmlns:xlink="http://www.w3.org/1999/xlink" width="503" zoomAndPan="magnify" viewBox="0 0 377.25 347.249998" height="463" preserveAspectRatio="xMidYMid meet" version="1.0"><path fill="#fda4ca" d="M 261.757812 60.394531 C 262.808594 60.839844 262.808594 60.839844 264.097656 61.800781 C 264.882812 63.113281 265.433594 64.503906 266 65.921875 C 266.304688 66.667969 266.613281 67.414062 266.921875 68.15625 L 267.324219 69.152344 C 267.847656 70.296875 267.847656 70.296875 268.726562 71.542969 C 269.777344 73.128906 270.628906 74.765625 271.460938 76.472656 L 272.449219 78.472656 L 272.957031 79.503906 C 273.761719 81.113281 274.574219 82.71875 275.402344 84.316406 L 275.890625 85.265625 C 276.386719 86.226562 276.882812 87.191406 277.382812 88.152344 L 277.902344 89.164062 C 280.15625 93.53125 282.417969 97.890625 284.71875 102.234375 C 285.441406 103.59375 286.152344 104.953125 286.835938 106.332031 C 287.699219 108.050781 288.65625 109.707031 289.613281 111.375 C 290.183594 112.542969 290.585938 113.597656 290.972656 114.828125 C 291.691406 117.066406 292.699219 119.0625 293.828125 121.121094 L 294.382812 122.152344 C 295.121094 123.523438 295.855469 124.863281 296.710938 126.164062 C 297.539062 127.691406 297.878906 129.269531 298.246094 130.949219 C 298.742188 133.109375 299.246094 135.078125 300.265625 137.0625 C 301.261719 139.066406 301.117188 140.777344 301.03125 142.976562 C 301.007812 144.292969 301.007812 144.292969 301.902344 145.777344 L 302.421875 146.546875 C 303.828125 148.914062 304.433594 151.792969 305.25 154.410156 C 306.109375 157.105469 307.117188 159.671875 308.28125 162.246094 C 309.824219 165.660156 311.011719 169.136719 312.167969 172.695312 C 313.09375 175.546875 314.214844 178.289062 315.457031 181.019531 C 317.152344 184.769531 318.46875 188.335938 319.34375 192.375 C 319.582031 193.324219 319.824219 194.269531 320.074219 195.210938 L 320.398438 196.457031 C 320.730469 197.636719 320.730469 197.636719 321.683594 198.925781 C 321.914062 199.890625 321.914062 199.890625 322.09375 201.003906 C 322.824219 204.914062 324.222656 208.5625 325.722656 212.238281 C 326.753906 214.84375 327.230469 217.308594 327.511719 220.09375 C 327.796875 221.527344 328.289062 222.128906 329.175781 223.265625 C 329.46875 224.339844 329.46875 224.339844 329.644531 225.488281 C 329.90625 226.980469 330.210938 228.328125 330.785156 229.730469 C 331.453125 231.375 331.824219 233.019531 332.191406 234.761719 C 332.570312 236.515625 332.902344 237.949219 333.914062 239.441406 C 335.007812 241.441406 335.019531 243.046875 335.128906 245.292969 C 335.253906 246.582031 335.5 247.523438 335.992188 248.710938 C 336.65625 250.386719 336.921875 251.441406 336.667969 253.21875 C 335.246094 254.164062 334.703125 254.304688 333.066406 254.445312 L 331.921875 254.550781 L 331.046875 254.621094 L 330.578125 253.21875 L 331.046875 251.8125 C 331.3125 249.234375 331.023438 247.207031 330.011719 244.839844 C 329.597656 243.734375 329.402344 242.675781 329.203125 241.515625 C 328.925781 239.984375 328.582031 238.824219 327.800781 237.480469 C 326.800781 235.667969 326.492188 233.824219 326.160156 231.804688 C 325.597656 228.40625 324.605469 225.441406 323.089844 222.328125 L 322.621094 221.289062 C 322.15625 220.285156 322.15625 220.285156 321.214844 219.050781 C 319.765625 218.347656 319.765625 218.347656 318.40625 218.117188 C 319.285156 215.835938 319.285156 215.835938 319.8125 215.308594 C 319.835938 211.660156 319.398438 208.410156 318.019531 205.039062 C 317.199219 202.902344 316.605469 200.710938 315.992188 198.507812 C 315.386719 196.378906 314.601562 194.410156 313.726562 192.375 C 313.148438 190.765625 312.617188 189.144531 312.085938 187.519531 L 311.667969 186.25 L 311.253906 184.992188 L 310.84375 183.753906 C 310.585938 182.964844 310.332031 182.175781 310.082031 181.386719 C 309.441406 179.378906 308.730469 177.609375 307.640625 175.789062 C 306.496094 173.765625 305.730469 171.855469 305.128906 169.617188 C 304.851562 168.589844 304.519531 167.605469 304.15625 166.605469 C 303.585938 164.9375 303.183594 163.261719 302.800781 161.542969 C 302.097656 158.359375 301.269531 155.296875 300.117188 152.242188 L 299.769531 151.3125 C 299.105469 149.601562 298.308594 148.070312 297.339844 146.507812 L 296.664062 144.902344 C 295.996094 143.238281 295.996094 143.238281 295.027344 141.886719 C 294.25 140.710938 293.726562 139.714844 293.183594 138.4375 C 291.835938 135.289062 290.066406 132.371094 287.976562 129.660156 L 288.320312 130.472656 C 289.480469 133.28125 290.394531 136.097656 291.195312 139.03125 C 291.773438 140.566406 292.539062 141.515625 293.59375 142.765625 C 295.472656 146.027344 297.023438 149.476562 297.75 153.179688 C 298.109375 154.9375 298.699219 156.476562 299.417969 158.121094 C 300.425781 160.457031 301.101562 162.730469 301.671875 165.203125 C 302.160156 167.207031 302.785156 169.164062 303.40625 171.132812 C 304.097656 173.378906 304.714844 175.644531 305.332031 177.914062 C 305.71875 179.339844 305.71875 179.339844 306.703125 180.675781 C 306.738281 181.765625 306.742188 182.859375 306.703125 183.949219 L 305.765625 184.417969 C 304.007812 183.933594 302.546875 183.164062 301.085938 182.078125 C 299.210938 179.382812 298.421875 176.113281 297.65625 172.957031 C 297.363281 171.777344 297.363281 171.777344 296.878906 170.671875 C 296.292969 169.164062 296 167.664062 295.671875 166.078125 C 294.734375 161.832031 293.3125 157.78125 291.84375 153.695312 C 290.84375 150.902344 289.945312 148.121094 289.210938 145.246094 C 288.789062 143.726562 288.148438 142.332031 287.507812 140.894531 C 287.230469 140.113281 286.957031 139.335938 286.6875 138.554688 C 285.785156 136.03125 284.679688 133.644531 283.527344 131.230469 C 282.554688 129.171875 281.726562 127.121094 280.953125 124.980469 C 280.507812 123.960938 280.054688 122.941406 279.59375 121.929688 C 279.019531 120.632812 278.476562 119.328125 277.9375 118.019531 C 277.179688 116.179688 276.378906 114.355469 275.539062 112.550781 C 274.382812 110.035156 273.429688 107.46875 272.523438 104.855469 C 273.003906 107.28125 273.59375 109.566406 274.5 111.863281 C 274.886719 112.863281 275.230469 113.871094 275.566406 114.890625 L 275.921875 115.957031 C 276.152344 116.65625 276.371094 117.359375 276.589844 118.0625 C 277.328125 120.417969 278.292969 122.535156 279.425781 124.726562 C 280.371094 126.636719 281.128906 128.609375 281.886719 130.597656 L 282.265625 131.542969 C 282.964844 133.320312 283.496094 135.089844 283.964844 136.945312 C 284.453125 138.800781 285.078125 140.222656 286.113281 141.851562 C 286.9375 143.496094 287.25 145.296875 287.640625 147.085938 C 287.910156 148.347656 287.910156 148.347656 288.453125 149.273438 C 289.125 150.710938 289.203125 152.132812 289.378906 153.707031 C 289.644531 156.171875 289.644531 156.171875 290.332031 158.542969 C 291.035156 160.933594 290.96875 163.335938 291.019531 165.816406 C 291.101562 169.96875 291.335938 173.902344 292.65625 177.867188 C 292.75 178.695312 292.828125 179.523438 292.890625 180.351562 C 293.011719 181.832031 293.164062 183.222656 293.445312 184.683594 L 293.59375 185.824219 L 292.65625 186.757812 L 290.785156 186.757812 L 290.609375 185.265625 C 290.351562 183.699219 290.097656 182.542969 289.378906 181.144531 C 288.433594 180.078125 288.433594 180.078125 287.507812 179.269531 L 288.441406 176.929688 L 286.570312 176.460938 L 286.660156 175.292969 C 286.566406 173.601562 286.199219 172.449219 285.566406 170.90625 C 284.546875 168.363281 283.980469 165.902344 283.554688 163.210938 C 283.078125 160.335938 282.464844 157.667969 281.421875 154.933594 C 281.574219 159.53125 282.292969 163.695312 283.445312 168.125 C 283.886719 169.824219 284.304688 171.53125 284.726562 173.234375 L 284.972656 174.230469 C 286.390625 179.957031 287.140625 185.425781 287.347656 191.320312 C 287.449219 194.191406 287.636719 197.035156 287.945312 199.894531 L 288.050781 200.929688 C 288.261719 202.738281 288.609375 204.292969 289.378906 205.949219 C 292.378906 205.679688 295.144531 205.148438 298.039062 204.339844 C 298.785156 204.132812 299.53125 203.929688 300.28125 203.726562 C 300.640625 203.628906 301.003906 203.527344 301.375 203.425781 C 302.871094 203.039062 304.378906 202.722656 305.890625 202.410156 L 306.703125 202.203125 L 307.171875 201.734375 C 307.085938 198.574219 306.441406 195.457031 305.765625 192.375 L 307.171875 191.4375 C 308.910156 192.949219 309.664062 194.46875 310.535156 196.585938 L 311.257812 198.3125 C 312.230469 200.851562 312.410156 202.773438 312.320312 205.480469 L 311.851562 205.949219 L 310.175781 205.925781 C 308.1875 205.902344 306.390625 206.269531 304.480469 206.796875 L 302.503906 207.316406 L 301.53125 207.578125 C 300.257812 207.914062 298.972656 208.214844 297.691406 208.523438 C 293.453125 209.570312 293.453125 209.570312 289.378906 211.097656 L 288.457031 212.121094 L 287.507812 212.96875 C 286.570312 212.816406 285.632812 212.660156 284.699219 212.5 C 282.769531 212.878906 280.910156 213.550781 279.046875 214.164062 C 276.214844 215.042969 273.441406 215.535156 270.511719 215.929688 C 265.175781 216.660156 260.082031 218.070312 254.910156 219.550781 C 253.550781 219.933594 252.191406 220.3125 250.835938 220.695312 C 250 220.925781 249.164062 221.164062 248.332031 221.402344 C 244.578125 222.460938 240.878906 223.316406 236.972656 223.46875 C 234.070312 223.652344 231.199219 223.957031 228.515625 225.136719 C 227.453125 226.074219 227.453125 226.074219 226.640625 227.007812 C 225.941406 226.363281 225.941406 226.363281 225.238281 225.605469 L 225.238281 224.667969 C 219.851562 224.476562 214.351562 225.03125 209.320312 227.007812 L 208.382812 232.625 C 210.433594 232.964844 212.210938 233.179688 214.265625 233.210938 L 215.816406 233.246094 C 217.449219 233.074219 218.25 232.554688 219.621094 231.6875 L 223.363281 231.6875 C 224.160156 231.246094 224.941406 230.777344 225.707031 230.285156 C 227.023438 230.195312 227.023438 230.195312 228.046875 230.285156 L 228.515625 232.15625 L 229.429688 231.796875 C 234.1875 229.984375 238.839844 228.621094 243.964844 228.878906 L 243.496094 232.15625 C 241.519531 233.019531 239.503906 233.539062 237.410156 234.027344 L 236.496094 234.261719 C 234.492188 234.75 232.515625 235.050781 230.464844 235.269531 C 227.433594 235.59375 224.871094 236.136719 222.082031 237.417969 C 220.242188 238.03125 218.6875 237.667969 216.808594 237.304688 L 216.34375 235.902344 C 214.800781 235.785156 214.800781 235.785156 213.066406 235.902344 C 212.28125 236.367188 211.503906 236.835938 210.722656 237.304688 C 206.921875 238.589844 203.117188 238.839844 199.136719 238.855469 L 197.914062 238.863281 C 194.871094 238.828125 191.484375 238.6875 188.71875 237.304688 C 185.964844 237.105469 182.996094 237.195312 180.292969 237.773438 L 178.886719 238.707031 C 177.628906 238.765625 177.628906 238.765625 176.546875 238.707031 L 176.078125 237.304688 C 176.734375 236.246094 177.574219 235.421875 178.417969 234.496094 L 173.738281 235.902344 L 174.207031 238.242188 L 173.738281 238.707031 C 172.644531 238.726562 171.550781 238.726562 170.460938 238.707031 L 170.109375 239.761719 C 169.457031 241.195312 168.835938 241.894531 167.652344 242.921875 C 166.441406 243.449219 166.441406 243.449219 165.132812 243.855469 C 163.550781 244.386719 162.453125 244.828125 161.066406 245.789062 C 159.699219 246.660156 158.972656 246.851562 157.410156 247.105469 C 155.722656 247.382812 154.636719 247.746094 153.253906 248.742188 C 151.105469 250.246094 148.792969 250.53125 146.242188 250.9375 C 144.535156 251.390625 143.703125 252.101562 142.367188 253.21875 C 141.445312 253.324219 140.519531 253.425781 139.59375 253.503906 C 138.492188 253.710938 137.898438 254.070312 136.984375 254.707031 C 135.1875 255.941406 133.292969 256.652344 131.25 257.371094 C 128.78125 258.238281 126.628906 259.210938 124.402344 260.617188 C 122.621094 261.726562 121.351562 262.300781 119.25 262.429688 L 118.101562 262.46875 C 116.539062 262.636719 115.542969 263.5625 114.277344 264.449219 C 113.539062 264.609375 112.796875 264.746094 112.054688 264.859375 C 110.984375 265.039062 110.984375 265.039062 110.0625 265.386719 C 109.132812 266.945312 109.078125 268.378906 109.011719 270.152344 C 108.980469 271.96875 108.980469 271.96875 110.0625 273.34375 L 110.0625 274.746094 C 109.242188 274.6875 109.242188 274.6875 108.191406 274.277344 C 107.128906 273.066406 106.457031 272 106.046875 270.429688 C 105.796875 268.792969 105.742188 267.582031 106.257812 266 C 108.179688 263.910156 110.5 262.484375 113.136719 261.464844 L 114.277344 261.171875 C 113.738281 259.964844 113.210938 259.15625 112.316406 258.160156 L 111.46875 256.960938 C 111.460938 255.808594 111.460938 255.808594 111.9375 254.621094 C 113.234375 253.839844 113.234375 253.839844 114.921875 253.128906 C 118.402344 251.558594 121.074219 249.515625 123.640625 246.664062 L 124.109375 245.261719 C 121.523438 245.097656 119.421875 245.261719 117.003906 246.21875 C 116.003906 246.738281 115.175781 247.390625 114.277344 248.070312 C 112.074219 249.375 109.90625 250.632812 107.460938 251.402344 L 106.316406 251.8125 L 105.894531 252.707031 C 105.382812 253.683594 105.382812 253.683594 104.550781 254.28125 L 103.539062 254.796875 C 102.3125 255.429688 101.101562 256.066406 99.910156 256.765625 C 97.382812 258.238281 95.230469 259.171875 92.316406 259.527344 L 91.335938 259.769531 C 91.097656 260.007812 90.863281 260.25 90.617188 260.496094 L 89.929688 261.171875 L 88.058594 261.171875 L 88.058594 266.789062 L 86.1875 267.726562 C 84.566406 267.269531 83.261719 266.457031 81.972656 265.386719 C 81.328125 263.835938 81.328125 263.835938 81.503906 262.109375 C 82.160156 260.761719 82.945312 259.5625 83.84375 258.367188 L 82.761719 257.984375 C 81.503906 257.429688 81.503906 257.429688 80.890625 256.640625 L 80.097656 256.027344 C 77.285156 256.1875 75.113281 256.882812 72.578125 258.074219 L 70.691406 258.933594 L 69.773438 259.355469 C 68.390625 259.984375 66.988281 260.578125 65.585938 261.171875 C 65.730469 264.921875 66.714844 268.324219 67.808594 271.886719 C 69.546875 277.585938 70.691406 283.03125 71.1875 288.992188 C 71.535156 292.945312 72.359375 296.59375 73.554688 300.375 C 74.371094 303.015625 74.605469 305.207031 74.480469 307.976562 L 72.609375 307.976562 C 71.667969 304.917969 70.804688 301.835938 70.023438 298.730469 L 69.699219 297.457031 C 69.359375 296.128906 69.023438 294.796875 68.6875 293.464844 C 68.246094 291.722656 67.804688 289.976562 67.359375 288.230469 L 67.03125 286.941406 C 66.507812 284.875 65.957031 282.816406 65.375 280.769531 L 65.046875 279.621094 C 64.84375 278.917969 64.636719 278.21875 64.425781 277.519531 C 63.820312 275.425781 63.574219 273.496094 63.539062 271.324219 C 63.425781 268.179688 62.675781 265.441406 61.695312 262.460938 L 61.273438 261.160156 L 60.851562 259.9375 L 60.472656 258.847656 C 59.867188 257.707031 59.167969 257.191406 58.09375 256.492188 L 58.328125 255.558594 C 58.90625 252.082031 58.453125 249.566406 57.289062 246.269531 C 56.480469 244.277344 55.488281 242.398438 54.496094 240.496094 C 53.789062 238.976562 53.460938 237.566406 53.175781 235.929688 C 52.925781 234.890625 52.535156 234.136719 52.007812 233.210938 C 51.097656 231.546875 50.859375 230.054688 50.632812 228.179688 C 50.382812 226.242188 50.152344 224.902344 48.996094 223.324219 C 47.378906 221.113281 47.136719 218.550781 46.707031 215.914062 C 46.480469 214.316406 46.480469 214.316406 45.453125 212.96875 C 44.992188 211.515625 44.589844 210.046875 44.1875 208.578125 C 43.6875 207.179688 43.167969 206.132812 42.421875 204.871094 C 41.136719 202.636719 40.570312 200.441406 40.039062 197.933594 C 39.402344 194.945312 38.660156 192.625 37.027344 190.035156 C 35.414062 187.066406 34.117188 184 32.886719 180.855469 C 32.179688 179.0625 31.421875 177.328125 30.527344 175.621094 C 29.328125 173.269531 28.25 170.855469 27.140625 168.460938 C 26.753906 167.632812 26.363281 166.804688 25.972656 165.976562 C 24.542969 162.941406 23.246094 159.847656 22.082031 156.703125 C 21.632812 155.449219 21.632812 155.449219 21.078125 154.546875 C 20.515625 153.238281 20.394531 151.992188 20.222656 150.582031 C 19.738281 146.605469 18.824219 143.3125 17.09375 139.703125 C 16.082031 137.558594 15.546875 135.679688 15.386719 133.320312 L 15.488281 132.46875 L 16.425781 131.535156 C 17.363281 131.621094 17.363281 131.621094 18.296875 132 L 19.234375 133.40625 C 20.320312 133.308594 20.320312 133.308594 21.574219 132.9375 L 22.613281 132.085938 C 24.101562 130.921875 25.660156 130.144531 27.371094 129.367188 C 27.667969 129.226562 27.964844 129.089844 28.269531 128.945312 C 30.214844 128.046875 32.152344 127.441406 34.21875 126.851562 L 35.621094 125.917969 C 36.238281 125.683594 36.863281 125.46875 37.496094 125.273438 C 39.105469 124.753906 40.707031 124.199219 42.292969 123.605469 C 44.167969 122.917969 46.054688 122.304688 47.96875 121.734375 C 50.058594 121.105469 52.117188 120.382812 54.144531 119.570312 C 56.542969 118.621094 58.914062 117.957031 61.421875 117.371094 C 63.652344 116.800781 65.777344 115.96875 67.925781 115.152344 C 74.210938 112.8125 74.210938 112.8125 76.878906 112.257812 C 78.582031 111.984375 78.582031 111.984375 79.566406 111.421875 C 80.832031 110.8125 82.011719 110.617188 83.394531 110.371094 C 86.832031 109.726562 90.230469 108.925781 93.628906 108.101562 C 94.175781 107.96875 94.722656 107.839844 95.285156 107.703125 C 97.566406 107.152344 99.84375 106.601562 102.125 106.046875 C 107.96875 104.617188 113.710938 103.25 119.710938 102.675781 C 121.738281 102.472656 123.679688 102.089844 125.660156 101.609375 L 126.625 101.386719 C 127.660156 101.144531 128.695312 100.898438 129.726562 100.644531 L 131.015625 100.34375 C 134.574219 99.492188 138.003906 98.386719 141.460938 97.191406 C 148.363281 94.855469 155.171875 92.960938 162.34375 91.695312 C 167.394531 90.730469 172.679688 89.386719 177.484375 87.539062 C 178.359375 86.605469 178.359375 86.605469 178.886719 85.667969 L 179.910156 85.894531 C 184.34375 86.707031 188.261719 85.804688 192.523438 84.554688 C 193.566406 84.257812 194.613281 83.964844 195.65625 83.667969 L 197.15625 83.238281 C 198.386719 82.902344 199.609375 82.625 200.859375 82.375 C 202.605469 82.003906 204.011719 81.375 205.574219 80.488281 C 207.65625 79.398438 209.210938 78.890625 211.535156 78.769531 C 214.121094 78.472656 216.589844 77.246094 218.988281 76.269531 C 221.863281 75.140625 224.542969 74.632812 227.601562 74.257812 C 229.699219 73.964844 231.710938 73.402344 233.753906 72.855469 C 241.273438 70.890625 249.0625 69.632812 256.839844 69.492188 L 258.011719 69.453125 C 259.078125 69.460938 259.078125 69.460938 260.820312 69.753906 C 261.65625 70.765625 261.65625 70.765625 262.222656 72.09375 L 263.097656 73.441406 C 264.742188 76 266.113281 78.359375 267.109375 81.25 C 268.3125 84.644531 270.246094 87.128906 272.523438 89.878906 C 272.523438 87.941406 271.621094 86.554688 270.738281 84.878906 C 269.433594 82.378906 268.324219 79.898438 267.375 77.242188 C 265.296875 71.597656 265.296875 71.597656 262.75 66.15625 C 261.800781 64.351562 261.375 62.902344 261.289062 60.863281 Z M 213.066406 81.921875 C 212.777344 87.378906 213.929688 92.925781 216.34375 97.835938 L 217.132812 99.035156 C 217.921875 100.503906 218 101.8125 218.117188 103.457031 C 218.164062 104.421875 218.164062 104.421875 218.683594 105.324219 L 221.023438 105.324219 L 221.023438 96.433594 L 224.300781 95.027344 C 224.933594 93.132812 224.957031 91.40625 224.605469 89.433594 C 224.386719 88.484375 224.148438 87.542969 223.890625 86.605469 L 223.644531 85.648438 C 223.117188 83.617188 222.542969 81.601562 221.960938 79.582031 C 218.488281 78.480469 216.082031 80.214844 213.066406 81.921875 M 227.578125 77.710938 C 227.289062 78.761719 227.09375 79.464844 227.253906 80.550781 L 227.519531 81.515625 L 227.78125 82.484375 C 228.035156 83.363281 228.035156 83.363281 228.515625 84.261719 C 228.660156 85.355469 228.753906 86.445312 228.851562 87.542969 L 228.984375 88.476562 L 229.453125 88.945312 C 229.488281 89.933594 229.519531 90.921875 229.539062 91.910156 C 229.585938 96.34375 229.585938 96.34375 231.121094 100.4375 L 231.761719 101.488281 C 232.367188 102.734375 232.371094 103.597656 232.320312 104.972656 L 232.207031 106.0625 C 232.28125 107.605469 232.972656 108.636719 233.664062 110.003906 C 233.925781 111.351562 233.925781 111.351562 234.074219 112.8125 C 234.621094 117.160156 235.65625 121.386719 236.664062 125.648438 C 237.011719 127.171875 237.347656 128.699219 237.667969 130.226562 C 237.855469 131.105469 237.855469 131.105469 238.347656 132 C 238.476562 133.519531 238.554688 135.039062 238.636719 136.558594 C 238.742188 138.054688 238.742188 138.054688 239.289062 139.246094 C 239.886719 140.765625 239.882812 142.070312 239.925781 143.703125 C 240.078125 147.058594 240.613281 150.242188 241.285156 153.53125 C 242.230469 158.253906 242.917969 163.015625 243.613281 167.78125 C 244.203125 171.792969 244.203125 171.792969 244.957031 175.773438 C 245.347656 177.628906 245.503906 179.421875 245.574219 181.320312 C 245.726562 184.144531 246.191406 186.675781 246.996094 189.382812 L 247.242188 190.503906 L 246.773438 191.90625 C 246.699219 193.570312 246.636719 195.234375 246.613281 196.898438 C 246.546875 198.726562 246.417969 199.683594 245.429688 201.277344 L 244.433594 202.203125 C 243.144531 202.351562 243.144531 202.351562 242.09375 202.203125 L 241.9375 201.378906 L 241.710938 200.273438 L 241.496094 199.1875 C 241.191406 197.929688 241.191406 197.929688 240.402344 196.699219 C 239.566406 194.75 239.808594 193.1875 240.042969 191.148438 C 240.617188 184.421875 238.972656 177.9375 237.601562 171.390625 C 237.167969 169.292969 236.816406 167.253906 236.679688 165.113281 C 236.574219 163.664062 236.449219 162.277344 236.210938 160.84375 C 236.007812 159.613281 236.007812 159.613281 236.058594 158.289062 C 236 156.667969 235.644531 155.773438 234.941406 154.328125 C 233.351562 150.703125 232.707031 146.984375 231.996094 143.117188 C 231.085938 137.535156 231.085938 137.535156 228.953125 132.351562 C 228.117188 130.792969 227.730469 129.082031 227.285156 127.378906 L 226.984375 126.261719 C 226.378906 123.996094 225.867188 121.710938 225.457031 119.402344 C 225.230469 118.402344 224.902344 117.53125 224.507812 116.585938 C 223.609375 114.339844 223.285156 111.953125 223.363281 109.535156 C 223.828125 108.445312 223.828125 108.445312 224.300781 107.664062 C 223.628906 107.808594 222.957031 107.957031 222.28125 108.101562 L 221.148438 108.351562 C 220.019531 108.601562 220.019531 108.601562 218.683594 109.070312 C 217.875 109.097656 217.0625 109.109375 216.253906 109.097656 L 214.976562 109.085938 L 214 109.070312 L 213.707031 107.726562 C 212.789062 103.734375 211.574219 100.011719 210.027344 96.21875 C 208.824219 93.21875 208.035156 90.253906 207.445312 87.070312 C 205.871094 87.328125 205.082031 87.554688 203.730469 88.476562 C 202.242188 89.449219 201.238281 89.714844 199.488281 89.878906 L 198.550781 87.070312 C 192.859375 87.5 187.515625 88.03125 182.632812 91.285156 C 181.429688 91.433594 180.242188 91.542969 179.035156 91.636719 C 174.910156 92.007812 171.03125 92.953125 167.035156 94.011719 C 164.449219 94.6875 161.96875 95.21875 159.3125 95.496094 C 153.988281 96.078125 148.621094 97.910156 143.773438 100.175781 L 142.925781 101.054688 C 140.023438 103.871094 135.449219 105.285156 131.601562 106.261719 C 130.320312 106.367188 130.320312 106.367188 129.257812 106.261719 L 128.324219 105.324219 C 124.316406 104.636719 120.171875 105.984375 116.296875 106.902344 C 115.019531 107.203125 113.738281 107.5 112.457031 107.792969 L 111.488281 108.015625 C 109.457031 108.464844 107.457031 108.761719 105.386719 108.984375 C 100.195312 109.625 95.195312 111.164062 90.164062 112.550781 C 88.160156 113.097656 86.15625 113.644531 84.152344 114.1875 L 82.703125 114.578125 C 79.519531 115.429688 76.34375 116.148438 73.097656 116.714844 C 70.609375 117.257812 68.351562 118.292969 66.054688 119.363281 C 65.34375 119.6875 64.628906 120.007812 63.917969 120.332031 L 62.90625 120.789062 C 61.699219 121.296875 60.476562 121.71875 59.234375 122.144531 C 57.566406 122.722656 56.265625 123.351562 54.847656 124.394531 C 53.996094 124.96875 53.996094 124.96875 52.945312 125.449219 C 51.761719 125.480469 51.761719 125.480469 50.425781 125.386719 C 46.941406 125.324219 44.027344 126.308594 40.773438 127.46875 L 39.070312 128.039062 C 35.746094 129.183594 35.746094 129.183594 32.8125 131.066406 C 32.039062 131.363281 31.261719 131.636719 30.472656 131.882812 C 27.496094 132.929688 24.515625 134.226562 22.042969 136.214844 C 21.53125 137.304688 21.53125 137.304688 21.574219 138.554688 C 22.292969 142.066406 23.71875 145.300781 25.257812 148.515625 C 25.796875 149.804688 26.074219 150.992188 26.34375 152.359375 C 27.054688 155.488281 28.519531 158.089844 30.046875 160.882812 C 31.378906 163.320312 32.578125 165.769531 33.660156 168.332031 C 35.320312 172.296875 35.320312 172.296875 37.496094 175.996094 L 38.429688 176.460938 C 38.171875 174.835938 38.171875 174.835938 37.488281 173.355469 C 36.675781 171.417969 36.839844 169.273438 36.800781 167.195312 C 36.765625 166.226562 36.664062 165.257812 36.558594 164.292969 C 35.898438 163.273438 35.898438 163.273438 35.152344 162.421875 C 34.84375 161.195312 34.84375 161.195312 34.65625 159.878906 C 34.394531 158.085938 33.964844 156.605469 33.28125 154.933594 C 33.125 154.234375 32.988281 153.535156 32.871094 152.828125 C 32.410156 150.335938 31.636719 148 30.800781 145.609375 C 30.4375 144.019531 30.570312 142.9375 30.941406 141.363281 C 33.417969 140.800781 33.417969 140.800781 34.71875 141.167969 L 35.621094 141.828125 C 36.179688 143.136719 36.179688 143.136719 36.617188 144.726562 L 37.085938 146.378906 C 37.316406 147.25 37.546875 148.121094 37.769531 148.996094 C 37.960938 149.734375 38.195312 150.464844 38.429688 151.191406 L 39.132812 151.863281 C 39.980469 152.746094 40.101562 153.375 40.390625 154.554688 L 40.773438 156.339844 L 41.707031 155.871094 C 41.75 153.777344 41.640625 151.84375 41.238281 149.785156 C 42.644531 150.253906 42.644531 150.253906 43.363281 151.003906 C 44.917969 153.0625 45.777344 154.734375 46.390625 157.273438 C 46.878906 158.835938 46.878906 158.835938 47.792969 160.082031 C 49.25 160.644531 50.445312 161.019531 52.007812 161.019531 C 52.058594 161.28125 52.105469 161.542969 52.15625 161.8125 C 52.386719 163 52.621094 164.1875 52.855469 165.375 L 53.089844 166.625 L 53.332031 167.828125 L 53.550781 168.933594 C 53.929688 170.054688 54.421875 170.527344 55.285156 171.316406 C 55.679688 172.289062 55.679688 172.289062 55.988281 173.363281 C 56.683594 175.59375 57.542969 177.253906 59.117188 179.007812 L 59.96875 180.207031 C 60.054688 181.699219 60.054688 181.699219 59.96875 183.015625 L 60.433594 183.949219 C 60.484375 184.605469 60.523438 185.257812 60.550781 185.910156 C 60.671875 187.125 60.769531 187.949219 61.421875 188.988281 L 62.046875 189.742188 C 63.394531 191.445312 63.738281 193.027344 64.054688 195.152344 C 64.273438 197.660156 64.253906 200.15625 64.179688 202.671875 L 66.523438 202.671875 L 66.726562 201.648438 L 66.988281 200.332031 L 67.160156 199.238281 C 67.832031 196.441406 69.558594 193.902344 71.144531 191.527344 C 72.582031 190.046875 74.210938 188.890625 75.886719 187.695312 L 76.683594 186.964844 C 77.757812 186.292969 77.757812 186.292969 79.210938 186.097656 L 80.894531 186.066406 L 82.726562 186.023438 C 83.363281 186.015625 84 186.007812 84.636719 186 C 85.886719 185.976562 87.136719 185.949219 88.386719 185.921875 L 90.066406 185.898438 L 91.335938 185.824219 L 91.804688 185.355469 C 91.914062 184.488281 91.996094 183.621094 92.066406 182.75 L 92.1875 181.316406 L 92.273438 180.207031 C 94.15625 179.773438 95.519531 179.808594 97.421875 180.207031 L 97.746094 181.347656 C 98.515625 183.441406 99.578125 185.300781 100.699219 187.226562 L 101.636719 187.226562 L 101.898438 185.441406 L 102.046875 184.4375 C 102.167969 183.386719 102.167969 183.386719 101.636719 182.078125 L 103.507812 181.609375 C 104.871094 183.390625 105.945312 185 106.785156 187.082031 C 107.351562 188.394531 107.773438 189.15625 108.746094 190.238281 C 110.914062 191.445312 113.210938 191.90625 115.679688 191.90625 C 115.394531 190.0625 114.808594 188.457031 114.101562 186.742188 C 113.808594 185.824219 113.808594 185.824219 113.808594 183.949219 L 115.214844 183.484375 L 115.472656 184.355469 C 115.589844 184.734375 115.707031 185.113281 115.828125 185.5 L 116.171875 186.636719 C 116.648438 187.765625 117.082031 188.328125 118.023438 189.097656 L 119.398438 189.773438 C 120.851562 190.515625 121.6875 191.105469 122.703125 192.375 C 123.035156 193.304688 123.347656 194.242188 123.640625 195.183594 L 124.578125 195.652344 C 125.027344 196.457031 125.472656 197.265625 125.890625 198.089844 C 126.59375 199.144531 127.230469 199.683594 128.324219 200.332031 C 129.621094 200.582031 129.621094 200.582031 131.015625 200.683594 C 132.640625 200.910156 133.699219 201.101562 135.058594 202.039062 C 135.671875 202.609375 136.265625 203.203125 136.835938 203.8125 C 137.667969 204.628906 137.667969 204.628906 138.90625 204.921875 L 140.027344 205.011719 L 140.90625 204.339844 L 141.898438 203.609375 C 143.707031 203.476562 145.316406 203.523438 147.050781 204.074219 C 148.832031 202.101562 149.902344 200.003906 150.796875 197.523438 C 151.136719 195.917969 151.347656 194.714844 151.058594 193.105469 L 150.796875 192.375 L 149.859375 192.375 L 148.453125 197.054688 L 147.050781 197.054688 C 143.566406 190.074219 143.566406 190.074219 143.019531 186.515625 C 142.800781 185.121094 142.472656 183.769531 142.132812 182.402344 L 141.796875 181.03125 C 141.460938 179.746094 141.460938 179.746094 140.949219 178.59375 C 140.234375 176.714844 140.082031 174.777344 139.824219 172.792969 C 139.574219 171.398438 139.160156 170.273438 138.621094 168.972656 C 138.476562 166.460938 138.476562 166.460938 139.089844 165.230469 C 140.058594 164.9375 140.058594 164.9375 140.964844 164.761719 L 141.015625 165.617188 C 141.203125 167.996094 141.203125 167.996094 142.105469 170.175781 L 142.835938 170.847656 L 143.773438 170.847656 L 144.710938 167.570312 L 145.644531 167.570312 C 145.9375 168.300781 145.9375 168.300781 146.113281 169.441406 C 145.839844 170.546875 145.527344 171.636719 145.175781 172.71875 L 147.050781 173.1875 L 146.582031 174.152344 C 146.011719 175.828125 145.960938 177.039062 146.113281 178.804688 C 146.445312 179.570312 146.777344 180.339844 147.144531 181.089844 C 147.941406 183.191406 148.144531 185.476562 148.453125 187.695312 L 150.328125 187.695312 L 150.996094 185.949219 L 151.878906 183.660156 L 152.316406 182.511719 C 152.941406 180.894531 153.574219 179.332031 154.355469 177.785156 C 155.300781 175.875 155.808594 173.882812 156.382812 171.839844 C 156.882812 170.378906 156.882812 170.378906 157.625 169.226562 C 158.46875 167.710938 158.496094 166.484375 158.609375 164.761719 C 158.824219 163.011719 158.824219 163.011719 159.222656 161.484375 C 160.3125 160.296875 161.5 159.765625 162.96875 159.144531 C 165.292969 157.597656 166.816406 155.507812 168.121094 153.0625 L 168.289062 151.847656 L 168.585938 150.722656 C 169.351562 150.226562 170.132812 149.761719 170.929688 149.316406 C 172.070312 148.125 172.070312 148.125 173.121094 146.773438 L 174.210938 145.429688 C 175.148438 144.246094 175.148438 144.246094 175.648438 143.101562 L 176.078125 142.296875 L 177.484375 141.828125 L 178.601562 142.71875 C 179.640625 143.464844 180.300781 143.703125 181.582031 143.878906 C 183.144531 143.941406 184.699219 143.964844 186.261719 143.964844 C 190.089844 143.980469 193.574219 144.070312 197.144531 145.574219 C 198.917969 146.613281 200.390625 147.851562 201.828125 149.316406 C 202.707031 150.925781 202.707031 150.925781 203.234375 152.59375 C 204.183594 154.996094 204.988281 156.953125 206.976562 158.679688 L 207.914062 160.082031 L 208.851562 160.082031 C 208.644531 157.910156 208.644531 157.910156 207.898438 155.894531 C 207.363281 154.757812 207.371094 154.046875 207.4375 152.800781 L 207.476562 151.578125 C 207.515625 150.738281 207.558594 149.898438 207.605469 149.058594 C 207.640625 147.855469 207.644531 146.761719 207.445312 145.574219 C 206.777344 144.40625 206.09375 143.703125 205.105469 142.765625 C 205.953125 142.0625 205.953125 142.0625 206.976562 141.363281 L 208.382812 141.363281 C 208.9375 142.28125 208.9375 142.28125 209.523438 143.46875 C 210.195312 144.664062 210.195312 144.664062 211.191406 145.574219 C 213.109375 145.949219 214.878906 145.828125 216.808594 145.574219 L 216.949219 147.105469 C 217.328125 150.984375 217.851562 154.757812 218.710938 158.5625 C 219.4375 161.777344 219.867188 164.839844 220.003906 168.140625 C 220.078125 169.28125 220.273438 170.214844 220.554688 171.316406 C 220.628906 172.199219 220.683594 173.089844 220.730469 173.976562 C 220.875 176.066406 221.128906 178.082031 221.542969 180.136719 C 222.40625 184.480469 222.621094 188.644531 222.582031 193.0625 C 222.582031 193.761719 222.578125 194.460938 222.578125 195.160156 C 222.578125 196.609375 222.570312 198.054688 222.5625 199.5 C 222.546875 201.355469 222.542969 203.210938 222.539062 205.066406 C 222.535156 206.847656 222.53125 208.625 222.523438 210.40625 L 222.519531 211.429688 C 222.519531 212.378906 222.511719 213.328125 222.503906 214.277344 L 222.496094 215.914062 C 222.429688 217.179688 222.429688 217.179688 221.960938 218.117188 C 220.378906 218 220.378906 218 218.683594 217.648438 C 217.898438 216.554688 217.738281 215.703125 217.554688 214.363281 L 217.453125 212.851562 L 217.347656 211.324219 L 217.277344 210.160156 L 214.9375 210.628906 L 214.9375 211.5625 L 212.597656 212.03125 L 212.128906 207.351562 L 211.191406 207.351562 L 209.789062 214.371094 L 206.511719 214.839844 L 206.042969 214.371094 C 205.886719 210.960938 206.3125 207.730469 206.859375 204.367188 L 207.085938 202.835938 L 207.320312 201.375 L 207.53125 200.050781 C 207.914062 198.925781 207.914062 198.925781 208.886719 198.074219 L 209.789062 197.523438 L 209.320312 196.121094 L 207.445312 196.121094 C 206.03125 198.496094 205.320312 200.769531 204.753906 203.460938 C 203.78125 208.007812 202.117188 212.238281 200.390625 216.546875 C 199.753906 218.152344 199.152344 219.773438 198.550781 221.390625 L 193.867188 221.390625 L 194.089844 220.261719 L 194.367188 218.757812 L 194.644531 217.277344 C 194.8125 215.726562 194.664062 214.488281 194.335938 212.96875 C 193.3125 213.308594 192.589844 213.773438 191.835938 214.546875 C 190.859375 215.773438 190.210938 216.785156 189.871094 218.332031 C 189.753906 219.347656 189.683594 220.367188 189.65625 221.390625 C 191.5625 222.644531 193.140625 222.925781 195.421875 223.089844 L 197.039062 223.171875 C 198.28125 223.246094 199.414062 223.414062 200.628906 223.644531 C 203.054688 223.933594 205.109375 223.078125 207.398438 222.351562 C 210.011719 221.609375 212.699219 221.445312 215.398438 221.246094 C 217.117188 221.109375 218.59375 220.953125 220.246094 220.429688 C 222.722656 219.792969 225.117188 219.925781 227.667969 219.988281 C 228.667969 220.011719 229.667969 220.03125 230.671875 220.046875 L 232.003906 220.078125 C 233.253906 219.984375 234 219.691406 235.070312 219.050781 L 235.070312 217.648438 L 232.261719 217.648438 L 232.367188 216.625 C 232.527344 215.085938 232.671875 213.542969 232.816406 212.003906 L 232.988281 210.394531 C 233.320312 207.09375 233.320312 207.09375 232.519531 203.929688 L 231.792969 202.671875 L 230.386719 202.671875 L 229.917969 213.4375 L 228.515625 213.4375 L 228.046875 210.628906 L 227.785156 209.222656 C 227.578125 207.820312 227.578125 207.820312 227.625 206.511719 C 227.558594 204.375 226.804688 202.605469 226.070312 200.617188 C 225.664062 198.738281 225.835938 197.339844 226.074219 195.457031 C 226.234375 193.5 225.894531 191.667969 225.558594 189.742188 C 224.976562 186.089844 224.574219 182.460938 224.300781 178.773438 C 224.023438 175.136719 223.664062 171.53125 223.128906 167.921875 L 222.960938 166.746094 C 222.691406 165.007812 222.433594 163.464844 221.492188 161.953125 L 223.363281 161.484375 L 222.699219 160.542969 C 221.820312 158.882812 221.597656 157.328125 221.402344 155.488281 L 221.289062 154.507812 C 221.195312 153.714844 221.109375 152.921875 221.023438 152.125 L 219.621094 152.125 L 221.023438 141.363281 L 222.898438 140.894531 L 223.832031 141.363281 C 224.308594 142.292969 224.777344 143.230469 225.238281 144.167969 L 226.175781 145.105469 C 226.007812 146.164062 225.71875 146.953125 225.238281 147.914062 L 226.546875 148.082031 C 227.042969 148.335938 227.539062 148.589844 228.046875 148.851562 C 228.816406 150.375 229.160156 151.988281 229.539062 153.648438 L 229.894531 155.0625 C 230.226562 156.421875 230.546875 157.78125 230.855469 159.144531 L 231.09375 160.175781 C 231.394531 161.519531 231.683594 162.867188 231.957031 164.21875 C 232.273438 165.753906 232.628906 167.273438 232.992188 168.800781 C 233.574219 171.269531 233.984375 173.730469 234.308594 176.246094 C 234.511719 177.429688 234.511719 177.429688 235.34375 178.207031 L 236.007812 178.804688 C 235.859375 179.59375 235.859375 179.59375 235.539062 180.675781 C 235.433594 182.476562 235.429688 184.09375 236.007812 185.824219 C 236.019531 186.941406 235.976562 188.046875 235.929688 189.164062 C 235.964844 190.578125 235.964844 190.578125 236.464844 192.175781 C 237.03125 194.382812 237.105469 196.511719 237.136719 198.78125 L 237.164062 200.0625 C 237.191406 201.398438 237.214844 202.738281 237.234375 204.074219 C 237.253906 204.972656 237.269531 205.871094 237.289062 206.769531 C 237.421875 213.257812 237.421875 213.257812 237.386719 216.03125 L 237.410156 217.648438 L 237.878906 218.117188 C 240.808594 218.324219 243.488281 217.714844 246.335938 217.0625 L 247.707031 216.773438 C 250.285156 216.191406 252.195312 215.5625 254.265625 213.902344 L 254.96875 213.113281 C 255.667969 212.5 255.667969 212.5 256.898438 212.089844 C 258.46875 212.03125 259.015625 212.207031 260.410156 212.792969 C 261.84375 213.335938 262.640625 213.441406 264.179688 213.234375 C 266.777344 212.582031 266.777344 212.582031 269.246094 211.5625 C 270.132812 211.425781 271.019531 211.300781 271.910156 211.183594 C 274.34375 210.816406 276.722656 210.351562 279.109375 209.75 L 280.851562 209.316406 C 282.375 208.839844 282.375 208.839844 283.476562 207.851562 C 284.34375 206.882812 284.34375 206.882812 284.523438 205.390625 C 284.171875 203.257812 283.359375 202.089844 282.082031 200.382812 C 281.425781 199.40625 281.15625 198.671875 280.953125 197.523438 L 283.761719 197.992188 C 283.800781 196.898438 283.796875 195.808594 283.761719 194.714844 L 282.824219 193.3125 L 282.355469 195.652344 L 279.078125 195.652344 L 278.953125 194.71875 C 278.0625 188.316406 276.984375 182.035156 275.34375 175.78125 C 274.652344 173.097656 274.214844 170.539062 274.046875 167.773438 C 273.890625 166.261719 273.433594 164.953125 272.910156 163.539062 C 272.460938 162.234375 272.140625 160.925781 271.824219 159.585938 C 271.433594 157.976562 271.019531 156.460938 270.390625 154.933594 C 269.566406 152.914062 269.335938 150.835938 269.070312 148.679688 C 268.871094 147.421875 268.871094 147.421875 268.046875 146.578125 L 267.375 146.042969 L 266.90625 147.445312 L 267.84375 148.851562 C 268.113281 150.199219 268.34375 151.527344 268.546875 152.886719 C 268.875 155.046875 269.214844 157.1875 269.71875 159.316406 C 270.289062 161.8125 270.550781 164.328125 270.828125 166.867188 C 271.359375 171.539062 272.027344 176.191406 272.824219 180.828125 C 273.542969 185.082031 274.011719 189.339844 273.957031 193.664062 L 273.945312 195.089844 L 273.929688 196.121094 L 272.054688 195.652344 C 271.355469 193.351562 270.839844 191.058594 270.402344 188.695312 C 270.222656 187.675781 270.222656 187.675781 269.714844 186.757812 C 269.359375 184.054688 269.214844 181.339844 269.285156 178.613281 C 269.398438 174.0625 268.945312 170.496094 267.375 166.167969 C 266.683594 163.777344 266.386719 161.480469 266.234375 159 C 266.101562 156.914062 265.800781 155.046875 265.238281 153.03125 C 264.460938 150.207031 264.425781 147.550781 264.566406 144.636719 L 267.375 143.703125 C 267.710938 142.417969 267.710938 142.417969 267.84375 140.894531 C 267.46875 139.5625 267.46875 139.5625 266.820312 138.261719 C 265.703125 135.796875 264.871094 133.339844 264.140625 130.738281 L 263.628906 129.660156 C 262.507812 129.183594 261.722656 129.191406 260.5 129.191406 L 259.414062 129.191406 L 258.945312 128.726562 C 258.832031 127.441406 258.765625 126.15625 258.703125 124.871094 C 258.578125 123.558594 258.578125 123.558594 257.765625 122.640625 L 257.074219 121.703125 C 256.964844 120.457031 256.964844 120.457031 256.988281 119.074219 C 256.9375 117.554688 256.9375 117.554688 256.605469 116.089844 C 255.777344 114.847656 254.832031 113.8125 253.828125 112.707031 C 251.992188 110.246094 251.359375 107.3125 250.519531 104.386719 L 250 102.878906 C 249.582031 101.582031 249.582031 101.582031 249.4375 99.882812 L 249.117188 98.304688 C 248.535156 97.855469 248.535156 97.855469 247.945312 97.398438 L 246.773438 96.433594 C 246.3125 94.671875 246.117188 93.492188 246.53125 91.734375 C 246.863281 90.84375 246.863281 90.84375 247.710938 89.410156 C 248.699219 89.089844 248.699219 89.089844 249.582031 88.945312 L 250.164062 89.867188 L 250.929688 91.050781 L 251.6875 92.234375 L 252.394531 93.15625 L 253.328125 93.15625 C 252.96875 90.515625 252.175781 88.105469 251.328125 85.589844 C 250.765625 83.855469 250.328125 82.347656 250.519531 80.519531 L 250.988281 80.050781 C 251.925781 80.03125 252.859375 80.03125 253.796875 80.050781 C 253.984375 80.453125 254.171875 80.855469 254.367188 81.269531 C 256.097656 84.871094 258.015625 88.101562 260.339844 91.347656 C 261.394531 92.839844 262.300781 94.351562 263.160156 95.964844 L 263.71875 95.261719 L 264.566406 94.558594 C 265.824219 94.472656 265.824219 94.472656 266.90625 94.558594 L 268.3125 97.367188 L 269.714844 97.367188 L 270.183594 96.898438 C 270.121094 94.074219 268.992188 92.183594 267.59375 89.769531 C 266.96875 88.59375 266.617188 87.589844 266.292969 86.3125 C 265.890625 84.921875 265.503906 84.265625 264.496094 83.199219 C 263.730469 82.492188 262.964844 81.789062 262.195312 81.085938 C 261.289062 80.050781 261.289062 80.050781 261.007812 79.003906 L 260.964844 78.003906 L 260.820312 76.308594 C 259.546875 75.398438 259.546875 75.398438 258.011719 74.902344 C 257.640625 74.664062 257.273438 74.425781 256.894531 74.179688 C 255.542969 73.429688 254.828125 73.308594 253.300781 73.324219 C 244.609375 73.578125 236.019531 75.828125 227.578125 77.710938 M 253.796875 95.964844 L 254.265625 96.898438 Z M 260.820312 99.238281 C 261.101562 100.183594 261.414062 101.121094 261.757812 102.046875 L 262.691406 102.515625 C 263.035156 103.425781 263.367188 104.339844 263.691406 105.257812 C 264.269531 106.6875 265.066406 107.824219 265.96875 109.070312 L 266.4375 107.664062 C 266.046875 106.226562 266.046875 106.226562 265.414062 104.679688 L 264.808594 103.089844 C 264.097656 101.578125 263.386719 100.441406 262.222656 99.238281 Z M 277.675781 101.582031 C 277.796875 102.246094 277.921875 102.90625 278.054688 103.570312 L 278.269531 104.6875 C 278.652344 105.929688 279.238281 106.632812 280.015625 107.664062 C 280.410156 108.609375 280.78125 109.566406 281.128906 110.53125 C 282.699219 114.742188 284.558594 119.179688 287.507812 122.640625 L 288.441406 122.640625 L 288.910156 123.578125 C 288.820312 122.027344 288.820312 122.027344 288.441406 120.300781 C 287.839844 119.503906 287.214844 118.722656 286.570312 117.960938 C 286.234375 117.03125 285.921875 116.097656 285.632812 115.152344 L 284.699219 113.75 C 284.496094 113.140625 284.3125 112.523438 284.140625 111.90625 C 283.144531 108.792969 281.5 105.527344 279.269531 103.113281 L 278.609375 102.515625 Z M 279.078125 147.914062 L 280.015625 151.191406 L 280.484375 151.191406 L 280.015625 147.914062 Z M 209.789062 154.464844 L 209.789062 155.402344 L 210.722656 155.402344 L 210.722656 154.464844 Z M 185.910156 157.742188 C 184.726562 158.867188 184.726562 158.867188 184.035156 160.550781 C 183.699219 163.050781 184.089844 165.582031 184.449219 168.0625 C 184.503906 168.972656 184.503906 168.972656 184.039062 170.378906 C 183.070312 170.523438 183.070312 170.523438 181.695312 170.378906 C 180.925781 169.859375 180.925781 169.859375 180.117188 169.207031 C 179.300781 168.546875 179.300781 168.546875 178.417969 168.039062 C 176.640625 167.84375 176.640625 167.84375 175.140625 168.039062 C 174.308594 169.523438 173.753906 170.625 173.621094 172.339844 C 173.164062 174.644531 172.0625 176.160156 170.738281 178.078125 C 169.824219 179.539062 169.5625 180.566406 169.445312 182.265625 C 169.425781 184.5 169.546875 186.097656 170.460938 188.164062 C 170.402344 189.128906 170.402344 189.128906 169.992188 190.035156 C 169.289062 191.058594 169.289062 191.058594 168.117188 191.90625 C 167.023438 192.089844 165.964844 192.171875 164.851562 192.203125 L 163.90625 192.375 C 163.089844 193.597656 162.769531 194.265625 162.414062 195.632812 L 162.125 196.734375 L 161.828125 197.902344 L 161.519531 199.101562 C 159.726562 204.6875 159.726562 204.6875 159.425781 210.335938 L 159.691406 211.097656 C 161.640625 210.445312 162.871094 209.535156 164.375 208.140625 L 165.613281 206.988281 L 166.714844 205.949219 L 167.941406 204.808594 C 170.472656 202.078125 172.71875 199.1875 174.636719 196 C 175.335938 194.867188 176.160156 193.863281 177.015625 192.84375 L 177.949219 191.644531 C 178.886719 190.503906 178.886719 190.503906 179.792969 189.65625 C 181.601562 187.738281 182.824219 185.554688 183.878906 183.148438 L 184.296875 182.207031 C 184.566406 181.589844 184.828125 180.964844 185.085938 180.335938 C 185.46875 179.453125 185.46875 179.453125 186.378906 177.867188 C 187.292969 177.210938 188.230469 176.585938 189.1875 175.996094 C 191.078125 173.65625 192.25 171.0625 192.871094 168.132812 C 192.984375 166.226562 192.636719 164.679688 191.855469 162.941406 L 191.117188 161.632812 L 190.390625 160.3125 C 189.742188 159.285156 189.183594 158.511719 188.25 157.742188 C 187.101562 157.390625 187.101562 157.390625 185.910156 157.742188 M 276.269531 161.019531 L 276.738281 161.953125 Z M 42.644531 161.484375 L 43.113281 162.421875 Z M 181.226562 166.167969 L 182.164062 168.507812 L 183.101562 168.039062 L 182.164062 166.167969 Z M 43.113281 169.910156 L 43.113281 172.71875 L 44.050781 172.71875 L 44.050781 170.378906 Z M 228.984375 173.1875 L 228.984375 175.996094 L 229.917969 175.996094 L 229.917969 173.65625 Z M 217.277344 175.058594 L 217.746094 175.996094 Z M 42.148438 178.570312 L 40.84375 179.226562 L 39.835938 179.738281 L 39.835938 181.144531 C 40.507812 181.933594 40.507812 181.933594 41.238281 182.546875 L 42.175781 180.207031 L 44.050781 180.675781 L 44.984375 185.355469 L 46.390625 185.824219 C 46.164062 182.917969 45.765625 180.207031 44.984375 177.398438 C 44 177.398438 43 178.136719 42.148438 178.570312 M 217.746094 177.867188 L 218.214844 180.207031 L 219.152344 180.207031 L 218.683594 177.867188 Z M 229.917969 180.675781 L 228.984375 183.015625 L 230.855469 183.015625 L 230.386719 180.675781 Z M 209.789062 181.609375 L 209.632812 182.808594 C 208.949219 187.683594 208.949219 187.683594 208.089844 189.832031 C 207.332031 191.441406 207.332031 191.441406 207.445312 193.3125 L 208.382812 193.3125 L 209.027344 192.640625 C 209.789062 191.90625 209.789062 191.90625 210.8125 191.585938 L 211.660156 191.4375 L 211.660156 188.164062 L 213.066406 187.695312 C 212.757812 186.003906 212.757812 186.003906 212.128906 184.417969 L 211.191406 184.417969 L 211.191406 181.609375 Z M 280.953125 183.484375 L 281.421875 186.757812 L 281.886719 186.757812 L 281.886719 183.484375 Z M 229.453125 185.355469 L 228.984375 187.695312 L 231.792969 187.226562 L 230.855469 185.355469 Z M 52.476562 185.824219 L 51.539062 186.757812 C 51.167969 190.105469 51.652344 193.355469 52.273438 196.640625 C 52.523438 198.304688 52.511719 199.890625 52.417969 201.570312 C 52.429688 202.722656 52.429688 202.722656 52.917969 203.945312 C 53.648438 206.207031 53.753906 208.484375 53.9375 210.839844 C 54.132812 213.050781 54.132812 213.050781 55.050781 215.042969 C 56.132812 216.894531 56.105469 218.8125 56.25 220.925781 C 56.488281 224.160156 56.722656 226.589844 58.5625 229.347656 C 58.800781 230.519531 59 231.675781 59.175781 232.859375 C 60.09375 238.507812 61.664062 243.980469 63.246094 249.472656 C 64.273438 249.921875 64.273438 249.921875 65.585938 249.941406 C 66.902344 248.960938 66.902344 248.960938 67.703125 248.191406 C 68.394531 247.601562 68.394531 247.601562 69.652344 247.132812 L 70.734375 246.664062 L 71.378906 245.554688 C 72.144531 244.316406 72.535156 243.976562 73.75 243.273438 C 74.984375 242.667969 75.953125 242.199219 77.289062 241.984375 C 77.054688 243.214844 77.054688 243.214844 76.355469 244.792969 C 74.847656 246.207031 73.152344 247.296875 71.351562 248.304688 C 70.164062 249.070312 69.390625 249.976562 68.519531 251.082031 C 67.621094 252.191406 66.609375 253.160156 65.585938 254.152344 C 68.691406 254.324219 71.078125 253.714844 74.011719 252.75 C 74.792969 252.535156 75.574219 252.320312 76.355469 252.105469 C 79.289062 251.226562 81.992188 249.882812 84.578125 248.246094 C 85.953125 247.46875 87.34375 247.023438 88.851562 246.550781 C 89.824219 246.234375 90.746094 245.863281 91.6875 245.464844 C 93.851562 244.628906 96.089844 244.390625 98.378906 244.105469 C 99.652344 243.875 100.53125 243.566406 101.636719 242.921875 L 101.167969 240.582031 L 102.742188 240.613281 C 103.425781 240.621094 104.109375 240.632812 104.796875 240.640625 L 105.832031 240.664062 C 107.285156 240.675781 108.476562 240.65625 109.835938 240.109375 L 110.53125 239.644531 L 110.53125 236.367188 L 112.40625 236.367188 L 112.40625 238.242188 L 113.339844 238.242188 L 113.339844 235.902344 C 110.261719 235.105469 107.324219 234.816406 104.152344 234.628906 C 102.480469 234.488281 100.9375 234.195312 99.324219 233.75 C 98.3125 233.507812 98.3125 233.507812 97.074219 233.648438 C 94.996094 233.53125 93.554688 232.71875 91.746094 231.746094 L 90.75 231.230469 C 89.484375 230.574219 88.230469 229.90625 86.980469 229.226562 C 86.117188 228.785156 86.117188 228.785156 84.78125 228.878906 L 84.3125 229.816406 L 82.910156 230.285156 L 82.617188 229.027344 C 82.074219 227.402344 82.074219 227.402344 80.714844 226.363281 L 79.957031 225.792969 C 78.738281 224.785156 77.773438 223.578125 76.757812 222.367188 C 75.878906 221.382812 74.9375 220.542969 73.953125 219.667969 C 71.628906 217.40625 70.761719 214.597656 69.800781 211.5625 L 67.925781 211.5625 L 66.988281 213.902344 C 67.808594 215.085938 67.808594 215.085938 68.863281 216.242188 C 69.859375 216.652344 69.859375 216.652344 70.734375 216.710938 L 70.734375 219.988281 L 68.863281 220.457031 L 69.070312 221.464844 C 69.410156 223.195312 69.695312 224.933594 69.988281 226.671875 C 70.269531 227.953125 70.683594 229.082031 71.203125 230.285156 C 69.652344 229.964844 69.652344 229.964844 67.925781 229.347656 C 66.480469 227.503906 66.144531 225.527344 65.789062 223.265625 C 65.445312 221.136719 65.0625 219.164062 64.179688 217.179688 C 63.863281 216.246094 63.550781 215.308594 63.246094 214.371094 L 60.902344 214.371094 C 59.679688 211.144531 59.386719 208.398438 59.585938 204.957031 L 59.5 203.609375 C 59.035156 202.980469 58.566406 202.359375 58.09375 201.734375 C 57.605469 200.109375 57.328125 198.429688 57.023438 196.761719 C 56.492188 194.195312 55.613281 192.925781 53.878906 190.972656 C 53.765625 189.273438 53.765625 189.273438 53.878906 187.695312 C 53.679688 186.613281 53.679688 186.613281 53.414062 185.824219 Z M 231.792969 188.164062 L 231.324219 190.503906 L 229.453125 190.972656 L 229.453125 194.246094 L 231.792969 194.714844 C 232.238281 192.484375 232.300781 190.425781 232.261719 188.164062 Z M 281.886719 188.632812 L 282.355469 189.566406 Z M 211.660156 198.460938 L 211.660156 199.863281 L 212.597656 199.863281 L 212.128906 198.460938 Z M 197.144531 204.542969 C 196.507812 205.363281 196.507812 205.363281 195.917969 206.386719 L 195.285156 207.421875 C 194.765625 208.191406 194.765625 208.191406 194.804688 208.753906 L 197.144531 208.753906 L 198.082031 204.542969 Z M 66.054688 207.820312 L 66.054688 208.753906 L 67.457031 208.289062 Z M 86.1875 206.414062 C 86 207.824219 85.9375 208.773438 86.1875 210.160156 C 87.265625 212.347656 88.503906 214.484375 90.371094 216.085938 C 93.203125 217.921875 96.054688 219.226562 99.382812 219.820312 C 100.230469 219.988281 100.230469 219.988281 101.167969 220.457031 C 101.90625 220.503906 102.644531 220.519531 103.382812 220.523438 L 104.78125 220.535156 L 106.300781 220.535156 L 107.867188 220.539062 C 108.964844 220.542969 110.058594 220.542969 111.15625 220.542969 C 112.820312 220.542969 114.484375 220.550781 116.152344 220.5625 C 117.21875 220.5625 118.285156 220.5625 119.351562 220.5625 L 120.847656 220.574219 C 124.054688 220.566406 127.058594 220.199219 130.195312 219.519531 L 130.195312 218.585938 L 128.675781 218.058594 C 127.816406 217.761719 127.816406 217.761719 126.917969 217.179688 L 126.105469 215.8125 C 125.160156 214.304688 125.160156 214.304688 123.695312 213.675781 L 122.144531 213.191406 L 120.425781 212.652344 L 118.636719 212.121094 L 116.875 211.5625 C 113.820312 210.617188 110.925781 209.84375 107.722656 209.691406 L 107.253906 210.160156 C 107.113281 212.867188 107.445312 215.046875 108.191406 217.648438 C 107.285156 217.582031 106.375 217.515625 105.46875 217.445312 L 103.9375 217.328125 C 102.574219 217.179688 102.574219 217.179688 101.167969 216.710938 C 100.722656 215.746094 100.722656 215.746094 100.378906 214.578125 L 100.019531 213.40625 L 99.761719 212.5 L 98.835938 212.425781 C 97.503906 212.253906 96.347656 212.03125 95.082031 211.5625 C 94.214844 210.6875 93.609375 209.78125 92.945312 208.746094 C 92.230469 207.761719 91.617188 207.261719 90.574219 206.648438 C 88.925781 205.917969 87.859375 205.578125 86.1875 206.414062 M 177.949219 218.585938 L 177.949219 219.988281 Z M 162.675781 237.453125 L 161.5625 238.707031 C 160.785156 239.578125 160.34375 240.042969 159.253906 240.464844 C 158.113281 240.601562 157.480469 240.546875 156.414062 240.113281 C 155.359375 239.148438 155.359375 239.148438 154.542969 238.242188 C 153.199219 238.734375 153.199219 238.734375 151.730469 239.644531 C 151.15625 240.367188 151.15625 240.367188 150.648438 241.195312 C 148.976562 243.753906 146.34375 245.0625 143.742188 246.546875 L 142.835938 247.132812 L 142.835938 248.070312 C 145.390625 247.726562 147.78125 247.007812 150.238281 246.253906 L 151.449219 245.890625 C 152.636719 245.53125 153.824219 245.164062 155.007812 244.792969 L 156.195312 244.429688 L 157.320312 244.074219 L 158.324219 243.761719 C 159.296875 243.359375 159.929688 242.882812 160.714844 242.191406 C 162.113281 240.976562 163.050781 240.523438 164.839844 240.113281 L 166.363281 240.140625 L 167.652344 240.113281 L 168.585938 238.707031 C 167.5625 237.488281 167.5625 237.488281 166.246094 236.367188 C 164.46875 235.925781 164.054688 236.234375 162.675781 237.453125 M 105.382812 247.132812 L 104.210938 247.835938 C 102.515625 248.5625 101.6875 248.59375 99.878906 248.539062 C 95.886719 248.433594 92.582031 249.707031 88.996094 251.34375 L 88.996094 252.75 L 93.207031 252.28125 L 94.144531 254.152344 C 96.875 253.945312 98.898438 252.773438 101.167969 251.34375 C 101.484375 251.097656 101.800781 250.847656 102.125 250.59375 C 103.039062 249.941406 103.039062 249.941406 104.738281 249.503906 L 106.316406 249.003906 C 107.019531 248.074219 107.019531 248.074219 107.253906 247.132812 Z M 91.335938 254.152344 L 91.335938 255.558594 Z M 88.996094 255.558594 L 88.527344 256.960938 L 90.398438 256.492188 L 90.398438 255.558594 Z M 88.996094 255.558594 " fill-opacity="1" fill-rule="nonzero"/><path fill="#fda4ca" d="M 109.59375 137.148438 C 110.734375 137.160156 110.734375 137.160156 111.9375 137.617188 C 112.714844 138.792969 112.714844 138.792969 113.371094 140.28125 C 114.097656 141.867188 114.75 143.242188 115.769531 144.667969 C 116.601562 146.015625 116.875 146.945312 117.234375 148.46875 C 117.878906 151.113281 119.089844 153.078125 120.632812 155.300781 L 121.300781 156.339844 L 121.300781 157.273438 L 122.121094 156.804688 C 123.171875 156.339844 123.171875 156.339844 125.046875 156.339844 L 124.578125 158.679688 L 125.863281 158.648438 L 127.386719 159.144531 C 128.273438 160.460938 128.867188 161.824219 129.257812 163.359375 L 128.789062 164.761719 C 127.824219 165.316406 127.824219 165.316406 126.917969 165.699219 L 127.386719 167.101562 L 129.726562 167.570312 L 129.757812 169.324219 C 129.976562 171.359375 130.628906 172.664062 131.71875 174.386719 C 133.457031 177.179688 134.351562 179.898438 135.257812 183.027344 C 135.917969 185.296875 136.785156 187.476562 137.660156 189.671875 C 138.058594 190.710938 138.398438 191.765625 138.679688 192.84375 C 139.03125 194.277344 139.03125 194.277344 139.882812 195.503906 L 140.496094 196.585938 C 140.4375 197.640625 140.4375 197.640625 140.027344 198.460938 C 138.425781 198.992188 137.175781 198.972656 135.492188 198.957031 L 133.816406 198.945312 L 132.535156 198.925781 C 132.957031 196.707031 132.957031 196.707031 133.386719 195.621094 L 133.472656 194.714844 L 132.59375 193.894531 L 131.601562 192.84375 C 131.433594 191.925781 131.433594 191.925781 131.367188 190.914062 L 131.132812 189.097656 L 130.269531 188.679688 L 129.257812 188.164062 C 127.363281 185.191406 125.921875 181.753906 125.046875 178.335938 L 125.046875 177.398438 L 123.640625 176.929688 C 123.246094 176.132812 123.246094 176.132812 122.9375 175.148438 C 122.539062 173.964844 122.269531 173.230469 121.476562 172.25 L 120.832031 171.316406 L 120.714844 169.5 C 120.667969 168.511719 120.667969 168.511719 120.363281 167.570312 C 119.566406 166.742188 118.71875 166.097656 117.800781 165.410156 L 117.085938 164.761719 C 116.882812 163.417969 116.882812 163.417969 117.085938 162.421875 L 116.179688 162.1875 L 115.214844 161.484375 C 115.09375 160.535156 114.976562 159.582031 114.902344 158.625 L 114.746094 157.742188 C 113.878906 156.957031 113.878906 156.957031 112.871094 156.339844 C 112.398438 155.40625 111.929688 154.46875 111.46875 153.53125 C 110.601562 152.46875 110.601562 152.46875 109.59375 151.65625 L 108.695312 151.382812 C 107.722656 150.722656 107.722656 150.722656 107.308594 149.941406 C 106.902344 148.914062 106.546875 147.882812 106.199219 146.832031 L 105.820312 145.753906 C 105.199219 143.929688 104.742188 142.378906 104.914062 140.425781 L 107.253906 139.957031 C 108.191406 142.648438 108.191406 142.648438 108.191406 143.703125 L 110.0625 144.167969 L 109.359375 143.496094 C 108.601562 142.203125 108.539062 141.601562 108.511719 140.132812 C 108.519531 139.03125 108.519531 139.03125 108.660156 138.085938 Z M 113.808594 149.316406 L 113.808594 150.253906 L 114.746094 150.253906 L 114.746094 149.316406 Z M 125.046875 163.359375 L 125.511719 164.292969 Z M 246.304688 144.167969 L 248.179688 144.636719 L 248.355469 146.335938 C 248.578125 148.054688 248.890625 149.585938 249.582031 151.191406 L 250.511719 151.980469 C 251.457031 153.0625 251.457031 153.0625 251.878906 154.734375 C 251.980469 155.375 252.070312 156.015625 252.160156 156.660156 C 252.574219 159.339844 253.199219 161.503906 254.429688 163.941406 L 254.734375 164.761719 C 254.351562 166.078125 254.351562 166.078125 253.796875 167.101562 C 253.960938 168.011719 253.960938 168.011719 254.265625 168.972656 C 255.921875 176.207031 256.714844 183.59375 257.398438 190.972656 L 257.492188 191.96875 C 257.871094 196.011719 258.101562 200.015625 258.011719 204.074219 L 257.074219 204.542969 C 256.421875 206.234375 255.984375 207.910156 255.667969 209.691406 L 253.796875 209.222656 L 253.796875 207.351562 L 252.394531 207.351562 C 251.371094 204.808594 251.398438 202.546875 251.535156 199.867188 C 251.601562 197.472656 250.988281 195.949219 250.050781 193.78125 C 249.835938 192.386719 249.792969 191.003906 249.757812 189.597656 C 249.550781 183.40625 249.550781 183.40625 248.179688 177.398438 C 248.109375 176.414062 248.050781 175.429688 248.003906 174.445312 C 247.816406 171.5 247.300781 168.757812 246.628906 165.890625 C 246.21875 163.867188 246.074219 161.875 245.984375 159.8125 C 245.90625 158.558594 245.90625 158.558594 244.902344 157.273438 C 244.191406 153.996094 243.835938 150.28125 244.851562 147.050781 C 245.296875 146.058594 245.761719 145.109375 246.304688 144.167969 M 256.136719 144.167969 L 258.480469 144.167969 C 259.523438 147.21875 260.460938 150.285156 261.347656 153.382812 L 261.722656 154.675781 C 262.558594 157.597656 263.140625 160.410156 263.367188 163.445312 C 263.511719 165.171875 263.734375 166.839844 264.066406 168.535156 C 264.488281 170.71875 264.75 172.90625 264.976562 175.117188 C 265.394531 179.191406 266.03125 183.21875 266.714844 187.253906 C 267.589844 192.484375 267.9375 197.605469 267.960938 202.90625 L 267.988281 204.558594 L 267.996094 206.136719 L 268.007812 207.5625 C 267.84375 208.753906 267.84375 208.753906 267.195312 209.632812 L 266.4375 210.160156 C 265.414062 210.015625 265.414062 210.015625 264.566406 209.691406 C 263.386719 205.929688 263.046875 202.609375 263.25 198.667969 C 263.28125 197.046875 263.28125 197.046875 262.441406 195.789062 C 261.230469 193.0625 261.890625 190.113281 262.15625 187.199219 C 262.378906 184.519531 262.378906 184.519531 261.820312 181.929688 C 261.488281 181.308594 261.140625 180.695312 260.78125 180.089844 C 260.351562 179.269531 260.351562 179.269531 260.203125 177.742188 L 260.292969 176.347656 C 260.394531 174.957031 260.394531 174.957031 260.351562 173.65625 L 259.902344 172.785156 C 259.035156 171 259.210938 168.945312 259.152344 166.988281 C 259.113281 166.089844 259.03125 165.191406 258.945312 164.292969 L 258.011719 162.890625 C 257.730469 161.628906 257.488281 160.363281 257.28125 159.085938 L 257.09375 157.996094 C 256.691406 155.574219 256.347656 153.164062 256.136719 150.722656 L 255.992188 149.253906 C 255.710938 146.277344 255.710938 146.277344 255.667969 145.105469 Z M 66.988281 149.785156 C 67.769531 149.765625 68.550781 149.765625 69.332031 149.785156 L 69.675781 150.523438 C 70.410156 152.054688 71.097656 153.398438 72.167969 154.730469 C 72.96875 155.734375 73.367188 156.457031 73.835938 157.625 L 74.480469 159.144531 L 75.417969 159.613281 C 75.527344 160.523438 75.527344 160.523438 75.5625 161.75 C 75.753906 164.550781 76.507812 167.007812 77.417969 169.644531 C 77.996094 171.351562 78.363281 172.785156 78.226562 174.589844 C 77.378906 174.53125 77.378906 174.53125 76.355469 174.121094 L 75.710938 172.804688 C 75.03125 171.203125 75.03125 171.203125 73.457031 170.203125 L 72.140625 169.441406 L 73.078125 166.167969 L 72.140625 165.699219 C 70.835938 166.136719 69.582031 166.664062 68.3125 167.191406 C 66.988281 167.570312 66.988281 167.570312 65.652344 167.394531 L 64.648438 167.101562 L 64.648438 165.699219 L 66.199219 165.375 L 67.925781 164.761719 C 68.78125 163.585938 68.78125 163.585938 69.332031 162.421875 L 70.265625 162.421875 L 69.800781 161.019531 C 68.863281 160.230469 68.863281 160.230469 67.925781 159.613281 L 68.25 158.386719 L 68.394531 156.804688 C 67.941406 155.863281 67.472656 154.925781 66.988281 153.996094 C 66.714844 152.730469 66.609375 151.554688 66.523438 150.253906 Z M 276.914062 231.191406 L 278.679688 231.203125 L 280.015625 231.21875 C 280.335938 232.214844 280.335938 232.214844 280.484375 233.5625 C 280.027344 235 280.027344 235 279.078125 236.367188 C 277.894531 237.105469 276.898438 237.636719 275.625 238.152344 C 275.292969 238.292969 274.960938 238.433594 274.621094 238.582031 C 272 239.628906 269.585938 239.964844 266.761719 240.027344 C 265.410156 240.035156 265.410156 240.035156 264.007812 240.875 C 262.691406 241.515625 262.691406 241.515625 261.539062 241.488281 C 260.714844 241.394531 259.894531 241.28125 259.074219 241.15625 C 257.933594 240.96875 257.933594 240.96875 256.605469 241.515625 C 255.875 241.546875 255.144531 241.558594 254.414062 241.546875 L 253.265625 241.535156 L 252.394531 241.515625 L 252.394531 239.644531 C 256.933594 237.941406 261.757812 237.023438 266.585938 236.574219 C 268.347656 236.496094 268.347656 236.496094 269.714844 235.433594 C 270.597656 235.226562 271.484375 235.054688 272.378906 234.90625 L 273.789062 234.667969 L 274.867188 234.496094 L 273.316406 234.554688 L 271.589844 234.496094 L 270.183594 233.5625 L 270.652344 231.6875 C 272.765625 231.273438 274.761719 231.171875 276.914062 231.191406 M 156.882812 262.578125 L 156.414062 264.917969 L 155.199219 265.160156 C 151.746094 265.824219 151.746094 265.824219 148.570312 267.257812 C 145.773438 268.976562 142.683594 269.691406 139.488281 270.332031 C 138.585938 270.507812 138.585938 270.507812 137.6875 271 C 136.242188 271.132812 134.800781 271.210938 133.355469 271.292969 L 132.066406 271.46875 L 131.132812 272.40625 C 128.992188 273.054688 126.789062 272.917969 124.578125 272.875 L 124.578125 271 C 128.222656 269.828125 131.859375 268.789062 135.59375 267.953125 C 137.46875 267.511719 138.863281 266.855469 140.496094 265.855469 C 141.480469 265.664062 141.480469 265.664062 142.457031 265.621094 C 144.863281 265.421875 147.144531 264.871094 149.390625 263.980469 L 150.328125 263.046875 C 152.464844 262.398438 154.671875 262.535156 156.882812 262.578125 M 218.683594 242.453125 C 219.648438 242.65625 219.648438 242.65625 220.554688 242.921875 C 220.417969 243.816406 220.417969 243.816406 220.085938 244.792969 C 218.835938 245.347656 217.640625 245.777344 216.34375 246.195312 C 215.257812 246.578125 214.175781 246.96875 213.09375 247.367188 L 211.5 247.9375 L 210.253906 248.539062 L 209.789062 249.941406 L 210.722656 249.472656 C 211.816406 249.453125 212.910156 249.453125 214 249.472656 L 214 251.34375 C 206.714844 253.496094 206.714844 253.496094 202.765625 253.21875 L 202.296875 252.28125 L 202.765625 251.34375 L 204.167969 250.878906 L 203.90625 249.53125 L 203.699219 248.070312 L 204.167969 247.132812 C 205.367188 246.726562 206.578125 246.355469 207.796875 246.023438 L 209.96875 245.402344 L 211.070312 245.09375 C 212.597656 244.65625 214.121094 244.207031 215.640625 243.738281 L 217.117188 243.292969 C 218.183594 243.023438 218.183594 243.023438 218.683594 242.453125 M 78.695312 147.445312 C 79.691406 147.691406 79.691406 147.691406 80.832031 148.089844 L 81.972656 148.480469 C 82.910156 148.851562 82.910156 148.851562 83.375 149.316406 L 83.492188 150.839844 C 83.707031 152.644531 83.707031 152.644531 84.957031 153.882812 C 85.625 154.453125 86.300781 155.019531 87.003906 155.546875 C 87.710938 156.5 87.761719 157.132812 87.914062 158.296875 L 88.058594 160.082031 C 85.121094 161.0625 85.121094 161.0625 83.40625 160.84375 L 82.441406 160.550781 C 82.910156 157.074219 82.910156 157.074219 83.375 155.402344 L 82.285156 155.296875 L 81.035156 154.933594 C 80.328125 154 80.328125 154 79.777344 152.855469 C 79.164062 151.613281 78.746094 150.773438 77.757812 149.785156 L 77.757812 147.914062 Z M 116.558594 282.878906 L 117.554688 283.171875 C 117.210938 284.042969 117.210938 284.042969 116.617188 285.042969 C 115.714844 285.605469 115.714844 285.605469 114.605469 286.066406 L 113.371094 286.585938 L 112.054688 287.121094 L 110.714844 287.675781 C 107.679688 288.929688 104.609375 290.085938 101.503906 291.140625 C 100.417969 291.523438 99.371094 291.988281 98.359375 292.53125 L 98.359375 290.660156 C 99.914062 289.117188 101.488281 288.390625 103.539062 287.675781 C 106.171875 286.710938 108.632812 285.570312 111.113281 284.261719 C 114.527344 282.613281 114.527344 282.613281 116.558594 282.878906 M 135.8125 275.683594 L 135.8125 277.554688 C 132.925781 280.390625 128.457031 281.292969 124.65625 282.289062 C 123.042969 282.671875 121.558594 282.792969 119.894531 282.703125 L 119.894531 280.832031 C 121.828125 280.175781 123.75 279.527344 125.710938 278.964844 L 127.355469 278.488281 L 128.921875 278.050781 L 130.195312 277.554688 L 131.132812 276.148438 C 132.703125 275.683594 134.183594 275.636719 135.8125 275.683594 M 99.761719 148.851562 L 100.230469 151.191406 L 103.507812 151.65625 C 103.363281 152.769531 103.363281 152.769531 103.039062 153.996094 C 101.359375 155.117188 99.855469 155.5 97.890625 155.871094 C 96.515625 155.957031 96.515625 155.957031 95.550781 155.871094 L 95.082031 155.402344 C 95.0625 154.464844 95.0625 153.53125 95.082031 152.59375 L 96.019531 152.59375 L 95.902344 151.511719 L 96.019531 150.253906 C 97.335938 148.886719 97.796875 148.851562 99.761719 148.851562 M 209.441406 254.0625 L 210.578125 254.09375 L 211.722656 254.121094 L 212.597656 254.152344 C 212.597656 255.234375 212.597656 255.234375 212.128906 256.492188 C 208.832031 258.339844 205.054688 258.226562 201.359375 258.367188 L 200.890625 256.492188 C 201.828125 255.792969 201.828125 255.792969 203.234375 255.089844 C 204.171875 255.027344 204.171875 255.027344 205.164062 255.058594 L 206.976562 255.089844 C 208.382812 254.152344 208.382812 254.152344 209.441406 254.0625 M 265.617188 246.636719 L 266.882812 246.648438 L 267.84375 246.664062 L 267.84375 249.003906 C 267.105469 249.21875 266.367188 249.429688 265.628906 249.636719 C 264.839844 249.863281 264.054688 250.09375 263.265625 250.332031 L 261.902344 250.730469 L 260.609375 251.117188 C 259.414062 251.34375 259.414062 251.34375 258.324219 251.148438 L 257.542969 250.878906 C 257.628906 250 257.628906 250 258.011719 249.003906 C 259.152344 248.480469 259.152344 248.480469 260.351562 248.070312 L 261.289062 247.132812 C 262.738281 246.632812 264.09375 246.617188 265.617188 246.636719 M 200.890625 248.070312 C 200.714844 249.292969 200.421875 249.945312 199.664062 250.9375 C 198.226562 252.070312 197.066406 252.390625 195.273438 252.75 C 194.011719 252.816406 192.792969 252.792969 191.527344 252.75 L 191.058594 251.34375 L 191.910156 250.964844 C 192.941406 250.476562 192.941406 250.476562 193.570312 249.707031 C 194.335938 249.003906 194.335938 249.003906 195.3125 248.664062 C 197.195312 248.289062 198.960938 247.945312 200.890625 248.070312 M 280.953125 245.730469 L 280.484375 248.070312 C 276.554688 248.65625 272.761719 249.171875 268.777344 249.003906 L 268.777344 247.132812 C 270.457031 246.898438 272.132812 246.664062 273.8125 246.429688 L 275.253906 246.226562 L 276.644531 246.035156 L 277.921875 245.859375 C 279.078125 245.730469 279.078125 245.730469 280.953125 245.730469 M 298.742188 229.347656 L 298.273438 231.21875 C 294.875 232.238281 291.507812 232.4375 287.976562 232.625 L 287.507812 230.753906 C 291.277344 229.597656 294.808594 229.277344 298.742188 229.347656 M 52.476562 147.445312 C 53.265625 147.414062 54.054688 147.40625 54.847656 147.417969 L 56.152344 147.429688 L 57.15625 147.445312 C 57.902344 149.402344 58.195312 150.972656 58.09375 153.0625 C 56.75 152.875 55.832031 152.644531 54.671875 151.921875 L 53.878906 151.191406 L 53.878906 150.253906 L 52.007812 150.253906 C 51.988281 149.472656 51.988281 148.695312 52.007812 147.914062 Z M 168.585938 256.960938 L 170.460938 256.960938 L 170.929688 261.171875 C 169.933594 261.421875 168.9375 261.664062 167.941406 261.90625 L 166.265625 262.316406 L 164.839844 262.578125 L 163.90625 262.109375 L 164.375 259.769531 L 168.585938 259.300781 Z M 200.421875 256.960938 L 199.957031 259.300781 C 199.078125 259.460938 198.199219 259.617188 197.320312 259.769531 L 195.839844 260.03125 C 194.382812 260.230469 193 260.273438 191.527344 260.238281 L 191.527344 258.367188 C 197.375 256.753906 197.375 256.753906 200.421875 256.960938 M 190.589844 259.300781 L 190.589844 261.171875 C 189.714844 261.492188 188.835938 261.800781 187.957031 262.109375 L 186.476562 262.636719 C 184.964844 263.046875 183.722656 263.121094 182.164062 263.046875 L 182.164062 261.171875 C 183.039062 260.855469 183.917969 260.542969 184.796875 260.238281 L 186.277344 259.710938 C 187.792969 259.300781 189.035156 259.226562 190.589844 259.300781 M 294.753906 210.070312 L 296.023438 210.101562 L 297.300781 210.128906 L 298.273438 210.160156 C 298.539062 211.066406 298.539062 211.066406 298.742188 212.03125 L 298.273438 212.5 C 297.175781 212.609375 296.070312 212.695312 294.96875 212.761719 L 293.136719 212.882812 L 291.71875 212.96875 C 291.867188 212.089844 291.867188 212.089844 292.1875 211.097656 C 293.59375 210.160156 293.59375 210.160156 294.753906 210.070312 M 247.710938 275.214844 L 247.710938 277.085938 C 246.960938 277.320312 246.210938 277.554688 245.457031 277.789062 L 244.191406 278.183594 C 243.027344 278.488281 243.027344 278.488281 241.625 278.488281 L 242.09375 276.148438 C 244.019531 275.546875 245.683594 275.089844 247.710938 275.214844 M 117.554688 273.808594 C 117.378906 274.71875 117.378906 274.71875 117.085938 275.683594 C 115.847656 276.300781 114.894531 276.195312 113.515625 276.179688 L 112.09375 276.167969 L 111 276.148438 L 111.46875 274.277344 C 113.53125 273.761719 115.441406 273.773438 117.554688 273.808594 M 223.363281 241.050781 C 224.300781 241.027344 225.238281 241.03125 226.175781 241.050781 L 226.640625 241.515625 L 226.640625 243.855469 L 221.492188 244.324219 L 221.492188 242.453125 L 222.898438 241.984375 Z M 223.363281 241.050781 " fill-opacity="1" fill-rule="nonzero"/><path fill="#fdb1d1" d="M 258.011719 224.199219 L 257.542969 226.539062 L 255.933594 226.949219 L 254.265625 227.476562 L 253.796875 228.414062 L 251.925781 227.945312 C 252.070312 227.039062 252.070312 227.039062 252.394531 226.074219 L 253.796875 225.605469 L 254.265625 224.667969 C 255.5625 224.328125 256.667969 224.199219 258.011719 224.199219 " fill-opacity="1" fill-rule="nonzero"/><path fill="#fda4ca" d="M 146.582031 169.910156 L 150.796875 170.378906 L 150.796875 174.589844 L 148.921875 174.589844 L 148.453125 172.25 L 146.582031 171.78125 Z M 146.582031 169.910156 " fill-opacity="1" fill-rule="nonzero"/><path fill="#fdb1d1" d="M 143.304688 271.46875 L 147.988281 271.46875 L 147.988281 273.808594 L 143.304688 274.277344 Z M 143.304688 271.46875 " fill-opacity="1" fill-rule="nonzero"/><path fill="#fda4ca" d="M 161.652344 261.144531 L 163.4375 261.171875 L 163.4375 263.046875 C 162.765625 263.214844 162.09375 263.382812 161.417969 263.542969 L 160.28125 263.824219 C 159.222656 263.980469 159.222656 263.980469 157.820312 263.511719 C 157.964844 262.605469 157.964844 262.605469 158.285156 261.640625 C 159.574219 261.210938 160.328125 261.121094 161.652344 261.144531 M 240.21875 240.113281 L 244.902344 240.113281 L 244.902344 242.921875 L 240.21875 242.453125 Z M 240.21875 240.113281 " fill-opacity="1" fill-rule="nonzero"/><path fill="#fdb1d1" d="M 164.375 264.449219 L 166.246094 264.917969 C 166.101562 265.824219 166.101562 265.824219 165.777344 266.789062 L 164.375 267.257812 L 163.90625 268.195312 C 162.816406 268.382812 161.726562 268.542969 160.628906 268.660156 L 160.628906 266.789062 L 161.972656 266.410156 L 163.4375 265.855469 Z M 289.378906 193.3125 L 290.316406 193.78125 L 290.316406 197.992188 L 288.441406 198.460938 L 287.976562 197.992188 C 287.945312 197.28125 287.933594 196.566406 287.945312 195.855469 L 287.957031 194.683594 L 287.976562 193.78125 Z M 289.378906 193.3125 " fill-opacity="1" fill-rule="nonzero"/><path fill="#fda4ca" d="M 290.785156 188.164062 L 293.59375 188.632812 L 293.59375 192.84375 L 291.71875 192.84375 Z M 290.785156 188.164062 " fill-opacity="1" fill-rule="nonzero"/><path fill="#fdb1d1" d="M 233.195312 243.390625 L 232.730469 245.261719 L 228.515625 245.730469 L 228.046875 243.855469 L 228.515625 243.390625 C 231.523438 242.832031 231.523438 242.832031 233.195312 243.390625 " fill-opacity="1" fill-rule="nonzero"/><path fill="#fda4ca" d="M 253.328125 229.816406 C 253.183594 230.695312 253.183594 230.695312 252.859375 231.6875 L 251.457031 232.625 C 249.964844 232.683594 249.964844 232.683594 248.648438 232.625 L 248.648438 230.285156 C 250.242188 229.921875 251.695312 229.769531 253.328125 229.816406 M 141.898438 273.808594 L 141.898438 275.683594 C 140.273438 276.222656 138.921875 276.183594 137.21875 276.148438 L 137.21875 274.277344 C 138.800781 273.792969 140.25 273.773438 141.898438 273.808594 " fill-opacity="1" fill-rule="nonzero"/><path fill="#fdb1d1" d="M 83.84375 241.050781 L 86.1875 241.050781 L 86.1875 244.792969 L 84.3125 245.261719 C 83.621094 243.878906 83.816406 242.574219 83.84375 241.050781 M 250.519531 239.644531 L 250.050781 241.984375 L 246.304688 241.984375 L 246.304688 240.113281 C 247.746094 239.6875 249.023438 239.601562 250.519531 239.644531 " fill-opacity="1" fill-rule="nonzero"/><path fill="#fda4ca" d="M 306.234375 232.15625 L 306.234375 234.027344 L 302.019531 234.496094 L 302.019531 232.625 C 303.40625 231.933594 304.707031 232.128906 306.234375 232.15625 M 187.78125 251.34375 L 187.78125 254.152344 L 184.503906 254.152344 L 184.972656 251.8125 C 185.945312 251.554688 186.773438 251.34375 187.78125 251.34375 M 265.035156 270.066406 L 265.035156 272.40625 L 261.757812 272.875 L 262.222656 270.535156 C 264.507812 270.066406 264.507812 270.066406 265.035156 270.066406 " fill-opacity="1" fill-rule="nonzero"/><path fill="#fdb1d1" d="M 100.230469 267.257812 L 102.105469 267.257812 L 102.105469 270.066406 L 99.296875 270.066406 C 99.4375 269.28125 99.59375 268.503906 99.761719 267.726562 Z M 100.230469 267.257812 " fill-opacity="1" fill-rule="nonzero"/><path fill="#fda4ca" d="M 122.234375 272.40625 L 122.234375 274.277344 L 118.957031 274.746094 L 118.957031 272.875 C 120.363281 272.40625 120.363281 272.40625 122.234375 272.40625 M 299.210938 242.453125 L 299.210938 244.324219 L 295.933594 244.792969 L 295.933594 242.921875 C 297.339844 242.453125 297.339844 242.453125 299.210938 242.453125 " fill-opacity="1" fill-rule="nonzero"/><path fill="#fdb1d1" d="M 184.503906 237.304688 L 186.378906 237.304688 L 185.910156 240.113281 L 183.570312 240.113281 C 183.710938 239.328125 183.867188 238.550781 184.039062 237.773438 Z M 73.542969 309.847656 L 75.886719 310.316406 L 75.417969 312.65625 L 73.542969 312.65625 Z M 100.230469 277.085938 L 102.105469 277.085938 L 101.636719 279.425781 L 99.296875 279.894531 C 99.4375 279.109375 99.59375 278.332031 99.761719 277.554688 Z M 100.230469 277.085938 " fill-opacity="1" fill-rule="nonzero"/><path fill="#fda4ca" d="M 306.234375 241.050781 L 309.511719 241.050781 L 309.511719 242.921875 L 306.234375 242.921875 Z M 83.375 232.625 L 85.25 232.625 L 85.25 235.902344 L 83.375 235.902344 Z M 83.375 232.625 " fill-opacity="1" fill-rule="nonzero"/><path fill="#fdb1d1" d="M 255.203125 166.167969 L 257.542969 166.632812 L 257.542969 168.507812 L 254.734375 168.507812 Z M 137.21875 160.082031 L 139.089844 160.082031 L 138.621094 162.421875 L 136.28125 162.890625 C 136.421875 162.105469 136.578125 161.328125 136.75 160.550781 Z M 273.929688 267.257812 L 276.269531 267.257812 L 275.800781 269.597656 L 273.460938 269.128906 Z M 102.105469 265.386719 L 104.914062 265.855469 L 104.445312 268.195312 L 102.105469 267.257812 Z M 176.546875 257.429688 L 178.886719 257.898438 L 178.417969 259.769531 L 176.078125 259.769531 Z M 226.640625 215.308594 L 228.984375 215.308594 L 228.984375 217.648438 L 227.109375 217.648438 Z M 99.761719 174.589844 L 101.167969 174.589844 L 100.699219 177.398438 L 98.828125 177.398438 C 98.96875 176.617188 99.125 175.835938 99.296875 175.058594 Z M 99.761719 174.589844 " fill-opacity="1" fill-rule="nonzero"/><path fill="#fda4ca" d="M 311.851562 218.117188 L 314.660156 218.117188 L 314.660156 219.988281 L 311.851562 219.988281 Z M 311.851562 218.117188 " fill-opacity="1" fill-rule="nonzero"/><path fill="#fdb1d1" d="M 287.507812 187.226562 L 289.378906 187.226562 L 289.378906 190.035156 L 287.507812 190.035156 Z M 287.507812 187.226562 " fill-opacity="1" fill-rule="nonzero"/><path fill="#fda4ca" d="M 302.957031 259.769531 L 305.296875 259.769531 L 305.296875 261.640625 L 302.957031 261.640625 Z M 302.957031 259.769531 " fill-opacity="1" fill-rule="nonzero"/><path fill="#fdb1d1" d="M 103.039062 274.277344 L 104.914062 274.277344 L 104.445312 276.617188 L 103.039062 276.617188 C 102.777344 275.710938 102.777344 275.710938 102.574219 274.746094 Z M 248.179688 227.476562 L 250.050781 227.945312 L 249.582031 229.816406 L 247.710938 229.347656 Z M 94.144531 175.996094 L 96.019531 176.460938 L 95.550781 178.335938 L 93.675781 177.867188 Z M 257.074219 168.972656 L 258.945312 169.441406 L 258.480469 171.316406 L 256.605469 170.847656 Z M 292.65625 242.921875 L 294.53125 243.390625 L 294.0625 245.261719 L 292.1875 244.792969 Z M 258.945312 271.46875 L 260.820312 271.46875 L 260.820312 273.808594 L 258.945312 273.34375 Z M 180.761719 256.027344 L 182.164062 256.027344 L 182.164062 258.367188 L 180.292969 258.367188 Z M 172.332031 256.027344 L 173.738281 256.027344 L 173.738281 258.367188 L 171.863281 258.367188 Z M 262.222656 228.878906 L 263.628906 228.878906 L 263.628906 231.21875 L 261.757812 231.21875 Z M 253.796875 207.351562 L 256.136719 207.820312 L 255.667969 209.691406 L 253.796875 209.222656 Z M 179.355469 171.78125 L 180.761719 171.78125 L 180.761719 174.121094 L 178.886719 174.121094 Z M 266.4375 269.597656 L 268.777344 269.597656 L 268.3125 271.46875 L 266.4375 271 Z M 169.992188 263.980469 L 171.863281 263.980469 L 171.863281 265.855469 L 169.523438 265.386719 Z M 197.144531 252.75 L 199.019531 252.75 L 199.019531 254.621094 L 196.679688 254.152344 Z M 283.292969 244.324219 L 285.164062 244.324219 L 285.164062 246.664062 L 283.292969 246.195312 Z M 255.667969 229.816406 L 257.542969 229.816406 L 257.542969 231.6875 L 255.203125 231.21875 Z M 288.441406 190.972656 L 290.316406 190.972656 L 290.316406 192.84375 L 287.976562 192.375 Z M 257.074219 178.335938 L 258.945312 178.335938 L 258.945312 180.207031 L 256.605469 179.738281 Z M 78.695312 178.335938 L 80.566406 178.335938 L 80.566406 180.207031 L 78.226562 179.738281 Z M 254.265625 159.613281 L 256.136719 159.613281 L 256.136719 161.484375 L 253.796875 161.019531 Z M 92.273438 155.402344 L 94.613281 155.402344 L 94.144531 157.273438 L 92.273438 156.804688 Z M 87.589844 281.296875 L 89.464844 281.296875 L 88.996094 283.636719 L 87.589844 283.171875 Z M 303.425781 219.519531 L 305.765625 219.988281 L 305.296875 221.390625 L 303.425781 221.390625 Z M 303.425781 219.519531 " fill-opacity="1" fill-rule="nonzero"/><path fill="#fda4ca" d="M 226.175781 280.832031 L 228.046875 280.832031 L 228.046875 282.703125 L 226.175781 282.703125 Z M 288.910156 243.855469 L 290.785156 243.855469 L 290.785156 245.730469 L 288.910156 245.730469 Z M 244.433594 231.21875 L 246.304688 231.21875 L 246.304688 233.09375 L 244.433594 233.09375 Z M 305.765625 186.757812 L 307.640625 186.757812 L 307.640625 188.632812 L 305.765625 188.632812 Z M 144.710938 164.292969 L 146.582031 164.292969 L 146.582031 166.167969 L 144.710938 166.167969 Z M 144.710938 164.292969 " fill-opacity="1" fill-rule="nonzero"/></svg>