<svg xmlns="http://www.w3.org/2000/svg" xmlns:xlink="http://www.w3.org/1999/xlink" width="503" zoomAndPan="magnify" viewBox="0 0 377.25 347.249998" height="463" preserveAspectRatio="xMidYMid meet" version="1.0"><path fill="#e5c5f9" d="M 143.101562 19.933594 C 146.140625 21.335938 148.851562 23.40625 151.121094 25.84375 C 151.574219 26.371094 151.574219 26.371094 152.148438 26.621094 C 154.507812 26.886719 156.667969 26.355469 158.875 25.546875 L 159.804688 25.023438 C 161.472656 24.167969 163.351562 23.949219 165.179688 23.632812 L 166.351562 23.421875 C 172.792969 22.273438 179.367188 21.445312 185.6875 23.644531 C 188.855469 24.8125 191.144531 26.761719 193.308594 29.308594 C 194.898438 31.347656 196.117188 33.53125 196.808594 36.03125 L 197.082031 37 C 198.484375 42.300781 198.925781 47.769531 198.691406 53.234375 L 198.664062 53.855469 C 198.261719 61.535156 195.199219 68.835938 191.6875 75.574219 C 191.414062 76.105469 191.152344 76.640625 190.890625 77.175781 C 190.039062 78.921875 189.160156 80.605469 188.113281 82.246094 C 187.28125 83.5625 186.710938 84.789062 186.316406 86.292969 C 186.046875 87.101562 186.046875 87.101562 185.664062 87.449219 L 185.1875 87.808594 C 183.507812 89.199219 182.539062 91.136719 181.4375 92.988281 C 180.226562 94.988281 178.960938 96.953125 177.707031 98.929688 L 176.4375 100.933594 L 175.617188 102.226562 C 174.917969 103.324219 174.238281 104.433594 173.570312 105.550781 C 171.925781 108.292969 171.925781 108.292969 170.710938 109.144531 C 169.773438 109.332031 168.960938 109.320312 168.023438 109.144531 C 167.199219 108.738281 167.199219 108.738281 166.675781 108.066406 C 166.417969 107.222656 166.316406 106.773438 166.40625 105.917969 C 166.886719 104.785156 167.539062 103.773438 168.207031 102.742188 C 168.390625 102.449219 168.574219 102.152344 168.761719 101.847656 C 169.316406 100.960938 169.878906 100.078125 170.441406 99.195312 C 170.753906 98.699219 171.0625 98.203125 171.375 97.707031 C 172.773438 95.46875 174.1875 93.242188 175.699219 91.078125 C 176.316406 90.191406 176.617188 89.613281 176.78125 88.527344 C 176.691406 87.632812 176.691406 87.632812 176.175781 86.972656 C 175.511719 86.246094 174.894531 85.824219 174.039062 85.335938 L 173.136719 84.8125 L 172.175781 84.261719 C 171.515625 83.882812 170.859375 83.5 170.203125 83.117188 L 169.707031 82.828125 C 168.042969 81.859375 166.421875 80.828125 164.816406 79.769531 C 163.589844 78.972656 162.4375 78.382812 161.027344 77.960938 C 160.253906 77.957031 160.253906 77.957031 159.546875 78.113281 C 158.808594 78.203125 158.21875 78.265625 157.496094 78.097656 C 156.636719 77.707031 156.027344 77.277344 155.382812 76.582031 C 154.539062 75.679688 153.789062 74.921875 152.585938 74.527344 C 150.9375 74.121094 149.261719 73.875 147.574219 73.660156 L 146.945312 73.570312 C 145.875 73.410156 145.875 73.410156 144.816406 73.5625 C 144.195312 74.050781 143.761719 74.65625 143.269531 75.273438 C 142.265625 75.609375 141.355469 75.652344 140.3125 75.542969 C 139.484375 75.324219 138.6875 75.046875 137.890625 74.738281 L 137.976562 75.710938 C 137.976562 76.390625 137.949219 76.785156 137.609375 77.378906 C 137.128906 77.957031 136.6875 78.429688 136.007812 78.769531 C 134.488281 78.894531 134.488281 78.894531 133.855469 78.769531 C 132.855469 78.09375 132.21875 77.359375 131.550781 76.367188 C 130.667969 75.117188 129.714844 73.976562 128.675781 72.855469 L 128.261719 72.40625 C 127.570312 71.667969 126.90625 70.984375 126.054688 70.4375 C 125.367188 70.238281 125.367188 70.238281 124.609375 70.140625 L 123.757812 70.011719 L 122.859375 69.882812 L 121.933594 69.738281 C 120.699219 69.550781 119.460938 69.371094 118.21875 69.230469 C 113.449219 68.671875 108.769531 66.753906 104.832031 64.019531 C 101.757812 61.640625 99.773438 59.054688 98.199219 55.535156 C 96.792969 52.050781 96.402344 48.738281 96.875 45.003906 C 97.589844 40.019531 97.589844 40.019531 99.09375 38.105469 C 99.457031 37.695312 99.828125 37.289062 100.207031 36.894531 C 100.746094 36.320312 101.21875 35.730469 101.691406 35.105469 C 102.742188 33.734375 103.890625 32.457031 105.070312 31.191406 L 105.507812 30.707031 C 110.457031 25.488281 117.492188 21.816406 124.300781 19.707031 C 130.855469 17.789062 136.621094 17.515625 143.101562 19.933594 M 137.351562 24.738281 C 137.75 26.753906 138.355469 28.652344 139.035156 30.585938 L 139.359375 31.519531 C 140.101562 33.625 140.902344 35.660156 141.925781 37.640625 C 142.453125 37.542969 142.453125 37.542969 143.003906 37.375 C 143.394531 36.925781 143.394531 36.925781 143.539062 36.296875 C 143.46875 35.34375 143.324219 34.765625 142.800781 33.957031 L 142.230469 33.242188 C 141.3125 32.027344 140.6875 31.054688 140.3125 29.578125 C 140.3125 28.703125 140.3125 28.703125 140.582031 27.964844 C 141.253906 27.378906 141.253906 27.378906 141.925781 26.890625 L 142.195312 26.085938 C 141.683594 25.484375 141.683594 25.484375 140.867188 25.316406 L 139.925781 25.109375 C 139.613281 25.039062 139.304688 24.96875 138.984375 24.898438 C 138.167969 24.714844 138.167969 24.714844 137.351562 24.738281 M 124.777344 26.335938 L 123.863281 26.59375 C 120.785156 27.496094 117.886719 28.738281 115.292969 30.652344 L 115.023438 31.460938 C 115.359375 32.160156 115.722656 32.84375 116.117188 33.507812 L 116.457031 34.101562 C 117.027344 35.082031 117.617188 36.039062 118.269531 36.96875 C 119.066406 38.128906 119.667969 39.363281 120.285156 40.625 C 121.261719 42.609375 122.320312 44.546875 123.382812 46.488281 C 124.320312 48.214844 125.246094 49.945312 126.15625 51.6875 C 127.019531 53.339844 127.917969 54.960938 128.878906 56.558594 C 129.265625 57.234375 129.585938 57.917969 129.902344 58.625 C 130.589844 60.039062 131.582031 61.09375 132.664062 62.222656 C 133.214844 62.800781 133.703125 63.390625 134.191406 64.019531 L 134.929688 64.792969 C 135.796875 65.070312 135.796875 65.070312 136.546875 65.058594 C 136.429688 63.367188 136.03125 62.226562 135.167969 60.777344 L 134.832031 60.203125 C 134.136719 59.015625 133.367188 57.945312 132.496094 56.882812 C 130.585938 54.355469 129.066406 51.539062 127.703125 48.691406 C 126.984375 47.226562 126.132812 45.867188 125.246094 44.496094 C 123.308594 41.492188 121.753906 38.421875 120.421875 35.105469 L 120.179688 34.519531 C 119.660156 33.171875 119.328125 31.835938 119.328125 30.386719 C 119.628906 29.59375 119.628906 29.59375 120.136719 29.039062 C 120.902344 28.605469 121.441406 28.503906 122.320312 28.453125 C 123.09375 28.503906 123.09375 28.503906 123.902344 28.773438 C 124.09375 29.125 124.273438 29.484375 124.4375 29.847656 C 124.773438 30.316406 125.113281 30.78125 125.464844 31.242188 L 126.113281 32.09375 L 126.472656 32.5625 C 126.898438 33.125 127.324219 33.683594 127.75 34.242188 L 128.675781 35.457031 L 129.117188 36.039062 C 129.953125 37.132812 130.816406 38.203125 131.703125 39.253906 L 132.242188 38.71875 C 132.074219 38.207031 131.902344 37.699219 131.734375 37.1875 C 131.589844 36.746094 131.441406 36.304688 131.296875 35.863281 C 130.964844 34.855469 130.625 33.855469 130.230469 32.871094 C 129.285156 30.488281 129.050781 28.347656 129.011719 25.816406 C 127.558594 25.316406 126.199219 25.933594 124.777344 26.335938 M 183.625 29.308594 C 183.832031 30.886719 184.132812 32.4375 184.449219 33.996094 L 184.601562 34.75 C 184.722656 35.355469 184.847656 35.960938 184.96875 36.566406 L 186.046875 36.566406 L 186.414062 36.183594 C 186.851562 35.761719 186.851562 35.761719 187.636719 35.566406 L 188.519531 35.441406 L 189.402344 35.3125 L 190.082031 35.222656 C 189.863281 34.03125 189.257812 33.285156 188.515625 32.351562 C 187.554688 31.328125 186.421875 30.59375 185.238281 29.847656 L 184.433594 29.308594 Z M 146.5 29.847656 C 147.671875 33.628906 150.433594 36.058594 153.226562 38.71875 L 154.03125 38.449219 C 154.230469 37.917969 154.230469 37.917969 154.316406 37.289062 C 154.46875 36.421875 154.648438 35.714844 155.109375 34.953125 C 155.847656 34.574219 156.554688 34.394531 157.363281 34.199219 C 158.445312 33.84375 159.441406 33.394531 160.21875 32.535156 L 160.21875 31.460938 C 158.886719 31.628906 157.621094 31.886719 156.320312 32.234375 L 155.300781 32.5 C 154.585938 32.71875 153.96875 32.941406 153.296875 33.246094 C 152.417969 33.609375 152.417969 33.609375 151.410156 33.542969 C 150.535156 33.339844 150.535156 33.339844 149.726562 33.074219 L 149.542969 32.5 C 149.011719 31.335938 148.070312 30.59375 147.039062 29.847656 Z M 170.175781 33.074219 L 171.519531 34.148438 L 171.519531 33.074219 Z M 110.179688 34.953125 C 109.019531 35.730469 108.433594 36.582031 107.757812 37.792969 L 107.238281 38.71875 C 107.050781 39.074219 106.867188 39.433594 106.683594 39.792969 L 106.351562 40.441406 C 105.398438 42.417969 104.839844 44.417969 104.328125 46.546875 L 104.082031 47.53125 C 103.242188 50.367188 103.242188 50.367188 103.339844 53.25 C 103.570312 53.808594 103.832031 54.332031 104.128906 54.863281 L 104.429688 55.429688 C 105.503906 57.386719 106.671875 58.820312 108.515625 60.105469 C 111.464844 61.878906 115.539062 63.652344 119.011719 63.734375 L 119.597656 63.714844 L 119.867188 63.179688 L 119.34375 62.675781 C 119.070312 62.394531 118.792969 62.117188 118.519531 61.835938 L 117.988281 61.289062 C 115.457031 58.597656 113.058594 55.300781 111.839844 51.777344 C 111.332031 50.316406 110.644531 49.253906 109.625 48.09375 C 108.574219 46.890625 107.863281 45.929688 107.492188 44.363281 C 107.371094 43.355469 107.371094 43.355469 107.492188 42.480469 C 107.910156 41.84375 107.910156 41.84375 108.566406 41.40625 C 109.457031 41.136719 109.457031 41.136719 110.449219 41.136719 C 111.175781 41.457031 111.691406 41.761719 112.332031 42.210938 C 112.632812 42.414062 112.929688 42.621094 113.230469 42.824219 C 114.101562 43.421875 114.96875 44.023438 115.832031 44.632812 L 116.367188 44.09375 C 115.089844 41.503906 113.777344 38.980469 112.0625 36.652344 L 111.683594 36.128906 C 111.375 35.726562 111.050781 35.339844 110.71875 34.953125 Z M 191.15625 39.253906 C 190.472656 43.421875 189.796875 47.589844 189.191406 51.769531 L 189.050781 52.71875 L 188.925781 53.601562 L 188.8125 54.371094 C 188.730469 55.164062 188.722656 55.933594 188.738281 56.726562 L 189.273438 56.726562 L 189.492188 56.058594 C 189.820312 55.164062 190.152344 54.335938 190.621094 53.5 C 191.324219 52.953125 191.917969 52.738281 192.773438 52.425781 C 193.628906 50.714844 193.132812 47.847656 193.042969 45.976562 C 192.824219 43.691406 192.484375 41.417969 191.695312 39.253906 Z M 159.414062 55.652344 C 159.601562 56.476562 159.800781 57.300781 160 58.121094 L 160.160156 58.824219 C 160.441406 59.953125 160.675781 60.65625 161.421875 61.574219 C 162.167969 62.152344 162.808594 62.40625 163.71875 62.640625 C 163.804688 61.625 163.804688 61.625 163.429688 61.042969 L 163.027344 60.492188 C 162.140625 59.230469 161.394531 57.917969 160.652344 56.566406 L 160.21875 55.921875 Z M 138.699219 56.191406 C 138.847656 57.144531 139.089844 57.84375 139.59375 58.667969 L 139.972656 59.304688 L 140.378906 59.96875 C 141.410156 61.699219 142.308594 63.359375 142.976562 65.261719 C 143.238281 65.898438 143.238281 65.898438 143.804688 66.34375 C 144.457031 66.738281 144.933594 66.851562 145.691406 66.941406 C 146.320312 66.953125 146.949219 66.953125 147.574219 66.941406 C 146.648438 64.359375 144.722656 62.417969 142.78125 60.546875 C 142.113281 59.871094 141.636719 59.132812 141.117188 58.339844 C 140.429688 57.59375 139.722656 56.871094 138.964844 56.191406 Z M 153.226562 64.523438 C 153.578125 65.484375 154.003906 66.285156 154.585938 67.125 C 155.359375 68.246094 155.359375 68.246094 155.644531 68.824219 L 156.183594 68.824219 C 156.207031 68.390625 156.222656 67.960938 156.234375 67.53125 L 156.261719 66.800781 L 156.183594 66.136719 C 155.546875 65.304688 154.707031 64.945312 153.761719 64.523438 Z M 169.367188 113.980469 C 170.144531 114.089844 170.144531 114.089844 170.980469 114.519531 C 171.4375 115.234375 171.683594 116.019531 171.957031 116.820312 C 172.140625 117.3125 172.324219 117.800781 172.511719 118.292969 L 172.8125 119.082031 C 175.402344 125.628906 179.261719 131.179688 183.457031 136.78125 C 190.167969 145.746094 197.152344 155.285156 198.527344 166.691406 C 198.585938 167.21875 198.636719 167.75 198.691406 168.277344 L 198.757812 168.933594 C 198.871094 170.148438 198.929688 171.359375 198.960938 172.578125 L 198.992188 173.539062 C 199.238281 187.328125 195.578125 200.058594 189.964844 212.5 C 185.835938 221.675781 182.257812 230.488281 183.144531 240.726562 C 184.339844 250.179688 188.617188 260.074219 192.671875 268.570312 C 193.042969 269.351562 193.40625 270.128906 193.773438 270.914062 C 195.328125 274.234375 197.007812 277.46875 198.800781 280.671875 C 199.246094 281.46875 199.6875 282.269531 200.128906 283.070312 C 202.339844 287.0625 204.65625 290.984375 207.03125 294.882812 L 207.523438 295.691406 C 208.003906 296.480469 208.484375 297.269531 208.964844 298.058594 L 209.4375 298.832031 L 209.902344 299.59375 L 210.355469 300.34375 C 210.640625 300.808594 210.925781 301.273438 211.210938 301.738281 C 213.96875 306.253906 216.554688 310.867188 219.042969 315.539062 C 219.808594 316.96875 220.644531 318.316406 221.574219 319.644531 C 222.058594 320.371094 222.371094 320.980469 222.589844 321.824219 C 222.632812 322.566406 222.632812 322.566406 222.28125 323.308594 C 221.828125 323.910156 221.828125 323.910156 221.289062 324.449219 C 220.5 324.433594 220.5 324.433594 219.675781 324.179688 C 219.210938 323.582031 219.210938 323.582031 218.851562 322.820312 L 218.445312 322 L 218.0625 321.222656 C 217.855469 320.890625 217.640625 320.558594 217.421875 320.234375 C 216.796875 319.257812 216.296875 318.230469 215.789062 317.191406 C 213.507812 312.53125 210.699219 308.132812 207.992188 303.714844 C 205.175781 299.109375 202.40625 294.480469 199.765625 289.773438 L 199.273438 288.898438 C 196.71875 284.335938 194.253906 279.726562 191.878906 275.070312 C 191.46875 274.265625 191.054688 273.457031 190.640625 272.65625 C 188.746094 268.949219 187.03125 265.167969 185.359375 261.359375 C 185.023438 260.597656 184.683594 259.835938 184.335938 259.082031 C 180.605469 250.761719 178.839844 241.195312 179.714844 232.101562 C 180.667969 223.980469 184.085938 216.484375 187.535156 209.167969 C 191.417969 200.898438 194.316406 191.910156 195.191406 182.792969 L 195.28125 182.003906 C 196.089844 173.738281 195.421875 164.378906 191.964844 156.71875 C 189.558594 151.644531 186.578125 146.945312 183.207031 142.460938 C 182.488281 141.492188 181.789062 140.511719 181.085938 139.535156 C 180.101562 138.164062 179.105469 136.808594 178.078125 135.472656 C 176.238281 133.074219 174.648438 130.570312 173.132812 127.957031 L 172.746094 127.296875 C 168.296875 119.648438 168.296875 119.648438 167.933594 115.554688 C 168.023438 115.054688 168.023438 115.054688 168.394531 114.601562 C 168.828125 114.25 168.828125 114.25 169.367188 113.980469 " fill-opacity="1" fill-rule="nonzero"/><path fill="#f2a7c8" d="M 202.457031 167.203125 L 203.265625 167.203125 C 203.414062 167.691406 203.414062 167.691406 203.53125 168.277344 L 203.265625 169.085938 L 201.648438 169.085938 L 201.648438 168.007812 L 202.1875 168.007812 Z M 197.078125 144.085938 C 197.4375 144.167969 197.796875 144.257812 198.152344 144.355469 L 198.421875 144.625 C 198.433594 145.160156 198.433594 145.699219 198.421875 146.238281 L 197.34375 146.238281 Z M 196.808594 148.65625 L 197.882812 148.925781 L 197.613281 149.730469 L 196.539062 149.460938 Z M 196.808594 148.65625 " fill-opacity="1" fill-rule="nonzero"/></svg>